<svg width="128" height="128" viewBox="0 0 128 128" fill="none" xmlns="http://www.w3.org/2000/svg">
<path fill-rule="evenodd" clip-rule="evenodd" d="M16 0C7.16344 0 0 7.16344 0 16V112C0 120.837 7.16344 128 16 128H112C120.837 128 128 120.837 128 112V16C128 7.16344 120.837 0 112 0H16ZM81.1857 28.6857C81.1857 15.0522 70.1335 4 56.5 4V51.8376C65.5871 55.0001 72.7284 62.3099 75.6663 71.4999L124 71.5002C124 57.8667 112.948 46.8145 99.3143 46.8145L81.1857 46.8145V28.6857ZM71.5 124.001C57.8665 124.001 46.8143 112.949 46.8143 99.3157V81.1873H28.6857C15.0522 81.1873 4 70.1351 4 56.5016L46.8143 56.5014C60.4478 56.5014 71.5 67.5537 71.5 81.1873V124.001Z" fill="#DEB430"/>
</svg>
