<svg width="504" height="96" viewBox="0 0 504 96" fill="none" xmlns="http://www.w3.org/2000/svg">
<path d="M67.313 78.5351L28.687 40.7515C22.1717 34.3591 22.1717 23.8573 28.687 17.4649L67.1967 55.2485C73.8283 61.7551 73.8283 72.1427 67.313 78.5351ZM49.5125 72.7134L10.8864 34.9298C4.37119 41.3222 4.37119 51.824 10.8864 58.2164L49.3961 96C56.0277 89.6076 56.0277 79.22 49.5125 72.7134ZM46.4875 23.2866L85.1136 61.0702C91.6288 54.6778 91.6288 44.176 85.1136 37.7836L46.4875 0C39.9723 6.39239 39.9723 16.8942 46.4875 23.2866Z" fill="white"/>
<path d="M154.02 46.2545C160.191 46.2545 165.309 48.5818 169.524 53.2364L178.706 45.0909C172.986 38.2545 164.105 34.6182 153.417 34.6182C134.3 34.6182 120 47.4182 120 65.3091C120 83.2 134.15 96 153.267 96C163.955 96 172.836 92.2182 178.556 85.3818L169.374 77.2364C165.309 81.8909 160.041 84.2182 153.869 84.2182C142.429 84.2182 134.15 76.3636 134.15 65.1636C134.3 54.1091 142.429 46.2545 154.02 46.2545ZM205.802 48.7273C198.275 48.7273 190.598 50.6182 185.48 54.2545L190.448 63.5636C193.91 60.9455 199.028 59.3455 203.995 59.3455C211.371 59.3455 214.833 62.6909 214.833 68.3636H203.995C189.544 68.3636 183.674 73.8909 183.674 82.0364C183.674 89.8909 190.297 95.8545 201.286 95.8545C208.21 95.8545 213.178 93.6727 215.737 89.4545V95.1273H228.532V68.9455C228.532 55.1273 220.252 48.7273 205.802 48.7273ZM214.833 80.5818C213.328 84.8 209.264 86.8364 204.748 86.8364C199.931 86.8364 197.071 84.6545 197.071 81.3091C197.071 78.2545 199.028 75.9273 205.501 75.9273H214.833V80.5818ZM250.659 62.9818C250.659 60.6545 253.218 58.7636 259.39 58.7636C263.755 58.7636 268.271 59.6364 272.938 62.1091L277.454 52.6545C272.938 50.1818 265.712 48.7273 259.24 48.7273C245.391 48.7273 237.413 54.8364 237.413 63.4182C237.413 81.6 265.863 74.0364 265.863 81.4545C265.863 83.9273 263.454 85.6727 257.132 85.6727C251.412 85.6727 244.939 83.9273 240.724 81.3091L236.209 90.7636C240.574 93.5273 248.702 95.7091 256.681 95.7091C270.83 95.7091 278.959 89.7455 278.959 81.1636C279.109 63.1273 250.659 70.6909 250.659 62.9818ZM333.751 72.2909C333.751 57.6 323.064 48.5818 309.215 48.5818C294.764 48.5818 284.077 58.4727 284.077 72.1454C284.077 85.6727 294.764 95.5636 311.022 95.5636C319.602 95.5636 326.074 93.0909 330.44 88.1455L323.214 80.5818C319.903 83.4909 316.441 84.9455 311.323 84.9455C304.097 84.9455 299.13 81.4545 297.775 75.7818H333.45C333.601 74.7636 333.751 73.3091 333.751 72.2909ZM297.624 68.2182C298.528 62.4 303.044 58.7636 309.366 58.7636C315.537 58.7636 320.053 62.5454 320.956 68.2182H297.624ZM377.254 32V54.1091C373.792 50.3273 368.975 48.5818 363.105 48.5818C349.708 48.5818 339.472 57.7454 339.472 72.1454C339.472 86.5454 349.708 95.5636 363.105 95.5636C369.427 95.5636 374.394 93.6727 377.857 89.6V94.8364H390.953V32H377.254ZM365.513 84.8C358.739 84.8 353.471 80 353.471 72.1454C353.471 64.2909 358.739 59.4909 365.513 59.4909C372.287 59.4909 377.555 64.2909 377.555 72.1454C377.555 80 372.287 84.8 365.513 84.8ZM424.671 48.7273C409.618 48.7273 398.63 58.4727 398.63 72.2909C398.63 85.9636 409.618 95.7091 424.671 95.7091C439.724 95.7091 450.562 85.9636 450.562 72.2909C450.562 58.4727 439.573 48.7273 424.671 48.7273ZM424.671 84.8C417.897 84.8 412.629 80 412.629 72.1454C412.629 64.2909 417.897 59.4909 424.671 59.4909C431.445 59.4909 436.713 64.2909 436.713 72.1454C436.713 80 431.445 84.8 424.671 84.8ZM482.625 84.8C475.7 84.8 470.281 80.1454 470.281 72.1454C470.281 64.1454 475.7 59.4909 482.625 59.4909C486.99 59.4909 490.753 61.3818 493.312 65.7455L504 60.2182C500.538 52.8 492.71 48.5818 482.775 48.5818C467.421 48.5818 456.433 58.3273 456.433 72.1454C456.433 85.8182 467.421 95.5636 482.775 95.5636C492.71 95.5636 500.538 91.3454 504 84.0727L493.312 78.5455C490.753 82.9091 486.99 84.8 482.625 84.8Z" fill="white"/>
</svg>
