<svg width="384" height="224" viewBox="0 0 384 224" fill="none" xmlns="http://www.w3.org/2000/svg">
<path d="M217.751 104.713L166.249 54.3353C157.562 45.8121 157.562 31.8098 166.249 23.2866L217.596 73.6647C226.438 82.3401 226.438 96.1903 217.751 104.713ZM194.017 96.9513L142.515 46.5731C133.828 55.0963 133.828 69.0987 142.515 77.6219L193.861 128C202.704 119.477 202.704 105.627 194.017 96.9513ZM189.983 31.0488L241.485 81.4269C250.172 72.9037 250.172 58.9013 241.485 50.3781L189.983 0C181.296 8.52319 181.296 22.5256 189.983 31.0488Z" fill="white"/>
<path d="M34.0196 174.255C40.1913 174.255 45.3093 176.582 49.5241 181.236L58.7064 173.091C52.9863 166.255 44.105 162.618 33.4175 162.618C14.3003 162.618 0 175.418 0 193.309C0 211.2 14.1498 224 33.267 224C43.9545 224 52.8358 220.218 58.5559 213.382L49.3736 205.236C45.3093 209.891 40.0408 212.218 33.8691 212.218C22.4289 212.218 14.1498 204.364 14.1498 193.164C14.3003 182.109 22.4288 174.255 34.0196 174.255ZM85.8016 176.727C78.2752 176.727 70.5982 178.618 65.4802 182.255L70.4477 191.564C73.9098 188.945 79.0278 187.345 83.9953 187.345C91.3712 187.345 94.8334 190.691 94.8334 196.364H83.9953C69.5445 196.364 63.6739 201.891 63.6739 210.036C63.6739 217.891 70.2971 223.855 81.2858 223.855C88.2101 223.855 93.1776 221.673 95.7366 217.455V223.127H108.532V196.945C108.532 183.127 100.252 176.727 85.8016 176.727ZM94.8334 208.582C93.3281 212.8 89.2638 214.836 84.7479 214.836C79.931 214.836 77.071 212.655 77.071 209.309C77.071 206.255 79.0278 203.927 85.5006 203.927H94.8334V208.582ZM130.659 190.982C130.659 188.655 133.218 186.764 139.39 186.764C143.755 186.764 148.271 187.636 152.938 190.109L157.454 180.655C152.938 178.182 145.712 176.727 139.24 176.727C125.391 176.727 117.413 182.836 117.413 191.418C117.413 209.6 145.863 202.036 145.863 209.455C145.863 211.927 143.454 213.673 137.132 213.673C131.412 213.673 124.939 211.927 120.724 209.309L116.209 218.764C120.574 221.527 128.702 223.709 136.681 223.709C150.83 223.709 158.959 217.745 158.959 209.164C159.109 191.127 130.659 198.691 130.659 190.982ZM213.751 200.291C213.751 185.6 203.064 176.582 189.215 176.582C174.764 176.582 164.077 186.473 164.077 200.145C164.077 213.673 174.764 223.564 191.022 223.564C199.602 223.564 206.074 221.091 210.44 216.145L203.214 208.582C199.903 211.491 196.441 212.945 191.323 212.945C184.097 212.945 179.13 209.455 177.775 203.782H213.45C213.601 202.764 213.751 201.309 213.751 200.291ZM177.624 196.218C178.528 190.4 183.044 186.764 189.366 186.764C195.537 186.764 200.053 190.545 200.956 196.218H177.624ZM257.254 160V182.109C253.792 178.327 248.975 176.582 243.105 176.582C229.708 176.582 219.472 185.745 219.472 200.145C219.472 214.545 229.708 223.564 243.105 223.564C249.427 223.564 254.394 221.673 257.857 217.6V222.836H270.953V160H257.254ZM245.513 212.8C238.739 212.8 233.471 208 233.471 200.145C233.471 192.291 238.739 187.491 245.513 187.491C252.287 187.491 257.555 192.291 257.555 200.145C257.555 208 252.287 212.8 245.513 212.8ZM304.671 176.727C289.618 176.727 278.63 186.473 278.63 200.291C278.63 213.964 289.618 223.709 304.671 223.709C319.724 223.709 330.562 213.964 330.562 200.291C330.562 186.473 319.573 176.727 304.671 176.727ZM304.671 212.8C297.897 212.8 292.629 208 292.629 200.145C292.629 192.291 297.897 187.491 304.671 187.491C311.445 187.491 316.713 192.291 316.713 200.145C316.713 208 311.445 212.8 304.671 212.8ZM362.625 212.8C355.7 212.8 350.281 208.145 350.281 200.145C350.281 192.145 355.7 187.491 362.625 187.491C366.99 187.491 370.753 189.382 373.312 193.745L384 188.218C380.538 180.8 372.71 176.582 362.775 176.582C347.421 176.582 336.433 186.327 336.433 200.145C336.433 213.818 347.421 223.564 362.775 223.564C372.71 223.564 380.538 219.345 384 212.073L373.312 206.545C370.753 210.909 366.99 212.8 362.625 212.8Z" fill="white"/>
</svg>
