<svg width="1200" height="800" viewBox="0 0 1200 800" fill="none" xmlns="http://www.w3.org/2000/svg">
<g clip-path="url(#clip0_4007_167970)">
<rect width="1200" height="800" fill="#FAF9F7"/>
<path d="M53.3335 53.3335L1146.67 53.3335" stroke="#152539" stroke-width="0.416667"/>
<path d="M54.0335 64.3333H54.7002V68.42H57.2268V69H54.0335V64.3333ZM61.0139 69.0533C60.5427 69.0533 60.1183 68.9511 59.7405 68.7467C59.3627 68.5378 59.065 68.2511 58.8472 67.8867C58.6339 67.5222 58.5272 67.1156 58.5272 66.6667C58.5272 66.2178 58.6339 65.8111 58.8472 65.4467C59.065 65.0822 59.3627 64.7978 59.7405 64.5933C60.1183 64.3844 60.5427 64.28 61.0139 64.28C61.4805 64.28 61.9027 64.3844 62.2805 64.5933C62.6583 64.7978 62.9539 65.0822 63.1672 65.4467C63.3805 65.8067 63.4872 66.2133 63.4872 66.6667C63.4872 67.12 63.3805 67.5289 63.1672 67.8933C62.9539 68.2533 62.6583 68.5378 62.2805 68.7467C61.9027 68.9511 61.4805 69.0533 61.0139 69.0533ZM61.0139 68.46C61.3561 68.46 61.6627 68.3822 61.9339 68.2267C62.2094 68.0711 62.425 67.8578 62.5805 67.5867C62.7405 67.3111 62.8205 67.0044 62.8205 66.6667C62.8205 66.3289 62.7405 66.0244 62.5805 65.7533C62.425 65.4778 62.2094 65.2622 61.9339 65.1067C61.6627 64.9511 61.3561 64.8733 61.0139 64.8733C60.6716 64.8733 60.3605 64.9511 60.0805 65.1067C59.805 65.2622 59.5872 65.4778 59.4272 65.7533C59.2716 66.0244 59.1939 66.3289 59.1939 66.6667C59.1939 67.0044 59.2716 67.3111 59.4272 67.5867C59.5872 67.8578 59.805 68.0711 60.0805 68.2267C60.3605 68.3822 60.6716 68.46 61.0139 68.46ZM67.5928 69.0533C67.1262 69.0533 66.7039 68.9511 66.3262 68.7467C65.9528 68.5378 65.6595 68.2533 65.4462 67.8933C65.2328 67.5289 65.1262 67.12 65.1262 66.6667C65.1262 66.2133 65.2328 65.8067 65.4462 65.4467C65.6595 65.0822 65.955 64.7978 66.3328 64.5933C66.7106 64.3844 67.1328 64.28 67.5995 64.28C67.9639 64.28 68.2973 64.3422 68.5995 64.4667C68.9017 64.5867 69.1595 64.7667 69.3728 65.0067L68.9395 65.4267C68.5884 65.0578 68.1506 64.8733 67.6262 64.8733C67.2795 64.8733 66.9662 64.9511 66.6862 65.1067C66.4062 65.2622 66.1862 65.4778 66.0262 65.7533C65.8706 66.0244 65.7928 66.3289 65.7928 66.6667C65.7928 67.0044 65.8706 67.3111 66.0262 67.5867C66.1862 67.8578 66.4062 68.0711 66.6862 68.2267C66.9662 68.3822 67.2795 68.46 67.6262 68.46C68.1462 68.46 68.5839 68.2733 68.9395 67.9L69.3728 68.32C69.1595 68.56 68.8995 68.7422 68.5928 68.8667C68.2906 68.9911 67.9573 69.0533 67.5928 69.0533ZM72.8439 66.9267L71.9905 67.7933V69H71.3239V64.3333H71.9905V66.94L74.5239 64.3333H75.2839L73.2905 66.4333L75.4105 69H74.6305L72.8439 66.9267ZM78.9838 69.0533C78.3615 69.0533 77.8771 68.8756 77.5304 68.52C77.1838 68.1644 77.0104 67.6533 77.0104 66.9867V64.3333H77.6771V66.96C77.6771 67.96 78.1149 68.46 78.9904 68.46C79.4171 68.46 79.7438 68.3378 79.9704 68.0933C80.1971 67.8444 80.3104 67.4667 80.3104 66.96V64.3333H80.9571V66.9867C80.9571 67.6578 80.7838 68.1711 80.4371 68.5267C80.0904 68.8778 79.606 69.0533 78.9838 69.0533ZM85.1439 64.3333C85.7483 64.3333 86.2239 64.4778 86.5705 64.7667C86.9172 65.0556 87.0905 65.4533 87.0905 65.96C87.0905 66.4667 86.9172 66.8644 86.5705 67.1533C86.2239 67.4422 85.7483 67.5867 85.1439 67.5867H83.9905V69H83.3239V64.3333H85.1439ZM85.1239 67.0067C85.5461 67.0067 85.8683 66.9178 86.0905 66.74C86.3127 66.5578 86.4239 66.2978 86.4239 65.96C86.4239 65.6222 86.3127 65.3644 86.0905 65.1867C85.8683 65.0044 85.5461 64.9133 85.1239 64.9133H83.9905V67.0067H85.1239ZM93.2854 69.0533C92.9343 69.0533 92.5943 69 92.2654 68.8933C91.941 68.7822 91.6854 68.64 91.4988 68.4667L91.7454 67.9467C91.9232 68.1067 92.1499 68.2378 92.4254 68.34C92.7054 68.4378 92.9921 68.4867 93.2854 68.4867C93.6721 68.4867 93.961 68.4222 94.1521 68.2933C94.3432 68.16 94.4388 67.9844 94.4388 67.7667C94.4388 67.6067 94.3854 67.4778 94.2788 67.38C94.1765 67.2778 94.0476 67.2 93.8921 67.1467C93.741 67.0933 93.5254 67.0333 93.2454 66.9667C92.8943 66.8822 92.6099 66.7978 92.3921 66.7133C92.1788 66.6289 91.9943 66.5 91.8388 66.3267C91.6876 66.1489 91.6121 65.9111 91.6121 65.6133C91.6121 65.3644 91.6765 65.14 91.8054 64.94C91.9388 64.74 92.1388 64.58 92.4054 64.46C92.6721 64.34 93.0032 64.28 93.3988 64.28C93.6743 64.28 93.9454 64.3156 94.2121 64.3867C94.4788 64.4578 94.7076 64.56 94.8988 64.6933L94.6788 65.2267C94.4832 65.1022 94.2743 65.0089 94.0521 64.9467C93.8299 64.88 93.6121 64.8467 93.3988 64.8467C93.021 64.8467 92.7365 64.9156 92.5454 65.0533C92.3588 65.1911 92.2654 65.3689 92.2654 65.5867C92.2654 65.7467 92.3188 65.8778 92.4254 65.98C92.5321 66.0778 92.6632 66.1556 92.8188 66.2133C92.9788 66.2667 93.1943 66.3244 93.4654 66.3867C93.8165 66.4711 94.0988 66.5556 94.3121 66.64C94.5254 66.7244 94.7076 66.8533 94.8588 67.0267C95.0143 67.2 95.0921 67.4333 95.0921 67.7267C95.0921 67.9711 95.0254 68.1956 94.8921 68.4C94.7588 68.6 94.5565 68.76 94.2854 68.88C94.0143 68.9956 93.681 69.0533 93.2854 69.0533ZM98.7551 67.3867V69H98.0951V67.3733L96.2417 64.3333H96.9551L98.4484 66.7933L99.9484 64.3333L100.608 64.3333L98.7551 67.3867ZM103.547 69.0533C103.196 69.0533 102.856 69 102.527 68.8933C102.203 68.7822 101.947 68.64 101.76 68.4667L102.007 67.9467C102.185 68.1067 102.412 68.2378 102.687 68.34C102.967 68.4378 103.254 68.4867 103.547 68.4867C103.934 68.4867 104.223 68.4222 104.414 68.2933C104.605 68.16 104.7 67.9844 104.7 67.7667C104.7 67.6067 104.647 67.4778 104.54 67.38C104.438 67.2778 104.309 67.2 104.154 67.1467C104.003 67.0933 103.787 67.0333 103.507 66.9667C103.156 66.8822 102.872 66.7978 102.654 66.7133C102.44 66.6289 102.256 66.5 102.1 66.3267C101.949 66.1489 101.874 65.9111 101.874 65.6133C101.874 65.3644 101.938 65.14 102.067 64.94C102.2 64.74 102.4 64.58 102.667 64.46C102.934 64.34 103.265 64.28 103.66 64.28C103.936 64.28 104.207 64.3156 104.474 64.3867C104.74 64.4578 104.969 64.56 105.16 64.6933L104.94 65.2267C104.745 65.1022 104.536 65.0089 104.314 64.9467C104.092 64.88 103.874 64.8467 103.66 64.8467C103.283 64.8467 102.998 64.9156 102.807 65.0533C102.62 65.1911 102.527 65.3689 102.527 65.5867C102.527 65.7467 102.58 65.8778 102.687 65.98C102.794 66.0778 102.925 66.1556 103.08 66.2133C103.24 66.2667 103.456 66.3244 103.727 66.3867C104.078 66.4711 104.36 66.5556 104.574 66.64C104.787 66.7244 104.969 66.8533 105.12 67.0267C105.276 67.2 105.354 67.4333 105.354 67.7267C105.354 67.9711 105.287 68.1956 105.154 68.4C105.02 68.6 104.818 68.76 104.547 68.88C104.276 68.9956 103.943 69.0533 103.547 69.0533ZM108.189 64.9133H106.589V64.3333H110.449V64.9133H108.849V69H108.189V64.9133ZM115.562 68.42V69H112.175V64.3333H115.469V64.9133H112.842V66.3467H115.182V66.9133H112.842V68.42L115.562 68.42ZM121.968 69L121.962 65.6L120.275 68.4333H119.968L118.282 65.62V69H117.642V64.3333H118.188L120.135 67.6133L122.055 64.3333H122.602L122.608 69H121.968Z" fill="#152539"/>
<path d="M1108.45 69.0533C1107.99 69.0533 1107.56 68.9511 1107.19 68.7467C1106.81 68.5378 1106.52 68.2533 1106.31 67.8933C1106.09 67.5289 1105.99 67.12 1105.99 66.6667C1105.99 66.2133 1106.09 65.8067 1106.31 65.4467C1106.52 65.0822 1106.82 64.7978 1107.19 64.5933C1107.57 64.3844 1107.99 64.28 1108.46 64.28C1108.82 64.28 1109.16 64.3422 1109.46 64.4667C1109.76 64.5867 1110.02 64.7667 1110.23 65.0067L1109.8 65.4267C1109.45 65.0578 1109.01 64.8733 1108.49 64.8733C1108.14 64.8733 1107.83 64.9511 1107.55 65.1067C1107.27 65.2622 1107.05 65.4778 1106.89 65.7533C1106.73 66.0244 1106.65 66.3289 1106.65 66.6667C1106.65 67.0044 1106.73 67.3111 1106.89 67.5867C1107.05 67.8578 1107.27 68.0711 1107.55 68.2267C1107.83 68.3822 1108.14 68.46 1108.49 68.46C1109.01 68.46 1109.44 68.2733 1109.8 67.9L1110.23 68.32C1110.02 68.56 1109.76 68.7422 1109.45 68.8667C1109.15 68.9911 1108.82 69.0533 1108.45 69.0533ZM1115.05 67.8333H1112.57L1112.05 69H1111.37L1113.48 64.3333H1114.14L1116.26 69H1115.56L1115.05 67.8333ZM1114.81 67.3L1113.81 65.0133L1112.8 67.3H1114.81ZM1119.32 69.0533C1118.97 69.0533 1118.63 69 1118.3 68.8933C1117.97 68.7822 1117.72 68.64 1117.53 68.4667L1117.78 67.9467C1117.95 68.1067 1118.18 68.2378 1118.46 68.34C1118.74 68.4378 1119.02 68.4867 1119.32 68.4867C1119.7 68.4867 1119.99 68.4222 1120.18 68.2933C1120.37 68.16 1120.47 67.9844 1120.47 67.7667C1120.47 67.6067 1120.42 67.4778 1120.31 67.38C1120.21 67.2778 1120.08 67.2 1119.92 67.1467C1119.77 67.0933 1119.56 67.0333 1119.28 66.9667C1118.93 66.8822 1118.64 66.7978 1118.42 66.7133C1118.21 66.6289 1118.03 66.5 1117.87 66.3267C1117.72 66.1489 1117.64 65.9111 1117.64 65.6133C1117.64 65.3644 1117.71 65.14 1117.84 64.94C1117.97 64.74 1118.17 64.58 1118.44 64.46C1118.7 64.34 1119.03 64.28 1119.43 64.28C1119.71 64.28 1119.98 64.3156 1120.24 64.3867C1120.51 64.4578 1120.74 64.56 1120.93 64.6933L1120.71 65.2267C1120.51 65.1022 1120.31 65.0089 1120.08 64.9467C1119.86 64.88 1119.64 64.8467 1119.43 64.8467C1119.05 64.8467 1118.77 64.9156 1118.58 65.0533C1118.39 65.1911 1118.3 65.3689 1118.3 65.5867C1118.3 65.7467 1118.35 65.8778 1118.46 65.98C1118.56 66.0778 1118.69 66.1556 1118.85 66.2133C1119.01 66.2667 1119.23 66.3244 1119.5 66.3867C1119.85 66.4711 1120.13 66.5556 1120.34 66.64C1120.56 66.7244 1120.74 66.8533 1120.89 67.0267C1121.05 67.2 1121.12 67.4333 1121.12 67.7267C1121.12 67.9711 1121.06 68.1956 1120.92 68.4C1120.79 68.6 1120.59 68.76 1120.32 68.88C1120.05 68.9956 1119.71 69.0533 1119.32 69.0533ZM1126.48 68.42V69H1123.1V64.3333H1126.39V64.9133H1123.76V66.3467H1126.1V66.9133H1123.76V68.42H1126.48ZM1128.56 64.3333H1130.53C1131.02 64.3333 1131.46 64.4311 1131.84 64.6267C1132.23 64.8222 1132.52 65.0978 1132.73 65.4533C1132.94 65.8044 1133.05 66.2089 1133.05 66.6667C1133.05 67.1244 1132.94 67.5311 1132.73 67.8867C1132.52 68.2378 1132.23 68.5111 1131.84 68.7067C1131.46 68.9022 1131.02 69 1130.53 69H1128.56V64.3333ZM1130.49 68.42C1130.87 68.42 1131.2 68.3467 1131.48 68.2C1131.77 68.0533 1131.99 67.8489 1132.15 67.5867C1132.31 67.32 1132.38 67.0133 1132.38 66.6667C1132.38 66.32 1132.31 66.0156 1132.15 65.7533C1131.99 65.4867 1131.77 65.28 1131.48 65.1333C1131.2 64.9867 1130.87 64.9133 1130.49 64.9133H1129.23V68.42H1130.49ZM1137.18 69.0533C1136.71 69.0533 1136.28 68.9511 1135.9 68.7467C1135.53 68.5378 1135.23 68.2511 1135.01 67.8867C1134.8 67.5222 1134.69 67.1156 1134.69 66.6667C1134.69 66.2178 1134.8 65.8111 1135.01 65.4467C1135.23 65.0822 1135.53 64.7978 1135.9 64.5933C1136.28 64.3844 1136.71 64.28 1137.18 64.28C1137.64 64.28 1138.07 64.3844 1138.44 64.5933C1138.82 64.7978 1139.12 65.0822 1139.33 65.4467C1139.54 65.8067 1139.65 66.2133 1139.65 66.6667C1139.65 67.12 1139.54 67.5289 1139.33 67.8933C1139.12 68.2533 1138.82 68.5378 1138.44 68.7467C1138.07 68.9511 1137.64 69.0533 1137.18 69.0533ZM1137.18 68.46C1137.52 68.46 1137.83 68.3822 1138.1 68.2267C1138.37 68.0711 1138.59 67.8578 1138.74 67.5867C1138.9 67.3111 1138.98 67.0044 1138.98 66.6667C1138.98 66.3289 1138.9 66.0244 1138.74 65.7533C1138.59 65.4778 1138.37 65.2622 1138.1 65.1067C1137.83 64.9511 1137.52 64.8733 1137.18 64.8733C1136.84 64.8733 1136.52 64.9511 1136.24 65.1067C1135.97 65.2622 1135.75 65.4778 1135.59 65.7533C1135.44 66.0244 1135.36 66.3289 1135.36 66.6667C1135.36 67.0044 1135.44 67.3111 1135.59 67.5867C1135.75 67.8578 1135.97 68.0711 1136.24 68.2267C1136.52 68.3822 1136.84 68.46 1137.18 68.46ZM1143.76 69.0533C1143.29 69.0533 1142.87 68.9511 1142.49 68.7467C1142.12 68.5378 1141.82 68.2533 1141.61 67.8933C1141.4 67.5289 1141.29 67.12 1141.29 66.6667C1141.29 66.2133 1141.4 65.8067 1141.61 65.4467C1141.82 65.0822 1142.12 64.7978 1142.5 64.5933C1142.87 64.3844 1143.3 64.28 1143.76 64.28C1144.13 64.28 1144.46 64.3422 1144.76 64.4667C1145.07 64.5867 1145.32 64.7667 1145.54 65.0067L1145.1 65.4267C1144.75 65.0578 1144.31 64.8733 1143.79 64.8733C1143.44 64.8733 1143.13 64.9511 1142.85 65.1067C1142.57 65.2622 1142.35 65.4778 1142.19 65.7533C1142.03 66.0244 1141.96 66.3289 1141.96 66.6667C1141.96 67.0044 1142.03 67.3111 1142.19 67.5867C1142.35 67.8578 1142.57 68.0711 1142.85 68.2267C1143.13 68.3822 1143.44 68.46 1143.79 68.46C1144.31 68.46 1144.75 68.2733 1145.1 67.9L1145.54 68.32C1145.32 68.56 1145.06 68.7422 1144.76 68.8667C1144.45 68.9911 1144.12 69.0533 1143.76 69.0533Z" fill="#152539"/>
<path d="M320.234 429.922C298.733 429.922 281.302 412.383 281.302 390.747V351.999C302.804 351.999 320.234 369.538 320.234 391.173V429.922Z" fill="#152539"/>
<path d="M357.865 389.661C340.664 389.661 326.719 403.949 326.719 421.575V451.999C343.92 451.999 357.865 437.711 357.865 420.085V389.661Z" fill="#152539"/>
<path d="M352.674 364.986C352.674 372.159 346.864 377.973 339.697 377.973C332.529 377.973 326.719 372.159 326.719 364.986C326.719 357.814 332.529 351.999 339.697 351.999C346.864 351.999 352.674 357.814 352.674 364.986Z" fill="#152539"/>
<path d="M407.97 385.479C405.117 385.479 402.53 384.866 400.21 383.639C397.917 382.386 396.103 380.666 394.77 378.479C393.463 376.266 392.81 373.772 392.81 370.999C392.81 368.226 393.463 365.746 394.77 363.559C396.103 361.346 397.917 359.626 400.21 358.399C402.53 357.146 405.13 356.519 408.01 356.519C410.437 356.519 412.623 356.946 414.57 357.799C416.543 358.652 418.197 359.879 419.53 361.479L415.37 365.319C413.477 363.132 411.13 362.039 408.33 362.039C406.597 362.039 405.05 362.426 403.69 363.199C402.33 363.946 401.263 364.999 400.49 366.359C399.743 367.719 399.37 369.266 399.37 370.999C399.37 372.732 399.743 374.279 400.49 375.639C401.263 376.999 402.33 378.066 403.69 378.839C405.05 379.586 406.597 379.959 408.33 379.959C411.13 379.959 413.477 378.852 415.37 376.639L419.53 380.479C418.197 382.106 416.543 383.346 414.57 384.199C412.597 385.052 410.397 385.479 407.97 385.479ZM431.99 363.159C435.323 363.159 437.883 363.959 439.67 365.559C441.456 367.132 442.35 369.519 442.35 372.719V384.999H436.51V382.319C435.336 384.319 433.15 385.319 429.95 385.319C428.296 385.319 426.856 385.039 425.63 384.479C424.43 383.919 423.51 383.146 422.87 382.159C422.23 381.172 421.91 380.052 421.91 378.799C421.91 376.799 422.656 375.226 424.15 374.079C425.67 372.932 428.003 372.359 431.15 372.359H436.11C436.11 370.999 435.696 369.959 434.87 369.239C434.043 368.492 432.803 368.119 431.15 368.119C430.003 368.119 428.87 368.306 427.75 368.679C426.656 369.026 425.723 369.506 424.95 370.119L422.71 365.759C423.883 364.932 425.283 364.292 426.91 363.839C428.563 363.386 430.256 363.159 431.99 363.159ZM431.51 381.119C432.576 381.119 433.523 380.879 434.35 380.399C435.176 379.892 435.763 379.159 436.11 378.199V375.999H431.83C429.27 375.999 427.99 376.839 427.99 378.519C427.99 379.319 428.296 379.959 428.91 380.439C429.55 380.892 430.416 381.119 431.51 381.119ZM455.237 385.319C453.451 385.319 451.704 385.106 449.997 384.679C448.291 384.226 446.931 383.666 445.917 382.999L447.997 378.519C448.957 379.132 450.117 379.639 451.477 380.039C452.837 380.412 454.171 380.599 455.477 380.599C458.117 380.599 459.437 379.946 459.437 378.639C459.437 378.026 459.077 377.586 458.357 377.319C457.637 377.052 456.531 376.826 455.037 376.639C453.277 376.372 451.824 376.066 450.677 375.719C449.531 375.372 448.531 374.759 447.677 373.879C446.851 372.999 446.437 371.746 446.437 370.119C446.437 368.759 446.824 367.559 447.597 366.519C448.397 365.452 449.544 364.626 451.037 364.039C452.557 363.452 454.344 363.159 456.397 363.159C457.917 363.159 459.424 363.332 460.917 363.679C462.437 363.999 463.691 364.452 464.677 365.039L462.597 369.479C460.704 368.412 458.637 367.879 456.397 367.879C455.064 367.879 454.064 368.066 453.397 368.439C452.731 368.812 452.397 369.292 452.397 369.879C452.397 370.546 452.757 371.012 453.477 371.279C454.197 371.546 455.344 371.799 456.917 372.039C458.677 372.332 460.117 372.652 461.237 372.999C462.357 373.319 463.331 373.919 464.157 374.799C464.984 375.679 465.397 376.906 465.397 378.479C465.397 379.812 464.997 380.999 464.197 382.039C463.397 383.079 462.224 383.892 460.677 384.479C459.157 385.039 457.344 385.319 455.237 385.319ZM490.327 374.319C490.327 374.399 490.287 374.959 490.207 375.999H473.927C474.221 377.332 474.914 378.386 476.007 379.159C477.101 379.932 478.461 380.319 480.087 380.319C481.207 380.319 482.194 380.159 483.047 379.839C483.927 379.492 484.741 378.959 485.487 378.239L488.807 381.839C486.781 384.159 483.821 385.319 479.927 385.319C477.501 385.319 475.354 384.852 473.487 383.919C471.621 382.959 470.181 381.639 469.167 379.959C468.154 378.279 467.647 376.372 467.647 374.239C467.647 372.132 468.141 370.239 469.127 368.559C470.141 366.852 471.514 365.532 473.247 364.599C475.007 363.639 476.967 363.159 479.127 363.159C481.234 363.159 483.141 363.612 484.847 364.519C486.554 365.426 487.887 366.732 488.847 368.439C489.834 370.119 490.327 372.079 490.327 374.319ZM479.167 367.879C477.754 367.879 476.567 368.279 475.607 369.079C474.647 369.879 474.061 370.972 473.847 372.359H484.447C484.234 370.999 483.647 369.919 482.687 369.119C481.727 368.292 480.554 367.879 479.167 367.879ZM516.402 355.319V384.999H510.442V382.519C508.895 384.386 506.655 385.319 503.722 385.319C501.695 385.319 499.855 384.866 498.202 383.959C496.575 383.052 495.295 381.759 494.362 380.079C493.428 378.399 492.962 376.452 492.962 374.239C492.962 372.026 493.428 370.079 494.362 368.399C495.295 366.719 496.575 365.426 498.202 364.519C499.855 363.612 501.695 363.159 503.722 363.159C506.468 363.159 508.615 364.026 510.162 365.759V355.319H516.402ZM504.802 380.199C506.375 380.199 507.682 379.666 508.722 378.599C509.762 377.506 510.282 376.052 510.282 374.239C510.282 372.426 509.762 370.986 508.722 369.919C507.682 368.826 506.375 368.279 504.802 368.279C503.202 368.279 501.882 368.826 500.842 369.919C499.802 370.986 499.282 372.426 499.282 374.239C499.282 376.052 499.802 377.506 500.842 378.599C501.882 379.666 503.202 380.199 504.802 380.199ZM532.417 385.319C530.15 385.319 528.11 384.852 526.297 383.919C524.51 382.959 523.11 381.639 522.097 379.959C521.084 378.279 520.577 376.372 520.577 374.239C520.577 372.106 521.084 370.199 522.097 368.519C523.11 366.839 524.51 365.532 526.297 364.599C528.11 363.639 530.15 363.159 532.417 363.159C534.684 363.159 536.71 363.639 538.497 364.599C540.284 365.532 541.684 366.839 542.697 368.519C543.71 370.199 544.217 372.106 544.217 374.239C544.217 376.372 543.71 378.279 542.697 379.959C541.684 381.639 540.284 382.959 538.497 383.919C536.71 384.852 534.684 385.319 532.417 385.319ZM532.417 380.199C534.017 380.199 535.324 379.666 536.337 378.599C537.377 377.506 537.897 376.052 537.897 374.239C537.897 372.426 537.377 370.986 536.337 369.919C535.324 368.826 534.017 368.279 532.417 368.279C530.817 368.279 529.497 368.826 528.457 369.919C527.417 370.986 526.897 372.426 526.897 374.239C526.897 376.052 527.417 377.506 528.457 378.599C529.497 379.666 530.817 380.199 532.417 380.199ZM558.788 385.319C556.494 385.319 554.428 384.852 552.588 383.919C550.774 382.959 549.348 381.639 548.308 379.959C547.294 378.279 546.788 376.372 546.788 374.239C546.788 372.106 547.294 370.199 548.308 368.519C549.348 366.839 550.774 365.532 552.588 364.599C554.428 363.639 556.494 363.159 558.788 363.159C561.054 363.159 563.028 363.639 564.708 364.599C566.414 365.532 567.654 366.879 568.428 368.639L563.588 371.239C562.468 369.266 560.854 368.279 558.748 368.279C557.121 368.279 555.774 368.812 554.708 369.879C553.641 370.946 553.108 372.399 553.108 374.239C553.108 376.079 553.641 377.532 554.708 378.599C555.774 379.666 557.121 380.199 558.748 380.199C560.881 380.199 562.494 379.212 563.588 377.239L568.428 379.879C567.654 381.586 566.414 382.919 564.708 383.879C563.028 384.839 561.054 385.319 558.788 385.319Z" fill="#152539"/>
<path d="M409.183 409.066V423.866H435.103V434.266H409.183V454.666H396.223V398.666H438.543V409.066H409.183ZM465.823 455.306C461.29 455.306 457.21 454.373 453.583 452.506C450.01 450.586 447.21 447.946 445.183 444.586C443.157 441.226 442.143 437.413 442.143 433.146C442.143 428.879 443.157 425.066 445.183 421.706C447.21 418.346 450.01 415.733 453.583 413.866C457.21 411.946 461.29 410.986 465.823 410.986C470.357 410.986 474.41 411.946 477.983 413.866C481.557 415.733 484.357 418.346 486.383 421.706C488.41 425.066 489.423 428.879 489.423 433.146C489.423 437.413 488.41 441.226 486.383 444.586C484.357 447.946 481.557 450.586 477.983 452.506C474.41 454.373 470.357 455.306 465.823 455.306ZM465.823 445.066C469.023 445.066 471.637 443.999 473.663 441.866C475.743 439.679 476.783 436.773 476.783 433.146C476.783 429.519 475.743 426.639 473.663 424.506C471.637 422.319 469.023 421.226 465.823 421.226C462.623 421.226 459.983 422.319 457.903 424.506C455.823 426.639 454.783 429.519 454.783 433.146C454.783 436.773 455.823 439.679 457.903 441.866C459.983 443.999 462.623 445.066 465.823 445.066ZM509.685 417.306C511.179 415.226 513.179 413.653 515.685 412.586C518.245 411.519 521.179 410.986 524.485 410.986V422.506C523.099 422.399 522.165 422.346 521.685 422.346C518.112 422.346 515.312 423.359 513.285 425.386C511.259 427.359 510.245 430.346 510.245 434.346V454.666H497.765V411.626H509.685V417.306ZM575.578 411.626V454.666H563.738V449.546C562.085 451.413 560.112 452.853 557.818 453.866C555.525 454.826 553.045 455.306 550.378 455.306C544.725 455.306 540.245 453.679 536.938 450.426C533.632 447.173 531.978 442.346 531.978 435.946V411.626H544.458V434.106C544.458 441.039 547.365 444.506 553.178 444.506C556.165 444.506 558.565 443.546 560.378 441.626C562.192 439.653 563.098 436.746 563.098 432.906V411.626H575.578ZM642.26 410.986C647.647 410.986 651.914 412.586 655.06 415.786C658.26 418.933 659.86 423.679 659.86 430.026V454.666H647.38V431.946C647.38 428.533 646.66 425.999 645.22 424.346C643.834 422.639 641.834 421.786 639.22 421.786C636.287 421.786 633.967 422.746 632.26 424.666C630.554 426.533 629.7 429.333 629.7 433.066V454.666H617.22V431.946C617.22 425.173 614.5 421.786 609.06 421.786C606.18 421.786 603.887 422.746 602.18 424.666C600.474 426.533 599.62 429.333 599.62 433.066V454.666H587.14V411.626H599.06V416.586C600.66 414.773 602.607 413.386 604.9 412.426C607.247 411.466 609.807 410.986 612.58 410.986C615.62 410.986 618.367 411.599 620.82 412.826C623.274 413.999 625.247 415.733 626.74 418.026C628.5 415.786 630.714 414.053 633.38 412.826C636.1 411.599 639.06 410.986 642.26 410.986Z" fill="#152539"/>
<g opacity="0.4">
<path d="M549.841 493.389H554.568C554.477 495.446 554.06 497.197 553.318 498.643C552.576 500.075 551.508 501.169 550.115 501.924C548.735 502.679 547.048 503.057 545.056 503.057C543.546 503.057 542.192 502.783 540.994 502.236C539.809 501.689 538.8 500.902 537.966 499.873C537.133 498.831 536.495 497.562 536.052 496.064C535.623 494.567 535.408 492.868 535.408 490.967V485.928C535.408 484.027 535.629 482.327 536.072 480.83C536.528 479.333 537.179 478.063 538.025 477.021C538.871 475.98 539.9 475.192 541.111 474.658C542.335 474.111 543.715 473.838 545.251 473.838C547.218 473.838 548.871 474.215 550.212 474.971C551.554 475.726 552.589 476.833 553.318 478.291C554.047 479.749 554.47 481.527 554.587 483.623H549.861C549.796 482.204 549.6 481.071 549.275 480.225C548.962 479.365 548.481 478.747 547.83 478.369C547.192 477.992 546.332 477.803 545.251 477.803C544.353 477.803 543.578 477.972 542.927 478.311C542.289 478.649 541.762 479.157 541.345 479.834C540.942 480.498 540.636 481.338 540.427 482.354C540.232 483.356 540.134 484.535 540.134 485.889V490.967C540.134 492.269 540.219 493.421 540.388 494.424C540.557 495.426 540.831 496.279 541.208 496.982C541.586 497.673 542.087 498.2 542.712 498.564C543.337 498.916 544.119 499.092 545.056 499.092C546.176 499.092 547.068 498.916 547.732 498.564C548.409 498.213 548.91 497.62 549.236 496.787C549.561 495.954 549.763 494.821 549.841 493.389ZM578.044 486.123V490.967C578.044 492.972 577.81 494.73 577.341 496.24C576.886 497.751 576.222 499.014 575.349 500.029C574.49 501.032 573.448 501.787 572.224 502.295C571.013 502.803 569.659 503.057 568.162 503.057C566.677 503.057 565.323 502.803 564.099 502.295C562.888 501.787 561.84 501.032 560.955 500.029C560.082 499.014 559.405 497.751 558.923 496.24C558.455 494.73 558.22 492.972 558.22 490.967V486.123C558.22 484.092 558.455 482.314 558.923 480.791C559.392 479.255 560.063 477.972 560.935 476.943C561.82 475.915 562.869 475.14 564.08 474.619C565.304 474.098 566.651 473.838 568.123 473.838C569.62 473.838 570.974 474.098 572.185 474.619C573.409 475.14 574.457 475.915 575.33 476.943C576.202 477.972 576.873 479.255 577.341 480.791C577.81 482.314 578.044 484.092 578.044 486.123ZM573.337 490.967V486.084C573.337 484.639 573.22 483.402 572.986 482.373C572.764 481.331 572.432 480.485 571.99 479.834C571.547 479.17 571 478.682 570.349 478.369C569.711 478.044 568.969 477.881 568.123 477.881C567.302 477.881 566.567 478.044 565.916 478.369C565.278 478.682 564.731 479.17 564.275 479.834C563.832 480.485 563.494 481.331 563.259 482.373C563.038 483.402 562.927 484.639 562.927 486.084V490.967C562.927 492.386 563.044 493.61 563.279 494.639C563.513 495.654 563.852 496.488 564.294 497.139C564.75 497.777 565.304 498.252 565.955 498.564C566.606 498.877 567.341 499.033 568.162 499.033C568.995 499.033 569.737 498.877 570.388 498.564C571.039 498.252 571.58 497.777 572.009 497.139C572.452 496.488 572.784 495.654 573.005 494.639C573.227 493.61 573.337 492.386 573.337 490.967ZM595.896 474.229H600.642V493.975C600.642 496.149 600.232 497.9 599.412 499.229C598.604 500.557 597.511 501.527 596.13 502.139C594.763 502.751 593.24 503.057 591.56 503.057C589.815 503.057 588.259 502.751 586.892 502.139C585.525 501.527 584.451 500.557 583.669 499.229C582.888 497.9 582.498 496.149 582.498 493.975V474.229H587.224V493.975C587.224 495.329 587.393 496.377 587.732 497.119C588.083 497.861 588.578 498.376 589.216 498.662C589.867 498.949 590.649 499.092 591.56 499.092C592.472 499.092 593.246 498.949 593.884 498.662C594.535 498.376 595.03 497.861 595.369 497.119C595.72 496.377 595.896 495.329 595.896 493.975V474.229ZM605.564 474.229H614.158C616.033 474.229 617.621 474.554 618.923 475.205C620.225 475.856 621.215 476.82 621.892 478.096C622.582 479.359 622.927 480.928 622.927 482.803C622.927 484.222 622.712 485.472 622.283 486.553C621.866 487.633 621.261 488.545 620.466 489.287C619.672 490.016 618.715 490.583 617.595 490.986L616.208 491.748H608.943L608.923 487.764H614.041C614.965 487.764 615.733 487.562 616.345 487.158C616.957 486.755 617.413 486.195 617.712 485.479C618.025 484.762 618.181 483.949 618.181 483.037C618.181 482.061 618.044 481.214 617.771 480.498C617.498 479.769 617.068 479.209 616.482 478.818C615.896 478.415 615.121 478.213 614.158 478.213H610.31V502.666H605.564V474.229ZM618.806 502.666L613.396 489.893L618.337 489.873L623.884 502.412V502.666H618.806ZM636.345 474.229V502.666H631.619V474.229H636.345ZM643.591 474.229V478.213H624.451V474.229H643.591ZM659.255 495.322C659.255 494.736 659.19 494.215 659.06 493.76C658.943 493.291 658.715 492.868 658.376 492.49C658.038 492.113 657.556 491.742 656.931 491.377C656.319 491.012 655.525 490.641 654.548 490.264C653.429 489.834 652.38 489.365 651.404 488.857C650.44 488.337 649.587 487.751 648.845 487.1C648.116 486.436 647.543 485.661 647.126 484.775C646.71 483.89 646.501 482.861 646.501 481.689C646.501 480.531 646.703 479.476 647.107 478.525C647.524 477.562 648.11 476.735 648.865 476.045C649.633 475.342 650.544 474.801 651.599 474.424C652.654 474.033 653.819 473.838 655.095 473.838C656.931 473.838 658.5 474.229 659.802 475.01C661.117 475.791 662.12 476.839 662.81 478.154C663.513 479.469 663.865 480.928 663.865 482.529H659.138C659.138 481.605 658.995 480.785 658.708 480.068C658.422 479.352 657.979 478.792 657.38 478.389C656.781 477.985 656.007 477.783 655.056 477.783C654.184 477.783 653.461 477.952 652.888 478.291C652.328 478.63 651.912 479.092 651.638 479.678C651.378 480.264 651.248 480.934 651.248 481.689C651.248 482.21 651.358 482.686 651.58 483.115C651.801 483.532 652.12 483.916 652.537 484.268C652.953 484.619 653.461 484.951 654.06 485.264C654.659 485.576 655.349 485.876 656.13 486.162C657.458 486.644 658.617 487.178 659.607 487.764C660.597 488.35 661.41 489.007 662.048 489.736C662.699 490.452 663.181 491.266 663.494 492.178C663.819 493.089 663.982 494.124 663.982 495.283C663.982 496.455 663.78 497.523 663.376 498.486C662.986 499.437 662.413 500.251 661.658 500.928C660.903 501.605 659.991 502.132 658.923 502.51C657.856 502.874 656.658 503.057 655.33 503.057C654.106 503.057 652.927 502.874 651.794 502.51C650.675 502.145 649.672 501.592 648.787 500.85C647.901 500.094 647.198 499.15 646.677 498.018C646.169 496.885 645.916 495.557 645.916 494.033H650.662C650.662 494.945 650.772 495.726 650.994 496.377C651.215 497.015 651.534 497.542 651.951 497.959C652.38 498.363 652.882 498.662 653.455 498.857C654.041 499.04 654.692 499.131 655.408 499.131C656.293 499.131 657.016 498.975 657.576 498.662C658.149 498.337 658.572 497.887 658.845 497.314C659.119 496.742 659.255 496.077 659.255 495.322Z" fill="#152539"/>
</g>
<g opacity="0.4">
<path d="M693.045 416.869L681.709 454.666H676.354L689.712 413.195H693.073L693.045 416.869ZM702.216 454.666L690.88 416.869L690.823 413.195H694.213L707.571 454.666H702.216ZM702.216 439.314V443.814H682.221V439.314H702.216ZM713.296 413.195H724.889C727.585 413.195 729.845 413.669 731.668 414.619C733.51 415.568 734.896 416.973 735.826 418.834C736.776 420.676 737.251 422.945 737.251 425.642C737.251 427.541 736.937 429.278 736.311 430.854C735.684 432.411 734.772 433.74 733.576 434.842C732.38 435.924 730.927 436.731 729.218 437.263L727.794 437.861H717.455L717.398 433.389H724.832C726.427 433.389 727.756 433.047 728.82 432.364C729.883 431.661 730.68 430.721 731.212 429.544C731.744 428.367 732.01 427.066 732.01 425.642C732.01 424.047 731.772 422.651 731.298 421.455C730.823 420.258 730.063 419.338 729.019 418.692C727.994 418.027 726.617 417.695 724.889 417.695H718.537V454.666H713.296V413.195ZM733.206 454.666L724.946 435.867L730.386 435.839L738.817 454.324V454.666H733.206ZM765.021 441.478H770.262C770.129 444.327 769.55 446.786 768.525 448.855C767.519 450.906 766.047 452.482 764.11 453.584C762.192 454.685 759.79 455.236 756.904 455.236C754.834 455.236 752.964 454.827 751.293 454.011C749.622 453.194 748.188 452.027 746.992 450.507C745.814 448.969 744.912 447.127 744.286 444.982C743.659 442.836 743.346 440.424 743.346 437.747V430.085C743.346 427.427 743.659 425.025 744.286 422.879C744.931 420.733 745.852 418.901 747.049 417.382C748.264 415.844 749.736 414.666 751.464 413.85C753.211 413.033 755.185 412.625 757.388 412.625C760.084 412.625 762.363 413.166 764.224 414.249C766.104 415.312 767.547 416.878 768.553 418.948C769.579 420.999 770.148 423.515 770.262 426.496H765.021C764.889 424.313 764.547 422.537 763.996 421.17C763.445 419.784 762.629 418.768 761.547 418.122C760.483 417.458 759.097 417.125 757.388 417.125C755.869 417.125 754.549 417.429 753.429 418.037C752.328 418.644 751.416 419.518 750.695 420.657C749.992 421.778 749.46 423.135 749.099 424.73C748.758 426.306 748.587 428.072 748.587 430.028V437.747C748.587 439.57 748.729 441.269 749.014 442.846C749.318 444.422 749.793 445.808 750.438 447.004C751.103 448.181 751.967 449.102 753.03 449.767C754.093 450.432 755.385 450.764 756.904 450.764C758.822 450.764 760.341 450.451 761.461 449.824C762.581 449.197 763.407 448.2 763.939 446.833C764.49 445.466 764.851 443.681 765.021 441.478ZM799.856 431.025V435.497H781.883V431.025H799.856ZM782.596 413.195V454.666H777.355V413.195H782.596ZM804.499 413.195V454.666H799.258V413.195H804.499ZM818.997 413.195V454.666H813.756V413.195H818.997ZM839.505 448.371L849.474 413.195H855.17L842.296 454.666H838.28L839.505 448.371ZM830.561 413.195L840.445 448.371L841.755 454.666H837.739L824.864 413.195H830.561ZM883.112 450.194V454.666H865.111V450.194H883.112ZM866.051 413.195V454.666H860.81V413.195H866.051ZM880.691 431.025V435.497H865.111V431.025H880.691ZM882.827 413.195V417.695H865.111V413.195H882.827ZM907.95 444.184C907.95 443.216 907.836 442.361 907.608 441.621C907.38 440.861 906.981 440.178 906.411 439.57C905.842 438.962 905.044 438.383 904.019 437.833C902.993 437.282 901.693 436.722 900.117 436.152C898.408 435.544 896.86 434.87 895.474 434.13C894.088 433.37 892.901 432.506 891.914 431.538C890.945 430.569 890.195 429.458 889.663 428.205C889.132 426.952 888.866 425.518 888.866 423.904C888.866 422.29 889.141 420.8 889.692 419.432C890.262 418.065 891.059 416.878 892.084 415.872C893.129 414.847 894.382 414.049 895.844 413.479C897.306 412.91 898.939 412.625 900.743 412.625C903.44 412.625 905.709 413.223 907.551 414.419C909.412 415.597 910.817 417.144 911.766 419.062C912.716 420.961 913.19 422.993 913.19 425.158H907.95C907.95 423.6 907.693 422.224 907.181 421.028C906.687 419.812 905.908 418.863 904.845 418.179C903.801 417.477 902.433 417.125 900.743 417.125C899.224 417.125 897.971 417.42 896.984 418.008C896.015 418.597 895.294 419.394 894.819 420.401C894.363 421.407 894.135 422.556 894.135 423.847C894.135 424.721 894.287 425.518 894.591 426.24C894.895 426.942 895.36 427.598 895.987 428.205C896.632 428.813 897.43 429.373 898.379 429.886C899.348 430.398 900.487 430.892 901.797 431.367C903.829 432.031 905.566 432.772 907.01 433.589C908.453 434.405 909.63 435.326 910.542 436.351C911.453 437.358 912.118 438.507 912.535 439.798C912.972 441.07 913.19 442.513 913.19 444.127C913.19 445.817 912.906 447.346 912.336 448.713C911.785 450.08 910.978 451.248 909.915 452.216C908.852 453.185 907.57 453.935 906.07 454.467C904.57 454.979 902.88 455.236 901 455.236C899.367 455.236 897.762 454.97 896.186 454.438C894.629 453.906 893.214 453.109 891.942 452.046C890.67 450.982 889.654 449.672 888.894 448.115C888.135 446.539 887.755 444.716 887.755 442.646H892.996C892.996 444.07 893.205 445.295 893.623 446.32C894.04 447.327 894.619 448.162 895.36 448.827C896.101 449.492 896.946 449.985 897.895 450.308C898.863 450.612 899.898 450.764 901 450.764C902.519 450.764 903.791 450.498 904.816 449.966C905.861 449.435 906.639 448.675 907.152 447.688C907.684 446.7 907.95 445.532 907.95 444.184Z" fill="#152539"/>
</g>
<path d="M528.527 581.497C528.704 581.645 528.967 581.622 529.114 581.445C529.262 581.269 529.239 581.006 529.063 580.858L528.795 581.178L528.527 581.497ZM437.258 504.096C437.029 504.116 436.86 504.318 436.88 504.548L437.209 508.283C437.23 508.512 437.432 508.682 437.661 508.662C437.89 508.641 438.06 508.439 438.039 508.21L437.747 504.89L441.067 504.597C441.296 504.576 441.466 504.374 441.445 504.145C441.425 503.916 441.223 503.746 440.994 503.767L437.258 504.096ZM528.795 581.178L529.063 580.858L437.563 504.192L437.295 504.511L437.027 504.83L528.527 581.497L528.795 581.178Z" fill="#152539"/>
<path d="M544.464 587.332C544.868 587.332 545.219 587.399 545.517 587.532C545.819 587.666 546.05 587.857 546.21 588.106C546.37 588.355 546.45 588.65 546.45 588.992C546.45 589.33 546.37 589.626 546.21 589.879C546.05 590.128 545.819 590.319 545.517 590.452C545.219 590.586 544.868 590.652 544.464 590.652H543.41V591.999H542.544V587.332H544.464ZM544.424 589.919C544.801 589.919 545.088 589.839 545.284 589.679C545.479 589.519 545.577 589.29 545.577 588.992C545.577 588.695 545.479 588.466 545.284 588.306C545.088 588.146 544.801 588.066 544.424 588.066H543.41V589.919H544.424ZM551.369 591.999L550.416 590.632C550.376 590.637 550.316 590.639 550.236 590.639H549.182V591.999H548.316V587.332H550.236C550.64 587.332 550.991 587.399 551.289 587.532C551.591 587.666 551.822 587.857 551.982 588.106C552.142 588.355 552.222 588.65 552.222 588.992C552.222 589.343 552.136 589.646 551.962 589.899C551.794 590.152 551.549 590.341 551.229 590.466L552.302 591.999H551.369ZM551.349 588.992C551.349 588.695 551.251 588.466 551.056 588.306C550.86 588.146 550.574 588.066 550.196 588.066H549.182V589.926H550.196C550.574 589.926 550.86 589.846 551.056 589.686C551.251 589.521 551.349 589.29 551.349 588.992ZM556.372 592.066C555.897 592.066 555.468 591.963 555.085 591.759C554.703 591.55 554.403 591.263 554.185 590.899C553.968 590.53 553.859 590.119 553.859 589.666C553.859 589.212 553.968 588.803 554.185 588.439C554.403 588.07 554.703 587.783 555.085 587.579C555.468 587.37 555.897 587.266 556.372 587.266C556.848 587.266 557.277 587.37 557.659 587.579C558.041 587.783 558.341 588.068 558.559 588.432C558.777 588.797 558.885 589.208 558.885 589.666C558.885 590.123 558.777 590.535 558.559 590.899C558.341 591.263 558.041 591.55 557.659 591.759C557.277 591.963 556.848 592.066 556.372 592.066ZM556.372 591.306C556.683 591.306 556.963 591.237 557.212 591.099C557.461 590.957 557.657 590.761 557.799 590.512C557.941 590.259 558.012 589.977 558.012 589.666C558.012 589.355 557.941 589.075 557.799 588.826C557.657 588.572 557.461 588.377 557.212 588.239C556.963 588.097 556.683 588.026 556.372 588.026C556.061 588.026 555.781 588.097 555.532 588.239C555.283 588.377 555.088 588.572 554.945 588.826C554.803 589.075 554.732 589.355 554.732 589.666C554.732 589.977 554.803 590.259 554.945 590.512C555.088 590.761 555.283 590.957 555.532 591.099C555.781 591.237 556.061 591.306 556.372 591.306ZM560.804 587.332H562.844C563.342 587.332 563.784 587.43 564.171 587.626C564.557 587.817 564.857 588.09 565.071 588.446C565.284 588.797 565.391 589.203 565.391 589.666C565.391 590.128 565.284 590.537 565.071 590.892C564.857 591.243 564.557 591.517 564.171 591.712C563.784 591.903 563.342 591.999 562.844 591.999H560.804V587.332ZM562.804 591.266C563.146 591.266 563.446 591.201 563.704 591.072C563.966 590.939 564.166 590.752 564.304 590.512C564.446 590.268 564.517 589.986 564.517 589.666C564.517 589.346 564.446 589.066 564.304 588.826C564.166 588.581 563.966 588.395 563.704 588.266C563.446 588.132 563.146 588.066 562.804 588.066H561.671V591.266H562.804ZM569.319 592.066C568.674 592.066 568.172 591.886 567.812 591.526C567.452 591.161 567.272 590.641 567.272 589.966V587.332H568.139V589.932C568.139 590.848 568.534 591.306 569.325 591.306C570.112 591.306 570.505 590.848 570.505 589.932V587.332H571.359V589.966C571.359 590.641 571.179 591.161 570.819 591.526C570.463 591.886 569.963 592.066 569.319 592.066ZM575.732 592.066C575.261 592.066 574.835 591.963 574.452 591.759C574.075 591.55 573.777 591.263 573.559 590.899C573.346 590.535 573.239 590.123 573.239 589.666C573.239 589.208 573.348 588.797 573.566 588.432C573.783 588.068 574.081 587.783 574.459 587.579C574.841 587.37 575.268 587.266 575.739 587.266C576.121 587.266 576.47 587.332 576.786 587.466C577.101 587.599 577.368 587.792 577.586 588.046L577.026 588.572C576.688 588.208 576.272 588.026 575.779 588.026C575.459 588.026 575.172 588.097 574.919 588.239C574.666 588.377 574.468 588.57 574.326 588.819C574.183 589.068 574.112 589.35 574.112 589.666C574.112 589.981 574.183 590.263 574.326 590.512C574.468 590.761 574.666 590.957 574.919 591.099C575.172 591.237 575.459 591.306 575.779 591.306C576.272 591.306 576.688 591.121 577.026 590.752L577.586 591.286C577.368 591.539 577.099 591.732 576.779 591.866C576.463 591.999 576.115 592.066 575.732 592.066ZM580.311 588.066H578.764V587.332H582.724V588.066H581.177V591.999H580.311V588.066Z" fill="#152539"/>
<path d="M375.443 238.865C375.571 238.673 375.519 238.415 375.328 238.287C375.136 238.159 374.877 238.211 374.75 238.403L375.097 238.634L375.443 238.865ZM321.355 318.716C321.4 318.941 321.619 319.087 321.845 319.042L325.522 318.307C325.748 318.262 325.894 318.042 325.849 317.817C325.804 317.591 325.584 317.445 325.359 317.49L322.09 318.144L321.436 314.875C321.391 314.649 321.172 314.503 320.946 314.548C320.72 314.593 320.574 314.813 320.619 315.038L321.355 318.716ZM375.097 238.634L374.75 238.403L321.416 318.403L321.763 318.634L322.11 318.865L375.443 238.865L375.097 238.634Z" fill="#152539"/>
<path d="M388.127 227.999H388.994V231.933H391.434V232.666H388.127V227.999ZM395.213 232.733C394.738 232.733 394.309 232.63 393.927 232.426C393.545 232.217 393.245 231.93 393.027 231.566C392.809 231.197 392.7 230.786 392.7 230.333C392.7 229.879 392.809 229.47 393.027 229.106C393.245 228.737 393.545 228.45 393.927 228.246C394.309 228.037 394.738 227.933 395.213 227.933C395.689 227.933 396.118 228.037 396.5 228.246C396.882 228.45 397.182 228.735 397.4 229.099C397.618 229.464 397.727 229.875 397.727 230.333C397.727 230.79 397.618 231.202 397.4 231.566C397.182 231.93 396.882 232.217 396.5 232.426C396.118 232.63 395.689 232.733 395.213 232.733ZM395.213 231.973C395.525 231.973 395.805 231.904 396.053 231.766C396.302 231.624 396.498 231.428 396.64 231.179C396.782 230.926 396.853 230.644 396.853 230.333C396.853 230.022 396.782 229.742 396.64 229.493C396.498 229.239 396.302 229.044 396.053 228.906C395.805 228.764 395.525 228.693 395.213 228.693C394.902 228.693 394.622 228.764 394.373 228.906C394.125 229.044 393.929 229.239 393.787 229.493C393.645 229.742 393.573 230.022 393.573 230.333C393.573 230.644 393.645 230.926 393.787 231.179C393.929 231.428 394.125 231.624 394.373 231.766C394.622 231.904 394.902 231.973 395.213 231.973ZM402.832 230.279H403.652V232.139C403.412 232.33 403.132 232.477 402.812 232.579C402.492 232.682 402.163 232.733 401.825 232.733C401.35 232.733 400.921 232.63 400.539 232.426C400.156 232.217 399.856 231.93 399.639 231.566C399.421 231.202 399.312 230.79 399.312 230.333C399.312 229.875 399.421 229.464 399.639 229.099C399.856 228.735 400.156 228.45 400.539 228.246C400.925 228.037 401.359 227.933 401.839 227.933C402.23 227.933 402.585 227.997 402.905 228.126C403.225 228.255 403.494 228.444 403.712 228.693L403.165 229.226C402.81 228.87 402.381 228.693 401.879 228.693C401.55 228.693 401.256 228.762 400.999 228.899C400.745 229.037 400.545 229.23 400.399 229.479C400.256 229.728 400.185 230.013 400.185 230.333C400.185 230.644 400.256 230.924 400.399 231.173C400.545 231.422 400.745 231.617 400.999 231.759C401.256 231.902 401.548 231.973 401.872 231.973C402.236 231.973 402.556 231.893 402.832 231.733V230.279ZM407.975 232.733C407.5 232.733 407.071 232.63 406.688 232.426C406.306 232.217 406.006 231.93 405.788 231.566C405.571 231.197 405.462 230.786 405.462 230.333C405.462 229.879 405.571 229.47 405.788 229.106C406.006 228.737 406.306 228.45 406.688 228.246C407.071 228.037 407.5 227.933 407.975 227.933C408.451 227.933 408.88 228.037 409.262 228.246C409.644 228.45 409.944 228.735 410.162 229.099C410.38 229.464 410.488 229.875 410.488 230.333C410.488 230.79 410.38 231.202 410.162 231.566C409.944 231.93 409.644 232.217 409.262 232.426C408.88 232.63 408.451 232.733 407.975 232.733ZM407.975 231.973C408.286 231.973 408.566 231.904 408.815 231.766C409.064 231.624 409.26 231.428 409.402 231.179C409.544 230.926 409.615 230.644 409.615 230.333C409.615 230.022 409.544 229.742 409.402 229.493C409.26 229.239 409.064 229.044 408.815 228.906C408.566 228.764 408.286 228.693 407.975 228.693C407.664 228.693 407.384 228.764 407.135 228.906C406.886 229.044 406.691 229.239 406.548 229.493C406.406 229.742 406.335 230.022 406.335 230.333C406.335 230.644 406.406 230.926 406.548 231.179C406.691 231.428 406.886 231.624 407.135 231.766C407.384 231.904 407.664 231.973 407.975 231.973ZM416.694 232.666L416.687 229.573L415.154 232.133H414.767L413.234 229.613V232.666H412.407V227.999H413.12L414.974 231.093L416.794 227.999H417.507L417.514 232.666H416.694ZM422.801 231.586H420.468L420.008 232.666H419.114L421.214 227.999H422.068L424.174 232.666H423.268L422.801 231.586ZM422.514 230.906L421.634 228.866L420.761 230.906H422.514ZM428.821 232.666L427.868 231.299C427.828 231.304 427.768 231.306 427.688 231.306H426.634V232.666H425.768V227.999H427.688C428.092 227.999 428.443 228.066 428.741 228.199C429.043 228.333 429.274 228.524 429.434 228.773C429.594 229.022 429.674 229.317 429.674 229.659C429.674 230.01 429.588 230.313 429.414 230.566C429.246 230.819 429.001 231.008 428.681 231.133L429.754 232.666H428.821ZM428.801 229.659C428.801 229.362 428.703 229.133 428.508 228.973C428.312 228.813 428.026 228.733 427.648 228.733H426.634V230.593H427.648C428.026 230.593 428.312 230.513 428.508 230.353C428.703 230.188 428.801 229.957 428.801 229.659ZM433.251 230.713L432.511 231.473V232.666H431.644V227.999H432.511V230.393L434.817 227.999H435.791L433.831 230.086L435.911 232.666H434.897L433.251 230.713Z" fill="#152539"/>
<path d="M554.977 238.89C555.101 238.696 555.044 238.438 554.85 238.314C554.656 238.19 554.398 238.247 554.274 238.441L554.625 238.666L554.977 238.89ZM504.219 317.089C504.268 317.313 504.491 317.455 504.715 317.406L508.377 316.597C508.602 316.548 508.744 316.325 508.694 316.101C508.645 315.876 508.422 315.734 508.197 315.784L504.943 316.502L504.224 313.247C504.174 313.022 503.952 312.881 503.727 312.93C503.502 312.98 503.361 313.202 503.41 313.427L504.219 317.089ZM554.625 238.666L554.274 238.441L504.274 316.775L504.625 316.999L504.977 317.223L554.977 238.89L554.625 238.666Z" fill="#152539"/>
<path d="M575.781 227.999L574.234 232.666H573.314L572.161 229.213L570.987 232.666H570.061L568.514 227.999H569.414L570.574 231.546L571.781 227.999H572.581L573.761 231.566L574.954 227.999H575.781ZM579.615 232.733C579.139 232.733 578.71 232.63 578.328 232.426C577.946 232.217 577.646 231.93 577.428 231.566C577.21 231.197 577.101 230.786 577.101 230.333C577.101 229.879 577.21 229.47 577.428 229.106C577.646 228.737 577.946 228.45 578.328 228.246C578.71 228.037 579.139 227.933 579.615 227.933C580.09 227.933 580.519 228.037 580.901 228.246C581.283 228.45 581.583 228.735 581.801 229.099C582.019 229.464 582.128 229.875 582.128 230.333C582.128 230.79 582.019 231.202 581.801 231.566C581.583 231.93 581.283 232.217 580.901 232.426C580.519 232.63 580.09 232.733 579.615 232.733ZM579.615 231.973C579.926 231.973 580.206 231.904 580.455 231.766C580.703 231.624 580.899 231.428 581.041 231.179C581.183 230.926 581.255 230.644 581.255 230.333C581.255 230.022 581.183 229.742 581.041 229.493C580.899 229.239 580.703 229.044 580.455 228.906C580.206 228.764 579.926 228.693 579.615 228.693C579.303 228.693 579.023 228.764 578.775 228.906C578.526 229.044 578.33 229.239 578.188 229.493C578.046 229.742 577.975 230.022 577.975 230.333C577.975 230.644 578.046 230.926 578.188 231.179C578.33 231.428 578.526 231.624 578.775 231.766C579.023 231.904 579.303 231.973 579.615 231.973ZM587.1 232.666L586.147 231.299C586.107 231.304 586.047 231.306 585.967 231.306H584.913V232.666H584.047V227.999H585.967C586.371 227.999 586.722 228.066 587.02 228.199C587.322 228.333 587.553 228.524 587.713 228.773C587.873 229.022 587.953 229.317 587.953 229.659C587.953 230.01 587.867 230.313 587.693 230.566C587.524 230.819 587.28 231.008 586.96 231.133L588.033 232.666H587.1ZM587.08 229.659C587.08 229.362 586.982 229.133 586.787 228.973C586.591 228.813 586.304 228.733 585.927 228.733H584.913V230.593H585.927C586.304 230.593 586.591 230.513 586.787 230.353C586.982 230.188 587.08 229.957 587.08 229.659ZM589.923 227.999H591.963C592.461 227.999 592.903 228.097 593.29 228.293C593.676 228.484 593.976 228.757 594.19 229.113C594.403 229.464 594.51 229.87 594.51 230.333C594.51 230.795 594.403 231.204 594.19 231.559C593.976 231.91 593.676 232.184 593.29 232.379C592.903 232.57 592.461 232.666 591.963 232.666H589.923V227.999ZM591.923 231.933C592.265 231.933 592.565 231.868 592.823 231.739C593.085 231.606 593.285 231.419 593.423 231.179C593.565 230.935 593.636 230.653 593.636 230.333C593.636 230.013 593.565 229.733 593.423 229.493C593.285 229.248 593.085 229.062 592.823 228.933C592.565 228.799 592.265 228.733 591.923 228.733H590.79V231.933H591.923ZM600.717 232.666L600.711 229.573L599.177 232.133H598.791L597.257 229.613V232.666H596.431V227.999H597.144L598.997 231.093L600.817 227.999H601.531L601.537 232.666H600.717ZM606.825 231.586H604.491L604.031 232.666H603.138L605.238 227.999H606.091L608.198 232.666H607.291L606.825 231.586ZM606.538 230.906L605.658 228.866L604.785 230.906H606.538ZM612.845 232.666L611.891 231.299C611.851 231.304 611.791 231.306 611.711 231.306H610.658V232.666H609.791V227.999H611.711C612.116 227.999 612.467 228.066 612.765 228.199C613.067 228.333 613.298 228.524 613.458 228.773C613.618 229.022 613.698 229.317 613.698 229.659C613.698 230.01 613.611 230.313 613.438 230.566C613.269 230.819 613.025 231.008 612.705 231.133L613.778 232.666H612.845ZM612.825 229.659C612.825 229.362 612.727 229.133 612.531 228.973C612.336 228.813 612.049 228.733 611.671 228.733H610.658V230.593H611.671C612.049 230.593 612.336 230.513 612.531 230.353C612.727 230.188 612.825 229.957 612.825 229.659ZM617.274 230.713L616.534 231.473V232.666H615.668V227.999H616.534V230.393L618.841 227.999H619.814L617.854 230.086L619.934 232.666H618.921L617.274 230.713Z" fill="#152539"/>
<path d="M809.377 587.999H810.243V591.933H812.683V592.666H809.377V587.999ZM817.427 591.586H815.093L814.633 592.666H813.74L815.84 587.999H816.693L818.8 592.666H817.893L817.427 591.586ZM817.14 590.906L816.26 588.866L815.387 590.906H817.14ZM823.7 590.239C823.958 590.324 824.162 590.466 824.314 590.666C824.465 590.862 824.54 591.106 824.54 591.399C824.54 591.804 824.385 592.117 824.074 592.339C823.762 592.557 823.309 592.666 822.714 592.666H820.394V587.999H822.58C823.131 587.999 823.556 588.108 823.854 588.326C824.151 588.539 824.3 588.835 824.3 589.213C824.3 589.444 824.247 589.648 824.14 589.826C824.034 590.004 823.887 590.142 823.7 590.239ZM821.26 588.679V589.966H822.487C822.789 589.966 823.02 589.913 823.18 589.806C823.345 589.695 823.427 589.535 823.427 589.326C823.427 589.113 823.345 588.953 823.18 588.846C823.02 588.735 822.789 588.679 822.487 588.679H821.26ZM822.66 591.986C823.331 591.986 823.667 591.762 823.667 591.313C823.667 590.864 823.331 590.639 822.66 590.639H821.26V591.986H822.66ZM829.965 591.939V592.666H826.465V587.999H829.872V588.726H827.332V589.939H829.585V590.653H827.332V591.939H829.965ZM831.931 587.999H832.798V591.933H835.238V592.666H831.931V587.999ZM841.945 592.733C841.469 592.733 841.04 592.63 840.658 592.426C840.276 592.217 839.976 591.93 839.758 591.566C839.54 591.197 839.431 590.786 839.431 590.333C839.431 589.879 839.54 589.47 839.758 589.106C839.976 588.737 840.276 588.45 840.658 588.246C841.04 588.037 841.469 587.933 841.945 587.933C842.42 587.933 842.849 588.037 843.231 588.246C843.614 588.45 843.914 588.735 844.131 589.099C844.349 589.464 844.458 589.875 844.458 590.333C844.458 590.79 844.349 591.202 844.131 591.566C843.914 591.93 843.614 592.217 843.231 592.426C842.849 592.63 842.42 592.733 841.945 592.733ZM841.945 591.973C842.256 591.973 842.536 591.904 842.785 591.766C843.034 591.624 843.229 591.428 843.371 591.179C843.514 590.926 843.585 590.644 843.585 590.333C843.585 590.022 843.514 589.742 843.371 589.493C843.229 589.239 843.034 589.044 842.785 588.906C842.536 588.764 842.256 588.693 841.945 588.693C841.634 588.693 841.354 588.764 841.105 588.906C840.856 589.044 840.66 589.239 840.518 589.493C840.376 589.742 840.305 590.022 840.305 590.333C840.305 590.644 840.376 590.926 840.518 591.179C840.66 591.428 840.856 591.624 841.105 591.766C841.354 591.904 841.634 591.973 841.945 591.973ZM848.297 587.999C848.701 587.999 849.052 588.066 849.35 588.199C849.652 588.333 849.883 588.524 850.043 588.773C850.203 589.022 850.283 589.317 850.283 589.659C850.283 589.997 850.203 590.293 850.043 590.546C849.883 590.795 849.652 590.986 849.35 591.119C849.052 591.253 848.701 591.319 848.297 591.319H847.243V592.666H846.377V587.999H848.297ZM848.257 590.586C848.634 590.586 848.921 590.506 849.117 590.346C849.312 590.186 849.41 589.957 849.41 589.659C849.41 589.362 849.312 589.133 849.117 588.973C848.921 588.813 848.634 588.733 848.257 588.733H847.243V590.586H848.257ZM852.959 588.733H851.412V587.999H855.372V588.733H853.825V592.666H852.959V588.733ZM857.022 587.999H857.889V592.666H857.022V587.999ZM862.331 592.733C861.856 592.733 861.427 592.63 861.045 592.426C860.663 592.217 860.363 591.93 860.145 591.566C859.927 591.197 859.818 590.786 859.818 590.333C859.818 589.879 859.927 589.47 860.145 589.106C860.363 588.737 860.663 588.45 861.045 588.246C861.427 588.037 861.856 587.933 862.331 587.933C862.807 587.933 863.236 588.037 863.618 588.246C864 588.45 864.3 588.735 864.518 589.099C864.736 589.464 864.845 589.875 864.845 590.333C864.845 590.79 864.736 591.202 864.518 591.566C864.3 591.93 864 592.217 863.618 592.426C863.236 592.63 862.807 592.733 862.331 592.733ZM862.331 591.973C862.643 591.973 862.923 591.904 863.171 591.766C863.42 591.624 863.616 591.428 863.758 591.179C863.9 590.926 863.971 590.644 863.971 590.333C863.971 590.022 863.9 589.742 863.758 589.493C863.616 589.239 863.42 589.044 863.171 588.906C862.923 588.764 862.643 588.693 862.331 588.693C862.02 588.693 861.74 588.764 861.491 588.906C861.243 589.044 861.047 589.239 860.905 589.493C860.763 589.742 860.691 590.022 860.691 590.333C860.691 590.644 860.763 590.926 860.905 591.179C861.047 591.428 861.243 591.624 861.491 591.766C861.74 591.904 862.02 591.973 862.331 591.973ZM870.91 587.999V592.666H870.197L867.623 589.506V592.666H866.763V587.999H867.477L870.05 591.159V587.999H870.91ZM874.607 592.733C874.247 592.733 873.898 592.682 873.561 592.579C873.227 592.477 872.963 592.342 872.767 592.173L873.067 591.499C873.258 591.65 873.492 591.775 873.767 591.873C874.047 591.966 874.327 592.013 874.607 592.013C874.954 592.013 875.212 591.957 875.381 591.846C875.554 591.735 875.641 591.588 875.641 591.406C875.641 591.273 875.592 591.164 875.494 591.079C875.401 590.99 875.281 590.922 875.134 590.873C874.987 590.824 874.787 590.768 874.534 590.706C874.178 590.622 873.889 590.537 873.667 590.453C873.449 590.368 873.261 590.237 873.101 590.059C872.945 589.877 872.867 589.633 872.867 589.326C872.867 589.068 872.936 588.835 873.074 588.626C873.216 588.413 873.427 588.244 873.707 588.119C873.992 587.995 874.338 587.933 874.747 587.933C875.032 587.933 875.312 587.968 875.587 588.039C875.863 588.11 876.101 588.213 876.301 588.346L876.027 589.019C875.823 588.899 875.609 588.808 875.387 588.746C875.165 588.684 874.949 588.653 874.741 588.653C874.398 588.653 874.143 588.71 873.974 588.826C873.809 588.942 873.727 589.095 873.727 589.286C873.727 589.419 873.774 589.528 873.867 589.613C873.965 589.697 874.087 589.764 874.234 589.813C874.381 589.862 874.581 589.917 874.834 589.979C875.181 590.059 875.465 590.144 875.687 590.233C875.909 590.317 876.098 590.448 876.254 590.626C876.414 590.804 876.494 591.044 876.494 591.346C876.494 591.604 876.423 591.837 876.281 592.046C876.143 592.255 875.932 592.422 875.647 592.546C875.363 592.67 875.016 592.733 874.607 592.733Z" fill="#152539"/>
<path d="M796.943 582.392C797.16 582.469 797.398 582.356 797.476 582.139C797.553 581.922 797.44 581.684 797.223 581.607L797.083 581.999L796.943 582.392ZM675.238 538.289C675.03 538.388 674.941 538.637 675.04 538.844L676.648 542.232C676.747 542.44 676.995 542.528 677.203 542.43C677.411 542.331 677.5 542.082 677.401 541.875L675.971 538.863L678.983 537.434C679.191 537.335 679.279 537.087 679.18 536.879C679.082 536.671 678.833 536.582 678.625 536.681L675.238 538.289ZM797.083 581.999L797.223 581.607L675.556 538.273L675.416 538.666L675.277 539.058L796.943 582.392L797.083 581.999Z" fill="#152539"/>
<path d="M796.742 582.238C796.874 582.427 797.134 582.472 797.322 582.34C797.511 582.208 797.556 581.948 797.424 581.76L797.083 581.999L796.742 582.238ZM742.155 503.255C741.928 503.216 741.712 503.367 741.673 503.594L741.026 507.288C740.986 507.514 741.138 507.73 741.365 507.77C741.591 507.81 741.807 507.658 741.847 507.431L742.422 504.148L745.705 504.723C745.932 504.762 746.148 504.611 746.187 504.384C746.227 504.157 746.075 503.941 745.849 503.902L742.155 503.255ZM797.083 581.999L797.424 581.76L742.424 503.426L742.083 503.666L741.742 503.905L796.742 582.238L797.083 581.999Z" fill="#152539"/>
</g>
<defs>
<clipPath id="clip0_4007_167970">
<rect width="1200" height="800" fill="white"/>
</clipPath>
</defs>
</svg>
