<svg width="1200" height="800" viewBox="0 0 1200 800" fill="none" xmlns="http://www.w3.org/2000/svg">
<g clip-path="url(#clip0_4007_167921)">
<rect width="1200" height="800" fill="#FAF9F7"/>
<path d="M53.3335 53.3335L1146.67 53.3335" stroke="#152539" stroke-width="0.416667"/>
<path d="M54.0335 64.3333H54.7002V68.42H57.2268V69H54.0335V64.3333ZM61.0139 69.0533C60.5427 69.0533 60.1183 68.9511 59.7405 68.7467C59.3627 68.5378 59.065 68.2511 58.8472 67.8867C58.6339 67.5222 58.5272 67.1156 58.5272 66.6667C58.5272 66.2178 58.6339 65.8111 58.8472 65.4467C59.065 65.0822 59.3627 64.7978 59.7405 64.5933C60.1183 64.3844 60.5427 64.28 61.0139 64.28C61.4805 64.28 61.9027 64.3844 62.2805 64.5933C62.6583 64.7978 62.9539 65.0822 63.1672 65.4467C63.3805 65.8067 63.4872 66.2133 63.4872 66.6667C63.4872 67.12 63.3805 67.5289 63.1672 67.8933C62.9539 68.2533 62.6583 68.5378 62.2805 68.7467C61.9027 68.9511 61.4805 69.0533 61.0139 69.0533ZM61.0139 68.46C61.3561 68.46 61.6627 68.3822 61.9339 68.2267C62.2094 68.0711 62.425 67.8578 62.5805 67.5867C62.7405 67.3111 62.8205 67.0044 62.8205 66.6667C62.8205 66.3289 62.7405 66.0244 62.5805 65.7533C62.425 65.4778 62.2094 65.2622 61.9339 65.1067C61.6627 64.9511 61.3561 64.8733 61.0139 64.8733C60.6716 64.8733 60.3605 64.9511 60.0805 65.1067C59.805 65.2622 59.5872 65.4778 59.4272 65.7533C59.2716 66.0244 59.1939 66.3289 59.1939 66.6667C59.1939 67.0044 59.2716 67.3111 59.4272 67.5867C59.5872 67.8578 59.805 68.0711 60.0805 68.2267C60.3605 68.3822 60.6716 68.46 61.0139 68.46ZM67.5928 69.0533C67.1262 69.0533 66.7039 68.9511 66.3262 68.7467C65.9528 68.5378 65.6595 68.2533 65.4462 67.8933C65.2328 67.5289 65.1262 67.12 65.1262 66.6667C65.1262 66.2133 65.2328 65.8067 65.4462 65.4467C65.6595 65.0822 65.955 64.7978 66.3328 64.5933C66.7106 64.3844 67.1328 64.28 67.5995 64.28C67.9639 64.28 68.2973 64.3422 68.5995 64.4667C68.9017 64.5867 69.1595 64.7667 69.3728 65.0067L68.9395 65.4267C68.5884 65.0578 68.1506 64.8733 67.6262 64.8733C67.2795 64.8733 66.9662 64.9511 66.6862 65.1067C66.4062 65.2622 66.1862 65.4778 66.0262 65.7533C65.8706 66.0244 65.7928 66.3289 65.7928 66.6667C65.7928 67.0044 65.8706 67.3111 66.0262 67.5867C66.1862 67.8578 66.4062 68.0711 66.6862 68.2267C66.9662 68.3822 67.2795 68.46 67.6262 68.46C68.1462 68.46 68.5839 68.2733 68.9395 67.9L69.3728 68.32C69.1595 68.56 68.8995 68.7422 68.5928 68.8667C68.2906 68.9911 67.9573 69.0533 67.5928 69.0533ZM72.8439 66.9267L71.9905 67.7933V69H71.3239V64.3333H71.9905V66.94L74.5239 64.3333H75.2839L73.2905 66.4333L75.4105 69H74.6305L72.8439 66.9267ZM78.9838 69.0533C78.3615 69.0533 77.8771 68.8756 77.5304 68.52C77.1838 68.1644 77.0104 67.6533 77.0104 66.9867V64.3333H77.6771V66.96C77.6771 67.96 78.1149 68.46 78.9904 68.46C79.4171 68.46 79.7438 68.3378 79.9704 68.0933C80.1971 67.8444 80.3104 67.4667 80.3104 66.96V64.3333H80.9571V66.9867C80.9571 67.6578 80.7838 68.1711 80.4371 68.5267C80.0904 68.8778 79.606 69.0533 78.9838 69.0533ZM85.1439 64.3333C85.7483 64.3333 86.2239 64.4778 86.5705 64.7667C86.9172 65.0556 87.0905 65.4533 87.0905 65.96C87.0905 66.4667 86.9172 66.8644 86.5705 67.1533C86.2239 67.4422 85.7483 67.5867 85.1439 67.5867H83.9905V69H83.3239V64.3333H85.1439ZM85.1239 67.0067C85.5461 67.0067 85.8683 66.9178 86.0905 66.74C86.3127 66.5578 86.4239 66.2978 86.4239 65.96C86.4239 65.6222 86.3127 65.3644 86.0905 65.1867C85.8683 65.0044 85.5461 64.9133 85.1239 64.9133H83.9905V67.0067H85.1239ZM93.2854 69.0533C92.9343 69.0533 92.5943 69 92.2654 68.8933C91.941 68.7822 91.6854 68.64 91.4988 68.4667L91.7454 67.9467C91.9232 68.1067 92.1499 68.2378 92.4254 68.34C92.7054 68.4378 92.9921 68.4867 93.2854 68.4867C93.6721 68.4867 93.961 68.4222 94.1521 68.2933C94.3432 68.16 94.4388 67.9844 94.4388 67.7667C94.4388 67.6067 94.3854 67.4778 94.2788 67.38C94.1765 67.2778 94.0476 67.2 93.8921 67.1467C93.741 67.0933 93.5254 67.0333 93.2454 66.9667C92.8943 66.8822 92.6099 66.7978 92.3921 66.7133C92.1788 66.6289 91.9943 66.5 91.8388 66.3267C91.6876 66.1489 91.6121 65.9111 91.6121 65.6133C91.6121 65.3644 91.6765 65.14 91.8054 64.94C91.9388 64.74 92.1388 64.58 92.4054 64.46C92.6721 64.34 93.0032 64.28 93.3988 64.28C93.6743 64.28 93.9454 64.3156 94.2121 64.3867C94.4788 64.4578 94.7076 64.56 94.8988 64.6933L94.6788 65.2267C94.4832 65.1022 94.2743 65.0089 94.0521 64.9467C93.8299 64.88 93.6121 64.8467 93.3988 64.8467C93.021 64.8467 92.7365 64.9156 92.5454 65.0533C92.3588 65.1911 92.2654 65.3689 92.2654 65.5867C92.2654 65.7467 92.3188 65.8778 92.4254 65.98C92.5321 66.0778 92.6632 66.1556 92.8188 66.2133C92.9788 66.2667 93.1943 66.3244 93.4654 66.3867C93.8165 66.4711 94.0988 66.5556 94.3121 66.64C94.5254 66.7244 94.7076 66.8533 94.8588 67.0267C95.0143 67.2 95.0921 67.4333 95.0921 67.7267C95.0921 67.9711 95.0254 68.1956 94.8921 68.4C94.7588 68.6 94.5565 68.76 94.2854 68.88C94.0143 68.9956 93.681 69.0533 93.2854 69.0533ZM98.7551 67.3867V69H98.0951V67.3733L96.2417 64.3333H96.9551L98.4484 66.7933L99.9484 64.3333L100.608 64.3333L98.7551 67.3867ZM103.547 69.0533C103.196 69.0533 102.856 69 102.527 68.8933C102.203 68.7822 101.947 68.64 101.76 68.4667L102.007 67.9467C102.185 68.1067 102.412 68.2378 102.687 68.34C102.967 68.4378 103.254 68.4867 103.547 68.4867C103.934 68.4867 104.223 68.4222 104.414 68.2933C104.605 68.16 104.7 67.9844 104.7 67.7667C104.7 67.6067 104.647 67.4778 104.54 67.38C104.438 67.2778 104.309 67.2 104.154 67.1467C104.003 67.0933 103.787 67.0333 103.507 66.9667C103.156 66.8822 102.872 66.7978 102.654 66.7133C102.44 66.6289 102.256 66.5 102.1 66.3267C101.949 66.1489 101.874 65.9111 101.874 65.6133C101.874 65.3644 101.938 65.14 102.067 64.94C102.2 64.74 102.4 64.58 102.667 64.46C102.934 64.34 103.265 64.28 103.66 64.28C103.936 64.28 104.207 64.3156 104.474 64.3867C104.74 64.4578 104.969 64.56 105.16 64.6933L104.94 65.2267C104.745 65.1022 104.536 65.0089 104.314 64.9467C104.092 64.88 103.874 64.8467 103.66 64.8467C103.283 64.8467 102.998 64.9156 102.807 65.0533C102.62 65.1911 102.527 65.3689 102.527 65.5867C102.527 65.7467 102.58 65.8778 102.687 65.98C102.794 66.0778 102.925 66.1556 103.08 66.2133C103.24 66.2667 103.456 66.3244 103.727 66.3867C104.078 66.4711 104.36 66.5556 104.574 66.64C104.787 66.7244 104.969 66.8533 105.12 67.0267C105.276 67.2 105.354 67.4333 105.354 67.7267C105.354 67.9711 105.287 68.1956 105.154 68.4C105.02 68.6 104.818 68.76 104.547 68.88C104.276 68.9956 103.943 69.0533 103.547 69.0533ZM108.189 64.9133H106.589V64.3333H110.449V64.9133H108.849V69H108.189V64.9133ZM115.562 68.42V69H112.175V64.3333H115.469V64.9133H112.842V66.3467H115.182V66.9133H112.842V68.42L115.562 68.42ZM121.968 69L121.962 65.6L120.275 68.4333H119.968L118.282 65.62V69H117.642V64.3333H118.188L120.135 67.6133L122.055 64.3333H122.602L122.608 69H121.968Z" fill="#152539"/>
<path d="M1112.45 69.0533C1111.99 69.0533 1111.56 68.9511 1111.19 68.7467C1110.81 68.5378 1110.52 68.2533 1110.31 67.8933C1110.09 67.5289 1109.99 67.12 1109.99 66.6667C1109.99 66.2133 1110.09 65.8067 1110.31 65.4467C1110.52 65.0822 1110.82 64.7978 1111.19 64.5933C1111.57 64.3844 1111.99 64.28 1112.46 64.28C1112.82 64.28 1113.16 64.3422 1113.46 64.4667C1113.76 64.5867 1114.02 64.7667 1114.23 65.0067L1113.8 65.4267C1113.45 65.0578 1113.01 64.8733 1112.49 64.8733C1112.14 64.8733 1111.83 64.9511 1111.55 65.1067C1111.27 65.2622 1111.05 65.4778 1110.89 65.7533C1110.73 66.0244 1110.65 66.3289 1110.65 66.6667C1110.65 67.0044 1110.73 67.3111 1110.89 67.5867C1111.05 67.8578 1111.27 68.0711 1111.55 68.2267C1111.83 68.3822 1112.14 68.46 1112.49 68.46C1113.01 68.46 1113.44 68.2733 1113.8 67.9L1114.23 68.32C1114.02 68.56 1113.76 68.7422 1113.45 68.8667C1113.15 68.9911 1112.82 69.0533 1112.45 69.0533ZM1119.05 67.8333H1116.57L1116.05 69H1115.37L1117.48 64.3333H1118.14L1120.26 69H1119.56L1119.05 67.8333ZM1118.81 67.3L1117.81 65.0133L1116.8 67.3H1118.81ZM1125.97 64.3333V69H1125.42L1122.62 65.52V69H1121.96V64.3333H1122.5L1125.3 67.8133V64.3333H1125.97ZM1131.34 67.8333H1128.86L1128.35 69H1127.66L1129.77 64.3333H1130.43L1132.55 69H1131.85L1131.34 67.8333ZM1131.11 67.3L1130.1 65.0133L1129.09 67.3H1131.11ZM1134.25 64.3333H1134.92V68.42H1137.44V69H1134.25V64.3333ZM1139.21 64.3333H1139.87V69H1139.21V64.3333ZM1145.21 69L1143.81 67.0733L1142.43 69H1141.66L1143.41 66.6067L1141.77 64.3333H1142.53L1143.83 66.1267L1145.13 64.3333H1145.85L1144.21 66.5867L1145.97 69H1145.21Z" fill="#152539"/>
<path d="M312.917 348.666C325.035 348.666 334.86 358.49 334.86 370.608V386.723L350.974 386.723C363.093 386.723 372.917 396.547 372.917 408.666C358.596 408.666 344.274 408.665 329.953 408.665C327.342 400.497 320.994 393.999 312.917 391.188V348.666Z" fill="#152539"/>
<path fill-rule="evenodd" clip-rule="evenodd" d="M304.307 433.391C304.307 445.509 314.131 455.333 326.25 455.333V417.276C326.25 405.158 316.426 395.333 304.307 395.333L266.25 395.334C266.25 407.452 276.074 417.276 288.193 417.276H304.307V433.391Z" fill="#152539"/>
<path d="M407.97 385.48C405.117 385.48 402.53 384.867 400.21 383.64C397.917 382.387 396.103 380.667 394.77 378.48C393.463 376.267 392.81 373.773 392.81 371C392.81 368.227 393.463 365.747 394.77 363.56C396.103 361.347 397.917 359.627 400.21 358.4C402.53 357.147 405.13 356.52 408.01 356.52C410.437 356.52 412.623 356.947 414.57 357.8C416.543 358.653 418.197 359.88 419.53 361.48L415.37 365.32C413.477 363.133 411.13 362.04 408.33 362.04C406.597 362.04 405.05 362.427 403.69 363.2C402.33 363.947 401.263 365 400.49 366.36C399.743 367.72 399.37 369.267 399.37 371C399.37 372.733 399.743 374.28 400.49 375.64C401.263 377 402.33 378.067 403.69 378.84C405.05 379.587 406.597 379.96 408.33 379.96C411.13 379.96 413.477 378.853 415.37 376.64L419.53 380.48C418.197 382.107 416.543 383.347 414.57 384.2C412.597 385.053 410.397 385.48 407.97 385.48ZM431.99 363.16C435.323 363.16 437.883 363.96 439.67 365.56C441.456 367.133 442.35 369.52 442.35 372.72V385H436.51V382.32C435.336 384.32 433.15 385.32 429.95 385.32C428.296 385.32 426.856 385.04 425.63 384.48C424.43 383.92 423.51 383.147 422.87 382.16C422.23 381.173 421.91 380.053 421.91 378.8C421.91 376.8 422.656 375.227 424.15 374.08C425.67 372.933 428.003 372.36 431.15 372.36H436.11C436.11 371 435.696 369.96 434.87 369.24C434.043 368.493 432.803 368.12 431.15 368.12C430.003 368.12 428.87 368.307 427.75 368.68C426.656 369.027 425.723 369.507 424.95 370.12L422.71 365.76C423.883 364.933 425.283 364.293 426.91 363.84C428.563 363.387 430.256 363.16 431.99 363.16ZM431.51 381.12C432.576 381.12 433.523 380.88 434.35 380.4C435.176 379.893 435.763 379.16 436.11 378.2V376H431.83C429.27 376 427.99 376.84 427.99 378.52C427.99 379.32 428.296 379.96 428.91 380.44C429.55 380.893 430.416 381.12 431.51 381.12ZM461.077 363.16C463.744 363.16 465.891 363.96 467.517 365.56C469.171 367.16 469.997 369.533 469.997 372.68V385H463.757V373.64C463.757 371.933 463.384 370.667 462.637 369.84C461.891 368.987 460.811 368.56 459.397 368.56C457.824 368.56 456.571 369.053 455.637 370.04C454.704 371 454.237 372.44 454.237 374.36V385H447.997V363.48H453.957V366C454.784 365.093 455.811 364.4 457.037 363.92C458.264 363.413 459.611 363.16 461.077 363.16ZM484.333 363.16C487.667 363.16 490.227 363.96 492.013 365.56C493.8 367.133 494.693 369.52 494.693 372.72V385H488.853V382.32C487.68 384.32 485.493 385.32 482.293 385.32C480.64 385.32 479.2 385.04 477.973 384.48C476.773 383.92 475.853 383.147 475.213 382.16C474.573 381.173 474.253 380.053 474.253 378.8C474.253 376.8 475 375.227 476.493 374.08C478.013 372.933 480.347 372.36 483.493 372.36H488.453C488.453 371 488.04 369.96 487.213 369.24C486.387 368.493 485.147 368.12 483.493 368.12C482.347 368.12 481.213 368.307 480.093 368.68C479 369.027 478.067 369.507 477.293 370.12L475.053 365.76C476.227 364.933 477.627 364.293 479.253 363.84C480.907 363.387 482.6 363.16 484.333 363.16ZM483.853 381.12C484.92 381.12 485.867 380.88 486.693 380.4C487.52 379.893 488.107 379.16 488.453 378.2V376H484.173C481.613 376 480.333 376.84 480.333 378.52C480.333 379.32 480.64 379.96 481.253 380.44C481.893 380.893 482.76 381.12 483.853 381.12ZM500.341 355.32H506.581V385H500.341V355.32ZM512.372 363.48H518.612V385H512.372V363.48ZM515.492 360.48C514.346 360.48 513.412 360.147 512.692 359.48C511.972 358.813 511.612 357.987 511.612 357C511.612 356.013 511.972 355.187 512.692 354.52C513.412 353.853 514.346 353.52 515.492 353.52C516.639 353.52 517.572 353.84 518.292 354.48C519.012 355.12 519.372 355.92 519.372 356.88C519.372 357.92 519.012 358.787 518.292 359.48C517.572 360.147 516.639 360.48 515.492 360.48ZM538.083 385L533.363 378.4L528.483 385H521.683L529.963 374.16L521.963 363.48H528.963L533.523 369.76L538.203 363.48H544.843L536.843 374L545.163 385H538.083Z" fill="#152539"/>
<path d="M420.463 398.667C425.423 398.667 429.717 399.494 433.344 401.147C437.024 402.8 439.85 405.147 441.824 408.187C443.797 411.227 444.784 414.827 444.784 418.987C444.784 423.094 443.797 426.694 441.824 429.787C439.85 432.827 437.024 435.174 433.344 436.827C429.717 438.427 425.423 439.227 420.463 439.227H409.183V454.667H396.223V398.667H420.463ZM419.743 428.667C423.637 428.667 426.597 427.84 428.623 426.187C430.65 424.48 431.663 422.08 431.663 418.987C431.663 415.84 430.65 413.44 428.623 411.787C426.597 410.08 423.637 409.227 419.743 409.227H409.183V428.667H419.743ZM465.076 417.307C466.569 415.227 468.569 413.654 471.076 412.587C473.636 411.52 476.569 410.987 479.876 410.987V422.507C478.489 422.4 477.556 422.347 477.076 422.347C473.503 422.347 470.703 423.36 468.676 425.387C466.649 427.36 465.636 430.347 465.636 434.347V454.667H453.156V411.627H465.076V417.307ZM507.386 455.307C502.853 455.307 498.773 454.374 495.146 452.507C491.573 450.587 488.773 447.947 486.746 444.587C484.719 441.227 483.706 437.414 483.706 433.147C483.706 428.88 484.719 425.067 486.746 421.707C488.773 418.347 491.573 415.734 495.146 413.867C498.773 411.947 502.853 410.987 507.386 410.987C511.919 410.987 515.973 411.947 519.546 413.867C523.119 415.734 525.919 418.347 527.946 421.707C529.973 425.067 530.986 428.88 530.986 433.147C530.986 437.414 529.973 441.227 527.946 444.587C525.919 447.947 523.119 450.587 519.546 452.507C515.973 454.374 511.919 455.307 507.386 455.307ZM507.386 445.067C510.586 445.067 513.199 444 515.226 441.867C517.306 439.68 518.346 436.774 518.346 433.147C518.346 429.52 517.306 426.64 515.226 424.507C513.199 422.32 510.586 421.227 507.386 421.227C504.186 421.227 501.546 422.32 499.466 424.507C497.386 426.64 496.346 429.52 496.346 433.147C496.346 436.774 497.386 439.68 499.466 441.867C501.546 444 504.186 445.067 507.386 445.067ZM583.168 395.307V454.667H571.248V449.707C568.155 453.44 563.675 455.307 557.808 455.307C553.755 455.307 550.075 454.4 546.768 452.587C543.515 450.774 540.955 448.187 539.088 444.827C537.221 441.467 536.288 437.574 536.288 433.147C536.288 428.72 537.221 424.827 539.088 421.467C540.955 418.107 543.515 415.52 546.768 413.707C550.075 411.894 553.755 410.987 557.808 410.987C563.301 410.987 567.595 412.72 570.688 416.187V395.307H583.168ZM559.968 445.067C563.115 445.067 565.728 444 567.808 441.867C569.888 439.68 570.928 436.774 570.928 433.147C570.928 429.52 569.888 426.64 567.808 424.507C565.728 422.32 563.115 421.227 559.968 421.227C556.768 421.227 554.128 422.32 552.048 424.507C549.968 426.64 548.928 429.52 548.928 433.147C548.928 436.774 549.968 439.68 552.048 441.867C554.128 444 556.768 445.067 559.968 445.067ZM638.078 411.627V454.667H626.238V449.547C624.585 451.414 622.612 452.854 620.318 453.867C618.025 454.827 615.545 455.307 612.878 455.307C607.225 455.307 602.745 453.68 599.438 450.427C596.132 447.174 594.478 442.347 594.478 435.947V411.627H606.958V434.107C606.958 441.04 609.865 444.507 615.678 444.507C618.665 444.507 621.065 443.547 622.878 441.627C624.692 439.654 625.598 436.747 625.598 432.907V411.627H638.078ZM670.44 455.307C665.854 455.307 661.72 454.374 658.04 452.507C654.414 450.587 651.56 447.947 649.48 444.587C647.454 441.227 646.44 437.414 646.44 433.147C646.44 428.88 647.454 425.067 649.48 421.707C651.56 418.347 654.414 415.734 658.04 413.867C661.72 411.947 665.854 410.987 670.44 410.987C674.974 410.987 678.92 411.947 682.28 413.867C685.694 415.734 688.174 418.427 689.72 421.947L680.04 427.147C677.8 423.2 674.574 421.227 670.36 421.227C667.107 421.227 664.414 422.294 662.28 424.427C660.147 426.56 659.08 429.467 659.08 433.147C659.08 436.827 660.147 439.734 662.28 441.867C664.414 444 667.107 445.067 670.36 445.067C674.627 445.067 677.854 443.094 680.04 439.147L689.72 444.427C688.174 447.84 685.694 450.507 682.28 452.427C678.92 454.347 674.974 455.307 670.44 455.307ZM725.291 452.587C724.064 453.494 722.544 454.187 720.731 454.667C718.971 455.094 717.104 455.307 715.131 455.307C710.011 455.307 706.038 454 703.211 451.387C700.438 448.774 699.051 444.934 699.051 439.867V422.187H692.411V412.587H699.051V402.107H711.531V412.587H722.251V422.187H711.531V439.707C711.531 441.52 711.984 442.934 712.891 443.947C713.851 444.907 715.184 445.387 716.891 445.387C718.864 445.387 720.544 444.854 721.931 443.787L725.291 452.587Z" fill="#152539"/>
<g opacity="0.4">
<path d="M603.38 495.323C603.38 494.737 603.315 494.216 603.185 493.761C603.068 493.292 602.84 492.869 602.501 492.491C602.163 492.114 601.681 491.743 601.056 491.378C600.444 491.013 599.65 490.642 598.673 490.265C597.554 489.835 596.505 489.366 595.529 488.858C594.565 488.338 593.712 487.752 592.97 487.101C592.241 486.437 591.668 485.662 591.251 484.776C590.835 483.891 590.626 482.862 590.626 481.69C590.626 480.532 590.828 479.477 591.232 478.526C591.649 477.563 592.235 476.736 592.99 476.046C593.758 475.343 594.669 474.802 595.724 474.425C596.779 474.034 597.944 473.839 599.22 473.839C601.056 473.839 602.625 474.229 603.927 475.011C605.242 475.792 606.245 476.84 606.935 478.155C607.638 479.47 607.99 480.929 607.99 482.53H603.263C603.263 481.606 603.12 480.785 602.833 480.069C602.547 479.353 602.104 478.793 601.505 478.39C600.906 477.986 600.132 477.784 599.181 477.784C598.309 477.784 597.586 477.953 597.013 478.292C596.453 478.631 596.037 479.093 595.763 479.679C595.503 480.265 595.373 480.935 595.373 481.69C595.373 482.211 595.483 482.687 595.705 483.116C595.926 483.533 596.245 483.917 596.662 484.269C597.078 484.62 597.586 484.952 598.185 485.265C598.784 485.577 599.474 485.877 600.255 486.163C601.583 486.645 602.742 487.179 603.732 487.765C604.722 488.351 605.535 489.008 606.173 489.737C606.824 490.453 607.306 491.267 607.619 492.179C607.944 493.09 608.107 494.125 608.107 495.284C608.107 496.456 607.905 497.524 607.501 498.487C607.111 499.438 606.538 500.252 605.783 500.929C605.028 501.606 604.116 502.133 603.048 502.511C601.981 502.875 600.783 503.058 599.455 503.058C598.231 503.058 597.052 502.875 595.919 502.511C594.8 502.146 593.797 501.593 592.912 500.851C592.026 500.095 591.323 499.151 590.802 498.019C590.294 496.886 590.041 495.558 590.041 494.034H594.787C594.787 494.946 594.897 495.727 595.119 496.378C595.34 497.016 595.659 497.543 596.076 497.96C596.505 498.364 597.007 498.663 597.58 498.858C598.166 499.041 598.817 499.132 599.533 499.132C600.418 499.132 601.141 498.976 601.701 498.663C602.274 498.338 602.697 497.888 602.97 497.315C603.244 496.743 603.38 496.078 603.38 495.323ZM628.205 498.702V502.667H615.861V498.702H628.205ZM617.111 474.229V502.667H612.365V474.229H617.111ZM626.544 486.065V489.972H615.861V486.065H626.544ZM628.087 474.229V478.214H615.861V474.229H628.087ZM632.15 474.229H640.744C642.619 474.229 644.207 474.555 645.509 475.206C646.811 475.857 647.801 476.821 648.478 478.097C649.168 479.36 649.513 480.929 649.513 482.804C649.513 484.223 649.298 485.473 648.869 486.554C648.452 487.634 647.847 488.546 647.052 489.288C646.258 490.017 645.301 490.584 644.181 490.987L642.794 491.749H635.529L635.509 487.765H640.626C641.551 487.765 642.319 487.563 642.931 487.159C643.543 486.756 643.999 486.196 644.298 485.479C644.611 484.763 644.767 483.95 644.767 483.038C644.767 482.062 644.63 481.215 644.357 480.499C644.083 479.77 643.654 479.21 643.068 478.819C642.482 478.416 641.707 478.214 640.744 478.214H636.896V502.667H632.15V474.229ZM645.392 502.667L639.982 489.894L644.923 489.874L650.47 502.413V502.667H645.392ZM661.818 497.394L667.873 474.229H673.009L664.513 502.667H660.998L661.818 497.394ZM656.525 474.229L662.541 497.394L663.419 502.667H659.904L651.408 474.229H656.525ZM681.212 474.229V502.667H676.466V474.229H681.212ZM700.568 493.39H705.294C705.203 495.447 704.787 497.198 704.044 498.644C703.302 500.076 702.235 501.17 700.841 501.925C699.461 502.68 697.775 503.058 695.783 503.058C694.272 503.058 692.918 502.784 691.72 502.237C690.535 501.69 689.526 500.903 688.693 499.874C687.86 498.832 687.222 497.563 686.779 496.065C686.349 494.568 686.134 492.869 686.134 490.968V485.929C686.134 484.028 686.356 482.328 686.798 480.831C687.254 479.334 687.905 478.064 688.751 477.022C689.598 475.981 690.626 475.193 691.837 474.659C693.061 474.112 694.442 473.839 695.978 473.839C697.944 473.839 699.598 474.216 700.939 474.972C702.28 475.727 703.315 476.834 704.044 478.292C704.774 479.75 705.197 481.528 705.314 483.624H700.587C700.522 482.205 700.327 481.072 700.001 480.226C699.689 479.366 699.207 478.748 698.556 478.37C697.918 477.993 697.059 477.804 695.978 477.804C695.08 477.804 694.305 477.973 693.654 478.312C693.016 478.65 692.488 479.158 692.072 479.835C691.668 480.499 691.362 481.339 691.154 482.354C690.958 483.357 690.861 484.535 690.861 485.89V490.968C690.861 492.27 690.945 493.422 691.115 494.425C691.284 495.427 691.557 496.28 691.935 496.983C692.313 497.674 692.814 498.201 693.439 498.565C694.064 498.917 694.845 499.093 695.783 499.093C696.903 499.093 697.794 498.917 698.458 498.565C699.136 498.214 699.637 497.621 699.962 496.788C700.288 495.955 700.49 494.822 700.568 493.39ZM725.314 498.702V502.667H712.97V498.702H725.314ZM714.22 474.229V502.667H709.474V474.229H714.22ZM723.654 486.065V489.972H712.97V486.065H723.654ZM725.197 474.229V478.214H712.97V474.229H725.197Z" fill="#152539"/>
</g>
<g opacity="0.4">
<path d="M759.2 444.186C759.2 443.217 759.086 442.363 758.858 441.622C758.63 440.863 758.231 440.179 757.661 439.571C757.092 438.964 756.294 438.385 755.269 437.834C754.243 437.283 752.943 436.723 751.367 436.153C749.658 435.546 748.11 434.872 746.724 434.131C745.338 433.372 744.151 432.508 743.164 431.539C742.195 430.571 741.445 429.46 740.913 428.207C740.382 426.953 740.116 425.52 740.116 423.906C740.116 422.292 740.391 420.801 740.942 419.434C741.512 418.067 742.309 416.88 743.334 415.874C744.379 414.848 745.632 414.051 747.094 413.481C748.556 412.911 750.189 412.626 751.993 412.626C754.69 412.626 756.959 413.225 758.801 414.421C760.662 415.598 762.067 417.146 763.016 419.064C763.966 420.963 764.44 422.994 764.44 425.159H759.2C759.2 423.602 758.943 422.225 758.431 421.029C757.937 419.814 757.158 418.864 756.095 418.181C755.051 417.478 753.683 417.127 751.993 417.127C750.474 417.127 749.221 417.421 748.234 418.01C747.265 418.598 746.544 419.396 746.069 420.402C745.613 421.409 745.385 422.558 745.385 423.849C745.385 424.722 745.537 425.52 745.841 426.241C746.145 426.944 746.61 427.599 747.237 428.207C747.882 428.814 748.68 429.375 749.629 429.887C750.598 430.4 751.737 430.894 753.047 431.368C755.079 432.033 756.816 432.773 758.26 433.59C759.703 434.407 760.88 435.327 761.792 436.353C762.703 437.359 763.368 438.508 763.785 439.799C764.222 441.072 764.44 442.515 764.44 444.129C764.44 445.819 764.156 447.347 763.586 448.715C763.035 450.082 762.228 451.25 761.165 452.218C760.102 453.186 758.82 453.936 757.32 454.468C755.82 454.981 754.13 455.237 752.25 455.237C750.617 455.237 749.012 454.971 747.436 454.44C745.879 453.908 744.464 453.11 743.192 452.047C741.92 450.984 740.904 449.673 740.144 448.116C739.385 446.54 739.005 444.717 739.005 442.648H744.246C744.246 444.072 744.455 445.297 744.873 446.322C745.29 447.328 745.869 448.164 746.61 448.828C747.351 449.493 748.196 449.987 749.145 450.31C750.113 450.613 751.148 450.765 752.25 450.765C753.769 450.765 755.041 450.499 756.066 449.968C757.111 449.436 757.889 448.677 758.402 447.689C758.934 446.702 759.2 445.534 759.2 444.186ZM798.278 430.343V437.549C798.278 440.473 797.956 443.046 797.31 445.268C796.683 447.471 795.762 449.313 794.547 450.794C793.332 452.275 791.87 453.386 790.161 454.126C788.452 454.867 786.524 455.237 784.379 455.237C782.309 455.237 780.419 454.867 778.71 454.126C777.001 453.386 775.53 452.275 774.296 450.794C773.061 449.313 772.102 447.471 771.419 445.268C770.754 443.046 770.422 440.473 770.422 437.549V430.343C770.422 427.419 770.754 424.855 771.419 422.653C772.083 420.431 773.033 418.579 774.267 417.098C775.501 415.617 776.973 414.506 778.682 413.766C780.391 413.006 782.28 412.626 784.35 412.626C786.496 412.626 788.423 413.006 790.132 413.766C791.86 414.506 793.322 415.617 794.519 417.098C795.734 418.579 796.664 420.431 797.31 422.653C797.956 424.855 798.278 427.419 798.278 430.343ZM793.094 437.549V430.286C793.094 428.007 792.905 426.051 792.525 424.418C792.145 422.766 791.585 421.418 790.844 420.374C790.104 419.329 789.192 418.56 788.11 418.067C787.028 417.554 785.774 417.298 784.35 417.298C783.002 417.298 781.787 417.554 780.704 418.067C779.641 418.56 778.729 419.329 777.97 420.374C777.21 421.418 776.622 422.766 776.204 424.418C775.805 426.051 775.606 428.007 775.606 430.286V437.549C775.606 439.847 775.805 441.822 776.204 443.474C776.622 445.107 777.21 446.455 777.97 447.518C778.748 448.563 779.679 449.341 780.761 449.854C781.844 450.348 783.049 450.594 784.379 450.594C785.803 450.594 787.056 450.348 788.138 449.854C789.24 449.341 790.151 448.563 790.873 447.518C791.613 446.455 792.164 445.107 792.525 443.474C792.905 441.822 793.094 439.847 793.094 437.549ZM827.901 450.196V454.667H810.697V450.196H827.901ZM811.637 413.196V454.667H806.396V413.196H811.637ZM852.111 413.196H857.352V442.391C857.352 445.505 856.754 448.002 855.558 449.882C854.361 451.762 852.785 453.129 850.83 453.984C848.893 454.819 846.804 455.237 844.563 455.237C842.171 455.237 840.016 454.819 838.098 453.984C836.18 453.129 834.651 451.762 833.512 449.882C832.392 448.002 831.831 445.505 831.831 442.391V413.196H837.044V442.391C837.044 444.556 837.348 446.246 837.955 447.461C838.582 448.677 839.455 449.531 840.576 450.025C841.715 450.518 843.044 450.765 844.563 450.765C846.101 450.765 847.431 450.518 848.551 450.025C849.69 449.531 850.564 448.677 851.171 447.461C851.798 446.246 852.111 444.556 852.111 442.391V413.196ZM878.686 413.196V454.667H873.502V413.196H878.686ZM889.595 413.196V417.696H862.622V413.196H889.595ZM901.188 413.196V454.667H895.947V413.196H901.188ZM937.276 430.343V437.549C937.276 440.473 936.953 443.046 936.307 445.268C935.681 447.471 934.76 449.313 933.544 450.794C932.329 452.275 930.867 453.386 929.158 454.126C927.449 454.867 925.522 455.237 923.376 455.237C921.306 455.237 919.417 454.867 917.708 454.126C915.999 453.386 914.527 452.275 913.293 450.794C912.059 449.313 911.1 447.471 910.416 445.268C909.752 443.046 909.419 440.473 909.419 437.549V430.343C909.419 427.419 909.752 424.855 910.416 422.653C911.081 420.431 912.03 418.579 913.264 417.098C914.499 415.617 915.97 414.506 917.679 413.766C919.388 413.006 921.278 412.626 923.347 412.626C925.493 412.626 927.421 413.006 929.13 413.766C930.858 414.506 932.32 415.617 933.516 417.098C934.731 418.579 935.662 420.431 936.307 422.653C936.953 424.855 937.276 427.419 937.276 430.343ZM932.092 437.549V430.286C932.092 428.007 931.902 426.051 931.522 424.418C931.142 422.766 930.582 421.418 929.842 420.374C929.101 419.329 928.19 418.56 927.107 418.067C926.025 417.554 924.772 417.298 923.347 417.298C921.999 417.298 920.784 417.554 919.702 418.067C918.638 418.56 917.727 419.329 916.967 420.374C916.208 421.418 915.619 422.766 915.201 424.418C914.803 426.051 914.603 428.007 914.603 430.286V437.549C914.603 439.847 914.803 441.822 915.201 443.474C915.619 445.107 916.208 446.455 916.967 447.518C917.746 448.563 918.676 449.341 919.759 449.854C920.841 450.348 922.047 450.594 923.376 450.594C924.8 450.594 926.053 450.348 927.136 449.854C928.237 449.341 929.149 448.563 929.87 447.518C930.611 446.455 931.161 445.107 931.522 443.474C931.902 441.822 932.092 439.847 932.092 437.549ZM972.509 413.196V454.667H967.24L950.634 422.681V454.667H945.393V413.196H950.634L967.325 445.268V413.196H972.509Z" fill="#152539"/>
</g>
<path d="M528.527 581.498C528.704 581.646 528.967 581.623 529.114 581.446C529.262 581.27 529.239 581.007 529.063 580.859L528.795 581.179L528.527 581.498ZM437.258 504.097C437.029 504.117 436.86 504.319 436.88 504.549L437.209 508.284C437.23 508.513 437.432 508.683 437.661 508.663C437.89 508.642 438.06 508.44 438.039 508.211L437.747 504.89L441.067 504.598C441.296 504.577 441.466 504.375 441.445 504.146C441.425 503.917 441.223 503.747 440.994 503.767L437.258 504.097ZM528.795 581.179L529.063 580.859L437.563 504.193L437.295 504.512L437.027 504.831L528.527 581.498L528.795 581.179Z" fill="#152539"/>
<path d="M544.464 587.334C544.868 587.334 545.219 587.4 545.517 587.534C545.819 587.667 546.05 587.858 546.21 588.107C546.37 588.356 546.45 588.652 546.45 588.994C546.45 589.332 546.37 589.627 546.21 589.88C546.05 590.129 545.819 590.32 545.517 590.454C545.219 590.587 544.868 590.654 544.464 590.654H543.41V592H542.544V587.334H544.464ZM544.424 589.92C544.801 589.92 545.088 589.84 545.284 589.68C545.479 589.52 545.577 589.292 545.577 588.994C545.577 588.696 545.479 588.467 545.284 588.307C545.088 588.147 544.801 588.067 544.424 588.067H543.41V589.92H544.424ZM551.369 592L550.416 590.634C550.376 590.638 550.316 590.64 550.236 590.64H549.182V592H548.316V587.334H550.236C550.64 587.334 550.991 587.4 551.289 587.534C551.591 587.667 551.822 587.858 551.982 588.107C552.142 588.356 552.222 588.652 552.222 588.994C552.222 589.345 552.136 589.647 551.962 589.9C551.794 590.154 551.549 590.343 551.229 590.467L552.302 592H551.369ZM551.349 588.994C551.349 588.696 551.251 588.467 551.056 588.307C550.86 588.147 550.574 588.067 550.196 588.067H549.182V589.927H550.196C550.574 589.927 550.86 589.847 551.056 589.687C551.251 589.523 551.349 589.292 551.349 588.994ZM556.372 592.067C555.897 592.067 555.468 591.965 555.085 591.76C554.703 591.552 554.403 591.265 554.185 590.9C553.968 590.532 553.859 590.12 553.859 589.667C553.859 589.214 553.968 588.805 554.185 588.44C554.403 588.072 554.703 587.785 555.085 587.58C555.468 587.372 555.897 587.267 556.372 587.267C556.848 587.267 557.277 587.372 557.659 587.58C558.041 587.785 558.341 588.069 558.559 588.434C558.777 588.798 558.885 589.209 558.885 589.667C558.885 590.125 558.777 590.536 558.559 590.9C558.341 591.265 558.041 591.552 557.659 591.76C557.277 591.965 556.848 592.067 556.372 592.067ZM556.372 591.307C556.683 591.307 556.963 591.238 557.212 591.1C557.461 590.958 557.657 590.763 557.799 590.514C557.941 590.26 558.012 589.978 558.012 589.667C558.012 589.356 557.941 589.076 557.799 588.827C557.657 588.574 557.461 588.378 557.212 588.24C556.963 588.098 556.683 588.027 556.372 588.027C556.061 588.027 555.781 588.098 555.532 588.24C555.283 588.378 555.088 588.574 554.945 588.827C554.803 589.076 554.732 589.356 554.732 589.667C554.732 589.978 554.803 590.26 554.945 590.514C555.088 590.763 555.283 590.958 555.532 591.1C555.781 591.238 556.061 591.307 556.372 591.307ZM560.804 587.334H562.844C563.342 587.334 563.784 587.432 564.171 587.627C564.557 587.818 564.857 588.092 565.071 588.447C565.284 588.798 565.391 589.205 565.391 589.667C565.391 590.129 565.284 590.538 565.071 590.894C564.857 591.245 564.557 591.518 564.171 591.714C563.784 591.905 563.342 592 562.844 592H560.804V587.334ZM562.804 591.267C563.146 591.267 563.446 591.203 563.704 591.074C563.966 590.94 564.166 590.754 564.304 590.514C564.446 590.269 564.517 589.987 564.517 589.667C564.517 589.347 564.446 589.067 564.304 588.827C564.166 588.583 563.966 588.396 563.704 588.267C563.446 588.134 563.146 588.067 562.804 588.067H561.671V591.267H562.804ZM569.319 592.067C568.674 592.067 568.172 591.887 567.812 591.527C567.452 591.163 567.272 590.643 567.272 589.967V587.334H568.139V589.934C568.139 590.849 568.534 591.307 569.325 591.307C570.112 591.307 570.505 590.849 570.505 589.934V587.334H571.359V589.967C571.359 590.643 571.179 591.163 570.819 591.527C570.463 591.887 569.963 592.067 569.319 592.067ZM575.732 592.067C575.261 592.067 574.835 591.965 574.452 591.76C574.075 591.552 573.777 591.265 573.559 590.9C573.346 590.536 573.239 590.125 573.239 589.667C573.239 589.209 573.348 588.798 573.566 588.434C573.783 588.069 574.081 587.785 574.459 587.58C574.841 587.372 575.268 587.267 575.739 587.267C576.121 587.267 576.47 587.334 576.786 587.467C577.101 587.6 577.368 587.794 577.586 588.047L577.026 588.574C576.688 588.209 576.272 588.027 575.779 588.027C575.459 588.027 575.172 588.098 574.919 588.24C574.666 588.378 574.468 588.572 574.326 588.82C574.183 589.069 574.112 589.352 574.112 589.667C574.112 589.983 574.183 590.265 574.326 590.514C574.468 590.763 574.666 590.958 574.919 591.1C575.172 591.238 575.459 591.307 575.779 591.307C576.272 591.307 576.688 591.123 577.026 590.754L577.586 591.287C577.368 591.54 577.099 591.734 576.779 591.867C576.463 592 576.115 592.067 575.732 592.067ZM580.311 588.067H578.764V587.334H582.724V588.067H581.177V592H580.311V588.067Z" fill="#152539"/>
<path d="M375.443 238.867C375.571 238.676 375.519 238.417 375.328 238.29C375.136 238.162 374.877 238.214 374.75 238.405L375.097 238.636L375.443 238.867ZM321.355 318.718C321.4 318.944 321.619 319.09 321.845 319.045L325.522 318.309C325.748 318.264 325.894 318.045 325.849 317.819C325.804 317.593 325.584 317.447 325.359 317.492L322.09 318.146L321.436 314.877C321.391 314.652 321.172 314.505 320.946 314.55C320.72 314.596 320.574 314.815 320.619 315.041L321.355 318.718ZM375.097 238.636L374.75 238.405L321.416 318.405L321.763 318.636L322.11 318.867L375.443 238.867L375.097 238.636Z" fill="#152539"/>
<path d="M388.127 228H388.994V231.934H391.434V232.667H388.127V228ZM395.213 232.734C394.738 232.734 394.309 232.631 393.927 232.427C393.545 232.218 393.245 231.931 393.027 231.567C392.809 231.198 392.7 230.787 392.7 230.334C392.7 229.88 392.809 229.471 393.027 229.107C393.245 228.738 393.545 228.451 393.927 228.247C394.309 228.038 394.738 227.934 395.213 227.934C395.689 227.934 396.118 228.038 396.5 228.247C396.882 228.451 397.182 228.736 397.4 229.1C397.618 229.465 397.727 229.876 397.727 230.334C397.727 230.791 397.618 231.203 397.4 231.567C397.182 231.931 396.882 232.218 396.5 232.427C396.118 232.631 395.689 232.734 395.213 232.734ZM395.213 231.974C395.525 231.974 395.805 231.905 396.053 231.767C396.302 231.625 396.498 231.429 396.64 231.18C396.782 230.927 396.853 230.645 396.853 230.334C396.853 230.023 396.782 229.743 396.64 229.494C396.498 229.24 396.302 229.045 396.053 228.907C395.805 228.765 395.525 228.694 395.213 228.694C394.902 228.694 394.622 228.765 394.373 228.907C394.125 229.045 393.929 229.24 393.787 229.494C393.645 229.743 393.573 230.023 393.573 230.334C393.573 230.645 393.645 230.927 393.787 231.18C393.929 231.429 394.125 231.625 394.373 231.767C394.622 231.905 394.902 231.974 395.213 231.974ZM402.832 230.28H403.652V232.14C403.412 232.331 403.132 232.478 402.812 232.58C402.492 232.683 402.163 232.734 401.825 232.734C401.35 232.734 400.921 232.631 400.539 232.427C400.156 232.218 399.856 231.931 399.639 231.567C399.421 231.203 399.312 230.791 399.312 230.334C399.312 229.876 399.421 229.465 399.639 229.1C399.856 228.736 400.156 228.451 400.539 228.247C400.925 228.038 401.359 227.934 401.839 227.934C402.23 227.934 402.585 227.998 402.905 228.127C403.225 228.256 403.494 228.445 403.712 228.694L403.165 229.227C402.81 228.871 402.381 228.694 401.879 228.694C401.55 228.694 401.256 228.763 400.999 228.9C400.745 229.038 400.545 229.231 400.399 229.48C400.256 229.729 400.185 230.014 400.185 230.334C400.185 230.645 400.256 230.925 400.399 231.174C400.545 231.423 400.745 231.618 400.999 231.76C401.256 231.903 401.548 231.974 401.872 231.974C402.236 231.974 402.556 231.894 402.832 231.734V230.28ZM407.975 232.734C407.5 232.734 407.071 232.631 406.688 232.427C406.306 232.218 406.006 231.931 405.788 231.567C405.571 231.198 405.462 230.787 405.462 230.334C405.462 229.88 405.571 229.471 405.788 229.107C406.006 228.738 406.306 228.451 406.688 228.247C407.071 228.038 407.5 227.934 407.975 227.934C408.451 227.934 408.88 228.038 409.262 228.247C409.644 228.451 409.944 228.736 410.162 229.1C410.38 229.465 410.488 229.876 410.488 230.334C410.488 230.791 410.38 231.203 410.162 231.567C409.944 231.931 409.644 232.218 409.262 232.427C408.88 232.631 408.451 232.734 407.975 232.734ZM407.975 231.974C408.286 231.974 408.566 231.905 408.815 231.767C409.064 231.625 409.26 231.429 409.402 231.18C409.544 230.927 409.615 230.645 409.615 230.334C409.615 230.023 409.544 229.743 409.402 229.494C409.26 229.24 409.064 229.045 408.815 228.907C408.566 228.765 408.286 228.694 407.975 228.694C407.664 228.694 407.384 228.765 407.135 228.907C406.886 229.045 406.691 229.24 406.548 229.494C406.406 229.743 406.335 230.023 406.335 230.334C406.335 230.645 406.406 230.927 406.548 231.18C406.691 231.429 406.886 231.625 407.135 231.767C407.384 231.905 407.664 231.974 407.975 231.974ZM416.694 232.667L416.687 229.574L415.154 232.134H414.767L413.234 229.614V232.667H412.407V228H413.12L414.974 231.094L416.794 228H417.507L417.514 232.667H416.694ZM422.801 231.587H420.468L420.008 232.667H419.114L421.214 228H422.068L424.174 232.667H423.268L422.801 231.587ZM422.514 230.907L421.634 228.867L420.761 230.907H422.514ZM428.821 232.667L427.868 231.3C427.828 231.305 427.768 231.307 427.688 231.307H426.634V232.667H425.768V228H427.688C428.092 228 428.443 228.067 428.741 228.2C429.043 228.334 429.274 228.525 429.434 228.774C429.594 229.023 429.674 229.318 429.674 229.66C429.674 230.011 429.588 230.314 429.414 230.567C429.246 230.82 429.001 231.009 428.681 231.134L429.754 232.667H428.821ZM428.801 229.66C428.801 229.363 428.703 229.134 428.508 228.974C428.312 228.814 428.026 228.734 427.648 228.734H426.634V230.594H427.648C428.026 230.594 428.312 230.514 428.508 230.354C428.703 230.189 428.801 229.958 428.801 229.66ZM433.251 230.714L432.511 231.474V232.667H431.644V228H432.511V230.394L434.817 228H435.791L433.831 230.087L435.911 232.667H434.897L433.251 230.714Z" fill="#152539"/>
<path d="M554.977 238.892C555.101 238.698 555.044 238.44 554.85 238.316C554.656 238.192 554.398 238.249 554.274 238.443L554.625 238.667L554.977 238.892ZM504.219 317.091C504.268 317.315 504.491 317.457 504.715 317.408L508.377 316.599C508.602 316.55 508.744 316.327 508.694 316.103C508.645 315.878 508.422 315.736 508.197 315.785L504.943 316.504L504.224 313.249C504.174 313.024 503.952 312.883 503.727 312.932C503.502 312.982 503.361 313.204 503.41 313.429L504.219 317.091ZM554.625 238.667L554.274 238.443L504.274 316.777L504.625 317.001L504.977 317.225L554.977 238.892L554.625 238.667Z" fill="#152539"/>
<path d="M575.781 228L574.234 232.667H573.314L572.161 229.214L570.987 232.667H570.061L568.514 228H569.414L570.574 231.547L571.781 228H572.581L573.761 231.567L574.954 228H575.781ZM579.615 232.734C579.139 232.734 578.71 232.631 578.328 232.427C577.946 232.218 577.646 231.931 577.428 231.567C577.21 231.198 577.101 230.787 577.101 230.334C577.101 229.88 577.21 229.471 577.428 229.107C577.646 228.738 577.946 228.451 578.328 228.247C578.71 228.038 579.139 227.934 579.615 227.934C580.09 227.934 580.519 228.038 580.901 228.247C581.283 228.451 581.583 228.736 581.801 229.1C582.019 229.465 582.128 229.876 582.128 230.334C582.128 230.791 582.019 231.203 581.801 231.567C581.583 231.931 581.283 232.218 580.901 232.427C580.519 232.631 580.09 232.734 579.615 232.734ZM579.615 231.974C579.926 231.974 580.206 231.905 580.455 231.767C580.703 231.625 580.899 231.429 581.041 231.18C581.183 230.927 581.255 230.645 581.255 230.334C581.255 230.023 581.183 229.743 581.041 229.494C580.899 229.24 580.703 229.045 580.455 228.907C580.206 228.765 579.926 228.694 579.615 228.694C579.303 228.694 579.023 228.765 578.775 228.907C578.526 229.045 578.33 229.24 578.188 229.494C578.046 229.743 577.975 230.023 577.975 230.334C577.975 230.645 578.046 230.927 578.188 231.18C578.33 231.429 578.526 231.625 578.775 231.767C579.023 231.905 579.303 231.974 579.615 231.974ZM587.1 232.667L586.147 231.3C586.107 231.305 586.047 231.307 585.967 231.307H584.913V232.667H584.047V228H585.967C586.371 228 586.722 228.067 587.02 228.2C587.322 228.334 587.553 228.525 587.713 228.774C587.873 229.023 587.953 229.318 587.953 229.66C587.953 230.011 587.867 230.314 587.693 230.567C587.524 230.82 587.28 231.009 586.96 231.134L588.033 232.667H587.1ZM587.08 229.66C587.08 229.363 586.982 229.134 586.787 228.974C586.591 228.814 586.304 228.734 585.927 228.734H584.913V230.594H585.927C586.304 230.594 586.591 230.514 586.787 230.354C586.982 230.189 587.08 229.958 587.08 229.66ZM589.923 228H591.963C592.461 228 592.903 228.098 593.29 228.294C593.676 228.485 593.976 228.758 594.19 229.114C594.403 229.465 594.51 229.871 594.51 230.334C594.51 230.796 594.403 231.205 594.19 231.56C593.976 231.911 593.676 232.185 593.29 232.38C592.903 232.571 592.461 232.667 591.963 232.667H589.923V228ZM591.923 231.934C592.265 231.934 592.565 231.869 592.823 231.74C593.085 231.607 593.285 231.42 593.423 231.18C593.565 230.936 593.636 230.654 593.636 230.334C593.636 230.014 593.565 229.734 593.423 229.494C593.285 229.249 593.085 229.063 592.823 228.934C592.565 228.8 592.265 228.734 591.923 228.734H590.79V231.934H591.923ZM600.717 232.667L600.711 229.574L599.177 232.134H598.791L597.257 229.614V232.667H596.431V228H597.144L598.997 231.094L600.817 228H601.531L601.537 232.667H600.717ZM606.825 231.587H604.491L604.031 232.667H603.138L605.238 228H606.091L608.198 232.667H607.291L606.825 231.587ZM606.538 230.907L605.658 228.867L604.785 230.907H606.538ZM612.845 232.667L611.891 231.3C611.851 231.305 611.791 231.307 611.711 231.307H610.658V232.667H609.791V228H611.711C612.116 228 612.467 228.067 612.765 228.2C613.067 228.334 613.298 228.525 613.458 228.774C613.618 229.023 613.698 229.318 613.698 229.66C613.698 230.011 613.611 230.314 613.438 230.567C613.269 230.82 613.025 231.009 612.705 231.134L613.778 232.667H612.845ZM612.825 229.66C612.825 229.363 612.727 229.134 612.531 228.974C612.336 228.814 612.049 228.734 611.671 228.734H610.658V230.594H611.671C612.049 230.594 612.336 230.514 612.531 230.354C612.727 230.189 612.825 229.958 612.825 229.66ZM617.274 230.714L616.534 231.474V232.667H615.668V228H616.534V230.394L618.841 228H619.814L617.854 230.087L619.934 232.667H618.921L617.274 230.714Z" fill="#152539"/>
<path d="M860.627 588.001H861.493V591.934H863.933V592.667H860.627V588.001ZM868.677 591.587H866.343L865.883 592.667H864.99L867.09 588.001H867.943L870.05 592.667H869.143L868.677 591.587ZM868.39 590.907L867.51 588.867L866.637 590.907H868.39ZM874.95 590.241C875.208 590.325 875.412 590.467 875.564 590.667C875.715 590.863 875.79 591.107 875.79 591.401C875.79 591.805 875.635 592.119 875.324 592.341C875.012 592.559 874.559 592.667 873.964 592.667H871.644V588.001H873.83C874.381 588.001 874.806 588.11 875.104 588.327C875.401 588.541 875.55 588.836 875.55 589.214C875.55 589.445 875.497 589.65 875.39 589.827C875.284 590.005 875.137 590.143 874.95 590.241ZM872.51 588.681V589.967H873.737C874.039 589.967 874.27 589.914 874.43 589.807C874.595 589.696 874.677 589.536 874.677 589.327C874.677 589.114 874.595 588.954 874.43 588.847C874.27 588.736 874.039 588.681 873.737 588.681H872.51ZM873.91 591.987C874.581 591.987 874.917 591.763 874.917 591.314C874.917 590.865 874.581 590.641 873.91 590.641H872.51V591.987H873.91ZM881.215 591.941V592.667H877.715V588.001H881.122V588.727H878.582V589.941H880.835V590.654H878.582V591.941H881.215ZM883.181 588.001H884.048V591.934H886.488V592.667H883.181V588.001ZM893.195 592.734C892.719 592.734 892.29 592.632 891.908 592.427C891.526 592.219 891.226 591.932 891.008 591.567C890.79 591.199 890.681 590.787 890.681 590.334C890.681 589.881 890.79 589.472 891.008 589.107C891.226 588.739 891.526 588.452 891.908 588.247C892.29 588.039 892.719 587.934 893.195 587.934C893.67 587.934 894.099 588.039 894.481 588.247C894.864 588.452 895.164 588.736 895.381 589.101C895.599 589.465 895.708 589.876 895.708 590.334C895.708 590.792 895.599 591.203 895.381 591.567C895.164 591.932 894.864 592.219 894.481 592.427C894.099 592.632 893.67 592.734 893.195 592.734ZM893.195 591.974C893.506 591.974 893.786 591.905 894.035 591.767C894.284 591.625 894.479 591.43 894.621 591.181C894.764 590.927 894.835 590.645 894.835 590.334C894.835 590.023 894.764 589.743 894.621 589.494C894.479 589.241 894.284 589.045 894.035 588.907C893.786 588.765 893.506 588.694 893.195 588.694C892.884 588.694 892.604 588.765 892.355 588.907C892.106 589.045 891.91 589.241 891.768 589.494C891.626 589.743 891.555 590.023 891.555 590.334C891.555 590.645 891.626 590.927 891.768 591.181C891.91 591.43 892.106 591.625 892.355 591.767C892.604 591.905 892.884 591.974 893.195 591.974ZM899.547 588.001C899.951 588.001 900.302 588.067 900.6 588.201C900.902 588.334 901.133 588.525 901.293 588.774C901.453 589.023 901.533 589.319 901.533 589.661C901.533 589.999 901.453 590.294 901.293 590.547C901.133 590.796 900.902 590.987 900.6 591.121C900.302 591.254 899.951 591.321 899.547 591.321H898.493V592.667H897.627V588.001H899.547ZM899.507 590.587C899.884 590.587 900.171 590.507 900.367 590.347C900.562 590.187 900.66 589.959 900.66 589.661C900.66 589.363 900.562 589.134 900.367 588.974C900.171 588.814 899.884 588.734 899.507 588.734H898.493V590.587H899.507ZM904.209 588.734H902.662V588.001H906.622V588.734H905.075V592.667H904.209V588.734ZM908.272 588.001H909.139V592.667H908.272V588.001ZM913.581 592.734C913.106 592.734 912.677 592.632 912.295 592.427C911.913 592.219 911.613 591.932 911.395 591.567C911.177 591.199 911.068 590.787 911.068 590.334C911.068 589.881 911.177 589.472 911.395 589.107C911.613 588.739 911.913 588.452 912.295 588.247C912.677 588.039 913.106 587.934 913.581 587.934C914.057 587.934 914.486 588.039 914.868 588.247C915.25 588.452 915.55 588.736 915.768 589.101C915.986 589.465 916.095 589.876 916.095 590.334C916.095 590.792 915.986 591.203 915.768 591.567C915.55 591.932 915.25 592.219 914.868 592.427C914.486 592.632 914.057 592.734 913.581 592.734ZM913.581 591.974C913.893 591.974 914.173 591.905 914.421 591.767C914.67 591.625 914.866 591.43 915.008 591.181C915.15 590.927 915.221 590.645 915.221 590.334C915.221 590.023 915.15 589.743 915.008 589.494C914.866 589.241 914.67 589.045 914.421 588.907C914.173 588.765 913.893 588.694 913.581 588.694C913.27 588.694 912.99 588.765 912.741 588.907C912.493 589.045 912.297 589.241 912.155 589.494C912.013 589.743 911.941 590.023 911.941 590.334C911.941 590.645 912.013 590.927 912.155 591.181C912.297 591.43 912.493 591.625 912.741 591.767C912.99 591.905 913.27 591.974 913.581 591.974ZM922.16 588.001V592.667H921.447L918.873 589.507V592.667H918.013V588.001H918.727L921.3 591.161V588.001H922.16ZM925.857 592.734C925.497 592.734 925.148 592.683 924.811 592.581C924.477 592.479 924.213 592.343 924.017 592.174L924.317 591.501C924.508 591.652 924.742 591.776 925.017 591.874C925.297 591.967 925.577 592.014 925.857 592.014C926.204 592.014 926.462 591.959 926.631 591.847C926.804 591.736 926.891 591.59 926.891 591.407C926.891 591.274 926.842 591.165 926.744 591.081C926.651 590.992 926.531 590.923 926.384 590.874C926.237 590.825 926.037 590.77 925.784 590.707C925.428 590.623 925.139 590.539 924.917 590.454C924.699 590.37 924.511 590.239 924.351 590.061C924.195 589.879 924.117 589.634 924.117 589.327C924.117 589.07 924.186 588.836 924.324 588.627C924.466 588.414 924.677 588.245 924.957 588.121C925.242 587.996 925.588 587.934 925.997 587.934C926.282 587.934 926.562 587.97 926.837 588.041C927.113 588.112 927.351 588.214 927.551 588.347L927.277 589.021C927.073 588.901 926.859 588.81 926.637 588.747C926.415 588.685 926.199 588.654 925.991 588.654C925.648 588.654 925.393 588.712 925.224 588.827C925.059 588.943 924.977 589.096 924.977 589.287C924.977 589.421 925.024 589.53 925.117 589.614C925.215 589.699 925.337 589.765 925.484 589.814C925.631 589.863 925.831 589.919 926.084 589.981C926.431 590.061 926.715 590.145 926.937 590.234C927.159 590.319 927.348 590.45 927.504 590.627C927.664 590.805 927.744 591.045 927.744 591.347C927.744 591.605 927.673 591.839 927.531 592.047C927.393 592.256 927.182 592.423 926.897 592.547C926.613 592.672 926.266 592.734 925.857 592.734Z" fill="#152539"/>
<path d="M848.193 582.393C848.41 582.471 848.648 582.358 848.726 582.141C848.803 581.924 848.69 581.686 848.473 581.608L848.333 582.001L848.193 582.393ZM726.488 538.291C726.28 538.39 726.191 538.638 726.29 538.846L727.898 542.234C727.997 542.442 728.245 542.53 728.453 542.432C728.661 542.333 728.75 542.084 728.651 541.877L727.221 538.865L730.233 537.436C730.441 537.337 730.529 537.089 730.43 536.881C730.332 536.673 730.083 536.584 729.875 536.683L726.488 538.291ZM848.333 582.001L848.473 581.608L726.806 538.275L726.666 538.668L726.527 539.06L848.193 582.393L848.333 582.001Z" fill="#152539"/>
<path d="M847.992 582.24C848.124 582.429 848.384 582.474 848.572 582.342C848.761 582.21 848.806 581.95 848.674 581.762L848.333 582.001L847.992 582.24ZM793.405 503.257C793.178 503.218 792.962 503.369 792.923 503.596L792.276 507.29C792.236 507.516 792.388 507.732 792.615 507.772C792.841 507.812 793.057 507.66 793.097 507.433L793.672 504.15L796.955 504.725C797.182 504.764 797.398 504.613 797.437 504.386C797.477 504.159 797.325 503.943 797.099 503.904L793.405 503.257ZM848.333 582.001L848.674 581.762L793.674 503.428L793.333 503.668L792.992 503.907L847.992 582.24L848.333 582.001Z" fill="#152539"/>
</g>
<defs>
<clipPath id="clip0_4007_167921">
<rect width="1200" height="800" fill="white"/>
</clipPath>
</defs>
</svg>
