<svg width="1095" height="512" viewBox="0 0 1095 512" fill="none" xmlns="http://www.w3.org/2000/svg">
<g clip-path="url(#clip0_3202_46169)">
<rect width="443" height="388" transform="translate(6 70)" fill="white"/>
<g filter="url(#filter0_i_3202_46169)">
<rect width="443" height="24.0021" transform="translate(6 70)" fill="#202A42"/>
<circle cx="22.0042" cy="82.001" r="4.00103" fill="#CF3232"/>
<circle cx="34.0074" cy="82.001" r="4.00103" fill="#FFCC00"/>
<circle cx="46.0103" cy="82.001" r="4.00103" fill="#28BB5A"/>
</g>
<rect width="443" height="36" transform="translate(6 94.002)" fill="#005FBA"/>
<g clip-path="url(#clip1_3202_46169)">
<path d="M21.0103 113.709C19.6632 112.362 19.6632 110.178 21.0103 108.831L29.3032 117.124C30.6502 118.471 30.6502 120.655 29.3032 122.002L21.0103 113.709Z" fill="white"/>
<path d="M24.425 110.295C23.078 108.948 23.078 106.764 24.425 105.417L32.7179 113.709C34.0649 115.056 34.0649 117.24 32.7179 118.587L24.425 110.295Z" fill="white"/>
<path d="M27.8397 106.88C26.4926 105.533 26.4926 103.349 27.8397 102.002L36.1326 110.295C37.4796 111.642 37.4796 113.826 36.1326 115.173L27.8397 106.88Z" fill="white"/>
</g>
<path d="M48.1654 111.799C49.1472 111.799 49.9615 112.174 50.632 112.924L52.0928 111.611C51.1828 110.51 49.7699 109.924 48.0696 109.924C45.0282 109.924 42.7532 111.986 42.7532 114.869C42.7532 117.752 45.0043 119.814 48.0456 119.814C49.7459 119.814 51.1589 119.205 52.0689 118.104L50.6081 116.791C49.9615 117.541 49.1233 117.916 48.1414 117.916C46.3214 117.916 45.0043 116.65 45.0043 114.846C45.0282 113.064 46.3214 111.799 48.1654 111.799ZM56.4034 112.197C55.206 112.197 53.9847 112.502 53.1705 113.088L53.9608 114.588C54.5116 114.166 55.3258 113.908 56.1161 113.908C57.2895 113.908 57.8403 114.447 57.8403 115.361H56.1161C53.8171 115.361 52.8831 116.252 52.8831 117.564C52.8831 118.83 53.9368 119.791 55.685 119.791C56.7866 119.791 57.5769 119.439 57.984 118.76V119.674H60.0196V115.455C60.0196 113.229 58.7024 112.197 56.4034 112.197ZM57.8403 117.33C57.6008 118.01 56.9542 118.338 56.2358 118.338C55.4695 118.338 55.0145 117.986 55.0145 117.447C55.0145 116.955 55.3258 116.58 56.3555 116.58H57.8403V117.33ZM63.5399 114.494C63.5399 114.119 63.947 113.814 64.9289 113.814C65.6233 113.814 66.3418 113.955 67.0842 114.354L67.8026 112.83C67.0842 112.432 65.9347 112.197 64.9049 112.197C62.7017 112.197 61.4325 113.182 61.4325 114.564C61.4325 117.494 65.9586 116.275 65.9586 117.471C65.9586 117.869 65.5755 118.15 64.5696 118.15C63.6596 118.15 62.6299 117.869 61.9593 117.447L61.2409 118.971C61.9354 119.416 63.2286 119.768 64.4978 119.768C66.7489 119.768 68.0421 118.807 68.0421 117.424C68.066 114.518 63.5399 115.736 63.5399 114.494ZM76.7591 115.994C76.7591 113.627 75.0588 112.174 72.8556 112.174C70.5566 112.174 68.8563 113.768 68.8563 115.971C68.8563 118.15 70.5566 119.744 73.143 119.744C74.508 119.744 75.5378 119.346 76.2322 118.549L75.0827 117.33C74.5559 117.799 74.0051 118.033 73.1909 118.033C72.0414 118.033 71.2511 117.471 71.0356 116.557H76.7112C76.7351 116.393 76.7591 116.158 76.7591 115.994ZM71.0116 115.338C71.1553 114.4 71.8737 113.814 72.8795 113.814C73.8614 113.814 74.5798 114.424 74.7235 115.338H71.0116ZM83.68 109.502V113.064C83.1292 112.455 82.3629 112.174 81.4289 112.174C79.2976 112.174 77.6691 113.65 77.6691 115.971C77.6691 118.291 79.2976 119.744 81.4289 119.744C82.4347 119.744 83.225 119.439 83.7758 118.783V119.627H85.8593V109.502H83.68ZM81.8121 118.01C80.7344 118.01 79.8963 117.236 79.8963 115.971C79.8963 114.705 80.7344 113.932 81.8121 113.932C82.8897 113.932 83.7279 114.705 83.7279 115.971C83.7279 117.236 82.8897 118.01 81.8121 118.01ZM91.2236 112.197C88.8288 112.197 87.0806 113.768 87.0806 115.994C87.0806 118.197 88.8288 119.768 91.2236 119.768C93.6184 119.768 95.3426 118.197 95.3426 115.994C95.3426 113.768 93.5944 112.197 91.2236 112.197ZM91.2236 118.01C90.1459 118.01 89.3078 117.236 89.3078 115.971C89.3078 114.705 90.1459 113.932 91.2236 113.932C92.3012 113.932 93.1394 114.705 93.1394 115.971C93.1394 117.236 92.3012 118.01 91.2236 118.01ZM100.443 118.01C99.3419 118.01 98.4798 117.26 98.4798 115.971C98.4798 114.682 99.3419 113.932 100.443 113.932C101.138 113.932 101.737 114.236 102.144 114.939L103.844 114.049C103.293 112.854 102.048 112.174 100.467 112.174C98.0248 112.174 96.2766 113.744 96.2766 115.971C96.2766 118.174 98.0248 119.744 100.467 119.744C102.048 119.744 103.293 119.064 103.844 117.893L102.144 117.002C101.737 117.705 101.138 118.01 100.443 118.01Z" fill="white"/>
<g clip-path="url(#clip2_3202_46169)">
<rect width="32" height="36" transform="translate(170 94.002)" fill="#0053B9"/>
<rect x="180" y="106.002" width="12" height="12" rx="2" fill="#FFCC00"/>
<mask id="path-7-inside-1_3202_46169" fill="white">
<path d="M202 94.002H234V130.002H202V94.002Z"/>
</mask>
<path d="M234 94.002H233V130.002H234H235V94.002H234Z" fill="#0053B9" mask="url(#path-7-inside-1_3202_46169)"/>
<rect x="212" y="106.002" width="12" height="12" rx="2" fill="white"/>
</g>
<g filter="url(#filter1_d_3202_46169)">
<rect width="443" height="327.998" transform="translate(6 130.002)" fill="#202A42"/>
<mask id="path-10-inside-2_3202_46169" fill="white">
<path d="M6 130.002H46V458H6V130.002Z"/>
</mask>
<path d="M6 130.002H46V458H6V130.002Z" fill="white" fill-opacity="0.04"/>
<path d="M46 130.002H45V458H46H47V130.002H46Z" fill="#536175" mask="url(#path-10-inside-2_3202_46169)"/>
<rect opacity="0.4" x="18" y="194.002" width="16" height="16" rx="8" fill="white"/>
<rect opacity="0.4" x="18" y="226.002" width="16" height="16" rx="8" fill="white"/>
<rect opacity="0.4" x="18" y="258.002" width="16" height="16" rx="8" fill="white"/>
<rect opacity="0.4" x="18" y="290.002" width="16" height="16" rx="8" fill="white"/>
<rect x="40" y="180.002" width="12" height="12" rx="6" fill="#FFCC00"/>
<g filter="url(#filter2_d_3202_46169)">
<g clip-path="url(#clip3_3202_46169)">
<g opacity="0.1">
<rect width="379" height="24" transform="translate(58 142.002)" fill="#EEEEEE"/>
</g>
<path d="M74 182.002H166" stroke="white" stroke-opacity="0.6" stroke-width="4" stroke-linecap="round"/>
<path d="M74 198.002H306" stroke="white" stroke-opacity="0.6" stroke-width="4" stroke-linecap="round"/>
<mask id="path-20-inside-3_3202_46169" fill="white">
<path d="M58 214.002H437V234.002H58V214.002Z"/>
</mask>
<path d="M58 214.002V215.002H437V214.002V213.002H58V214.002ZM437 234.002V233.002H58V234.002V235.002H437V234.002Z" fill="white" fill-opacity="0.2" mask="url(#path-20-inside-3_3202_46169)"/>
<path d="M90 214.002L90 234.002" stroke="white" stroke-opacity="0.2"/>
<rect x="98" y="221.002" width="64" height="6" rx="2" fill="white" fill-opacity="0.2"/>
<path d="M275 214.002L275 234.002" stroke="white" stroke-opacity="0.2"/>
<rect x="283" y="221.002" width="72" height="6" rx="2" fill="white" fill-opacity="0.2"/>
<path d="M363 214.002L363 234.002" stroke="white" stroke-opacity="0.2"/>
<rect x="371" y="221.002" width="72" height="6" rx="2" fill="white" fill-opacity="0.2"/>
<g opacity="0.4">
<path d="M69.8 249.736C69.4686 249.736 69.2 249.996 69.2 250.317V250.539C69.2 250.571 69.2269 250.597 69.26 250.597H71.5462C71.9335 250.597 72.2775 250.837 72.4 251.192L72.728 252.145C72.7689 252.263 72.8835 252.343 73.0126 252.343H78.6968C79.1318 252.343 79.5045 252.644 79.5823 253.058L79.881 254.647C79.894 254.717 80 254.707 80 254.637V250.317C80 249.996 79.7314 249.736 79.4 249.736H69.8Z" fill="#F8F9FA"/>
<path d="M68.1932 251.198C68.1995 251.196 68.2062 251.195 68.213 251.195H71.4941C71.6241 251.195 71.7395 251.275 71.7806 251.394L72.1108 252.349C72.2342 252.705 72.5804 252.946 72.9703 252.946H78.6923C78.8383 252.946 78.9633 253.047 78.9894 253.185L79.999 258.538C80.0001 258.543 80.0003 258.549 79.9996 258.555C79.9628 258.842 79.7084 259.065 79.4002 259.065H79.3588C79.3332 259.068 79.307 259.07 79.2804 259.07H69.645C69.3444 259.07 69.0895 258.857 69.0471 258.57L68.0031 251.511C67.9826 251.372 68.0664 251.245 68.1932 251.198Z" fill="#F8F9FA"/>
</g>
<path d="M102 254.402H103" stroke="#15BB4C" stroke-width="4" stroke-linecap="round"/>
<path d="M135 254.402H198" stroke="white" stroke-opacity="0.2" stroke-width="4" stroke-linecap="round"/>
<path d="M230 254.402H292" stroke="#FFCC00" stroke-width="4" stroke-linecap="round"/>
<path d="M237 254.402H281" stroke="white" stroke-opacity="0.2" stroke-width="4" stroke-linecap="round"/>
<path d="M297 254.402H353" stroke="#0083F5" stroke-width="4" stroke-linecap="round"/>
<path d="M369 254.402H409" stroke="white" stroke-opacity="0.2" stroke-width="4" stroke-linecap="round"/>
<path d="M66 275.801H429" stroke="#536175"/>
<g opacity="0.4">
<path d="M69.8 292.535C69.4686 292.535 69.2 292.795 69.2 293.116V293.338C69.2 293.37 69.2269 293.396 69.26 293.396H71.5462C71.9335 293.396 72.2775 293.636 72.4 293.991L72.728 294.943C72.7689 295.062 72.8835 295.142 73.0126 295.142H78.6968C79.1318 295.142 79.5045 295.443 79.5823 295.857L79.881 297.446C79.894 297.515 80 297.506 80 297.435V293.116C80 292.795 79.7314 292.535 79.4 292.535H69.8Z" fill="#F8F9FA"/>
<path d="M68.1932 293.997C68.1995 293.995 68.2062 293.993 68.213 293.993H71.4941C71.6241 293.993 71.7395 294.074 71.7806 294.193L72.1108 295.148C72.2342 295.504 72.5804 295.745 72.9703 295.745H78.6923C78.8383 295.745 78.9633 295.845 78.9894 295.984L79.999 301.337C80.0001 301.342 80.0003 301.348 79.9996 301.353C79.9628 301.641 79.7084 301.864 79.4002 301.864H79.3588C79.3332 301.867 79.307 301.868 79.2804 301.868H69.645C69.3444 301.868 69.0895 301.655 69.0471 301.368L68.0031 294.31C67.9826 294.171 68.0664 294.044 68.1932 293.997Z" fill="#F8F9FA"/>
</g>
<path d="M102 297.201H103" stroke="white" stroke-opacity="0.2" stroke-width="4" stroke-linecap="round"/>
<path d="M135 297.201H198" stroke="#15BB4C" stroke-width="4" stroke-linecap="round"/>
<path d="M230 297.201H292" stroke="#FFCC00" stroke-width="4" stroke-linecap="round"/>
<path d="M237 297.201H281" stroke="white" stroke-opacity="0.2" stroke-width="4" stroke-linecap="round"/>
<path d="M297 297.201H353" stroke="white" stroke-opacity="0.2" stroke-width="4" stroke-linecap="round"/>
<path d="M369 297.201H409" stroke="#0083F5" stroke-width="4" stroke-linecap="round"/>
<path d="M66 318.602H429" stroke="#536175"/>
<g opacity="0.4">
<path d="M69.8 335.336C69.4686 335.336 69.2 335.596 69.2 335.916V336.139C69.2 336.171 69.2269 336.197 69.26 336.197H71.5462C71.9335 336.197 72.2775 336.437 72.4 336.792L72.728 337.744C72.7689 337.863 72.8835 337.943 73.0126 337.943H78.6968C79.1318 337.943 79.5045 338.244 79.5823 338.658L79.881 340.247C79.894 340.316 80 340.307 80 340.236V335.916C80 335.596 79.7314 335.336 79.4 335.336H69.8Z" fill="#F8F9FA"/>
<path d="M68.1932 336.798C68.1995 336.795 68.2062 336.794 68.213 336.794H71.4941C71.6241 336.794 71.7395 336.874 71.7806 336.993L72.1108 337.948C72.2342 338.305 72.5804 338.546 72.9703 338.546H78.6923C78.8383 338.546 78.9633 338.646 78.9894 338.785L79.999 344.138C80.0001 344.143 80.0003 344.149 79.9996 344.154C79.9628 344.442 79.7084 344.664 79.4002 344.664H79.3588C79.3332 344.668 79.307 344.669 79.2804 344.669H69.645C69.3444 344.669 69.0895 344.456 69.0471 344.169L68.0031 337.11C67.9826 336.972 68.0664 336.845 68.1932 336.798Z" fill="#F8F9FA"/>
</g>
<path d="M102 340.002H103" stroke="white" stroke-opacity="0.2" stroke-width="4" stroke-linecap="round"/>
<path d="M135 340.002H198" stroke="#15BB4C" stroke-width="4" stroke-linecap="round"/>
<path d="M230 340.002H292" stroke="#FFCC00" stroke-width="4" stroke-linecap="round"/>
<path d="M237 340.002H281" stroke="#0083F5" stroke-width="4" stroke-linecap="round"/>
<path d="M297 340.002H353" stroke="#0083F5" stroke-width="4" stroke-linecap="round"/>
<path d="M369 340.002H409" stroke="white" stroke-opacity="0.2" stroke-width="4" stroke-linecap="round"/>
<path d="M66 361.4H429" stroke="#536175"/>
<g opacity="0.4">
<path d="M69.8 378.135C69.4686 378.135 69.2 378.395 69.2 378.715V378.938C69.2 378.97 69.2269 378.996 69.26 378.996H71.5462C71.9335 378.996 72.2775 379.235 72.4 379.591L72.728 380.543C72.7689 380.662 72.8835 380.741 73.0126 380.741H78.6968C79.1318 380.741 79.5045 381.042 79.5823 381.456L79.881 383.045C79.894 383.115 80 383.106 80 383.035V378.715C80 378.395 79.7314 378.135 79.4 378.135H69.8Z" fill="#F8F9FA"/>
<path d="M68.1932 379.596C68.1995 379.594 68.2062 379.593 68.213 379.593H71.4941C71.6241 379.593 71.7395 379.673 71.7806 379.792L72.1108 380.747C72.2342 381.104 72.5804 381.344 72.9703 381.344H78.6923C78.8383 381.344 78.9633 381.445 78.9894 381.583L79.999 386.936C80.0001 386.942 80.0003 386.948 79.9996 386.953C79.9628 387.241 79.7084 387.463 79.4002 387.463H79.3588C79.3332 387.466 79.307 387.468 79.2804 387.468H69.645C69.3444 387.468 69.0895 387.255 69.0471 386.968L68.0031 379.909C67.9826 379.771 68.0664 379.644 68.1932 379.596Z" fill="#F8F9FA"/>
</g>
<path d="M102 382.801H103" stroke="#15BB4C" stroke-width="4" stroke-linecap="round"/>
<path d="M135 382.801H198" stroke="white" stroke-opacity="0.2" stroke-width="4" stroke-linecap="round"/>
<path d="M230 382.801H292" stroke="#FFCC00" stroke-width="4" stroke-linecap="round"/>
<path d="M237 382.801H281" stroke="white" stroke-opacity="0.2" stroke-width="4" stroke-linecap="round"/>
<path d="M297 382.801H353" stroke="#0083F5" stroke-width="4" stroke-linecap="round"/>
<path d="M369 382.801H409" stroke="white" stroke-opacity="0.2" stroke-width="4" stroke-linecap="round"/>
<path d="M66 404.201H429" stroke="#536175"/>
<g opacity="0.4">
<path d="M69.8 420.936C69.4686 420.936 69.2 421.195 69.2 421.516V421.738C69.2 421.77 69.2269 421.796 69.26 421.796H71.5462C71.9335 421.796 72.2775 422.036 72.4 422.392L72.728 423.344C72.7689 423.462 72.8835 423.542 73.0126 423.542H78.6968C79.1318 423.542 79.5045 423.843 79.5823 424.257L79.881 425.846C79.894 425.916 80 425.907 80 425.836V421.516C80 421.195 79.7314 420.936 79.4 420.936H69.8Z" fill="#F8F9FA"/>
<path d="M68.1932 422.397C68.1995 422.395 68.2062 422.394 68.213 422.394H71.4941C71.6241 422.394 71.7395 422.474 71.7806 422.593L72.1108 423.548C72.2342 423.905 72.5804 424.145 72.9703 424.145H78.6923C78.8383 424.145 78.9633 424.246 78.9894 424.384L79.999 429.737C80.0001 429.743 80.0003 429.748 79.9996 429.754C79.9628 430.041 79.7084 430.264 79.4002 430.264H79.3588C79.3332 430.267 79.307 430.269 79.2804 430.269H69.645C69.3444 430.269 69.0895 430.056 69.0471 429.769L68.0031 422.71C67.9826 422.571 68.0664 422.444 68.1932 422.397Z" fill="#F8F9FA"/>
</g>
<path d="M102 425.602H103" stroke="white" stroke-opacity="0.2" stroke-width="4" stroke-linecap="round"/>
<path d="M135 425.602H198" stroke="#15BB4C" stroke-width="4" stroke-linecap="round"/>
<path d="M230 425.602H292" stroke="#FFCC00" stroke-width="4" stroke-linecap="round"/>
<path d="M237 425.602H281" stroke="white" stroke-opacity="0.2" stroke-width="4" stroke-linecap="round"/>
<path d="M297 425.602H353" stroke="#0083F5" stroke-width="4" stroke-linecap="round"/>
<path d="M369 425.602H409" stroke="white" stroke-opacity="0.2" stroke-width="4" stroke-linecap="round"/>
</g>
<rect x="58" y="142.002" width="379" height="303.998" rx="4" stroke="#536175"/>
</g>
</g>
</g>
<g filter="url(#filter3_ii_3202_46169)">
<path d="M439 64C447.837 64 455 71.1634 455 80V448C455 456.837 447.837 464 439 464H16C7.16344 464 0 456.837 0 448V80C4.63895e-06 71.1634 7.16345 64 16 64H439ZM18 70C11.3726 70 6 75.3726 6 82V446C6 452.627 11.3726 458 18 458H437C443.627 458 449 452.627 449 446V82C449 75.3726 443.627 70 437 70H18Z" fill="#696E75"/>
</g>
<g clip-path="url(#clip4_3202_46169)">
<rect width="443" height="388" transform="translate(646 70)" fill="white"/>
<g filter="url(#filter4_i_3202_46169)">
<rect width="443" height="24.0021" transform="translate(646 70)" fill="#202A42"/>
<circle cx="662.004" cy="82.001" r="4.00103" fill="#CF3232"/>
<circle cx="674.007" cy="82.001" r="4.00103" fill="#FFCC00"/>
<circle cx="686.01" cy="82.001" r="4.00103" fill="#28BB5A"/>
</g>
<rect width="443" height="36" transform="translate(646 94.002)" fill="#005FBA"/>
<g clip-path="url(#clip5_3202_46169)">
<path d="M661.01 113.709C659.663 112.362 659.663 110.178 661.01 108.831L669.303 117.124C670.65 118.471 670.65 120.655 669.303 122.002L661.01 113.709Z" fill="white"/>
<path d="M664.425 110.295C663.078 108.948 663.078 106.764 664.425 105.417L672.718 113.709C674.065 115.056 674.065 117.24 672.718 118.587L664.425 110.295Z" fill="white"/>
<path d="M667.84 106.88C666.493 105.533 666.493 103.349 667.84 102.002L676.133 110.295C677.48 111.642 677.48 113.826 676.133 115.173L667.84 106.88Z" fill="white"/>
</g>
<path d="M688.166 111.799C689.147 111.799 689.962 112.174 690.632 112.924L692.093 111.611C691.183 110.51 689.77 109.924 688.07 109.924C685.028 109.924 682.753 111.986 682.753 114.869C682.753 117.752 685.004 119.814 688.046 119.814C689.746 119.814 691.159 119.205 692.069 118.104L690.608 116.791C689.962 117.541 689.123 117.916 688.142 117.916C686.322 117.916 685.004 116.65 685.004 114.846C685.028 113.064 686.322 111.799 688.166 111.799ZM696.404 112.197C695.206 112.197 693.985 112.502 693.171 113.088L693.961 114.588C694.512 114.166 695.326 113.908 696.116 113.908C697.29 113.908 697.84 114.447 697.84 115.361H696.116C693.817 115.361 692.883 116.252 692.883 117.564C692.883 118.83 693.937 119.791 695.685 119.791C696.787 119.791 697.577 119.439 697.984 118.76V119.674H700.02V115.455C700.02 113.229 698.703 112.197 696.404 112.197ZM697.84 117.33C697.601 118.01 696.954 118.338 696.236 118.338C695.47 118.338 695.015 117.986 695.015 117.447C695.015 116.955 695.326 116.58 696.356 116.58H697.84V117.33ZM703.54 114.494C703.54 114.119 703.947 113.814 704.929 113.814C705.623 113.814 706.342 113.955 707.084 114.354L707.803 112.83C707.084 112.432 705.935 112.197 704.905 112.197C702.702 112.197 701.433 113.182 701.433 114.564C701.433 117.494 705.959 116.275 705.959 117.471C705.959 117.869 705.576 118.15 704.57 118.15C703.66 118.15 702.63 117.869 701.959 117.447L701.241 118.971C701.936 119.416 703.229 119.768 704.498 119.768C706.749 119.768 708.042 118.807 708.042 117.424C708.066 114.518 703.54 115.736 703.54 114.494ZM716.759 115.994C716.759 113.627 715.059 112.174 712.856 112.174C710.557 112.174 708.856 113.768 708.856 115.971C708.856 118.15 710.557 119.744 713.143 119.744C714.508 119.744 715.538 119.346 716.232 118.549L715.083 117.33C714.556 117.799 714.005 118.033 713.191 118.033C712.041 118.033 711.251 117.471 711.036 116.557H716.711C716.735 116.393 716.759 116.158 716.759 115.994ZM711.012 115.338C711.155 114.4 711.874 113.814 712.88 113.814C713.862 113.814 714.58 114.424 714.724 115.338H711.012ZM723.68 109.502V113.064C723.129 112.455 722.363 112.174 721.429 112.174C719.298 112.174 717.669 113.65 717.669 115.971C717.669 118.291 719.298 119.744 721.429 119.744C722.435 119.744 723.225 119.439 723.776 118.783V119.627H725.859V109.502H723.68ZM721.812 118.01C720.735 118.01 719.896 117.236 719.896 115.971C719.896 114.705 720.735 113.932 721.812 113.932C722.89 113.932 723.728 114.705 723.728 115.971C723.728 117.236 722.89 118.01 721.812 118.01ZM731.224 112.197C728.829 112.197 727.081 113.768 727.081 115.994C727.081 118.197 728.829 119.768 731.224 119.768C733.618 119.768 735.343 118.197 735.343 115.994C735.343 113.768 733.595 112.197 731.224 112.197ZM731.224 118.01C730.146 118.01 729.308 117.236 729.308 115.971C729.308 114.705 730.146 113.932 731.224 113.932C732.301 113.932 733.14 114.705 733.14 115.971C733.14 117.236 732.301 118.01 731.224 118.01ZM740.444 118.01C739.342 118.01 738.48 117.26 738.48 115.971C738.48 114.682 739.342 113.932 740.444 113.932C741.138 113.932 741.737 114.236 742.144 114.939L743.844 114.049C743.293 112.854 742.048 112.174 740.468 112.174C738.025 112.174 736.277 113.744 736.277 115.971C736.277 118.174 738.025 119.744 740.468 119.744C742.048 119.744 743.293 119.064 743.844 117.893L742.144 117.002C741.737 117.705 741.138 118.01 740.444 118.01Z" fill="white"/>
<g clip-path="url(#clip6_3202_46169)">
<rect width="32" height="36" transform="translate(810 94.002)" fill="#0053B9"/>
<rect x="820" y="106.002" width="12" height="12" rx="2" fill="#FFCC00"/>
<mask id="path-74-inside-4_3202_46169" fill="white">
<path d="M842 94.002H874V130.002H842V94.002Z"/>
</mask>
<path d="M874 94.002H873V130.002H874H875V94.002H874Z" fill="#0053B9" mask="url(#path-74-inside-4_3202_46169)"/>
<rect x="852" y="106.002" width="12" height="12" rx="2" fill="white"/>
</g>
<g filter="url(#filter5_d_3202_46169)">
<rect width="443" height="327.998" transform="translate(646 130.002)" fill="#202A42"/>
<mask id="path-77-inside-5_3202_46169" fill="white">
<path d="M646 130.002H686V458H646V130.002Z"/>
</mask>
<path d="M646 130.002H686V458H646V130.002Z" fill="white" fill-opacity="0.04"/>
<path d="M686 130.002H685V458H686H687V130.002H686Z" fill="#536175" mask="url(#path-77-inside-5_3202_46169)"/>
<rect opacity="0.4" x="658" y="194.002" width="16" height="16" rx="8" fill="white"/>
<rect opacity="0.4" x="658" y="226.002" width="16" height="16" rx="8" fill="white"/>
<rect opacity="0.4" x="658" y="258.002" width="16" height="16" rx="8" fill="white"/>
<rect opacity="0.4" x="658" y="290.002" width="16" height="16" rx="8" fill="white"/>
<rect x="680" y="180.002" width="12" height="12" rx="6" fill="#FFCC00"/>
<g filter="url(#filter6_d_3202_46169)">
<g clip-path="url(#clip7_3202_46169)">
<g opacity="0.1">
<rect width="379" height="24" transform="translate(698 142.002)" fill="#EEEEEE"/>
</g>
<path d="M714 182.002H806" stroke="white" stroke-opacity="0.6" stroke-width="4" stroke-linecap="round"/>
<path d="M714 198.002H946" stroke="white" stroke-opacity="0.6" stroke-width="4" stroke-linecap="round"/>
<mask id="path-87-inside-6_3202_46169" fill="white">
<path d="M698 214.002H1077V234.002H698V214.002Z"/>
</mask>
<path d="M698 214.002V215.002H1077V214.002V213.002H698V214.002ZM1077 234.002V233.002H698V234.002V235.002H1077V234.002Z" fill="white" fill-opacity="0.2" mask="url(#path-87-inside-6_3202_46169)"/>
<path d="M730 214.002L730 234.002" stroke="white" stroke-opacity="0.2"/>
<rect x="738" y="221.002" width="64" height="6" rx="2" fill="white" fill-opacity="0.2"/>
<path d="M915 214.002L915 234.002" stroke="white" stroke-opacity="0.2"/>
<rect x="923" y="221.002" width="72" height="6" rx="2" fill="white" fill-opacity="0.2"/>
<path d="M1003 214.002L1003 234.002" stroke="white" stroke-opacity="0.2"/>
<rect x="1011" y="221.002" width="72" height="6" rx="2" fill="white" fill-opacity="0.2"/>
<g opacity="0.4">
<path d="M709.8 249.736C709.469 249.736 709.2 249.996 709.2 250.317V250.539C709.2 250.571 709.227 250.597 709.26 250.597H711.546C711.934 250.597 712.277 250.837 712.4 251.192L712.728 252.145C712.769 252.263 712.884 252.343 713.013 252.343H718.697C719.132 252.343 719.504 252.644 719.582 253.058L719.881 254.647C719.894 254.717 720 254.707 720 254.637V250.317C720 249.996 719.731 249.736 719.4 249.736H709.8Z" fill="#F8F9FA"/>
<path d="M708.193 251.198C708.199 251.196 708.206 251.195 708.213 251.195H711.494C711.624 251.195 711.739 251.275 711.781 251.394L712.111 252.349C712.234 252.705 712.58 252.946 712.97 252.946H718.692C718.838 252.946 718.963 253.047 718.989 253.185L719.999 258.538C720 258.543 720 258.549 720 258.555C719.963 258.842 719.708 259.065 719.4 259.065H719.359C719.333 259.068 719.307 259.07 719.28 259.07H709.645C709.344 259.07 709.089 258.857 709.047 258.57L708.003 251.511C707.983 251.372 708.066 251.245 708.193 251.198Z" fill="#F8F9FA"/>
</g>
<path d="M742 254.402H743" stroke="#15BB4C" stroke-width="4" stroke-linecap="round"/>
<path d="M775 254.402H838" stroke="white" stroke-opacity="0.2" stroke-width="4" stroke-linecap="round"/>
<path d="M870 254.402H932" stroke="#FFCC00" stroke-width="4" stroke-linecap="round"/>
<path d="M877 254.402H921" stroke="white" stroke-opacity="0.2" stroke-width="4" stroke-linecap="round"/>
<path d="M937 254.402H993" stroke="#0083F5" stroke-width="4" stroke-linecap="round"/>
<path d="M1009 254.402H1049" stroke="white" stroke-opacity="0.2" stroke-width="4" stroke-linecap="round"/>
<path d="M706 275.801H1069" stroke="#536175"/>
<g opacity="0.4">
<path d="M709.8 292.535C709.469 292.535 709.2 292.795 709.2 293.116V293.338C709.2 293.37 709.227 293.396 709.26 293.396H711.546C711.934 293.396 712.277 293.636 712.4 293.991L712.728 294.943C712.769 295.062 712.884 295.142 713.013 295.142H718.697C719.132 295.142 719.504 295.443 719.582 295.857L719.881 297.446C719.894 297.515 720 297.506 720 297.435V293.116C720 292.795 719.731 292.535 719.4 292.535H709.8Z" fill="#F8F9FA"/>
<path d="M708.193 293.997C708.199 293.995 708.206 293.993 708.213 293.993H711.494C711.624 293.993 711.739 294.074 711.781 294.193L712.111 295.148C712.234 295.504 712.58 295.745 712.97 295.745H718.692C718.838 295.745 718.963 295.845 718.989 295.984L719.999 301.337C720 301.342 720 301.348 720 301.353C719.963 301.641 719.708 301.864 719.4 301.864H719.359C719.333 301.867 719.307 301.868 719.28 301.868H709.645C709.344 301.868 709.089 301.655 709.047 301.368L708.003 294.31C707.983 294.171 708.066 294.044 708.193 293.997Z" fill="#F8F9FA"/>
</g>
<path d="M742 297.201H743" stroke="white" stroke-opacity="0.2" stroke-width="4" stroke-linecap="round"/>
<path d="M775 297.201H838" stroke="#15BB4C" stroke-width="4" stroke-linecap="round"/>
<path d="M870 297.201H932" stroke="#FFCC00" stroke-width="4" stroke-linecap="round"/>
<path d="M877 297.201H921" stroke="white" stroke-opacity="0.2" stroke-width="4" stroke-linecap="round"/>
<path d="M937 297.201H993" stroke="white" stroke-opacity="0.2" stroke-width="4" stroke-linecap="round"/>
<path d="M1009 297.201H1049" stroke="#0083F5" stroke-width="4" stroke-linecap="round"/>
<path d="M706 318.602H1069" stroke="#536175"/>
<g opacity="0.4">
<path d="M709.8 335.336C709.469 335.336 709.2 335.596 709.2 335.916V336.139C709.2 336.171 709.227 336.197 709.26 336.197H711.546C711.934 336.197 712.277 336.437 712.4 336.792L712.728 337.744C712.769 337.863 712.884 337.943 713.013 337.943H718.697C719.132 337.943 719.504 338.244 719.582 338.658L719.881 340.247C719.894 340.316 720 340.307 720 340.236V335.916C720 335.596 719.731 335.336 719.4 335.336H709.8Z" fill="#F8F9FA"/>
<path d="M708.193 336.798C708.199 336.795 708.206 336.794 708.213 336.794H711.494C711.624 336.794 711.739 336.874 711.781 336.993L712.111 337.948C712.234 338.305 712.58 338.546 712.97 338.546H718.692C718.838 338.546 718.963 338.646 718.989 338.785L719.999 344.138C720 344.143 720 344.149 720 344.154C719.963 344.442 719.708 344.664 719.4 344.664H719.359C719.333 344.668 719.307 344.669 719.28 344.669H709.645C709.344 344.669 709.089 344.456 709.047 344.169L708.003 337.11C707.983 336.972 708.066 336.845 708.193 336.798Z" fill="#F8F9FA"/>
</g>
<path d="M742 340.002H743" stroke="white" stroke-opacity="0.2" stroke-width="4" stroke-linecap="round"/>
<path d="M775 340.002H838" stroke="#15BB4C" stroke-width="4" stroke-linecap="round"/>
<path d="M870 340.002H932" stroke="#FFCC00" stroke-width="4" stroke-linecap="round"/>
<path d="M877 340.002H921" stroke="#0083F5" stroke-width="4" stroke-linecap="round"/>
<path d="M937 340.002H993" stroke="#0083F5" stroke-width="4" stroke-linecap="round"/>
<path d="M1009 340.002H1049" stroke="white" stroke-opacity="0.2" stroke-width="4" stroke-linecap="round"/>
<path d="M706 361.4H1069" stroke="#536175"/>
<g opacity="0.4">
<path d="M709.8 378.135C709.469 378.135 709.2 378.395 709.2 378.715V378.938C709.2 378.97 709.227 378.996 709.26 378.996H711.546C711.934 378.996 712.277 379.235 712.4 379.591L712.728 380.543C712.769 380.662 712.884 380.741 713.013 380.741H718.697C719.132 380.741 719.504 381.042 719.582 381.456L719.881 383.045C719.894 383.115 720 383.106 720 383.035V378.715C720 378.395 719.731 378.135 719.4 378.135H709.8Z" fill="#F8F9FA"/>
<path d="M708.193 379.596C708.199 379.594 708.206 379.593 708.213 379.593H711.494C711.624 379.593 711.739 379.673 711.781 379.792L712.111 380.747C712.234 381.104 712.58 381.344 712.97 381.344H718.692C718.838 381.344 718.963 381.445 718.989 381.583L719.999 386.936C720 386.942 720 386.948 720 386.953C719.963 387.241 719.708 387.463 719.4 387.463H719.359C719.333 387.466 719.307 387.468 719.28 387.468H709.645C709.344 387.468 709.089 387.255 709.047 386.968L708.003 379.909C707.983 379.771 708.066 379.644 708.193 379.596Z" fill="#F8F9FA"/>
</g>
<path d="M742 382.801H743" stroke="#15BB4C" stroke-width="4" stroke-linecap="round"/>
<path d="M775 382.801H838" stroke="white" stroke-opacity="0.2" stroke-width="4" stroke-linecap="round"/>
<path d="M870 382.801H932" stroke="#FFCC00" stroke-width="4" stroke-linecap="round"/>
<path d="M877 382.801H921" stroke="white" stroke-opacity="0.2" stroke-width="4" stroke-linecap="round"/>
<path d="M937 382.801H993" stroke="#0083F5" stroke-width="4" stroke-linecap="round"/>
<path d="M1009 382.801H1049" stroke="white" stroke-opacity="0.2" stroke-width="4" stroke-linecap="round"/>
<path d="M706 404.201H1069" stroke="#536175"/>
<g opacity="0.4">
<path d="M709.8 420.936C709.469 420.936 709.2 421.195 709.2 421.516V421.738C709.2 421.77 709.227 421.796 709.26 421.796H711.546C711.934 421.796 712.277 422.036 712.4 422.392L712.728 423.344C712.769 423.462 712.884 423.542 713.013 423.542H718.697C719.132 423.542 719.504 423.843 719.582 424.257L719.881 425.846C719.894 425.916 720 425.907 720 425.836V421.516C720 421.195 719.731 420.936 719.4 420.936H709.8Z" fill="#F8F9FA"/>
<path d="M708.193 422.397C708.199 422.395 708.206 422.394 708.213 422.394H711.494C711.624 422.394 711.739 422.474 711.781 422.593L712.111 423.548C712.234 423.905 712.58 424.145 712.97 424.145H718.692C718.838 424.145 718.963 424.246 718.989 424.384L719.999 429.737C720 429.743 720 429.748 720 429.754C719.963 430.041 719.708 430.264 719.4 430.264H719.359C719.333 430.267 719.307 430.269 719.28 430.269H709.645C709.344 430.269 709.089 430.056 709.047 429.769L708.003 422.71C707.983 422.571 708.066 422.444 708.193 422.397Z" fill="#F8F9FA"/>
</g>
<path d="M742 425.602H743" stroke="white" stroke-opacity="0.2" stroke-width="4" stroke-linecap="round"/>
<path d="M775 425.602H838" stroke="#15BB4C" stroke-width="4" stroke-linecap="round"/>
<path d="M870 425.602H932" stroke="#FFCC00" stroke-width="4" stroke-linecap="round"/>
<path d="M877 425.602H921" stroke="white" stroke-opacity="0.2" stroke-width="4" stroke-linecap="round"/>
<path d="M937 425.602H993" stroke="#0083F5" stroke-width="4" stroke-linecap="round"/>
<path d="M1009 425.602H1049" stroke="white" stroke-opacity="0.2" stroke-width="4" stroke-linecap="round"/>
</g>
<rect x="698" y="142.002" width="379" height="303.998" rx="4" stroke="#536175"/>
</g>
</g>
</g>
<g filter="url(#filter7_ii_3202_46169)">
<path d="M1079 64C1087.84 64 1095 71.1634 1095 80V448C1095 456.837 1087.84 464 1079 464H656C647.163 464 640 456.837 640 448V80C640 71.1634 647.163 64 656 64H1079ZM658 70C651.373 70 646 75.3726 646 82V446C646 452.627 651.373 458 658 458H1077C1083.63 458 1089 452.627 1089 446V82C1089 75.3726 1083.63 70 1077 70H658Z" fill="#696E75"/>
</g>
<g clip-path="url(#clip8_3202_46169)">
<rect width="708" height="500" transform="translate(193 6)" fill="white"/>
<g filter="url(#filter8_i_3202_46169)">
<rect width="708" height="24.0021" transform="translate(193 6)" fill="#202A42"/>
<circle cx="209.004" cy="18.001" r="4.00103" fill="#CF3232"/>
<circle cx="221.007" cy="18.001" r="4.00103" fill="#FFCC00"/>
<circle cx="233.01" cy="18.001" r="4.00103" fill="#28BB5A"/>
</g>
<rect width="708" height="36" transform="translate(193 30.002)" fill="#005FBA"/>
<g clip-path="url(#clip9_3202_46169)">
<path d="M208.01 49.7093C206.663 48.3622 206.663 46.1783 208.01 44.8312L216.303 53.1239C217.65 54.4709 217.65 56.6549 216.303 58.002L208.01 49.7093Z" fill="white"/>
<path d="M211.425 46.2946C210.078 44.9476 210.078 42.7636 211.425 41.4166L219.718 49.7093C221.065 51.0563 221.065 53.2403 219.718 54.5873L211.425 46.2946Z" fill="white"/>
<path d="M214.84 42.88C213.493 41.533 213.493 39.349 214.84 38.002L223.133 46.2946C224.48 47.6417 224.48 49.8256 223.133 51.1727L214.84 42.88Z" fill="white"/>
</g>
<path d="M235.166 47.7988C236.147 47.7988 236.962 48.1738 237.632 48.9238L239.093 47.6113C238.183 46.5098 236.77 45.9238 235.07 45.9238C232.028 45.9238 229.753 47.9863 229.753 50.8691C229.753 53.752 232.004 55.8145 235.046 55.8145C236.746 55.8145 238.159 55.2051 239.069 54.1035L237.608 52.791C236.962 53.541 236.123 53.916 235.142 53.916C233.322 53.916 232.004 52.6504 232.004 50.8457C232.028 49.0645 233.322 47.7988 235.166 47.7988ZM243.404 48.1973C242.206 48.1973 240.985 48.502 240.171 49.0879L240.961 50.5879C241.512 50.166 242.326 49.9082 243.116 49.9082C244.29 49.9082 244.84 50.4473 244.84 51.3613H243.116C240.817 51.3613 239.883 52.252 239.883 53.5645C239.883 54.8301 240.937 55.791 242.685 55.791C243.787 55.791 244.577 55.4395 244.984 54.7598V55.6738H247.02V51.4551C247.02 49.2285 245.703 48.1973 243.404 48.1973ZM244.84 53.3301C244.601 54.0098 243.954 54.3379 243.236 54.3379C242.47 54.3379 242.015 53.9863 242.015 53.4473C242.015 52.9551 242.326 52.5801 243.356 52.5801H244.84V53.3301ZM250.54 50.4941C250.54 50.1191 250.947 49.8145 251.929 49.8145C252.623 49.8145 253.342 49.9551 254.084 50.3535L254.803 48.8301C254.084 48.4316 252.935 48.1973 251.905 48.1973C249.702 48.1973 248.433 49.1816 248.433 50.5645C248.433 53.4941 252.959 52.2754 252.959 53.4707C252.959 53.8691 252.576 54.1504 251.57 54.1504C250.66 54.1504 249.63 53.8691 248.959 53.4473L248.241 54.9707C248.936 55.416 250.229 55.7676 251.498 55.7676C253.749 55.7676 255.042 54.8066 255.042 53.4238C255.066 50.5176 250.54 51.7363 250.54 50.4941ZM263.759 51.9941C263.759 49.627 262.059 48.1738 259.856 48.1738C257.557 48.1738 255.856 49.7676 255.856 51.9707C255.856 54.1504 257.557 55.7441 260.143 55.7441C261.508 55.7441 262.538 55.3457 263.232 54.5488L262.083 53.3301C261.556 53.7988 261.005 54.0332 260.191 54.0332C259.041 54.0332 258.251 53.4707 258.036 52.5566H263.711C263.735 52.3926 263.759 52.1582 263.759 51.9941ZM258.012 51.3379C258.155 50.4004 258.874 49.8145 259.88 49.8145C260.862 49.8145 261.58 50.4238 261.724 51.3379H258.012ZM270.68 45.502V49.0645C270.129 48.4551 269.363 48.1738 268.429 48.1738C266.298 48.1738 264.669 49.6504 264.669 51.9707C264.669 54.291 266.298 55.7441 268.429 55.7441C269.435 55.7441 270.225 55.4395 270.776 54.7832V55.627H272.859V45.502H270.68ZM268.812 54.0098C267.735 54.0098 266.896 53.2363 266.896 51.9707C266.896 50.7051 267.735 49.9316 268.812 49.9316C269.89 49.9316 270.728 50.7051 270.728 51.9707C270.728 53.2363 269.89 54.0098 268.812 54.0098ZM278.224 48.1973C275.829 48.1973 274.081 49.7676 274.081 51.9941C274.081 54.1973 275.829 55.7676 278.224 55.7676C280.618 55.7676 282.343 54.1973 282.343 51.9941C282.343 49.7676 280.595 48.1973 278.224 48.1973ZM278.224 54.0098C277.146 54.0098 276.308 53.2363 276.308 51.9707C276.308 50.7051 277.146 49.9316 278.224 49.9316C279.301 49.9316 280.14 50.7051 280.14 51.9707C280.14 53.2363 279.301 54.0098 278.224 54.0098ZM287.444 54.0098C286.342 54.0098 285.48 53.2598 285.48 51.9707C285.48 50.6816 286.342 49.9316 287.444 49.9316C288.138 49.9316 288.737 50.2363 289.144 50.9395L290.844 50.0488C290.293 48.8535 289.048 48.1738 287.468 48.1738C285.025 48.1738 283.277 49.7441 283.277 51.9707C283.277 54.1738 285.025 55.7441 287.468 55.7441C289.048 55.7441 290.293 55.0645 290.844 53.8926L289.144 53.002C288.737 53.7051 288.138 54.0098 287.444 54.0098Z" fill="white"/>
<g clip-path="url(#clip10_3202_46169)">
<rect width="32" height="36" transform="translate(357 30.002)" fill="#0053B9"/>
<rect x="367" y="42.002" width="12" height="12" rx="2" fill="#FFCC00"/>
<mask id="path-141-inside-7_3202_46169" fill="white">
<path d="M389 30.002H421V66.002H389V30.002Z"/>
</mask>
<path d="M421 30.002H420V66.002H421H422V30.002H421Z" fill="#0053B9" mask="url(#path-141-inside-7_3202_46169)"/>
<rect x="399" y="42.002" width="12" height="12" rx="2" fill="white"/>
</g>
<g filter="url(#filter9_d_3202_46169)">
<rect width="708" height="439.998" transform="translate(193 66.002)" fill="#202A42"/>
<mask id="path-144-inside-8_3202_46169" fill="white">
<path d="M193 66.002H233V506H193V66.002Z"/>
</mask>
<path d="M193 66.002H233V506H193V66.002Z" fill="white" fill-opacity="0.04"/>
<path d="M233 66.002H232V506H233H234V66.002H233Z" fill="#536175" mask="url(#path-144-inside-8_3202_46169)"/>
<rect opacity="0.4" x="205" y="130.002" width="16" height="16" rx="8" fill="white"/>
<rect opacity="0.4" x="205" y="162.002" width="16" height="16" rx="8" fill="white"/>
<rect opacity="0.4" x="205" y="194.002" width="16" height="16" rx="8" fill="white"/>
<rect opacity="0.4" x="205" y="226.002" width="16" height="16" rx="8" fill="white"/>
<rect x="227" y="116.002" width="12" height="12" rx="6" fill="#FFCC00"/>
<g filter="url(#filter10_d_3202_46169)">
<g clip-path="url(#clip11_3202_46169)">
<g opacity="0.1">
<rect width="644" height="24" transform="translate(245 78.002)" fill="#EEEEEE"/>
</g>
<path d="M261 118.002H353" stroke="white" stroke-opacity="0.6" stroke-width="4" stroke-linecap="round"/>
<path d="M261 134.002H493" stroke="white" stroke-opacity="0.6" stroke-width="4" stroke-linecap="round"/>
<mask id="path-154-inside-9_3202_46169" fill="white">
<path d="M245 150.002H889V170.002H245V150.002Z"/>
</mask>
<path d="M245 150.002V151.002H889V150.002V149.002H245V150.002ZM889 170.002V169.002H245V170.002V171.002H889V170.002Z" fill="white" fill-opacity="0.2" mask="url(#path-154-inside-9_3202_46169)"/>
<path d="M277 150.002L277 170.002" stroke="white" stroke-opacity="0.2"/>
<rect x="285" y="157.002" width="64" height="6" rx="2" fill="white" fill-opacity="0.2"/>
<path d="M462 150.002L462 170.002" stroke="white" stroke-opacity="0.2"/>
<rect x="470" y="157.002" width="72" height="6" rx="2" fill="white" fill-opacity="0.2"/>
<path d="M550 150.002L550 170.002" stroke="white" stroke-opacity="0.2"/>
<rect x="558" y="157.002" width="72" height="6" rx="2" fill="white" fill-opacity="0.2"/>
<path d="M638 150.002L638 170.002" stroke="white" stroke-opacity="0.2"/>
<path d="M673 150.002L673 170.002" stroke="white" stroke-opacity="0.2"/>
<rect x="681" y="157.002" width="64" height="6" rx="2" fill="white" fill-opacity="0.2"/>
<path d="M857 150.002L857 170.002" stroke="white" stroke-opacity="0.2"/>
<g opacity="0.4">
<path d="M256.8 196.936C256.469 196.936 256.2 197.195 256.2 197.516V197.738C256.2 197.77 256.227 197.796 256.26 197.796H258.546C258.934 197.796 259.277 198.036 259.4 198.392L259.728 199.344C259.769 199.462 259.884 199.542 260.013 199.542H265.697C266.132 199.542 266.504 199.843 266.582 200.257L266.881 201.846C266.894 201.916 267 201.907 267 201.836V197.516C267 197.195 266.731 196.936 266.4 196.936H256.8Z" fill="#F8F9FA"/>
<path d="M255.193 198.397C255.199 198.395 255.206 198.394 255.213 198.394H258.494C258.624 198.394 258.739 198.474 258.781 198.593L259.111 199.548C259.234 199.905 259.58 200.145 259.97 200.145H265.692C265.838 200.145 265.963 200.246 265.989 200.384L266.999 205.737C267 205.743 267 205.748 267 205.754C266.963 206.041 266.708 206.264 266.4 206.264H266.359C266.333 206.267 266.307 206.269 266.28 206.269H256.645C256.344 206.269 256.089 206.056 256.047 205.769L255.003 198.71C254.983 198.571 255.066 198.444 255.193 198.397Z" fill="#F8F9FA"/>
</g>
<path d="M289 201.602H456" stroke="#15BB4C" stroke-width="4" stroke-linecap="round"/>
<path d="M488 201.602H551" stroke="white" stroke-opacity="0.2" stroke-width="4" stroke-linecap="round"/>
<path d="M583 201.602H645" stroke="#FFCC00" stroke-width="4" stroke-linecap="round"/>
<path d="M689 201.602H733" stroke="white" stroke-opacity="0.2" stroke-width="4" stroke-linecap="round"/>
<path d="M749 201.602H805" stroke="#0083F5" stroke-width="4" stroke-linecap="round"/>
<path d="M821 201.602H861" stroke="white" stroke-opacity="0.2" stroke-width="4" stroke-linecap="round"/>
<path d="M253 234.201H881" stroke="#536175"/>
<g opacity="0.4">
<path d="M256.8 262.135C256.469 262.135 256.2 262.395 256.2 262.715V262.938C256.2 262.97 256.227 262.996 256.26 262.996H258.546C258.934 262.996 259.277 263.235 259.4 263.591L259.728 264.543C259.769 264.662 259.884 264.741 260.013 264.741H265.697C266.132 264.741 266.504 265.042 266.582 265.456L266.881 267.045C266.894 267.115 267 267.106 267 267.035V262.715C267 262.395 266.731 262.135 266.4 262.135H256.8Z" fill="#F8F9FA"/>
<path d="M255.193 263.596C255.199 263.594 255.206 263.593 255.213 263.593H258.494C258.624 263.593 258.739 263.673 258.781 263.792L259.111 264.747C259.234 265.104 259.58 265.344 259.97 265.344H265.692C265.838 265.344 265.963 265.445 265.989 265.583L266.999 270.936C267 270.942 267 270.948 267 270.953C266.963 271.241 266.708 271.463 266.4 271.463H266.359C266.333 271.466 266.307 271.468 266.28 271.468H256.645C256.344 271.468 256.089 271.255 256.047 270.968L255.003 263.909C254.983 263.771 255.066 263.644 255.193 263.596Z" fill="#F8F9FA"/>
</g>
<path d="M289 266.801H456" stroke="white" stroke-opacity="0.2" stroke-width="4" stroke-linecap="round"/>
<path d="M488 266.801H551" stroke="#15BB4C" stroke-width="4" stroke-linecap="round"/>
<path d="M583 266.801H645" stroke="#FFCC00" stroke-width="4" stroke-linecap="round"/>
<path d="M689 266.801H733" stroke="white" stroke-opacity="0.2" stroke-width="4" stroke-linecap="round"/>
<path d="M749 266.801H805" stroke="white" stroke-opacity="0.2" stroke-width="4" stroke-linecap="round"/>
<path d="M821 266.801H861" stroke="#0083F5" stroke-width="4" stroke-linecap="round"/>
<path d="M253 299.4H881" stroke="#536175"/>
<g opacity="0.4">
<path d="M256.8 327.334C256.469 327.334 256.2 327.594 256.2 327.914V328.137C256.2 328.169 256.227 328.195 256.26 328.195H258.546C258.934 328.195 259.277 328.435 259.4 328.79L259.728 329.742C259.769 329.861 259.884 329.941 260.013 329.941H265.697C266.132 329.941 266.504 330.242 266.582 330.656L266.881 332.245C266.894 332.314 267 332.305 267 332.234V327.914C267 327.594 266.731 327.334 266.4 327.334H256.8Z" fill="#F8F9FA"/>
<path d="M255.193 328.796C255.199 328.793 255.206 328.792 255.213 328.792H258.494C258.624 328.792 258.739 328.873 258.781 328.991L259.111 329.946C259.234 330.303 259.58 330.544 259.97 330.544H265.692C265.838 330.544 265.963 330.644 265.989 330.783L266.999 336.136C267 336.141 267 336.147 267 336.152C266.963 336.44 266.708 336.663 266.4 336.663H266.359C266.333 336.666 266.307 336.667 266.28 336.667H256.645C256.344 336.667 256.089 336.454 256.047 336.167L255.003 329.108C254.983 328.97 255.066 328.843 255.193 328.796Z" fill="#F8F9FA"/>
</g>
<path d="M289 332H456" stroke="white" stroke-opacity="0.2" stroke-width="4" stroke-linecap="round"/>
<path d="M488 332H551" stroke="#15BB4C" stroke-width="4" stroke-linecap="round"/>
<path d="M583 332H645" stroke="#FFCC00" stroke-width="4" stroke-linecap="round"/>
<path d="M689 332H733" stroke="#0083F5" stroke-width="4" stroke-linecap="round"/>
<path d="M749 332H805" stroke="#0083F5" stroke-width="4" stroke-linecap="round"/>
<path d="M821 332H861" stroke="white" stroke-opacity="0.2" stroke-width="4" stroke-linecap="round"/>
<path d="M253 364.602H881" stroke="#536175"/>
<g opacity="0.4">
<path d="M256.8 392.535C256.469 392.535 256.2 392.795 256.2 393.116V393.338C256.2 393.37 256.227 393.396 256.26 393.396H258.546C258.934 393.396 259.277 393.636 259.4 393.991L259.728 394.943C259.769 395.062 259.884 395.142 260.013 395.142H265.697C266.132 395.142 266.504 395.443 266.582 395.857L266.881 397.446C266.894 397.515 267 397.506 267 397.435V393.116C267 392.795 266.731 392.535 266.4 392.535H256.8Z" fill="#F8F9FA"/>
<path d="M255.193 393.997C255.199 393.995 255.206 393.993 255.213 393.993H258.494C258.624 393.993 258.739 394.074 258.781 394.193L259.111 395.148C259.234 395.504 259.58 395.745 259.97 395.745H265.692C265.838 395.745 265.963 395.845 265.989 395.984L266.999 401.337C267 401.342 267 401.348 267 401.353C266.963 401.641 266.708 401.864 266.4 401.864H266.359C266.333 401.867 266.307 401.868 266.28 401.868H256.645C256.344 401.868 256.089 401.655 256.047 401.368L255.003 394.31C254.983 394.171 255.066 394.044 255.193 393.997Z" fill="#F8F9FA"/>
</g>
<path d="M289 397.201H456" stroke="#15BB4C" stroke-width="4" stroke-linecap="round"/>
<path d="M488 397.201H551" stroke="white" stroke-opacity="0.2" stroke-width="4" stroke-linecap="round"/>
<path d="M583 397.201H645" stroke="#FFCC00" stroke-width="4" stroke-linecap="round"/>
<path d="M689 397.201H733" stroke="white" stroke-opacity="0.2" stroke-width="4" stroke-linecap="round"/>
<path d="M749 397.201H805" stroke="#0083F5" stroke-width="4" stroke-linecap="round"/>
<path d="M821 397.201H861" stroke="white" stroke-opacity="0.2" stroke-width="4" stroke-linecap="round"/>
<path d="M253 429.801H881" stroke="#536175"/>
<g opacity="0.4">
<path d="M256.8 457.734C256.469 457.734 256.2 457.994 256.2 458.315V458.537C256.2 458.569 256.227 458.595 256.26 458.595H258.546C258.934 458.595 259.277 458.835 259.4 459.191L259.728 460.143C259.769 460.261 259.884 460.341 260.013 460.341H265.697C266.132 460.341 266.504 460.642 266.582 461.056L266.881 462.645C266.894 462.715 267 462.705 267 462.635V458.315C267 457.994 266.731 457.734 266.4 457.734H256.8Z" fill="#F8F9FA"/>
<path d="M255.193 459.196C255.199 459.194 255.206 459.193 255.213 459.193H258.494C258.624 459.193 258.739 459.273 258.781 459.392L259.111 460.347C259.234 460.703 259.58 460.944 259.97 460.944H265.692C265.838 460.944 265.963 461.045 265.989 461.183L266.999 466.536C267 466.541 267 466.547 267 466.553C266.963 466.84 266.708 467.063 266.4 467.063H266.359C266.333 467.066 266.307 467.068 266.28 467.068H256.645C256.344 467.068 256.089 466.855 256.047 466.568L255.003 459.509C254.983 459.37 255.066 459.243 255.193 459.196Z" fill="#F8F9FA"/>
</g>
<path d="M289 462.4H456" stroke="white" stroke-opacity="0.2" stroke-width="4" stroke-linecap="round"/>
<path d="M488 462.4H551" stroke="#15BB4C" stroke-width="4" stroke-linecap="round"/>
<path d="M583 462.4H645" stroke="#FFCC00" stroke-width="4" stroke-linecap="round"/>
<path d="M689 462.4H733" stroke="white" stroke-opacity="0.2" stroke-width="4" stroke-linecap="round"/>
<path d="M749 462.4H805" stroke="#0083F5" stroke-width="4" stroke-linecap="round"/>
<path d="M821 462.4H861" stroke="white" stroke-opacity="0.2" stroke-width="4" stroke-linecap="round"/>
</g>
<rect x="245" y="78.002" width="644" height="415.998" rx="4" stroke="#536175"/>
</g>
</g>
</g>
<g filter="url(#filter11_ii_3202_46169)">
<path d="M891 0C899.837 0 907 7.16344 907 16V496C907 504.837 899.837 512 891 512H203C194.163 512 187 504.837 187 496V16C187 7.16344 194.163 2.09384e-07 203 0H891ZM205 6C198.373 6 193 11.3726 193 18V494C193 500.627 198.373 506 205 506H889C895.627 506 901 500.627 901 494V18C901 11.3726 895.627 6.00001 889 6H205Z" fill="#696E75"/>
</g>
<defs>
<filter id="filter0_i_3202_46169" x="6" y="70" width="443" height="24.002" filterUnits="userSpaceOnUse" color-interpolation-filters="sRGB">
<feFlood flood-opacity="0" result="BackgroundImageFix"/>
<feBlend mode="normal" in="SourceGraphic" in2="BackgroundImageFix" result="shape"/>
<feColorMatrix in="SourceAlpha" type="matrix" values="0 0 0 0 0 0 0 0 0 0 0 0 0 0 0 0 0 0 127 0" result="hardAlpha"/>
<feOffset dy="-1.00026"/>
<feComposite in2="hardAlpha" operator="arithmetic" k2="-1" k3="1"/>
<feColorMatrix type="matrix" values="0 0 0 0 0.682353 0 0 0 0 0.631373 0 0 0 0 0.831373 0 0 0 0.4 0"/>
<feBlend mode="normal" in2="shape" result="effect1_innerShadow_3202_46169"/>
</filter>
<filter id="filter1_d_3202_46169" x="-74" y="58.002" width="603" height="487.998" filterUnits="userSpaceOnUse" color-interpolation-filters="sRGB">
<feFlood flood-opacity="0" result="BackgroundImageFix"/>
<feColorMatrix in="SourceAlpha" type="matrix" values="0 0 0 0 0 0 0 0 0 0 0 0 0 0 0 0 0 0 127 0" result="hardAlpha"/>
<feOffset dy="8"/>
<feGaussianBlur stdDeviation="40"/>
<feColorMatrix type="matrix" values="0 0 0 0 0.12549 0 0 0 0 0.164706 0 0 0 0 0.258824 0 0 0 0.12 0"/>
<feBlend mode="normal" in2="BackgroundImageFix" result="effect1_dropShadow_3202_46169"/>
<feBlend mode="normal" in="SourceGraphic" in2="effect1_dropShadow_3202_46169" result="shape"/>
</filter>
<filter id="filter2_d_3202_46169" x="41.5" y="129.502" width="412" height="336.998" filterUnits="userSpaceOnUse" color-interpolation-filters="sRGB">
<feFlood flood-opacity="0" result="BackgroundImageFix"/>
<feColorMatrix in="SourceAlpha" type="matrix" values="0 0 0 0 0 0 0 0 0 0 0 0 0 0 0 0 0 0 127 0" result="hardAlpha"/>
<feOffset dy="4"/>
<feGaussianBlur stdDeviation="8"/>
<feColorMatrix type="matrix" values="0 0 0 0 0.12549 0 0 0 0 0.164706 0 0 0 0 0.258824 0 0 0 0.16 0"/>
<feBlend mode="normal" in2="BackgroundImageFix" result="effect1_dropShadow_3202_46169"/>
<feBlend mode="normal" in="SourceGraphic" in2="effect1_dropShadow_3202_46169" result="shape"/>
</filter>
<filter id="filter3_ii_3202_46169" x="-2" y="62" width="459" height="404" filterUnits="userSpaceOnUse" color-interpolation-filters="sRGB">
<feFlood flood-opacity="0" result="BackgroundImageFix"/>
<feBlend mode="normal" in="SourceGraphic" in2="BackgroundImageFix" result="shape"/>
<feColorMatrix in="SourceAlpha" type="matrix" values="0 0 0 0 0 0 0 0 0 0 0 0 0 0 0 0 0 0 127 0" result="hardAlpha"/>
<feOffset dx="-2" dy="-2"/>
<feGaussianBlur stdDeviation="8"/>
<feComposite in2="hardAlpha" operator="arithmetic" k2="-1" k3="1"/>
<feColorMatrix type="matrix" values="0 0 0 0 0.0722355 0 0 0 0 0.286326 0 0 0 0 0.800145 0 0 0 0.08 0"/>
<feBlend mode="normal" in2="shape" result="effect1_innerShadow_3202_46169"/>
<feColorMatrix in="SourceAlpha" type="matrix" values="0 0 0 0 0 0 0 0 0 0 0 0 0 0 0 0 0 0 127 0" result="hardAlpha"/>
<feOffset dx="2" dy="2"/>
<feGaussianBlur stdDeviation="8"/>
<feComposite in2="hardAlpha" operator="arithmetic" k2="-1" k3="1"/>
<feColorMatrix type="matrix" values="0 0 0 0 1 0 0 0 0 0.3 0 0 0 0 0 0 0 0 0.04 0"/>
<feBlend mode="normal" in2="effect1_innerShadow_3202_46169" result="effect2_innerShadow_3202_46169"/>
</filter>
<filter id="filter4_i_3202_46169" x="646" y="70" width="443" height="24.002" filterUnits="userSpaceOnUse" color-interpolation-filters="sRGB">
<feFlood flood-opacity="0" result="BackgroundImageFix"/>
<feBlend mode="normal" in="SourceGraphic" in2="BackgroundImageFix" result="shape"/>
<feColorMatrix in="SourceAlpha" type="matrix" values="0 0 0 0 0 0 0 0 0 0 0 0 0 0 0 0 0 0 127 0" result="hardAlpha"/>
<feOffset dy="-1.00026"/>
<feComposite in2="hardAlpha" operator="arithmetic" k2="-1" k3="1"/>
<feColorMatrix type="matrix" values="0 0 0 0 0.682353 0 0 0 0 0.631373 0 0 0 0 0.831373 0 0 0 0.4 0"/>
<feBlend mode="normal" in2="shape" result="effect1_innerShadow_3202_46169"/>
</filter>
<filter id="filter5_d_3202_46169" x="566" y="58.002" width="603" height="487.998" filterUnits="userSpaceOnUse" color-interpolation-filters="sRGB">
<feFlood flood-opacity="0" result="BackgroundImageFix"/>
<feColorMatrix in="SourceAlpha" type="matrix" values="0 0 0 0 0 0 0 0 0 0 0 0 0 0 0 0 0 0 127 0" result="hardAlpha"/>
<feOffset dy="8"/>
<feGaussianBlur stdDeviation="40"/>
<feColorMatrix type="matrix" values="0 0 0 0 0.12549 0 0 0 0 0.164706 0 0 0 0 0.258824 0 0 0 0.12 0"/>
<feBlend mode="normal" in2="BackgroundImageFix" result="effect1_dropShadow_3202_46169"/>
<feBlend mode="normal" in="SourceGraphic" in2="effect1_dropShadow_3202_46169" result="shape"/>
</filter>
<filter id="filter6_d_3202_46169" x="681.5" y="129.502" width="412" height="336.998" filterUnits="userSpaceOnUse" color-interpolation-filters="sRGB">
<feFlood flood-opacity="0" result="BackgroundImageFix"/>
<feColorMatrix in="SourceAlpha" type="matrix" values="0 0 0 0 0 0 0 0 0 0 0 0 0 0 0 0 0 0 127 0" result="hardAlpha"/>
<feOffset dy="4"/>
<feGaussianBlur stdDeviation="8"/>
<feColorMatrix type="matrix" values="0 0 0 0 0.12549 0 0 0 0 0.164706 0 0 0 0 0.258824 0 0 0 0.16 0"/>
<feBlend mode="normal" in2="BackgroundImageFix" result="effect1_dropShadow_3202_46169"/>
<feBlend mode="normal" in="SourceGraphic" in2="effect1_dropShadow_3202_46169" result="shape"/>
</filter>
<filter id="filter7_ii_3202_46169" x="638" y="62" width="459" height="404" filterUnits="userSpaceOnUse" color-interpolation-filters="sRGB">
<feFlood flood-opacity="0" result="BackgroundImageFix"/>
<feBlend mode="normal" in="SourceGraphic" in2="BackgroundImageFix" result="shape"/>
<feColorMatrix in="SourceAlpha" type="matrix" values="0 0 0 0 0 0 0 0 0 0 0 0 0 0 0 0 0 0 127 0" result="hardAlpha"/>
<feOffset dx="-2" dy="-2"/>
<feGaussianBlur stdDeviation="8"/>
<feComposite in2="hardAlpha" operator="arithmetic" k2="-1" k3="1"/>
<feColorMatrix type="matrix" values="0 0 0 0 0.0722355 0 0 0 0 0.286326 0 0 0 0 0.800145 0 0 0 0.08 0"/>
<feBlend mode="normal" in2="shape" result="effect1_innerShadow_3202_46169"/>
<feColorMatrix in="SourceAlpha" type="matrix" values="0 0 0 0 0 0 0 0 0 0 0 0 0 0 0 0 0 0 127 0" result="hardAlpha"/>
<feOffset dx="2" dy="2"/>
<feGaussianBlur stdDeviation="8"/>
<feComposite in2="hardAlpha" operator="arithmetic" k2="-1" k3="1"/>
<feColorMatrix type="matrix" values="0 0 0 0 1 0 0 0 0 0.3 0 0 0 0 0 0 0 0 0.04 0"/>
<feBlend mode="normal" in2="effect1_innerShadow_3202_46169" result="effect2_innerShadow_3202_46169"/>
</filter>
<filter id="filter8_i_3202_46169" x="193" y="6" width="708" height="24.002" filterUnits="userSpaceOnUse" color-interpolation-filters="sRGB">
<feFlood flood-opacity="0" result="BackgroundImageFix"/>
<feBlend mode="normal" in="SourceGraphic" in2="BackgroundImageFix" result="shape"/>
<feColorMatrix in="SourceAlpha" type="matrix" values="0 0 0 0 0 0 0 0 0 0 0 0 0 0 0 0 0 0 127 0" result="hardAlpha"/>
<feOffset dy="-1.00026"/>
<feComposite in2="hardAlpha" operator="arithmetic" k2="-1" k3="1"/>
<feColorMatrix type="matrix" values="0 0 0 0 0.682353 0 0 0 0 0.631373 0 0 0 0 0.831373 0 0 0 0.4 0"/>
<feBlend mode="normal" in2="shape" result="effect1_innerShadow_3202_46169"/>
</filter>
<filter id="filter9_d_3202_46169" x="113" y="-5.99805" width="868" height="599.998" filterUnits="userSpaceOnUse" color-interpolation-filters="sRGB">
<feFlood flood-opacity="0" result="BackgroundImageFix"/>
<feColorMatrix in="SourceAlpha" type="matrix" values="0 0 0 0 0 0 0 0 0 0 0 0 0 0 0 0 0 0 127 0" result="hardAlpha"/>
<feOffset dy="8"/>
<feGaussianBlur stdDeviation="40"/>
<feColorMatrix type="matrix" values="0 0 0 0 0.12549 0 0 0 0 0.164706 0 0 0 0 0.258824 0 0 0 0.12 0"/>
<feBlend mode="normal" in2="BackgroundImageFix" result="effect1_dropShadow_3202_46169"/>
<feBlend mode="normal" in="SourceGraphic" in2="effect1_dropShadow_3202_46169" result="shape"/>
</filter>
<filter id="filter10_d_3202_46169" x="228.5" y="65.502" width="677" height="448.998" filterUnits="userSpaceOnUse" color-interpolation-filters="sRGB">
<feFlood flood-opacity="0" result="BackgroundImageFix"/>
<feColorMatrix in="SourceAlpha" type="matrix" values="0 0 0 0 0 0 0 0 0 0 0 0 0 0 0 0 0 0 127 0" result="hardAlpha"/>
<feOffset dy="4"/>
<feGaussianBlur stdDeviation="8"/>
<feColorMatrix type="matrix" values="0 0 0 0 0.12549 0 0 0 0 0.164706 0 0 0 0 0.258824 0 0 0 0.16 0"/>
<feBlend mode="normal" in2="BackgroundImageFix" result="effect1_dropShadow_3202_46169"/>
<feBlend mode="normal" in="SourceGraphic" in2="effect1_dropShadow_3202_46169" result="shape"/>
</filter>
<filter id="filter11_ii_3202_46169" x="185" y="-2" width="724" height="516" filterUnits="userSpaceOnUse" color-interpolation-filters="sRGB">
<feFlood flood-opacity="0" result="BackgroundImageFix"/>
<feBlend mode="normal" in="SourceGraphic" in2="BackgroundImageFix" result="shape"/>
<feColorMatrix in="SourceAlpha" type="matrix" values="0 0 0 0 0 0 0 0 0 0 0 0 0 0 0 0 0 0 127 0" result="hardAlpha"/>
<feOffset dx="-2" dy="-2"/>
<feGaussianBlur stdDeviation="8"/>
<feComposite in2="hardAlpha" operator="arithmetic" k2="-1" k3="1"/>
<feColorMatrix type="matrix" values="0 0 0 0 0.0722355 0 0 0 0 0.286326 0 0 0 0 0.800145 0 0 0 0.08 0"/>
<feBlend mode="normal" in2="shape" result="effect1_innerShadow_3202_46169"/>
<feColorMatrix in="SourceAlpha" type="matrix" values="0 0 0 0 0 0 0 0 0 0 0 0 0 0 0 0 0 0 127 0" result="hardAlpha"/>
<feOffset dx="2" dy="2"/>
<feGaussianBlur stdDeviation="8"/>
<feComposite in2="hardAlpha" operator="arithmetic" k2="-1" k3="1"/>
<feColorMatrix type="matrix" values="0 0 0 0 1 0 0 0 0 0.3 0 0 0 0 0 0 0 0 0.04 0"/>
<feBlend mode="normal" in2="effect1_innerShadow_3202_46169" result="effect2_innerShadow_3202_46169"/>
</filter>
<clipPath id="clip0_3202_46169">
<rect width="443" height="388" fill="white" transform="translate(6 70)"/>
</clipPath>
<clipPath id="clip1_3202_46169">
<rect width="19.9481" height="20" fill="white" transform="translate(18.5974 102.002)"/>
</clipPath>
<clipPath id="clip2_3202_46169">
<rect width="64" height="36" fill="white" transform="translate(170 94.002)"/>
</clipPath>
<clipPath id="clip3_3202_46169">
<rect x="58" y="142.002" width="379" height="303.998" rx="4" fill="white"/>
</clipPath>
<clipPath id="clip4_3202_46169">
<rect width="443" height="388" fill="white" transform="translate(646 70)"/>
</clipPath>
<clipPath id="clip5_3202_46169">
<rect width="19.9481" height="20" fill="white" transform="translate(658.597 102.002)"/>
</clipPath>
<clipPath id="clip6_3202_46169">
<rect width="64" height="36" fill="white" transform="translate(810 94.002)"/>
</clipPath>
<clipPath id="clip7_3202_46169">
<rect x="698" y="142.002" width="379" height="303.998" rx="4" fill="white"/>
</clipPath>
<clipPath id="clip8_3202_46169">
<rect width="708" height="500" fill="white" transform="translate(193 6)"/>
</clipPath>
<clipPath id="clip9_3202_46169">
<rect width="19.9481" height="20" fill="white" transform="translate(205.597 38.002)"/>
</clipPath>
<clipPath id="clip10_3202_46169">
<rect width="64" height="36" fill="white" transform="translate(357 30.002)"/>
</clipPath>
<clipPath id="clip11_3202_46169">
<rect x="245" y="78.002" width="644" height="415.998" rx="4" fill="white"/>
</clipPath>
</defs>
</svg>
