<svg width="1088" height="576" viewBox="0 0 1088 576" fill="none" xmlns="http://www.w3.org/2000/svg">
<path d="M68.6963 32C68.6963 14.3269 83.0232 0 100.696 0H987.304C1004.98 0 1019.3 14.3269 1019.3 32V548H68.6963V32Z" fill="#202A42"/>
<g clip-path="url(#clip0_3202_46168)">
<g clip-path="url(#clip1_3202_46168)">
<rect width="902.608" height="500" transform="translate(92.6963 24)" fill="white"/>
<g clip-path="url(#clip2_3202_46168)">
<rect width="902.608" height="460" transform="translate(92.6963 92)" fill="#FAFAFA"/>
<g clip-path="url(#clip3_3202_46168)">
<path d="M213.96 228.2L200.628 259H193.588L180.3 228.2H188L197.372 250.2L206.876 228.2H213.96ZM215.978 235.328H222.842V259H215.978V235.328ZM219.41 232.028C218.148 232.028 217.122 231.661 216.33 230.928C215.538 230.195 215.142 229.285 215.142 228.2C215.142 227.115 215.538 226.205 216.33 225.472C217.122 224.739 218.148 224.372 219.41 224.372C220.671 224.372 221.698 224.724 222.49 225.428C223.282 226.132 223.678 227.012 223.678 228.068C223.678 229.212 223.282 230.165 222.49 230.928C221.698 231.661 220.671 232.028 219.41 232.028ZM235.268 238.452C236.089 237.308 237.189 236.443 238.568 235.856C239.976 235.269 241.589 234.976 243.408 234.976V241.312C242.645 241.253 242.132 241.224 241.868 241.224C239.903 241.224 238.363 241.781 237.248 242.896C236.133 243.981 235.576 245.624 235.576 247.824V259H228.712V235.328H235.268V238.452ZM263.074 257.856C262.399 258.355 261.563 258.736 260.566 259C259.598 259.235 258.571 259.352 257.486 259.352C254.67 259.352 252.484 258.633 250.93 257.196C249.404 255.759 248.642 253.647 248.642 250.86V241.136H244.99V235.856H248.642V230.092H255.506V235.856H261.402V241.136H255.506V250.772C255.506 251.769 255.755 252.547 256.254 253.104C256.782 253.632 257.515 253.896 258.454 253.896C259.539 253.896 260.463 253.603 261.226 253.016L263.074 257.856ZM290.275 235.328V259H283.763V256.184C282.853 257.211 281.768 258.003 280.507 258.56C279.245 259.088 277.881 259.352 276.415 259.352C273.305 259.352 270.841 258.457 269.023 256.668C267.204 254.879 266.295 252.224 266.295 248.704V235.328H273.159V247.692C273.159 251.505 274.757 253.412 277.955 253.412C279.597 253.412 280.917 252.884 281.915 251.828C282.912 250.743 283.411 249.144 283.411 247.032V235.328H290.275ZM305.682 234.976C309.348 234.976 312.164 235.856 314.13 237.616C316.095 239.347 317.078 241.972 317.078 245.492V259H310.654V256.052C309.363 258.252 306.958 259.352 303.438 259.352C301.619 259.352 300.035 259.044 298.686 258.428C297.366 257.812 296.354 256.961 295.65 255.876C294.946 254.791 294.594 253.559 294.594 252.18C294.594 249.98 295.415 248.249 297.058 246.988C298.73 245.727 301.296 245.096 304.758 245.096H310.214C310.214 243.6 309.759 242.456 308.85 241.664C307.94 240.843 306.576 240.432 304.758 240.432C303.496 240.432 302.25 240.637 301.018 241.048C299.815 241.429 298.788 241.957 297.938 242.632L295.474 237.836C296.764 236.927 298.304 236.223 300.094 235.724C301.912 235.225 303.775 234.976 305.682 234.976ZM305.154 254.732C306.327 254.732 307.368 254.468 308.278 253.94C309.187 253.383 309.832 252.576 310.214 251.52V249.1H305.506C302.69 249.1 301.282 250.024 301.282 251.872C301.282 252.752 301.619 253.456 302.294 253.984C302.998 254.483 303.951 254.732 305.154 254.732ZM322.79 226.352H329.654V259H322.79V226.352ZM376.217 228.2V259H369.089V246.372H355.097V259H347.969V228.2H355.097V240.344H369.089V228.2H376.217ZM405.709 247.252C405.709 247.34 405.665 247.956 405.577 249.1H387.669C387.991 250.567 388.754 251.725 389.957 252.576C391.159 253.427 392.655 253.852 394.445 253.852C395.677 253.852 396.762 253.676 397.701 253.324C398.669 252.943 399.563 252.356 400.385 251.564L404.037 255.524C401.807 258.076 398.551 259.352 394.269 259.352C391.599 259.352 389.238 258.839 387.185 257.812C385.131 256.756 383.547 255.304 382.433 253.456C381.318 251.608 380.761 249.511 380.761 247.164C380.761 244.847 381.303 242.764 382.389 240.916C383.503 239.039 385.014 237.587 386.921 236.56C388.857 235.504 391.013 234.976 393.389 234.976C395.706 234.976 397.803 235.475 399.681 236.472C401.558 237.469 403.025 238.907 404.081 240.784C405.166 242.632 405.709 244.788 405.709 247.252ZM393.433 240.168C391.878 240.168 390.573 240.608 389.517 241.488C388.461 242.368 387.815 243.571 387.581 245.096H399.241C399.006 243.6 398.361 242.412 397.305 241.532C396.249 240.623 394.958 240.168 393.433 240.168ZM418.682 234.976C422.348 234.976 425.164 235.856 427.13 237.616C429.095 239.347 430.078 241.972 430.078 245.492V259H423.654V256.052C422.363 258.252 419.958 259.352 416.438 259.352C414.619 259.352 413.035 259.044 411.686 258.428C410.366 257.812 409.354 256.961 408.65 255.876C407.946 254.791 407.594 253.559 407.594 252.18C407.594 249.98 408.415 248.249 410.058 246.988C411.73 245.727 414.296 245.096 417.758 245.096H423.214C423.214 243.6 422.759 242.456 421.85 241.664C420.94 240.843 419.576 240.432 417.758 240.432C416.496 240.432 415.25 240.637 414.018 241.048C412.815 241.429 411.788 241.957 410.938 242.632L408.474 237.836C409.764 236.927 411.304 236.223 413.094 235.724C414.912 235.225 416.775 234.976 418.682 234.976ZM418.154 254.732C419.327 254.732 420.368 254.468 421.278 253.94C422.187 253.383 422.832 252.576 423.214 251.52V249.1H418.506C415.69 249.1 414.282 250.024 414.282 251.872C414.282 252.752 414.619 253.456 415.294 253.984C415.998 254.483 416.951 254.732 418.154 254.732ZM442.346 238.452C443.167 237.308 444.267 236.443 445.646 235.856C447.054 235.269 448.667 234.976 450.486 234.976V241.312C449.723 241.253 449.21 241.224 448.946 241.224C446.981 241.224 445.441 241.781 444.326 242.896C443.211 243.981 442.654 245.624 442.654 247.824V259H435.79V235.328H442.346V238.452ZM454.067 235.328H460.931V259H454.067V235.328ZM457.499 232.028C456.238 232.028 455.211 231.661 454.419 230.928C453.627 230.195 453.231 229.285 453.231 228.2C453.231 227.115 453.627 226.205 454.419 225.472C455.211 224.739 456.238 224.372 457.499 224.372C458.761 224.372 459.787 224.724 460.579 225.428C461.371 226.132 461.767 227.012 461.767 228.068C461.767 229.212 461.371 230.165 460.579 230.928C459.787 231.661 458.761 232.028 457.499 232.028ZM481.19 234.976C484.123 234.976 486.484 235.856 488.274 237.616C490.092 239.376 491.002 241.987 491.002 245.448V259H484.138V246.504C484.138 244.627 483.727 243.233 482.906 242.324C482.084 241.385 480.896 240.916 479.342 240.916C477.611 240.916 476.232 241.459 475.206 242.544C474.179 243.6 473.666 245.184 473.666 247.296V259H466.802V235.328H473.358V238.1C474.267 237.103 475.396 236.34 476.746 235.812C478.095 235.255 479.576 234.976 481.19 234.976ZM521.401 235.328V255.04C521.401 259.381 520.272 262.608 518.013 264.72C515.755 266.832 512.455 267.888 508.113 267.888C505.825 267.888 503.655 267.609 501.601 267.052C499.548 266.495 497.847 265.688 496.497 264.632L499.225 259.704C500.223 260.525 501.484 261.171 503.009 261.64C504.535 262.139 506.06 262.388 507.585 262.388C509.961 262.388 511.707 261.845 512.821 260.76C513.965 259.704 514.537 258.091 514.537 255.92V254.908C512.748 256.873 510.255 257.856 507.057 257.856C504.887 257.856 502.892 257.387 501.073 256.448C499.284 255.48 497.861 254.131 496.805 252.4C495.749 250.669 495.221 248.675 495.221 246.416C495.221 244.157 495.749 242.163 496.805 240.432C497.861 238.701 499.284 237.367 501.073 236.428C502.892 235.46 504.887 234.976 507.057 234.976C510.489 234.976 513.1 236.105 514.889 238.364V235.328H521.401ZM508.421 252.224C510.24 252.224 511.721 251.696 512.865 250.64C514.039 249.555 514.625 248.147 514.625 246.416C514.625 244.685 514.039 243.292 512.865 242.236C511.721 241.151 510.24 240.608 508.421 240.608C506.603 240.608 505.107 241.151 503.933 242.236C502.76 243.292 502.173 244.685 502.173 246.416C502.173 248.147 502.76 249.555 503.933 250.64C505.107 251.696 506.603 252.224 508.421 252.224Z" fill="#2E3853"/>
<path d="M184.796 290.74V295.62H191.816V297.34H184.796V303H182.796V289H192.676V290.74H184.796ZM199.42 303.12C198.366 303.12 197.42 302.887 196.58 302.42C195.74 301.953 195.08 301.313 194.6 300.5C194.133 299.673 193.9 298.74 193.9 297.7C193.9 296.66 194.133 295.733 194.6 294.92C195.08 294.093 195.74 293.453 196.58 293C197.42 292.533 198.366 292.3 199.42 292.3C200.473 292.3 201.413 292.533 202.24 293C203.08 293.453 203.733 294.093 204.2 294.92C204.68 295.733 204.92 296.66 204.92 297.7C204.92 298.74 204.68 299.673 204.2 300.5C203.733 301.313 203.08 301.953 202.24 302.42C201.413 302.887 200.473 303.12 199.42 303.12ZM199.42 301.44C200.1 301.44 200.706 301.287 201.24 300.98C201.786 300.66 202.213 300.22 202.52 299.66C202.826 299.087 202.98 298.433 202.98 297.7C202.98 296.967 202.826 296.32 202.52 295.76C202.213 295.187 201.786 294.747 201.24 294.44C200.706 294.133 200.1 293.98 199.42 293.98C198.74 293.98 198.126 294.133 197.58 294.44C197.046 294.747 196.62 295.187 196.3 295.76C195.993 296.32 195.84 296.967 195.84 297.7C195.84 298.433 195.993 299.087 196.3 299.66C196.62 300.22 197.046 300.66 197.58 300.98C198.126 301.287 198.74 301.44 199.42 301.44ZM209.415 294.18C209.748 293.567 210.242 293.1 210.895 292.78C211.548 292.46 212.342 292.3 213.275 292.3V294.16C213.168 294.147 213.022 294.14 212.835 294.14C211.795 294.14 210.975 294.453 210.375 295.08C209.788 295.693 209.495 296.573 209.495 297.72V303H207.575V292.4H209.415V294.18ZM225.684 292.4V301.56C225.684 303.413 225.224 304.78 224.304 305.66C223.384 306.553 222.01 307 220.184 307C219.184 307 218.23 306.86 217.324 306.58C216.417 306.313 215.684 305.927 215.124 305.42L216.044 303.94C216.537 304.367 217.144 304.7 217.864 304.94C218.597 305.193 219.35 305.32 220.124 305.32C221.364 305.32 222.277 305.027 222.864 304.44C223.464 303.853 223.764 302.96 223.764 301.76V300.92C223.31 301.467 222.75 301.88 222.084 302.16C221.43 302.427 220.717 302.56 219.944 302.56C218.93 302.56 218.01 302.347 217.184 301.92C216.37 301.48 215.73 300.873 215.264 300.1C214.797 299.313 214.564 298.42 214.564 297.42C214.564 296.42 214.797 295.533 215.264 294.76C215.73 293.973 216.37 293.367 217.184 292.94C218.01 292.513 218.93 292.3 219.944 292.3C220.744 292.3 221.484 292.447 222.164 292.74C222.857 293.033 223.424 293.467 223.864 294.04V292.4H225.684ZM220.164 300.88C220.857 300.88 221.477 300.733 222.024 300.44C222.584 300.147 223.017 299.74 223.324 299.22C223.644 298.687 223.804 298.087 223.804 297.42C223.804 296.393 223.464 295.567 222.784 294.94C222.104 294.3 221.23 293.98 220.164 293.98C219.084 293.98 218.204 294.3 217.524 294.94C216.844 295.567 216.504 296.393 216.504 297.42C216.504 298.087 216.657 298.687 216.964 299.22C217.284 299.74 217.717 300.147 218.264 300.44C218.824 300.733 219.457 300.88 220.164 300.88ZM238.932 297.76C238.932 297.907 238.919 298.1 238.892 298.34H230.292C230.412 299.273 230.819 300.027 231.512 300.6C232.219 301.16 233.092 301.44 234.132 301.44C235.399 301.44 236.419 301.013 237.192 300.16L238.252 301.4C237.772 301.96 237.172 302.387 236.452 302.68C235.746 302.973 234.952 303.12 234.072 303.12C232.952 303.12 231.959 302.893 231.092 302.44C230.226 301.973 229.552 301.327 229.072 300.5C228.606 299.673 228.372 298.74 228.372 297.7C228.372 296.673 228.599 295.747 229.052 294.92C229.519 294.093 230.152 293.453 230.952 293C231.766 292.533 232.679 292.3 233.692 292.3C234.706 292.3 235.606 292.533 236.392 293C237.192 293.453 237.812 294.093 238.252 294.92C238.706 295.747 238.932 296.693 238.932 297.76ZM233.692 293.92C232.772 293.92 231.999 294.2 231.372 294.76C230.759 295.32 230.399 296.053 230.292 296.96H237.092C236.986 296.067 236.619 295.34 235.992 294.78C235.379 294.207 234.612 293.92 233.692 293.92ZM247.558 302.38C247.278 302.62 246.932 302.807 246.518 302.94C246.105 303.06 245.678 303.12 245.238 303.12C244.172 303.12 243.345 302.833 242.758 302.26C242.172 301.687 241.878 300.867 241.878 299.8V293.98H240.078V292.4H241.878V290.08H243.798V292.4H246.838V293.98H243.798V299.72C243.798 300.293 243.938 300.733 244.218 301.04C244.512 301.347 244.925 301.5 245.458 301.5C246.045 301.5 246.545 301.333 246.958 301L247.558 302.38ZM264.831 297.76C264.831 297.907 264.817 298.1 264.791 298.34H256.191C256.311 299.273 256.717 300.027 257.411 300.6C258.117 301.16 258.991 301.44 260.031 301.44C261.297 301.44 262.317 301.013 263.091 300.16L264.151 301.4C263.671 301.96 263.071 302.387 262.351 302.68C261.644 302.973 260.851 303.12 259.971 303.12C258.851 303.12 257.857 302.893 256.991 302.44C256.124 301.973 255.451 301.327 254.971 300.5C254.504 299.673 254.271 298.74 254.271 297.7C254.271 296.673 254.497 295.747 254.951 294.92C255.417 294.093 256.051 293.453 256.851 293C257.664 292.533 258.577 292.3 259.591 292.3C260.604 292.3 261.504 292.533 262.291 293C263.091 293.453 263.711 294.093 264.151 294.92C264.604 295.747 264.831 296.693 264.831 297.76ZM259.591 293.92C258.671 293.92 257.897 294.2 257.271 294.76C256.657 295.32 256.297 296.053 256.191 296.96H262.991C262.884 296.067 262.517 295.34 261.891 294.78C261.277 294.207 260.511 293.92 259.591 293.92ZM276.681 292.4L272.041 303H270.081L265.441 292.4H267.441L271.081 300.9L274.801 292.4H276.681ZM287.76 297.76C287.76 297.907 287.747 298.1 287.72 298.34H279.12C279.24 299.273 279.647 300.027 280.34 300.6C281.047 301.16 281.92 301.44 282.96 301.44C284.227 301.44 285.247 301.013 286.02 300.16L287.08 301.4C286.6 301.96 286 302.387 285.28 302.68C284.574 302.973 283.78 303.12 282.9 303.12C281.78 303.12 280.787 302.893 279.92 302.44C279.054 301.973 278.38 301.327 277.9 300.5C277.434 299.673 277.2 298.74 277.2 297.7C277.2 296.673 277.427 295.747 277.88 294.92C278.347 294.093 278.98 293.453 279.78 293C280.594 292.533 281.507 292.3 282.52 292.3C283.534 292.3 284.434 292.533 285.22 293C286.02 293.453 286.64 294.093 287.08 294.92C287.534 295.747 287.76 296.693 287.76 297.76ZM282.52 293.92C281.6 293.92 280.827 294.2 280.2 294.76C279.587 295.32 279.227 296.053 279.12 296.96H285.92C285.814 296.067 285.447 295.34 284.82 294.78C284.207 294.207 283.44 293.92 282.52 293.92ZM292.266 294.18C292.6 293.567 293.093 293.1 293.746 292.78C294.4 292.46 295.193 292.3 296.126 292.3V294.16C296.02 294.147 295.873 294.14 295.686 294.14C294.646 294.14 293.826 294.453 293.226 295.08C292.64 295.693 292.346 296.573 292.346 297.72V303H290.426V292.4H292.266V294.18ZM308.303 292.4L303.163 304.06C302.709 305.14 302.176 305.9 301.563 306.34C300.963 306.78 300.236 307 299.383 307C298.863 307 298.356 306.913 297.863 306.74C297.383 306.58 296.983 306.34 296.663 306.02L297.483 304.58C298.029 305.1 298.663 305.36 299.383 305.36C299.849 305.36 300.236 305.233 300.543 304.98C300.863 304.74 301.149 304.32 301.403 303.72L301.743 302.98L297.063 292.4H299.063L302.763 300.88L306.423 292.4H308.303ZM316.347 302.38C316.067 302.62 315.721 302.807 315.307 302.94C314.894 303.06 314.467 303.12 314.027 303.12C312.961 303.12 312.134 302.833 311.547 302.26C310.961 301.687 310.667 300.867 310.667 299.8V293.98H308.867V292.4H310.667V290.08H312.587V292.4H315.627V293.98H312.587V299.72C312.587 300.293 312.727 300.733 313.007 301.04C313.301 301.347 313.714 301.5 314.247 301.5C314.834 301.5 315.334 301.333 315.747 301L316.347 302.38ZM324.329 292.3C325.675 292.3 326.742 292.693 327.529 293.48C328.329 294.253 328.729 295.393 328.729 296.9V303H326.809V297.12C326.809 296.093 326.562 295.32 326.069 294.8C325.575 294.28 324.869 294.02 323.949 294.02C322.909 294.02 322.089 294.327 321.489 294.94C320.889 295.54 320.589 296.407 320.589 297.54V303H318.669V288.16H320.589V293.9C320.989 293.393 321.509 293 322.149 292.72C322.802 292.44 323.529 292.3 324.329 292.3ZM332.282 292.4H334.202V303H332.282V292.4ZM333.242 290.36C332.869 290.36 332.555 290.24 332.302 290C332.062 289.76 331.942 289.467 331.942 289.12C331.942 288.773 332.062 288.48 332.302 288.24C332.555 287.987 332.869 287.86 333.242 287.86C333.615 287.86 333.922 287.98 334.162 288.22C334.415 288.447 334.542 288.733 334.542 289.08C334.542 289.44 334.415 289.747 334.162 290C333.922 290.24 333.615 290.36 333.242 290.36ZM343.528 292.3C344.875 292.3 345.941 292.693 346.728 293.48C347.528 294.253 347.928 295.393 347.928 296.9V303H346.008V297.12C346.008 296.093 345.761 295.32 345.268 294.8C344.775 294.28 344.068 294.02 343.148 294.02C342.108 294.02 341.288 294.327 340.688 294.94C340.088 295.54 339.788 296.407 339.788 297.54V303H337.868V292.4H339.708V294C340.095 293.453 340.615 293.033 341.268 292.74C341.935 292.447 342.688 292.3 343.528 292.3ZM361.68 292.4V301.56C361.68 303.413 361.22 304.78 360.3 305.66C359.38 306.553 358.006 307 356.18 307C355.18 307 354.226 306.86 353.32 306.58C352.413 306.313 351.68 305.927 351.12 305.42L352.04 303.94C352.533 304.367 353.14 304.7 353.86 304.94C354.593 305.193 355.346 305.32 356.12 305.32C357.36 305.32 358.273 305.027 358.86 304.44C359.46 303.853 359.76 302.96 359.76 301.76V300.92C359.306 301.467 358.746 301.88 358.08 302.16C357.426 302.427 356.713 302.56 355.94 302.56C354.926 302.56 354.006 302.347 353.18 301.92C352.366 301.48 351.726 300.873 351.26 300.1C350.793 299.313 350.56 298.42 350.56 297.42C350.56 296.42 350.793 295.533 351.26 294.76C351.726 293.973 352.366 293.367 353.18 292.94C354.006 292.513 354.926 292.3 355.94 292.3C356.74 292.3 357.48 292.447 358.16 292.74C358.853 293.033 359.42 293.467 359.86 294.04V292.4H361.68ZM356.16 300.88C356.853 300.88 357.473 300.733 358.02 300.44C358.58 300.147 359.013 299.74 359.32 299.22C359.64 298.687 359.8 298.087 359.8 297.42C359.8 296.393 359.46 295.567 358.78 294.94C358.1 294.3 357.226 293.98 356.16 293.98C355.08 293.98 354.2 294.3 353.52 294.94C352.84 295.567 352.5 296.393 352.5 297.42C352.5 298.087 352.653 298.687 352.96 299.22C353.28 299.74 353.713 300.147 354.26 300.44C354.82 300.733 355.453 300.88 356.16 300.88ZM380.099 292.4L374.959 304.06C374.506 305.14 373.973 305.9 373.359 306.34C372.759 306.78 372.033 307 371.179 307C370.659 307 370.153 306.913 369.659 306.74C369.179 306.58 368.779 306.34 368.459 306.02L369.279 304.58C369.826 305.1 370.459 305.36 371.179 305.36C371.646 305.36 372.033 305.233 372.339 304.98C372.659 304.74 372.946 304.32 373.199 303.72L373.539 302.98L368.859 292.4H370.859L374.559 300.88L378.219 292.4H380.099ZM386.138 303.12C385.085 303.12 384.138 302.887 383.298 302.42C382.458 301.953 381.798 301.313 381.318 300.5C380.852 299.673 380.618 298.74 380.618 297.7C380.618 296.66 380.852 295.733 381.318 294.92C381.798 294.093 382.458 293.453 383.298 293C384.138 292.533 385.085 292.3 386.138 292.3C387.192 292.3 388.132 292.533 388.958 293C389.798 293.453 390.452 294.093 390.918 294.92C391.398 295.733 391.638 296.66 391.638 297.7C391.638 298.74 391.398 299.673 390.918 300.5C390.452 301.313 389.798 301.953 388.958 302.42C388.132 302.887 387.192 303.12 386.138 303.12ZM386.138 301.44C386.818 301.44 387.425 301.287 387.958 300.98C388.505 300.66 388.932 300.22 389.238 299.66C389.545 299.087 389.698 298.433 389.698 297.7C389.698 296.967 389.545 296.32 389.238 295.76C388.932 295.187 388.505 294.747 387.958 294.44C387.425 294.133 386.818 293.98 386.138 293.98C385.458 293.98 384.845 294.133 384.298 294.44C383.765 294.747 383.338 295.187 383.018 295.76C382.712 296.32 382.558 296.967 382.558 297.7C382.558 298.433 382.712 299.087 383.018 299.66C383.338 300.22 383.765 300.66 384.298 300.98C384.845 301.287 385.458 301.44 386.138 301.44ZM404.174 292.4V303H402.354V301.4C401.967 301.947 401.454 302.373 400.814 302.68C400.187 302.973 399.5 303.12 398.754 303.12C397.34 303.12 396.227 302.733 395.414 301.96C394.6 301.173 394.194 300.02 394.194 298.5V292.4H396.114V298.28C396.114 299.307 396.36 300.087 396.854 300.62C397.347 301.14 398.054 301.4 398.974 301.4C399.987 301.4 400.787 301.093 401.374 300.48C401.96 299.867 402.254 299 402.254 297.88V292.4H404.174ZM417.32 298.06L415.12 300.1V303H413.2V288.16H415.12V297.68L420.9 292.4H423.22L418.76 296.78L423.66 303H421.3L417.32 298.06ZM431.047 292.3C432.394 292.3 433.461 292.693 434.247 293.48C435.047 294.253 435.447 295.393 435.447 296.9V303H433.527V297.12C433.527 296.093 433.281 295.32 432.787 294.8C432.294 294.28 431.587 294.02 430.667 294.02C429.627 294.02 428.807 294.327 428.207 294.94C427.607 295.54 427.307 296.407 427.307 297.54V303H425.387V292.4H427.227V294C427.614 293.453 428.134 293.033 428.787 292.74C429.454 292.447 430.207 292.3 431.047 292.3ZM443.599 303.12C442.546 303.12 441.599 302.887 440.759 302.42C439.919 301.953 439.259 301.313 438.779 300.5C438.313 299.673 438.079 298.74 438.079 297.7C438.079 296.66 438.313 295.733 438.779 294.92C439.259 294.093 439.919 293.453 440.759 293C441.599 292.533 442.546 292.3 443.599 292.3C444.653 292.3 445.593 292.533 446.419 293C447.259 293.453 447.913 294.093 448.379 294.92C448.859 295.733 449.099 296.66 449.099 297.7C449.099 298.74 448.859 299.673 448.379 300.5C447.913 301.313 447.259 301.953 446.419 302.42C445.593 302.887 444.653 303.12 443.599 303.12ZM443.599 301.44C444.279 301.44 444.886 301.287 445.419 300.98C445.966 300.66 446.393 300.22 446.699 299.66C447.006 299.087 447.159 298.433 447.159 297.7C447.159 296.967 447.006 296.32 446.699 295.76C446.393 295.187 445.966 294.747 445.419 294.44C444.886 294.133 444.279 293.98 443.599 293.98C442.919 293.98 442.306 294.133 441.759 294.44C441.226 294.747 440.799 295.187 440.479 295.76C440.173 296.32 440.019 296.967 440.019 297.7C440.019 298.433 440.173 299.087 440.479 299.66C440.799 300.22 441.226 300.66 441.759 300.98C442.306 301.287 442.919 301.44 443.599 301.44ZM467.502 292.4L463.542 303H461.702L458.642 294.96L455.542 303H453.702L449.762 292.4H451.582L454.662 300.84L457.862 292.4H459.482L462.622 300.88L465.782 292.4H467.502ZM186.376 320.3C187.843 320.3 188.963 320.66 189.736 321.38C190.523 322.1 190.916 323.173 190.916 324.6V331H189.096V329.6C188.776 330.093 188.316 330.473 187.716 330.74C187.13 330.993 186.43 331.12 185.616 331.12C184.43 331.12 183.476 330.833 182.756 330.26C182.05 329.687 181.696 328.933 181.696 328C181.696 327.067 182.036 326.32 182.716 325.76C183.396 325.187 184.476 324.9 185.956 324.9H188.996V324.52C188.996 323.693 188.756 323.06 188.276 322.62C187.796 322.18 187.09 321.96 186.156 321.96C185.53 321.96 184.916 322.067 184.316 322.28C183.716 322.48 183.21 322.753 182.796 323.1L181.996 321.66C182.543 321.22 183.196 320.887 183.956 320.66C184.716 320.42 185.523 320.3 186.376 320.3ZM185.936 329.64C186.67 329.64 187.303 329.48 187.836 329.16C188.37 328.827 188.756 328.36 188.996 327.76V326.28H186.036C184.41 326.28 183.596 326.827 183.596 327.92C183.596 328.453 183.803 328.873 184.216 329.18C184.63 329.487 185.203 329.64 185.936 329.64ZM200.089 320.3C201.116 320.3 202.036 320.527 202.849 320.98C203.663 321.433 204.296 322.067 204.749 322.88C205.216 323.693 205.449 324.633 205.449 325.7C205.449 326.767 205.216 327.713 204.749 328.54C204.296 329.353 203.663 329.987 202.849 330.44C202.036 330.893 201.116 331.12 200.089 331.12C199.303 331.12 198.583 330.967 197.929 330.66C197.276 330.353 196.736 329.907 196.309 329.32V331H194.469V316.16H196.389V322C196.816 321.44 197.349 321.02 197.989 320.74C198.629 320.447 199.329 320.3 200.089 320.3ZM199.929 329.44C200.609 329.44 201.216 329.287 201.749 328.98C202.296 328.66 202.723 328.22 203.029 327.66C203.349 327.087 203.509 326.433 203.509 325.7C203.509 324.967 203.349 324.32 203.029 323.76C202.723 323.187 202.296 322.747 201.749 322.44C201.216 322.133 200.609 321.98 199.929 321.98C199.263 321.98 198.656 322.133 198.109 322.44C197.563 322.747 197.136 323.187 196.829 323.76C196.523 324.32 196.369 324.967 196.369 325.7C196.369 326.433 196.523 327.087 196.829 327.66C197.136 328.22 197.563 328.66 198.109 328.98C198.656 329.287 199.263 329.44 199.929 329.44ZM212.642 331.12C211.589 331.12 210.642 330.887 209.802 330.42C208.962 329.953 208.302 329.313 207.822 328.5C207.356 327.673 207.122 326.74 207.122 325.7C207.122 324.66 207.356 323.733 207.822 322.92C208.302 322.093 208.962 321.453 209.802 321C210.642 320.533 211.589 320.3 212.642 320.3C213.696 320.3 214.636 320.533 215.462 321C216.302 321.453 216.956 322.093 217.422 322.92C217.902 323.733 218.142 324.66 218.142 325.7C218.142 326.74 217.902 327.673 217.422 328.5C216.956 329.313 216.302 329.953 215.462 330.42C214.636 330.887 213.696 331.12 212.642 331.12ZM212.642 329.44C213.322 329.44 213.929 329.287 214.462 328.98C215.009 328.66 215.436 328.22 215.742 327.66C216.049 327.087 216.202 326.433 216.202 325.7C216.202 324.967 216.049 324.32 215.742 323.76C215.436 323.187 215.009 322.747 214.462 322.44C213.929 322.133 213.322 321.98 212.642 321.98C211.962 321.98 211.349 322.133 210.802 322.44C210.269 322.747 209.842 323.187 209.522 323.76C209.216 324.32 209.062 324.967 209.062 325.7C209.062 326.433 209.216 327.087 209.522 327.66C209.842 328.22 210.269 328.66 210.802 328.98C211.349 329.287 211.962 329.44 212.642 329.44ZM230.678 320.4V331H228.858V329.4C228.471 329.947 227.958 330.373 227.318 330.68C226.691 330.973 226.004 331.12 225.258 331.12C223.844 331.12 222.731 330.733 221.918 329.96C221.104 329.173 220.698 328.02 220.698 326.5V320.4H222.618V326.28C222.618 327.307 222.864 328.087 223.358 328.62C223.851 329.14 224.558 329.4 225.478 329.4C226.491 329.4 227.291 329.093 227.878 328.48C228.464 327.867 228.758 327 228.758 325.88V320.4H230.678ZM240.293 330.38C240.013 330.62 239.666 330.807 239.253 330.94C238.839 331.06 238.413 331.12 237.973 331.12C236.906 331.12 236.079 330.833 235.493 330.26C234.906 329.687 234.613 328.867 234.613 327.8V321.98H232.813V320.4H234.613V318.08H236.533V320.4H239.573V321.98H236.533V327.72C236.533 328.293 236.673 328.733 236.953 329.04C237.246 329.347 237.659 329.5 238.193 329.5C238.779 329.5 239.279 329.333 239.693 329L240.293 330.38ZM252.605 331.12C251.525 331.12 250.558 330.887 249.705 330.42C248.865 329.953 248.205 329.313 247.725 328.5C247.245 327.673 247.005 326.74 247.005 325.7C247.005 324.66 247.245 323.733 247.725 322.92C248.205 322.093 248.865 321.453 249.705 321C250.558 320.533 251.525 320.3 252.605 320.3C253.565 320.3 254.418 320.493 255.165 320.88C255.925 321.267 256.512 321.827 256.925 322.56L255.465 323.5C255.132 322.993 254.718 322.613 254.225 322.36C253.732 322.107 253.185 321.98 252.585 321.98C251.892 321.98 251.265 322.133 250.705 322.44C250.158 322.747 249.725 323.187 249.405 323.76C249.098 324.32 248.945 324.967 248.945 325.7C248.945 326.447 249.098 327.107 249.405 327.68C249.725 328.24 250.158 328.673 250.705 328.98C251.265 329.287 251.892 329.44 252.585 329.44C253.185 329.44 253.732 329.313 254.225 329.06C254.718 328.807 255.132 328.427 255.465 327.92L256.925 328.84C256.512 329.573 255.925 330.14 255.165 330.54C254.418 330.927 253.565 331.12 252.605 331.12ZM263.795 331.12C262.741 331.12 261.795 330.887 260.955 330.42C260.115 329.953 259.455 329.313 258.975 328.5C258.508 327.673 258.275 326.74 258.275 325.7C258.275 324.66 258.508 323.733 258.975 322.92C259.455 322.093 260.115 321.453 260.955 321C261.795 320.533 262.741 320.3 263.795 320.3C264.848 320.3 265.788 320.533 266.615 321C267.455 321.453 268.108 322.093 268.575 322.92C269.055 323.733 269.295 324.66 269.295 325.7C269.295 326.74 269.055 327.673 268.575 328.5C268.108 329.313 267.455 329.953 266.615 330.42C265.788 330.887 264.848 331.12 263.795 331.12ZM263.795 329.44C264.475 329.44 265.081 329.287 265.615 328.98C266.161 328.66 266.588 328.22 266.895 327.66C267.201 327.087 267.355 326.433 267.355 325.7C267.355 324.967 267.201 324.32 266.895 323.76C266.588 323.187 266.161 322.747 265.615 322.44C265.081 322.133 264.475 321.98 263.795 321.98C263.115 321.98 262.501 322.133 261.955 322.44C261.421 322.747 260.995 323.187 260.675 323.76C260.368 324.32 260.215 324.967 260.215 325.7C260.215 326.433 260.368 327.087 260.675 327.66C260.995 328.22 261.421 328.66 261.955 328.98C262.501 329.287 263.115 329.44 263.795 329.44ZM281.83 320.4V331H280.01V329.4C279.623 329.947 279.11 330.373 278.47 330.68C277.843 330.973 277.157 331.12 276.41 331.12C274.997 331.12 273.883 330.733 273.07 329.96C272.257 329.173 271.85 328.02 271.85 326.5V320.4H273.77V326.28C273.77 327.307 274.017 328.087 274.51 328.62C275.003 329.14 275.71 329.4 276.63 329.4C277.643 329.4 278.443 329.093 279.03 328.48C279.617 327.867 279.91 327 279.91 325.88V320.4H281.83ZM287.325 322.18C287.658 321.567 288.152 321.1 288.805 320.78C289.458 320.46 290.252 320.3 291.185 320.3V322.16C291.078 322.147 290.932 322.14 290.745 322.14C289.705 322.14 288.885 322.453 288.285 323.08C287.698 323.693 287.405 324.573 287.405 325.72V331H285.485V320.4H287.325V322.18ZM299.941 330.38C299.661 330.62 299.314 330.807 298.901 330.94C298.488 331.06 298.061 331.12 297.621 331.12C296.554 331.12 295.728 330.833 295.141 330.26C294.554 329.687 294.261 328.867 294.261 327.8V321.98H292.461V320.4H294.261V318.08H296.181V320.4H299.221V321.98H296.181V327.72C296.181 328.293 296.321 328.733 296.601 329.04C296.894 329.347 297.308 329.5 297.841 329.5C298.428 329.5 298.928 329.333 299.341 329L299.941 330.38ZM304.102 322.18C304.436 321.567 304.929 321.1 305.582 320.78C306.236 320.46 307.029 320.3 307.962 320.3V322.16C307.856 322.147 307.709 322.14 307.522 322.14C306.482 322.14 305.662 322.453 305.062 323.08C304.476 323.693 304.182 324.573 304.182 325.72V331H302.262V320.4H304.102V322.18ZM314.771 331.12C313.718 331.12 312.771 330.887 311.931 330.42C311.091 329.953 310.431 329.313 309.951 328.5C309.484 327.673 309.251 326.74 309.251 325.7C309.251 324.66 309.484 323.733 309.951 322.92C310.431 322.093 311.091 321.453 311.931 321C312.771 320.533 313.718 320.3 314.771 320.3C315.824 320.3 316.764 320.533 317.591 321C318.431 321.453 319.084 322.093 319.551 322.92C320.031 323.733 320.271 324.66 320.271 325.7C320.271 326.74 320.031 327.673 319.551 328.5C319.084 329.313 318.431 329.953 317.591 330.42C316.764 330.887 315.824 331.12 314.771 331.12ZM314.771 329.44C315.451 329.44 316.058 329.287 316.591 328.98C317.138 328.66 317.564 328.22 317.871 327.66C318.178 327.087 318.331 326.433 318.331 325.7C318.331 324.967 318.178 324.32 317.871 323.76C317.564 323.187 317.138 322.747 316.591 322.44C316.058 322.133 315.451 321.98 314.771 321.98C314.091 321.98 313.478 322.133 312.931 322.44C312.398 322.747 311.971 323.187 311.651 323.76C311.344 324.32 311.191 324.967 311.191 325.7C311.191 326.433 311.344 327.087 311.651 327.66C311.971 328.22 312.398 328.66 312.931 328.98C313.478 329.287 314.091 329.44 314.771 329.44ZM327.466 331.12C326.413 331.12 325.466 330.887 324.626 330.42C323.786 329.953 323.126 329.313 322.646 328.5C322.18 327.673 321.946 326.74 321.946 325.7C321.946 324.66 322.18 323.733 322.646 322.92C323.126 322.093 323.786 321.453 324.626 321C325.466 320.533 326.413 320.3 327.466 320.3C328.52 320.3 329.46 320.533 330.286 321C331.126 321.453 331.78 322.093 332.246 322.92C332.726 323.733 332.966 324.66 332.966 325.7C332.966 326.74 332.726 327.673 332.246 328.5C331.78 329.313 331.126 329.953 330.286 330.42C329.46 330.887 328.52 331.12 327.466 331.12ZM327.466 329.44C328.146 329.44 328.753 329.287 329.286 328.98C329.833 328.66 330.26 328.22 330.566 327.66C330.873 327.087 331.026 326.433 331.026 325.7C331.026 324.967 330.873 324.32 330.566 323.76C330.26 323.187 329.833 322.747 329.286 322.44C328.753 322.133 328.146 321.98 327.466 321.98C326.786 321.98 326.173 322.133 325.626 322.44C325.093 322.747 324.666 323.187 324.346 323.76C324.04 324.32 323.886 324.967 323.886 325.7C323.886 326.433 324.04 327.087 324.346 327.66C324.666 328.22 325.093 328.66 325.626 328.98C326.173 329.287 326.786 329.44 327.466 329.44ZM348.882 320.3C350.215 320.3 351.268 320.687 352.042 321.46C352.828 322.233 353.222 323.38 353.222 324.9V331H351.302V325.12C351.302 324.093 351.062 323.32 350.582 322.8C350.115 322.28 349.442 322.02 348.562 322.02C347.588 322.02 346.815 322.327 346.242 322.94C345.668 323.54 345.382 324.407 345.382 325.54V331H343.462V325.12C343.462 324.093 343.222 323.32 342.742 322.8C342.275 322.28 341.602 322.02 340.722 322.02C339.748 322.02 338.975 322.327 338.402 322.94C337.828 323.54 337.542 324.407 337.542 325.54V331H335.622V320.4H337.462V321.98C337.848 321.433 338.355 321.02 338.982 320.74C339.608 320.447 340.322 320.3 341.122 320.3C341.948 320.3 342.682 320.467 343.322 320.8C343.962 321.133 344.455 321.62 344.802 322.26C345.202 321.647 345.755 321.167 346.462 320.82C347.182 320.473 347.988 320.3 348.882 320.3ZM359.795 331.12C358.928 331.12 358.095 331.007 357.295 330.78C356.495 330.54 355.868 330.24 355.415 329.88L356.215 328.36C356.681 328.693 357.248 328.96 357.915 329.16C358.581 329.36 359.255 329.46 359.935 329.46C361.615 329.46 362.455 328.98 362.455 328.02C362.455 327.7 362.341 327.447 362.115 327.26C361.888 327.073 361.601 326.94 361.255 326.86C360.921 326.767 360.441 326.667 359.815 326.56C358.961 326.427 358.261 326.273 357.715 326.1C357.181 325.927 356.721 325.633 356.335 325.22C355.948 324.807 355.755 324.227 355.755 323.48C355.755 322.52 356.155 321.753 356.955 321.18C357.755 320.593 358.828 320.3 360.175 320.3C360.881 320.3 361.588 320.387 362.295 320.56C363.001 320.733 363.581 320.967 364.035 321.26L363.215 322.78C362.348 322.22 361.328 321.94 360.155 321.94C359.341 321.94 358.721 322.073 358.295 322.34C357.868 322.607 357.655 322.96 357.655 323.4C357.655 323.747 357.775 324.02 358.015 324.22C358.255 324.42 358.548 324.567 358.895 324.66C359.255 324.753 359.755 324.86 360.395 324.98C361.248 325.127 361.935 325.287 362.455 325.46C362.988 325.62 363.441 325.9 363.815 326.3C364.188 326.7 364.375 327.26 364.375 327.98C364.375 328.94 363.961 329.707 363.135 330.28C362.321 330.84 361.208 331.12 359.795 331.12Z" fill="#2E3853"/>
</g>
<g filter="url(#filter0_d_3202_46168)">
<g clip-path="url(#clip4_3202_46168)">
<path d="M661.281 551.797V282.174H623.969V551.797H661.281Z" fill="#EEEEEE"/>
<path d="M1130.07 169.464H591.696V196.796H1130.07V169.464Z" fill="#464775"/>
<path d="M1130.07 196.796H623.961V224.128H1130.07V196.796Z" fill="#EEEEEE"/>
<path d="M661.265 282.188H755.032V247.35H661.265V282.188Z" fill="#EEEEEE"/>
<path fill-rule="evenodd" clip-rule="evenodd" d="M755.219 282.374H661.078V247.164H755.219V282.374ZM754.845 282.001V247.537H661.452V282.001H754.845Z" fill="#D5D5D5"/>
<path d="M755.017 282.188H848.784V247.35H755.017V282.188Z" fill="#EEEEEE"/>
<path fill-rule="evenodd" clip-rule="evenodd" d="M848.971 282.374H754.83V247.164H848.971V282.374ZM848.597 282.001V247.537H755.204V282.001H848.597Z" fill="#D5D5D5"/>
<path d="M848.769 282.188H942.536V247.35H848.769V282.188Z" fill="#FAFAFA"/>
<path fill-rule="evenodd" clip-rule="evenodd" d="M942.722 282.374H848.582V247.164H942.722V282.374ZM942.349 282.001V247.537H848.956V282.001H942.349Z" fill="#D5D5D5"/>
<path d="M942.558 282.188H1036.32V247.35H942.558V282.188Z" fill="#EEEEEE"/>
<path fill-rule="evenodd" clip-rule="evenodd" d="M1036.51 282.374H942.371V247.164H1036.51V282.374ZM1036.14 282.001V247.537H942.745V282.001H1036.14Z" fill="#D5D5D5"/>
<path d="M661.274 247.354H623.961V282.191H661.274V247.354Z" fill="#EEEEEE"/>
<path fill-rule="evenodd" clip-rule="evenodd" d="M623.774 247.166H661.461V282.376H623.774V247.166ZM624.148 247.539V282.003H661.087V247.539H624.148Z" fill="#D5D5D5"/>
<path d="M755.04 497.896H661.273V551.813H755.04V497.896Z" fill="#FAFAFA"/>
<path fill-rule="evenodd" clip-rule="evenodd" d="M661.087 497.709H755.227V552H661.087V497.709ZM661.461 498.082V551.626H754.853V498.082H661.461Z" fill="#D5D5D5"/>
<path d="M755.04 443.979H661.273V497.896H755.04V443.979Z" fill="#FAFAFA"/>
<path fill-rule="evenodd" clip-rule="evenodd" d="M661.087 443.792H755.227V498.083H661.087V443.792ZM661.461 444.165V497.709H754.853V444.165H661.461Z" fill="#D5D5D5"/>
<path d="M755.04 390.024H661.273V443.942H755.04V390.024Z" fill="#FAFAFA"/>
<path fill-rule="evenodd" clip-rule="evenodd" d="M661.087 389.838H755.227V444.128H661.087V389.838ZM661.461 390.211V443.755H754.853V390.211H661.461Z" fill="#D5D5D5"/>
<path d="M755.04 336.106H661.273V390.024H755.04V336.106Z" fill="#FAFAFA"/>
<path fill-rule="evenodd" clip-rule="evenodd" d="M661.087 335.92H755.227V390.211H661.087V335.92ZM661.461 336.293V389.837H754.853V336.293H661.461Z" fill="#D5D5D5"/>
<path d="M755.04 282.189H661.273V336.107H755.04V282.189Z" fill="#FAFAFA"/>
<path fill-rule="evenodd" clip-rule="evenodd" d="M661.087 282.003H755.227V336.294H661.087V282.003ZM661.46 282.376V335.92H754.853V282.376H661.46Z" fill="#D5D5D5"/>
<path d="M848.807 497.896H755.04V551.813H848.807V497.896Z" fill="#FAFAFA"/>
<path fill-rule="evenodd" clip-rule="evenodd" d="M754.853 497.709H848.994V552H754.853V497.709ZM755.227 498.082V551.626H848.62V498.082H755.227Z" fill="#D5D5D5"/>
<path d="M848.807 443.979H755.04V497.896H848.807V443.979Z" fill="#FAFAFA"/>
<path fill-rule="evenodd" clip-rule="evenodd" d="M754.853 443.792H848.994V498.083H754.853V443.792ZM755.227 444.165V497.709H848.62V444.165H755.227Z" fill="#D5D5D5"/>
<path d="M848.807 390.024H755.04V443.942H848.807V390.024Z" fill="#FAFAFA"/>
<path fill-rule="evenodd" clip-rule="evenodd" d="M754.853 389.838H848.994V444.128H754.853V389.838ZM755.227 390.211V443.755H848.62V390.211H755.227Z" fill="#D5D5D5"/>
<path d="M848.807 336.106H755.04V390.024H848.807V336.106Z" fill="#FAFAFA"/>
<path fill-rule="evenodd" clip-rule="evenodd" d="M754.853 335.92H848.994V390.211H754.853V335.92ZM755.227 336.293V389.837H848.62V336.293H755.227Z" fill="#D5D5D5"/>
<path d="M848.807 282.189H755.04V336.107H848.807V282.189Z" fill="#FAFAFA"/>
<path fill-rule="evenodd" clip-rule="evenodd" d="M754.853 282.003H848.994V336.294H754.853V282.003ZM755.227 282.376V335.92H848.62V282.376H755.227Z" fill="#D5D5D5"/>
<path d="M942.573 497.896H848.807V551.813H942.573V497.896Z" fill="#FAFAFA"/>
<path fill-rule="evenodd" clip-rule="evenodd" d="M848.62 497.709H942.76V552H848.62V497.709ZM848.993 498.082V551.626H942.386V498.082H848.993Z" fill="#D5D5D5"/>
<path d="M942.573 443.979H848.807V497.896H942.573V443.979Z" fill="#FAFAFA"/>
<path fill-rule="evenodd" clip-rule="evenodd" d="M848.62 443.792H942.76V498.083H848.62V443.792ZM848.993 444.165V497.709H942.386V444.165H848.993Z" fill="#D5D5D5"/>
<path d="M942.573 390.024H848.807V443.942H942.573V390.024Z" fill="#FAFAFA"/>
<path fill-rule="evenodd" clip-rule="evenodd" d="M848.62 389.838H942.76V444.128H848.62V389.838ZM848.993 390.211V443.755H942.386V390.211H848.993Z" fill="#D5D5D5"/>
<path d="M942.573 336.106H848.807V390.024H942.573V336.106Z" fill="#FAFAFA"/>
<path fill-rule="evenodd" clip-rule="evenodd" d="M848.62 335.92H942.76V390.211H848.62V335.92ZM848.993 336.293V389.837H942.386V336.293H848.993Z" fill="#D5D5D5"/>
<path d="M942.573 282.189H848.807V336.107H942.573V282.189Z" fill="#FAFAFA"/>
<path fill-rule="evenodd" clip-rule="evenodd" d="M848.62 282.003H942.76V336.294H848.62V282.003ZM848.994 282.376V335.92H942.386V282.376H848.994Z" fill="#D5D5D5"/>
<path d="M1036.3 497.896H942.536V551.813H1036.3V497.896Z" fill="#FAFAFA"/>
<path fill-rule="evenodd" clip-rule="evenodd" d="M942.349 497.709H1036.49V552H942.349V497.709ZM942.723 498.082V551.626H1036.12V498.082H942.723Z" fill="#D5D5D5"/>
<path d="M1036.3 443.979H942.536V497.896H1036.3V443.979Z" fill="#FAFAFA"/>
<path fill-rule="evenodd" clip-rule="evenodd" d="M942.349 443.792H1036.49V498.083H942.349V443.792ZM942.723 444.165V497.709H1036.12V444.165H942.723Z" fill="#D5D5D5"/>
<path d="M1036.3 390.024H942.536V443.942H1036.3V390.024Z" fill="#FAFAFA"/>
<path fill-rule="evenodd" clip-rule="evenodd" d="M942.349 389.838H1036.49V444.128H942.349V389.838ZM942.723 390.211V443.755H1036.12V390.211H942.723Z" fill="#D5D5D5"/>
<path d="M1036.3 336.106H942.536V390.024H1036.3V336.106Z" fill="#FAFAFA"/>
<path fill-rule="evenodd" clip-rule="evenodd" d="M942.349 335.92H1036.49V390.211H942.349V335.92ZM942.723 336.293V389.837H1036.12V336.293H942.723Z" fill="#D5D5D5"/>
<path d="M1036.3 282.189H942.536V336.107H1036.3V282.189Z" fill="#FAFAFA"/>
<path fill-rule="evenodd" clip-rule="evenodd" d="M942.349 282.003H1036.49V336.294H942.349V282.003ZM942.723 282.376V335.92H1036.12V282.376H942.723Z" fill="#D5D5D5"/>
<path d="M1130.07 224.128H623.961V247.353H1130.07V224.128Z" fill="#FAFAFA"/>
<path d="M623.936 551.801L623.936 196.784H591.671L591.671 551.801H623.936Z" fill="#33344A"/>
<path d="M1007.03 190.934H748.46C747.488 190.934 746.703 190.15 746.703 189.179V177.081C746.703 176.11 747.488 175.326 748.46 175.326H1007.07C1008.04 175.326 1008.82 176.11 1008.82 177.081V189.142C1008.79 190.15 1008 190.934 1007.03 190.934Z" fill="#FAFAFA"/>
<path fill-rule="evenodd" clip-rule="evenodd" d="M612.855 178.908C613.001 178.762 613.237 178.762 613.383 178.908L616.823 182.343C617.268 182.788 617.268 183.472 616.823 183.917L613.383 187.352C613.237 187.498 613.001 187.498 612.855 187.352C612.709 187.206 612.709 186.97 612.855 186.824L616.294 183.389C616.447 183.236 616.447 183.024 616.294 182.871L612.855 179.436C612.709 179.29 612.709 179.054 612.855 178.908Z" fill="#BDBDBD"/>
<path fill-rule="evenodd" clip-rule="evenodd" d="M602.803 178.908C602.949 179.054 602.949 179.29 602.803 179.436L599.363 182.871C599.21 183.024 599.21 183.236 599.363 183.389L599.365 183.39L599.365 183.39L602.767 186.825C602.912 186.972 602.911 187.208 602.764 187.354C602.617 187.499 602.38 187.497 602.235 187.351L598.834 183.917C598.834 183.917 598.834 183.916 598.834 183.916C598.389 183.472 598.39 182.788 598.834 182.343L602.274 178.908C602.42 178.762 602.657 178.762 602.803 178.908Z" fill="#BDBDBD"/>
<g opacity="0.5">
<path opacity="0.5" d="M607.81 225.51C612.951 225.51 617.119 221.347 617.119 216.212C617.119 211.078 612.951 206.915 607.81 206.915C602.669 206.915 598.501 211.078 598.501 216.212C598.501 221.347 602.669 225.51 607.81 225.51Z" fill="#286F90"/>
<path opacity="0.5" d="M607.81 256.65C612.952 256.65 617.119 252.488 617.119 247.353C617.119 242.218 612.952 238.056 607.81 238.056C602.669 238.056 598.501 242.218 598.501 247.353C598.501 252.488 602.669 256.65 607.81 256.65Z" fill="#286F90"/>
<path opacity="0.5" d="M607.81 287.791C612.952 287.791 617.119 283.628 617.119 278.494C617.119 273.359 612.952 269.196 607.81 269.196C602.669 269.196 598.501 273.359 598.501 278.494C598.501 283.628 602.669 287.791 607.81 287.791Z" fill="#286F90"/>
<path opacity="0.5" d="M607.81 318.932C612.952 318.932 617.119 314.769 617.119 309.634C617.119 304.499 612.952 300.337 607.81 300.337C602.669 300.337 598.501 304.499 598.501 309.634C598.501 314.769 602.669 318.932 607.81 318.932Z" fill="#286F90"/>
<path opacity="0.5" d="M607.81 350.072C612.952 350.072 617.119 345.91 617.119 340.775C617.119 335.64 612.952 331.478 607.81 331.478C602.669 331.478 598.501 335.64 598.501 340.775C598.501 345.91 602.669 350.072 607.81 350.072Z" fill="#286F90"/>
<path opacity="0.5" d="M607.81 512.533C612.952 512.533 617.119 508.371 617.119 503.236C617.119 498.101 612.952 493.938 607.81 493.938C602.669 493.938 598.501 498.101 598.501 503.236C598.501 508.371 602.669 512.533 607.81 512.533Z" fill="#286F90"/>
</g>
<path d="M593.79 262.773H591.696V294.25H593.79V262.773Z" fill="#FAFAFA"/>
<path d="M652.076 218.341H637.458C637.159 218.341 636.897 218.079 636.897 217.781V203.181C636.897 202.882 637.159 202.621 637.458 202.621H652.076C652.375 202.621 652.637 202.882 652.637 203.181V217.781C652.637 218.079 652.375 218.341 652.076 218.341Z" fill="#0073CC"/>
<path d="M708.306 212.329H658.133C657.909 212.329 657.759 212.142 657.759 211.955V208.968C657.759 208.744 657.946 208.595 658.133 208.595H708.344C708.568 208.595 708.718 208.781 708.718 208.968V211.955C708.718 212.179 708.531 212.329 708.306 212.329Z" fill="#BDBDBD"/>
<path fill-rule="evenodd" clip-rule="evenodd" d="M764.877 234.133C765.022 234.28 765.02 234.517 764.873 234.661L761.808 237.686C761.661 237.831 761.424 237.829 761.279 237.683C761.134 237.536 761.135 237.3 761.282 237.155L764.348 234.13C764.495 233.985 764.732 233.987 764.877 234.133Z" fill="#BDBDBD"/>
<path fill-rule="evenodd" clip-rule="evenodd" d="M758.214 234.133C758.359 233.987 758.595 233.985 758.742 234.13L761.808 237.155C761.955 237.3 761.956 237.536 761.811 237.683C761.666 237.829 761.429 237.831 761.283 237.686L758.217 234.661C758.07 234.517 758.068 234.28 758.214 234.133Z" fill="#BDBDBD"/>
<path fill-rule="evenodd" clip-rule="evenodd" d="M694.356 231.441C694.648 231.15 695.121 231.15 695.413 231.441L699.339 235.362C699.631 235.654 699.631 236.126 699.339 236.418C699.047 236.71 698.573 236.71 698.281 236.418L694.356 232.497C694.064 232.206 694.064 231.733 694.356 231.441Z" fill="#BDBDBD"/>
<path fill-rule="evenodd" clip-rule="evenodd" d="M699.336 235.36C699.63 235.65 699.632 236.123 699.341 236.416L695.416 240.374C695.125 240.667 694.652 240.669 694.358 240.379C694.065 240.089 694.063 239.616 694.353 239.323L698.279 235.365C698.569 235.072 699.043 235.07 699.336 235.36Z" fill="#BDBDBD"/>
<path fill-rule="evenodd" clip-rule="evenodd" d="M684.05 231.444C684.341 231.737 684.338 232.21 684.045 232.5L680.082 236.421C679.789 236.711 679.315 236.709 679.025 236.416C678.734 236.123 678.736 235.65 679.03 235.359L682.993 231.439C683.286 231.149 683.759 231.151 684.05 231.444Z" fill="#BDBDBD"/>
<path fill-rule="evenodd" clip-rule="evenodd" d="M679.027 235.362C679.319 235.071 679.793 235.071 680.085 235.362L684.048 239.32C684.34 239.612 684.34 240.085 684.048 240.376C683.756 240.668 683.282 240.668 682.99 240.376L679.027 236.418C678.735 236.127 678.735 235.654 679.027 235.362Z" fill="#BDBDBD"/>
<path d="M666.395 237.01H637.271C637.047 237.01 636.897 236.823 636.897 236.636V235.18C636.897 234.956 637.084 234.807 637.271 234.807H666.395C666.62 234.807 666.769 234.993 666.769 235.18V236.636C666.807 236.86 666.62 237.01 666.395 237.01Z" fill="#DBDBDB"/>
<path d="M753.993 237.047H711.671C711.447 237.047 711.297 236.86 711.297 236.674V235.18C711.297 234.956 711.484 234.807 711.671 234.807H753.956C754.18 234.807 754.33 234.993 754.33 235.18V236.674C754.367 236.86 754.18 237.047 753.993 237.047Z" fill="#DBDBDB"/>
<path d="M628.336 300.859H656.75C657.161 300.859 657.497 301.195 657.497 301.606V302.353C657.497 302.764 657.161 303.1 656.75 303.1H628.336C627.924 303.1 627.588 302.764 627.588 302.353V301.606C627.588 301.195 627.887 300.859 628.336 300.859Z" fill="#DBDBDB"/>
<path d="M628.335 354.776H656.75C657.161 354.776 657.497 355.112 657.497 355.523V356.27C657.497 356.681 657.161 357.017 656.75 357.017H628.335C627.924 357.017 627.588 356.681 627.588 356.27V355.523C627.588 355.112 627.887 354.776 628.335 354.776Z" fill="#DBDBDB"/>
<path d="M628.335 408.694H656.75C657.161 408.694 657.497 409.03 657.497 409.441V410.188C657.497 410.599 657.161 410.935 656.75 410.935H628.335C627.924 410.935 627.588 410.599 627.588 410.188V409.441C627.588 409.03 627.887 408.694 628.335 408.694Z" fill="#DBDBDB"/>
<path d="M628.335 462.648H656.75C657.161 462.648 657.497 462.984 657.497 463.395V464.142C657.497 464.553 657.161 464.889 656.75 464.889H628.335C627.924 464.889 627.588 464.553 627.588 464.142V463.395C627.588 462.947 627.887 462.648 628.335 462.648Z" fill="#DBDBDB"/>
<path d="M628.335 516.565H656.75C657.161 516.565 657.497 516.901 657.497 517.312V518.059C657.497 518.47 657.161 518.806 656.75 518.806H628.335C627.924 518.806 627.588 518.47 627.588 518.059V517.312C627.588 516.901 627.887 516.565 628.335 516.565Z" fill="#DBDBDB"/>
<path d="M664.339 300.859H751.937C752.348 300.859 752.685 301.195 752.685 301.606V314.563C752.685 314.973 752.348 315.31 751.937 315.31H664.339C663.928 315.31 663.592 314.973 663.592 314.563V301.606C663.592 301.195 663.928 300.859 664.339 300.859Z" fill="#E2E2F4"/>
<path d="M667.629 300.859H664.339C663.928 300.859 663.592 301.195 663.592 301.606V314.563C663.592 314.973 663.928 315.31 664.339 315.31H667.629V300.859Z" fill="#6265A2"/>
<path d="M664.339 466.867H751.937C752.348 466.867 752.685 467.203 752.685 467.614V480.571C752.685 480.981 752.348 481.317 751.937 481.317H664.339C663.928 481.317 663.592 480.981 663.592 480.571V467.614C663.592 467.203 663.928 466.867 664.339 466.867Z" fill="#E2E2F4"/>
<path d="M664.339 466.867H667.629V481.317H664.339C663.928 481.317 663.592 480.981 663.592 480.571V467.614C663.592 467.203 663.928 466.867 664.339 466.867Z" fill="#6265A2"/>
<path d="M664.339 390.024H751.937C752.348 390.024 752.685 390.36 752.685 390.771V443.195C752.685 443.606 752.348 443.942 751.937 443.942H664.339C663.928 443.942 663.592 443.606 663.592 443.195V390.771C663.592 390.36 663.928 390.024 664.339 390.024Z" fill="#E2E2F4"/>
<path d="M664.339 390.024H667.629V443.942H664.339C663.928 443.942 663.592 443.606 663.592 443.195V390.771C663.592 390.36 663.928 390.024 664.339 390.024Z" fill="#6265A2"/>
<path d="M758.106 443.941H845.704C846.115 443.941 846.451 444.277 846.451 444.688V497.112C846.451 497.523 846.115 497.859 845.704 497.859H758.106C757.695 497.859 757.358 497.523 757.358 497.112V444.688C757.358 444.277 757.695 443.941 758.106 443.941Z" fill="#E2E2F4"/>
<path d="M758.106 443.941H761.396V497.859H758.106C757.695 497.859 757.358 497.523 757.358 497.112V444.688C757.358 444.277 757.695 443.941 758.106 443.941Z" fill="#6265A2"/>
<path d="M851.872 300.337H939.47C939.881 300.337 940.218 300.673 940.218 301.084V534.489C940.218 534.899 939.881 535.235 939.47 535.235H851.872C851.461 535.235 851.125 534.899 851.125 534.489V301.084C851.125 300.673 851.461 300.337 851.872 300.337Z" fill="#E2E2F4"/>
<path d="M851.872 300.337H855.162V535.235H851.872C851.461 535.235 851.125 534.899 851.125 534.489V301.084C851.125 300.673 851.461 300.337 851.872 300.337Z" fill="#6265A2"/>
<path d="M945.639 300.337H1033.24C1033.65 300.337 1033.98 300.673 1033.98 301.084V495.245C1033.98 495.656 1033.65 495.992 1033.24 495.992H945.639C945.228 495.992 944.891 495.656 944.891 495.245V301.084C944.891 300.673 945.228 300.337 945.639 300.337Z" fill="#E2E2F4"/>
<path d="M945.639 300.337H948.929V495.992H945.639C945.228 495.992 944.891 495.656 944.891 495.245V301.084C944.891 300.673 945.228 300.337 945.639 300.337Z" fill="#6265A2"/>
<path d="M945.639 497.858H1033.24C1033.65 497.858 1033.98 498.194 1033.98 498.605V533.666C1033.98 534.077 1033.65 534.413 1033.24 534.413H945.639C945.228 534.413 944.891 534.077 944.891 533.666V498.605C944.891 498.194 945.228 497.858 945.639 497.858Z" fill="#E2E2F4"/>
<path d="M945.639 497.858H948.929V534.413H945.639C945.228 534.413 944.891 534.077 944.891 533.666V498.605C944.891 498.194 945.228 497.858 945.639 497.858Z" fill="#6265A2"/>
<path d="M700.23 306.796V309.335C700.23 309.745 699.894 310.081 699.483 310.081H672.115C671.704 310.081 671.368 309.745 671.368 309.335V306.796C671.368 306.385 671.704 306.049 672.115 306.049H699.483C699.894 306.049 700.23 306.385 700.23 306.796Z" fill="#6265A2"/>
<path d="M700.23 395.998V398.537C700.23 398.948 699.894 399.284 699.483 399.284H672.115C671.704 399.284 671.368 398.948 671.368 398.537V395.998C671.368 395.587 671.704 395.251 672.115 395.251H699.483C699.894 395.251 700.23 395.587 700.23 395.998Z" fill="#6265A2"/>
<path d="M700.234 395.258V390.03H671.371V395.258H700.234Z" fill="#E2E2F4"/>
<path d="M749.207 405.221V427.363C749.207 427.774 748.871 428.11 748.46 428.11H672.115C671.704 428.11 671.368 427.774 671.368 427.363V405.221C671.368 404.811 671.704 404.475 672.115 404.475H748.46C748.871 404.475 749.207 404.811 749.207 405.221Z" fill="#CBCCE0"/>
<path d="M700.242 404.489V399.262H671.379V404.489H700.242Z" fill="#E2E2F4"/>
<path d="M842.974 459.063V481.205C842.974 481.616 842.638 481.952 842.227 481.952H765.882C765.471 481.952 765.135 481.616 765.135 481.205V459.063C765.135 458.652 765.471 458.316 765.882 458.316H842.227C842.638 458.316 842.974 458.652 842.974 459.063Z" fill="#CBCCE0"/>
<path d="M794.006 458.344V453.116H765.143V458.344H794.006Z" fill="#E2E2F4"/>
<path d="M936.741 315.533V349.362C936.741 349.773 936.405 350.109 935.993 350.109H859.612C859.2 350.109 858.864 349.773 858.864 349.362V315.533C858.864 315.122 859.2 314.786 859.612 314.786H935.956C936.405 314.786 936.741 315.122 936.741 315.533Z" fill="#CBCCE0"/>
<path d="M887.748 314.804V309.576H858.885V314.804H887.748Z" fill="#E2E2F4"/>
<path d="M1030.47 315.533V337.675C1030.47 338.086 1030.13 338.422 1029.72 338.422H953.379C952.967 338.422 952.631 338.086 952.631 337.675V315.533C952.631 315.122 952.967 314.786 953.379 314.786H1029.72C1030.13 314.786 1030.47 315.122 1030.47 315.533Z" fill="#CBCCE0"/>
<path d="M981.508 314.81V309.583H952.645V314.81H981.508Z" fill="#E2E2F4"/>
<path d="M1030.47 513.055V526.684C1030.47 527.095 1030.13 527.431 1029.72 527.431H953.379C952.967 527.431 952.631 527.095 952.631 526.684V513.055C952.631 512.645 952.967 512.309 953.379 512.309H1029.72C1030.13 512.309 1030.47 512.645 1030.47 513.055Z" fill="#CBCCE0"/>
<path d="M981.505 512.33V507.103H952.642V512.33H981.505Z" fill="#E2E2F4"/>
<path d="M700.23 472.804V475.343C700.23 475.754 699.894 476.09 699.483 476.09H672.115C671.704 476.09 671.368 475.754 671.368 475.343V472.804C671.368 472.394 671.704 472.058 672.115 472.058H699.483C699.894 472.058 700.23 472.394 700.23 472.804Z" fill="#6265A2"/>
<path d="M700.245 472.076V466.849H671.382V472.076H700.245Z" fill="#E2E2F4"/>
<path d="M793.997 449.841V452.38C793.997 452.79 793.661 453.126 793.25 453.126H765.882C765.471 453.126 765.135 452.79 765.135 452.38V449.841C765.135 449.43 765.471 449.094 765.882 449.094H793.25C793.661 449.094 793.997 449.43 793.997 449.841Z" fill="#6265A2"/>
<path d="M793.998 449.112V443.885H765.135V449.112H793.998Z" fill="#E2E2F4"/>
<path d="M887.764 306.31V308.849C887.764 309.26 887.428 309.596 887.016 309.596H859.649C859.238 309.596 858.901 309.26 858.901 308.849V306.31C858.901 305.9 859.238 305.563 859.649 305.563H887.016C887.428 305.563 887.764 305.9 887.764 306.31Z" fill="#6265A2"/>
<path d="M887.74 305.572V300.345H858.877V305.572H887.74Z" fill="#E2E2F4"/>
<path d="M981.531 306.31V308.849C981.531 309.26 981.194 309.596 980.783 309.596H953.416C953.004 309.596 952.668 309.26 952.668 308.849V306.31C952.668 305.9 953.004 305.563 953.416 305.563H980.783C981.194 305.563 981.531 305.9 981.531 306.31Z" fill="#6265A2"/>
<path d="M981.499 305.58V300.353H952.636V305.58H981.499Z" fill="#E2E2F4"/>
<path d="M981.53 503.833V506.372C981.53 506.782 981.194 507.119 980.783 507.119H953.415C953.004 507.119 952.668 506.782 952.668 506.372V503.833C952.668 503.422 953.004 503.086 953.415 503.086H980.783C981.194 503.086 981.53 503.422 981.53 503.833Z" fill="#6265A2"/>
<path d="M981.533 503.099V497.871H952.67V503.099H981.533Z" fill="#E2E2F4"/>
<path d="M700.006 272.295H671.592C671.181 272.295 670.844 271.959 670.844 271.548V270.801C670.844 270.391 671.181 270.055 671.592 270.055H700.006C700.418 270.055 700.754 270.391 700.754 270.801V271.548C700.754 271.959 700.418 272.295 700.006 272.295Z" fill="#BDBDBD"/>
<path d="M679.294 265.873H671.592C671.181 265.873 670.845 265.537 670.845 265.126V255.866C670.845 255.455 671.181 255.119 671.592 255.119H679.294C679.705 255.119 680.042 255.455 680.042 255.866V265.126C680.042 265.574 679.705 265.873 679.294 265.873Z" fill="#BDBDBD"/>
<path d="M793.773 272.295H765.359C764.948 272.295 764.611 271.959 764.611 271.548V270.801C764.611 270.391 764.948 270.055 765.359 270.055H793.773C794.184 270.055 794.521 270.391 794.521 270.801V271.548C794.521 271.959 794.184 272.295 793.773 272.295Z" fill="#BDBDBD"/>
<path d="M773.061 265.873H765.359C764.948 265.873 764.611 265.537 764.611 265.126V255.866C764.611 255.455 764.948 255.119 765.359 255.119H773.061C773.472 255.119 773.808 255.455 773.808 255.866V265.126C773.808 265.574 773.472 265.873 773.061 265.873Z" fill="#BDBDBD"/>
<path d="M887.54 272.295H859.126C858.714 272.295 858.378 271.959 858.378 271.548V270.801C858.378 270.391 858.714 270.055 859.126 270.055H887.54C887.951 270.055 888.287 270.391 888.287 270.801V271.548C888.287 271.959 887.951 272.295 887.54 272.295Z" fill="#BDBDBD"/>
<path d="M866.79 265.873H859.088C858.677 265.873 858.34 265.537 858.34 265.126V255.866C858.34 255.455 858.677 255.119 859.088 255.119H866.79C867.201 255.119 867.538 255.455 867.538 255.866V265.126C867.538 265.574 867.201 265.873 866.79 265.873Z" fill="#BDBDBD"/>
<path d="M981.269 272.295H952.855C952.443 272.295 952.107 271.959 952.107 271.548V270.801C952.107 270.391 952.443 270.055 952.855 270.055H981.269C981.68 270.055 982.017 270.391 982.017 270.801V271.548C982.017 271.959 981.68 272.295 981.269 272.295Z" fill="#BDBDBD"/>
<path d="M960.557 265.873H952.855C952.444 265.873 952.107 265.537 952.107 265.126V255.866C952.107 255.455 952.444 255.119 952.855 255.119H960.557C960.968 255.119 961.304 255.455 961.304 255.866V265.126C961.304 265.574 960.968 265.873 960.557 265.873Z" fill="#BDBDBD"/>
</g>
</g>
<path d="M995.696 552V412C885.388 462.033 723.998 493.589 544.196 493.589C364.395 493.589 203.004 462.033 92.6963 412V552H995.696Z" fill="white"/>
</g>
<g clip-path="url(#clip5_3202_46168)">
<mask id="path-132-inside-1_3202_46168" fill="white">
<path d="M92.6963 24H995.304V92H92.6963V24Z"/>
</mask>
<rect width="902.608" height="68" transform="translate(92.6963 24)" fill="white"/>
<path d="M202.058 57.8699C203.781 57.8699 205.209 58.5639 206.385 59.9518L208.948 57.5229C207.352 55.4843 204.873 54.4 201.89 54.4C196.555 54.4 192.564 58.2169 192.564 63.5518C192.564 68.8867 196.513 72.7036 201.848 72.7036C204.831 72.7036 207.31 71.5759 208.906 69.5373L206.343 67.1084C205.209 68.4964 203.739 69.1904 202.016 69.1904C198.824 69.1904 196.513 66.8482 196.513 63.5084C196.555 60.212 198.824 57.8699 202.058 57.8699ZM216.51 58.6072C214.409 58.6072 212.267 59.1711 210.839 60.2554L212.225 63.0313C213.191 62.2506 214.619 61.7735 216.006 61.7735C218.064 61.7735 219.03 62.7711 219.03 64.4627H216.006C211.973 64.4627 210.334 66.1108 210.334 68.5398C210.334 70.8819 212.183 72.6602 215.25 72.6602C217.182 72.6602 218.568 72.0096 219.282 70.7518V72.4434H222.853V64.6361C222.853 60.5157 220.543 58.6072 216.51 58.6072ZM219.03 68.106C218.61 69.3639 217.476 69.9711 216.216 69.9711C214.871 69.9711 214.073 69.3205 214.073 68.3229C214.073 67.4121 214.619 66.7181 216.426 66.7181H219.03V68.106ZM229.029 62.8578C229.029 62.1639 229.743 61.6 231.465 61.6C232.684 61.6 233.944 61.8602 235.246 62.5976L236.506 59.7783C235.246 59.041 233.23 58.6072 231.423 58.6072C227.558 58.6072 225.332 60.4289 225.332 62.988C225.332 68.4096 233.272 66.1542 233.272 68.3663C233.272 69.1036 232.6 69.6241 230.835 69.6241C229.239 69.6241 227.432 69.1036 226.256 68.3229L224.996 71.1422C226.214 71.9663 228.483 72.6169 230.709 72.6169C234.658 72.6169 236.927 70.8386 236.927 68.2795C236.969 62.9012 229.029 65.1566 229.029 62.8578ZM252.218 65.6337C252.218 61.253 249.235 58.5639 245.37 58.5639C241.338 58.5639 238.355 61.5133 238.355 65.5904C238.355 69.6241 241.338 72.5735 245.875 72.5735C248.269 72.5735 250.076 71.8361 251.294 70.3614L249.277 68.106C248.353 68.9735 247.387 69.4072 245.959 69.4072C243.942 69.4072 242.556 68.3663 242.178 66.6747H252.134C252.176 66.3711 252.218 65.9373 252.218 65.6337ZM242.136 64.4193C242.388 62.6843 243.648 61.6 245.412 61.6C247.135 61.6 248.395 62.7277 248.647 64.4193H242.136ZM264.359 53.6193V60.212C263.393 59.0843 262.048 58.5639 260.41 58.5639C256.671 58.5639 253.814 61.2964 253.814 65.5904C253.814 69.8843 256.671 72.5735 260.41 72.5735C262.174 72.5735 263.561 72.0096 264.527 70.7952V72.3566H268.182V53.6193H264.359ZM261.082 69.3639C259.192 69.3639 257.721 67.9325 257.721 65.5904C257.721 63.2482 259.192 61.8169 261.082 61.8169C262.972 61.8169 264.443 63.2482 264.443 65.5904C264.443 67.9325 262.972 69.3639 261.082 69.3639ZM277.592 58.6072C273.391 58.6072 270.324 61.5133 270.324 65.6337C270.324 69.7108 273.391 72.6169 277.592 72.6169C281.793 72.6169 284.818 69.7108 284.818 65.6337C284.818 61.5133 281.751 58.6072 277.592 58.6072ZM277.592 69.3639C275.701 69.3639 274.231 67.9325 274.231 65.5904C274.231 63.2482 275.701 61.8169 277.592 61.8169C279.482 61.8169 280.953 63.2482 280.953 65.5904C280.953 67.9325 279.482 69.3639 277.592 69.3639ZM293.766 69.3639C291.833 69.3639 290.321 67.9759 290.321 65.5904C290.321 63.2048 291.833 61.8169 293.766 61.8169C294.984 61.8169 296.034 62.3807 296.748 63.6819L299.731 62.0337C298.765 59.8217 296.58 58.5639 293.808 58.5639C289.523 58.5639 286.456 61.4699 286.456 65.5904C286.456 69.6675 289.523 72.5735 293.808 72.5735C296.58 72.5735 298.765 71.3157 299.731 69.147L296.748 67.4988C296.034 68.8 294.984 69.3639 293.766 69.3639ZM179.499 69.4506L165.762 55.2675C163.41 52.8386 163.41 48.9349 165.762 46.5494L179.499 60.7325C181.852 63.1181 181.852 67.0217 179.499 69.4506ZM173.156 67.2386L159.461 53.0988C157.108 55.5277 157.108 59.4313 159.461 61.8169L173.198 76C175.508 73.5711 175.508 69.6675 173.156 67.2386ZM172.106 48.7181L185.843 62.9012C188.195 60.4723 188.195 56.5687 185.843 54.1831L172.106 40C169.795 42.4289 169.795 46.3325 172.106 48.7181Z" fill="#2E3853"/>
<g clip-path="url(#clip6_3202_46168)">
<path d="M330.353 52.8C331.803 52.8 332.945 53.1467 333.777 53.84C334.609 54.5333 335.025 55.488 335.025 56.704C335.025 57.92 334.609 58.8747 333.777 59.568C332.945 60.2613 331.803 60.608 330.353 60.608H327.585V64H325.985V52.8H330.353ZM330.305 59.216C331.318 59.216 332.091 59.0027 332.625 58.576C333.158 58.1387 333.425 57.5147 333.425 56.704C333.425 55.8933 333.158 55.2747 332.625 54.848C332.091 54.4107 331.318 54.192 330.305 54.192H327.585V59.216H330.305ZM338.483 56.944C338.749 56.4533 339.144 56.08 339.667 55.824C340.189 55.568 340.824 55.44 341.571 55.44V56.928C341.485 56.9173 341.368 56.912 341.219 56.912C340.387 56.912 339.731 57.1627 339.251 57.664C338.781 58.1547 338.547 58.8587 338.547 59.776V64H337.011V55.52H338.483V56.944ZM347.018 64.096C346.175 64.096 345.418 63.9093 344.746 63.536C344.074 63.1627 343.546 62.6507 343.162 62C342.788 61.3387 342.602 60.592 342.602 59.76C342.602 58.928 342.788 58.1867 343.162 57.536C343.546 56.8747 344.074 56.3627 344.746 56C345.418 55.6267 346.175 55.44 347.018 55.44C347.86 55.44 348.612 55.6267 349.274 56C349.946 56.3627 350.468 56.8747 350.842 57.536C351.226 58.1867 351.418 58.928 351.418 59.76C351.418 60.592 351.226 61.3387 350.842 62C350.468 62.6507 349.946 63.1627 349.274 63.536C348.612 63.9093 347.86 64.096 347.018 64.096ZM347.018 62.752C347.562 62.752 348.047 62.6293 348.474 62.384C348.911 62.128 349.252 61.776 349.498 61.328C349.743 60.8693 349.866 60.3467 349.866 59.76C349.866 59.1733 349.743 58.656 349.498 58.208C349.252 57.7493 348.911 57.3973 348.474 57.152C348.047 56.9067 347.562 56.784 347.018 56.784C346.474 56.784 345.983 56.9067 345.546 57.152C345.119 57.3973 344.778 57.7493 344.522 58.208C344.276 58.656 344.154 59.1733 344.154 59.76C344.154 60.3467 344.276 60.8693 344.522 61.328C344.778 61.776 345.119 62.128 345.546 62.384C345.983 62.6293 346.474 62.752 347.018 62.752ZM361.542 52.128V64H360.07V62.656C359.729 63.1253 359.297 63.4827 358.774 63.728C358.251 63.9733 357.675 64.096 357.046 64.096C356.225 64.096 355.489 63.9147 354.838 63.552C354.187 63.1893 353.675 62.6827 353.302 62.032C352.939 61.3707 352.758 60.6133 352.758 59.76C352.758 58.9067 352.939 58.1547 353.302 57.504C353.675 56.8533 354.187 56.3467 354.838 55.984C355.489 55.6213 356.225 55.44 357.046 55.44C357.654 55.44 358.214 55.5573 358.726 55.792C359.238 56.016 359.665 56.352 360.006 56.8V52.128H361.542ZM357.174 62.752C357.707 62.752 358.193 62.6293 358.63 62.384C359.067 62.128 359.409 61.776 359.654 61.328C359.899 60.8693 360.022 60.3467 360.022 59.76C360.022 59.1733 359.899 58.656 359.654 58.208C359.409 57.7493 359.067 57.3973 358.63 57.152C358.193 56.9067 357.707 56.784 357.174 56.784C356.63 56.784 356.139 56.9067 355.702 57.152C355.275 57.3973 354.934 57.7493 354.678 58.208C354.433 58.656 354.31 59.1733 354.31 59.76C354.31 60.3467 354.433 60.8693 354.678 61.328C354.934 61.776 355.275 62.128 355.702 62.384C356.139 62.6293 356.63 62.752 357.174 62.752ZM372.352 55.52V64H370.896V62.72C370.587 63.1573 370.176 63.4987 369.664 63.744C369.163 63.9787 368.614 64.096 368.016 64.096C366.886 64.096 365.995 63.7867 365.344 63.168C364.694 62.5387 364.368 61.616 364.368 60.4V55.52H365.904V60.224C365.904 61.0453 366.102 61.6693 366.496 62.096C366.891 62.512 367.456 62.72 368.192 62.72C369.003 62.72 369.643 62.4747 370.112 61.984C370.582 61.4933 370.816 60.8 370.816 59.904V55.52H372.352ZM378.972 64.096C378.108 64.096 377.335 63.9093 376.652 63.536C375.98 63.1627 375.452 62.6507 375.068 62C374.684 61.3387 374.492 60.592 374.492 59.76C374.492 58.928 374.684 58.1867 375.068 57.536C375.452 56.8747 375.98 56.3627 376.652 56C377.335 55.6267 378.108 55.44 378.972 55.44C379.74 55.44 380.423 55.5947 381.02 55.904C381.628 56.2133 382.098 56.6613 382.428 57.248L381.26 58C380.994 57.5947 380.663 57.2907 380.268 57.088C379.874 56.8853 379.436 56.784 378.956 56.784C378.402 56.784 377.9 56.9067 377.452 57.152C377.015 57.3973 376.668 57.7493 376.412 58.208C376.167 58.656 376.044 59.1733 376.044 59.76C376.044 60.3573 376.167 60.8853 376.412 61.344C376.668 61.792 377.015 62.1387 377.452 62.384C377.9 62.6293 378.402 62.752 378.956 62.752C379.436 62.752 379.874 62.6507 380.268 62.448C380.663 62.2453 380.994 61.9413 381.26 61.536L382.428 62.272C382.098 62.8587 381.628 63.312 381.02 63.632C380.423 63.9413 379.74 64.096 378.972 64.096ZM389.294 63.504C389.07 63.696 388.793 63.8453 388.462 63.952C388.132 64.048 387.79 64.096 387.438 64.096C386.585 64.096 385.924 63.8667 385.454 63.408C384.985 62.9493 384.75 62.2933 384.75 61.44V56.784H383.31V55.52H384.75V53.664H386.286V55.52H388.718V56.784H386.286V61.376C386.286 61.8347 386.398 62.1867 386.622 62.432C386.857 62.6773 387.188 62.8 387.614 62.8C388.084 62.8 388.484 62.6667 388.814 62.4L389.294 63.504Z" fill="#444444"/>
<path d="M432.171 64.128C431.328 64.128 430.512 64 429.723 63.744C428.944 63.4773 428.331 63.136 427.883 62.72L428.475 61.472C428.901 61.856 429.445 62.1707 430.107 62.416C430.779 62.6507 431.467 62.768 432.171 62.768C433.099 62.768 433.792 62.6133 434.251 62.304C434.709 61.984 434.939 61.5627 434.939 61.04C434.939 60.656 434.811 60.3467 434.555 60.112C434.309 59.8667 434 59.68 433.627 59.552C433.264 59.424 432.747 59.28 432.075 59.12C431.232 58.9173 430.549 58.7147 430.027 58.512C429.515 58.3093 429.072 58 428.699 57.584C428.336 57.1573 428.155 56.5867 428.155 55.872C428.155 55.2747 428.309 54.736 428.619 54.256C428.939 53.776 429.419 53.392 430.059 53.104C430.699 52.816 431.493 52.672 432.443 52.672C433.104 52.672 433.755 52.7573 434.395 52.928C435.035 53.0987 435.584 53.344 436.043 53.664L435.515 54.944C435.045 54.6453 434.544 54.4213 434.011 54.272C433.477 54.112 432.955 54.032 432.443 54.032C431.536 54.032 430.853 54.1973 430.395 54.528C429.947 54.8587 429.723 55.2853 429.723 55.808C429.723 56.192 429.851 56.5067 430.107 56.752C430.363 56.9867 430.677 57.1733 431.051 57.312C431.435 57.44 431.952 57.5787 432.603 57.728C433.445 57.9307 434.123 58.1333 434.635 58.336C435.147 58.5387 435.584 58.848 435.947 59.264C436.32 59.68 436.507 60.24 436.507 60.944C436.507 61.5307 436.347 62.0693 436.027 62.56C435.707 63.04 435.221 63.424 434.571 63.712C433.92 63.9893 433.12 64.128 432.171 64.128ZM442.252 64.096C441.409 64.096 440.652 63.9093 439.98 63.536C439.308 63.1627 438.78 62.6507 438.396 62C438.023 61.3387 437.836 60.592 437.836 59.76C437.836 58.928 438.023 58.1867 438.396 57.536C438.78 56.8747 439.308 56.3627 439.98 56C440.652 55.6267 441.409 55.44 442.252 55.44C443.095 55.44 443.847 55.6267 444.508 56C445.18 56.3627 445.703 56.8747 446.076 57.536C446.46 58.1867 446.652 58.928 446.652 59.76C446.652 60.592 446.46 61.3387 446.076 62C445.703 62.6507 445.18 63.1627 444.508 63.536C443.847 63.9093 443.095 64.096 442.252 64.096ZM442.252 62.752C442.796 62.752 443.281 62.6293 443.708 62.384C444.145 62.128 444.487 61.776 444.732 61.328C444.977 60.8693 445.1 60.3467 445.1 59.76C445.1 59.1733 444.977 58.656 444.732 58.208C444.487 57.7493 444.145 57.3973 443.708 57.152C443.281 56.9067 442.796 56.784 442.252 56.784C441.708 56.784 441.217 56.9067 440.78 57.152C440.353 57.3973 440.012 57.7493 439.756 58.208C439.511 58.656 439.388 59.1733 439.388 59.76C439.388 60.3467 439.511 60.8693 439.756 61.328C440.012 61.776 440.353 62.128 440.78 62.384C441.217 62.6293 441.708 62.752 442.252 62.752ZM448.776 52.128H450.312V64H448.776V52.128ZM461.149 55.52V64H459.693V62.72C459.384 63.1573 458.973 63.4987 458.461 63.744C457.96 63.9787 457.41 64.096 456.813 64.096C455.682 64.096 454.792 63.7867 454.141 63.168C453.49 62.5387 453.165 61.616 453.165 60.4V55.52H454.701V60.224C454.701 61.0453 454.898 61.6693 455.293 62.096C455.688 62.512 456.253 62.72 456.989 62.72C457.8 62.72 458.44 62.4747 458.909 61.984C459.378 61.4933 459.613 60.8 459.613 59.904V55.52H461.149ZM468.841 63.504C468.617 63.696 468.34 63.8453 468.009 63.952C467.679 64.048 467.337 64.096 466.985 64.096C466.132 64.096 465.471 63.8667 465.001 63.408C464.532 62.9493 464.297 62.2933 464.297 61.44V56.784H462.857V55.52H464.297V53.664H465.833V55.52H468.265V56.784H465.833V61.376C465.833 61.8347 465.945 62.1867 466.169 62.432C466.404 62.6773 466.735 62.8 467.161 62.8C467.631 62.8 468.031 62.6667 468.361 62.4L468.841 63.504ZM470.698 55.52H472.234V64H470.698V55.52ZM471.466 53.888C471.168 53.888 470.917 53.792 470.714 53.6C470.522 53.408 470.426 53.1733 470.426 52.896C470.426 52.6187 470.522 52.384 470.714 52.192C470.917 51.9893 471.168 51.888 471.466 51.888C471.765 51.888 472.01 51.984 472.202 52.176C472.405 52.3573 472.506 52.5867 472.506 52.864C472.506 53.152 472.405 53.3973 472.202 53.6C472.01 53.792 471.765 53.888 471.466 53.888ZM478.799 64.096C477.956 64.096 477.199 63.9093 476.527 63.536C475.855 63.1627 475.327 62.6507 474.943 62C474.57 61.3387 474.383 60.592 474.383 59.76C474.383 58.928 474.57 58.1867 474.943 57.536C475.327 56.8747 475.855 56.3627 476.527 56C477.199 55.6267 477.956 55.44 478.799 55.44C479.642 55.44 480.394 55.6267 481.055 56C481.727 56.3627 482.25 56.8747 482.623 57.536C483.007 58.1867 483.199 58.928 483.199 59.76C483.199 60.592 483.007 61.3387 482.623 62C482.25 62.6507 481.727 63.1627 481.055 63.536C480.394 63.9093 479.642 64.096 478.799 64.096ZM478.799 62.752C479.343 62.752 479.828 62.6293 480.255 62.384C480.692 62.128 481.034 61.776 481.279 61.328C481.524 60.8693 481.647 60.3467 481.647 59.76C481.647 59.1733 481.524 58.656 481.279 58.208C481.034 57.7493 480.692 57.3973 480.255 57.152C479.828 56.9067 479.343 56.784 478.799 56.784C478.255 56.784 477.764 56.9067 477.327 57.152C476.9 57.3973 476.559 57.7493 476.303 58.208C476.058 58.656 475.935 59.1733 475.935 59.76C475.935 60.3467 476.058 60.8693 476.303 61.328C476.559 61.776 476.9 62.128 477.327 62.384C477.764 62.6293 478.255 62.752 478.799 62.752ZM489.851 55.44C490.929 55.44 491.782 55.7547 492.411 56.384C493.051 57.0027 493.371 57.9147 493.371 59.12V64H491.835V59.296C491.835 58.4747 491.638 57.856 491.243 57.44C490.849 57.024 490.283 56.816 489.547 56.816C488.715 56.816 488.059 57.0613 487.579 57.552C487.099 58.032 486.859 58.7253 486.859 59.632V64H485.323V55.52H486.795V56.8C487.105 56.3627 487.521 56.0267 488.043 55.792C488.577 55.5573 489.179 55.44 489.851 55.44ZM498.646 64.096C497.952 64.096 497.286 64.0053 496.646 63.824C496.006 63.632 495.504 63.392 495.142 63.104L495.782 61.888C496.155 62.1547 496.608 62.368 497.142 62.528C497.675 62.688 498.214 62.768 498.758 62.768C500.102 62.768 500.774 62.384 500.774 61.616C500.774 61.36 500.683 61.1573 500.502 61.008C500.32 60.8587 500.091 60.752 499.814 60.688C499.547 60.6133 499.163 60.5333 498.662 60.448C497.979 60.3413 497.419 60.2187 496.982 60.08C496.555 59.9413 496.187 59.7067 495.878 59.376C495.568 59.0453 495.414 58.5813 495.414 57.984C495.414 57.216 495.734 56.6027 496.374 56.144C497.014 55.6747 497.872 55.44 498.95 55.44C499.515 55.44 500.08 55.5093 500.646 55.648C501.211 55.7867 501.675 55.9733 502.038 56.208L501.382 57.424C500.688 56.976 499.872 56.752 498.934 56.752C498.283 56.752 497.787 56.8587 497.446 57.072C497.104 57.2853 496.934 57.568 496.934 57.92C496.934 58.1973 497.03 58.416 497.222 58.576C497.414 58.736 497.648 58.8533 497.926 58.928C498.214 59.0027 498.614 59.088 499.126 59.184C499.808 59.3013 500.358 59.4293 500.774 59.568C501.2 59.696 501.563 59.92 501.862 60.24C502.16 60.56 502.31 61.008 502.31 61.584C502.31 62.352 501.979 62.9653 501.318 63.424C500.667 63.872 499.776 64.096 498.646 64.096Z" fill="#444444"/>
<path d="M544.366 64.128C543.523 64.128 542.707 64 541.918 63.744C541.139 63.4773 540.526 63.136 540.078 62.72L540.67 61.472C541.097 61.856 541.641 62.1707 542.302 62.416C542.974 62.6507 543.662 62.768 544.366 62.768C545.294 62.768 545.987 62.6133 546.446 62.304C546.905 61.984 547.134 61.5627 547.134 61.04C547.134 60.656 547.006 60.3467 546.75 60.112C546.505 59.8667 546.195 59.68 545.822 59.552C545.459 59.424 544.942 59.28 544.27 59.12C543.427 58.9173 542.745 58.7147 542.222 58.512C541.71 58.3093 541.267 58 540.894 57.584C540.531 57.1573 540.35 56.5867 540.35 55.872C540.35 55.2747 540.505 54.736 540.814 54.256C541.134 53.776 541.614 53.392 542.254 53.104C542.894 52.816 543.689 52.672 544.638 52.672C545.299 52.672 545.95 52.7573 546.59 52.928C547.23 53.0987 547.779 53.344 548.238 53.664L547.71 54.944C547.241 54.6453 546.739 54.4213 546.206 54.272C545.673 54.112 545.15 54.032 544.638 54.032C543.731 54.032 543.049 54.1973 542.59 54.528C542.142 54.8587 541.918 55.2853 541.918 55.808C541.918 56.192 542.046 56.5067 542.302 56.752C542.558 56.9867 542.873 57.1733 543.246 57.312C543.63 57.44 544.147 57.5787 544.798 57.728C545.641 57.9307 546.318 58.1333 546.83 58.336C547.342 58.5387 547.779 58.848 548.142 59.264C548.515 59.68 548.702 60.24 548.702 60.944C548.702 61.5307 548.542 62.0693 548.222 62.56C547.902 63.04 547.417 63.424 546.766 63.712C546.115 63.9893 545.315 64.128 544.366 64.128ZM558.719 55.52V64H557.263V62.72C556.954 63.1573 556.543 63.4987 556.031 63.744C555.53 63.9787 554.981 64.096 554.383 64.096C553.253 64.096 552.362 63.7867 551.711 63.168C551.061 62.5387 550.735 61.616 550.735 60.4V55.52H552.271V60.224C552.271 61.0453 552.469 61.6693 552.863 62.096C553.258 62.512 553.823 62.72 554.559 62.72C555.37 62.72 556.01 62.4747 556.479 61.984C556.949 61.4933 557.183 60.8 557.183 59.904V55.52H558.719ZM566.14 55.44C566.961 55.44 567.697 55.6213 568.348 55.984C568.998 56.3467 569.505 56.8533 569.868 57.504C570.241 58.1547 570.428 58.9067 570.428 59.76C570.428 60.6133 570.241 61.3707 569.868 62.032C569.505 62.6827 568.998 63.1893 568.348 63.552C567.697 63.9147 566.961 64.096 566.14 64.096C565.532 64.096 564.972 63.9787 564.46 63.744C563.958 63.5093 563.532 63.168 563.18 62.72V67.104H561.644V55.52H563.116V56.864C563.457 56.3947 563.889 56.0427 564.411 55.808C564.934 55.5627 565.51 55.44 566.14 55.44ZM566.012 62.752C566.556 62.752 567.041 62.6293 567.468 62.384C567.905 62.128 568.246 61.776 568.492 61.328C568.748 60.8693 568.876 60.3467 568.876 59.76C568.876 59.1733 568.748 58.656 568.492 58.208C568.246 57.7493 567.905 57.3973 567.468 57.152C567.041 56.9067 566.556 56.784 566.012 56.784C565.478 56.784 564.993 56.912 564.556 57.168C564.129 57.4133 563.788 57.76 563.532 58.208C563.286 58.656 563.164 59.1733 563.164 59.76C563.164 60.3467 563.286 60.8693 563.532 61.328C563.777 61.776 564.118 62.128 564.556 62.384C564.993 62.6293 565.478 62.752 566.012 62.752ZM577.046 55.44C577.867 55.44 578.603 55.6213 579.254 55.984C579.904 56.3467 580.411 56.8533 580.774 57.504C581.147 58.1547 581.334 58.9067 581.334 59.76C581.334 60.6133 581.147 61.3707 580.774 62.032C580.411 62.6827 579.904 63.1893 579.254 63.552C578.603 63.9147 577.867 64.096 577.046 64.096C576.438 64.096 575.878 63.9787 575.366 63.744C574.864 63.5093 574.438 63.168 574.086 62.72V67.104H572.55V55.52H574.022V56.864C574.363 56.3947 574.795 56.0427 575.318 55.808C575.84 55.5627 576.416 55.44 577.046 55.44ZM576.918 62.752C577.462 62.752 577.947 62.6293 578.374 62.384C578.811 62.128 579.152 61.776 579.398 61.328C579.654 60.8693 579.782 60.3467 579.782 59.76C579.782 59.1733 579.654 58.656 579.398 58.208C579.152 57.7493 578.811 57.3973 578.374 57.152C577.947 56.9067 577.462 56.784 576.918 56.784C576.384 56.784 575.899 56.912 575.462 57.168C575.035 57.4133 574.694 57.76 574.438 58.208C574.192 58.656 574.07 59.1733 574.07 59.76C574.07 60.3467 574.192 60.8693 574.438 61.328C574.683 61.776 575.024 62.128 575.462 62.384C575.899 62.6293 576.384 62.752 576.918 62.752ZM587.088 64.096C586.245 64.096 585.488 63.9093 584.816 63.536C584.144 63.1627 583.616 62.6507 583.232 62C582.859 61.3387 582.672 60.592 582.672 59.76C582.672 58.928 582.859 58.1867 583.232 57.536C583.616 56.8747 584.144 56.3627 584.816 56C585.488 55.6267 586.245 55.44 587.088 55.44C587.931 55.44 588.683 55.6267 589.344 56C590.016 56.3627 590.539 56.8747 590.912 57.536C591.296 58.1867 591.488 58.928 591.488 59.76C591.488 60.592 591.296 61.3387 590.912 62C590.539 62.6507 590.016 63.1627 589.344 63.536C588.683 63.9093 587.931 64.096 587.088 64.096ZM587.088 62.752C587.632 62.752 588.117 62.6293 588.544 62.384C588.981 62.128 589.323 61.776 589.568 61.328C589.813 60.8693 589.936 60.3467 589.936 59.76C589.936 59.1733 589.813 58.656 589.568 58.208C589.323 57.7493 588.981 57.3973 588.544 57.152C588.117 56.9067 587.632 56.784 587.088 56.784C586.544 56.784 586.053 56.9067 585.616 57.152C585.189 57.3973 584.848 57.7493 584.592 58.208C584.347 58.656 584.224 59.1733 584.224 59.76C584.224 60.3467 584.347 60.8693 584.592 61.328C584.848 61.776 585.189 62.128 585.616 62.384C586.053 62.6293 586.544 62.752 587.088 62.752ZM595.084 56.944C595.351 56.4533 595.746 56.08 596.268 55.824C596.791 55.568 597.426 55.44 598.172 55.44V56.928C598.087 56.9173 597.97 56.912 597.82 56.912C596.988 56.912 596.332 57.1627 595.852 57.664C595.383 58.1547 595.148 58.8587 595.148 59.776V64H593.612V55.52H595.084V56.944ZM605.177 63.504C604.953 63.696 604.676 63.8453 604.345 63.952C604.014 64.048 603.673 64.096 603.321 64.096C602.468 64.096 601.806 63.8667 601.337 63.408C600.868 62.9493 600.633 62.2933 600.633 61.44V56.784H599.193V55.52H600.633V53.664H602.169V55.52H604.601V56.784H602.169V61.376C602.169 61.8347 602.281 62.1867 602.505 62.432C602.74 62.6773 603.07 62.8 603.497 62.8C603.966 62.8 604.366 62.6667 604.697 62.4L605.177 63.504Z" fill="#444444"/>
<path d="M647.356 64L644.94 60.56C644.641 60.5813 644.406 60.592 644.236 60.592H641.468V64H639.868V52.8H644.236C645.686 52.8 646.828 53.1467 647.66 53.84C648.492 54.5333 648.908 55.488 648.908 56.704C648.908 57.568 648.694 58.304 648.268 58.912C647.841 59.52 647.233 59.9627 646.444 60.24L649.1 64H647.356ZM644.188 59.232C645.201 59.232 645.974 59.0133 646.508 58.576C647.041 58.1387 647.308 57.5147 647.308 56.704C647.308 55.8933 647.041 55.2747 646.508 54.848C645.974 54.4107 645.201 54.192 644.188 54.192H641.468V59.232H644.188ZM658.933 59.808C658.933 59.9253 658.922 60.08 658.901 60.272H652.021C652.117 61.0187 652.442 61.6213 652.997 62.08C653.562 62.528 654.261 62.752 655.093 62.752C656.106 62.752 656.922 62.4107 657.541 61.728L658.389 62.72C658.005 63.168 657.525 63.5093 656.949 63.744C656.383 63.9787 655.749 64.096 655.045 64.096C654.149 64.096 653.354 63.9147 652.661 63.552C651.967 63.1787 651.429 62.6613 651.045 62C650.671 61.3387 650.485 60.592 650.485 59.76C650.485 58.9387 650.666 58.1973 651.029 57.536C651.402 56.8747 651.909 56.3627 652.549 56C653.199 55.6267 653.93 55.44 654.741 55.44C655.551 55.44 656.271 55.6267 656.901 56C657.541 56.3627 658.037 56.8747 658.389 57.536C658.751 58.1973 658.933 58.9547 658.933 59.808ZM654.741 56.736C654.005 56.736 653.386 56.96 652.885 57.408C652.394 57.856 652.106 58.4427 652.021 59.168H657.461C657.375 58.4533 657.082 57.872 656.581 57.424C656.09 56.9653 655.477 56.736 654.741 56.736ZM663.497 64.096C662.804 64.096 662.137 64.0053 661.497 63.824C660.857 63.632 660.356 63.392 659.993 63.104L660.633 61.888C661.007 62.1547 661.46 62.368 661.993 62.528C662.527 62.688 663.065 62.768 663.609 62.768C664.953 62.768 665.625 62.384 665.625 61.616C665.625 61.36 665.535 61.1573 665.353 61.008C665.172 60.8587 664.943 60.752 664.665 60.688C664.399 60.6133 664.015 60.5333 663.513 60.448C662.831 60.3413 662.271 60.2187 661.833 60.08C661.407 59.9413 661.039 59.7067 660.729 59.376C660.42 59.0453 660.265 58.5813 660.265 57.984C660.265 57.216 660.585 56.6027 661.225 56.144C661.865 55.6747 662.724 55.44 663.801 55.44C664.367 55.44 664.932 55.5093 665.497 55.648C666.063 55.7867 666.527 55.9733 666.889 56.208L666.233 57.424C665.54 56.976 664.724 56.752 663.785 56.752C663.135 56.752 662.639 56.8587 662.297 57.072C661.956 57.2853 661.785 57.568 661.785 57.92C661.785 58.1973 661.881 58.416 662.073 58.576C662.265 58.736 662.5 58.8533 662.777 58.928C663.065 59.0027 663.465 59.088 663.977 59.184C664.66 59.3013 665.209 59.4293 665.625 59.568C666.052 59.696 666.415 59.92 666.713 60.24C667.012 60.56 667.161 61.008 667.161 61.584C667.161 62.352 666.831 62.9653 666.169 63.424C665.519 63.872 664.628 64.096 663.497 64.096ZM672.713 64.096C671.87 64.096 671.113 63.9093 670.441 63.536C669.769 63.1627 669.241 62.6507 668.857 62C668.484 61.3387 668.297 60.592 668.297 59.76C668.297 58.928 668.484 58.1867 668.857 57.536C669.241 56.8747 669.769 56.3627 670.441 56C671.113 55.6267 671.87 55.44 672.713 55.44C673.556 55.44 674.308 55.6267 674.969 56C675.641 56.3627 676.164 56.8747 676.537 57.536C676.921 58.1867 677.113 58.928 677.113 59.76C677.113 60.592 676.921 61.3387 676.537 62C676.164 62.6507 675.641 63.1627 674.969 63.536C674.308 63.9093 673.556 64.096 672.713 64.096ZM672.713 62.752C673.257 62.752 673.742 62.6293 674.169 62.384C674.606 62.128 674.948 61.776 675.193 61.328C675.438 60.8693 675.561 60.3467 675.561 59.76C675.561 59.1733 675.438 58.656 675.193 58.208C674.948 57.7493 674.606 57.3973 674.169 57.152C673.742 56.9067 673.257 56.784 672.713 56.784C672.169 56.784 671.678 56.9067 671.241 57.152C670.814 57.3973 670.473 57.7493 670.217 58.208C669.972 58.656 669.849 59.1733 669.849 59.76C669.849 60.3467 669.972 60.8693 670.217 61.328C670.473 61.776 670.814 62.128 671.241 62.384C671.678 62.6293 672.169 62.752 672.713 62.752ZM687.141 55.52V64H685.685V62.72C685.376 63.1573 684.965 63.4987 684.453 63.744C683.952 63.9787 683.403 64.096 682.805 64.096C681.675 64.096 680.784 63.7867 680.133 63.168C679.483 62.5387 679.157 61.616 679.157 60.4V55.52H680.693V60.224C680.693 61.0453 680.891 61.6693 681.285 62.096C681.68 62.512 682.245 62.72 682.981 62.72C683.792 62.72 684.432 62.4747 684.901 61.984C685.371 61.4933 685.605 60.8 685.605 59.904V55.52H687.141ZM691.537 56.944C691.804 56.4533 692.199 56.08 692.721 55.824C693.244 55.568 693.879 55.44 694.625 55.44V56.928C694.54 56.9173 694.423 56.912 694.273 56.912C693.441 56.912 692.785 57.1627 692.305 57.664C691.836 58.1547 691.601 58.8587 691.601 59.776V64H690.065V55.52H691.537V56.944ZM700.136 64.096C699.272 64.096 698.499 63.9093 697.816 63.536C697.144 63.1627 696.616 62.6507 696.232 62C695.848 61.3387 695.656 60.592 695.656 59.76C695.656 58.928 695.848 58.1867 696.232 57.536C696.616 56.8747 697.144 56.3627 697.816 56C698.499 55.6267 699.272 55.44 700.136 55.44C700.904 55.44 701.587 55.5947 702.184 55.904C702.792 56.2133 703.262 56.6613 703.592 57.248L702.424 58C702.158 57.5947 701.827 57.2907 701.432 57.088C701.038 56.8853 700.6 56.784 700.12 56.784C699.566 56.784 699.064 56.9067 698.616 57.152C698.179 57.3973 697.832 57.7493 697.576 58.208C697.331 58.656 697.208 59.1733 697.208 59.76C697.208 60.3573 697.331 60.8853 697.576 61.344C697.832 61.792 698.179 62.1387 698.616 62.384C699.064 62.6293 699.566 62.752 700.12 62.752C700.6 62.752 701.038 62.6507 701.432 62.448C701.827 62.2453 702.158 61.9413 702.424 61.536L703.592 62.272C703.262 62.8587 702.792 63.312 702.184 63.632C701.587 63.9413 700.904 64.096 700.136 64.096ZM713.12 59.808C713.12 59.9253 713.109 60.08 713.088 60.272H706.208C706.304 61.0187 706.629 61.6213 707.184 62.08C707.749 62.528 708.448 62.752 709.28 62.752C710.293 62.752 711.109 62.4107 711.728 61.728L712.576 62.72C712.192 63.168 711.712 63.5093 711.136 63.744C710.571 63.9787 709.936 64.096 709.232 64.096C708.336 64.096 707.541 63.9147 706.848 63.552C706.155 63.1787 705.616 62.6613 705.232 62C704.859 61.3387 704.672 60.592 704.672 59.76C704.672 58.9387 704.853 58.1973 705.216 57.536C705.589 56.8747 706.096 56.3627 706.736 56C707.387 55.6267 708.117 55.44 708.928 55.44C709.739 55.44 710.459 55.6267 711.088 56C711.728 56.3627 712.224 56.8747 712.576 57.536C712.939 58.1973 713.12 58.9547 713.12 59.808ZM708.928 56.736C708.192 56.736 707.573 56.96 707.072 57.408C706.581 57.856 706.293 58.4427 706.208 59.168H711.648C711.563 58.4533 711.269 57.872 710.768 57.424C710.277 56.9653 709.664 56.736 708.928 56.736ZM717.685 64.096C716.992 64.096 716.325 64.0053 715.685 63.824C715.045 63.632 714.544 63.392 714.181 63.104L714.821 61.888C715.194 62.1547 715.648 62.368 716.181 62.528C716.714 62.688 717.253 62.768 717.797 62.768C719.141 62.768 719.813 62.384 719.813 61.616C719.813 61.36 719.722 61.1573 719.541 61.008C719.36 60.8587 719.13 60.752 718.853 60.688C718.586 60.6133 718.202 60.5333 717.701 60.448C717.018 60.3413 716.458 60.2187 716.021 60.08C715.594 59.9413 715.226 59.7067 714.917 59.376C714.608 59.0453 714.453 58.5813 714.453 57.984C714.453 57.216 714.773 56.6027 715.413 56.144C716.053 55.6747 716.912 55.44 717.989 55.44C718.554 55.44 719.12 55.5093 719.685 55.648C720.25 55.7867 720.714 55.9733 721.077 56.208L720.421 57.424C719.728 56.976 718.912 56.752 717.973 56.752C717.322 56.752 716.826 56.8587 716.485 57.072C716.144 57.2853 715.973 57.568 715.973 57.92C715.973 58.1973 716.069 58.416 716.261 58.576C716.453 58.736 716.688 58.8533 716.965 58.928C717.253 59.0027 717.653 59.088 718.165 59.184C718.848 59.3013 719.397 59.4293 719.813 59.568C720.24 59.696 720.602 59.92 720.901 60.24C721.2 60.56 721.349 61.008 721.349 61.584C721.349 62.352 721.018 62.9653 720.357 63.424C719.706 63.872 718.816 64.096 717.685 64.096Z" fill="#444444"/>
<path d="M771.199 61.2H765.247L764.015 64H762.367L767.439 52.8H769.023L774.111 64H772.431L771.199 61.2ZM770.639 59.92L768.223 54.432L765.807 59.92H770.639ZM780.054 55.44C780.875 55.44 781.611 55.6213 782.262 55.984C782.912 56.3467 783.419 56.8533 783.782 57.504C784.155 58.1547 784.342 58.9067 784.342 59.76C784.342 60.6133 784.155 61.3707 783.782 62.032C783.419 62.6827 782.912 63.1893 782.262 63.552C781.611 63.9147 780.875 64.096 780.054 64.096C779.424 64.096 778.848 63.9733 778.326 63.728C777.803 63.4827 777.371 63.1253 777.03 62.656V64H775.558V52.128H777.094V56.8C777.435 56.352 777.862 56.016 778.374 55.792C778.886 55.5573 779.446 55.44 780.054 55.44ZM779.926 62.752C780.47 62.752 780.955 62.6293 781.382 62.384C781.819 62.128 782.16 61.776 782.406 61.328C782.662 60.8693 782.79 60.3467 782.79 59.76C782.79 59.1733 782.662 58.656 782.406 58.208C782.16 57.7493 781.819 57.3973 781.382 57.152C780.955 56.9067 780.47 56.784 779.926 56.784C779.392 56.784 778.907 56.9067 778.47 57.152C778.032 57.3973 777.691 57.7493 777.446 58.208C777.2 58.656 777.078 59.1733 777.078 59.76C777.078 60.3467 777.2 60.8693 777.446 61.328C777.691 61.776 778.032 62.128 778.47 62.384C778.907 62.6293 779.392 62.752 779.926 62.752ZM790.096 64.096C789.253 64.096 788.496 63.9093 787.824 63.536C787.152 63.1627 786.624 62.6507 786.24 62C785.866 61.3387 785.68 60.592 785.68 59.76C785.68 58.928 785.866 58.1867 786.24 57.536C786.624 56.8747 787.152 56.3627 787.824 56C788.496 55.6267 789.253 55.44 790.096 55.44C790.938 55.44 791.69 55.6267 792.352 56C793.024 56.3627 793.546 56.8747 793.92 57.536C794.304 58.1867 794.496 58.928 794.496 59.76C794.496 60.592 794.304 61.3387 793.92 62C793.546 62.6507 793.024 63.1627 792.352 63.536C791.69 63.9093 790.938 64.096 790.096 64.096ZM790.096 62.752C790.64 62.752 791.125 62.6293 791.552 62.384C791.989 62.128 792.33 61.776 792.576 61.328C792.821 60.8693 792.944 60.3467 792.944 59.76C792.944 59.1733 792.821 58.656 792.576 58.208C792.33 57.7493 791.989 57.3973 791.552 57.152C791.125 56.9067 790.64 56.784 790.096 56.784C789.552 56.784 789.061 56.9067 788.624 57.152C788.197 57.3973 787.856 57.7493 787.6 58.208C787.354 58.656 787.232 59.1733 787.232 59.76C787.232 60.3467 787.354 60.8693 787.6 61.328C787.856 61.776 788.197 62.128 788.624 62.384C789.061 62.6293 789.552 62.752 790.096 62.752ZM804.524 55.52V64H803.068V62.72C802.759 63.1573 802.348 63.4987 801.836 63.744C801.335 63.9787 800.785 64.096 800.188 64.096C799.057 64.096 798.167 63.7867 797.516 63.168C796.865 62.5387 796.54 61.616 796.54 60.4V55.52H798.076V60.224C798.076 61.0453 798.273 61.6693 798.668 62.096C799.063 62.512 799.628 62.72 800.364 62.72C801.175 62.72 801.815 62.4747 802.284 61.984C802.753 61.4933 802.988 60.8 802.988 59.904V55.52H804.524ZM812.216 63.504C811.992 63.696 811.715 63.8453 811.384 63.952C811.054 64.048 810.712 64.096 810.36 64.096C809.507 64.096 808.846 63.8667 808.376 63.408C807.907 62.9493 807.672 62.2933 807.672 61.44V56.784H806.232V55.52H807.672V53.664H809.208V55.52H811.64V56.784H809.208V61.376C809.208 61.8347 809.32 62.1867 809.544 62.432C809.779 62.6773 810.11 62.8 810.536 62.8C811.006 62.8 811.406 62.6667 811.736 62.4L812.216 63.504Z" fill="#444444"/>
</g>
<g clip-path="url(#clip7_3202_46168)">
<path fill-rule="evenodd" clip-rule="evenodd" d="M858.485 60.4713H859.275L863.525 64.7313C863.935 65.1413 863.935 65.8013 863.525 66.2113L863.515 66.2213C863.105 66.6313 862.445 66.6313 862.035 66.2213L857.775 61.9713V61.1813L857.505 60.9013C856.105 62.1013 854.195 62.7213 852.165 62.3813C849.385 61.9113 847.165 59.5913 846.825 56.7913C846.315 52.5613 849.865 49.0013 854.095 49.5213C856.895 49.8613 859.215 52.0813 859.685 54.8613C860.025 56.8913 859.405 58.8013 858.205 60.2013L858.485 60.4713ZM848.775 55.9713C848.775 58.4613 850.785 60.4713 853.275 60.4713C855.765 60.4713 857.775 58.4613 857.775 55.9713C857.775 53.4813 855.765 51.4713 853.275 51.4713C850.785 51.4713 848.775 53.4813 848.775 55.9713Z" fill="#4F4F4F"/>
<path d="M878.568 64.128C877.725 64.128 876.909 64 876.12 63.744C875.341 63.4773 874.728 63.136 874.28 62.72L874.872 61.472C875.299 61.856 875.843 62.1707 876.504 62.416C877.176 62.6507 877.864 62.768 878.568 62.768C879.496 62.768 880.189 62.6133 880.648 62.304C881.107 61.984 881.336 61.5627 881.336 61.04C881.336 60.656 881.208 60.3467 880.952 60.112C880.707 59.8667 880.397 59.68 880.024 59.552C879.661 59.424 879.144 59.28 878.472 59.12C877.629 58.9173 876.947 58.7147 876.424 58.512C875.912 58.3093 875.469 58 875.096 57.584C874.733 57.1573 874.552 56.5867 874.552 55.872C874.552 55.2747 874.707 54.736 875.016 54.256C875.336 53.776 875.816 53.392 876.456 53.104C877.096 52.816 877.891 52.672 878.84 52.672C879.501 52.672 880.152 52.7573 880.792 52.928C881.432 53.0987 881.981 53.344 882.44 53.664L881.912 54.944C881.443 54.6453 880.941 54.4213 880.408 54.272C879.875 54.112 879.352 54.032 878.84 54.032C877.933 54.032 877.251 54.1973 876.792 54.528C876.344 54.8587 876.12 55.2853 876.12 55.808C876.12 56.192 876.248 56.5067 876.504 56.752C876.76 56.9867 877.075 57.1733 877.448 57.312C877.832 57.44 878.349 57.5787 879 57.728C879.843 57.9307 880.52 58.1333 881.032 58.336C881.544 58.5387 881.981 58.848 882.344 59.264C882.717 59.68 882.904 60.24 882.904 60.944C882.904 61.5307 882.744 62.0693 882.424 62.56C882.104 63.04 881.619 63.424 880.968 63.712C880.317 63.9893 879.517 64.128 878.568 64.128ZM892.682 59.808C892.682 59.9253 892.671 60.08 892.65 60.272H885.77C885.866 61.0187 886.191 61.6213 886.746 62.08C887.311 62.528 888.01 62.752 888.842 62.752C889.855 62.752 890.671 62.4107 891.29 61.728L892.138 62.72C891.754 63.168 891.274 63.5093 890.698 63.744C890.132 63.9787 889.498 64.096 888.794 64.096C887.898 64.096 887.103 63.9147 886.41 63.552C885.716 63.1787 885.178 62.6613 884.794 62C884.42 61.3387 884.234 60.592 884.234 59.76C884.234 58.9387 884.415 58.1973 884.778 57.536C885.151 56.8747 885.658 56.3627 886.298 56C886.948 55.6267 887.679 55.44 888.49 55.44C889.3 55.44 890.02 55.6267 890.65 56C891.29 56.3627 891.786 56.8747 892.138 57.536C892.5 58.1973 892.682 58.9547 892.682 59.808ZM888.49 56.736C887.754 56.736 887.135 56.96 886.634 57.408C886.143 57.856 885.855 58.4427 885.77 59.168H891.21C891.124 58.4533 890.831 57.872 890.33 57.424C889.839 56.9653 889.226 56.736 888.49 56.736ZM897.668 55.44C898.841 55.44 899.737 55.728 900.356 56.304C900.985 56.88 901.3 57.7387 901.3 58.88V64H899.844V62.88C899.588 63.2747 899.22 63.5787 898.74 63.792C898.271 63.9947 897.711 64.096 897.06 64.096C896.111 64.096 895.348 63.8667 894.772 63.408C894.207 62.9493 893.924 62.3467 893.924 61.6C893.924 60.8533 894.196 60.256 894.74 59.808C895.284 59.3493 896.148 59.12 897.332 59.12H899.764V58.816C899.764 58.1547 899.572 57.648 899.188 57.296C898.804 56.944 898.239 56.768 897.492 56.768C896.991 56.768 896.5 56.8533 896.02 57.024C895.54 57.184 895.135 57.4027 894.804 57.68L894.164 56.528C894.601 56.176 895.124 55.9093 895.732 55.728C896.34 55.536 896.985 55.44 897.668 55.44ZM897.316 62.912C897.903 62.912 898.409 62.784 898.836 62.528C899.263 62.2613 899.572 61.888 899.764 61.408V60.224H897.396C896.095 60.224 895.444 60.6613 895.444 61.536C895.444 61.9627 895.609 62.2987 895.94 62.544C896.271 62.7893 896.729 62.912 897.316 62.912ZM905.615 56.944C905.881 56.4533 906.276 56.08 906.799 55.824C907.321 55.568 907.956 55.44 908.703 55.44V56.928C908.617 56.9173 908.5 56.912 908.351 56.912C907.519 56.912 906.863 57.1627 906.383 57.664C905.913 58.1547 905.679 58.8587 905.679 59.776V64H904.143V55.52H905.615V56.944ZM914.214 64.096C913.35 64.096 912.576 63.9093 911.894 63.536C911.222 63.1627 910.694 62.6507 910.31 62C909.926 61.3387 909.734 60.592 909.734 59.76C909.734 58.928 909.926 58.1867 910.31 57.536C910.694 56.8747 911.222 56.3627 911.894 56C912.576 55.6267 913.35 55.44 914.214 55.44C914.982 55.44 915.664 55.5947 916.262 55.904C916.87 56.2133 917.339 56.6613 917.67 57.248L916.502 58C916.235 57.5947 915.904 57.2907 915.51 57.088C915.115 56.8853 914.678 56.784 914.198 56.784C913.643 56.784 913.142 56.9067 912.694 57.152C912.256 57.3973 911.91 57.7493 911.654 58.208C911.408 58.656 911.286 59.1733 911.286 59.76C911.286 60.3573 911.408 60.8853 911.654 61.344C911.91 61.792 912.256 62.1387 912.694 62.384C913.142 62.6293 913.643 62.752 914.198 62.752C914.678 62.752 915.115 62.6507 915.51 62.448C915.904 62.2453 916.235 61.9413 916.502 61.536L917.67 62.272C917.339 62.8587 916.87 63.312 916.262 63.632C915.664 63.9413 914.982 64.096 914.214 64.096ZM924.077 55.44C925.154 55.44 926.008 55.7547 926.637 56.384C927.277 57.0027 927.597 57.9147 927.597 59.12V64H926.061V59.296C926.061 58.4747 925.864 57.856 925.469 57.44C925.074 57.024 924.509 56.816 923.773 56.816C922.941 56.816 922.285 57.0613 921.805 57.552C921.325 58.032 921.085 58.7253 921.085 59.632V64H919.549V52.128H921.085V56.72C921.405 56.3147 921.821 56 922.333 55.776C922.856 55.552 923.437 55.44 924.077 55.44Z" fill="#4F4F4F"/>
</g>
</g>
<path d="M995.304 92V91H92.6963V92V93H995.304V92Z" fill="#D2CFC6" mask="url(#path-132-inside-1_3202_46168)"/>
</g>
</g>
<g clip-path="url(#clip8_3202_46168)">
<path d="M0.5 547.556C0.5 545.592 2.09188 544 4.05556 544H1083.94C1085.91 544 1087.5 545.592 1087.5 547.556V547.556C1087.5 563.265 1074.76 576 1059.06 576H28.9445C13.235 576 0.5 563.265 0.5 547.556V547.556Z" fill="#505F8A"/>
<path d="M425.767 544H662.93V544C662.93 549.891 658.155 554.667 652.264 554.667H436.433C430.542 554.667 425.767 549.891 425.767 544V544Z" fill="url(#paint0_linear_3202_46168)"/>
<rect x="0.5" y="560" width="1087" height="16" fill="url(#paint1_linear_3202_46168)"/>
<g opacity="0.3" style="mix-blend-mode:lighten">
<rect width="79.0546" height="32" transform="matrix(-1 0 0 1 1087.81 544)" fill="url(#paint2_linear_3202_46168)"/>
</g>
<g opacity="0.3" style="mix-blend-mode:lighten">
<rect x="0.5" y="544" width="79.0546" height="32" fill="url(#paint3_linear_3202_46168)"/>
</g>
</g>
<defs>
<filter id="filter0_d_3202_46168" x="551.696" y="129.464" width="618.56" height="462.536" filterUnits="userSpaceOnUse" color-interpolation-filters="sRGB">
<feFlood flood-opacity="0" result="BackgroundImageFix"/>
<feColorMatrix in="SourceAlpha" type="matrix" values="0 0 0 0 0 0 0 0 0 0 0 0 0 0 0 0 0 0 127 0" result="hardAlpha"/>
<feOffset/>
<feGaussianBlur stdDeviation="20"/>
<feColorMatrix type="matrix" values="0 0 0 0 0.12549 0 0 0 0 0.164706 0 0 0 0 0.258824 0 0 0 0.24 0"/>
<feBlend mode="normal" in2="BackgroundImageFix" result="effect1_dropShadow_3202_46168"/>
<feBlend mode="normal" in="SourceGraphic" in2="effect1_dropShadow_3202_46168" result="shape"/>
</filter>
<linearGradient id="paint0_linear_3202_46168" x1="663.301" y1="544" x2="425.767" y2="544" gradientUnits="userSpaceOnUse">
<stop stop-color="#040B1F" stop-opacity="0.8"/>
<stop offset="0.131938" stop-color="#F2F4F7" stop-opacity="0.2"/>
<stop offset="0.340275" stop-color="#E3E2B4"/>
<stop offset="0.845492" stop-color="#F2F4F7" stop-opacity="0.2"/>
<stop offset="1" stop-color="#040B1F" stop-opacity="0.9"/>
</linearGradient>
<linearGradient id="paint1_linear_3202_46168" x1="544" y1="560" x2="544" y2="582.667" gradientUnits="userSpaceOnUse">
<stop offset="0.0304892" stop-opacity="0"/>
<stop offset="1"/>
</linearGradient>
<linearGradient id="paint2_linear_3202_46168" x1="79.0546" y1="0" x2="-24.7045" y2="0" gradientUnits="userSpaceOnUse">
<stop stop-color="#202A42" stop-opacity="0"/>
<stop offset="1" stop-color="white"/>
</linearGradient>
<linearGradient id="paint3_linear_3202_46168" x1="79.5546" y1="544" x2="-24.2045" y2="544" gradientUnits="userSpaceOnUse">
<stop stop-color="#202A42" stop-opacity="0"/>
<stop offset="1" stop-color="white"/>
</linearGradient>
<clipPath id="clip0_3202_46168">
<rect x="92.6963" y="24" width="902.608" height="500" rx="12" fill="white"/>
</clipPath>
<clipPath id="clip1_3202_46168">
<rect width="902.608" height="500" fill="white" transform="translate(92.6963 24)"/>
</clipPath>
<clipPath id="clip2_3202_46168">
<rect width="902.608" height="460" fill="white" transform="translate(92.6963 92)"/>
</clipPath>
<clipPath id="clip3_3202_46168">
<rect width="379" height="124" fill="white" transform="translate(180.696 216)"/>
</clipPath>
<clipPath id="clip4_3202_46168">
<rect x="591.696" y="169.464" width="538.56" height="382.536" rx="12" fill="white"/>
</clipPath>
<clipPath id="clip5_3202_46168">
<path d="M92.6963 24H995.304V92H92.6963V24Z" fill="white"/>
</clipPath>
<clipPath id="clip6_3202_46168">
<rect width="530" height="68" fill="white" transform="translate(307 24)"/>
</clipPath>
<clipPath id="clip7_3202_46168">
<rect width="88" height="24" fill="white" transform="translate(843.304 46)"/>
</clipPath>
<clipPath id="clip8_3202_46168">
<path d="M0.5 547.556C0.5 545.592 2.09188 544 4.05556 544H1083.94C1085.91 544 1087.5 545.592 1087.5 547.556V547.556C1087.5 563.265 1074.76 576 1059.06 576H28.9445C13.235 576 0.5 563.265 0.5 547.556V547.556Z" fill="white"/>
</clipPath>
</defs>
</svg>
