<svg width="1440" height="760" viewBox="0 0 1440 760" fill="none" xmlns="http://www.w3.org/2000/svg">
<rect width="1440" height="760" fill="#FFCC00"/>
<path d="M146.752 251.768C142.187 251.768 138.048 250.787 134.336 248.824C130.667 246.819 127.765 244.067 125.632 240.568C123.541 237.027 122.496 233.037 122.496 228.6C122.496 224.163 123.541 220.195 125.632 216.696C127.765 213.155 130.667 210.403 134.336 208.44C138.048 206.435 142.208 205.432 146.816 205.432C150.699 205.432 154.197 206.115 157.312 207.48C160.469 208.845 163.115 210.808 165.248 213.368L158.592 219.512C155.563 216.013 151.808 214.264 147.328 214.264C144.555 214.264 142.08 214.883 139.904 216.12C137.728 217.315 136.021 219 134.784 221.176C133.589 223.352 132.992 225.827 132.992 228.6C132.992 231.373 133.589 233.848 134.784 236.024C136.021 238.2 137.728 239.907 139.904 241.144C142.08 242.339 144.555 242.936 147.328 242.936C151.808 242.936 155.563 241.165 158.592 237.624L165.248 243.768C163.115 246.371 160.469 248.355 157.312 249.72C154.155 251.085 150.635 251.768 146.752 251.768ZM186.742 251.512C183.115 251.512 179.851 250.765 176.95 249.272C174.091 247.736 171.851 245.624 170.23 242.936C168.609 240.248 167.798 237.197 167.798 233.784C167.798 230.371 168.609 227.32 170.23 224.632C171.851 221.944 174.091 219.853 176.95 218.36C179.851 216.824 183.115 216.056 186.742 216.056C190.369 216.056 193.611 216.824 196.47 218.36C199.329 219.853 201.569 221.944 203.19 224.632C204.811 227.32 205.622 230.371 205.622 233.784C205.622 237.197 204.811 240.248 203.19 242.936C201.569 245.624 199.329 247.736 196.47 249.272C193.611 250.765 190.369 251.512 186.742 251.512ZM186.742 243.32C189.302 243.32 191.393 242.467 193.014 240.76C194.678 239.011 195.51 236.685 195.51 233.784C195.51 230.883 194.678 228.579 193.014 226.872C191.393 225.123 189.302 224.248 186.742 224.248C184.182 224.248 182.07 225.123 180.406 226.872C178.742 228.579 177.91 230.883 177.91 233.784C177.91 236.685 178.742 239.011 180.406 240.76C182.07 242.467 184.182 243.32 186.742 243.32ZM246.984 216.568V251H237.512V246.904C236.189 248.397 234.61 249.549 232.776 250.36C230.941 251.128 228.957 251.512 226.824 251.512C222.301 251.512 218.717 250.211 216.072 247.608C213.426 245.005 212.104 241.144 212.104 236.024V216.568H222.088V234.552C222.088 240.099 224.413 242.872 229.064 242.872C231.453 242.872 233.373 242.104 234.824 240.568C236.274 238.989 237 236.664 237 233.592V216.568H246.984ZM265.769 221.112C266.964 219.448 268.564 218.189 270.569 217.336C272.617 216.483 274.964 216.056 277.609 216.056V225.272C276.5 225.187 275.753 225.144 275.369 225.144C272.51 225.144 270.27 225.955 268.649 227.576C267.028 229.155 266.217 231.544 266.217 234.744V251H256.233V216.568H265.769V221.112ZM306.941 249.336C305.96 250.061 304.744 250.616 303.293 251C301.885 251.341 300.392 251.512 298.813 251.512C294.717 251.512 291.538 250.467 289.277 248.376C287.058 246.285 285.949 243.213 285.949 239.16V225.016H280.637V217.336H285.949V208.952H295.933V217.336H304.509V225.016H295.933V239.032C295.933 240.483 296.296 241.613 297.021 242.424C297.789 243.192 298.856 243.576 300.221 243.576C301.8 243.576 303.144 243.149 304.253 242.296L306.941 249.336ZM331.375 206.2H351.727C356.591 206.2 360.879 207.139 364.591 209.016C368.345 210.851 371.247 213.453 373.295 216.824C375.385 220.195 376.431 224.12 376.431 228.6C376.431 233.08 375.385 237.005 373.295 240.376C371.247 243.747 368.345 246.371 364.591 248.248C360.879 250.083 356.591 251 351.727 251H331.375V206.2ZM351.215 242.488C355.695 242.488 359.257 241.251 361.903 238.776C364.591 236.259 365.935 232.867 365.935 228.6C365.935 224.333 364.591 220.963 361.903 218.488C359.257 215.971 355.695 214.712 351.215 214.712H341.743V242.488H351.215ZM397.434 216.056C402.767 216.056 406.863 217.336 409.722 219.896C412.58 222.413 414.01 226.232 414.01 231.352V251H404.666V246.712C402.788 249.912 399.29 251.512 394.17 251.512C391.524 251.512 389.22 251.064 387.258 250.168C385.338 249.272 383.866 248.035 382.842 246.456C381.818 244.877 381.306 243.085 381.306 241.08C381.306 237.88 382.5 235.363 384.89 233.528C387.322 231.693 391.055 230.776 396.09 230.776H404.026C404.026 228.6 403.364 226.936 402.042 225.784C400.719 224.589 398.735 223.992 396.09 223.992C394.255 223.992 392.442 224.291 390.65 224.888C388.9 225.443 387.407 226.211 386.17 227.192L382.586 220.216C384.463 218.893 386.703 217.869 389.306 217.144C391.951 216.419 394.66 216.056 397.434 216.056ZM396.666 244.792C398.372 244.792 399.887 244.408 401.21 243.64C402.532 242.829 403.471 241.656 404.026 240.12V236.6H397.178C393.082 236.6 391.034 237.944 391.034 240.632C391.034 241.912 391.524 242.936 392.506 243.704C393.53 244.429 394.916 244.792 396.666 244.792ZM445.254 249.336C444.272 250.061 443.056 250.616 441.606 251C440.198 251.341 438.704 251.512 437.126 251.512C433.03 251.512 429.851 250.467 427.59 248.376C425.371 246.285 424.262 243.213 424.262 239.16V225.016H418.95V217.336H424.262V208.952H434.246V217.336H442.822V225.016H434.246V239.032C434.246 240.483 434.608 241.613 435.333 242.424C436.102 243.192 437.168 243.576 438.534 243.576C440.112 243.576 441.456 243.149 442.566 242.296L445.254 249.336ZM464.746 216.056C470.079 216.056 474.175 217.336 477.034 219.896C479.893 222.413 481.322 226.232 481.322 231.352V251H471.978V246.712C470.101 249.912 466.602 251.512 461.482 251.512C458.837 251.512 456.533 251.064 454.57 250.168C452.65 249.272 451.178 248.035 450.154 246.456C449.13 244.877 448.618 243.085 448.618 241.08C448.618 237.88 449.813 235.363 452.202 233.528C454.634 231.693 458.367 230.776 463.402 230.776H471.338C471.338 228.6 470.677 226.936 469.354 225.784C468.031 224.589 466.047 223.992 463.402 223.992C461.567 223.992 459.754 224.291 457.962 224.888C456.213 225.443 454.719 226.211 453.482 227.192L449.898 220.216C451.775 218.893 454.015 217.869 456.618 217.144C459.263 216.419 461.973 216.056 464.746 216.056ZM463.978 244.792C465.685 244.792 467.199 244.408 468.522 243.64C469.845 242.829 470.783 241.656 471.338 240.12V236.6H464.49C460.394 236.6 458.346 237.944 458.346 240.632C458.346 241.912 458.837 242.936 459.818 243.704C460.842 244.429 462.229 244.792 463.978 244.792ZM160 314.68V323H125.312V278.2H159.168V286.52H135.616V296.248H156.416V304.312H135.616V314.68H160ZM201.409 288.568L186.881 323H176.577L162.113 288.568H172.417L181.953 311.992L191.809 288.568H201.409ZM220.93 323.512C217.303 323.512 214.039 322.765 211.138 321.272C208.279 319.736 206.039 317.624 204.418 314.936C202.796 312.248 201.986 309.197 201.986 305.784C201.986 302.371 202.796 299.32 204.418 296.632C206.039 293.944 208.279 291.853 211.138 290.36C214.039 288.824 217.303 288.056 220.93 288.056C224.556 288.056 227.799 288.824 230.658 290.36C233.516 291.853 235.756 293.944 237.378 296.632C238.999 299.32 239.81 302.371 239.81 305.784C239.81 309.197 238.999 312.248 237.378 314.936C235.756 317.624 233.516 319.736 230.658 321.272C227.799 322.765 224.556 323.512 220.93 323.512ZM220.93 315.32C223.49 315.32 225.58 314.467 227.202 312.76C228.866 311.011 229.698 308.685 229.698 305.784C229.698 302.883 228.866 300.579 227.202 298.872C225.58 297.123 223.49 296.248 220.93 296.248C218.37 296.248 216.258 297.123 214.594 298.872C212.93 300.579 212.098 302.883 212.098 305.784C212.098 308.685 212.93 311.011 214.594 312.76C216.258 314.467 218.37 315.32 220.93 315.32ZM246.483 275.512H256.467V323H246.483V275.512ZM300.421 288.568V323H290.949V318.904C289.626 320.397 288.048 321.549 286.213 322.36C284.378 323.128 282.394 323.512 280.261 323.512C275.738 323.512 272.154 322.211 269.509 319.608C266.864 317.005 265.541 313.144 265.541 308.024V288.568H275.525V306.552C275.525 312.099 277.85 314.872 282.501 314.872C284.89 314.872 286.81 314.104 288.261 312.568C289.712 310.989 290.437 308.664 290.437 305.592V288.568H300.421ZM331.879 321.336C330.897 322.061 329.681 322.616 328.231 323C326.823 323.341 325.329 323.512 323.751 323.512C319.655 323.512 316.476 322.467 314.215 320.376C311.996 318.285 310.887 315.213 310.887 311.16V297.016H305.575V289.336H310.887V280.952H320.871V289.336H329.447V297.016H320.871V311.032C320.871 312.483 321.233 313.613 321.958 314.424C322.727 315.192 323.793 315.576 325.159 315.576C326.737 315.576 328.081 315.149 329.191 314.296L331.879 321.336ZM337.483 288.568H347.467V323H337.483V288.568ZM342.475 283.768C340.64 283.768 339.147 283.235 337.995 282.168C336.843 281.101 336.267 279.779 336.267 278.2C336.267 276.621 336.843 275.299 337.995 274.232C339.147 273.165 340.64 272.632 342.475 272.632C344.31 272.632 345.803 273.144 346.955 274.168C348.107 275.192 348.683 276.472 348.683 278.008C348.683 279.672 348.107 281.059 346.955 282.168C345.803 283.235 344.31 283.768 342.475 283.768ZM373.117 323.512C369.49 323.512 366.226 322.765 363.325 321.272C360.466 319.736 358.226 317.624 356.605 314.936C354.984 312.248 354.173 309.197 354.173 305.784C354.173 302.371 354.984 299.32 356.605 296.632C358.226 293.944 360.466 291.853 363.325 290.36C366.226 288.824 369.49 288.056 373.117 288.056C376.744 288.056 379.986 288.824 382.845 290.36C385.704 291.853 387.944 293.944 389.565 296.632C391.186 299.32 391.997 302.371 391.997 305.784C391.997 309.197 391.186 312.248 389.565 314.936C387.944 317.624 385.704 319.736 382.845 321.272C379.986 322.765 376.744 323.512 373.117 323.512ZM373.117 315.32C375.677 315.32 377.768 314.467 379.389 312.76C381.053 311.011 381.885 308.685 381.885 305.784C381.885 302.883 381.053 300.579 379.389 298.872C377.768 297.123 375.677 296.248 373.117 296.248C370.557 296.248 368.445 297.123 366.781 298.872C365.117 300.579 364.285 302.883 364.285 305.784C364.285 308.685 365.117 311.011 366.781 312.76C368.445 314.467 370.557 315.32 373.117 315.32ZM419.599 288.056C423.865 288.056 427.3 289.336 429.903 291.896C432.548 294.456 433.871 298.253 433.871 303.288V323H423.887V304.824C423.887 302.093 423.289 300.067 422.095 298.744C420.9 297.379 419.172 296.696 416.911 296.696C414.393 296.696 412.388 297.485 410.895 299.064C409.401 300.6 408.655 302.904 408.655 305.976V323H398.671V288.568H408.207V292.6C409.529 291.149 411.172 290.04 413.135 289.272C415.097 288.461 417.252 288.056 419.599 288.056Z" fill="#2E3853"/>
<path d="M124.92 362.288V368.144H133.344V370.208H124.92V377H122.52V360.2H134.376V362.288H124.92ZM137.418 359.192H139.722V377H137.418V359.192ZM155.978 364.28V377H153.794V375.08C153.33 375.736 152.714 376.248 151.946 376.616C151.194 376.968 150.37 377.144 149.474 377.144C147.778 377.144 146.442 376.68 145.465 375.752C144.49 374.808 144.002 373.424 144.002 371.6V364.28H146.306V371.336C146.306 372.568 146.602 373.504 147.194 374.144C147.786 374.768 148.634 375.08 149.738 375.08C150.954 375.08 151.914 374.712 152.618 373.976C153.322 373.24 153.674 372.2 153.674 370.856V364.28H155.978ZM171.86 370.712C171.86 370.888 171.844 371.12 171.812 371.408H161.492C161.636 372.528 162.124 373.432 162.956 374.12C163.804 374.792 164.852 375.128 166.1 375.128C167.62 375.128 168.844 374.616 169.772 373.592L171.044 375.08C170.468 375.752 169.748 376.264 168.884 376.616C168.036 376.968 167.084 377.144 166.028 377.144C164.684 377.144 163.492 376.872 162.452 376.328C161.412 375.768 160.604 374.992 160.028 374C159.468 373.008 159.188 371.888 159.188 370.64C159.188 369.408 159.46 368.296 160.004 367.304C160.564 366.312 161.324 365.544 162.284 365C163.26 364.44 164.356 364.16 165.572 364.16C166.788 364.16 167.868 364.44 168.812 365C169.772 365.544 170.516 366.312 171.044 367.304C171.588 368.296 171.86 369.432 171.86 370.712ZM165.572 366.104C164.468 366.104 163.54 366.44 162.788 367.112C162.052 367.784 161.62 368.664 161.492 369.752H169.652C169.524 368.68 169.084 367.808 168.332 367.136C167.596 366.448 166.676 366.104 165.572 366.104ZM181.851 364.16C183.467 364.16 184.747 364.632 185.691 365.576C186.651 366.504 187.131 367.872 187.131 369.68V377H184.827V369.944C184.827 368.712 184.531 367.784 183.939 367.16C183.347 366.536 182.499 366.224 181.395 366.224C180.147 366.224 179.163 366.592 178.443 367.328C177.723 368.048 177.363 369.088 177.363 370.448V377H175.059V364.28H177.267V366.2C177.731 365.544 178.355 365.04 179.139 364.688C179.939 364.336 180.843 364.16 181.851 364.16ZM198.547 376.256C198.211 376.544 197.795 376.768 197.299 376.928C196.803 377.072 196.291 377.144 195.763 377.144C194.483 377.144 193.491 376.8 192.787 376.112C192.083 375.424 191.731 374.44 191.731 373.16V366.176H189.571V364.28H191.731V361.496H194.035V364.28H197.683V366.176H194.035V373.064C194.035 373.752 194.203 374.28 194.539 374.648C194.891 375.016 195.387 375.2 196.027 375.2C196.731 375.2 197.331 375 197.827 374.6L198.547 376.256ZM214.93 376.256C214.594 376.544 214.178 376.768 213.682 376.928C213.186 377.072 212.674 377.144 212.146 377.144C210.866 377.144 209.874 376.8 209.17 376.112C208.466 375.424 208.114 374.44 208.114 373.16V366.176H205.954V364.28H208.114V361.496H210.418V364.28H214.066V366.176H210.418V373.064C210.418 373.752 210.586 374.28 210.922 374.648C211.274 375.016 211.77 375.2 212.41 375.2C213.114 375.2 213.714 375 214.21 374.6L214.93 376.256ZM219.923 366.416C220.323 365.68 220.915 365.12 221.699 364.736C222.483 364.352 223.435 364.16 224.555 364.16V366.392C224.427 366.376 224.251 366.368 224.027 366.368C222.779 366.368 221.795 366.744 221.075 367.496C220.371 368.232 220.019 369.288 220.019 370.664V377H217.715V364.28H219.923V366.416ZM232.004 364.16C233.764 364.16 235.108 364.592 236.036 365.456C236.98 366.32 237.452 367.608 237.452 369.32V377H235.268V375.32C234.884 375.912 234.332 376.368 233.612 376.688C232.908 376.992 232.068 377.144 231.092 377.144C229.668 377.144 228.524 376.8 227.66 376.112C226.812 375.424 226.388 374.52 226.388 373.4C226.388 372.28 226.796 371.384 227.612 370.712C228.428 370.024 229.724 369.68 231.5 369.68H235.148V369.224C235.148 368.232 234.86 367.472 234.284 366.944C233.708 366.416 232.86 366.152 231.74 366.152C230.988 366.152 230.252 366.28 229.532 366.536C228.812 366.776 228.204 367.104 227.708 367.52L226.748 365.792C227.404 365.264 228.188 364.864 229.1 364.592C230.012 364.304 230.98 364.16 232.004 364.16ZM231.476 375.368C232.356 375.368 233.116 375.176 233.756 374.792C234.396 374.392 234.86 373.832 235.148 373.112V371.336H231.596C229.644 371.336 228.668 371.992 228.668 373.304C228.668 373.944 228.916 374.448 229.412 374.816C229.908 375.184 230.596 375.368 231.476 375.368ZM248.507 364.16C250.123 364.16 251.403 364.632 252.347 365.576C253.307 366.504 253.787 367.872 253.787 369.68V377H251.483V369.944C251.483 368.712 251.187 367.784 250.595 367.16C250.003 366.536 249.155 366.224 248.051 366.224C246.803 366.224 245.819 366.592 245.099 367.328C244.379 368.048 244.019 369.088 244.019 370.448V377H241.715V364.28H243.923V366.2C244.387 365.544 245.011 365.04 245.795 364.688C246.595 364.336 247.499 364.16 248.507 364.16ZM261.699 377.144C260.659 377.144 259.659 377.008 258.699 376.736C257.739 376.448 256.987 376.088 256.443 375.656L257.403 373.832C257.963 374.232 258.643 374.552 259.443 374.792C260.243 375.032 261.051 375.152 261.867 375.152C263.883 375.152 264.891 374.576 264.891 373.424C264.891 373.04 264.755 372.736 264.483 372.512C264.211 372.288 263.867 372.128 263.451 372.032C263.051 371.92 262.475 371.8 261.723 371.672C260.699 371.512 259.859 371.328 259.203 371.12C258.563 370.912 258.011 370.56 257.547 370.064C257.083 369.568 256.851 368.872 256.851 367.976C256.851 366.824 257.331 365.904 258.291 365.216C259.251 364.512 260.539 364.16 262.155 364.16C263.003 364.16 263.851 364.264 264.699 364.472C265.547 364.68 266.243 364.96 266.787 365.312L265.803 367.136C264.763 366.464 263.539 366.128 262.131 366.128C261.155 366.128 260.411 366.288 259.899 366.608C259.387 366.928 259.131 367.352 259.131 367.88C259.131 368.296 259.275 368.624 259.563 368.864C259.851 369.104 260.203 369.28 260.619 369.392C261.051 369.504 261.651 369.632 262.419 369.776C263.443 369.952 264.267 370.144 264.891 370.352C265.531 370.544 266.075 370.88 266.523 371.36C266.971 371.84 267.195 372.512 267.195 373.376C267.195 374.528 266.699 375.448 265.707 376.136C264.731 376.808 263.395 377.144 261.699 377.144ZM274.731 360.944C273.355 360.944 272.667 361.688 272.667 363.176V364.28H276.363V366.176H272.715V377H270.411V366.176H268.251V364.28H270.411V363.152C270.411 361.888 270.779 360.888 271.515 360.152C272.251 359.416 273.283 359.048 274.611 359.048C275.123 359.048 275.603 359.112 276.051 359.24C276.499 359.368 276.883 359.552 277.203 359.792L276.507 361.544C275.979 361.144 275.387 360.944 274.731 360.944ZM289.844 370.712C289.844 370.888 289.828 371.12 289.796 371.408H279.476C279.62 372.528 280.108 373.432 280.94 374.12C281.788 374.792 282.836 375.128 284.084 375.128C285.604 375.128 286.828 374.616 287.756 373.592L289.028 375.08C288.452 375.752 287.732 376.264 286.868 376.616C286.02 376.968 285.068 377.144 284.012 377.144C282.668 377.144 281.476 376.872 280.436 376.328C279.396 375.768 278.588 374.992 278.012 374C277.452 373.008 277.172 371.888 277.172 370.64C277.172 369.408 277.444 368.296 277.988 367.304C278.548 366.312 279.308 365.544 280.268 365C281.244 364.44 282.34 364.16 283.556 364.16C284.772 364.16 285.852 364.44 286.796 365C287.756 365.544 288.5 366.312 289.028 367.304C289.572 368.296 289.844 369.432 289.844 370.712ZM283.556 366.104C282.452 366.104 281.524 366.44 280.772 367.112C280.036 367.784 279.604 368.664 279.476 369.752H287.636C287.508 368.68 287.068 367.808 286.316 367.136C285.58 366.448 284.66 366.104 283.556 366.104ZM295.251 366.416C295.651 365.68 296.243 365.12 297.027 364.736C297.811 364.352 298.763 364.16 299.883 364.16V366.392C299.755 366.376 299.579 366.368 299.355 366.368C298.107 366.368 297.123 366.744 296.403 367.496C295.699 368.232 295.347 369.288 295.347 370.664V377H293.043V364.28H295.251V366.416ZM316.484 376.256C316.148 376.544 315.732 376.768 315.236 376.928C314.74 377.072 314.228 377.144 313.7 377.144C312.42 377.144 311.428 376.8 310.724 376.112C310.02 375.424 309.668 374.44 309.668 373.16V366.176H307.508V364.28H309.668V361.496H311.972V364.28H315.62V366.176H311.972V373.064C311.972 373.752 312.14 374.28 312.476 374.648C312.828 375.016 313.324 375.2 313.964 375.2C314.668 375.2 315.268 375 315.764 374.6L316.484 376.256ZM324.296 377.144C323.032 377.144 321.896 376.864 320.888 376.304C319.88 375.744 319.088 374.976 318.512 374C317.952 373.008 317.672 371.888 317.672 370.64C317.672 369.392 317.952 368.28 318.512 367.304C319.088 366.312 319.88 365.544 320.888 365C321.896 364.44 323.032 364.16 324.296 364.16C325.56 364.16 326.688 364.44 327.68 365C328.688 365.544 329.472 366.312 330.032 367.304C330.608 368.28 330.896 369.392 330.896 370.64C330.896 371.888 330.608 373.008 330.032 374C329.472 374.976 328.688 375.744 327.68 376.304C326.688 376.864 325.56 377.144 324.296 377.144ZM324.296 375.128C325.112 375.128 325.84 374.944 326.48 374.576C327.136 374.192 327.648 373.664 328.016 372.992C328.384 372.304 328.568 371.52 328.568 370.64C328.568 369.76 328.384 368.984 328.016 368.312C327.648 367.624 327.136 367.096 326.48 366.728C325.84 366.36 325.112 366.176 324.296 366.176C323.48 366.176 322.744 366.36 322.088 366.728C321.448 367.096 320.936 367.624 320.552 368.312C320.184 368.984 320 369.76 320 370.64C320 371.52 320.184 372.304 320.552 372.992C320.936 373.664 321.448 374.192 322.088 374.576C322.744 374.944 323.48 375.128 324.296 375.128ZM345.16 364.16C346.92 364.16 348.264 364.592 349.192 365.456C350.136 366.32 350.608 367.608 350.608 369.32V377H348.424V375.32C348.04 375.912 347.488 376.368 346.768 376.688C346.064 376.992 345.224 377.144 344.248 377.144C342.824 377.144 341.68 376.8 340.816 376.112C339.968 375.424 339.544 374.52 339.544 373.4C339.544 372.28 339.952 371.384 340.768 370.712C341.584 370.024 342.88 369.68 344.656 369.68H348.304V369.224C348.304 368.232 348.016 367.472 347.44 366.944C346.864 366.416 346.016 366.152 344.896 366.152C344.144 366.152 343.408 366.28 342.688 366.536C341.968 366.776 341.36 367.104 340.864 367.52L339.904 365.792C340.56 365.264 341.344 364.864 342.256 364.592C343.168 364.304 344.136 364.16 345.16 364.16ZM344.632 375.368C345.512 375.368 346.272 375.176 346.912 374.792C347.552 374.392 348.016 373.832 348.304 373.112V371.336H344.752C342.8 371.336 341.824 371.992 341.824 373.304C341.824 373.944 342.072 374.448 342.568 374.816C343.064 375.184 343.752 375.368 344.632 375.368ZM366.728 364.28V377H364.544V375.08C364.08 375.736 363.464 376.248 362.696 376.616C361.944 376.968 361.12 377.144 360.224 377.144C358.528 377.144 357.192 376.68 356.215 375.752C355.24 374.808 354.752 373.424 354.752 371.6V364.28H357.056V371.336C357.056 372.568 357.352 373.504 357.944 374.144C358.536 374.768 359.384 375.08 360.488 375.08C361.704 375.08 362.664 374.712 363.368 373.976C364.072 373.24 364.424 372.2 364.424 370.856V364.28H366.728ZM378.266 376.256C377.93 376.544 377.514 376.768 377.018 376.928C376.522 377.072 376.01 377.144 375.482 377.144C374.202 377.144 373.21 376.8 372.506 376.112C371.802 375.424 371.45 374.44 371.45 373.16V366.176H369.29V364.28H371.45V361.496H373.754V364.28H377.402V366.176H373.754V373.064C373.754 373.752 373.922 374.28 374.258 374.648C374.61 375.016 375.106 375.2 375.746 375.2C376.45 375.2 377.05 375 377.546 374.6L378.266 376.256ZM386.077 377.144C384.813 377.144 383.677 376.864 382.669 376.304C381.661 375.744 380.869 374.976 380.293 374C379.733 373.008 379.453 371.888 379.453 370.64C379.453 369.392 379.733 368.28 380.293 367.304C380.869 366.312 381.661 365.544 382.669 365C383.677 364.44 384.813 364.16 386.077 364.16C387.341 364.16 388.469 364.44 389.461 365C390.469 365.544 391.253 366.312 391.813 367.304C392.389 368.28 392.677 369.392 392.677 370.64C392.677 371.888 392.389 373.008 391.813 374C391.253 374.976 390.469 375.744 389.461 376.304C388.469 376.864 387.341 377.144 386.077 377.144ZM386.077 375.128C386.893 375.128 387.621 374.944 388.261 374.576C388.917 374.192 389.429 373.664 389.797 372.992C390.165 372.304 390.349 371.52 390.349 370.64C390.349 369.76 390.165 368.984 389.797 368.312C389.429 367.624 388.917 367.096 388.261 366.728C387.621 366.36 386.893 366.176 386.077 366.176C385.261 366.176 384.525 366.36 383.869 366.728C383.229 367.096 382.717 367.624 382.333 368.312C381.965 368.984 381.781 369.76 381.781 370.64C381.781 371.52 381.965 372.304 382.333 372.992C382.717 373.664 383.229 374.192 383.869 374.576C384.525 374.944 385.261 375.128 386.077 375.128ZM411.776 364.16C413.376 364.16 414.64 364.624 415.568 365.552C416.512 366.48 416.984 367.856 416.984 369.68V377H414.68V369.944C414.68 368.712 414.392 367.784 413.816 367.16C413.256 366.536 412.448 366.224 411.392 366.224C410.224 366.224 409.296 366.592 408.608 367.328C407.92 368.048 407.576 369.088 407.576 370.448V377H405.272V369.944C405.272 368.712 404.984 367.784 404.408 367.16C403.848 366.536 403.04 366.224 401.984 366.224C400.816 366.224 399.888 366.592 399.2 367.328C398.512 368.048 398.168 369.088 398.168 370.448V377H395.864V364.28H398.072V366.176C398.536 365.52 399.144 365.024 399.896 364.688C400.648 364.336 401.504 364.16 402.464 364.16C403.456 364.16 404.336 364.36 405.104 364.76C405.872 365.16 406.464 365.744 406.88 366.512C407.36 365.776 408.024 365.2 408.872 364.784C409.736 364.368 410.704 364.16 411.776 364.16ZM425.855 364.16C427.615 364.16 428.959 364.592 429.887 365.456C430.831 366.32 431.303 367.608 431.303 369.32V377H429.119V375.32C428.735 375.912 428.183 376.368 427.463 376.688C426.759 376.992 425.919 377.144 424.943 377.144C423.519 377.144 422.375 376.8 421.511 376.112C420.663 375.424 420.239 374.52 420.239 373.4C420.239 372.28 420.647 371.384 421.463 370.712C422.279 370.024 423.575 369.68 425.351 369.68H428.999V369.224C428.999 368.232 428.711 367.472 428.135 366.944C427.559 366.416 426.711 366.152 425.591 366.152C424.839 366.152 424.103 366.28 423.383 366.536C422.663 366.776 422.055 367.104 421.559 367.52L420.599 365.792C421.255 365.264 422.039 364.864 422.951 364.592C423.863 364.304 424.831 364.16 425.855 364.16ZM425.327 375.368C426.207 375.368 426.967 375.176 427.607 374.792C428.247 374.392 428.711 373.832 428.999 373.112V371.336H425.447C423.495 371.336 422.519 371.992 422.519 373.304C422.519 373.944 422.767 374.448 423.263 374.816C423.759 375.184 424.447 375.368 425.327 375.368ZM442.719 376.256C442.383 376.544 441.967 376.768 441.471 376.928C440.975 377.072 440.463 377.144 439.935 377.144C438.655 377.144 437.663 376.8 436.959 376.112C436.255 375.424 435.903 374.44 435.903 373.16V366.176H433.743V364.28H435.903V361.496H438.207V364.28H441.855V366.176H438.207V373.064C438.207 373.752 438.375 374.28 438.711 374.648C439.063 375.016 439.559 375.2 440.199 375.2C440.903 375.2 441.503 375 441.999 374.6L442.719 376.256ZM456.578 370.712C456.578 370.888 456.562 371.12 456.53 371.408H446.21C446.354 372.528 446.842 373.432 447.674 374.12C448.522 374.792 449.57 375.128 450.818 375.128C452.338 375.128 453.562 374.616 454.49 373.592L455.762 375.08C455.186 375.752 454.466 376.264 453.602 376.616C452.754 376.968 451.802 377.144 450.746 377.144C449.402 377.144 448.21 376.872 447.17 376.328C446.13 375.768 445.322 374.992 444.746 374C444.186 373.008 443.906 371.888 443.906 370.64C443.906 369.408 444.178 368.296 444.722 367.304C445.282 366.312 446.042 365.544 447.002 365C447.978 364.44 449.074 364.16 450.29 364.16C451.506 364.16 452.586 364.44 453.53 365C454.49 365.544 455.234 366.312 455.762 367.304C456.306 368.296 456.578 369.432 456.578 370.712ZM450.29 366.104C449.186 366.104 448.258 366.44 447.506 367.112C446.77 367.784 446.338 368.664 446.21 369.752H454.37C454.242 368.68 453.802 367.808 453.05 367.136C452.314 366.448 451.394 366.104 450.29 366.104ZM471.778 359.192V377H469.57V374.984C469.058 375.688 468.41 376.224 467.626 376.592C466.842 376.96 465.978 377.144 465.034 377.144C463.802 377.144 462.698 376.872 461.722 376.328C460.746 375.784 459.978 375.024 459.418 374.048C458.874 373.056 458.602 371.92 458.602 370.64C458.602 369.36 458.874 368.232 459.418 367.256C459.978 366.28 460.746 365.52 461.722 364.976C462.698 364.432 463.802 364.16 465.034 364.16C465.946 364.16 466.786 364.336 467.554 364.688C468.322 365.024 468.962 365.528 469.474 366.2V359.192H471.778ZM465.226 375.128C466.026 375.128 466.754 374.944 467.41 374.576C468.066 374.192 468.578 373.664 468.946 372.992C469.314 372.304 469.498 371.52 469.498 370.64C469.498 369.76 469.314 368.984 468.946 368.312C468.578 367.624 468.066 367.096 467.41 366.728C466.754 366.36 466.026 366.176 465.226 366.176C464.41 366.176 463.674 366.36 463.018 366.728C462.378 367.096 461.866 367.624 461.482 368.312C461.114 368.984 460.93 369.76 460.93 370.64C460.93 371.52 461.114 372.304 461.482 372.992C461.866 373.664 462.378 374.192 463.018 374.576C463.674 374.944 464.41 375.128 465.226 375.128ZM489.326 364.16C490.558 364.16 491.662 364.432 492.638 364.976C493.614 365.52 494.374 366.28 494.918 367.256C495.478 368.232 495.758 369.36 495.758 370.64C495.758 371.92 495.478 373.056 494.918 374.048C494.374 375.024 493.614 375.784 492.638 376.328C491.662 376.872 490.558 377.144 489.326 377.144C488.414 377.144 487.574 376.968 486.806 376.616C486.054 376.264 485.414 375.752 484.886 375.08V381.656H482.582V364.28H484.79V366.296C485.302 365.592 485.95 365.064 486.734 364.712C487.518 364.344 488.382 364.16 489.326 364.16ZM489.134 375.128C489.95 375.128 490.678 374.944 491.318 374.576C491.974 374.192 492.486 373.664 492.854 372.992C493.238 372.304 493.43 371.52 493.43 370.64C493.43 369.76 493.238 368.984 492.854 368.312C492.486 367.624 491.974 367.096 491.318 366.728C490.678 366.36 489.95 366.176 489.134 366.176C488.334 366.176 487.606 366.368 486.95 366.752C486.31 367.12 485.798 367.64 485.414 368.312C485.046 368.984 484.862 369.76 484.862 370.64C484.862 371.52 485.046 372.304 485.414 372.992C485.782 373.664 486.294 374.192 486.95 374.576C487.606 374.944 488.334 375.128 489.134 375.128ZM501.15 366.416C501.55 365.68 502.142 365.12 502.926 364.736C503.71 364.352 504.662 364.16 505.782 364.16V366.392C505.654 366.376 505.478 366.368 505.254 366.368C504.006 366.368 503.022 366.744 502.302 367.496C501.598 368.232 501.246 369.288 501.246 370.664V377H498.942V364.28H501.15V366.416ZM513.952 377.144C512.688 377.144 511.552 376.864 510.544 376.304C509.536 375.744 508.744 374.976 508.168 374C507.608 373.008 507.328 371.888 507.328 370.64C507.328 369.392 507.608 368.28 508.168 367.304C508.744 366.312 509.536 365.544 510.544 365C511.552 364.44 512.688 364.16 513.952 364.16C515.216 364.16 516.344 364.44 517.336 365C518.344 365.544 519.128 366.312 519.688 367.304C520.264 368.28 520.552 369.392 520.552 370.64C520.552 371.888 520.264 373.008 519.688 374C519.128 374.976 518.344 375.744 517.336 376.304C516.344 376.864 515.216 377.144 513.952 377.144ZM513.952 375.128C514.768 375.128 515.496 374.944 516.136 374.576C516.792 374.192 517.304 373.664 517.672 372.992C518.04 372.304 518.224 371.52 518.224 370.64C518.224 369.76 518.04 368.984 517.672 368.312C517.304 367.624 516.792 367.096 516.136 366.728C515.496 366.36 514.768 366.176 513.952 366.176C513.136 366.176 512.4 366.36 511.744 366.728C511.104 367.096 510.592 367.624 510.208 368.312C509.84 368.984 509.656 369.76 509.656 370.64C509.656 371.52 509.84 372.304 510.208 372.992C510.592 373.664 511.104 374.192 511.744 374.576C512.4 374.944 513.136 375.128 513.952 375.128ZM529.283 377.144C527.987 377.144 526.827 376.864 525.803 376.304C524.795 375.744 524.003 374.976 523.427 374C522.851 373.008 522.563 371.888 522.563 370.64C522.563 369.392 522.851 368.28 523.427 367.304C524.003 366.312 524.795 365.544 525.803 365C526.827 364.44 527.987 364.16 529.283 364.16C530.435 364.16 531.459 364.392 532.355 364.856C533.267 365.32 533.971 365.992 534.467 366.872L532.715 368C532.315 367.392 531.819 366.936 531.227 366.632C530.635 366.328 529.979 366.176 529.259 366.176C528.427 366.176 527.675 366.36 527.003 366.728C526.347 367.096 525.827 367.624 525.443 368.312C525.075 368.984 524.891 369.76 524.891 370.64C524.891 371.536 525.075 372.328 525.443 373.016C525.827 373.688 526.347 374.208 527.003 374.576C527.675 374.944 528.427 375.128 529.259 375.128C529.979 375.128 530.635 374.976 531.227 374.672C531.819 374.368 532.315 373.912 532.715 373.304L534.467 374.408C533.971 375.288 533.267 375.968 532.355 376.448C531.459 376.912 530.435 377.144 529.283 377.144ZM548.758 370.712C548.758 370.888 548.742 371.12 548.71 371.408H538.39C538.534 372.528 539.022 373.432 539.854 374.12C540.702 374.792 541.75 375.128 542.998 375.128C544.518 375.128 545.742 374.616 546.67 373.592L547.942 375.08C547.366 375.752 546.646 376.264 545.782 376.616C544.934 376.968 543.982 377.144 542.926 377.144C541.582 377.144 540.39 376.872 539.35 376.328C538.31 375.768 537.502 374.992 536.926 374C536.366 373.008 536.086 371.888 536.086 370.64C536.086 369.408 536.358 368.296 536.902 367.304C537.462 366.312 538.222 365.544 539.182 365C540.158 364.44 541.254 364.16 542.47 364.16C543.686 364.16 544.766 364.44 545.71 365C546.67 365.544 547.414 366.312 547.942 367.304C548.486 368.296 548.758 369.432 548.758 370.712ZM542.47 366.104C541.366 366.104 540.438 366.44 539.686 367.112C538.95 367.784 538.518 368.664 538.39 369.752H546.55C546.422 368.68 545.982 367.808 545.23 367.136C544.494 366.448 543.574 366.104 542.47 366.104ZM555.605 377.144C554.565 377.144 553.565 377.008 552.605 376.736C551.645 376.448 550.893 376.088 550.349 375.656L551.309 373.832C551.869 374.232 552.549 374.552 553.349 374.792C554.149 375.032 554.957 375.152 555.773 375.152C557.789 375.152 558.797 374.576 558.797 373.424C558.797 373.04 558.661 372.736 558.389 372.512C558.117 372.288 557.773 372.128 557.357 372.032C556.957 371.92 556.381 371.8 555.629 371.672C554.605 371.512 553.765 371.328 553.109 371.12C552.469 370.912 551.917 370.56 551.453 370.064C550.989 369.568 550.757 368.872 550.757 367.976C550.757 366.824 551.237 365.904 552.197 365.216C553.157 364.512 554.445 364.16 556.061 364.16C556.909 364.16 557.757 364.264 558.605 364.472C559.453 364.68 560.149 364.96 560.693 365.312L559.709 367.136C558.669 366.464 557.445 366.128 556.037 366.128C555.061 366.128 554.317 366.288 553.805 366.608C553.293 366.928 553.037 367.352 553.037 367.88C553.037 368.296 553.181 368.624 553.469 368.864C553.757 369.104 554.109 369.28 554.525 369.392C554.957 369.504 555.557 369.632 556.325 369.776C557.349 369.952 558.173 370.144 558.797 370.352C559.437 370.544 559.981 370.88 560.429 371.36C560.877 371.84 561.101 372.512 561.101 373.376C561.101 374.528 560.605 375.448 559.613 376.136C558.637 376.808 557.301 377.144 555.605 377.144ZM567.629 377.144C566.589 377.144 565.589 377.008 564.629 376.736C563.669 376.448 562.917 376.088 562.373 375.656L563.333 373.832C563.893 374.232 564.573 374.552 565.373 374.792C566.173 375.032 566.981 375.152 567.797 375.152C569.813 375.152 570.821 374.576 570.821 373.424C570.821 373.04 570.685 372.736 570.413 372.512C570.141 372.288 569.797 372.128 569.381 372.032C568.981 371.92 568.405 371.8 567.653 371.672C566.629 371.512 565.789 371.328 565.133 371.12C564.493 370.912 563.941 370.56 563.477 370.064C563.013 369.568 562.781 368.872 562.781 367.976C562.781 366.824 563.261 365.904 564.221 365.216C565.181 364.512 566.469 364.16 568.085 364.16C568.933 364.16 569.781 364.264 570.629 364.472C571.477 364.68 572.173 364.96 572.717 365.312L571.733 367.136C570.693 366.464 569.469 366.128 568.061 366.128C567.085 366.128 566.341 366.288 565.829 366.608C565.317 366.928 565.061 367.352 565.061 367.88C565.061 368.296 565.205 368.624 565.493 368.864C565.781 369.104 566.133 369.28 566.549 369.392C566.981 369.504 567.581 369.632 568.349 369.776C569.373 369.952 570.197 370.144 570.821 370.352C571.461 370.544 572.005 370.88 572.453 371.36C572.901 371.84 573.125 372.512 573.125 373.376C573.125 374.528 572.629 375.448 571.637 376.136C570.661 376.808 569.325 377.144 567.629 377.144ZM601.698 364.28L596.946 377H594.738L591.066 367.352L587.346 377H585.138L580.41 364.28H582.594L586.29 374.408L590.13 364.28H592.074L595.842 374.456L599.634 364.28H601.698ZM604.036 364.28H606.34V377H604.036V364.28ZM605.188 361.832C604.74 361.832 604.364 361.688 604.06 361.4C603.772 361.112 603.628 360.76 603.628 360.344C603.628 359.928 603.772 359.576 604.06 359.288C604.364 358.984 604.74 358.832 605.188 358.832C605.636 358.832 606.004 358.976 606.292 359.264C606.596 359.536 606.748 359.88 606.748 360.296C606.748 360.728 606.596 361.096 606.292 361.4C606.004 361.688 605.636 361.832 605.188 361.832ZM617.891 376.256C617.555 376.544 617.139 376.768 616.643 376.928C616.147 377.072 615.635 377.144 615.107 377.144C613.827 377.144 612.835 376.8 612.131 376.112C611.427 375.424 611.075 374.44 611.075 373.16V366.176H608.915V364.28H611.075V361.496H613.379V364.28H617.027V366.176H613.379V373.064C613.379 373.752 613.547 374.28 613.883 374.648C614.235 375.016 614.731 375.2 615.371 375.2C616.075 375.2 616.675 375 617.171 374.6L617.891 376.256ZM627.468 364.16C629.084 364.16 630.364 364.632 631.308 365.576C632.268 366.504 632.748 367.872 632.748 369.68V377H630.444V369.944C630.444 368.712 630.148 367.784 629.556 367.16C628.964 366.536 628.116 366.224 627.012 366.224C625.764 366.224 624.78 366.592 624.06 367.328C623.34 368.048 622.98 369.088 622.98 370.448V377H620.676V359.192H622.98V366.08C623.46 365.472 624.084 365 624.852 364.664C625.636 364.328 626.508 364.16 627.468 364.16ZM128.928 396.16C130.16 396.16 131.264 396.432 132.24 396.976C133.216 397.52 133.976 398.28 134.52 399.256C135.08 400.232 135.36 401.36 135.36 402.64C135.36 403.92 135.08 405.056 134.52 406.048C133.976 407.024 133.216 407.784 132.24 408.328C131.264 408.872 130.16 409.144 128.928 409.144C128.016 409.144 127.176 408.968 126.408 408.616C125.656 408.264 125.016 407.752 124.488 407.08V413.656H122.184V396.28H124.392V398.296C124.904 397.592 125.552 397.064 126.336 396.712C127.12 396.344 127.984 396.16 128.928 396.16ZM128.736 407.128C129.552 407.128 130.28 406.944 130.92 406.576C131.576 406.192 132.088 405.664 132.456 404.992C132.84 404.304 133.032 403.52 133.032 402.64C133.032 401.76 132.84 400.984 132.456 400.312C132.088 399.624 131.576 399.096 130.92 398.728C130.28 398.36 129.552 398.176 128.736 398.176C127.936 398.176 127.208 398.368 126.552 398.752C125.912 399.12 125.4 399.64 125.016 400.312C124.648 400.984 124.464 401.76 124.464 402.64C124.464 403.52 124.648 404.304 125.016 404.992C125.384 405.664 125.896 406.192 126.552 406.576C127.208 406.944 127.936 407.128 128.736 407.128ZM143.058 396.16C144.818 396.16 146.162 396.592 147.09 397.456C148.034 398.32 148.506 399.608 148.506 401.32V409H146.322V407.32C145.938 407.912 145.386 408.368 144.666 408.688C143.962 408.992 143.122 409.144 142.146 409.144C140.722 409.144 139.578 408.8 138.714 408.112C137.866 407.424 137.442 406.52 137.442 405.4C137.442 404.28 137.85 403.384 138.666 402.712C139.482 402.024 140.778 401.68 142.554 401.68H146.202V401.224C146.202 400.232 145.914 399.472 145.338 398.944C144.762 398.416 143.914 398.152 142.794 398.152C142.042 398.152 141.306 398.28 140.586 398.536C139.866 398.776 139.258 399.104 138.762 399.52L137.802 397.792C138.458 397.264 139.242 396.864 140.154 396.592C141.066 396.304 142.034 396.16 143.058 396.16ZM142.53 407.368C143.41 407.368 144.17 407.176 144.81 406.792C145.45 406.392 145.914 405.832 146.202 405.112V403.336H142.65C140.698 403.336 139.722 403.992 139.722 405.304C139.722 405.944 139.97 406.448 140.466 406.816C140.962 407.184 141.65 407.368 142.53 407.368ZM159.514 396.16C160.746 396.16 161.85 396.432 162.826 396.976C163.802 397.52 164.562 398.28 165.106 399.256C165.666 400.232 165.946 401.36 165.946 402.64C165.946 403.92 165.666 405.056 165.106 406.048C164.562 407.024 163.802 407.784 162.826 408.328C161.85 408.872 160.746 409.144 159.514 409.144C158.602 409.144 157.762 408.968 156.994 408.616C156.242 408.264 155.602 407.752 155.074 407.08V413.656H152.77V396.28H154.978V398.296C155.49 397.592 156.138 397.064 156.922 396.712C157.706 396.344 158.57 396.16 159.514 396.16ZM159.322 407.128C160.138 407.128 160.866 406.944 161.506 406.576C162.162 406.192 162.674 405.664 163.042 404.992C163.426 404.304 163.618 403.52 163.618 402.64C163.618 401.76 163.426 400.984 163.042 400.312C162.674 399.624 162.162 399.096 161.506 398.728C160.866 398.36 160.138 398.176 159.322 398.176C158.522 398.176 157.794 398.368 157.138 398.752C156.498 399.12 155.986 399.64 155.602 400.312C155.234 400.984 155.05 401.76 155.05 402.64C155.05 403.52 155.234 404.304 155.602 404.992C155.97 405.664 156.482 406.192 157.138 406.576C157.794 406.944 158.522 407.128 159.322 407.128ZM180.625 402.712C180.625 402.888 180.609 403.12 180.577 403.408H170.257C170.401 404.528 170.889 405.432 171.721 406.12C172.569 406.792 173.617 407.128 174.865 407.128C176.385 407.128 177.609 406.616 178.537 405.592L179.809 407.08C179.233 407.752 178.513 408.264 177.649 408.616C176.801 408.968 175.849 409.144 174.793 409.144C173.449 409.144 172.257 408.872 171.217 408.328C170.177 407.768 169.369 406.992 168.793 406C168.233 405.008 167.953 403.888 167.953 402.64C167.953 401.408 168.225 400.296 168.769 399.304C169.329 398.312 170.089 397.544 171.049 397C172.025 396.44 173.121 396.16 174.337 396.16C175.553 396.16 176.633 396.44 177.577 397C178.537 397.544 179.281 398.312 179.809 399.304C180.353 400.296 180.625 401.432 180.625 402.712ZM174.337 398.104C173.233 398.104 172.305 398.44 171.553 399.112C170.817 399.784 170.385 400.664 170.257 401.752H178.417C178.289 400.68 177.849 399.808 177.097 399.136C176.361 398.448 175.441 398.104 174.337 398.104ZM186.033 398.416C186.433 397.68 187.025 397.12 187.809 396.736C188.593 396.352 189.545 396.16 190.665 396.16V398.392C190.537 398.376 190.361 398.368 190.137 398.368C188.889 398.368 187.905 398.744 187.185 399.496C186.481 400.232 186.129 401.288 186.129 402.664V409H183.825V396.28H186.033V398.416ZM192.641 401.416H199.097V403.408H192.641V401.416ZM207.301 392.944C205.925 392.944 205.237 393.688 205.237 395.176V396.28H208.933V398.176H205.285V409H202.981V398.176H200.821V396.28H202.981V395.152C202.981 393.888 203.349 392.888 204.085 392.152C204.821 391.416 205.853 391.048 207.181 391.048C207.693 391.048 208.173 391.112 208.621 391.24C209.069 391.368 209.453 391.552 209.773 391.792L209.077 393.544C208.549 393.144 207.957 392.944 207.301 392.944ZM215.236 398.416C215.636 397.68 216.228 397.12 217.012 396.736C217.796 396.352 218.748 396.16 219.868 396.16V398.392C219.74 398.376 219.564 398.368 219.34 398.368C218.092 398.368 217.108 398.744 216.388 399.496C215.684 400.232 215.332 401.288 215.332 402.664V409H213.028V396.28H215.236V398.416ZM234.086 402.712C234.086 402.888 234.07 403.12 234.038 403.408H223.718C223.862 404.528 224.35 405.432 225.182 406.12C226.03 406.792 227.078 407.128 228.326 407.128C229.846 407.128 231.07 406.616 231.998 405.592L233.27 407.08C232.694 407.752 231.974 408.264 231.11 408.616C230.262 408.968 229.31 409.144 228.254 409.144C226.91 409.144 225.718 408.872 224.678 408.328C223.638 407.768 222.83 406.992 222.254 406C221.694 405.008 221.414 403.888 221.414 402.64C221.414 401.408 221.686 400.296 222.23 399.304C222.79 398.312 223.55 397.544 224.51 397C225.486 396.44 226.582 396.16 227.798 396.16C229.014 396.16 230.094 396.44 231.038 397C231.998 397.544 232.742 398.312 233.27 399.304C233.814 400.296 234.086 401.432 234.086 402.712ZM227.798 398.104C226.694 398.104 225.766 398.44 225.014 399.112C224.278 399.784 223.846 400.664 223.718 401.752H231.878C231.75 400.68 231.31 399.808 230.558 399.136C229.822 398.448 228.902 398.104 227.798 398.104ZM248.782 402.712C248.782 402.888 248.766 403.12 248.734 403.408H238.414C238.558 404.528 239.046 405.432 239.878 406.12C240.726 406.792 241.774 407.128 243.022 407.128C244.542 407.128 245.766 406.616 246.694 405.592L247.966 407.08C247.39 407.752 246.67 408.264 245.806 408.616C244.958 408.968 244.006 409.144 242.95 409.144C241.606 409.144 240.414 408.872 239.374 408.328C238.334 407.768 237.526 406.992 236.95 406C236.39 405.008 236.11 403.888 236.11 402.64C236.11 401.408 236.382 400.296 236.926 399.304C237.486 398.312 238.246 397.544 239.206 397C240.182 396.44 241.278 396.16 242.494 396.16C243.71 396.16 244.79 396.44 245.734 397C246.694 397.544 247.438 398.312 247.966 399.304C248.51 400.296 248.782 401.432 248.782 402.712ZM242.494 398.104C241.39 398.104 240.462 398.44 239.71 399.112C238.974 399.784 238.542 400.664 238.414 401.752H246.574C246.446 400.68 246.006 399.808 245.254 399.136C244.518 398.448 243.598 398.104 242.494 398.104ZM277.674 396.28L272.922 409H270.714L267.042 399.352L263.322 409H261.114L256.386 396.28H258.57L262.266 406.408L266.106 396.28H268.05L271.818 406.456L275.61 396.28H277.674ZM285.109 409.144C283.845 409.144 282.709 408.864 281.701 408.304C280.693 407.744 279.901 406.976 279.325 406C278.765 405.008 278.485 403.888 278.485 402.64C278.485 401.392 278.765 400.28 279.325 399.304C279.901 398.312 280.693 397.544 281.701 397C282.709 396.44 283.845 396.16 285.109 396.16C286.373 396.16 287.501 396.44 288.493 397C289.501 397.544 290.285 398.312 290.845 399.304C291.421 400.28 291.709 401.392 291.709 402.64C291.709 403.888 291.421 405.008 290.845 406C290.285 406.976 289.501 407.744 288.493 408.304C287.501 408.864 286.373 409.144 285.109 409.144ZM285.109 407.128C285.925 407.128 286.653 406.944 287.293 406.576C287.949 406.192 288.461 405.664 288.829 404.992C289.197 404.304 289.381 403.52 289.381 402.64C289.381 401.76 289.197 400.984 288.829 400.312C288.461 399.624 287.949 399.096 287.293 398.728C286.653 398.36 285.925 398.176 285.109 398.176C284.293 398.176 283.557 398.36 282.901 398.728C282.261 399.096 281.749 399.624 281.365 400.312C280.997 400.984 280.813 401.76 280.813 402.64C280.813 403.52 280.997 404.304 281.365 404.992C281.749 405.664 282.261 406.192 282.901 406.576C283.557 406.944 284.293 407.128 285.109 407.128ZM297.103 398.416C297.503 397.68 298.095 397.12 298.879 396.736C299.663 396.352 300.615 396.16 301.735 396.16V398.392C301.607 398.376 301.431 398.368 301.207 398.368C299.959 398.368 298.975 398.744 298.255 399.496C297.551 400.232 297.199 401.288 297.199 402.664V409H294.895V396.28H297.103V398.416ZM309.519 403.072L306.879 405.52V409H304.575V391.192H306.879V402.616L313.815 396.28H316.599L311.247 401.536L317.127 409H314.295L309.519 403.072ZM324.02 392.944C322.644 392.944 321.956 393.688 321.956 395.176V396.28H325.652V398.176H322.004V409H319.7V398.176H317.54V396.28H319.7V395.152C319.7 393.888 320.068 392.888 320.804 392.152C321.54 391.416 322.572 391.048 323.9 391.048C324.412 391.048 324.892 391.112 325.34 391.24C325.788 391.368 326.172 391.552 326.492 391.792L325.796 393.544C325.268 393.144 324.676 392.944 324.02 392.944ZM327.836 391.192H330.14V409H327.836V391.192ZM339.976 409.144C338.712 409.144 337.576 408.864 336.568 408.304C335.56 407.744 334.768 406.976 334.192 406C333.632 405.008 333.352 403.888 333.352 402.64C333.352 401.392 333.632 400.28 334.192 399.304C334.768 398.312 335.56 397.544 336.568 397C337.576 396.44 338.712 396.16 339.976 396.16C341.24 396.16 342.368 396.44 343.36 397C344.368 397.544 345.152 398.312 345.712 399.304C346.288 400.28 346.576 401.392 346.576 402.64C346.576 403.888 346.288 405.008 345.712 406C345.152 406.976 344.368 407.744 343.36 408.304C342.368 408.864 341.24 409.144 339.976 409.144ZM339.976 407.128C340.792 407.128 341.52 406.944 342.16 406.576C342.816 406.192 343.328 405.664 343.696 404.992C344.064 404.304 344.248 403.52 344.248 402.64C344.248 401.76 344.064 400.984 343.696 400.312C343.328 399.624 342.816 399.096 342.16 398.728C341.52 398.36 340.792 398.176 339.976 398.176C339.16 398.176 338.424 398.36 337.768 398.728C337.128 399.096 336.616 399.624 336.232 400.312C335.864 400.984 335.68 401.76 335.68 402.64C335.68 403.52 335.864 404.304 336.232 404.992C336.616 405.664 337.128 406.192 337.768 406.576C338.424 406.944 339.16 407.128 339.976 407.128ZM368.659 396.28L363.907 409H361.699L358.027 399.352L354.307 409H352.099L347.371 396.28H349.555L353.251 406.408L357.091 396.28H359.035L362.803 406.456L366.595 396.28H368.659ZM374.48 409.144C373.44 409.144 372.44 409.008 371.48 408.736C370.52 408.448 369.768 408.088 369.224 407.656L370.184 405.832C370.744 406.232 371.424 406.552 372.224 406.792C373.024 407.032 373.832 407.152 374.648 407.152C376.664 407.152 377.672 406.576 377.672 405.424C377.672 405.04 377.536 404.736 377.264 404.512C376.992 404.288 376.648 404.128 376.232 404.032C375.832 403.92 375.256 403.8 374.504 403.672C373.48 403.512 372.64 403.328 371.984 403.12C371.344 402.912 370.792 402.56 370.328 402.064C369.864 401.568 369.632 400.872 369.632 399.976C369.632 398.824 370.112 397.904 371.072 397.216C372.032 396.512 373.32 396.16 374.936 396.16C375.784 396.16 376.632 396.264 377.48 396.472C378.328 396.68 379.024 396.96 379.568 397.312L378.584 399.136C377.544 398.464 376.32 398.128 374.912 398.128C373.936 398.128 373.192 398.288 372.68 398.608C372.168 398.928 371.912 399.352 371.912 399.88C371.912 400.296 372.056 400.624 372.344 400.864C372.632 401.104 372.984 401.28 373.4 401.392C373.832 401.504 374.432 401.632 375.2 401.776C376.224 401.952 377.048 402.144 377.672 402.352C378.312 402.544 378.856 402.88 379.304 403.36C379.752 403.84 379.976 404.512 379.976 405.376C379.976 406.528 379.48 407.448 378.488 408.136C377.512 408.808 376.176 409.144 374.48 409.144Z" fill="#202A42"/>
<g clip-path="url(#clip0_46_338534)">
<g filter="url(#filter0_i_46_338534)">
<path fill-rule="evenodd" clip-rule="evenodd" d="M1144 687.449C1144.12 685.417 1145.03 683.394 1146.89 681.848L1173.79 659.482C1174.96 658.515 1175.71 657.143 1175.91 655.643L1182.47 605.226C1182.86 602.237 1185.4 600 1188.42 600H1307.77C1310.78 600 1313.33 602.237 1313.72 605.226L1320.28 655.633C1320.47 657.133 1321.23 658.505 1322.39 659.472L1349.31 681.848C1350.22 682.606 1350.9 683.479 1351.38 684.412C1351.68 685.014 1351.78 685.693 1351.78 686.368V689.567C1351.78 690.22 1351.69 690.877 1351.41 691.467C1350.18 694.046 1347.62 696 1344.2 696H1152C1147.31 696 1144.23 692.327 1144 688.407V687.449Z" fill="#F2F4F7"/>
<path fill-rule="evenodd" clip-rule="evenodd" d="M1144 687.449C1144.12 685.417 1145.03 683.394 1146.89 681.848L1173.79 659.482C1174.96 658.515 1175.71 657.143 1175.91 655.643L1182.47 605.226C1182.86 602.237 1185.4 600 1188.42 600H1307.77C1310.78 600 1313.33 602.237 1313.72 605.226L1320.28 655.633C1320.47 657.133 1321.23 658.505 1322.39 659.472L1349.31 681.848C1350.22 682.606 1350.9 683.479 1351.38 684.412C1351.68 685.014 1351.78 685.693 1351.78 686.368V689.567C1351.78 690.22 1351.69 690.877 1351.41 691.467C1350.18 694.046 1347.62 696 1344.2 696H1152C1147.31 696 1144.23 692.327 1144 688.407V687.449Z" fill="url(#paint0_linear_46_338534)" fill-opacity="0.7"/>
</g>
<rect width="768" height="432" transform="translate(868 112)" fill="white"/>
<rect width="768" height="432" transform="translate(868 112)" fill="white"/>
<g clip-path="url(#clip1_46_338534)">
<rect width="768" height="44" transform="translate(868 112)" fill="#005FBA"/>
<path d="M883.01 135.707C881.663 134.36 881.663 132.176 883.01 130.829L891.303 139.122C892.65 140.469 892.65 142.653 891.303 144L883.01 135.707Z" fill="white"/>
<path d="M886.425 132.293C885.078 130.946 885.078 128.762 886.425 127.415L894.718 135.707C896.065 137.054 896.065 139.238 894.718 140.585L886.425 132.293Z" fill="white"/>
<path d="M889.84 128.878C888.493 127.531 888.493 125.347 889.84 124L898.133 132.293C899.48 133.64 899.48 135.824 898.133 137.171L889.84 128.878Z" fill="white"/>
<path d="M910.165 133.797C911.147 133.797 911.961 134.172 912.632 134.922L914.093 133.609C913.183 132.508 911.77 131.922 910.07 131.922C907.028 131.922 904.753 133.984 904.753 136.867C904.753 139.75 907.004 141.812 910.046 141.812C911.746 141.812 913.159 141.203 914.069 140.102L912.608 138.789C911.961 139.539 911.123 139.914 910.141 139.914C908.321 139.914 907.004 138.648 907.004 136.844C907.028 135.063 908.321 133.797 910.165 133.797ZM918.403 134.195C917.206 134.195 915.985 134.5 915.17 135.086L915.961 136.586C916.512 136.164 917.326 135.906 918.116 135.906C919.29 135.906 919.84 136.445 919.84 137.359H918.116C915.817 137.359 914.883 138.25 914.883 139.563C914.883 140.828 915.937 141.789 917.685 141.789C918.787 141.789 919.577 141.438 919.984 140.758V141.672H922.02V137.453C922.02 135.227 920.702 134.195 918.403 134.195ZM919.84 139.328C919.601 140.008 918.954 140.336 918.236 140.336C917.469 140.336 917.014 139.984 917.014 139.445C917.014 138.953 917.326 138.578 918.356 138.578H919.84V139.328ZM925.54 136.492C925.54 136.117 925.947 135.812 926.929 135.812C927.623 135.812 928.342 135.953 929.084 136.352L929.803 134.828C929.084 134.43 927.935 134.195 926.905 134.195C924.702 134.195 923.432 135.18 923.432 136.563C923.432 139.492 927.959 138.273 927.959 139.469C927.959 139.867 927.575 140.148 926.57 140.148C925.66 140.148 924.63 139.867 923.959 139.445L923.241 140.969C923.935 141.414 925.229 141.766 926.498 141.766C928.749 141.766 930.042 140.805 930.042 139.422C930.066 136.516 925.54 137.734 925.54 136.492ZM938.759 137.992C938.759 135.625 937.059 134.172 934.856 134.172C932.557 134.172 930.856 135.766 930.856 137.969C930.856 140.148 932.557 141.742 935.143 141.742C936.508 141.742 937.538 141.344 938.232 140.547L937.083 139.328C936.556 139.797 936.005 140.031 935.191 140.031C934.041 140.031 933.251 139.469 933.036 138.555H938.711C938.735 138.391 938.759 138.156 938.759 137.992ZM933.012 137.336C933.155 136.398 933.874 135.812 934.88 135.812C935.861 135.812 936.58 136.422 936.724 137.336H933.012ZM945.68 131.5V135.062C945.129 134.453 944.363 134.172 943.429 134.172C941.298 134.172 939.669 135.648 939.669 137.969C939.669 140.289 941.298 141.742 943.429 141.742C944.435 141.742 945.225 141.438 945.776 140.781V141.625H947.859V131.5H945.68ZM943.812 140.008C942.734 140.008 941.896 139.234 941.896 137.969C941.896 136.703 942.734 135.93 943.812 135.93C944.89 135.93 945.728 136.703 945.728 137.969C945.728 139.234 944.89 140.008 943.812 140.008ZM953.224 134.195C950.829 134.195 949.081 135.766 949.081 137.992C949.081 140.195 950.829 141.766 953.224 141.766C955.618 141.766 957.343 140.195 957.343 137.992C957.343 135.766 955.594 134.195 953.224 134.195ZM953.224 140.008C952.146 140.008 951.308 139.234 951.308 137.969C951.308 136.703 952.146 135.93 953.224 135.93C954.301 135.93 955.139 136.703 955.139 137.969C955.139 139.234 954.301 140.008 953.224 140.008ZM962.443 140.008C961.342 140.008 960.48 139.258 960.48 137.969C960.48 136.68 961.342 135.93 962.443 135.93C963.138 135.93 963.737 136.234 964.144 136.938L965.844 136.047C965.293 134.852 964.048 134.172 962.467 134.172C960.025 134.172 958.277 135.742 958.277 137.969C958.277 140.172 960.025 141.742 962.467 141.742C964.048 141.742 965.293 141.062 965.844 139.891L964.144 139C963.737 139.703 963.138 140.008 962.443 140.008Z" fill="white"/>
<g clip-path="url(#clip2_46_338534)">
<rect width="32" height="44" transform="translate(1032 112)" fill="#0053B9"/>
<rect x="1042" y="128" width="12" height="12" rx="2" fill="#FFCC00"/>
<mask id="path-7-inside-1_46_338534" fill="white">
<path d="M1064 112H1096V156H1064V112Z"/>
</mask>
<path d="M1095 112V156H1097V112H1095Z" fill="#0053B9" mask="url(#path-7-inside-1_46_338534)"/>
<rect x="1074" y="128" width="12" height="12" rx="2" fill="white"/>
</g>
<g filter="url(#filter1_d_46_338534)">
<rect width="768" height="388" transform="translate(868 156)" fill="white"/>
<g clip-path="url(#clip3_46_338534)">
<mask id="path-10-inside-2_46_338534" fill="white">
<path d="M868 156H1028V544H868V156Z"/>
</mask>
<rect width="160" height="128" transform="translate(868 156)" fill="white"/>
<rect x="868" y="272" width="160" height="12" fill="#2752E7"/>
<rect x="1002" y="266" width="12" height="12" rx="6" fill="#FFCC00"/>
<rect width="160" height="260" transform="translate(868 284)" fill="#F4F4F4"/>
<rect x="884" y="296" width="12" height="12" rx="6" fill="#0083F5"/>
<path d="M912 302H1012" stroke="#D5D5D5" stroke-width="4" stroke-linecap="round"/>
<path d="M876 321H1020" stroke="#E4E4E4"/>
<rect x="884" y="334" width="12" height="12" rx="6" fill="#0083F5"/>
<path d="M912 340H1012" stroke="#D5D5D5" stroke-width="4" stroke-linecap="round"/>
<path d="M876 359H1020" stroke="#E4E4E4"/>
<rect x="884" y="372" width="12" height="12" rx="6" fill="#0083F5"/>
<path d="M912 378H1012" stroke="#D5D5D5" stroke-width="4" stroke-linecap="round"/>
<path d="M876 397H1020" stroke="#E4E4E4"/>
<rect x="884" y="410" width="12" height="12" rx="6" fill="#0083F5"/>
<path d="M912 416H1012" stroke="#D5D5D5" stroke-width="4" stroke-linecap="round"/>
<path d="M876 435H1020" stroke="#E4E4E4"/>
<rect x="884" y="448" width="12" height="12" rx="6" fill="#0083F5"/>
<path d="M912 454H1012" stroke="#D5D5D5" stroke-width="4" stroke-linecap="round"/>
<path d="M876 473H1020" stroke="#E4E4E4"/>
<path d="M876 503H1020" stroke="#E4E4E4"/>
<path d="M884 524H980" stroke="#D5D5D5" stroke-width="4" stroke-linecap="round"/>
<path fill-rule="evenodd" clip-rule="evenodd" d="M997.529 519.528C997.789 519.268 998.211 519.268 998.471 519.528L1002.47 523.528C1002.73 523.789 1002.73 524.211 1002.47 524.471L998.471 528.471C998.211 528.731 997.789 528.731 997.529 528.471C997.268 528.211 997.268 527.789 997.529 527.528L1001.06 524L997.529 520.471C997.268 520.211 997.268 519.789 997.529 519.528Z" fill="#B3B7C1"/>
<path fill-rule="evenodd" clip-rule="evenodd" d="M1005.53 519.528C1005.79 519.268 1006.21 519.268 1006.47 519.528L1010.47 523.528C1010.73 523.789 1010.73 524.211 1010.47 524.471L1006.47 528.471C1006.21 528.731 1005.79 528.731 1005.53 528.471C1005.27 528.211 1005.27 527.789 1005.53 527.528L1009.06 524L1005.53 520.471C1005.27 520.211 1005.27 519.789 1005.53 519.528Z" fill="#B3B7C1"/>
</g>
<path d="M1027 156V544H1029V156H1027Z" fill="#D9D9D9" mask="url(#path-10-inside-2_46_338534)"/>
<g filter="url(#filter2_d_46_338534)">
<g clip-path="url(#clip4_46_338534)">
<rect x="1040" y="168" width="412" height="208" rx="4" fill="white"/>
<rect width="412" height="15.75" transform="translate(1040 168)" fill="#EEEEEE"/>
<rect x="1218" y="173.875" width="56" height="4" rx="2" fill="#2752E7"/>
<rect width="412" height="24" transform="translate(1040 183.75)" fill="white"/>
<rect x="1048" y="191.75" width="32" height="8" rx="2" fill="#0073CC"/>
<rect x="1084" y="191.75" width="32" height="8" rx="2" fill="#EEEEEE" stroke="#D5D5D5" stroke-width="0.4014"/>
<path d="M1048 208.75H1444" stroke="#E4E4E4"/>
<rect width="412" height="31.65" transform="translate(1040 209.75)" fill="white"/>
<path d="M1051.8 220.908C1051.47 220.908 1051.2 221.168 1051.2 221.489V221.711C1051.2 221.743 1051.23 221.769 1051.26 221.769H1053.55C1053.93 221.769 1054.28 222.009 1054.4 222.364L1054.73 223.316C1054.77 223.435 1054.88 223.515 1055.01 223.515H1060.7C1061.13 223.515 1061.5 223.816 1061.58 224.23L1061.88 225.819C1061.89 225.888 1062 225.879 1062 225.808V221.489C1062 221.168 1061.73 220.908 1061.4 220.908H1051.8Z" fill="#202A42"/>
<path d="M1050.19 222.37C1050.2 222.368 1050.21 222.367 1050.21 222.367H1053.49C1053.62 222.367 1053.74 222.447 1053.78 222.566L1054.11 223.521C1054.23 223.877 1054.58 224.118 1054.97 224.118H1060.69C1060.84 224.118 1060.96 224.218 1060.99 224.357L1062 229.71C1062 229.715 1062 229.721 1062 229.727C1061.96 230.014 1061.71 230.237 1061.4 230.237H1061.36C1061.33 230.24 1061.31 230.242 1061.28 230.242H1051.65C1051.34 230.242 1051.09 230.028 1051.05 229.741L1050 222.683C1049.98 222.544 1050.07 222.417 1050.19 222.37Z" fill="#202A42"/>
<path d="M1076 225.575H1268" stroke="#E4E4E4" stroke-width="4" stroke-linecap="round"/>
<path d="M1280 225.575H1440" stroke="#E4E4E4" stroke-width="4" stroke-linecap="round"/>
<path d="M1048 242.4H1444" stroke="#E4E4E4"/>
<rect width="412" height="31.65" transform="translate(1040 243.4)" fill="white"/>
<path d="M1051.8 254.559C1051.47 254.559 1051.2 254.818 1051.2 255.139V255.361C1051.2 255.393 1051.23 255.419 1051.26 255.419H1053.55C1053.93 255.419 1054.28 255.659 1054.4 256.015L1054.73 256.967C1054.77 257.085 1054.88 257.165 1055.01 257.165H1060.7C1061.13 257.165 1061.5 257.466 1061.58 257.88L1061.88 259.469C1061.89 259.539 1062 259.53 1062 259.459V255.139C1062 254.818 1061.73 254.559 1061.4 254.559H1051.8Z" fill="#202A42"/>
<path d="M1050.19 256.02C1050.2 256.018 1050.21 256.017 1050.21 256.017H1053.49C1053.62 256.017 1053.74 256.097 1053.78 256.216L1054.11 257.171C1054.23 257.528 1054.58 257.768 1054.97 257.768H1060.69C1060.84 257.768 1060.96 257.869 1060.99 258.007L1062 263.36C1062 263.366 1062 263.371 1062 263.377C1061.96 263.664 1061.71 263.887 1061.4 263.887H1061.36C1061.33 263.89 1061.31 263.892 1061.28 263.892H1051.65C1051.34 263.892 1051.09 263.679 1051.05 263.392L1050 256.333C1049.98 256.195 1050.07 256.067 1050.19 256.02Z" fill="#202A42"/>
<path d="M1076 259.226H1236" stroke="#E4E4E4" stroke-width="4" stroke-linecap="round"/>
<path d="M1248 259.226H1440" stroke="#E4E4E4" stroke-width="4" stroke-linecap="round"/>
<path d="M1048 276.05H1444" stroke="#E4E4E4"/>
<rect width="412" height="31.65" transform="translate(1040 277.05)" fill="white"/>
<path d="M1051.8 288.208C1051.47 288.208 1051.2 288.468 1051.2 288.788V289.011C1051.2 289.043 1051.23 289.069 1051.26 289.069H1053.55C1053.93 289.069 1054.28 289.309 1054.4 289.664L1054.73 290.616C1054.77 290.735 1054.88 290.815 1055.01 290.815H1060.7C1061.13 290.815 1061.5 291.116 1061.58 291.53L1061.88 293.119C1061.89 293.188 1062 293.179 1062 293.108V288.788C1062 288.468 1061.73 288.208 1061.4 288.208H1051.8Z" fill="#202A42"/>
<path d="M1050.19 289.67C1050.2 289.667 1050.21 289.666 1050.21 289.666H1053.49C1053.62 289.666 1053.74 289.747 1053.78 289.865L1054.11 290.82C1054.23 291.177 1054.58 291.418 1054.97 291.418H1060.69C1060.84 291.418 1060.96 291.518 1060.99 291.657L1062 297.01C1062 297.015 1062 297.021 1062 297.026C1061.96 297.314 1061.71 297.537 1061.4 297.537H1061.36C1061.33 297.54 1061.31 297.541 1061.28 297.541H1051.65C1051.34 297.541 1051.09 297.328 1051.05 297.041L1050 289.983C1049.98 289.844 1050.07 289.717 1050.19 289.67Z" fill="#202A42"/>
<path d="M1076 292.875H1201" stroke="#E4E4E4" stroke-width="4" stroke-linecap="round"/>
<path d="M1213 292.875H1440" stroke="#E4E4E4" stroke-width="4" stroke-linecap="round"/>
<path d="M1048 309.7H1444" stroke="#E4E4E4"/>
<rect width="412" height="31.65" transform="translate(1040 310.7)" fill="white"/>
<path d="M1051.8 321.858C1051.47 321.858 1051.2 322.118 1051.2 322.439V322.661C1051.2 322.693 1051.23 322.719 1051.26 322.719H1053.55C1053.93 322.719 1054.28 322.959 1054.4 323.315L1054.73 324.267C1054.77 324.385 1054.88 324.465 1055.01 324.465H1060.7C1061.13 324.465 1061.5 324.766 1061.58 325.18L1061.88 326.769C1061.89 326.839 1062 326.829 1062 326.759V322.439C1062 322.118 1061.73 321.858 1061.4 321.858H1051.8Z" fill="#202A42"/>
<path d="M1050.19 323.32C1050.2 323.318 1050.21 323.317 1050.21 323.317H1053.49C1053.62 323.317 1053.74 323.397 1053.78 323.516L1054.11 324.471C1054.23 324.828 1054.58 325.068 1054.97 325.068H1060.69C1060.84 325.068 1060.96 325.169 1060.99 325.307L1062 330.66C1062 330.666 1062 330.671 1062 330.677C1061.96 330.964 1061.71 331.187 1061.4 331.187H1061.36C1061.33 331.19 1061.31 331.192 1061.28 331.192H1051.65C1051.34 331.192 1051.09 330.979 1051.05 330.692L1050 323.633C1049.98 323.494 1050.07 323.367 1050.19 323.32Z" fill="#202A42"/>
<path d="M1076 326.525H1236" stroke="#E4E4E4" stroke-width="4" stroke-linecap="round"/>
<path d="M1248 326.525H1440" stroke="#E4E4E4" stroke-width="4" stroke-linecap="round"/>
<path d="M1048 343.35H1444" stroke="#E4E4E4"/>
<rect width="412" height="31.65" transform="translate(1040 344.35)" fill="white"/>
<path d="M1051.8 355.508C1051.47 355.508 1051.2 355.768 1051.2 356.088V356.311C1051.2 356.343 1051.23 356.369 1051.26 356.369H1053.55C1053.93 356.369 1054.28 356.608 1054.4 356.964L1054.73 357.916C1054.77 358.035 1054.88 358.114 1055.01 358.114H1060.7C1061.13 358.114 1061.5 358.415 1061.58 358.829L1061.88 360.418C1061.89 360.488 1062 360.479 1062 360.408V356.088C1062 355.768 1061.73 355.508 1061.4 355.508H1051.8Z" fill="#202A42"/>
<path d="M1050.19 356.97C1050.2 356.967 1050.21 356.966 1050.21 356.966H1053.49C1053.62 356.966 1053.74 357.046 1053.78 357.165L1054.11 358.12C1054.23 358.477 1054.58 358.717 1054.97 358.717H1060.69C1060.84 358.717 1060.96 358.818 1060.99 358.957L1062 364.309C1062 364.315 1062 364.321 1062 364.326C1061.96 364.614 1061.71 364.836 1061.4 364.836H1061.36C1061.33 364.84 1061.31 364.841 1061.28 364.841H1051.65C1051.34 364.841 1051.09 364.628 1051.05 364.341L1050 357.282C1049.98 357.144 1050.07 357.017 1050.19 356.97Z" fill="#202A42"/>
<path d="M1076 360.175H1227" stroke="#E4E4E4" stroke-width="4" stroke-linecap="round"/>
<path d="M1239 360.175L1440 360.175" stroke="#E4E4E4" stroke-width="4" stroke-linecap="round"/>
</g>
<rect x="1040" y="168" width="412" height="208" rx="4" stroke="#E4E4E4"/>
</g>
<g filter="url(#filter3_d_46_338534)">
<g clip-path="url(#clip5_46_338534)">
<rect x="1040" y="388" width="412" height="144" rx="4" fill="white"/>
<path d="M1452 388H1040V411.999H1452V388Z" fill="#EEEEEE"/>
<path d="M1046 398C1046 396.895 1046.9 396 1048 396H1084C1085.1 396 1086 396.895 1086 398V412H1046V398Z" fill="white"/>
<rect x="1062" y="400" width="8" height="8" rx="4" fill="#D9D9D9"/>
<rect x="1094" y="400" width="8" height="8" rx="4" fill="#2752E7"/>
<rect x="1118" y="400" width="8" height="8" rx="2" fill="#2752E7"/>
<rect width="412" height="24" transform="translate(1040 412)" fill="white"/>
<g clip-path="url(#clip6_46_338534)">
<rect x="1048" y="420" width="8" height="8" fill="#2752E7"/>
<rect x="1056" y="420" width="8" height="8" fill="#EEEEEE"/>
</g>
<rect x="1072" y="420" width="8" height="8" rx="1" fill="#EEEEEE"/>
<path d="M1048 437H1444" stroke="#E4E4E4"/>
<rect width="412" height="30" transform="translate(1040 438)" fill="white"/>
<path d="M1056 454.333C1057.47 454.333 1058.67 453.139 1058.67 451.666C1058.67 450.194 1057.47 449 1056 449C1054.53 449 1053.33 450.194 1053.33 451.666C1053.33 453.139 1054.53 454.333 1056 454.333Z" fill="#202A42"/>
<path fill-rule="evenodd" clip-rule="evenodd" d="M1049.33 453C1049.33 454.602 1049.9 456.072 1050.84 457.221C1052.06 458.714 1053.92 459.666 1056 459.666C1059.68 459.666 1062.67 456.682 1062.67 453C1062.67 449.318 1059.68 446.333 1056 446.333C1052.32 446.333 1049.33 449.318 1049.33 453ZM1056 455.666C1054.45 455.666 1053 456.042 1051.71 456.706C1050.85 455.713 1050.33 454.417 1050.33 453C1050.33 449.87 1052.87 447.333 1056 447.333C1059.13 447.333 1061.67 449.87 1061.67 453C1061.67 454.417 1061.15 455.713 1060.29 456.707C1059 456.042 1057.54 455.666 1056 455.666Z" fill="#202A42"/>
<path d="M1076 453H1268" stroke="#E4E4E4" stroke-width="4" stroke-linecap="round"/>
<path d="M1280 453H1440" stroke="#E4E4E4" stroke-width="4" stroke-linecap="round"/>
<path d="M1048 469H1444" stroke="#E4E4E4"/>
<rect width="412" height="30" transform="translate(1040 470)" fill="white"/>
<path d="M1056 486.333C1057.47 486.333 1058.67 485.139 1058.67 483.666C1058.67 482.194 1057.47 481 1056 481C1054.53 481 1053.33 482.194 1053.33 483.666C1053.33 485.139 1054.53 486.333 1056 486.333Z" fill="#202A42"/>
<path fill-rule="evenodd" clip-rule="evenodd" d="M1049.33 485C1049.33 486.602 1049.9 488.072 1050.84 489.221C1052.06 490.714 1053.92 491.666 1056 491.666C1059.68 491.666 1062.67 488.682 1062.67 485C1062.67 481.318 1059.68 478.333 1056 478.333C1052.32 478.333 1049.33 481.318 1049.33 485ZM1056 487.666C1054.45 487.666 1053 488.042 1051.71 488.706C1050.85 487.713 1050.33 486.417 1050.33 485C1050.33 481.87 1052.87 479.333 1056 479.333C1059.13 479.333 1061.67 481.87 1061.67 485C1061.67 486.417 1061.15 487.713 1060.29 488.707C1059 488.042 1057.54 487.666 1056 487.666Z" fill="#202A42"/>
<path d="M1076 485H1236" stroke="#E4E4E4" stroke-width="4" stroke-linecap="round"/>
<path d="M1248 485H1440" stroke="#E4E4E4" stroke-width="4" stroke-linecap="round"/>
<path d="M1048 501H1444" stroke="#E4E4E4"/>
<rect width="412" height="30" transform="translate(1040 502)" fill="white"/>
<path d="M1051.8 512.333C1051.47 512.333 1051.2 512.593 1051.2 512.913V513.136C1051.2 513.168 1051.23 513.194 1051.26 513.194H1053.55C1053.93 513.194 1054.28 513.434 1054.4 513.789L1054.73 514.741C1054.77 514.86 1054.88 514.94 1055.01 514.94H1060.7C1061.13 514.94 1061.5 515.241 1061.58 515.655L1061.88 517.244C1061.89 517.313 1062 517.304 1062 517.233V512.913C1062 512.593 1061.73 512.333 1061.4 512.333H1051.8Z" fill="#202A42"/>
<path d="M1050.19 513.795C1050.2 513.792 1050.21 513.791 1050.21 513.791H1053.49C1053.62 513.791 1053.74 513.872 1053.78 513.99L1054.11 514.945C1054.23 515.302 1054.58 515.543 1054.97 515.543H1060.69C1060.84 515.543 1060.96 515.643 1060.99 515.782L1062 521.135C1062 521.14 1062 521.146 1062 521.151C1061.96 521.439 1061.71 521.662 1061.4 521.662H1061.36C1061.33 521.665 1061.31 521.666 1061.28 521.666H1051.65C1051.34 521.666 1051.09 521.453 1051.05 521.166L1050 514.108C1049.98 513.969 1050.07 513.842 1050.19 513.795Z" fill="#202A42"/>
<path d="M1076 517H1201" stroke="#E4E4E4" stroke-width="4" stroke-linecap="round"/>
<path d="M1213 517H1440" stroke="#E4E4E4" stroke-width="4" stroke-linecap="round"/>
</g>
<rect x="1040" y="388" width="412" height="144" rx="4" stroke="#E4E4E4"/>
</g>
</g>
</g>
<rect opacity="0.6" x="868" y="112" width="768" height="432" fill="#202A42"/>
<g filter="url(#filter4_dd_46_338534)">
<g clip-path="url(#clip7_46_338534)">
<rect x="1032" y="200" width="440" height="256" rx="8" fill="white"/>
<rect width="440" height="24" transform="translate(1032 200)" fill="#FAFAFA"/>
<circle cx="1052" cy="212" r="4" fill="#2752E7"/>
<path d="M1064 212H1176" stroke="#2752E7" stroke-width="4" stroke-linecap="round"/>
<path d="M1032 225H1472" stroke="#DEDEDE"/>
<rect x="1048" y="238" width="96" height="112" rx="8" fill="#FAFAFA"/>
<rect x="1048" y="238" width="96" height="112" rx="8" stroke="#DEDEDE"/>
<path d="M1103.1 298.675C1103.1 303.175 1107.83 306.775 1113.68 306.775C1119.53 306.775 1124.25 303.1 1124.25 298.675H1103.1Z" fill="#0083F5"/>
<path d="M1113.68 274.976L1103.1 298.751H1124.25L1113.68 274.976Z" fill="#2752E7"/>
<path d="M1066.5 298.675C1066.5 303.175 1071.22 306.775 1077.07 306.775C1082.92 306.775 1087.65 303.1 1087.65 298.675H1066.5Z" fill="#0083F5"/>
<path d="M1077.07 274.976L1066.5 298.676H1087.65L1077.07 274.976Z" fill="#2752E7"/>
<path fill-rule="evenodd" clip-rule="evenodd" d="M1072.2 276.475C1072.2 275.5 1073.02 274.675 1074 274.675H1116.82C1117.8 274.675 1118.62 275.5 1118.62 276.475C1118.62 277.45 1117.8 278.275 1116.82 278.275H1074C1073.02 278.275 1072.2 277.45 1072.2 276.475Z" fill="#193594"/>
<path fill-rule="evenodd" clip-rule="evenodd" d="M1095.38 267.325C1097.85 267.325 1099.88 269.35 1099.88 271.825V319.525L1095.38 319.45L1090.88 319.525V271.825C1090.8 269.35 1092.9 267.325 1095.38 267.325Z" fill="#2752E7"/>
<path d="M1075.88 317.875C1075.88 317.275 1076.47 316.75 1077.15 316.75H1113.52C1114.2 316.75 1114.8 317.275 1114.8 317.875V320.425H1075.95L1075.88 317.875Z" fill="#193594"/>
<path d="M1095.38 278.351C1096.42 278.351 1097.25 277.526 1097.25 276.476C1097.25 275.426 1096.42 274.601 1095.38 274.601C1094.33 274.601 1093.5 275.426 1093.5 276.476C1093.58 277.526 1094.4 278.351 1095.38 278.351Z" fill="#0083F5"/>
<path d="M1076 362H1116" stroke="#FFCC00" stroke-width="4" stroke-linecap="round"/>
<path d="M1048 378H1100" stroke="#888888" stroke-width="2" stroke-linecap="round"/>
<path d="M1048 386H1144" stroke="#D9D9D9" stroke-width="2" stroke-linecap="round"/>
<path d="M1048 394H1144" stroke="#D9D9D9" stroke-width="2" stroke-linecap="round"/>
<path d="M1048 402H1078" stroke="#D9D9D9" stroke-width="2" stroke-linecap="round"/>
<path d="M1160 238H1456" stroke="#DEDEDE"/>
<path d="M1169.37 249.373H1190.63" stroke="#FFCC00" stroke-width="2.74612" stroke-linecap="round"/>
<path d="M1233.37 249.373H1254.63" stroke="#0083F5" stroke-width="2.74612" stroke-linecap="round"/>
<path d="M1297.37 249.373H1318.63" stroke="#0083F5" stroke-width="2.74612" stroke-linecap="round"/>
<path d="M1361.37 249.373H1382.63" stroke="#0083F5" stroke-width="2.74612" stroke-linecap="round"/>
<path d="M1425.37 249.373H1446.63" stroke="#0083F5" stroke-width="2.74612" stroke-linecap="round"/>
<path d="M1160 260.746H1456" stroke="#DEDEDE"/>
<rect x="1160" y="268.746" width="68" height="62.6269" rx="8" fill="#FAFAFA"/>
<rect x="1160" y="268.746" width="68" height="62.6269" rx="8" stroke="#DEDEDE"/>
<path d="M1198.44 302.981C1198.44 305.794 1201.39 308.044 1205.05 308.044C1208.7 308.044 1211.66 305.747 1211.66 302.981H1198.44Z" fill="#0083F5"/>
<path d="M1205.05 288.169L1198.44 303.028H1211.66L1205.05 288.169Z" fill="#2752E7"/>
<path d="M1175.56 302.981C1175.56 305.794 1178.52 308.044 1182.17 308.044C1185.83 308.044 1188.78 305.747 1188.78 302.981H1175.56Z" fill="#0083F5"/>
<path d="M1182.17 288.169L1175.56 302.981H1188.78L1182.17 288.169Z" fill="#2752E7"/>
<path fill-rule="evenodd" clip-rule="evenodd" d="M1179.12 289.106C1179.12 288.497 1179.64 287.981 1180.25 287.981H1207.02C1207.63 287.981 1208.14 288.497 1208.14 289.106C1208.14 289.716 1207.63 290.231 1207.02 290.231H1180.25C1179.64 290.231 1179.12 289.716 1179.12 289.106Z" fill="#193594"/>
<path fill-rule="evenodd" clip-rule="evenodd" d="M1193.61 283.388C1195.16 283.388 1196.42 284.653 1196.42 286.2V316.013L1193.61 315.966L1190.8 316.013V286.2C1190.75 284.653 1192.06 283.388 1193.61 283.388Z" fill="#2752E7"/>
<path d="M1181.42 314.981C1181.42 314.606 1181.8 314.278 1182.22 314.278H1204.95C1205.38 314.278 1205.75 314.606 1205.75 314.981V316.575H1181.47L1181.42 314.981Z" fill="#193594"/>
<path d="M1193.61 290.278C1194.27 290.278 1194.78 289.763 1194.78 289.106C1194.78 288.45 1194.27 287.935 1193.61 287.935C1192.95 287.935 1192.44 288.45 1192.44 289.106C1192.48 289.763 1193 290.278 1193.61 290.278Z" fill="#0083F5"/>
<rect x="1236" y="268.746" width="68" height="62.6269" rx="8" fill="#FAFAFA"/>
<rect x="1236" y="268.746" width="68" height="62.6269" rx="8" stroke="#DEDEDE"/>
<path d="M1274.44 302.981C1274.44 305.794 1277.39 308.044 1281.05 308.044C1284.7 308.044 1287.66 305.747 1287.66 302.981H1274.44Z" fill="#0083F5"/>
<path d="M1281.05 288.169L1274.44 303.028H1287.66L1281.05 288.169Z" fill="#2752E7"/>
<path d="M1251.56 302.981C1251.56 305.794 1254.52 308.044 1258.17 308.044C1261.83 308.044 1264.78 305.747 1264.78 302.981H1251.56Z" fill="#0083F5"/>
<path d="M1258.17 288.169L1251.56 302.981H1264.78L1258.17 288.169Z" fill="#2752E7"/>
<path fill-rule="evenodd" clip-rule="evenodd" d="M1255.12 289.106C1255.12 288.497 1255.64 287.981 1256.25 287.981H1283.02C1283.63 287.981 1284.14 288.497 1284.14 289.106C1284.14 289.716 1283.63 290.231 1283.02 290.231H1256.25C1255.64 290.231 1255.12 289.716 1255.12 289.106Z" fill="#193594"/>
<path fill-rule="evenodd" clip-rule="evenodd" d="M1269.61 283.388C1271.16 283.388 1272.42 284.653 1272.42 286.2V316.013L1269.61 315.966L1266.8 316.013V286.2C1266.75 284.653 1268.06 283.388 1269.61 283.388Z" fill="#2752E7"/>
<path d="M1257.42 314.981C1257.42 314.606 1257.8 314.278 1258.22 314.278H1280.95C1281.38 314.278 1281.75 314.606 1281.75 314.981V316.575H1257.47L1257.42 314.981Z" fill="#193594"/>
<path d="M1269.61 290.278C1270.27 290.278 1270.78 289.763 1270.78 289.106C1270.78 288.45 1270.27 287.935 1269.61 287.935C1268.95 287.935 1268.44 288.45 1268.44 289.106C1268.48 289.763 1269 290.278 1269.61 290.278Z" fill="#0083F5"/>
<rect x="1312" y="268.746" width="68" height="62.6269" rx="8" fill="#FAFAFA"/>
<rect x="1312" y="268.746" width="68" height="62.6269" rx="8" stroke="#DEDEDE"/>
<path d="M1350.44 302.981C1350.44 305.794 1353.39 308.044 1357.05 308.044C1360.7 308.044 1363.66 305.747 1363.66 302.981H1350.44Z" fill="#0083F5"/>
<path d="M1357.05 288.169L1350.44 303.028H1363.66L1357.05 288.169Z" fill="#2752E7"/>
<path d="M1327.56 302.981C1327.56 305.794 1330.52 308.044 1334.17 308.044C1337.83 308.044 1340.78 305.747 1340.78 302.981H1327.56Z" fill="#0083F5"/>
<path d="M1334.17 288.169L1327.56 302.981H1340.78L1334.17 288.169Z" fill="#2752E7"/>
<path fill-rule="evenodd" clip-rule="evenodd" d="M1331.12 289.106C1331.12 288.497 1331.64 287.981 1332.25 287.981H1359.02C1359.63 287.981 1360.14 288.497 1360.14 289.106C1360.14 289.716 1359.63 290.231 1359.02 290.231H1332.25C1331.64 290.231 1331.12 289.716 1331.12 289.106Z" fill="#193594"/>
<path fill-rule="evenodd" clip-rule="evenodd" d="M1345.61 283.388C1347.16 283.388 1348.42 284.653 1348.42 286.2V316.013L1345.61 315.966L1342.8 316.013V286.2C1342.75 284.653 1344.06 283.388 1345.61 283.388Z" fill="#2752E7"/>
<path d="M1333.42 314.981C1333.42 314.606 1333.8 314.278 1334.22 314.278H1356.95C1357.38 314.278 1357.75 314.606 1357.75 314.981V316.575H1333.47L1333.42 314.981Z" fill="#193594"/>
<path d="M1345.61 290.278C1346.27 290.278 1346.78 289.763 1346.78 289.106C1346.78 288.45 1346.27 287.935 1345.61 287.935C1344.95 287.935 1344.44 288.45 1344.44 289.106C1344.48 289.763 1345 290.278 1345.61 290.278Z" fill="#0083F5"/>
<rect x="1388" y="268.746" width="68" height="62.6269" rx="8" fill="#FAFAFA"/>
<rect x="1388" y="268.746" width="68" height="62.6269" rx="8" stroke="#DEDEDE"/>
<path d="M1426.44 302.981C1426.44 305.794 1429.39 308.044 1433.05 308.044C1436.7 308.044 1439.66 305.747 1439.66 302.981H1426.44Z" fill="#0083F5"/>
<path d="M1433.05 288.169L1426.44 303.028H1439.66L1433.05 288.169Z" fill="#2752E7"/>
<path d="M1403.56 302.981C1403.56 305.794 1406.52 308.044 1410.17 308.044C1413.83 308.044 1416.78 305.747 1416.78 302.981H1403.56Z" fill="#0083F5"/>
<path d="M1410.17 288.169L1403.56 302.981H1416.78L1410.17 288.169Z" fill="#2752E7"/>
<path fill-rule="evenodd" clip-rule="evenodd" d="M1407.12 289.106C1407.12 288.497 1407.64 287.981 1408.25 287.981H1435.02C1435.63 287.981 1436.14 288.497 1436.14 289.106C1436.14 289.716 1435.63 290.231 1435.02 290.231H1408.25C1407.64 290.231 1407.12 289.716 1407.12 289.106Z" fill="#193594"/>
<path fill-rule="evenodd" clip-rule="evenodd" d="M1421.61 283.388C1423.16 283.388 1424.42 284.653 1424.42 286.2V316.013L1421.61 315.966L1418.8 316.013V286.2C1418.75 284.653 1420.06 283.388 1421.61 283.388Z" fill="#2752E7"/>
<path d="M1409.42 314.981C1409.42 314.606 1409.8 314.278 1410.22 314.278H1432.95C1433.38 314.278 1433.75 314.606 1433.75 314.981V316.575H1409.47L1409.42 314.981Z" fill="#193594"/>
<path d="M1421.61 290.278C1422.27 290.278 1422.78 289.763 1422.78 289.106C1422.78 288.45 1422.27 287.935 1421.61 287.935C1420.95 287.935 1420.44 288.45 1420.44 289.106C1420.48 289.763 1421 290.278 1421.61 290.278Z" fill="#0083F5"/>
<rect x="1160" y="339.373" width="68" height="62.6269" rx="8" fill="#FAFAFA"/>
<rect x="1160" y="339.373" width="68" height="62.6269" rx="8" stroke="#DEDEDE"/>
<path d="M1198.44 373.608C1198.44 376.421 1201.39 378.671 1205.05 378.671C1208.7 378.671 1211.66 376.374 1211.66 373.608H1198.44Z" fill="#0083F5"/>
<path d="M1205.05 358.796L1198.44 373.655H1211.66L1205.05 358.796Z" fill="#2752E7"/>
<path d="M1175.56 373.608C1175.56 376.421 1178.52 378.671 1182.17 378.671C1185.83 378.671 1188.78 376.374 1188.78 373.608H1175.56Z" fill="#0083F5"/>
<path d="M1182.17 358.796L1175.56 373.608H1188.78L1182.17 358.796Z" fill="#2752E7"/>
<path fill-rule="evenodd" clip-rule="evenodd" d="M1179.12 359.733C1179.12 359.124 1179.64 358.608 1180.25 358.608H1207.02C1207.63 358.608 1208.14 359.124 1208.14 359.733C1208.14 360.343 1207.63 360.858 1207.02 360.858H1180.25C1179.64 360.858 1179.12 360.343 1179.12 359.733Z" fill="#193594"/>
<path fill-rule="evenodd" clip-rule="evenodd" d="M1193.61 354.015C1195.16 354.015 1196.42 355.28 1196.42 356.827V386.64L1193.61 386.593L1190.8 386.64V356.827C1190.75 355.28 1192.06 354.015 1193.61 354.015Z" fill="#2752E7"/>
<path d="M1181.42 385.608C1181.42 385.233 1181.8 384.905 1182.22 384.905H1204.95C1205.38 384.905 1205.75 385.233 1205.75 385.608V387.202H1181.47L1181.42 385.608Z" fill="#193594"/>
<path d="M1193.61 360.905C1194.27 360.905 1194.78 360.39 1194.78 359.733C1194.78 359.077 1194.27 358.562 1193.61 358.562C1192.95 358.562 1192.44 359.077 1192.44 359.733C1192.48 360.39 1193 360.905 1193.61 360.905Z" fill="#0083F5"/>
<rect x="1236" y="339.373" width="68" height="62.6269" rx="8" fill="#FAFAFA"/>
<rect x="1236" y="339.373" width="68" height="62.6269" rx="8" stroke="#DEDEDE"/>
<path d="M1274.44 373.608C1274.44 376.421 1277.39 378.671 1281.05 378.671C1284.7 378.671 1287.66 376.374 1287.66 373.608H1274.44Z" fill="#0083F5"/>
<path d="M1281.05 358.796L1274.44 373.655H1287.66L1281.05 358.796Z" fill="#2752E7"/>
<path d="M1251.56 373.608C1251.56 376.421 1254.52 378.671 1258.17 378.671C1261.83 378.671 1264.78 376.374 1264.78 373.608H1251.56Z" fill="#0083F5"/>
<path d="M1258.17 358.796L1251.56 373.608H1264.78L1258.17 358.796Z" fill="#2752E7"/>
<path fill-rule="evenodd" clip-rule="evenodd" d="M1255.12 359.733C1255.12 359.124 1255.64 358.608 1256.25 358.608H1283.02C1283.63 358.608 1284.14 359.124 1284.14 359.733C1284.14 360.343 1283.63 360.858 1283.02 360.858H1256.25C1255.64 360.858 1255.12 360.343 1255.12 359.733Z" fill="#193594"/>
<path fill-rule="evenodd" clip-rule="evenodd" d="M1269.61 354.015C1271.16 354.015 1272.42 355.28 1272.42 356.827V386.64L1269.61 386.593L1266.8 386.64V356.827C1266.75 355.28 1268.06 354.015 1269.61 354.015Z" fill="#2752E7"/>
<path d="M1257.42 385.608C1257.42 385.233 1257.8 384.905 1258.22 384.905H1280.95C1281.38 384.905 1281.75 385.233 1281.75 385.608V387.202H1257.47L1257.42 385.608Z" fill="#193594"/>
<path d="M1269.61 360.905C1270.27 360.905 1270.78 360.39 1270.78 359.733C1270.78 359.077 1270.27 358.562 1269.61 358.562C1268.95 358.562 1268.44 359.077 1268.44 359.733C1268.48 360.39 1269 360.905 1269.61 360.905Z" fill="#0083F5"/>
<rect x="1312" y="339.373" width="68" height="62.6269" rx="8" fill="#FAFAFA"/>
<rect x="1312" y="339.373" width="68" height="62.6269" rx="8" stroke="#DEDEDE"/>
<path d="M1350.44 373.608C1350.44 376.421 1353.39 378.671 1357.05 378.671C1360.7 378.671 1363.66 376.374 1363.66 373.608H1350.44Z" fill="#0083F5"/>
<path d="M1357.05 358.796L1350.44 373.655H1363.66L1357.05 358.796Z" fill="#2752E7"/>
<path d="M1327.56 373.608C1327.56 376.421 1330.52 378.671 1334.17 378.671C1337.83 378.671 1340.78 376.374 1340.78 373.608H1327.56Z" fill="#0083F5"/>
<path d="M1334.17 358.796L1327.56 373.608H1340.78L1334.17 358.796Z" fill="#2752E7"/>
<path fill-rule="evenodd" clip-rule="evenodd" d="M1331.12 359.733C1331.12 359.124 1331.64 358.608 1332.25 358.608H1359.02C1359.63 358.608 1360.14 359.124 1360.14 359.733C1360.14 360.343 1359.63 360.858 1359.02 360.858H1332.25C1331.64 360.858 1331.12 360.343 1331.12 359.733Z" fill="#193594"/>
<path fill-rule="evenodd" clip-rule="evenodd" d="M1345.61 354.015C1347.16 354.015 1348.42 355.28 1348.42 356.827V386.64L1345.61 386.593L1342.8 386.64V356.827C1342.75 355.28 1344.06 354.015 1345.61 354.015Z" fill="#2752E7"/>
<path d="M1333.42 385.608C1333.42 385.233 1333.8 384.905 1334.22 384.905H1356.95C1357.38 384.905 1357.75 385.233 1357.75 385.608V387.202H1333.47L1333.42 385.608Z" fill="#193594"/>
<path d="M1345.61 360.905C1346.27 360.905 1346.78 360.39 1346.78 359.733C1346.78 359.077 1346.27 358.562 1345.61 358.562C1344.95 358.562 1344.44 359.077 1344.44 359.733C1344.48 360.39 1345 360.905 1345.61 360.905Z" fill="#0083F5"/>
<rect x="1388" y="339.373" width="68" height="62.6269" rx="8" fill="#FAFAFA"/>
<rect x="1388" y="339.373" width="68" height="62.6269" rx="8" stroke="#DEDEDE"/>
<path d="M1426.44 373.608C1426.44 376.421 1429.39 378.671 1433.05 378.671C1436.7 378.671 1439.66 376.374 1439.66 373.608H1426.44Z" fill="#0083F5"/>
<path d="M1433.05 358.796L1426.44 373.655H1439.66L1433.05 358.796Z" fill="#2752E7"/>
<path d="M1403.56 373.608C1403.56 376.421 1406.52 378.671 1410.17 378.671C1413.83 378.671 1416.78 376.374 1416.78 373.608H1403.56Z" fill="#0083F5"/>
<path d="M1410.17 358.796L1403.56 373.608H1416.78L1410.17 358.796Z" fill="#2752E7"/>
<path fill-rule="evenodd" clip-rule="evenodd" d="M1407.12 359.733C1407.12 359.124 1407.64 358.608 1408.25 358.608H1435.02C1435.63 358.608 1436.14 359.124 1436.14 359.733C1436.14 360.343 1435.63 360.858 1435.02 360.858H1408.25C1407.64 360.858 1407.12 360.343 1407.12 359.733Z" fill="#193594"/>
<path fill-rule="evenodd" clip-rule="evenodd" d="M1421.61 354.015C1423.16 354.015 1424.42 355.28 1424.42 356.827V386.64L1421.61 386.593L1418.8 386.64V356.827C1418.75 355.28 1420.06 354.015 1421.61 354.015Z" fill="#2752E7"/>
<path d="M1409.42 385.608C1409.42 385.233 1409.8 384.905 1410.22 384.905H1432.95C1433.38 384.905 1433.75 385.233 1433.75 385.608V387.202H1409.47L1409.42 385.608Z" fill="#193594"/>
<path d="M1421.61 360.905C1422.27 360.905 1422.78 360.39 1422.78 359.733C1422.78 359.077 1422.27 358.562 1421.61 358.562C1420.95 358.562 1420.44 359.077 1420.44 359.733C1420.48 360.39 1421 360.905 1421.61 360.905Z" fill="#0083F5"/>
<path d="M1032 415H1472" stroke="#DEDEDE"/>
<rect width="440" height="40" transform="translate(1032 416)" fill="#FAFAFA"/>
<rect x="1316" y="428" width="64" height="16" rx="4" fill="#0083F5"/>
<rect x="1392" y="428" width="64" height="16" rx="4" fill="#EEEEEE" stroke="#DEDEDE"/>
</g>
</g>
<g clip-path="url(#clip8_46_338534)">
<g filter="url(#filter5_di_46_338534)">
<path fill-rule="evenodd" clip-rule="evenodd" d="M860 96C855.582 96 852 99.5817 852 104V600C852 604.418 855.582 608 860 608H1644C1648.42 608 1652 604.418 1652 600V104C1652 99.5817 1648.42 96 1644 96H860ZM872 112C869.791 112 868 113.791 868 116V540C868 542.209 869.791 544 872 544H1632C1634.21 544 1636 542.209 1636 540V116C1636 113.791 1634.21 112 1632 112H872Z" fill="#F2F4F7"/>
</g>
</g>
</g>
<defs>
<filter id="filter0_i_46_338534" x="1144" y="597" width="207.777" height="99" filterUnits="userSpaceOnUse" color-interpolation-filters="sRGB">
<feFlood flood-opacity="0" result="BackgroundImageFix"/>
<feBlend mode="normal" in="SourceGraphic" in2="BackgroundImageFix" result="shape"/>
<feColorMatrix in="SourceAlpha" type="matrix" values="0 0 0 0 0 0 0 0 0 0 0 0 0 0 0 0 0 0 127 0" result="hardAlpha"/>
<feOffset dy="-3"/>
<feGaussianBlur stdDeviation="6"/>
<feComposite in2="hardAlpha" operator="arithmetic" k2="-1" k3="1"/>
<feColorMatrix type="matrix" values="0 0 0 0 0.12549 0 0 0 0 0.164706 0 0 0 0 0.258824 0 0 0 0.12 0"/>
<feBlend mode="multiply" in2="shape" result="effect1_innerShadow_46_338534"/>
</filter>
<filter id="filter1_d_46_338534" x="788" y="84" width="928" height="548" filterUnits="userSpaceOnUse" color-interpolation-filters="sRGB">
<feFlood flood-opacity="0" result="BackgroundImageFix"/>
<feColorMatrix in="SourceAlpha" type="matrix" values="0 0 0 0 0 0 0 0 0 0 0 0 0 0 0 0 0 0 127 0" result="hardAlpha"/>
<feOffset dy="8"/>
<feGaussianBlur stdDeviation="40"/>
<feColorMatrix type="matrix" values="0 0 0 0 0.12549 0 0 0 0 0.164706 0 0 0 0 0.258824 0 0 0 0.12 0"/>
<feBlend mode="normal" in2="BackgroundImageFix" result="effect1_dropShadow_46_338534"/>
<feBlend mode="normal" in="SourceGraphic" in2="effect1_dropShadow_46_338534" result="shape"/>
</filter>
<filter id="filter2_d_46_338534" x="1023.5" y="155.5" width="445" height="241" filterUnits="userSpaceOnUse" color-interpolation-filters="sRGB">
<feFlood flood-opacity="0" result="BackgroundImageFix"/>
<feColorMatrix in="SourceAlpha" type="matrix" values="0 0 0 0 0 0 0 0 0 0 0 0 0 0 0 0 0 0 127 0" result="hardAlpha"/>
<feOffset dy="4"/>
<feGaussianBlur stdDeviation="8"/>
<feColorMatrix type="matrix" values="0 0 0 0 0.12549 0 0 0 0 0.164706 0 0 0 0 0.258824 0 0 0 0.16 0"/>
<feBlend mode="normal" in2="BackgroundImageFix" result="effect1_dropShadow_46_338534"/>
<feBlend mode="normal" in="SourceGraphic" in2="effect1_dropShadow_46_338534" result="shape"/>
</filter>
<filter id="filter3_d_46_338534" x="1023.5" y="375.5" width="445" height="177" filterUnits="userSpaceOnUse" color-interpolation-filters="sRGB">
<feFlood flood-opacity="0" result="BackgroundImageFix"/>
<feColorMatrix in="SourceAlpha" type="matrix" values="0 0 0 0 0 0 0 0 0 0 0 0 0 0 0 0 0 0 127 0" result="hardAlpha"/>
<feOffset dy="4"/>
<feGaussianBlur stdDeviation="8"/>
<feColorMatrix type="matrix" values="0 0 0 0 0.12549 0 0 0 0 0.164706 0 0 0 0 0.258824 0 0 0 0.16 0"/>
<feBlend mode="normal" in2="BackgroundImageFix" result="effect1_dropShadow_46_338534"/>
<feBlend mode="normal" in="SourceGraphic" in2="effect1_dropShadow_46_338534" result="shape"/>
</filter>
<filter id="filter4_dd_46_338534" x="956.364" y="129.091" width="591.273" height="407.273" filterUnits="userSpaceOnUse" color-interpolation-filters="sRGB">
<feFlood flood-opacity="0" result="BackgroundImageFix"/>
<feColorMatrix in="SourceAlpha" type="matrix" values="0 0 0 0 0 0 0 0 0 0 0 0 0 0 0 0 0 0 127 0" result="hardAlpha"/>
<feOffset dy="4"/>
<feGaussianBlur stdDeviation="20"/>
<feColorMatrix type="matrix" values="0 0 0 0 0.12549 0 0 0 0 0.164706 0 0 0 0 0.258824 0 0 0 0.12 0"/>
<feBlend mode="normal" in2="BackgroundImageFix" result="effect1_dropShadow_46_338534"/>
<feColorMatrix in="SourceAlpha" type="matrix" values="0 0 0 0 0 0 0 0 0 0 0 0 0 0 0 0 0 0 127 0" result="hardAlpha"/>
<feOffset dy="4.72727"/>
<feGaussianBlur stdDeviation="37.8182"/>
<feColorMatrix type="matrix" values="0 0 0 0 0.12549 0 0 0 0 0.164706 0 0 0 0 0.258824 0 0 0 0.94 0"/>
<feBlend mode="normal" in2="effect1_dropShadow_46_338534" result="effect2_dropShadow_46_338534"/>
<feBlend mode="normal" in="SourceGraphic" in2="effect2_dropShadow_46_338534" result="shape"/>
</filter>
<filter id="filter5_di_46_338534" x="846" y="90" width="816" height="528" filterUnits="userSpaceOnUse" color-interpolation-filters="sRGB">
<feFlood flood-opacity="0" result="BackgroundImageFix"/>
<feColorMatrix in="SourceAlpha" type="matrix" values="0 0 0 0 0 0 0 0 0 0 0 0 0 0 0 0 0 0 127 0" result="hardAlpha"/>
<feOffset dx="2" dy="2"/>
<feGaussianBlur stdDeviation="4"/>
<feColorMatrix type="matrix" values="0 0 0 0 0.12549 0 0 0 0 0.164706 0 0 0 0 0.258824 0 0 0 0.08 0"/>
<feBlend mode="multiply" in2="BackgroundImageFix" result="effect1_dropShadow_46_338534"/>
<feBlend mode="normal" in="SourceGraphic" in2="effect1_dropShadow_46_338534" result="shape"/>
<feColorMatrix in="SourceAlpha" type="matrix" values="0 0 0 0 0 0 0 0 0 0 0 0 0 0 0 0 0 0 127 0" result="hardAlpha"/>
<feOffset dy="-2"/>
<feGaussianBlur stdDeviation="4"/>
<feComposite in2="hardAlpha" operator="arithmetic" k2="-1" k3="1"/>
<feColorMatrix type="matrix" values="0 0 0 0 0.12549 0 0 0 0 0.164706 0 0 0 0 0.258824 0 0 0 0.12 0"/>
<feBlend mode="multiply" in2="shape" result="effect2_innerShadow_46_338534"/>
</filter>
<linearGradient id="paint0_linear_46_338534" x1="1248.05" y1="536.643" x2="1248.05" y2="718.451" gradientUnits="userSpaceOnUse">
<stop offset="0.357847" stop-color="#45547C" stop-opacity="0.6"/>
<stop offset="0.656248" stop-color="white" stop-opacity="0"/>
<stop offset="0.770215" stop-color="white" stop-opacity="0"/>
<stop offset="0.82127" stop-color="#040B1F" stop-opacity="0.05"/>
<stop offset="0.845096" stop-color="white" stop-opacity="0"/>
<stop offset="0.876787" stop-color="#040B1F" stop-opacity="0.08"/>
<stop offset="0.979515" stop-color="white"/>
</linearGradient>
<clipPath id="clip0_46_338534">
<rect width="708" height="760" fill="white" transform="translate(732)"/>
</clipPath>
<clipPath id="clip1_46_338534">
<rect width="768" height="432" fill="white" transform="translate(868 112)"/>
</clipPath>
<clipPath id="clip2_46_338534">
<rect width="64" height="44" fill="white" transform="translate(1032 112)"/>
</clipPath>
<clipPath id="clip3_46_338534">
<path d="M868 156H1028V544H868V156Z" fill="white"/>
</clipPath>
<clipPath id="clip4_46_338534">
<rect x="1040" y="168" width="412" height="208" rx="4" fill="white"/>
</clipPath>
<clipPath id="clip5_46_338534">
<rect x="1040" y="388" width="412" height="144" rx="4" fill="white"/>
</clipPath>
<clipPath id="clip6_46_338534">
<rect x="1048" y="420" width="16" height="8" rx="1" fill="white"/>
</clipPath>
<clipPath id="clip7_46_338534">
<rect x="1032" y="200" width="440" height="256" rx="8" fill="white"/>
</clipPath>
<clipPath id="clip8_46_338534">
<rect width="800" height="512" fill="white" transform="translate(852 96)"/>
</clipPath>
</defs>
</svg>
