<svg width="1440" height="760" viewBox="0 0 1440 760" fill="none" xmlns="http://www.w3.org/2000/svg">
<rect width="1440" height="760" fill="#FAFAFA"/>
<path d="M146.752 251.768C142.187 251.768 138.048 250.787 134.336 248.824C130.667 246.819 127.765 244.067 125.632 240.568C123.541 237.027 122.496 233.037 122.496 228.6C122.496 224.163 123.541 220.195 125.632 216.696C127.765 213.155 130.667 210.403 134.336 208.44C138.048 206.435 142.208 205.432 146.816 205.432C150.699 205.432 154.197 206.115 157.312 207.48C160.469 208.845 163.115 210.808 165.248 213.368L158.592 219.512C155.563 216.013 151.808 214.264 147.328 214.264C144.555 214.264 142.08 214.883 139.904 216.12C137.728 217.315 136.021 219 134.784 221.176C133.589 223.352 132.992 225.827 132.992 228.6C132.992 231.373 133.589 233.848 134.784 236.024C136.021 238.2 137.728 239.907 139.904 241.144C142.08 242.339 144.555 242.936 147.328 242.936C151.808 242.936 155.563 241.165 158.592 237.624L165.248 243.768C163.115 246.371 160.469 248.355 157.312 249.72C154.155 251.085 150.635 251.768 146.752 251.768ZM186.742 251.512C183.115 251.512 179.851 250.765 176.95 249.272C174.091 247.736 171.851 245.624 170.23 242.936C168.609 240.248 167.798 237.197 167.798 233.784C167.798 230.371 168.609 227.32 170.23 224.632C171.851 221.944 174.091 219.853 176.95 218.36C179.851 216.824 183.115 216.056 186.742 216.056C190.369 216.056 193.611 216.824 196.47 218.36C199.329 219.853 201.569 221.944 203.19 224.632C204.811 227.32 205.622 230.371 205.622 233.784C205.622 237.197 204.811 240.248 203.19 242.936C201.569 245.624 199.329 247.736 196.47 249.272C193.611 250.765 190.369 251.512 186.742 251.512ZM186.742 243.32C189.302 243.32 191.393 242.467 193.014 240.76C194.678 239.011 195.51 236.685 195.51 233.784C195.51 230.883 194.678 228.579 193.014 226.872C191.393 225.123 189.302 224.248 186.742 224.248C184.182 224.248 182.07 225.123 180.406 226.872C178.742 228.579 177.91 230.883 177.91 233.784C177.91 236.685 178.742 239.011 180.406 240.76C182.07 242.467 184.182 243.32 186.742 243.32ZM246.984 216.568V251H237.512V246.904C236.189 248.397 234.61 249.549 232.776 250.36C230.941 251.128 228.957 251.512 226.824 251.512C222.301 251.512 218.717 250.211 216.072 247.608C213.426 245.005 212.104 241.144 212.104 236.024V216.568H222.088V234.552C222.088 240.099 224.413 242.872 229.064 242.872C231.453 242.872 233.373 242.104 234.824 240.568C236.274 238.989 237 236.664 237 233.592V216.568H246.984ZM265.769 221.112C266.964 219.448 268.564 218.189 270.569 217.336C272.617 216.483 274.964 216.056 277.609 216.056V225.272C276.5 225.187 275.753 225.144 275.369 225.144C272.51 225.144 270.27 225.955 268.649 227.576C267.028 229.155 266.217 231.544 266.217 234.744V251H256.233V216.568H265.769V221.112ZM306.941 249.336C305.96 250.061 304.744 250.616 303.293 251C301.885 251.341 300.392 251.512 298.813 251.512C294.717 251.512 291.538 250.467 289.277 248.376C287.058 246.285 285.949 243.213 285.949 239.16V225.016H280.637V217.336H285.949V208.952H295.933V217.336H304.509V225.016H295.933V239.032C295.933 240.483 296.296 241.613 297.021 242.424C297.789 243.192 298.856 243.576 300.221 243.576C301.8 243.576 303.144 243.149 304.253 242.296L306.941 249.336ZM331.375 206.2H351.727C356.591 206.2 360.879 207.139 364.591 209.016C368.345 210.851 371.247 213.453 373.295 216.824C375.385 220.195 376.431 224.12 376.431 228.6C376.431 233.08 375.385 237.005 373.295 240.376C371.247 243.747 368.345 246.371 364.591 248.248C360.879 250.083 356.591 251 351.727 251H331.375V206.2ZM351.215 242.488C355.695 242.488 359.257 241.251 361.903 238.776C364.591 236.259 365.935 232.867 365.935 228.6C365.935 224.333 364.591 220.963 361.903 218.488C359.257 215.971 355.695 214.712 351.215 214.712H341.743V242.488H351.215ZM397.434 216.056C402.767 216.056 406.863 217.336 409.722 219.896C412.58 222.413 414.01 226.232 414.01 231.352V251H404.666V246.712C402.788 249.912 399.29 251.512 394.17 251.512C391.524 251.512 389.22 251.064 387.258 250.168C385.338 249.272 383.866 248.035 382.842 246.456C381.818 244.877 381.306 243.085 381.306 241.08C381.306 237.88 382.5 235.363 384.89 233.528C387.322 231.693 391.055 230.776 396.09 230.776H404.026C404.026 228.6 403.364 226.936 402.042 225.784C400.719 224.589 398.735 223.992 396.09 223.992C394.255 223.992 392.442 224.291 390.65 224.888C388.9 225.443 387.407 226.211 386.17 227.192L382.586 220.216C384.463 218.893 386.703 217.869 389.306 217.144C391.951 216.419 394.66 216.056 397.434 216.056ZM396.666 244.792C398.372 244.792 399.887 244.408 401.21 243.64C402.532 242.829 403.471 241.656 404.026 240.12V236.6H397.178C393.082 236.6 391.034 237.944 391.034 240.632C391.034 241.912 391.524 242.936 392.506 243.704C393.53 244.429 394.916 244.792 396.666 244.792ZM445.254 249.336C444.272 250.061 443.056 250.616 441.606 251C440.198 251.341 438.704 251.512 437.126 251.512C433.03 251.512 429.851 250.467 427.59 248.376C425.371 246.285 424.262 243.213 424.262 239.16V225.016H418.95V217.336H424.262V208.952H434.246V217.336H442.822V225.016H434.246V239.032C434.246 240.483 434.608 241.613 435.333 242.424C436.102 243.192 437.168 243.576 438.534 243.576C440.112 243.576 441.456 243.149 442.566 242.296L445.254 249.336ZM464.746 216.056C470.079 216.056 474.175 217.336 477.034 219.896C479.893 222.413 481.322 226.232 481.322 231.352V251H471.978V246.712C470.101 249.912 466.602 251.512 461.482 251.512C458.837 251.512 456.533 251.064 454.57 250.168C452.65 249.272 451.178 248.035 450.154 246.456C449.13 244.877 448.618 243.085 448.618 241.08C448.618 237.88 449.813 235.363 452.202 233.528C454.634 231.693 458.367 230.776 463.402 230.776H471.338C471.338 228.6 470.677 226.936 469.354 225.784C468.031 224.589 466.047 223.992 463.402 223.992C461.567 223.992 459.754 224.291 457.962 224.888C456.213 225.443 454.719 226.211 453.482 227.192L449.898 220.216C451.775 218.893 454.015 217.869 456.618 217.144C459.263 216.419 461.973 216.056 464.746 216.056ZM463.978 244.792C465.685 244.792 467.199 244.408 468.522 243.64C469.845 242.829 470.783 241.656 471.338 240.12V236.6H464.49C460.394 236.6 458.346 237.944 458.346 240.632C458.346 241.912 458.837 242.936 459.818 243.704C460.842 244.429 462.229 244.792 463.978 244.792ZM160 314.68V323H125.312V278.2H159.168V286.52H135.616V296.248H156.416V304.312H135.616V314.68H160ZM201.409 288.568L186.881 323H176.577L162.113 288.568H172.417L181.953 311.992L191.809 288.568H201.409ZM220.93 323.512C217.303 323.512 214.039 322.765 211.138 321.272C208.279 319.736 206.039 317.624 204.418 314.936C202.796 312.248 201.986 309.197 201.986 305.784C201.986 302.371 202.796 299.32 204.418 296.632C206.039 293.944 208.279 291.853 211.138 290.36C214.039 288.824 217.303 288.056 220.93 288.056C224.556 288.056 227.799 288.824 230.658 290.36C233.516 291.853 235.756 293.944 237.378 296.632C238.999 299.32 239.81 302.371 239.81 305.784C239.81 309.197 238.999 312.248 237.378 314.936C235.756 317.624 233.516 319.736 230.658 321.272C227.799 322.765 224.556 323.512 220.93 323.512ZM220.93 315.32C223.49 315.32 225.58 314.467 227.202 312.76C228.866 311.011 229.698 308.685 229.698 305.784C229.698 302.883 228.866 300.579 227.202 298.872C225.58 297.123 223.49 296.248 220.93 296.248C218.37 296.248 216.258 297.123 214.594 298.872C212.93 300.579 212.098 302.883 212.098 305.784C212.098 308.685 212.93 311.011 214.594 312.76C216.258 314.467 218.37 315.32 220.93 315.32ZM246.483 275.512H256.467V323H246.483V275.512ZM300.421 288.568V323H290.949V318.904C289.626 320.397 288.048 321.549 286.213 322.36C284.378 323.128 282.394 323.512 280.261 323.512C275.738 323.512 272.154 322.211 269.509 319.608C266.864 317.005 265.541 313.144 265.541 308.024V288.568H275.525V306.552C275.525 312.099 277.85 314.872 282.501 314.872C284.89 314.872 286.81 314.104 288.261 312.568C289.712 310.989 290.437 308.664 290.437 305.592V288.568H300.421ZM331.879 321.336C330.897 322.061 329.681 322.616 328.231 323C326.823 323.341 325.329 323.512 323.751 323.512C319.655 323.512 316.476 322.467 314.215 320.376C311.996 318.285 310.887 315.213 310.887 311.16V297.016H305.575V289.336H310.887V280.952H320.871V289.336H329.447V297.016H320.871V311.032C320.871 312.483 321.233 313.613 321.958 314.424C322.727 315.192 323.793 315.576 325.159 315.576C326.737 315.576 328.081 315.149 329.191 314.296L331.879 321.336ZM337.483 288.568H347.467V323H337.483V288.568ZM342.475 283.768C340.64 283.768 339.147 283.235 337.995 282.168C336.843 281.101 336.267 279.779 336.267 278.2C336.267 276.621 336.843 275.299 337.995 274.232C339.147 273.165 340.64 272.632 342.475 272.632C344.31 272.632 345.803 273.144 346.955 274.168C348.107 275.192 348.683 276.472 348.683 278.008C348.683 279.672 348.107 281.059 346.955 282.168C345.803 283.235 344.31 283.768 342.475 283.768ZM373.117 323.512C369.49 323.512 366.226 322.765 363.325 321.272C360.466 319.736 358.226 317.624 356.605 314.936C354.984 312.248 354.173 309.197 354.173 305.784C354.173 302.371 354.984 299.32 356.605 296.632C358.226 293.944 360.466 291.853 363.325 290.36C366.226 288.824 369.49 288.056 373.117 288.056C376.744 288.056 379.986 288.824 382.845 290.36C385.704 291.853 387.944 293.944 389.565 296.632C391.186 299.32 391.997 302.371 391.997 305.784C391.997 309.197 391.186 312.248 389.565 314.936C387.944 317.624 385.704 319.736 382.845 321.272C379.986 322.765 376.744 323.512 373.117 323.512ZM373.117 315.32C375.677 315.32 377.768 314.467 379.389 312.76C381.053 311.011 381.885 308.685 381.885 305.784C381.885 302.883 381.053 300.579 379.389 298.872C377.768 297.123 375.677 296.248 373.117 296.248C370.557 296.248 368.445 297.123 366.781 298.872C365.117 300.579 364.285 302.883 364.285 305.784C364.285 308.685 365.117 311.011 366.781 312.76C368.445 314.467 370.557 315.32 373.117 315.32ZM419.599 288.056C423.865 288.056 427.3 289.336 429.903 291.896C432.548 294.456 433.871 298.253 433.871 303.288V323H423.887V304.824C423.887 302.093 423.289 300.067 422.095 298.744C420.9 297.379 419.172 296.696 416.911 296.696C414.393 296.696 412.388 297.485 410.895 299.064C409.401 300.6 408.655 302.904 408.655 305.976V323H398.671V288.568H408.207V292.6C409.529 291.149 411.172 290.04 413.135 289.272C415.097 288.461 417.252 288.056 419.599 288.056Z" fill="#2E3853"/>
<path d="M124.92 362.288V368.144H133.344V370.208H124.92V377H122.52V360.2H134.376V362.288H124.92ZM137.418 359.192H139.722V377H137.418V359.192ZM155.978 364.28V377H153.794V375.08C153.33 375.736 152.714 376.248 151.946 376.616C151.194 376.968 150.37 377.144 149.474 377.144C147.778 377.144 146.442 376.68 145.465 375.752C144.49 374.808 144.002 373.424 144.002 371.6V364.28H146.306V371.336C146.306 372.568 146.602 373.504 147.194 374.144C147.786 374.768 148.634 375.08 149.738 375.08C150.954 375.08 151.914 374.712 152.618 373.976C153.322 373.24 153.674 372.2 153.674 370.856V364.28H155.978ZM171.86 370.712C171.86 370.888 171.844 371.12 171.812 371.408H161.492C161.636 372.528 162.124 373.432 162.956 374.12C163.804 374.792 164.852 375.128 166.1 375.128C167.62 375.128 168.844 374.616 169.772 373.592L171.044 375.08C170.468 375.752 169.748 376.264 168.884 376.616C168.036 376.968 167.084 377.144 166.028 377.144C164.684 377.144 163.492 376.872 162.452 376.328C161.412 375.768 160.604 374.992 160.028 374C159.468 373.008 159.188 371.888 159.188 370.64C159.188 369.408 159.46 368.296 160.004 367.304C160.564 366.312 161.324 365.544 162.284 365C163.26 364.44 164.356 364.16 165.572 364.16C166.788 364.16 167.868 364.44 168.812 365C169.772 365.544 170.516 366.312 171.044 367.304C171.588 368.296 171.86 369.432 171.86 370.712ZM165.572 366.104C164.468 366.104 163.54 366.44 162.788 367.112C162.052 367.784 161.62 368.664 161.492 369.752H169.652C169.524 368.68 169.084 367.808 168.332 367.136C167.596 366.448 166.676 366.104 165.572 366.104ZM181.851 364.16C183.467 364.16 184.747 364.632 185.691 365.576C186.651 366.504 187.131 367.872 187.131 369.68V377H184.827V369.944C184.827 368.712 184.531 367.784 183.939 367.16C183.347 366.536 182.499 366.224 181.395 366.224C180.147 366.224 179.163 366.592 178.443 367.328C177.723 368.048 177.363 369.088 177.363 370.448V377H175.059V364.28H177.267V366.2C177.731 365.544 178.355 365.04 179.139 364.688C179.939 364.336 180.843 364.16 181.851 364.16ZM198.547 376.256C198.211 376.544 197.795 376.768 197.299 376.928C196.803 377.072 196.291 377.144 195.763 377.144C194.483 377.144 193.491 376.8 192.787 376.112C192.083 375.424 191.731 374.44 191.731 373.16V366.176H189.571V364.28H191.731V361.496H194.035V364.28H197.683V366.176H194.035V373.064C194.035 373.752 194.203 374.28 194.539 374.648C194.891 375.016 195.387 375.2 196.027 375.2C196.731 375.2 197.331 375 197.827 374.6L198.547 376.256ZM214.93 376.256C214.594 376.544 214.178 376.768 213.682 376.928C213.186 377.072 212.674 377.144 212.146 377.144C210.866 377.144 209.874 376.8 209.17 376.112C208.466 375.424 208.114 374.44 208.114 373.16V366.176H205.954V364.28H208.114V361.496H210.418V364.28H214.066V366.176H210.418V373.064C210.418 373.752 210.586 374.28 210.922 374.648C211.274 375.016 211.77 375.2 212.41 375.2C213.114 375.2 213.714 375 214.21 374.6L214.93 376.256ZM219.923 366.416C220.323 365.68 220.915 365.12 221.699 364.736C222.483 364.352 223.435 364.16 224.555 364.16V366.392C224.427 366.376 224.251 366.368 224.027 366.368C222.779 366.368 221.795 366.744 221.075 367.496C220.371 368.232 220.019 369.288 220.019 370.664V377H217.715V364.28H219.923V366.416ZM232.004 364.16C233.764 364.16 235.108 364.592 236.036 365.456C236.98 366.32 237.452 367.608 237.452 369.32V377H235.268V375.32C234.884 375.912 234.332 376.368 233.612 376.688C232.908 376.992 232.068 377.144 231.092 377.144C229.668 377.144 228.524 376.8 227.66 376.112C226.812 375.424 226.388 374.52 226.388 373.4C226.388 372.28 226.796 371.384 227.612 370.712C228.428 370.024 229.724 369.68 231.5 369.68H235.148V369.224C235.148 368.232 234.86 367.472 234.284 366.944C233.708 366.416 232.86 366.152 231.74 366.152C230.988 366.152 230.252 366.28 229.532 366.536C228.812 366.776 228.204 367.104 227.708 367.52L226.748 365.792C227.404 365.264 228.188 364.864 229.1 364.592C230.012 364.304 230.98 364.16 232.004 364.16ZM231.476 375.368C232.356 375.368 233.116 375.176 233.756 374.792C234.396 374.392 234.86 373.832 235.148 373.112V371.336H231.596C229.644 371.336 228.668 371.992 228.668 373.304C228.668 373.944 228.916 374.448 229.412 374.816C229.908 375.184 230.596 375.368 231.476 375.368ZM248.507 364.16C250.123 364.16 251.403 364.632 252.347 365.576C253.307 366.504 253.787 367.872 253.787 369.68V377H251.483V369.944C251.483 368.712 251.187 367.784 250.595 367.16C250.003 366.536 249.155 366.224 248.051 366.224C246.803 366.224 245.819 366.592 245.099 367.328C244.379 368.048 244.019 369.088 244.019 370.448V377H241.715V364.28H243.923V366.2C244.387 365.544 245.011 365.04 245.795 364.688C246.595 364.336 247.499 364.16 248.507 364.16ZM261.699 377.144C260.659 377.144 259.659 377.008 258.699 376.736C257.739 376.448 256.987 376.088 256.443 375.656L257.403 373.832C257.963 374.232 258.643 374.552 259.443 374.792C260.243 375.032 261.051 375.152 261.867 375.152C263.883 375.152 264.891 374.576 264.891 373.424C264.891 373.04 264.755 372.736 264.483 372.512C264.211 372.288 263.867 372.128 263.451 372.032C263.051 371.92 262.475 371.8 261.723 371.672C260.699 371.512 259.859 371.328 259.203 371.12C258.563 370.912 258.011 370.56 257.547 370.064C257.083 369.568 256.851 368.872 256.851 367.976C256.851 366.824 257.331 365.904 258.291 365.216C259.251 364.512 260.539 364.16 262.155 364.16C263.003 364.16 263.851 364.264 264.699 364.472C265.547 364.68 266.243 364.96 266.787 365.312L265.803 367.136C264.763 366.464 263.539 366.128 262.131 366.128C261.155 366.128 260.411 366.288 259.899 366.608C259.387 366.928 259.131 367.352 259.131 367.88C259.131 368.296 259.275 368.624 259.563 368.864C259.851 369.104 260.203 369.28 260.619 369.392C261.051 369.504 261.651 369.632 262.419 369.776C263.443 369.952 264.267 370.144 264.891 370.352C265.531 370.544 266.075 370.88 266.523 371.36C266.971 371.84 267.195 372.512 267.195 373.376C267.195 374.528 266.699 375.448 265.707 376.136C264.731 376.808 263.395 377.144 261.699 377.144ZM274.731 360.944C273.355 360.944 272.667 361.688 272.667 363.176V364.28H276.363V366.176H272.715V377H270.411V366.176H268.251V364.28H270.411V363.152C270.411 361.888 270.779 360.888 271.515 360.152C272.251 359.416 273.283 359.048 274.611 359.048C275.123 359.048 275.603 359.112 276.051 359.24C276.499 359.368 276.883 359.552 277.203 359.792L276.507 361.544C275.979 361.144 275.387 360.944 274.731 360.944ZM289.844 370.712C289.844 370.888 289.828 371.12 289.796 371.408H279.476C279.62 372.528 280.108 373.432 280.94 374.12C281.788 374.792 282.836 375.128 284.084 375.128C285.604 375.128 286.828 374.616 287.756 373.592L289.028 375.08C288.452 375.752 287.732 376.264 286.868 376.616C286.02 376.968 285.068 377.144 284.012 377.144C282.668 377.144 281.476 376.872 280.436 376.328C279.396 375.768 278.588 374.992 278.012 374C277.452 373.008 277.172 371.888 277.172 370.64C277.172 369.408 277.444 368.296 277.988 367.304C278.548 366.312 279.308 365.544 280.268 365C281.244 364.44 282.34 364.16 283.556 364.16C284.772 364.16 285.852 364.44 286.796 365C287.756 365.544 288.5 366.312 289.028 367.304C289.572 368.296 289.844 369.432 289.844 370.712ZM283.556 366.104C282.452 366.104 281.524 366.44 280.772 367.112C280.036 367.784 279.604 368.664 279.476 369.752H287.636C287.508 368.68 287.068 367.808 286.316 367.136C285.58 366.448 284.66 366.104 283.556 366.104ZM295.251 366.416C295.651 365.68 296.243 365.12 297.027 364.736C297.811 364.352 298.763 364.16 299.883 364.16V366.392C299.755 366.376 299.579 366.368 299.355 366.368C298.107 366.368 297.123 366.744 296.403 367.496C295.699 368.232 295.347 369.288 295.347 370.664V377H293.043V364.28H295.251V366.416ZM316.484 376.256C316.148 376.544 315.732 376.768 315.236 376.928C314.74 377.072 314.228 377.144 313.7 377.144C312.42 377.144 311.428 376.8 310.724 376.112C310.02 375.424 309.668 374.44 309.668 373.16V366.176H307.508V364.28H309.668V361.496H311.972V364.28H315.62V366.176H311.972V373.064C311.972 373.752 312.14 374.28 312.476 374.648C312.828 375.016 313.324 375.2 313.964 375.2C314.668 375.2 315.268 375 315.764 374.6L316.484 376.256ZM324.296 377.144C323.032 377.144 321.896 376.864 320.888 376.304C319.88 375.744 319.088 374.976 318.512 374C317.952 373.008 317.672 371.888 317.672 370.64C317.672 369.392 317.952 368.28 318.512 367.304C319.088 366.312 319.88 365.544 320.888 365C321.896 364.44 323.032 364.16 324.296 364.16C325.56 364.16 326.688 364.44 327.68 365C328.688 365.544 329.472 366.312 330.032 367.304C330.608 368.28 330.896 369.392 330.896 370.64C330.896 371.888 330.608 373.008 330.032 374C329.472 374.976 328.688 375.744 327.68 376.304C326.688 376.864 325.56 377.144 324.296 377.144ZM324.296 375.128C325.112 375.128 325.84 374.944 326.48 374.576C327.136 374.192 327.648 373.664 328.016 372.992C328.384 372.304 328.568 371.52 328.568 370.64C328.568 369.76 328.384 368.984 328.016 368.312C327.648 367.624 327.136 367.096 326.48 366.728C325.84 366.36 325.112 366.176 324.296 366.176C323.48 366.176 322.744 366.36 322.088 366.728C321.448 367.096 320.936 367.624 320.552 368.312C320.184 368.984 320 369.76 320 370.64C320 371.52 320.184 372.304 320.552 372.992C320.936 373.664 321.448 374.192 322.088 374.576C322.744 374.944 323.48 375.128 324.296 375.128ZM345.16 364.16C346.92 364.16 348.264 364.592 349.192 365.456C350.136 366.32 350.608 367.608 350.608 369.32V377H348.424V375.32C348.04 375.912 347.488 376.368 346.768 376.688C346.064 376.992 345.224 377.144 344.248 377.144C342.824 377.144 341.68 376.8 340.816 376.112C339.968 375.424 339.544 374.52 339.544 373.4C339.544 372.28 339.952 371.384 340.768 370.712C341.584 370.024 342.88 369.68 344.656 369.68H348.304V369.224C348.304 368.232 348.016 367.472 347.44 366.944C346.864 366.416 346.016 366.152 344.896 366.152C344.144 366.152 343.408 366.28 342.688 366.536C341.968 366.776 341.36 367.104 340.864 367.52L339.904 365.792C340.56 365.264 341.344 364.864 342.256 364.592C343.168 364.304 344.136 364.16 345.16 364.16ZM344.632 375.368C345.512 375.368 346.272 375.176 346.912 374.792C347.552 374.392 348.016 373.832 348.304 373.112V371.336H344.752C342.8 371.336 341.824 371.992 341.824 373.304C341.824 373.944 342.072 374.448 342.568 374.816C343.064 375.184 343.752 375.368 344.632 375.368ZM366.728 364.28V377H364.544V375.08C364.08 375.736 363.464 376.248 362.696 376.616C361.944 376.968 361.12 377.144 360.224 377.144C358.528 377.144 357.192 376.68 356.215 375.752C355.24 374.808 354.752 373.424 354.752 371.6V364.28H357.056V371.336C357.056 372.568 357.352 373.504 357.944 374.144C358.536 374.768 359.384 375.08 360.488 375.08C361.704 375.08 362.664 374.712 363.368 373.976C364.072 373.24 364.424 372.2 364.424 370.856V364.28H366.728ZM378.266 376.256C377.93 376.544 377.514 376.768 377.018 376.928C376.522 377.072 376.01 377.144 375.482 377.144C374.202 377.144 373.21 376.8 372.506 376.112C371.802 375.424 371.45 374.44 371.45 373.16V366.176H369.29V364.28H371.45V361.496H373.754V364.28H377.402V366.176H373.754V373.064C373.754 373.752 373.922 374.28 374.258 374.648C374.61 375.016 375.106 375.2 375.746 375.2C376.45 375.2 377.05 375 377.546 374.6L378.266 376.256ZM386.077 377.144C384.813 377.144 383.677 376.864 382.669 376.304C381.661 375.744 380.869 374.976 380.293 374C379.733 373.008 379.453 371.888 379.453 370.64C379.453 369.392 379.733 368.28 380.293 367.304C380.869 366.312 381.661 365.544 382.669 365C383.677 364.44 384.813 364.16 386.077 364.16C387.341 364.16 388.469 364.44 389.461 365C390.469 365.544 391.253 366.312 391.813 367.304C392.389 368.28 392.677 369.392 392.677 370.64C392.677 371.888 392.389 373.008 391.813 374C391.253 374.976 390.469 375.744 389.461 376.304C388.469 376.864 387.341 377.144 386.077 377.144ZM386.077 375.128C386.893 375.128 387.621 374.944 388.261 374.576C388.917 374.192 389.429 373.664 389.797 372.992C390.165 372.304 390.349 371.52 390.349 370.64C390.349 369.76 390.165 368.984 389.797 368.312C389.429 367.624 388.917 367.096 388.261 366.728C387.621 366.36 386.893 366.176 386.077 366.176C385.261 366.176 384.525 366.36 383.869 366.728C383.229 367.096 382.717 367.624 382.333 368.312C381.965 368.984 381.781 369.76 381.781 370.64C381.781 371.52 381.965 372.304 382.333 372.992C382.717 373.664 383.229 374.192 383.869 374.576C384.525 374.944 385.261 375.128 386.077 375.128ZM411.776 364.16C413.376 364.16 414.64 364.624 415.568 365.552C416.512 366.48 416.984 367.856 416.984 369.68V377H414.68V369.944C414.68 368.712 414.392 367.784 413.816 367.16C413.256 366.536 412.448 366.224 411.392 366.224C410.224 366.224 409.296 366.592 408.608 367.328C407.92 368.048 407.576 369.088 407.576 370.448V377H405.272V369.944C405.272 368.712 404.984 367.784 404.408 367.16C403.848 366.536 403.04 366.224 401.984 366.224C400.816 366.224 399.888 366.592 399.2 367.328C398.512 368.048 398.168 369.088 398.168 370.448V377H395.864V364.28H398.072V366.176C398.536 365.52 399.144 365.024 399.896 364.688C400.648 364.336 401.504 364.16 402.464 364.16C403.456 364.16 404.336 364.36 405.104 364.76C405.872 365.16 406.464 365.744 406.88 366.512C407.36 365.776 408.024 365.2 408.872 364.784C409.736 364.368 410.704 364.16 411.776 364.16ZM425.855 364.16C427.615 364.16 428.959 364.592 429.887 365.456C430.831 366.32 431.303 367.608 431.303 369.32V377H429.119V375.32C428.735 375.912 428.183 376.368 427.463 376.688C426.759 376.992 425.919 377.144 424.943 377.144C423.519 377.144 422.375 376.8 421.511 376.112C420.663 375.424 420.239 374.52 420.239 373.4C420.239 372.28 420.647 371.384 421.463 370.712C422.279 370.024 423.575 369.68 425.351 369.68H428.999V369.224C428.999 368.232 428.711 367.472 428.135 366.944C427.559 366.416 426.711 366.152 425.591 366.152C424.839 366.152 424.103 366.28 423.383 366.536C422.663 366.776 422.055 367.104 421.559 367.52L420.599 365.792C421.255 365.264 422.039 364.864 422.951 364.592C423.863 364.304 424.831 364.16 425.855 364.16ZM425.327 375.368C426.207 375.368 426.967 375.176 427.607 374.792C428.247 374.392 428.711 373.832 428.999 373.112V371.336H425.447C423.495 371.336 422.519 371.992 422.519 373.304C422.519 373.944 422.767 374.448 423.263 374.816C423.759 375.184 424.447 375.368 425.327 375.368ZM442.719 376.256C442.383 376.544 441.967 376.768 441.471 376.928C440.975 377.072 440.463 377.144 439.935 377.144C438.655 377.144 437.663 376.8 436.959 376.112C436.255 375.424 435.903 374.44 435.903 373.16V366.176H433.743V364.28H435.903V361.496H438.207V364.28H441.855V366.176H438.207V373.064C438.207 373.752 438.375 374.28 438.711 374.648C439.063 375.016 439.559 375.2 440.199 375.2C440.903 375.2 441.503 375 441.999 374.6L442.719 376.256ZM456.578 370.712C456.578 370.888 456.562 371.12 456.53 371.408H446.21C446.354 372.528 446.842 373.432 447.674 374.12C448.522 374.792 449.57 375.128 450.818 375.128C452.338 375.128 453.562 374.616 454.49 373.592L455.762 375.08C455.186 375.752 454.466 376.264 453.602 376.616C452.754 376.968 451.802 377.144 450.746 377.144C449.402 377.144 448.21 376.872 447.17 376.328C446.13 375.768 445.322 374.992 444.746 374C444.186 373.008 443.906 371.888 443.906 370.64C443.906 369.408 444.178 368.296 444.722 367.304C445.282 366.312 446.042 365.544 447.002 365C447.978 364.44 449.074 364.16 450.29 364.16C451.506 364.16 452.586 364.44 453.53 365C454.49 365.544 455.234 366.312 455.762 367.304C456.306 368.296 456.578 369.432 456.578 370.712ZM450.29 366.104C449.186 366.104 448.258 366.44 447.506 367.112C446.77 367.784 446.338 368.664 446.21 369.752H454.37C454.242 368.68 453.802 367.808 453.05 367.136C452.314 366.448 451.394 366.104 450.29 366.104ZM471.778 359.192V377H469.57V374.984C469.058 375.688 468.41 376.224 467.626 376.592C466.842 376.96 465.978 377.144 465.034 377.144C463.802 377.144 462.698 376.872 461.722 376.328C460.746 375.784 459.978 375.024 459.418 374.048C458.874 373.056 458.602 371.92 458.602 370.64C458.602 369.36 458.874 368.232 459.418 367.256C459.978 366.28 460.746 365.52 461.722 364.976C462.698 364.432 463.802 364.16 465.034 364.16C465.946 364.16 466.786 364.336 467.554 364.688C468.322 365.024 468.962 365.528 469.474 366.2V359.192H471.778ZM465.226 375.128C466.026 375.128 466.754 374.944 467.41 374.576C468.066 374.192 468.578 373.664 468.946 372.992C469.314 372.304 469.498 371.52 469.498 370.64C469.498 369.76 469.314 368.984 468.946 368.312C468.578 367.624 468.066 367.096 467.41 366.728C466.754 366.36 466.026 366.176 465.226 366.176C464.41 366.176 463.674 366.36 463.018 366.728C462.378 367.096 461.866 367.624 461.482 368.312C461.114 368.984 460.93 369.76 460.93 370.64C460.93 371.52 461.114 372.304 461.482 372.992C461.866 373.664 462.378 374.192 463.018 374.576C463.674 374.944 464.41 375.128 465.226 375.128ZM489.326 364.16C490.558 364.16 491.662 364.432 492.638 364.976C493.614 365.52 494.374 366.28 494.918 367.256C495.478 368.232 495.758 369.36 495.758 370.64C495.758 371.92 495.478 373.056 494.918 374.048C494.374 375.024 493.614 375.784 492.638 376.328C491.662 376.872 490.558 377.144 489.326 377.144C488.414 377.144 487.574 376.968 486.806 376.616C486.054 376.264 485.414 375.752 484.886 375.08V381.656H482.582V364.28H484.79V366.296C485.302 365.592 485.95 365.064 486.734 364.712C487.518 364.344 488.382 364.16 489.326 364.16ZM489.134 375.128C489.95 375.128 490.678 374.944 491.318 374.576C491.974 374.192 492.486 373.664 492.854 372.992C493.238 372.304 493.43 371.52 493.43 370.64C493.43 369.76 493.238 368.984 492.854 368.312C492.486 367.624 491.974 367.096 491.318 366.728C490.678 366.36 489.95 366.176 489.134 366.176C488.334 366.176 487.606 366.368 486.95 366.752C486.31 367.12 485.798 367.64 485.414 368.312C485.046 368.984 484.862 369.76 484.862 370.64C484.862 371.52 485.046 372.304 485.414 372.992C485.782 373.664 486.294 374.192 486.95 374.576C487.606 374.944 488.334 375.128 489.134 375.128ZM501.15 366.416C501.55 365.68 502.142 365.12 502.926 364.736C503.71 364.352 504.662 364.16 505.782 364.16V366.392C505.654 366.376 505.478 366.368 505.254 366.368C504.006 366.368 503.022 366.744 502.302 367.496C501.598 368.232 501.246 369.288 501.246 370.664V377H498.942V364.28H501.15V366.416ZM513.952 377.144C512.688 377.144 511.552 376.864 510.544 376.304C509.536 375.744 508.744 374.976 508.168 374C507.608 373.008 507.328 371.888 507.328 370.64C507.328 369.392 507.608 368.28 508.168 367.304C508.744 366.312 509.536 365.544 510.544 365C511.552 364.44 512.688 364.16 513.952 364.16C515.216 364.16 516.344 364.44 517.336 365C518.344 365.544 519.128 366.312 519.688 367.304C520.264 368.28 520.552 369.392 520.552 370.64C520.552 371.888 520.264 373.008 519.688 374C519.128 374.976 518.344 375.744 517.336 376.304C516.344 376.864 515.216 377.144 513.952 377.144ZM513.952 375.128C514.768 375.128 515.496 374.944 516.136 374.576C516.792 374.192 517.304 373.664 517.672 372.992C518.04 372.304 518.224 371.52 518.224 370.64C518.224 369.76 518.04 368.984 517.672 368.312C517.304 367.624 516.792 367.096 516.136 366.728C515.496 366.36 514.768 366.176 513.952 366.176C513.136 366.176 512.4 366.36 511.744 366.728C511.104 367.096 510.592 367.624 510.208 368.312C509.84 368.984 509.656 369.76 509.656 370.64C509.656 371.52 509.84 372.304 510.208 372.992C510.592 373.664 511.104 374.192 511.744 374.576C512.4 374.944 513.136 375.128 513.952 375.128ZM529.283 377.144C527.987 377.144 526.827 376.864 525.803 376.304C524.795 375.744 524.003 374.976 523.427 374C522.851 373.008 522.563 371.888 522.563 370.64C522.563 369.392 522.851 368.28 523.427 367.304C524.003 366.312 524.795 365.544 525.803 365C526.827 364.44 527.987 364.16 529.283 364.16C530.435 364.16 531.459 364.392 532.355 364.856C533.267 365.32 533.971 365.992 534.467 366.872L532.715 368C532.315 367.392 531.819 366.936 531.227 366.632C530.635 366.328 529.979 366.176 529.259 366.176C528.427 366.176 527.675 366.36 527.003 366.728C526.347 367.096 525.827 367.624 525.443 368.312C525.075 368.984 524.891 369.76 524.891 370.64C524.891 371.536 525.075 372.328 525.443 373.016C525.827 373.688 526.347 374.208 527.003 374.576C527.675 374.944 528.427 375.128 529.259 375.128C529.979 375.128 530.635 374.976 531.227 374.672C531.819 374.368 532.315 373.912 532.715 373.304L534.467 374.408C533.971 375.288 533.267 375.968 532.355 376.448C531.459 376.912 530.435 377.144 529.283 377.144ZM548.758 370.712C548.758 370.888 548.742 371.12 548.71 371.408H538.39C538.534 372.528 539.022 373.432 539.854 374.12C540.702 374.792 541.75 375.128 542.998 375.128C544.518 375.128 545.742 374.616 546.67 373.592L547.942 375.08C547.366 375.752 546.646 376.264 545.782 376.616C544.934 376.968 543.982 377.144 542.926 377.144C541.582 377.144 540.39 376.872 539.35 376.328C538.31 375.768 537.502 374.992 536.926 374C536.366 373.008 536.086 371.888 536.086 370.64C536.086 369.408 536.358 368.296 536.902 367.304C537.462 366.312 538.222 365.544 539.182 365C540.158 364.44 541.254 364.16 542.47 364.16C543.686 364.16 544.766 364.44 545.71 365C546.67 365.544 547.414 366.312 547.942 367.304C548.486 368.296 548.758 369.432 548.758 370.712ZM542.47 366.104C541.366 366.104 540.438 366.44 539.686 367.112C538.95 367.784 538.518 368.664 538.39 369.752H546.55C546.422 368.68 545.982 367.808 545.23 367.136C544.494 366.448 543.574 366.104 542.47 366.104ZM555.605 377.144C554.565 377.144 553.565 377.008 552.605 376.736C551.645 376.448 550.893 376.088 550.349 375.656L551.309 373.832C551.869 374.232 552.549 374.552 553.349 374.792C554.149 375.032 554.957 375.152 555.773 375.152C557.789 375.152 558.797 374.576 558.797 373.424C558.797 373.04 558.661 372.736 558.389 372.512C558.117 372.288 557.773 372.128 557.357 372.032C556.957 371.92 556.381 371.8 555.629 371.672C554.605 371.512 553.765 371.328 553.109 371.12C552.469 370.912 551.917 370.56 551.453 370.064C550.989 369.568 550.757 368.872 550.757 367.976C550.757 366.824 551.237 365.904 552.197 365.216C553.157 364.512 554.445 364.16 556.061 364.16C556.909 364.16 557.757 364.264 558.605 364.472C559.453 364.68 560.149 364.96 560.693 365.312L559.709 367.136C558.669 366.464 557.445 366.128 556.037 366.128C555.061 366.128 554.317 366.288 553.805 366.608C553.293 366.928 553.037 367.352 553.037 367.88C553.037 368.296 553.181 368.624 553.469 368.864C553.757 369.104 554.109 369.28 554.525 369.392C554.957 369.504 555.557 369.632 556.325 369.776C557.349 369.952 558.173 370.144 558.797 370.352C559.437 370.544 559.981 370.88 560.429 371.36C560.877 371.84 561.101 372.512 561.101 373.376C561.101 374.528 560.605 375.448 559.613 376.136C558.637 376.808 557.301 377.144 555.605 377.144ZM567.629 377.144C566.589 377.144 565.589 377.008 564.629 376.736C563.669 376.448 562.917 376.088 562.373 375.656L563.333 373.832C563.893 374.232 564.573 374.552 565.373 374.792C566.173 375.032 566.981 375.152 567.797 375.152C569.813 375.152 570.821 374.576 570.821 373.424C570.821 373.04 570.685 372.736 570.413 372.512C570.141 372.288 569.797 372.128 569.381 372.032C568.981 371.92 568.405 371.8 567.653 371.672C566.629 371.512 565.789 371.328 565.133 371.12C564.493 370.912 563.941 370.56 563.477 370.064C563.013 369.568 562.781 368.872 562.781 367.976C562.781 366.824 563.261 365.904 564.221 365.216C565.181 364.512 566.469 364.16 568.085 364.16C568.933 364.16 569.781 364.264 570.629 364.472C571.477 364.68 572.173 364.96 572.717 365.312L571.733 367.136C570.693 366.464 569.469 366.128 568.061 366.128C567.085 366.128 566.341 366.288 565.829 366.608C565.317 366.928 565.061 367.352 565.061 367.88C565.061 368.296 565.205 368.624 565.493 368.864C565.781 369.104 566.133 369.28 566.549 369.392C566.981 369.504 567.581 369.632 568.349 369.776C569.373 369.952 570.197 370.144 570.821 370.352C571.461 370.544 572.005 370.88 572.453 371.36C572.901 371.84 573.125 372.512 573.125 373.376C573.125 374.528 572.629 375.448 571.637 376.136C570.661 376.808 569.325 377.144 567.629 377.144ZM141.432 396.28L136.68 409H134.472L130.8 399.352L127.08 409H124.872L120.144 396.28H122.328L126.024 406.408L129.864 396.28H131.808L135.576 406.456L139.368 396.28H141.432ZM143.77 396.28H146.074V409H143.77V396.28ZM144.922 393.832C144.474 393.832 144.098 393.688 143.794 393.4C143.506 393.112 143.362 392.76 143.362 392.344C143.362 391.928 143.506 391.576 143.794 391.288C144.098 390.984 144.474 390.832 144.922 390.832C145.37 390.832 145.738 390.976 146.026 391.264C146.33 391.536 146.482 391.88 146.482 392.296C146.482 392.728 146.33 393.096 146.026 393.4C145.738 393.688 145.37 393.832 144.922 393.832ZM157.625 408.256C157.289 408.544 156.873 408.768 156.377 408.928C155.881 409.072 155.369 409.144 154.841 409.144C153.561 409.144 152.569 408.8 151.865 408.112C151.161 407.424 150.809 406.44 150.809 405.16V398.176H148.649V396.28H150.809V393.496H153.113V396.28H156.761V398.176H153.113V405.064C153.113 405.752 153.281 406.28 153.617 406.648C153.969 407.016 154.465 407.2 155.105 407.2C155.809 407.2 156.409 407 156.905 406.6L157.625 408.256ZM167.203 396.16C168.819 396.16 170.099 396.632 171.043 397.576C172.003 398.504 172.483 399.872 172.483 401.68V409H170.179V401.944C170.179 400.712 169.883 399.784 169.291 399.16C168.699 398.536 167.851 398.224 166.747 398.224C165.499 398.224 164.515 398.592 163.795 399.328C163.075 400.048 162.715 401.088 162.715 402.448V409H160.411V391.192H162.715V398.08C163.195 397.472 163.819 397 164.587 396.664C165.371 396.328 166.243 396.16 167.203 396.16ZM189.936 396.16C191.168 396.16 192.272 396.432 193.248 396.976C194.224 397.52 194.984 398.28 195.528 399.256C196.088 400.232 196.368 401.36 196.368 402.64C196.368 403.92 196.088 405.056 195.528 406.048C194.984 407.024 194.224 407.784 193.248 408.328C192.272 408.872 191.168 409.144 189.936 409.144C189.024 409.144 188.184 408.968 187.416 408.616C186.664 408.264 186.024 407.752 185.496 407.08V413.656H183.192V396.28H185.4V398.296C185.912 397.592 186.56 397.064 187.344 396.712C188.128 396.344 188.992 396.16 189.936 396.16ZM189.744 407.128C190.56 407.128 191.288 406.944 191.928 406.576C192.584 406.192 193.096 405.664 193.464 404.992C193.848 404.304 194.04 403.52 194.04 402.64C194.04 401.76 193.848 400.984 193.464 400.312C193.096 399.624 192.584 399.096 191.928 398.728C191.288 398.36 190.56 398.176 189.744 398.176C188.944 398.176 188.216 398.368 187.56 398.752C186.92 399.12 186.408 399.64 186.024 400.312C185.656 400.984 185.472 401.76 185.472 402.64C185.472 403.52 185.656 404.304 186.024 404.992C186.392 405.664 186.904 406.192 187.56 406.576C188.216 406.944 188.944 407.128 189.744 407.128ZM204.066 396.16C205.826 396.16 207.17 396.592 208.098 397.456C209.042 398.32 209.514 399.608 209.514 401.32V409H207.33V407.32C206.946 407.912 206.394 408.368 205.674 408.688C204.97 408.992 204.13 409.144 203.154 409.144C201.73 409.144 200.586 408.8 199.722 408.112C198.874 407.424 198.45 406.52 198.45 405.4C198.45 404.28 198.858 403.384 199.674 402.712C200.49 402.024 201.786 401.68 203.562 401.68H207.21V401.224C207.21 400.232 206.922 399.472 206.346 398.944C205.77 398.416 204.922 398.152 203.802 398.152C203.05 398.152 202.314 398.28 201.594 398.536C200.874 398.776 200.266 399.104 199.77 399.52L198.81 397.792C199.466 397.264 200.25 396.864 201.162 396.592C202.074 396.304 203.042 396.16 204.066 396.16ZM203.538 407.368C204.418 407.368 205.178 407.176 205.818 406.792C206.458 406.392 206.922 405.832 207.21 405.112V403.336H203.658C201.706 403.336 200.73 403.992 200.73 405.304C200.73 405.944 200.978 406.448 201.474 406.816C201.97 407.184 202.658 407.368 203.538 407.368ZM220.522 396.16C221.754 396.16 222.858 396.432 223.834 396.976C224.81 397.52 225.57 398.28 226.114 399.256C226.674 400.232 226.954 401.36 226.954 402.64C226.954 403.92 226.674 405.056 226.114 406.048C225.57 407.024 224.81 407.784 223.834 408.328C222.858 408.872 221.754 409.144 220.522 409.144C219.61 409.144 218.77 408.968 218.002 408.616C217.25 408.264 216.61 407.752 216.082 407.08V413.656H213.778V396.28H215.986V398.296C216.498 397.592 217.146 397.064 217.93 396.712C218.714 396.344 219.578 396.16 220.522 396.16ZM220.33 407.128C221.146 407.128 221.874 406.944 222.514 406.576C223.17 406.192 223.682 405.664 224.05 404.992C224.434 404.304 224.626 403.52 224.626 402.64C224.626 401.76 224.434 400.984 224.05 400.312C223.682 399.624 223.17 399.096 222.514 398.728C221.874 398.36 221.146 398.176 220.33 398.176C219.53 398.176 218.802 398.368 218.146 398.752C217.506 399.12 216.994 399.64 216.61 400.312C216.242 400.984 216.058 401.76 216.058 402.64C216.058 403.52 216.242 404.304 216.61 404.992C216.978 405.664 217.49 406.192 218.146 406.576C218.802 406.944 219.53 407.128 220.33 407.128ZM241.633 402.712C241.633 402.888 241.617 403.12 241.585 403.408H231.265C231.409 404.528 231.897 405.432 232.729 406.12C233.577 406.792 234.625 407.128 235.873 407.128C237.393 407.128 238.617 406.616 239.545 405.592L240.817 407.08C240.241 407.752 239.521 408.264 238.657 408.616C237.809 408.968 236.857 409.144 235.801 409.144C234.457 409.144 233.265 408.872 232.225 408.328C231.185 407.768 230.377 406.992 229.801 406C229.241 405.008 228.961 403.888 228.961 402.64C228.961 401.408 229.233 400.296 229.777 399.304C230.337 398.312 231.097 397.544 232.057 397C233.033 396.44 234.129 396.16 235.345 396.16C236.561 396.16 237.641 396.44 238.585 397C239.545 397.544 240.289 398.312 240.817 399.304C241.361 400.296 241.633 401.432 241.633 402.712ZM235.345 398.104C234.241 398.104 233.313 398.44 232.561 399.112C231.825 399.784 231.393 400.664 231.265 401.752H239.425C239.297 400.68 238.857 399.808 238.105 399.136C237.369 398.448 236.449 398.104 235.345 398.104ZM247.04 398.416C247.44 397.68 248.032 397.12 248.816 396.736C249.6 396.352 250.552 396.16 251.672 396.16V398.392C251.544 398.376 251.368 398.368 251.144 398.368C249.896 398.368 248.912 398.744 248.192 399.496C247.488 400.232 247.136 401.288 247.136 402.664V409H244.832V396.28H247.04V398.416ZM253.649 401.416H260.105V403.408H253.649V401.416ZM268.309 392.944C266.933 392.944 266.245 393.688 266.245 395.176V396.28H269.941V398.176H266.293V409H263.989V398.176H261.829V396.28H263.989V395.152C263.989 393.888 264.357 392.888 265.093 392.152C265.829 391.416 266.861 391.048 268.189 391.048C268.701 391.048 269.181 391.112 269.629 391.24C270.077 391.368 270.461 391.552 270.781 391.792L270.085 393.544C269.557 393.144 268.965 392.944 268.309 392.944ZM276.244 398.416C276.644 397.68 277.236 397.12 278.02 396.736C278.804 396.352 279.756 396.16 280.876 396.16V398.392C280.748 398.376 280.572 398.368 280.348 398.368C279.1 398.368 278.116 398.744 277.396 399.496C276.692 400.232 276.34 401.288 276.34 402.664V409H274.036V396.28H276.244V398.416ZM295.094 402.712C295.094 402.888 295.078 403.12 295.046 403.408H284.726C284.87 404.528 285.358 405.432 286.19 406.12C287.038 406.792 288.086 407.128 289.334 407.128C290.854 407.128 292.078 406.616 293.006 405.592L294.278 407.08C293.702 407.752 292.982 408.264 292.118 408.616C291.27 408.968 290.318 409.144 289.262 409.144C287.918 409.144 286.726 408.872 285.686 408.328C284.646 407.768 283.838 406.992 283.262 406C282.702 405.008 282.422 403.888 282.422 402.64C282.422 401.408 282.694 400.296 283.238 399.304C283.798 398.312 284.558 397.544 285.518 397C286.494 396.44 287.59 396.16 288.806 396.16C290.022 396.16 291.102 396.44 292.046 397C293.006 397.544 293.75 398.312 294.278 399.304C294.822 400.296 295.094 401.432 295.094 402.712ZM288.806 398.104C287.702 398.104 286.774 398.44 286.022 399.112C285.286 399.784 284.854 400.664 284.726 401.752H292.886C292.758 400.68 292.318 399.808 291.566 399.136C290.83 398.448 289.91 398.104 288.806 398.104ZM309.789 402.712C309.789 402.888 309.773 403.12 309.741 403.408H299.421C299.565 404.528 300.053 405.432 300.885 406.12C301.733 406.792 302.781 407.128 304.029 407.128C305.549 407.128 306.773 406.616 307.701 405.592L308.973 407.08C308.397 407.752 307.677 408.264 306.813 408.616C305.965 408.968 305.013 409.144 303.957 409.144C302.613 409.144 301.421 408.872 300.381 408.328C299.341 407.768 298.533 406.992 297.957 406C297.397 405.008 297.117 403.888 297.117 402.64C297.117 401.408 297.389 400.296 297.933 399.304C298.493 398.312 299.253 397.544 300.213 397C301.189 396.44 302.285 396.16 303.501 396.16C304.717 396.16 305.797 396.44 306.741 397C307.701 397.544 308.445 398.312 308.973 399.304C309.517 400.296 309.789 401.432 309.789 402.712ZM303.501 398.104C302.397 398.104 301.469 398.44 300.717 399.112C299.981 399.784 299.549 400.664 299.421 401.752H307.581C307.453 400.68 307.013 399.808 306.261 399.136C305.525 398.448 304.605 398.104 303.501 398.104ZM338.682 396.28L333.93 409H331.722L328.05 399.352L324.33 409H322.122L317.394 396.28H319.578L323.274 406.408L327.114 396.28H329.058L332.826 406.456L336.618 396.28H338.682ZM346.116 409.144C344.852 409.144 343.716 408.864 342.708 408.304C341.7 407.744 340.908 406.976 340.332 406C339.772 405.008 339.492 403.888 339.492 402.64C339.492 401.392 339.772 400.28 340.332 399.304C340.908 398.312 341.7 397.544 342.708 397C343.716 396.44 344.852 396.16 346.116 396.16C347.38 396.16 348.508 396.44 349.5 397C350.508 397.544 351.292 398.312 351.852 399.304C352.428 400.28 352.716 401.392 352.716 402.64C352.716 403.888 352.428 405.008 351.852 406C351.292 406.976 350.508 407.744 349.5 408.304C348.508 408.864 347.38 409.144 346.116 409.144ZM346.116 407.128C346.932 407.128 347.66 406.944 348.3 406.576C348.956 406.192 349.468 405.664 349.836 404.992C350.204 404.304 350.388 403.52 350.388 402.64C350.388 401.76 350.204 400.984 349.836 400.312C349.468 399.624 348.956 399.096 348.3 398.728C347.66 398.36 346.932 398.176 346.116 398.176C345.3 398.176 344.564 398.36 343.908 398.728C343.268 399.096 342.756 399.624 342.372 400.312C342.004 400.984 341.82 401.76 341.82 402.64C341.82 403.52 342.004 404.304 342.372 404.992C342.756 405.664 343.268 406.192 343.908 406.576C344.564 406.944 345.3 407.128 346.116 407.128ZM358.111 398.416C358.511 397.68 359.103 397.12 359.887 396.736C360.671 396.352 361.623 396.16 362.743 396.16V398.392C362.615 398.376 362.439 398.368 362.215 398.368C360.967 398.368 359.983 398.744 359.263 399.496C358.559 400.232 358.207 401.288 358.207 402.664V409H355.903V396.28H358.111V398.416ZM370.526 403.072L367.886 405.52V409H365.582V391.192H367.886V402.616L374.822 396.28H377.606L372.254 401.536L378.134 409H375.302L370.526 403.072ZM385.028 392.944C383.652 392.944 382.964 393.688 382.964 395.176V396.28H386.66V398.176H383.012V409H380.708V398.176H378.548V396.28H380.708V395.152C380.708 393.888 381.076 392.888 381.812 392.152C382.548 391.416 383.58 391.048 384.908 391.048C385.42 391.048 385.9 391.112 386.348 391.24C386.796 391.368 387.18 391.552 387.5 391.792L386.804 393.544C386.276 393.144 385.684 392.944 385.028 392.944ZM388.844 391.192H391.148V409H388.844V391.192ZM400.984 409.144C399.72 409.144 398.584 408.864 397.576 408.304C396.568 407.744 395.776 406.976 395.2 406C394.64 405.008 394.36 403.888 394.36 402.64C394.36 401.392 394.64 400.28 395.2 399.304C395.776 398.312 396.568 397.544 397.576 397C398.584 396.44 399.72 396.16 400.984 396.16C402.248 396.16 403.376 396.44 404.368 397C405.376 397.544 406.16 398.312 406.72 399.304C407.296 400.28 407.584 401.392 407.584 402.64C407.584 403.888 407.296 405.008 406.72 406C406.16 406.976 405.376 407.744 404.368 408.304C403.376 408.864 402.248 409.144 400.984 409.144ZM400.984 407.128C401.8 407.128 402.528 406.944 403.168 406.576C403.824 406.192 404.336 405.664 404.704 404.992C405.072 404.304 405.256 403.52 405.256 402.64C405.256 401.76 405.072 400.984 404.704 400.312C404.336 399.624 403.824 399.096 403.168 398.728C402.528 398.36 401.8 398.176 400.984 398.176C400.168 398.176 399.432 398.36 398.776 398.728C398.136 399.096 397.624 399.624 397.24 400.312C396.872 400.984 396.688 401.76 396.688 402.64C396.688 403.52 396.872 404.304 397.24 404.992C397.624 405.664 398.136 406.192 398.776 406.576C399.432 406.944 400.168 407.128 400.984 407.128ZM429.666 396.28L424.914 409H422.706L419.034 399.352L415.314 409H413.106L408.378 396.28H410.562L414.258 406.408L418.098 396.28H420.042L423.81 406.456L427.602 396.28H429.666ZM435.488 409.144C434.448 409.144 433.448 409.008 432.488 408.736C431.528 408.448 430.776 408.088 430.232 407.656L431.192 405.832C431.752 406.232 432.432 406.552 433.232 406.792C434.032 407.032 434.84 407.152 435.656 407.152C437.672 407.152 438.68 406.576 438.68 405.424C438.68 405.04 438.544 404.736 438.272 404.512C438 404.288 437.656 404.128 437.24 404.032C436.84 403.92 436.264 403.8 435.512 403.672C434.488 403.512 433.648 403.328 432.992 403.12C432.352 402.912 431.8 402.56 431.336 402.064C430.872 401.568 430.64 400.872 430.64 399.976C430.64 398.824 431.12 397.904 432.08 397.216C433.04 396.512 434.328 396.16 435.944 396.16C436.792 396.16 437.64 396.264 438.488 396.472C439.336 396.68 440.032 396.96 440.576 397.312L439.592 399.136C438.552 398.464 437.328 398.128 435.92 398.128C434.944 398.128 434.2 398.288 433.688 398.608C433.176 398.928 432.92 399.352 432.92 399.88C432.92 400.296 433.064 400.624 433.352 400.864C433.64 401.104 433.992 401.28 434.408 401.392C434.84 401.504 435.44 401.632 436.208 401.776C437.232 401.952 438.056 402.144 438.68 402.352C439.32 402.544 439.864 402.88 440.312 403.36C440.76 403.84 440.984 404.512 440.984 405.376C440.984 406.528 440.488 407.448 439.496 408.136C438.52 408.808 437.184 409.144 435.488 409.144Z" fill="#202A42"/>
<g clip-path="url(#clip0_46_342356)">
<g filter="url(#filter0_i_46_342356)">
<path fill-rule="evenodd" clip-rule="evenodd" d="M821 687.449C821.122 685.417 822.028 683.394 823.888 681.848L850.793 659.482C851.957 658.515 852.712 657.143 852.908 655.643L859.469 605.226C859.858 602.237 862.404 600 865.418 600H984.768C987.782 600 990.329 602.237 990.718 605.226L997.277 655.633C997.473 657.133 998.228 658.505 999.392 659.472L1026.31 681.848C1027.22 682.606 1027.9 683.479 1028.38 684.412C1028.68 685.014 1028.78 685.693 1028.78 686.368V689.567C1028.78 690.22 1028.69 690.877 1028.41 691.467C1027.18 694.046 1024.62 696 1021.2 696H829.002C824.313 696 821.234 692.327 821 688.407V687.449Z" fill="#F2F4F7"/>
<path fill-rule="evenodd" clip-rule="evenodd" d="M821 687.449C821.122 685.417 822.028 683.394 823.888 681.848L850.793 659.482C851.957 658.515 852.712 657.143 852.908 655.643L859.469 605.226C859.858 602.237 862.404 600 865.418 600H984.768C987.782 600 990.329 602.237 990.718 605.226L997.277 655.633C997.473 657.133 998.228 658.505 999.392 659.472L1026.31 681.848C1027.22 682.606 1027.9 683.479 1028.38 684.412C1028.68 685.014 1028.78 685.693 1028.78 686.368V689.567C1028.78 690.22 1028.69 690.877 1028.41 691.467C1027.18 694.046 1024.62 696 1021.2 696H829.002C824.313 696 821.234 692.327 821 688.407V687.449Z" fill="url(#paint0_linear_46_342356)" fill-opacity="0.7"/>
</g>
<rect width="798" height="432" transform="translate(530 112)" fill="white"/>
<g clip-path="url(#clip1_46_342356)">
<rect width="798" height="432" transform="translate(530 112)" fill="white"/>
<rect width="798" height="36" transform="translate(530 112)" fill="#005FBA"/>
<g clip-path="url(#clip2_46_342356)">
<rect width="32" height="36" transform="translate(694 112)" fill="#0053B9"/>
<rect x="704" y="124" width="12" height="12" rx="2" fill="#FFCC00"/>
<mask id="path-5-inside-1_46_342356" fill="white">
<path d="M726 112H758V148H726V112Z"/>
</mask>
<path d="M757 112V148H759V112H757Z" fill="#0053B9" mask="url(#path-5-inside-1_46_342356)"/>
<rect x="736" y="124" width="12" height="12" rx="2" fill="white"/>
</g>
<g filter="url(#filter1_d_46_342356)">
<rect width="798" height="396" transform="translate(530 148)" fill="#202A42"/>
<g filter="url(#filter2_d_46_342356)">
<g clip-path="url(#clip3_46_342356)">
<g opacity="0.1">
<rect width="734" height="24" transform="translate(582 160)" fill="#EEEEEE"/>
</g>
<path d="M598 216H830" stroke="white" stroke-opacity="0.6" stroke-width="4" stroke-linecap="round"/>
<mask id="path-10-inside-2_46_342356" fill="white">
<path d="M582 232H1316V252H582V232Z"/>
</mask>
<path d="M582 233H1316V231H582V233ZM1316 251H582V253H1316V251Z" fill="white" fill-opacity="0.2" mask="url(#path-10-inside-2_46_342356)"/>
<path d="M799 232L799 252" stroke="white" stroke-opacity="0.2"/>
<rect x="807" y="239" width="72" height="6" rx="2" fill="white" fill-opacity="0.2"/>
<path d="M887 232L887 252" stroke="white" stroke-opacity="0.2"/>
<rect x="895" y="239" width="72" height="6" rx="2" fill="white" fill-opacity="0.2"/>
<path d="M975 232L975 252" stroke="white" stroke-opacity="0.2"/>
<path d="M1010 232L1010 252" stroke="white" stroke-opacity="0.2"/>
<rect x="1018" y="239" width="64" height="6" rx="2" fill="white" fill-opacity="0.2"/>
<path d="M1284 232L1284 252" stroke="white" stroke-opacity="0.2"/>
<path d="M626 279.2H883" stroke="#15BB4C" stroke-width="4" stroke-linecap="round"/>
<path d="M915 279.2H978" stroke="white" stroke-opacity="0.2" stroke-width="4" stroke-linecap="round"/>
<path d="M1010 279.2H1072" stroke="#FFCC00" stroke-width="4" stroke-linecap="round"/>
<path d="M1116 279.2H1160" stroke="white" stroke-opacity="0.2" stroke-width="4" stroke-linecap="round"/>
<path d="M1176 279.2H1232" stroke="#0083F5" stroke-width="4" stroke-linecap="round"/>
<path d="M1248 279.2H1288" stroke="white" stroke-opacity="0.2" stroke-width="4" stroke-linecap="round"/>
<path d="M590 307.4H1308" stroke="#536175"/>
<path d="M626 335.601H883" stroke="white" stroke-opacity="0.2" stroke-width="4" stroke-linecap="round"/>
<path d="M915 335.601H978" stroke="#15BB4C" stroke-width="4" stroke-linecap="round"/>
<path d="M1010 335.601H1072" stroke="#FFCC00" stroke-width="4" stroke-linecap="round"/>
<path d="M1116 335.601H1160" stroke="white" stroke-opacity="0.2" stroke-width="4" stroke-linecap="round"/>
<path d="M1176 335.601H1232" stroke="white" stroke-opacity="0.2" stroke-width="4" stroke-linecap="round"/>
<path d="M1248 335.601H1288" stroke="#0083F5" stroke-width="4" stroke-linecap="round"/>
<path d="M590 363.8H1308" stroke="#536175"/>
<path d="M626 392H883" stroke="white" stroke-opacity="0.2" stroke-width="4" stroke-linecap="round"/>
<path d="M915 392H978" stroke="#15BB4C" stroke-width="4" stroke-linecap="round"/>
<path d="M1010 392H1072" stroke="#FFCC00" stroke-width="4" stroke-linecap="round"/>
<path d="M1116 392H1160" stroke="#0083F5" stroke-width="4" stroke-linecap="round"/>
<path d="M1176 392H1232" stroke="#0083F5" stroke-width="4" stroke-linecap="round"/>
<path d="M1248 392H1288" stroke="white" stroke-opacity="0.2" stroke-width="4" stroke-linecap="round"/>
<path d="M590 420.2H1308" stroke="#536175"/>
<path d="M626 448.4H883" stroke="#15BB4C" stroke-width="4" stroke-linecap="round"/>
<path d="M915 448.4H978" stroke="white" stroke-opacity="0.2" stroke-width="4" stroke-linecap="round"/>
<path d="M1010 448.4H1072" stroke="#FFCC00" stroke-width="4" stroke-linecap="round"/>
<path d="M1116 448.4H1160" stroke="white" stroke-opacity="0.2" stroke-width="4" stroke-linecap="round"/>
<path d="M1176 448.4H1232" stroke="#0083F5" stroke-width="4" stroke-linecap="round"/>
<path d="M1248 448.4H1288" stroke="white" stroke-opacity="0.2" stroke-width="4" stroke-linecap="round"/>
<path d="M590 476.6H1308" stroke="#536175"/>
<path d="M626 504.8H883" stroke="white" stroke-opacity="0.2" stroke-width="4" stroke-linecap="round"/>
<path d="M915 504.8H978" stroke="#15BB4C" stroke-width="4" stroke-linecap="round"/>
<path d="M1010 504.8H1072" stroke="#FFCC00" stroke-width="4" stroke-linecap="round"/>
<path d="M1116 504.8H1160" stroke="white" stroke-opacity="0.2" stroke-width="4" stroke-linecap="round"/>
<path d="M1176 504.8H1232" stroke="#0083F5" stroke-width="4" stroke-linecap="round"/>
<path d="M1248 504.8H1288" stroke="white" stroke-opacity="0.2" stroke-width="4" stroke-linecap="round"/>
</g>
<rect x="582" y="160" width="734" height="372" rx="4" stroke="#536175"/>
</g>
</g>
</g>
<g clip-path="url(#clip4_46_342356)">
<g filter="url(#filter3_di_46_342356)">
<path fill-rule="evenodd" clip-rule="evenodd" d="M522 96C517.582 96 514 99.5817 514 104V600C514 604.418 517.582 608 522 608H1336C1340.42 608 1344 604.418 1344 600V104C1344 99.5817 1340.42 96 1336 96H522ZM534 112C531.791 112 530 113.791 530 116V540C530 542.209 531.791 544 534 544H1324C1326.21 544 1328 542.209 1328 540V116C1328 113.791 1326.21 112 1324 112H534Z" fill="#F2F4F7"/>
</g>
</g>
<rect width="64" height="760" transform="translate(702)" fill="white"/>
<path fill-rule="evenodd" clip-rule="evenodd" d="M829.999 760C791.68 682.996 766 541.637 766 380.001C766 218.364 791.68 77.0031 830 0H766V760H829.999Z" fill="white"/>
<g clip-path="url(#clip5_46_342356)">
<path d="M830 760C791.736 682.965 766.076 541.642 766 380C766.076 218.358 791.736 77.0347 830 0" stroke="#202A42" stroke-width="2"/>
</g>
</g>
<defs>
<filter id="filter0_i_46_342356" x="821" y="597" width="207.777" height="99" filterUnits="userSpaceOnUse" color-interpolation-filters="sRGB">
<feFlood flood-opacity="0" result="BackgroundImageFix"/>
<feBlend mode="normal" in="SourceGraphic" in2="BackgroundImageFix" result="shape"/>
<feColorMatrix in="SourceAlpha" type="matrix" values="0 0 0 0 0 0 0 0 0 0 0 0 0 0 0 0 0 0 127 0" result="hardAlpha"/>
<feOffset dy="-3"/>
<feGaussianBlur stdDeviation="6"/>
<feComposite in2="hardAlpha" operator="arithmetic" k2="-1" k3="1"/>
<feColorMatrix type="matrix" values="0 0 0 0 0.12549 0 0 0 0 0.164706 0 0 0 0 0.258824 0 0 0 0.12 0"/>
<feBlend mode="multiply" in2="shape" result="effect1_innerShadow_46_342356"/>
</filter>
<filter id="filter1_d_46_342356" x="450" y="76" width="958" height="556" filterUnits="userSpaceOnUse" color-interpolation-filters="sRGB">
<feFlood flood-opacity="0" result="BackgroundImageFix"/>
<feColorMatrix in="SourceAlpha" type="matrix" values="0 0 0 0 0 0 0 0 0 0 0 0 0 0 0 0 0 0 127 0" result="hardAlpha"/>
<feOffset dy="8"/>
<feGaussianBlur stdDeviation="40"/>
<feColorMatrix type="matrix" values="0 0 0 0 0.12549 0 0 0 0 0.164706 0 0 0 0 0.258824 0 0 0 0.12 0"/>
<feBlend mode="normal" in2="BackgroundImageFix" result="effect1_dropShadow_46_342356"/>
<feBlend mode="normal" in="SourceGraphic" in2="effect1_dropShadow_46_342356" result="shape"/>
</filter>
<filter id="filter2_d_46_342356" x="565.5" y="147.5" width="767" height="405" filterUnits="userSpaceOnUse" color-interpolation-filters="sRGB">
<feFlood flood-opacity="0" result="BackgroundImageFix"/>
<feColorMatrix in="SourceAlpha" type="matrix" values="0 0 0 0 0 0 0 0 0 0 0 0 0 0 0 0 0 0 127 0" result="hardAlpha"/>
<feOffset dy="4"/>
<feGaussianBlur stdDeviation="8"/>
<feColorMatrix type="matrix" values="0 0 0 0 0.12549 0 0 0 0 0.164706 0 0 0 0 0.258824 0 0 0 0.16 0"/>
<feBlend mode="normal" in2="BackgroundImageFix" result="effect1_dropShadow_46_342356"/>
<feBlend mode="normal" in="SourceGraphic" in2="effect1_dropShadow_46_342356" result="shape"/>
</filter>
<filter id="filter3_di_46_342356" x="508" y="90" width="846" height="528" filterUnits="userSpaceOnUse" color-interpolation-filters="sRGB">
<feFlood flood-opacity="0" result="BackgroundImageFix"/>
<feColorMatrix in="SourceAlpha" type="matrix" values="0 0 0 0 0 0 0 0 0 0 0 0 0 0 0 0 0 0 127 0" result="hardAlpha"/>
<feOffset dx="2" dy="2"/>
<feGaussianBlur stdDeviation="4"/>
<feColorMatrix type="matrix" values="0 0 0 0 0.12549 0 0 0 0 0.164706 0 0 0 0 0.258824 0 0 0 0.08 0"/>
<feBlend mode="multiply" in2="BackgroundImageFix" result="effect1_dropShadow_46_342356"/>
<feBlend mode="normal" in="SourceGraphic" in2="effect1_dropShadow_46_342356" result="shape"/>
<feColorMatrix in="SourceAlpha" type="matrix" values="0 0 0 0 0 0 0 0 0 0 0 0 0 0 0 0 0 0 127 0" result="hardAlpha"/>
<feOffset dy="-2"/>
<feGaussianBlur stdDeviation="4"/>
<feComposite in2="hardAlpha" operator="arithmetic" k2="-1" k3="1"/>
<feColorMatrix type="matrix" values="0 0 0 0 0.12549 0 0 0 0 0.164706 0 0 0 0 0.258824 0 0 0 0.12 0"/>
<feBlend mode="multiply" in2="shape" result="effect2_innerShadow_46_342356"/>
</filter>
<linearGradient id="paint0_linear_46_342356" x1="925.049" y1="536.643" x2="925.049" y2="718.451" gradientUnits="userSpaceOnUse">
<stop offset="0.357847" stop-color="#45547C" stop-opacity="0.6"/>
<stop offset="0.656248" stop-color="white" stop-opacity="0"/>
<stop offset="0.770215" stop-color="white" stop-opacity="0"/>
<stop offset="0.82127" stop-color="#040B1F" stop-opacity="0.05"/>
<stop offset="0.845096" stop-color="white" stop-opacity="0"/>
<stop offset="0.876787" stop-color="#040B1F" stop-opacity="0.08"/>
<stop offset="0.979515" stop-color="white"/>
</linearGradient>
<clipPath id="clip0_46_342356">
<rect width="738" height="760" fill="white" transform="translate(702)"/>
</clipPath>
<clipPath id="clip1_46_342356">
<rect width="798" height="432" fill="white" transform="translate(530 112)"/>
</clipPath>
<clipPath id="clip2_46_342356">
<rect width="64" height="36" fill="white" transform="translate(694 112)"/>
</clipPath>
<clipPath id="clip3_46_342356">
<rect x="582" y="160" width="734" height="372" rx="4" fill="white"/>
</clipPath>
<clipPath id="clip4_46_342356">
<rect width="830" height="512" fill="white" transform="translate(514 96)"/>
</clipPath>
<clipPath id="clip5_46_342356">
<rect width="64" height="728" fill="white" transform="matrix(-1 0 0 1 829 16)"/>
</clipPath>
</defs>
</svg>
