<svg width="128" height="128" viewBox="0 0 128 128" fill="none" xmlns="http://www.w3.org/2000/svg">
<g clip-path="url(#clip0_4007_166895)">
<path d="M124.126 54.4911L73.5 3.98263C68.1904 -1.32754 59.794 -1.32754 54.4844 3.98263L3.98215 54.4911C-1.32738 59.8013 -1.32738 68.1987 3.98215 73.5089L54.4844 124.017C59.794 129.328 68.1904 129.328 73.5 124.017L124.002 73.5089C129.312 68.3222 129.312 59.8013 124.126 54.4911ZM65.227 104.753L33.1228 72.6445C27.6898 67.2108 27.6898 58.3193 33.1228 52.8857L65.227 84.9937C70.7835 90.4274 70.7835 99.3189 65.227 104.753ZM80.0443 89.9334L47.9401 57.8254C42.5071 52.3917 42.5071 43.5002 47.9401 38.0666L80.0443 70.1746C85.4773 75.6083 85.4773 84.4998 80.0443 89.9334ZM94.8616 75.1143L62.7574 43.0063C57.3244 37.5726 57.3244 28.6811 62.7574 23.2475L94.8616 55.3555C100.295 60.9127 100.295 69.6807 94.8616 75.1143Z" fill="white"/>
</g>
<defs>
<clipPath id="clip0_4007_166895">
<rect width="128" height="128" fill="white"/>
</clipPath>
</defs>
</svg>
