<svg width="576" height="96" viewBox="0 0 576 96" fill="none" xmlns="http://www.w3.org/2000/svg">
<path d="M51.0294 21.3818C60.2869 21.3818 67.9639 24.8727 74.2862 31.8545L88.0596 19.6364C79.4794 9.38182 66.1576 3.92728 50.1262 3.92728C21.4504 3.92728 0 23.1273 0 49.9636C0 76.8 21.2246 96 49.9004 96C65.9318 96 79.2536 90.3273 87.8338 80.0727L74.0604 67.8545C67.9639 74.8364 60.0612 78.3273 50.8036 78.3273C33.6433 78.3273 21.2246 66.5454 21.2246 49.7455C21.4504 33.1636 33.6433 21.3818 51.0294 21.3818ZM128.702 25.0909C117.413 25.0909 105.897 27.9273 98.2203 33.3818L105.672 47.3454C110.865 43.4182 118.542 41.0182 125.993 41.0182C137.057 41.0182 142.25 46.0364 142.25 54.5454H125.993C104.317 54.5454 95.5108 62.8364 95.5108 75.0545C95.5108 86.8364 105.446 95.7818 121.929 95.7818C132.315 95.7818 139.766 92.5091 143.605 86.1818V94.6909H162.797V55.4182C162.797 34.6909 150.379 25.0909 128.702 25.0909ZM142.25 72.8727C139.992 79.2 133.896 82.2545 127.122 82.2545C119.897 82.2545 115.606 78.9818 115.606 73.9636C115.606 69.3818 118.542 65.8909 128.251 65.8909H142.25V72.8727ZM195.989 46.4727C195.989 42.9818 199.828 40.1454 209.085 40.1454C215.633 40.1454 222.407 41.4545 229.406 45.1636L236.18 30.9818C229.407 27.2727 218.568 25.0909 208.859 25.0909C188.086 25.0909 176.119 34.2545 176.119 47.1273C176.119 74.4 218.794 63.0545 218.794 74.1818C218.794 77.8909 215.182 80.5091 205.698 80.5091C197.118 80.5091 187.409 77.8909 181.087 73.9636L174.313 88.1455C180.861 92.2909 193.054 95.5636 205.021 95.5636C226.245 95.5636 238.438 86.6182 238.438 73.7454C238.664 46.6909 195.989 58.0364 195.989 46.4727ZM320.627 60.4364C320.627 38.4 304.596 24.8727 283.823 24.8727C262.147 24.8727 246.115 39.7091 246.115 60.2182C246.115 80.5091 262.147 95.3454 286.532 95.3454C299.403 95.3454 309.112 91.6364 315.66 84.2182L304.822 72.8727C299.854 77.2364 294.661 79.4182 286.984 79.4182C276.146 79.4182 268.695 74.1818 266.662 65.6727H320.176C320.401 64.1454 320.627 61.9636 320.627 60.4364ZM266.437 54.3273C267.791 45.6 274.565 40.1454 284.049 40.1454C293.306 40.1454 300.08 45.8182 301.435 54.3273H266.437ZM385.882 0V33.1636C380.688 27.4909 373.463 24.8727 364.657 24.8727C344.561 24.8727 329.207 38.6182 329.207 60.2182C329.207 81.8182 344.561 95.3454 364.657 95.3454C374.14 95.3454 381.592 92.5091 386.785 86.4V94.2545H406.429V0H385.882ZM368.27 79.2C358.109 79.2 350.206 72 350.206 60.2182C350.206 48.4364 358.109 41.2364 368.27 41.2364C378.43 41.2364 386.333 48.4364 386.333 60.2182C386.333 72 378.43 79.2 368.27 79.2ZM457.007 25.0909C434.427 25.0909 417.944 39.7091 417.944 60.4364C417.944 80.9454 434.427 95.5636 457.007 95.5636C479.586 95.5636 495.843 80.9454 495.843 60.4364C495.843 39.7091 479.36 25.0909 457.007 25.0909ZM457.007 79.2C446.846 79.2 438.943 72 438.943 60.2182C438.943 48.4364 446.846 41.2364 457.007 41.2364C467.167 41.2364 475.07 48.4364 475.07 60.2182C475.07 72 467.167 79.2 457.007 79.2ZM543.937 79.2C533.551 79.2 525.422 72.2182 525.422 60.2182C525.422 48.2182 533.551 41.2364 543.937 41.2364C550.485 41.2364 556.13 44.0727 559.969 50.6182L576 42.3273C570.807 31.2 559.065 24.8727 544.163 24.8727C521.132 24.8727 504.649 39.4909 504.649 60.2182C504.649 80.7273 521.132 95.3454 544.163 95.3454C559.065 95.3454 570.807 89.0182 576 78.1091L559.969 69.8182C556.13 76.3636 550.485 79.2 543.937 79.2Z" fill="white"/>
</svg>
