<svg width="1200" height="800" viewBox="0 0 1200 800" fill="none" xmlns="http://www.w3.org/2000/svg">
<g clip-path="url(#clip0_4006_71856)">
<rect width="1200" height="800" fill="#ECE8DE"/>
<rect width="800" height="800" fill="#F5F3EF"/>
<path opacity="0.2" fill-rule="evenodd" clip-rule="evenodd" d="M660.798 43.3199L648.535 53.8153C646.467 52.0396 646.467 49.1542 648.572 47.3468L660.798 36.8514C662.866 38.627 662.866 41.5442 660.798 43.3199ZM666.449 41.7027L654.186 52.1982C652.118 54.0055 652.118 56.891 654.223 58.6667L666.449 48.1712C666.725 47.9341 666.964 47.6767 667.167 47.4043C667.369 47.6767 667.608 47.9341 667.884 48.1712L680.11 58.6667C682.215 56.891 682.215 54.0055 680.147 52.1982L667.884 41.7027C667.608 41.9398 667.369 42.1973 667.167 42.4697C666.964 42.1973 666.725 41.9398 666.449 41.7027ZM642.885 48.9639L655.147 38.4685C657.215 36.6928 657.215 33.7757 655.147 32L642.885 42.4954C642.608 42.7326 642.369 42.9901 642.167 43.2625C641.964 42.9901 641.725 42.7327 641.449 42.4956L629.186 32.0002C627.118 33.7758 627.118 36.693 629.186 38.4687L641.449 48.9641C641.725 48.727 641.964 48.4695 642.167 48.1971C642.369 48.4694 642.608 48.7269 642.885 48.9639ZM623.535 43.32L635.798 53.8155C637.866 52.0398 637.866 49.1543 635.761 47.347L623.535 36.8515C621.467 38.6272 621.467 41.5444 623.535 43.32ZM617.884 41.7029L630.147 52.1983C632.215 54.0057 632.215 56.8912 630.11 58.6668L617.884 48.1714C615.816 46.3957 615.816 43.4786 617.884 41.7029ZM685.798 53.8153L673.535 43.3199C671.467 41.5442 671.467 38.627 673.535 36.8514L685.761 47.3468C687.866 49.1542 687.866 52.0396 685.798 53.8153ZM679.186 38.4685L691.449 48.9639C691.725 48.7268 691.964 48.4694 692.167 48.197C692.369 48.4694 692.608 48.7268 692.884 48.9639L705.147 38.4685C707.215 36.6928 707.215 33.7757 705.147 32L692.884 42.4954C692.608 42.7325 692.369 42.99 692.167 43.2624C691.964 42.99 691.725 42.7325 691.449 42.4954L679.186 32C677.118 33.7757 677.118 36.6928 679.186 38.4685ZM710.798 43.3199L698.535 53.8153C696.467 52.0396 696.467 49.1542 698.572 47.3468L710.798 36.8514C712.866 38.627 712.866 41.5442 710.798 43.3199ZM716.449 41.7027L704.186 52.1982C702.118 54.0055 702.118 56.891 704.223 58.6667L716.449 48.1712C716.725 47.9341 716.964 47.6767 717.167 47.4043C717.369 47.6767 717.608 47.9341 717.884 48.1712L730.11 58.6667C732.215 56.891 732.215 54.0055 730.147 52.1982L717.884 41.7027C717.608 41.9398 717.369 42.1973 717.167 42.4697C716.964 42.1973 716.725 41.9398 716.449 41.7027ZM735.798 53.8153L723.535 43.3199C721.467 41.5442 721.467 38.627 723.535 36.8514L735.761 47.3468C737.866 49.1542 737.866 52.0396 735.798 53.8153ZM729.186 38.4685L741.449 48.9639C741.725 48.7268 741.964 48.4694 742.167 48.197C742.369 48.4694 742.608 48.7268 742.885 48.9639L755.147 38.4685C757.215 36.6928 757.215 33.7757 755.147 32L742.885 42.4954C742.608 42.7325 742.369 42.99 742.167 43.2624C741.964 42.99 741.725 42.7325 741.449 42.4954L729.186 32C727.118 33.7757 727.118 36.6928 729.186 38.4685ZM760.798 43.3199L748.535 53.8153C746.467 52.0396 746.467 49.1542 748.572 47.3468L760.798 36.8514C762.866 38.627 762.866 41.5442 760.798 43.3199ZM766.449 41.7027L754.186 52.1982C752.118 54.0055 752.118 56.891 754.223 58.6667L766.449 48.1712C768.517 46.3956 768.517 43.4784 766.449 41.7027Z" fill="#142438"/>
<path fill-rule="evenodd" clip-rule="evenodd" d="M179.21 432.96C179.21 445.685 189.525 456 202.25 456V416.041C202.25 403.316 191.935 393.001 179.21 393.001L139.25 393.001C139.25 405.725 149.565 416.041 162.29 416.041H179.21V432.96Z" fill="#DEB430"/>
<path d="M188.25 344C200.975 344 211.29 354.315 211.29 367.04V383.96L228.21 383.96C240.935 383.96 251.25 394.275 251.25 406.999C236.213 406.999 221.176 406.999 206.139 406.999C203.397 398.422 196.731 391.6 188.25 388.648V344Z" fill="#202A42"/>
<path d="M302.133 454.78C306.817 456.526 311.869 457.4 317.289 457.4C323.444 457.4 328.965 456.325 333.849 454.176C338.8 452.026 342.949 448.903 346.294 444.806L335.856 435.134C333.448 437.955 330.771 440.071 327.827 441.481C324.883 442.824 321.671 443.496 318.192 443.496C314.913 443.496 311.902 442.959 309.159 441.884C306.416 440.809 304.04 439.264 302.033 437.249C300.026 435.234 298.453 432.85 297.316 430.096C296.245 427.342 295.71 424.286 295.71 420.928C295.71 417.569 296.245 414.513 297.316 411.759C298.453 409.006 300.026 406.621 302.033 404.606C304.04 402.591 306.416 401.046 309.159 399.972C311.902 398.897 314.913 398.36 318.192 398.36C321.671 398.36 324.883 399.065 327.827 400.475C330.771 401.819 333.448 403.867 335.856 406.621L346.294 396.949C342.949 392.852 338.8 389.762 333.849 387.68C328.965 385.531 323.478 384.456 317.389 384.456C311.902 384.456 306.851 385.363 302.234 387.176C297.617 388.923 293.569 391.441 290.09 394.733C286.677 398.024 284.001 401.886 282.06 406.319C280.187 410.752 279.25 415.622 279.25 420.928C279.25 426.234 280.187 431.104 282.06 435.537C284.001 439.97 286.677 443.832 290.09 447.123C293.502 450.414 297.517 452.967 302.133 454.78Z" fill="#142438"/>
<path fill-rule="evenodd" clip-rule="evenodd" d="M403.65 425.26C403.65 416.999 401.375 410.92 396.825 407.024C392.276 403.128 385.886 401.181 377.656 401.181C373.373 401.181 369.158 401.752 365.009 402.893C360.861 404.035 357.315 405.647 354.371 407.729L359.991 418.711C361.932 417.166 364.273 415.957 367.017 415.084C369.827 414.144 372.671 413.674 375.548 413.674C379.763 413.674 382.875 414.614 384.882 416.495C386.956 418.375 387.993 420.995 387.993 424.353H375.548C370.061 424.353 365.612 425.059 362.199 426.469C358.787 427.812 356.278 429.693 354.672 432.111C353.133 434.529 352.363 437.35 352.363 440.574C352.363 443.664 353.166 446.451 354.772 448.937C356.378 451.422 358.686 453.403 361.697 454.881C364.708 456.291 368.322 456.997 372.537 456.997C377.288 456.997 381.168 456.09 384.179 454.276C386.212 453.052 387.818 451.445 388.997 449.455V456.191H403.65V425.26ZM377.254 433.522C373.574 433.522 371.031 434.126 369.626 435.335C368.288 436.544 367.619 438.055 367.619 439.869C367.619 441.884 368.388 443.496 369.927 444.705C371.533 445.847 373.708 446.418 376.451 446.418C379.061 446.418 381.403 445.813 383.477 444.604C385.551 443.328 387.057 441.481 387.993 439.063V433.522H377.254Z" fill="#142438"/>
<path d="M462.082 403.8C458.737 402.054 454.923 401.181 450.64 401.181C446.024 401.181 441.909 402.155 438.295 404.102C436.164 405.251 434.324 406.692 432.775 408.425V401.987H417.821V456.191H433.478V429.391C433.478 426.033 434.013 423.279 435.084 421.129C436.221 418.98 437.76 417.402 439.7 416.394C441.708 415.319 443.949 414.782 446.425 414.782C449.904 414.782 452.581 415.823 454.454 417.905C456.395 419.987 457.365 423.212 457.365 427.577V456.191H473.022V425.159C473.022 419.652 472.052 415.151 470.111 411.659C468.171 408.099 465.494 405.479 462.082 403.8Z" fill="#142438"/>
<path fill-rule="evenodd" clip-rule="evenodd" d="M534.988 425.26C534.988 416.999 532.713 410.92 528.164 407.024C523.614 403.128 517.224 401.181 508.994 401.181C504.711 401.181 500.496 401.752 496.348 402.893C492.199 404.035 488.653 405.647 485.709 407.729L491.329 418.711C493.27 417.166 495.612 415.957 498.355 415.084C501.165 414.144 504.009 413.674 506.886 413.674C511.101 413.674 514.213 414.614 516.22 416.495C518.294 418.375 519.331 420.995 519.331 424.353H506.886C501.399 424.353 496.95 425.059 493.537 426.469C490.125 427.812 487.616 429.693 486.01 432.111C484.471 434.529 483.702 437.35 483.702 440.574C483.702 443.664 484.504 446.451 486.11 448.937C487.716 451.422 490.025 453.403 493.036 454.881C496.046 456.291 499.66 456.997 503.875 456.997C508.626 456.997 512.507 456.09 515.517 454.276C517.55 453.052 519.156 451.445 520.335 449.455V456.191H534.988V425.26ZM508.592 433.522C504.912 433.522 502.37 434.126 500.964 435.335C499.626 436.544 498.957 438.055 498.957 439.869C498.957 441.884 499.727 443.496 501.266 444.705C502.871 445.847 505.046 446.418 507.789 446.418C510.399 446.418 512.741 445.813 514.815 444.604C516.889 443.328 518.395 441.481 519.331 439.063V433.522H508.592Z" fill="#142438"/>
<path d="M623.483 428.849L602.71 456.191H619.773L632.036 439.588L643.86 456.191H661.625L640.736 428.494L660.822 401.987H644.161L632.431 417.817L620.977 401.987H603.413L623.483 428.849Z" fill="#142438"/>
<path d="M594.95 383.9H579.55V397.2H594.95V383.9Z" fill="#142438"/>
<path d="M549.159 384.233V456.191H564.816V384.233H549.159Z" fill="#142438"/>
<path d="M579.347 401.987V456.191H595.004V401.987H579.347Z" fill="#142438"/>
<rect x="32" y="748" width="20" height="20" fill="#FFCC00"/>
<rect x="62" y="748" width="20" height="20" fill="#2E3853"/>
<rect x="92" y="748" width="20" height="20" fill="#00469C"/>
<g clip-path="url(#clip1_4006_71856)">
<rect width="400" height="400" transform="translate(800)" fill="#DEB430"/>
<path opacity="0.6" fill-rule="evenodd" clip-rule="evenodd" d="M971.357 258.861C971.357 281.583 989.777 300.003 1012.5 300.003V228.647C1012.5 205.924 994.08 187.503 971.357 187.503L900 187.504C900 210.226 918.42 228.647 941.143 228.647H971.357V258.861Z" fill="#ECE8DE"/>
<path opacity="0.6" d="M987.5 99.9993C1010.22 99.9993 1028.64 118.42 1028.64 141.142V171.357L1058.86 171.357C1081.58 171.357 1100 189.777 1100 212.5C1073.15 212.5 1046.3 212.499 1019.44 212.499C1014.55 197.182 1002.65 184.999 987.5 179.729V99.9993Z" fill="#ECE8DE"/>
<g opacity="0.2">
<path d="M987.5 15.6252V384.375" stroke="#ECE8DE" stroke-width="0.520833" stroke-dasharray="3.12 3.12"/>
<path d="M1012.5 15.6252V384.375" stroke="#ECE8DE" stroke-width="0.520833" stroke-dasharray="3.12 3.12"/>
<path d="M1028.12 15.6252V384.375" stroke="#ECE8DE" stroke-width="0.520833" stroke-dasharray="3.12 3.12"/>
<path d="M971.875 15.6252V384.375" stroke="#ECE8DE" stroke-width="0.520833" stroke-dasharray="3.12 3.12"/>
</g>
<g opacity="0.2">
<path d="M1184.38 187.5L815.625 187.5" stroke="#ECE8DE" stroke-width="0.520833" stroke-dasharray="3.12 3.12"/>
<path d="M1184.38 212.5L815.625 212.5" stroke="#ECE8DE" stroke-width="0.520833" stroke-dasharray="3.12 3.12"/>
<path d="M1184.38 228.125L815.625 228.125" stroke="#ECE8DE" stroke-width="0.520833" stroke-dasharray="3.12 3.12"/>
<path d="M1184.38 171.875L815.625 171.875" stroke="#ECE8DE" stroke-width="0.520833" stroke-dasharray="3.12 3.12"/>
</g>
<g opacity="0.6" style="mix-blend-mode:difference">
<circle cx="1059.38" cy="212.5" r="40.3646" stroke="#ECE8DE" stroke-width="0.520833" stroke-dasharray="3.12 3.12"/>
</g>
<g opacity="0.6" style="mix-blend-mode:difference">
<circle cx="987.5" cy="140.625" r="40.3646" stroke="#ECE8DE" stroke-width="0.520833" stroke-dasharray="3.12 3.12"/>
</g>
<g opacity="0.6" style="mix-blend-mode:difference">
<circle cx="940.625" cy="187.5" r="40.3646" stroke="#ECE8DE" stroke-width="0.520833" stroke-dasharray="3.12 3.12"/>
</g>
<g opacity="0.6" style="mix-blend-mode:difference">
<circle cx="1012.5" cy="259.375" r="40.3646" stroke="#ECE8DE" stroke-width="0.520833" stroke-dasharray="3.12 3.12"/>
</g>
<g opacity="0.6" style="mix-blend-mode:difference">
<circle cx="971.875" cy="227.603" r="50" stroke="#ECE8DE" stroke-width="0.520833" stroke-dasharray="3.12 3.12"/>
</g>
<g opacity="0.6" style="mix-blend-mode:difference">
<circle cx="971.875" cy="228.124" r="40.3646" stroke="#ECE8DE" stroke-width="0.520833" stroke-dasharray="3.12 3.12"/>
</g>
<rect width="400" height="400" transform="translate(800 400)" fill="#142438"/>
<path d="M986.667 493.33C1010.9 493.33 1030.55 512.978 1030.55 537.216V569.445L1062.78 569.445C1087.02 569.445 1106.67 589.093 1106.67 613.33C1078.02 613.33 1049.38 613.33 1020.74 613.33C1015.52 596.992 1002.82 583.997 986.667 578.375V493.33Z" fill="#FAFAFA"/>
<path fill-rule="evenodd" clip-rule="evenodd" d="M969.448 662.78C969.448 687.018 989.096 706.666 1013.33 706.666V630.552C1013.33 606.315 993.685 586.666 969.448 586.666L893.333 586.666C893.333 610.904 912.982 630.552 937.219 630.552H969.448V662.78Z" fill="#FAFAFA"/>
<path d="M1160 440V760H840V440H1160Z" stroke="white" stroke-width="0.833333"/>
<path d="M1160 706.667L840 706.667" stroke="white" stroke-width="0.833333"/>
<path d="M1160 493.333L840 493.333" stroke="white" stroke-width="0.833333"/>
<path d="M1106.67 440V760" stroke="white" stroke-width="0.833333"/>
<path d="M893.333 440V760" stroke="white" stroke-width="0.833333"/>
<path opacity="0.1" fill-rule="evenodd" clip-rule="evenodd" d="M893.333 440H840V493.333H893.333V440ZM893.333 706.667H840V760H893.333V706.667ZM1106.67 440H1160V493.333H1106.67V440ZM1160 706.667H1106.67V760H1160V706.667Z" fill="white"/>
</g>
</g>
<defs>
<clipPath id="clip0_4006_71856">
<rect width="1200" height="800" fill="white"/>
</clipPath>
<clipPath id="clip1_4006_71856">
<rect width="400" height="800" fill="white" transform="translate(800)"/>
</clipPath>
</defs>
</svg>
