<svg width="96" height="96" viewBox="0 0 96 96" fill="none" xmlns="http://www.w3.org/2000/svg">
<g clip-path="url(#clip0_4006_72042)">
<path d="M26.0749 27.0214C25.2708 28.9609 24.0926 30.7227 22.6077 32.2065L22.6901 32.2911C25.6888 29.2946 29.7543 27.6111 33.9931 27.6111C38.2324 27.6111 42.2986 29.2946 45.2972 32.2911L33.951 43.552C30.9529 46.5484 26.8868 48.2312 22.6474 48.2312C18.4081 48.2312 14.3431 46.5484 11.3445 43.552C8.34762 40.5535 6.66426 36.4875 6.66426 32.2484C6.66426 28.0093 8.34762 23.944 11.3463 20.9455L22.6077 9.60001C24.0926 11.0838 25.2708 12.8456 26.0749 14.7851C26.879 16.7246 27.2927 18.8034 27.2927 20.9029C27.2927 23.0024 26.879 25.0819 26.0749 27.0214Z" fill="currentColor"/>
<path d="M68.3897 43.5939C68.3897 39.3549 66.7064 35.2897 63.7101 32.2912L63.7937 32.2076C65.2774 33.6924 67.0389 34.8702 68.9779 35.674C70.9175 36.478 72.9965 36.8919 75.0961 36.8919C77.1956 36.8919 79.2747 36.478 81.2143 35.674C83.1538 34.87 84.916 33.6919 86.3996 32.2065L75.0546 20.9466C72.0571 17.949 67.9922 16.2656 63.7528 16.2656C59.5135 16.2656 55.4473 17.949 52.4493 20.9455C49.4524 23.944 47.7697 28.0093 47.7697 32.2484C47.7697 36.4874 49.4524 40.5534 52.4487 43.5518L63.7101 54.8975C66.7064 51.899 68.3897 47.833 68.3897 43.5939Z" fill="currentColor"/>
<path d="M18.0111 62.0057C18.0111 66.2448 19.6945 70.3101 22.6913 73.3086L22.6071 73.3931C21.1234 71.9078 19.3613 70.7296 17.4217 69.9256C15.4822 69.1216 13.4025 68.7077 11.303 68.7077C9.20343 68.7077 7.12494 69.1216 5.18539 69.9256C3.24583 70.7296 1.48369 71.9078 0 73.3931L11.3463 84.6541C14.3449 87.6506 18.4105 89.334 22.6492 89.334C26.8886 89.334 30.9547 87.6506 33.9534 84.6541C36.9496 81.6556 38.6324 77.5903 38.6324 73.3512C38.6324 69.1121 36.949 65.0462 33.9522 62.0476L22.6913 50.7021C19.6945 53.7006 18.0111 57.7666 18.0111 62.0057Z" fill="currentColor"/>
<path d="M52.4443 62.0481C55.443 59.0516 59.5091 57.3688 63.7479 57.3688C67.9872 57.3688 72.0528 59.0516 75.0515 62.0481C78.0477 65.0465 79.731 69.1126 79.731 73.3516C79.731 77.5907 78.0477 81.656 75.0515 84.6545L63.7888 96C62.3033 94.5162 61.1251 92.7544 60.321 90.8149C59.5169 88.8754 59.1032 86.7966 59.1032 84.6971C59.1032 82.5976 59.5169 80.5181 60.321 78.5786C61.1251 76.6391 62.3033 74.8773 63.7888 73.3935L63.7052 73.309C60.7065 76.3054 56.641 77.9889 52.4016 77.9889C48.1629 77.9889 44.0967 76.3054 41.0981 73.309L52.4443 62.0481Z" fill="#F3CB28"/>
</g>
<defs>
<clipPath id="clip0_4006_72042">
<rect width="96" height="96" fill="white"/>
</clipPath>
</defs>
</svg>
