<svg width="96" height="96" viewBox="0 0 96 96" fill="none" xmlns="http://www.w3.org/2000/svg">
<path d="M50.4886 18.1404L32.2294 49.7204C33.4162 50.4047 34.7266 50.8488 36.0854 51.0274C37.4442 51.206 38.8246 51.1156 40.1484 50.7613C41.4722 50.407 42.7134 49.7957 43.8006 48.9624C44.8877 48.1291 45.7993 47.0902 46.4842 45.9048L64.7434 14.3249C63.5565 13.6405 62.2468 13.1964 60.888 13.0178C59.5292 12.8392 58.1482 12.9296 56.8244 13.284C55.5006 13.6383 54.26 14.2495 53.1728 15.0828C52.0857 15.9161 51.1735 16.9551 50.4886 18.1404Z" fill="currentColor"/>
<path d="M35.2811 18.4008L17.0219 49.9808C18.2087 50.6651 19.5191 51.1095 20.8779 51.2881C22.2367 51.4667 23.6177 51.376 24.9415 51.0217C26.2653 50.6673 27.5059 50.0561 28.5931 49.2228C29.6802 48.3895 30.5924 47.3506 31.2773 46.1652L49.5365 14.5853C48.3497 13.9009 47.0393 13.4568 45.6805 13.2782C44.3217 13.0996 42.9407 13.19 41.6169 13.5443C40.2931 13.8987 39.0524 14.5099 37.9653 15.3432C36.8782 16.1765 35.966 17.2155 35.2811 18.4008Z" fill="currentColor"/>
<path d="M64.3791 79.9589H27.8607C25.0935 79.9589 22.4398 78.8614 20.4831 76.9077C18.5263 74.9539 17.4269 72.3038 17.4269 69.5408H53.9453C56.7125 69.5408 59.3663 70.6385 61.323 72.5923C63.2797 74.5461 64.3791 77.1958 64.3791 79.9589Z" fill="currentColor"/>
<path d="M20.0354 66.9362H56.5538C56.5538 64.1731 55.4544 61.5234 53.4976 59.5696C51.5409 57.6158 48.8872 56.518 46.12 56.518H9.60156C9.60156 59.2811 10.701 61.9312 12.6577 63.8849C14.6144 65.8387 17.2682 66.9362 20.0354 66.9362Z" fill="currentColor"/>
<path d="M66.7272 23.9875L84.9864 55.5674C86.3664 57.9596 86.7396 60.8011 86.0231 63.4675C85.3066 66.1339 83.5594 68.4073 81.1654 69.7884L62.9062 38.2215C62.2208 37.0364 61.7757 35.728 61.5969 34.3713C61.418 33.0145 61.5088 31.6359 61.8637 30.3141C62.2186 28.9923 62.8307 27.7532 63.6653 26.6677C64.4998 25.5822 65.54 24.6714 66.7272 23.9875Z" fill="currentColor"/>
<path d="M77.605 68.8378L59.3458 37.2578C58.1587 37.9417 57.1178 38.8522 56.2833 39.9377C55.4487 41.0232 54.8366 42.2623 54.4817 43.5841C54.1268 44.9059 54.0366 46.2845 54.2155 47.6413C54.3944 48.9981 54.8388 50.3064 55.5242 51.4915L73.7834 83.0715C74.9705 82.3876 76.0113 81.4768 76.8459 80.3913C77.6804 79.3058 78.2926 78.0667 78.6475 76.7449C79.0024 75.4231 79.0925 74.0444 78.9137 72.6877C78.7348 71.3309 78.2904 70.0229 77.605 68.8378Z" fill="currentColor"/>
<path d="M66.7493 23.8294L85.0085 55.4094C86.3885 57.8016 86.7617 60.6431 86.0452 63.3095C85.3287 65.9758 83.5815 68.2492 81.1875 69.6303L62.9283 38.0634C62.2429 36.8784 61.7978 35.57 61.619 34.2132C61.4401 32.8565 61.5309 31.4778 61.8858 30.156C62.2407 28.8342 62.8528 27.5951 63.6874 26.5096C64.5219 25.4241 65.5621 24.5133 66.7493 23.8294Z" fill="#0073CC"/>
<path d="M77.6271 68.6797L59.3679 37.0998C58.1808 37.7837 57.14 38.6942 56.3054 39.7797C55.4708 40.8652 54.8587 42.1043 54.5038 43.4261C54.1489 44.7479 54.0587 46.1265 54.2376 47.4833C54.4165 48.84 54.8609 50.1484 55.5463 51.3335L73.8055 82.9134C74.9926 82.2295 76.0335 81.3187 76.868 80.2332C77.7026 79.1477 78.3147 77.9086 78.6696 76.5868C79.0245 75.265 79.1147 73.8864 78.9358 72.5296C78.7569 71.1729 78.3125 69.8648 77.6271 68.6797Z" fill="#0073CC"/>
</svg>
