<svg width="96" height="96" viewBox="0 0 96 96" fill="none" xmlns="http://www.w3.org/2000/svg">
<path d="M48.561 72.1249C29.9697 72.1249 14.8984 56.9713 14.8984 38.2784V4.7998C33.4897 4.7998 48.561 19.9534 48.561 38.6463V72.1249Z" fill="currentColor"/>
<path d="M81.0986 37.3398C66.2255 37.3398 54.1686 49.6848 54.1686 64.9132V91.1998C69.0416 91.1998 81.0986 78.8548 81.0986 63.6264V37.3398Z" fill="currentColor"/>
<path d="M76.6102 16.0206C76.6102 22.2177 71.5865 27.2415 65.3894 27.2415C59.1923 27.2415 54.1686 22.2177 54.1686 16.0206C54.1686 9.82355 59.1923 4.7998 65.3894 4.7998C71.5865 4.7998 76.6102 9.82355 76.6102 16.0206Z" fill="#F3CB28"/>
</svg>
