<svg width="96" height="96" viewBox="0 0 96 96" fill="none" xmlns="http://www.w3.org/2000/svg">
<path d="M44.4645 54.9292C44.4645 39.7 31.801 27.3542 16.1797 27.3542L16.1797 57.7196C16.1797 72.9488 28.8432 85.2946 44.4645 85.2946V54.9292Z" fill="currentColor"/>
<path d="M51.5357 54.9292C51.5357 39.7 64.1993 27.3542 79.8206 27.3542V57.7196C79.8206 72.9488 67.157 85.2946 51.5357 85.2946L51.5357 54.9292Z" fill="currentColor"/>
<path d="M59.2302 22.1346C59.2302 28.4468 54.1366 33.5639 47.8534 33.5639C41.5701 33.5639 36.4766 28.4468 36.4766 22.1346C36.4766 15.8224 41.5701 10.7054 47.8534 10.7054C54.1366 10.7054 59.2302 15.8224 59.2302 22.1346Z" fill="#0073CC"/>
</svg>
