<svg width="96" height="96" viewBox="0 0 96 96" fill="none" xmlns="http://www.w3.org/2000/svg">
<path d="M72.9624 21.1186H43.8357C43.5824 21.1188 43.3319 21.0689 43.0979 20.9717C42.8639 20.8745 42.6512 20.7319 42.4726 20.5522L34.7926 12.8732C34.5251 12.6042 34.3435 12.2619 34.2704 11.8896C34.1973 11.5174 34.2361 11.1318 34.382 10.7817C34.5278 10.4315 34.7741 10.1324 35.0898 9.92209C35.4055 9.71176 35.7763 9.5998 36.1557 9.6001H65.2824C65.7908 9.60224 66.2773 9.80576 66.6357 10.1663L74.3157 17.8453C74.5826 18.1137 74.7644 18.4551 74.8379 18.8265C74.9113 19.1978 74.8733 19.5826 74.7286 19.9324C74.584 20.2821 74.3388 20.5813 74.0246 20.7924C73.7103 21.0034 73.341 21.117 72.9624 21.1186Z" fill="currentColor"/>
<path d="M48.7993 36.4766H77.9348C78.3134 36.475 78.6832 36.3615 78.9975 36.1504C79.3118 35.9394 79.5564 35.6402 79.7011 35.2904C79.8457 34.9406 79.8837 34.5558 79.8103 34.1845C79.7369 33.8132 79.5555 33.4717 79.2886 33.2033L71.6086 25.5243C71.2502 25.1638 70.7632 24.9603 70.2548 24.9581H41.1193C40.7407 24.9597 40.3709 25.073 40.0566 25.2841C39.7423 25.4951 39.4977 25.7943 39.353 26.1441C39.2084 26.4939 39.1699 26.8787 39.2433 27.25C39.3167 27.6213 39.4986 27.9628 39.7655 28.2312L47.4455 35.9102C47.8039 36.2707 48.2909 36.4745 48.7993 36.4766Z" fill="currentColor"/>
<path d="M74.8819 72.952V43.8197C74.884 43.3114 75.0876 42.8247 75.4482 42.4664L83.1282 34.7873C83.3966 34.5205 83.7379 34.3389 84.1092 34.2655C84.4806 34.1921 84.8656 34.23 85.2155 34.3747C85.5653 34.5193 85.8646 34.7642 86.0756 35.0784C86.2867 35.3926 86.4003 35.7622 86.4019 36.1407V65.273C86.4023 65.78 86.2021 66.2664 85.845 66.6263L78.165 74.3053C77.8971 74.5755 77.5546 74.7599 77.1816 74.8352C76.8086 74.9105 76.4215 74.8734 76.0697 74.7283C75.7179 74.5833 75.4174 74.3369 75.2058 74.0206C74.9943 73.7043 74.8816 73.3325 74.8819 72.952Z" fill="currentColor"/>
<path d="M59.5217 77.9146V48.7919C59.5239 48.2835 59.7274 47.7969 60.088 47.4385L67.768 39.7595C68.0364 39.4926 68.3777 39.311 68.749 39.2376C69.1204 39.1642 69.5054 39.2022 69.8553 39.3468C70.2051 39.4915 70.5044 39.7363 70.7154 40.0506C70.9265 40.3648 71.0401 40.7343 71.0417 41.1128V70.2356C71.0432 70.4882 70.9947 70.7387 70.8992 70.9726C70.8036 71.2065 70.6628 71.4191 70.4848 71.5985L62.8048 79.2775C62.5363 79.5482 62.193 79.7331 61.8191 79.8081C61.4451 79.8831 61.0575 79.8448 60.7053 79.6986C60.3531 79.5524 60.0522 79.3047 59.8414 78.9869C59.6306 78.6692 59.5195 78.2959 59.5217 77.9146Z" fill="currentColor"/>
<path d="M36.4818 47.1984V18.0757C36.4802 17.6972 36.3666 17.3276 36.1555 17.0134C35.9444 16.6992 35.6452 16.4543 35.2954 16.3097C34.9455 16.165 34.5605 16.127 34.1891 16.2005C33.8177 16.2739 33.4765 16.4555 33.208 16.7223L25.528 24.4013C25.3483 24.5799 25.2057 24.7924 25.1085 25.0263C25.0113 25.2603 24.9616 25.511 24.9618 25.7643V54.887C24.9596 55.2683 25.0706 55.6416 25.2815 55.9594C25.4923 56.2771 25.7932 56.5248 26.1454 56.6711C26.4976 56.8173 26.8852 56.8555 27.2591 56.7805C27.633 56.7055 27.9763 56.5207 28.2449 56.2499L35.9249 48.5709C36.104 48.3904 36.2456 48.1762 36.3411 47.9406C36.4367 47.7049 36.4845 47.4526 36.4818 47.1984Z" fill="currentColor"/>
<path d="M21.1219 23.0383V52.1704C21.1223 52.6774 20.9221 53.1641 20.565 53.524L12.885 61.203C12.617 61.4731 12.2746 61.6575 11.9016 61.7328C11.5286 61.8082 11.1415 61.7708 10.7897 61.6258C10.4379 61.4807 10.1373 61.2345 9.9258 60.9183C9.71425 60.602 9.60159 60.2299 9.60189 59.8494V30.7173C9.60404 30.209 9.80758 29.7221 10.1681 29.3638L17.8481 21.6848C18.1166 21.4179 18.4578 21.2365 18.8292 21.1631C19.2006 21.0897 19.5856 21.1277 19.9355 21.2723C20.2853 21.417 20.5846 21.6616 20.7956 21.9758C21.0067 22.29 21.1203 22.6598 21.1219 23.0383Z" fill="currentColor"/>
<path d="M47.2143 59.5139H18.0787C17.7002 59.5155 17.3303 59.6289 17.0161 59.8399C16.7018 60.051 16.4571 60.3502 16.3125 60.6999C16.1678 61.0497 16.1294 61.4345 16.2028 61.8058C16.2762 62.1772 16.4581 62.5186 16.725 62.787L24.405 70.466C24.7634 70.8265 25.2503 71.0303 25.7587 71.0324H54.8943C55.2729 71.0308 55.6427 70.9173 55.957 70.7062C56.2712 70.4952 56.5159 70.196 56.6605 69.8462C56.8052 69.4964 56.8432 69.1116 56.7698 68.7403C56.6963 68.369 56.5149 68.0276 56.248 67.7591L48.5681 60.0801C48.2096 59.7196 47.7227 59.5161 47.2143 59.5139Z" fill="currentColor"/>
<path d="M23.0512 74.872H52.1774C52.4315 74.873 52.6831 74.9245 52.9171 75.0234C53.1511 75.1222 53.3632 75.2664 53.541 75.4478L61.221 83.1268C61.4885 83.3958 61.6701 83.7381 61.7432 84.1103C61.8163 84.4825 61.7775 84.8681 61.6316 85.2183C61.4858 85.5685 61.2396 85.8676 60.9238 86.0779C60.6081 86.2882 60.2368 86.4004 59.8574 86.4001H30.7312C30.4779 86.4003 30.2269 86.3504 29.9929 86.2532C29.759 86.156 29.5467 86.0133 29.3681 85.8337L21.6881 78.1547C21.4173 77.8862 21.2325 77.5431 21.1575 77.1693C21.0825 76.7954 21.1205 76.4076 21.2667 76.0554C21.4129 75.7033 21.6609 75.4027 21.9787 75.1919C22.2965 74.9811 22.6699 74.8698 23.0512 74.872Z" fill="currentColor"/>
<path d="M24.9618 54.9604V25.8281C24.9639 25.3198 25.1675 24.8332 25.528 24.4748L33.208 16.7958C33.4765 16.5289 33.8177 16.3473 34.1891 16.2739C34.5605 16.2005 34.9455 16.2385 35.2954 16.3831C35.6452 16.5277 35.9445 16.7726 36.1555 17.0868C36.3666 17.4011 36.4802 17.7706 36.4818 18.1491V47.2814C36.4822 47.7884 36.282 48.2748 35.9249 48.6348L28.2449 56.3138C27.9769 56.5839 27.6345 56.7683 27.2615 56.8436C26.8885 56.9189 26.5014 56.8818 26.1496 56.7368C25.7978 56.5917 25.4973 56.3453 25.2857 56.0291C25.0741 55.7128 24.9615 55.3409 24.9618 54.9604Z" fill="#F3CB28"/>
<path d="M9.6016 59.923V30.8003C9.60374 30.292 9.80728 29.8053 10.1678 29.447L17.8478 21.7679C18.1163 21.5011 18.4575 21.3195 18.8289 21.2461C19.2003 21.1727 19.5853 21.2106 19.9352 21.3553C20.285 21.4999 20.5843 21.7448 20.7953 22.059C21.0064 22.3732 21.12 22.7428 21.1216 23.1213V52.244C21.123 52.4966 21.0746 52.7471 20.9791 52.981C20.8835 53.2149 20.7427 53.4276 20.5647 53.6069L12.8847 61.2859C12.6162 61.5567 12.2729 61.7415 11.8989 61.8165C11.525 61.8915 11.1374 61.8533 10.7852 61.7071C10.433 61.5608 10.1321 61.3131 9.92128 60.9954C9.71046 60.6776 9.59938 60.3043 9.6016 59.923Z" fill="#F3CB28"/>
</svg>
