<svg width="96" height="96" viewBox="0 0 96 96" fill="none" xmlns="http://www.w3.org/2000/svg">
<path d="M32.4007 48C29.077 46.0653 26.1979 43.2621 24.1379 39.6907L11.9375 18.5389C22.8505 12.2323 36.8024 15.9707 43.1 26.8889L55.2302 47.9188C55.2536 47.9323 55.2771 47.9457 55.3005 47.9593L55.277 48L55.3005 48.0407C55.2771 48.0542 55.2536 48.0677 55.2302 48.0811L43.1 69.1111C36.8024 80.0292 22.8505 83.7676 11.9375 77.461L24.1379 56.3092C26.1979 52.7378 29.077 49.9346 32.4007 48Z" fill="currentColor"/>
<path d="M63.6016 47.9988C66.9245 46.0642 69.8028 43.2614 71.8624 39.6907L84.0628 18.5389C73.1499 12.2323 59.1979 15.9707 52.9003 26.8889L40.7722 47.9153C40.748 47.9291 40.7239 47.943 40.6999 47.9569L40.724 47.9988L40.6999 48.0407C40.7239 48.0546 40.748 48.0685 40.7722 48.0823L52.9003 69.1087C59.1979 80.0269 73.1499 83.7653 84.0628 77.4587L71.8624 56.3069C69.8028 52.7362 66.9245 49.9334 63.6016 47.9988Z" fill="#F15845"/>
</svg>
