<svg width="96" height="96" viewBox="0 0 96 96" fill="none" xmlns="http://www.w3.org/2000/svg">
<path d="M23.9055 31.3637C32.2075 39.6656 45.6676 39.6657 53.9695 31.3637L72.4329 12.9003C64.131 4.59834 50.6709 4.59834 42.3689 12.9003L23.9055 31.3637Z" fill="currentColor"/>
<path d="M64.6359 23.9062C56.334 32.2081 56.334 45.6682 64.6359 53.9702L83.0993 72.4336C91.4013 64.1317 91.4013 50.6716 83.0993 42.3696L64.6359 23.9062Z" fill="currentColor"/>
<path d="M31.3657 42.0299C39.6676 50.3318 39.6676 63.7919 31.3657 72.0939L12.9022 53.6304C4.6003 45.3285 4.6003 31.8684 12.9022 23.5665L31.3657 42.0299Z" fill="currentColor"/>
<path d="M72.0943 64.6364C63.7924 56.3344 50.3323 56.3344 42.0303 64.6364L23.5669 83.0998C31.8688 91.4017 45.3289 91.4017 53.6309 83.0998L72.0943 64.6364Z" fill="currentColor"/>
<path d="M42.0344 64.6363C50.3364 56.3344 63.7965 56.3344 72.0984 64.6363L53.635 83.0997C45.333 91.4017 31.8729 91.4017 23.571 83.0997L42.0344 64.6363Z" fill="#F28813"/>
</svg>
