<svg width="96" height="96" viewBox="0 0 96 96" fill="none" xmlns="http://www.w3.org/2000/svg">
<path d="M90.4719 49.2611C90.7206 49.2611 90.8714 49.5355 90.7382 49.7455L70.5134 81.61C69.5877 83.0684 67.9804 83.952 66.2531 83.952L29.7417 83.952C28.0144 83.952 26.4071 83.0684 25.4814 81.61L5.25665 49.7455C5.12338 49.5355 5.27422 49.2611 5.52292 49.2611H20.685C23.8834 49.2611 26.8595 50.8971 28.5734 53.5974L46.2384 81.4291H49.7564L67.4214 53.5974C69.1353 50.8971 72.1114 49.2611 75.3098 49.2611H90.4719Z" fill="currentColor"/>
<path d="M90.7381 46.2539C90.8714 46.4638 90.7206 46.7382 90.4719 46.7382H75.3098C72.1114 46.7382 69.1353 45.1022 67.4214 42.4019L49.7564 14.5703H46.2384L28.5734 42.4019C26.8595 45.1022 23.8834 46.7382 20.685 46.7382H5.52292C5.27422 46.7382 5.12338 46.4638 5.25665 46.2539L25.4814 14.3893C26.4071 12.9309 28.0144 12.0474 29.7417 12.0474L66.2531 12.0474C67.9804 12.0474 69.5877 12.9309 70.5134 14.3893L90.7381 46.2539Z" fill="currentColor"/>
<path d="M90.4766 49.2616C90.7253 49.2616 90.8761 49.536 90.7428 49.7459L70.518 81.6105C69.5924 83.0689 67.9851 83.9524 66.2578 83.9524H50.4545C49.4598 83.9524 48.8564 82.8548 49.3895 82.0149L67.4261 53.5979C69.14 50.8976 72.1161 49.2616 75.3145 49.2616H90.4766Z" fill="#0073CC"/>
</svg>
