<svg width="96" height="96" viewBox="0 0 96 96" fill="none" xmlns="http://www.w3.org/2000/svg">
<path d="M10.5586 9.6001C22.3287 9.6001 31.8703 19.2382 31.8703 31.1273V75.3454C20.1002 75.3454 10.5586 65.7073 10.5586 53.8181V9.6001Z" fill="currentColor"/>
<path d="M37.6289 20.6547C49.0809 20.6547 58.3646 30.0323 58.3646 41.6001V86.3999C46.9126 86.3999 37.6289 77.0224 37.6289 65.4545V20.6547Z" fill="currentColor"/>
<path d="M64.1269 86.4001C69.7791 86.4001 75.1998 84.1014 79.1965 80.0097C83.1933 75.918 85.4386 70.3685 85.4386 64.582C85.4386 58.7955 83.1933 53.2459 79.1965 49.1542C75.1998 45.0626 69.7791 42.7639 64.1269 42.7639V86.4001Z" fill="#F28813"/>
</svg>
