<svg width="96" height="96" viewBox="0 0 96 96" fill="none" xmlns="http://www.w3.org/2000/svg">
<path d="M36.3846 13.5112C30.7178 13.5112 25.2831 15.7624 21.276 19.7694C17.269 23.7764 15.0179 29.2112 15.0179 34.878C15.0179 40.5448 17.269 45.9795 21.276 49.9865C25.2831 53.9936 30.7178 56.2447 36.3846 56.2447L36.3846 13.5112Z" fill="currentColor"/>
<path d="M38.2491 13.5112L58.6869 13.5112C71.0005 13.5112 80.9826 23.4934 80.9826 35.807H60.5448C48.2312 35.807 38.2491 25.8248 38.2491 13.5112Z" fill="currentColor"/>
<path d="M59.6136 82.489C65.2804 82.489 70.7151 80.2378 74.7222 76.2308C78.7292 72.2238 80.9804 66.789 80.9804 61.1222C80.9804 55.4554 78.7292 50.0207 74.7222 46.0137C70.7151 42.0066 65.2804 39.7555 59.6136 39.7555L59.6136 82.489Z" fill="#26B6FF"/>
<path d="M57.7491 82.489H37.3113C24.9978 82.489 15.0156 72.5068 15.0156 60.1932H35.4534C47.767 60.1932 57.7491 70.1754 57.7491 82.489Z" fill="currentColor"/>
</svg>
