<svg width="96" height="96" viewBox="0 0 96 96" fill="none" xmlns="http://www.w3.org/2000/svg">
<path d="M13.139 46.0783C6.83243 35.1653 10.5709 21.2134 21.489 14.9158L42.6408 2.71533C48.9473 13.6283 45.2089 27.5803 34.2908 33.8779L13.139 46.0783Z" fill="currentColor"/>
<path d="M82.8585 46.0783C89.165 35.1653 85.4266 21.2134 74.5085 14.9158L53.3567 2.71533C47.0501 13.6283 50.7886 27.5803 61.7067 33.8779L82.8585 46.0783Z" fill="currentColor"/>
<path d="M21.489 81.0843C10.5709 74.7867 6.83243 60.8347 13.139 49.9217L34.2908 62.1222C45.2089 68.4198 48.9473 82.3717 42.6408 93.2847L21.489 81.0843Z" fill="currentColor"/>
<path d="M82.8585 49.9217C89.165 60.8347 85.4266 74.7867 74.5085 81.0843L53.3567 93.2847C47.0501 82.3717 50.7886 68.4198 61.7067 62.1222L82.8585 49.9217Z" fill="currentColor"/>
<path d="M21.489 14.9158C10.5709 21.2134 6.83243 35.1653 13.139 46.0783L34.2908 33.8779C45.2089 27.5803 48.9473 13.6283 42.6408 2.71533L21.489 14.9158Z" fill="#F28813"/>
</svg>
