<svg width="96" height="96" viewBox="0 0 96 96" fill="none" xmlns="http://www.w3.org/2000/svg">
<g clip-path="url(#clip0_4006_72044)">
<path d="M96 58.2857C85.5896 68.6955 68.946 68.9309 58.8236 58.8122C52.8472 52.8309 52.9916 43.008 59.1422 36.8578C63.4014 32.5989 70.1989 32.4916 74.3398 36.6322L96 58.2857Z" fill="currentColor"/>
<path d="M37.1878 58.8236C27.0691 68.946 27.3045 85.5896 37.7143 96L59.3678 74.3398C63.5084 70.1989 63.4011 63.4014 59.1422 59.1422C52.992 52.9916 43.1691 52.8472 37.1878 58.8236Z" fill="currentColor"/>
<path d="M58.8122 37.1764C68.9309 27.054 68.6955 10.4104 58.2857 0L36.6322 21.6602C32.4916 25.8011 32.5989 32.5986 36.8578 36.8578C43.008 43.0084 52.8309 43.1528 58.8122 37.1764Z" fill="currentColor"/>
<path d="M37.1764 37.1878C27.054 27.0691 10.4104 27.3045 0 37.7143L21.6602 59.3678C25.8011 63.5084 32.5986 63.4011 36.8578 59.1422C43.0084 52.992 43.1528 43.1691 37.1764 37.1878Z" fill="#26B6FF"/>
</g>
<defs>
<clipPath id="clip0_4006_72044">
<rect width="96" height="96" fill="white"/>
</clipPath>
</defs>
</svg>
