<svg width="96" height="96" viewBox="0 0 96 96" fill="none" xmlns="http://www.w3.org/2000/svg">
<rect x="86.7915" y="69.6655" width="7.5" height="7.5" rx="3.75" fill="currentColor"/>
<path fill-rule="evenodd" clip-rule="evenodd" d="M44.7524 61.1452L58.333 74.8965C60.0853 76.6707 62.4755 77.6695 64.9696 77.6695H82.2066C83.4162 77.6695 84.1241 76.3068 83.4286 75.3171L80.1798 70.6938L65.1244 54.6047C64.5871 54.0305 64.5871 53.1379 65.1244 52.5636L80.1843 36.4698L83.4286 31.8528C84.1241 30.8632 83.4162 29.5005 82.2066 29.5005H64.9696C62.4755 29.5005 60.0853 30.4992 58.333 32.2735L55.8099 34.8283L58.975 38.0413C61.3412 40.4432 61.3412 44.3059 58.975 46.7078L44.7524 61.1452Z" fill="currentColor"/>
<path fill-rule="evenodd" clip-rule="evenodd" d="M12.6604 21.7128C12.8146 21.8541 12.9642 22.0021 13.1087 22.1565L30.2409 40.465C30.7783 41.0393 30.7783 41.9318 30.2409 42.5061L17.806 55.7948L11.9367 64.1472C11.2412 65.1369 11.9491 66.4995 13.1587 66.4995H30.3958C32.8899 66.4995 35.2801 65.5008 37.0323 63.7265L57.0427 43.4646C57.6173 42.8828 57.6173 41.9473 57.0427 41.3655L37.0323 21.1036C35.2801 19.3293 32.8899 18.3306 30.3958 18.3306H13.1587C11.9491 18.3306 11.2412 19.6932 11.9367 20.6829L12.6604 21.7128Z" fill="currentColor"/>
</svg>
