<svg width="96" height="96" viewBox="0 0 96 96" fill="none" xmlns="http://www.w3.org/2000/svg">
<path fill-rule="evenodd" clip-rule="evenodd" d="M9.28155 45.7407C8.4667 47.1521 8.4667 48.891 9.28155 50.3023L26.6865 80.4485C27.5013 81.8599 29.0072 82.7293 30.6369 82.7293H65.4468C67.0765 82.7293 68.5824 81.8599 69.3972 80.4485L86.8021 50.3023C87.617 48.891 87.617 47.1521 86.8021 45.7407L69.3972 15.5945C68.5824 14.1832 67.0765 13.3137 65.4467 13.3137L30.6369 13.3137C29.0072 13.3137 27.5013 14.1832 26.6865 15.5945L9.28155 45.7407ZM26.9075 47.269C26.6396 47.7331 26.6396 48.3049 26.9075 48.769L36.825 65.9465C37.0929 66.4106 37.5881 66.6965 38.124 66.6965H57.9589C58.4948 66.6965 58.99 66.4106 59.2579 65.9465L69.1754 48.769C69.4434 48.3049 69.4434 47.7331 69.1754 47.269L59.2579 30.0915C58.99 29.6274 58.4948 29.3415 57.9589 29.3415L38.124 29.3415C37.5881 29.3415 37.0929 29.6274 36.825 30.0915L26.9075 47.269Z" fill="currentColor"/>
<path fill-rule="evenodd" clip-rule="evenodd" d="M9.28155 50.3043C8.4667 48.8929 8.4667 47.154 9.28155 45.7427L26.6865 15.5965C27.5013 14.1851 29.0072 13.3157 30.6369 13.3157L65.4467 13.3157C67.0765 13.3157 68.5824 14.1851 69.3972 15.5965L77.334 29.3434L58.8263 29.3434L58.71 29.5449C58.4859 29.4157 58.2285 29.3444 57.9609 29.3444L38.126 29.3444C37.5901 29.3444 37.0949 29.6303 36.8269 30.0944L26.9095 47.2719C26.6415 47.736 26.6415 48.3078 26.9095 48.7719L36.8269 65.9495C37.0949 66.4136 37.5901 66.6995 38.126 66.6995H57.9609C58.2288 66.6995 58.4866 66.628 58.7109 66.4985L58.8263 66.6985H77.3369L69.3972 80.4505C68.5824 81.8618 67.0765 82.7313 65.4467 82.7313H30.6369C29.0072 82.7313 27.5013 81.8618 26.6865 80.4505L9.28155 50.3043Z" fill="currentColor"/>
</svg>
