<svg width="96" height="96" viewBox="0 0 96 96" fill="none" xmlns="http://www.w3.org/2000/svg">
<path fill-rule="evenodd" clip-rule="evenodd" d="M40.2372 17.815C39.7746 17.5492 39.2055 17.5492 38.7429 17.815L13.8759 32.1003C13.4102 32.3678 13.123 32.8639 13.123 33.401V61.9586C13.123 62.4956 13.4102 62.9917 13.8759 63.2592L38.7429 77.5445C39.2055 77.8103 39.7746 77.8103 40.2372 77.5445L47.9406 73.1192L56.1335 77.8258C56.5962 78.0916 57.1652 78.0916 57.6279 77.8258L82.4949 63.5405C82.9605 63.273 83.2477 62.7769 83.2477 62.2398V33.6822C83.2477 33.1452 82.9605 32.6491 82.4949 32.3816L57.6279 18.0963C57.1652 17.8305 56.5962 17.8305 56.1335 18.0963L48.4301 22.5216L40.2372 17.815ZM48.4301 22.5216L31.2665 32.3816C30.8008 32.6491 30.5137 33.1451 30.5137 33.6822V62.2398C30.5137 62.7769 30.8008 63.273 31.2665 63.5405L47.9406 73.1192L65.1042 63.2592C65.5699 62.9917 65.857 62.4956 65.857 61.9586V33.401C65.857 32.8639 65.5699 32.3678 65.1042 32.1003L48.4301 22.5216Z" fill="currentColor"/>
<path fill-rule="evenodd" clip-rule="evenodd" d="M48.3589 29.8363L59.9951 36.5209C60.4608 36.7885 60.7479 37.2845 60.7479 37.8216V57.6209C60.7479 58.158 60.4608 58.6541 59.9951 58.9216L48.0121 65.8055L36.3759 59.1208C35.9102 58.8533 35.623 58.3572 35.623 57.8202V38.0208C35.623 37.4838 35.9102 36.9877 36.3759 36.7202L48.3589 29.8363Z" fill="currentColor"/>
</svg>
