<svg width="96" height="96" viewBox="0 0 96 96" fill="none" xmlns="http://www.w3.org/2000/svg">
<path d="M36.3887 13.4177C30.7219 13.4177 25.2872 15.6689 21.2802 19.6759C17.2731 23.6829 15.022 29.1177 15.022 34.7845C15.022 40.4513 17.2731 45.886 21.2801 49.8931C25.2872 53.9001 30.7219 56.1512 36.3887 56.1512L36.3887 13.4177Z" fill="currentColor"/>
<path d="M38.2456 13.4177L66.1153 13.4177C74.3244 13.4177 80.9791 20.0725 80.9791 28.2815L80.9791 35.7135L53.1094 35.7135C44.9004 35.7135 38.2456 29.0587 38.2456 20.8496L38.2456 13.4177Z" fill="currentColor"/>
<path d="M59.6142 82.3943C65.281 82.3943 70.7157 80.1432 74.7228 76.1361C78.7298 72.1291 80.981 66.6943 80.981 61.0275C80.981 55.3607 78.7298 49.926 74.7228 45.919C70.7157 41.9119 65.281 39.6608 59.6142 39.6608L59.6142 82.3943Z" fill="currentColor"/>
<path d="M57.7544 82.3943L29.8847 82.3943C21.6756 82.3943 15.0209 75.7395 15.0209 67.5305L15.0209 60.0985L42.8906 60.0985C51.0996 60.0985 57.7544 66.7533 57.7544 74.9624L57.7544 82.3943Z" fill="currentColor"/>
</svg>
