<svg width="96" height="96" viewBox="0 0 96 96" fill="none" xmlns="http://www.w3.org/2000/svg">
<path fill-rule="evenodd" clip-rule="evenodd" d="M51.4961 72.752C52.7387 72.752 53.7461 71.7446 53.7461 70.502C53.7461 64.3352 52.0132 58.5733 49.0078 53.6765C54.4559 48.0933 62.0634 44.627 70.4805 44.627L70.4805 81.0816C70.4805 83.73 68.3335 85.877 65.6851 85.877H40.4805V74.627C40.4805 73.9972 40.4999 73.372 40.5381 72.752L51.4961 72.752Z" fill="currentColor"/>
<path fill-rule="evenodd" clip-rule="evenodd" d="M25.5205 14.9233V51.3779C33.9443 51.3779 41.5573 47.906 47.0063 42.315C44.0504 37.4499 42.3482 31.7388 42.3482 25.6301C42.3482 24.3696 43.3701 23.3474 44.631 23.3474L55.4569 23.3474C55.4991 22.6963 55.5205 22.0396 55.5205 21.3779V10.1279H30.3159C27.6675 10.1279 25.5205 12.2749 25.5205 14.9233ZM81.1529 25.4502H44.6982C44.6982 33.9009 48.1924 41.5355 53.8147 46.9881C58.6733 44.0434 64.3734 42.3482 70.4695 42.3482C71.73 42.3482 72.7522 43.3701 72.7522 44.631V55.3881C73.3956 55.4293 74.0445 55.4502 74.6982 55.4502H85.9482V30.2455C85.9482 27.5971 83.8013 25.4502 81.1529 25.4502ZM25.5967 53.7471C24.354 53.7471 23.3467 52.7397 23.3467 51.4971L23.3467 40.4793C22.6728 40.4341 21.9929 40.4111 21.3076 40.4111H10.0576V65.6158C10.0576 68.2642 12.2046 70.4111 14.853 70.4111H51.3076C51.3076 62.0481 47.8856 54.4842 42.3653 49.0436C37.4808 52.0275 31.7395 53.7471 25.5967 53.7471Z" fill="currentColor"/>
</svg>
