<svg width="96" height="96" viewBox="0 0 96 96" fill="none" xmlns="http://www.w3.org/2000/svg">
<path fill-rule="evenodd" clip-rule="evenodd" d="M28.1533 39.6807C23.8766 47.0881 26.4146 56.56 33.8221 60.8367L49.2185 34.1693C53.4953 26.7618 50.9573 17.2899 43.5498 13.0132L28.1533 39.6807ZM48.8332 43.5906C56.2407 39.3139 65.7126 41.8519 69.9893 49.2594L85.3857 75.9269C77.9783 80.2036 68.5064 77.6656 64.2297 70.2581L48.8332 43.5906ZM56.2612 65.2151C56.2612 73.7685 49.3273 80.7025 40.7739 80.7025H9.98096C9.98096 72.149 16.9149 65.2151 25.4683 65.2151H56.2612Z" fill="currentColor"/>
<path d="M48.8351 43.5925C56.2426 39.3158 65.7145 41.8538 69.9912 49.2613L85.3877 75.9288V75.9288C77.9802 80.2055 68.5083 77.6675 64.2316 70.26L48.8351 43.5925V43.5925Z" fill="currentColor"/>
</svg>
