<svg width="96" height="96" viewBox="0 0 96 96" fill="none" xmlns="http://www.w3.org/2000/svg">
<path d="M70.0324 40.0977C78.0716 32.0052 78.0716 18.8848 70.0324 10.7924L25.5298 55.59C17.4907 63.6824 17.4907 76.8029 25.5298 84.8953L70.0324 40.0977Z" fill="currentColor"/>
<path fill-rule="evenodd" clip-rule="evenodd" d="M50.8128 65.6498L70.3472 85.1842C70.3768 85.2138 70.4247 85.2138 70.4543 85.1842C78.5172 77.1214 78.5172 64.0489 70.4543 55.986L65.5123 51.044L50.8128 65.6498ZM45.1118 30.6435L25.6567 11.1884C25.6271 11.1588 25.5792 11.1588 25.5496 11.1884C17.4868 19.2512 17.4867 32.3237 25.5496 40.3866L30.4124 45.2494L45.1118 30.6435Z" fill="currentColor"/>
<path fill-rule="evenodd" clip-rule="evenodd" d="M70.3472 85.1842L50.5049 65.3419L65.2017 50.7334L70.4543 55.986C78.5172 64.0489 78.5172 77.1214 70.4543 85.1842C70.4247 85.2138 70.3768 85.2138 70.3472 85.1842Z" fill="currentColor"/>
</svg>
