<svg width="96" height="96" viewBox="0 0 96 96" fill="none" xmlns="http://www.w3.org/2000/svg">
<path d="M17.8135 17.0605V17.0605C27.4088 17.0605 35.1874 24.8391 35.1874 34.4345V70.1214V70.1214C25.592 70.1214 17.8135 62.3428 17.8135 52.7475V17.0605Z" fill="currentColor"/>
<path d="M39.8828 25.9844V25.9844C49.2188 25.9844 56.7872 33.5527 56.7872 42.8887V79.0452V79.0452C47.4511 79.0452 39.8828 71.4769 39.8828 62.1409V25.9844Z" fill="currentColor"/>
<path d="M61.4825 79.0436C66.0904 79.0436 70.5095 77.1884 73.7677 73.8861C77.026 70.5838 78.8564 66.105 78.8564 61.4349C78.8564 56.7648 77.026 52.2859 73.7677 48.9836C70.5095 45.6814 66.0904 43.8262 61.4825 43.8262V79.0436Z" fill="currentColor"/>
</svg>
