<svg width="96" height="96" viewBox="0 0 96 96" fill="none" xmlns="http://www.w3.org/2000/svg">
<path fill-rule="evenodd" clip-rule="evenodd" d="M25.5308 39.4778V50.1462C34.2867 50.1462 42.0951 46.0891 47.1786 39.7522C44.6156 35.1125 43.1568 29.7776 43.1568 24.1019C43.1568 23.3662 43.7533 22.7696 44.4892 22.7696L53.2662 22.7696C53.2677 22.6494 53.2685 22.529 53.2685 22.4085V11.7401C37.9494 11.7401 25.5308 24.1587 25.5308 39.4778Z" fill="currentColor"/>
<path fill-rule="evenodd" clip-rule="evenodd" d="M73.0292 52.5241H83.6976C83.6976 37.205 71.279 24.7864 55.9598 24.7864H45.2915C45.2915 33.5947 49.3972 41.444 55.7993 46.5251C60.4235 43.9847 65.7348 42.5397 71.3834 42.5397C72.1192 42.5397 72.7158 43.1362 72.7158 43.872V52.5224C72.8201 52.5235 72.9246 52.5241 73.0292 52.5241Z" fill="currentColor"/>
<path fill-rule="evenodd" clip-rule="evenodd" d="M23.3834 50.9632C23.3834 51.699 23.9799 52.2955 24.7157 52.2955C30.4407 52.2955 35.8191 50.8112 40.487 48.2065C46.6088 53.2979 50.5006 60.9879 50.5006 69.5788L39.854 69.5788C24.5568 69.5788 11.9136 57.1429 11.9136 41.8457L22.8639 41.8411C23.0375 41.8411 23.2106 41.8427 23.3834 41.8459L23.3834 50.9632Z" fill="currentColor"/>
<path fill-rule="evenodd" clip-rule="evenodd" d="M70.5288 55.6993V45.0309C61.8518 45.0309 54.1054 49.0152 49.0192 55.254C51.5237 59.8534 52.9467 65.1267 52.9467 70.7324C52.9467 71.4682 52.3502 72.0647 51.6144 72.0647L42.7998 72.0647C42.794 72.2987 42.7911 72.5333 42.7911 72.7687V83.437C58.1102 83.437 70.5288 71.0184 70.5288 55.6993Z" fill="currentColor"/>
</svg>
