<svg width="96" height="96" viewBox="0 0 96 96" fill="none" xmlns="http://www.w3.org/2000/svg">
<path fill-rule="evenodd" clip-rule="evenodd" d="M43.8232 13.5H46.6984C52.9877 13.5 58.0861 18.5984 58.0861 24.8877V38.2383L71.4356 38.2383C77.7248 38.2383 82.8232 43.3367 82.8232 49.626V52.5011L55.2109 52.5011C55.1557 52.5011 55.1006 52.5007 55.0456 52.4999H54.8929C53.196 47.1915 49.0716 42.9687 43.8232 41.1406V41.1134V38.2383V13.5Z" fill="currentColor"/>
<path fill-rule="evenodd" clip-rule="evenodd" d="M38.2352 68.2371C38.2352 76.1143 44.6209 82.5 52.498 82.5V57.763C52.498 57.7629 52.498 57.7629 52.498 57.7629C52.498 56.7763 52.3979 55.8131 52.2072 54.883C50.8751 48.3863 45.1258 43.5 38.2352 43.5V43.5001L13.498 43.5001C13.498 51.3773 19.8837 57.763 27.7609 57.763L38.2352 57.763V68.2371Z" fill="currentColor"/>
</svg>
