<svg width="96" height="96" viewBox="0 0 96 96" fill="none" xmlns="http://www.w3.org/2000/svg">
<path fill-rule="evenodd" clip-rule="evenodd" d="M80.9551 57.5332L80.9551 19.0537L34.1383 19.0537C23.5125 19.0537 14.8986 27.6677 14.8986 38.2935L14.8986 76.773L61.7153 76.773C72.3411 76.773 80.9551 68.159 80.9551 57.5332ZM52.0932 38.293L75.8223 38.293C75.8223 38.293 67.1644 57.5327 43.756 57.5327L20.027 57.5327C20.027 57.5327 28.6849 38.293 52.0932 38.293Z" fill="currentColor"/>
<path fill-rule="evenodd" clip-rule="evenodd" d="M80.9551 57.5332L80.9551 19.0537L79.0332 19.0537C78.317 27.7491 73.4338 57.3938 40.1383 57.3938L14.8986 57.3938L14.8986 76.773L61.7153 76.773C72.3411 76.773 80.9551 68.159 80.9551 57.5332ZM14.8986 41.9368C19.2355 33.3289 26.1083 23.4787 36.1152 19.0537L34.1383 19.0537C23.5125 19.0537 14.8986 27.6677 14.8986 38.2935L14.8986 41.9368Z" fill="currentColor"/>
</svg>
