<svg width="96" height="96" viewBox="0 0 96 96" fill="none" xmlns="http://www.w3.org/2000/svg">
<path fill-rule="evenodd" clip-rule="evenodd" d="M27.6354 34.4255C34.5537 41.3438 45.7705 41.3438 52.6888 34.4255L68.075 19.0393C61.1567 12.121 49.9399 12.121 43.0216 19.0393L27.6354 34.4255ZM61.5774 28.2087C54.6592 35.127 54.6592 46.3437 61.5774 53.262L76.9636 68.6482C83.8819 61.7299 83.8819 50.5132 76.9636 43.5949L61.5774 28.2087ZM33.8522 43.3142C40.7705 50.2324 40.7705 61.4492 33.8522 68.3675L18.466 52.9813C11.5478 46.063 11.5478 34.8463 18.466 27.928L33.8522 43.3142ZM67.7942 62.1507C60.876 55.2324 49.6592 55.2324 42.7409 62.1507L27.3547 77.5369C34.273 84.4552 45.4898 84.4552 52.408 77.5369L67.7942 62.1507Z" fill="currentColor"/>
<path d="M42.7438 62.1507C49.6621 55.2324 60.8789 55.2324 67.7972 62.1507V62.1507L52.411 77.5369C45.4927 84.4552 34.2759 84.4552 27.3576 77.5369V77.5369L42.7438 62.1507Z" fill="currentColor"/>
</svg>
