<svg width="96" height="96" viewBox="0 0 96 96" fill="none" xmlns="http://www.w3.org/2000/svg">
<path fill-rule="evenodd" clip-rule="evenodd" d="M85.8081 49.1394C85.9184 49.1394 85.9853 49.2611 85.9262 49.3543L67.1871 78.8781C66.7765 79.5251 66.0635 79.917 65.2973 79.917L63.5421 79.917L63.5421 79.9171L32.4847 79.9171L32.4847 79.917L30.4422 79.917C29.6759 79.917 28.963 79.5251 28.5523 78.8781L9.81325 49.3543C9.75413 49.2611 9.82104 49.1394 9.93136 49.1394L23.6376 49.1394C26.4751 49.1394 29.1155 50.5909 30.6361 52.9866L33.078 56.8338L37.9617 64.5282L46.3085 77.6787L49.431 77.6787L57.7778 64.5282L62.6615 56.8338L65.1033 52.9866C66.6239 50.5909 69.2643 49.1394 72.1019 49.1394L85.8081 49.1394ZM85.9262 46.6858C85.9853 46.7789 85.9184 46.9006 85.8081 46.9006L72.1019 46.9006C69.2643 46.9006 66.6239 45.4492 65.1033 43.0534L62.6615 39.2062L57.7778 31.5118L49.4311 18.3614L46.3084 18.3614L37.9617 31.5118L33.078 39.2062L30.6361 43.0534C29.1155 45.4492 26.4751 46.9006 23.6376 46.9006L9.93136 46.9006C9.82104 46.9006 9.75413 46.7789 9.81325 46.6857L28.5523 17.1619C28.963 16.515 29.6759 16.123 30.4422 16.123L32.4847 16.123L49.0283 16.123L63.5421 16.123L65.2973 16.123C66.0635 16.123 66.7765 16.515 67.1871 17.1619L85.9262 46.6858Z" fill="currentColor"/>
<path d="M85.807 49.1404C85.9173 49.1404 85.9843 49.2621 85.9251 49.3553L67.1861 78.8791C66.7754 79.526 66.0624 79.918 65.2962 79.918L49.0272 79.918C48.586 79.918 48.3183 79.4311 48.5548 79.0585L57.7767 64.5292L62.6604 56.8348L65.1023 52.9876C66.6229 50.5919 69.2632 49.1404 72.1008 49.1404L85.807 49.1404Z" fill="currentColor"/>
</svg>
