<svg width="96" height="96" viewBox="0 0 96 96" fill="none" xmlns="http://www.w3.org/2000/svg">
<path fill-rule="evenodd" clip-rule="evenodd" d="M59.544 36.3966C65.412 30.5285 65.412 21.0145 59.544 15.1465L56.214 11.8165L42.259 25.7715L47.9678 31.4804L56.212 39.7246C56.212 39.7246 56.212 39.7246 56.212 39.7246L47.9678 31.4804L47.9673 31.481L42.259 25.7726L39.7217 28.3099L45.43 34.0182L39.7217 39.7266C44.2334 44.2383 51.5222 44.2804 56.0858 39.8529C51.662 44.4146 51.7029 51.6978 56.2083 56.2093C51.6961 51.7032 44.4114 51.663 39.8498 56.0888C44.2755 51.5251 44.2328 44.2377 39.7217 39.7266L31.4755 47.9727L39.7197 56.2169L39.7192 56.2175L34.0137 50.512L28.3049 56.2209C31.391 59.3071 36.3541 59.3724 39.5198 56.4169L36.3917 59.5449C30.5237 65.413 30.5237 74.927 36.3917 80.795L39.7217 84.125L53.6767 70.17L47.9678 64.4611L47.9684 64.4606L53.6767 70.1689L56.2134 67.6322L56.216 67.6347C59.3667 64.484 59.3689 59.3771 56.2227 56.2236L59.544 59.5449C65.412 65.413 74.926 65.413 80.7941 59.5449L84.124 56.215L70.1699 42.2609L70.1708 42.2599L67.6336 39.7227L61.9247 45.4315L64.4611 47.9679L64.4601 47.9688L56.214 56.215L56.216 56.217L50.5077 61.9253L50.5057 61.9233L56.214 56.215L64.4601 47.9688L56.2159 39.7246L56.2165 39.7241L61.9219 45.4295L67.6308 39.7206C64.5446 36.6345 59.5815 36.5691 56.4159 39.5247L59.544 36.3966ZM31.4755 47.9727L39.7217 39.7266L39.7211 39.726L45.4285 34.0186L39.7197 28.3097C36.6104 31.419 36.5674 36.4333 39.5904 39.5953L36.3917 36.3966C30.5237 30.5285 21.0097 30.5285 15.1416 36.3966L11.8117 39.7266L25.7658 53.6807L25.7648 53.6816L28.3021 56.2189L34.011 50.51L31.4746 47.9736L31.4755 47.9727Z" fill="currentColor"/>
<path fill-rule="evenodd" clip-rule="evenodd" d="M15.1396 36.3956C21.0077 30.5275 30.5216 30.5275 36.3897 36.3956L39.7197 39.7255L31.4726 47.9726L34.009 50.509L28.3001 56.2178L25.7628 53.6806L25.7637 53.6796L11.8096 39.7255L15.1396 36.3956ZM39.7197 39.7255C44.2739 44.2798 44.2739 51.6636 39.7197 56.2178L31.4735 47.9717L39.7197 39.7255ZM28.3028 56.2198C31.4558 59.3728 36.5677 59.3728 39.7206 56.2198L34.0117 50.511L28.3028 56.2198Z" fill="currentColor"/>
</svg>
