<svg width="96" height="96" viewBox="0 0 96 96" fill="none" xmlns="http://www.w3.org/2000/svg">
<path d="M55.3458 49.2853C54.2153 49.2853 53.2988 50.2017 53.2988 51.3323L53.2988 83.248L64.2464 83.248C66.1387 83.248 67.8961 82.2679 68.8905 80.6579L87.9467 49.8057C88.0871 49.5784 87.9236 49.2853 87.6564 49.2853L55.3458 49.2853Z" fill="currentColor"/>
<path d="M55.3458 46.5673C54.2153 46.5673 53.2988 45.6508 53.2988 44.5203L53.2988 12.6045L64.2464 12.6045C66.1387 12.6045 67.8961 13.5846 68.8905 15.1946L87.9467 46.0468C88.0871 46.2741 87.9236 46.5673 87.6564 46.5673L55.3458 46.5673Z" fill="currentColor"/>
<path fill-rule="evenodd" clip-rule="evenodd" d="M2.34033 49.0074L2.38946 48.9269L25.6958 48.9938C28.6596 49.0022 31.4066 50.5488 32.951 53.0785L46.3795 75.074C49.8939 80.1321 55.8851 83.2097 62.3403 83.2097L51.3181 83.2097L24.7527 83.2097C23.8014 83.2097 22.9188 82.7145 22.4232 81.9026L2.34033 49.0074Z" fill="currentColor"/>
<path fill-rule="evenodd" clip-rule="evenodd" d="M2.34033 46.8466L2.38947 46.9271L25.6962 46.8603C28.6598 46.8518 31.4066 45.3055 32.9511 42.7761L46.4081 20.7374C49.9264 15.7046 55.9026 12.6442 62.3403 12.6442L51.3181 12.6442L51.3145 12.65L24.7525 12.65C23.8014 12.65 22.9188 13.1452 22.4231 13.9569L2.34033 46.8466Z" fill="currentColor"/>
<rect x="86.2041" y="76.2168" width="7.5" height="7.5" rx="3.75" fill="currentColor"/>
</svg>
