<svg width="96" height="96" viewBox="0 0 96 96" fill="none" xmlns="http://www.w3.org/2000/svg">
<path d="M72.3758 21.7224H43.5262C43.2752 21.7226 43.0271 21.6732 42.7954 21.5769C42.5636 21.4806 42.3529 21.3394 42.176 21.1614L34.5691 13.5554C34.3041 13.289 34.1242 12.9499 34.0518 12.5812C33.9794 12.2126 34.0179 11.8307 34.1623 11.4838C34.3068 11.137 34.5507 10.8407 34.8634 10.6324C35.1761 10.4241 35.5434 10.3132 35.9192 10.3135H64.7689C65.2724 10.3156 65.7543 10.5172 66.1093 10.8743L73.7162 18.4802C73.9806 18.7461 74.1607 19.0843 74.2334 19.4521C74.3062 19.8199 74.2685 20.201 74.1253 20.5475C73.982 20.8939 73.7392 21.1903 73.4279 21.3993C73.1166 21.6084 72.7508 21.7209 72.3758 21.7224Z" fill="currentColor"/>
<path d="M48.4425 36.9344H77.301C77.6759 36.9328 78.0423 36.8203 78.3535 36.6113C78.6648 36.4022 78.9071 36.1059 79.0504 35.7594C79.1937 35.4129 79.2313 35.0319 79.1586 34.6641C79.0859 34.2963 78.9062 33.9581 78.6418 33.6922L71.0349 26.0862C70.6799 25.7291 70.1976 25.5276 69.694 25.5254H40.8355C40.4606 25.527 40.0943 25.6393 39.783 25.8483C39.4717 26.0573 39.2294 26.3537 39.0861 26.7002C38.9428 27.0466 38.9047 27.4277 38.9774 27.7955C39.0502 28.1633 39.2303 28.5015 39.4947 28.7674L47.1016 36.3734C47.4566 36.7304 47.9389 36.9323 48.4425 36.9344Z" fill="currentColor"/>
<path d="M74.2771 73.0629V44.2076C74.2792 43.7041 74.4808 43.2221 74.8379 42.8671L82.4449 35.2612C82.7108 34.9969 83.0488 34.817 83.4166 34.7443C83.7845 34.6715 84.1659 34.7092 84.5124 34.8524C84.8589 34.9957 85.1553 35.2382 85.3644 35.5495C85.5734 35.8607 85.6859 36.2267 85.6875 36.6016V65.4569C85.6879 65.959 85.4896 66.4408 85.1359 66.7974L77.529 74.4033C77.2635 74.6709 76.9244 74.8535 76.5549 74.9281C76.1854 75.0027 75.8021 74.9659 75.4536 74.8223C75.1051 74.6786 74.8074 74.4346 74.5979 74.1213C74.3884 73.808 74.2768 73.4397 74.2771 73.0629Z" fill="currentColor"/>
<path d="M59.063 77.9782V49.1325C59.0651 48.629 59.2667 48.147 59.6238 47.792L67.2308 40.186C67.4967 39.9217 67.8347 39.7418 68.2025 39.6691C68.5704 39.5964 68.9518 39.634 69.2983 39.7773C69.6448 39.9205 69.9412 40.1631 70.1502 40.4743C70.3593 40.7856 70.4718 41.1516 70.4734 41.5265V70.3722C70.4748 70.6225 70.4269 70.8706 70.3322 71.1022C70.2376 71.3339 70.0981 71.5445 69.9218 71.7222L62.3149 79.3282C62.0489 79.5964 61.7088 79.7794 61.3385 79.8537C60.9681 79.928 60.5842 79.8901 60.2353 79.7453C59.8864 79.6005 59.5884 79.3551 59.3796 79.0404C59.1708 78.7256 59.0608 78.3559 59.063 77.9782Z" fill="currentColor"/>
<path d="M36.2422 47.5542V18.7084C36.2406 18.3335 36.1281 17.9675 35.919 17.6563C35.7099 17.345 35.4135 17.1025 35.067 16.9592C34.7205 16.816 34.3392 16.7783 33.9713 16.8511C33.6035 16.9238 33.2655 17.1037 32.9995 17.368L25.3926 24.9739C25.2146 25.1508 25.0733 25.3613 24.9771 25.593C24.8808 25.8247 24.8315 26.073 24.8317 26.3239V55.1697C24.8295 55.5473 24.9396 55.9171 25.1484 56.2318C25.3572 56.5465 25.6552 56.7919 26.0041 56.9367C26.3529 57.0816 26.7369 57.1194 27.1072 57.0451C27.4776 56.9709 27.8176 56.7878 28.0836 56.5196L35.6906 48.9137C35.868 48.7349 36.0082 48.5227 36.1029 48.2893C36.1975 48.0559 36.2449 47.806 36.2422 47.5542Z" fill="currentColor"/>
<path d="M21.0284 23.6239V52.4789C21.0288 52.981 20.8304 53.4631 20.4768 53.8196L12.8698 61.4256C12.6044 61.6932 12.2652 61.8758 11.8957 61.9504C11.5263 62.025 11.1429 61.988 10.7944 61.8443C10.446 61.7007 10.1483 61.4568 9.93876 61.1436C9.72922 60.8303 9.61764 60.4618 9.61793 60.0849V31.2299C9.62006 30.7264 9.82166 30.2441 10.1788 29.8892L17.7857 22.2832C18.0517 22.0189 18.3897 21.8392 18.7575 21.7665C19.1254 21.6938 19.5067 21.7314 19.8532 21.8747C20.1997 22.0179 20.4961 22.2603 20.7052 22.5715C20.9143 22.8827 21.0268 23.249 21.0284 23.6239Z" fill="currentColor"/>
<path d="M46.8726 59.7526H18.0141C17.6392 59.7542 17.2729 59.8664 16.9616 60.0755C16.6503 60.2845 16.408 60.5809 16.2647 60.9273C16.1214 61.2738 16.0833 61.6549 16.156 62.0227C16.2288 62.3905 16.4089 62.7287 16.6733 62.9945L24.2802 70.6005C24.6352 70.9576 25.1175 71.1594 25.6211 71.1615H54.4796C54.8545 71.16 55.2208 71.0475 55.5321 70.8384C55.8434 70.6294 56.0857 70.333 56.229 69.9866C56.3723 69.6401 56.4099 69.259 56.3372 68.8912C56.2645 68.5234 56.0848 68.1852 55.8204 67.9193L48.2135 60.3134C47.8585 59.9563 47.3762 59.7547 46.8726 59.7526Z" fill="currentColor"/>
<path d="M22.9393 74.9646H51.7886C52.0402 74.9656 52.2894 75.0166 52.5212 75.1145C52.753 75.2124 52.963 75.3552 53.1392 75.5349L60.7461 83.1408C61.011 83.4073 61.1909 83.7464 61.2633 84.115C61.3358 84.4837 61.2973 84.8656 61.1528 85.2125C61.0084 85.5593 60.7645 85.8556 60.4518 86.0639C60.139 86.2722 59.7713 86.3833 59.3955 86.383H30.5463C30.2954 86.3832 30.0468 86.3338 29.815 86.2375C29.5833 86.1412 29.3731 86 29.1961 85.822L21.5892 78.216C21.321 77.9501 21.1379 77.6103 21.0636 77.24C20.9893 76.8697 21.0269 76.4856 21.1718 76.1368C21.3166 75.7879 21.5623 75.4902 21.8771 75.2814C22.1918 75.0726 22.5616 74.9624 22.9393 74.9646Z" fill="currentColor"/>
<path d="M24.8327 55.2424V26.3872C24.8349 25.8837 25.0365 25.4017 25.3936 25.0467L33.0006 17.4407C33.2665 17.1764 33.6045 16.9965 33.9723 16.9238C34.3402 16.8511 34.7215 16.8887 35.068 17.032C35.4146 17.1752 35.7109 17.4178 35.92 17.729C36.1291 18.0402 36.2416 18.4063 36.2432 18.7812V47.6364C36.2436 48.1386 36.0452 48.6204 35.6916 48.9769L28.0846 56.5829C27.8192 56.8505 27.48 57.0331 27.1106 57.1077C26.7411 57.1823 26.3577 57.1455 26.0093 57.0018C25.6608 56.8582 25.3631 56.6141 25.1536 56.3009C24.944 55.9876 24.8324 55.6193 24.8327 55.2424Z" fill="currentColor"/>
<path d="M9.61863 60.1578V31.312C9.62075 30.8085 9.82236 30.3265 10.1795 29.9716L17.7864 22.3656C18.0524 22.1013 18.3904 21.9214 18.7582 21.8487C19.1261 21.776 19.5074 21.8136 19.8539 21.9568C20.2004 22.1001 20.4968 22.3426 20.7059 22.6539C20.915 22.9651 21.0275 23.3312 21.0291 23.7061V52.5518C21.0305 52.802 20.9825 53.0501 20.8879 53.2818C20.7933 53.5135 20.6537 53.7241 20.4775 53.9018L12.8705 61.5077C12.6045 61.7759 12.2645 61.959 11.8941 62.0332C11.5238 62.1075 11.1398 62.0697 10.791 61.9249C10.4421 61.78 10.1441 61.5346 9.93528 61.2199C9.72647 60.9052 9.61643 60.5354 9.61863 60.1578Z" fill="currentColor"/>
</svg>
