<svg width="96" height="96" viewBox="0 0 96 96" fill="none" xmlns="http://www.w3.org/2000/svg">
<path d="M32.9406 25.3707C32.237 27.0678 31.2061 28.6094 29.9068 29.9077L29.9789 29.9817C32.6028 27.3598 36.1601 25.8868 39.8691 25.8868C43.5785 25.8868 47.1364 27.3598 49.7603 29.9817L39.8322 39.8351C37.2089 42.4569 33.651 43.9294 29.9416 43.9294C26.2321 43.9294 22.6753 42.4569 20.0514 39.8351C17.4292 37.2114 15.9563 33.6536 15.9563 29.9444C15.9563 26.2352 17.4292 22.678 20.053 20.0543L29.9068 10.127C31.2061 11.4253 32.237 12.9669 32.9406 14.664C33.6442 16.361 34.0062 18.1799 34.0062 20.017C34.0062 21.8541 33.6442 23.6736 32.9406 25.3707Z" fill="currentColor"/>
<path d="M69.9663 39.8717C69.9663 36.1626 68.4933 32.6055 65.8716 29.9818L65.9447 29.9086C67.243 31.2079 68.7843 32.2385 70.4809 32.9418C72.178 33.6453 73.9972 34.0074 75.8343 34.0074C77.6714 34.0074 79.4906 33.6453 81.1878 32.9418C82.8849 32.2383 84.4268 31.2074 85.725 29.9077L75.798 20.0553C73.1753 17.4324 69.6184 15.9593 65.909 15.9593C62.1995 15.9593 58.6416 17.4324 56.0183 20.0543C53.396 22.678 51.9236 26.2352 51.9236 29.9444C51.9236 33.6535 53.396 37.2112 56.0178 39.8349L65.8716 49.7624C68.4933 47.1387 69.9663 43.581 69.9663 39.8717Z" fill="currentColor"/>
<path d="M25.8848 55.9821C25.8848 59.6914 27.3577 63.2485 29.98 65.8722L29.9063 65.9462C28.6081 64.6465 27.0662 63.6156 25.3691 62.9121C23.672 62.2086 21.8522 61.8464 20.0151 61.8464C18.178 61.8464 16.3594 62.2086 14.6622 62.9121C12.9651 63.6156 11.4232 64.6465 10.125 65.9462L20.053 75.7996C22.6769 78.4215 26.2342 79.8945 29.9432 79.8945C33.6526 79.8945 37.2105 78.4215 39.8343 75.7996C42.4561 73.1759 43.9285 69.6187 43.9285 65.9095C43.9285 62.2003 42.4555 58.6425 39.8333 56.0188L29.98 46.0915C27.3577 48.7152 25.8848 52.2729 25.8848 55.9821Z" fill="currentColor"/>
<path d="M56.0179 56.0192C58.6417 53.3973 62.1996 51.9248 65.9085 51.9248C69.618 51.9248 73.1754 53.3973 75.7992 56.0192C78.4209 58.6428 79.8938 62.2007 79.8938 65.9098C79.8938 69.619 78.4209 73.1762 75.7992 75.7999L65.9443 85.7272C64.6445 84.4289 63.6136 82.8873 62.91 81.1902C62.2064 79.4932 61.8444 77.6743 61.8444 75.8371C61.8444 74.0001 62.2064 72.1805 62.91 70.4835C63.6136 68.7864 64.6445 67.2448 65.9443 65.9465L65.8712 65.8725C63.2473 68.4944 59.69 69.9674 55.9805 69.9674C52.2716 69.9674 48.7137 68.4944 46.0898 65.8725L56.0179 56.0192Z" fill="currentColor"/>
</svg>
