<svg width="96" height="96" viewBox="0 0 96 96" fill="none" xmlns="http://www.w3.org/2000/svg">
<path d="M50.8213 18.4771L32.7306 49.7657C33.9065 50.4437 35.2048 50.8837 36.551 51.0607C37.8973 51.2377 39.2649 51.1481 40.5765 50.797C41.8881 50.446 43.1179 49.8404 44.195 49.0148C45.2722 48.1891 46.1753 47.1598 46.8539 45.9854L64.9446 14.6968C63.7687 14.0187 62.4711 13.5787 61.1248 13.4018C59.7786 13.2248 58.4103 13.3144 57.0987 13.6654C55.7871 14.0165 54.5579 14.6221 53.4808 15.4477C52.4037 16.2733 51.4999 17.3027 50.8213 18.4771Z" fill="currentColor"/>
<path d="M35.7541 18.7351L17.6634 50.0237C18.8393 50.7017 20.1375 51.142 21.4838 51.319C22.8301 51.496 24.1984 51.4061 25.5099 51.055C26.8215 50.704 28.0507 50.0983 29.1278 49.2727C30.2049 48.4471 31.1087 47.4178 31.7873 46.2434L49.878 14.9547C48.7021 14.2767 47.4039 13.8367 46.0576 13.6598C44.7113 13.4828 43.3431 13.5724 42.0315 13.9234C40.7199 14.2745 39.4907 14.8801 38.4136 15.7057C37.3365 16.5313 36.4327 17.5607 35.7541 18.7351Z" fill="currentColor"/>
<path d="M64.5837 79.7253H28.4022C25.6606 79.7253 23.0313 78.638 21.0926 76.7022C19.154 74.7664 18.0647 72.1408 18.0647 69.4033H54.2462C56.9879 69.4033 59.6171 70.4909 61.5558 72.4267C63.4945 74.3624 64.5837 76.9877 64.5837 79.7253Z" fill="currentColor"/>
<path d="M20.6491 66.8227H56.8306C56.8306 64.0851 55.7413 61.4598 53.8026 59.5241C51.864 57.5883 49.2347 56.5007 46.493 56.5007H10.3115C10.3115 59.2382 11.4008 61.8639 13.3395 63.7996C15.2781 65.7354 17.9074 66.8227 20.6491 66.8227Z" fill="currentColor"/>
<path d="M66.9101 24.2702L85.0008 55.5588C86.3681 57.929 86.7379 60.7443 86.028 63.386C85.3182 66.0278 83.587 68.2802 81.2151 69.6486L63.1244 38.3729C62.4453 37.1988 62.0043 35.9025 61.8271 34.5582C61.6499 33.214 61.7399 31.8481 62.0915 30.5385C62.4431 29.2289 63.0496 28.0012 63.8765 26.9257C64.7033 25.8502 65.7339 24.9478 66.9101 24.2702Z" fill="currentColor"/>
<path d="M77.6876 68.7068L59.5968 37.4181C58.4207 38.0957 57.3894 38.9978 56.5626 40.0733C55.7357 41.1488 55.1292 42.3765 54.7776 43.6861C54.426 44.9957 54.3367 46.3616 54.5139 47.7058C54.6911 49.0501 55.1314 50.3464 55.8105 51.5205L73.9012 82.8091C75.0774 82.1316 76.1086 81.2291 76.9355 80.1537C77.7623 79.0782 78.3689 77.8505 78.7205 76.5409C79.0721 75.2313 79.1614 73.8654 78.9842 72.5211C78.807 71.1769 78.3666 69.8809 77.6876 68.7068Z" fill="currentColor"/>
<path d="M66.935 24.1152L85.0257 55.4038C86.393 57.774 86.7628 60.5893 86.0529 63.231C85.343 65.8728 83.6119 68.1252 81.24 69.4936L63.1492 38.2179C62.4702 37.0438 62.0292 35.7475 61.852 34.4032C61.6748 33.059 61.7647 31.6931 62.1163 30.3835C62.4679 29.0739 63.0745 27.8462 63.9013 26.7707C64.7282 25.6952 65.7588 24.7928 66.935 24.1152Z" fill="currentColor"/>
<path d="M77.7124 68.5518L59.6217 37.2632C58.4455 37.9407 57.4143 38.8428 56.5874 39.9183C55.7606 40.9938 55.154 42.2215 54.8025 43.5311C54.4509 44.8407 54.3615 46.2066 54.5387 47.5508C54.7159 48.8951 55.1563 50.1914 55.8353 51.3655L73.9261 82.6541C75.1022 81.9766 76.1335 81.0742 76.9603 79.9987C77.7872 78.9232 78.3937 77.6955 78.7453 76.3859C79.0969 75.0763 79.1863 73.7104 79.009 72.3661C78.8318 71.0219 78.3915 69.7259 77.7124 68.5518Z" fill="currentColor"/>
</svg>
