<svg width="96" height="96" viewBox="0 0 96 96" fill="none" xmlns="http://www.w3.org/2000/svg">
<path fill-rule="evenodd" clip-rule="evenodd" d="M18.9886 46.2594C13.7331 37.1652 16.8484 25.5386 25.9469 20.2906L43.5734 10.1235C48.8288 19.2177 45.7135 30.8443 36.6151 36.0923L18.9886 46.2594ZM77.0867 46.2594C82.3422 37.1652 79.2268 25.5386 70.1284 20.2906L52.5019 10.1235C47.2464 19.2177 50.3617 30.8443 59.4602 36.0923L77.0867 46.2594ZM25.9469 75.4301C16.8484 70.1821 13.7331 58.5555 18.9886 49.4613L36.6151 59.6283C45.7135 64.8764 48.8288 76.503 43.5734 85.5971L25.9469 75.4301ZM77.0867 49.4613C82.3422 58.5555 79.2268 70.1821 70.1284 75.4301L52.5019 85.5971C47.2464 76.503 50.3617 64.8764 59.4602 59.6283L77.0867 49.4613Z" fill="currentColor"/>
<path d="M25.9439 20.2916C16.8455 25.5396 13.7301 37.1662 18.9856 46.2604V46.2604L36.6121 36.0933C45.7106 30.8453 48.8259 19.2187 43.5704 10.1245V10.1245L25.9439 20.2916Z" fill="currentColor"/>
</svg>
