<svg width="304" height="200" viewBox="0 0 304 200" fill="none" xmlns="http://www.w3.org/2000/svg">
<path fill-rule="evenodd" clip-rule="evenodd" d="M104 0C95.1634 0 88 7.16344 88 16V112C88 120.837 95.1634 128 104 128H200C208.837 128 216 120.837 216 112V16C216 7.16344 208.837 0 200 0H104ZM169.186 28.6857C169.186 15.0522 158.134 4 144.5 4V51.8376C153.587 55.0001 160.728 62.3099 163.666 71.4999L212 71.5002C212 57.8667 200.948 46.8145 187.314 46.8145L169.186 46.8145V28.6857ZM159.5 124.001C145.866 124.001 134.814 112.949 134.814 99.3157V81.1873H116.686C103.052 81.1873 92 70.1351 92 56.5016L134.814 56.5014C148.448 56.5014 159.5 67.5537 159.5 81.1873V124.001Z" fill="#DEB430"/>
<path d="M244.81 149.937C242.523 149.937 240.661 149.27 239.225 147.935C237.788 146.6 237.07 144.945 237.07 142.969C237.07 140.993 237.788 139.338 239.225 138.003C240.661 136.668 242.523 136 244.81 136C247.098 136 248.96 136.641 250.396 137.922C251.832 139.151 252.55 140.753 252.55 142.728C252.55 144.811 251.832 146.547 250.396 147.935C249.013 149.27 247.151 149.937 244.81 149.937Z" fill="#142438"/>
<path d="M30.2419 200C25.933 200 21.9167 199.306 18.193 197.917C14.5225 196.476 11.3307 194.446 8.61775 191.83C5.90475 189.213 3.77691 186.143 2.23423 182.618C0.744743 179.094 0 175.222 0 171.004C0 166.785 0.744743 162.914 2.23423 159.389C3.77691 155.865 5.90475 152.794 8.61775 150.178C11.3839 147.561 14.6023 145.559 18.2728 144.17C21.9433 142.728 25.9596 142.008 30.3217 142.008C35.1625 142.008 39.5246 142.862 43.4079 144.571C47.3444 146.226 50.6426 148.683 53.3024 151.94L45.0038 159.63C43.0887 157.44 40.9609 155.811 38.6203 154.743C36.2797 153.622 33.7262 153.061 30.9601 153.061C28.3535 153.061 25.9596 153.489 23.7786 154.343C21.5976 155.197 19.7091 156.426 18.1132 158.028C16.5174 159.63 15.2672 161.525 14.3629 163.715C13.5118 165.904 13.0862 168.334 13.0862 171.004C13.0862 173.674 13.5118 176.103 14.3629 178.293C15.2672 180.482 16.5174 182.378 18.1132 183.98C19.7091 185.582 21.5976 186.81 23.7786 187.665C25.9596 188.519 28.3535 188.946 30.9601 188.946C33.7262 188.946 36.2797 188.412 38.6203 187.344C40.9609 186.223 43.0887 184.541 45.0038 182.298L53.3024 189.987C50.6426 193.245 47.3444 195.728 43.4079 197.437C39.5246 199.146 35.1359 200 30.2419 200Z" fill="#142438"/>
<path fill-rule="evenodd" clip-rule="evenodd" d="M93.4761 159.95C97.0935 163.047 98.9021 167.88 98.9021 174.448V199.039H87.2522V193.684C86.315 195.266 85.0383 196.543 83.4221 197.517C81.0283 198.959 77.9429 199.68 74.166 199.68C70.8147 199.68 67.9421 199.119 65.5482 197.997C63.1544 196.823 61.3192 195.247 60.0425 193.272C58.7658 191.296 58.1274 189.08 58.1274 186.623C58.1274 184.06 58.7392 181.817 59.9627 179.895C61.2394 177.972 63.2342 176.477 65.9472 175.409C68.6602 174.288 72.1977 173.727 76.5598 173.727H86.4543C86.4543 171.057 85.6297 168.975 83.9807 167.479C82.3848 165.984 79.9112 165.237 76.5598 165.237C74.2724 165.237 72.0116 165.61 69.7773 166.358C67.5963 167.052 65.7344 168.013 64.1918 169.242L59.7233 160.511C62.0639 158.855 64.8833 157.574 68.1814 156.666C71.4796 155.758 74.8309 155.304 78.2355 155.304C84.7786 155.304 89.8588 156.853 93.4761 159.95ZM71.852 182.458C72.9691 181.497 74.9905 181.016 77.9163 181.016H86.4543V185.422C85.7095 187.344 84.5126 188.813 82.8635 189.827C81.2145 190.788 79.3526 191.269 77.278 191.269C75.0969 191.269 73.3681 190.815 72.0914 189.907C70.8678 188.946 70.2561 187.665 70.2561 186.063C70.2561 184.621 70.7881 183.419 71.852 182.458Z" fill="#142438"/>
<path d="M145.357 157.387C142.697 155.998 139.665 155.304 136.261 155.304C132.59 155.304 129.319 156.078 126.446 157.627C124.752 158.54 123.289 159.686 122.057 161.064V155.945H110.168V199.039H122.616V177.732C122.616 175.062 123.041 172.873 123.893 171.164C124.797 169.455 126.02 168.2 127.563 167.399C129.159 166.545 130.941 166.118 132.909 166.118C135.675 166.118 137.803 166.945 139.293 168.601C140.836 170.256 141.607 172.819 141.607 176.29V199.039H154.055V174.368C154.055 169.989 153.283 166.411 151.741 163.635C150.198 160.804 148.07 158.722 145.357 157.387Z" fill="#142438"/>
<path fill-rule="evenodd" clip-rule="evenodd" d="M197.894 159.95C201.511 163.047 203.32 167.88 203.32 174.448V199.039H191.67V193.684C190.733 195.266 189.456 196.543 187.84 197.517C185.446 198.959 182.361 199.68 178.584 199.68C175.233 199.68 172.36 199.119 169.966 197.997C167.572 196.823 165.737 195.247 164.46 193.272C163.184 191.296 162.545 189.08 162.545 186.623C162.545 184.06 163.157 181.817 164.381 179.895C165.657 177.972 167.652 176.477 170.365 175.409C173.078 174.288 176.616 173.727 180.978 173.727H190.872C190.872 171.057 190.048 168.975 188.399 167.479C186.803 165.984 184.329 165.237 180.978 165.237C178.69 165.237 176.429 165.61 174.195 166.358C172.014 167.052 170.152 168.013 168.61 169.242L164.141 160.511C166.482 158.855 169.301 157.574 172.599 156.666C175.897 155.758 179.249 155.304 182.653 155.304C189.196 155.304 194.277 156.853 197.894 159.95ZM176.27 182.458C177.387 181.497 179.408 181.016 182.334 181.016H190.872V185.422C190.127 187.344 188.93 188.813 187.281 189.827C185.632 190.788 183.77 191.269 181.696 191.269C179.515 191.269 177.786 190.815 176.509 189.907C175.286 188.946 174.674 187.665 174.674 186.063C174.674 184.621 175.206 183.419 176.27 182.458Z" fill="#142438"/>
<path d="M273.676 177.301L257.161 199.039H270.726L280.475 185.839L289.876 199.039H304L287.393 177.019L303.362 155.945H290.116L280.79 168.53L271.683 155.945H257.72L273.676 177.301Z" fill="#142438"/>
<path d="M238.586 199.039V155.945H251.034V199.039H238.586Z" fill="#142438"/>
<path d="M214.586 139.605V199.039H227.034V139.605H214.586Z" fill="#142438"/>
</svg>
