<svg width="468" height="98" viewBox="0 0 468 98" fill="none" xmlns="http://www.w3.org/2000/svg">
<path d="M42.5185 0C53.56 0 62.5109 8.95089 62.5109 19.9924V34.6745L77.1929 34.6745C88.2343 34.6745 97.1852 43.6254 97.1852 54.6668C84.1371 54.6668 71.089 54.6666 58.0409 54.6666C55.6615 47.2238 49.8779 41.3038 42.5185 38.7425V0Z" fill="#DEB430"/>
<path fill-rule="evenodd" clip-rule="evenodd" d="M34.6743 77.1939C34.6743 88.2354 43.6252 97.1863 54.6667 97.1863V62.5122C54.6667 51.4707 45.7158 42.5196 34.6743 42.5196L0 42.5198C-1.44792e-06 53.5613 8.95089 62.5122 19.9924 62.5122H34.6743V77.1939Z" fill="#DEB430"/>
<path d="M400.293 40.171C397.688 40.171 395.568 39.4108 393.932 37.8903C392.296 36.3699 391.478 34.4846 391.478 32.2344C391.478 29.9842 392.296 28.0988 393.932 26.5784C395.568 25.058 397.688 24.2978 400.293 24.2978C402.898 24.2978 405.019 25.0276 406.655 26.4872C408.29 27.886 409.108 29.7105 409.108 31.9607C409.108 34.3326 408.29 36.3091 406.655 37.8903C405.079 39.4108 402.959 40.171 400.293 40.171Z" fill="#142438"/>
<path d="M155.924 97.1867C151.016 97.1867 146.442 96.3961 142.201 94.8148C138.021 93.1728 134.386 90.8617 131.296 87.8817C128.206 84.9017 125.783 81.4047 124.026 77.3908C122.33 73.3769 121.481 68.9677 121.481 64.1632C121.481 59.3587 122.33 54.9494 124.026 50.9355C125.783 46.9216 128.206 43.4247 131.296 40.4446C134.446 37.4646 138.112 35.184 142.292 33.6028C146.472 31.9607 151.047 31.1397 156.014 31.1397C161.528 31.1397 166.496 32.1127 170.918 34.0589C175.401 35.9442 179.158 38.7418 182.187 42.4516L172.736 51.2092C170.555 48.7157 168.131 46.8608 165.466 45.6445C162.8 44.3673 159.892 43.7287 156.742 43.7287C153.773 43.7287 151.047 44.2153 148.563 45.1883C146.079 46.1614 143.928 47.5602 142.11 49.3847C140.293 51.2092 138.869 53.3682 137.839 55.8617C136.87 58.3552 136.385 61.1223 136.385 64.1632C136.385 67.204 136.87 69.9712 137.839 72.4647C138.869 74.9582 140.293 77.1171 142.11 78.9417C143.928 80.7662 146.079 82.1649 148.563 83.138C151.047 84.1111 153.773 84.5976 156.742 84.5976C159.892 84.5976 162.8 83.9894 165.466 82.7731C168.131 81.496 170.555 79.5802 172.736 77.0259L182.187 85.7835C179.158 89.4934 175.401 92.3213 170.918 94.2675C166.496 96.2136 161.497 97.1867 155.924 97.1867Z" fill="#142438"/>
<path fill-rule="evenodd" clip-rule="evenodd" d="M227.94 51.5741C232.06 55.1015 234.12 60.6054 234.12 68.0859V96.092H220.852V89.9933C219.785 91.7949 218.331 93.2501 216.49 94.3587C213.764 96.0007 210.25 96.8218 205.948 96.8218C202.131 96.8218 198.86 96.1832 196.134 94.906C193.407 93.5681 191.317 91.774 189.863 89.5238C188.409 87.2735 187.682 84.7496 187.682 81.9521C187.682 79.0329 188.379 76.4786 189.772 74.2892C191.226 72.0998 193.498 70.3969 196.588 69.1806C199.678 67.9034 203.707 67.2648 208.675 67.2648H219.943C219.943 64.224 219.004 61.8521 217.126 60.1493C215.309 58.4464 212.491 57.595 208.675 57.595C206.069 57.595 203.495 58.0207 200.95 58.8721C198.466 59.6627 196.346 60.7574 194.589 62.1562L189.5 52.2127C192.165 50.3274 195.376 48.8678 199.133 47.8339C202.889 46.8 206.706 46.2831 210.583 46.2831C218.035 46.2831 223.821 48.0467 227.94 51.5741ZM203.313 77.2084C204.585 76.1137 206.887 75.5663 210.219 75.5663H219.943V80.5837C219.095 82.7731 217.732 84.4456 215.854 85.6011C213.976 86.6958 211.855 87.2431 209.492 87.2431C207.008 87.2431 205.04 86.7262 203.585 85.6923C202.192 84.5976 201.495 83.138 201.495 81.3135C201.495 79.6714 202.101 78.3031 203.313 77.2084Z" fill="#142438"/>
<path d="M287.027 48.6549C283.998 47.0737 280.545 46.2831 276.667 46.2831C272.487 46.2831 268.761 47.1649 265.489 48.9286C263.56 49.9688 261.894 51.2734 260.491 52.8424V47.0128H246.951V96.092H261.127V71.8261C261.127 68.7852 261.612 66.2918 262.581 64.3456C263.611 62.3995 265.005 60.9703 266.762 60.058C268.579 59.085 270.609 58.5984 272.85 58.5984C276.001 58.5984 278.424 59.5411 280.12 61.4264C281.877 63.3117 282.756 66.2309 282.756 70.184V96.092H296.933V67.9946C296.933 63.0077 296.054 58.9329 294.297 55.7705C292.54 52.5472 290.117 50.1753 287.027 48.6549Z" fill="#142438"/>
<path fill-rule="evenodd" clip-rule="evenodd" d="M346.861 51.5741C350.98 55.1015 353.04 60.6054 353.04 68.0859V96.092H339.772V89.9933C338.705 91.7949 337.251 93.2501 335.41 94.3587C332.684 96.0007 329.17 96.8218 324.869 96.8218C321.052 96.8218 317.78 96.1832 315.054 94.906C312.328 93.5681 310.238 91.774 308.783 89.5238C307.329 87.2735 306.602 84.7496 306.602 81.9521C306.602 79.0329 307.299 76.4786 308.693 74.2892C310.147 72.0998 312.419 70.3969 315.508 69.1806C318.598 67.9034 322.627 67.2648 327.595 67.2648H338.864C338.864 64.224 337.925 61.8521 336.046 60.1493C334.229 58.4464 331.412 57.595 327.595 57.595C324.99 57.595 322.415 58.0207 319.87 58.8721C317.386 59.6627 315.266 60.7574 313.509 62.1562L308.42 52.2127C311.086 50.3274 314.297 48.8678 318.053 47.8339C321.809 46.8 325.626 46.2831 329.503 46.2831C336.955 46.2831 342.741 48.0467 346.861 51.5741ZM322.233 77.2084C323.505 76.1137 325.808 75.5663 329.14 75.5663H338.864V80.5837C338.015 82.7731 336.652 84.4456 334.774 85.6011C332.896 86.6958 330.776 87.2431 328.413 87.2431C325.929 87.2431 323.96 86.7262 322.506 85.6923C321.112 84.5976 320.416 83.138 320.416 81.3135C320.416 79.6714 321.022 78.3031 322.233 77.2084Z" fill="#142438"/>
<path d="M433.168 71.3356L414.359 96.092H429.808L440.912 81.0592L451.619 96.092H467.704L448.79 71.014L466.977 47.0128H451.891L441.27 61.3462L430.899 47.0128H414.995L433.168 71.3356Z" fill="#142438"/>
<path d="M393.205 96.092V47.0128H407.382V96.092H393.205Z" fill="#142438"/>
<path d="M365.871 28.4029V96.092H380.048V28.4029H365.871Z" fill="#142438"/>
</svg>
