<svg width="1200" height="800" viewBox="0 0 1200 800" fill="none" xmlns="http://www.w3.org/2000/svg">
<g clip-path="url(#clip0_4007_167914)">
<rect width="800" height="800" fill="#F5F3EF"/>
<path opacity="0.2" fill-rule="evenodd" clip-rule="evenodd" d="M659.465 44.6529L647.202 55.1484C645.134 53.3727 645.134 50.4873 647.239 48.6799L659.465 38.1845C661.533 39.9601 661.533 42.8773 659.465 44.6529ZM665.116 43.0358L652.853 53.5313C650.785 55.3386 650.785 58.2241 652.89 59.9998L665.116 49.5043C665.392 49.2672 665.631 49.0098 665.834 48.7374C666.036 49.0098 666.275 49.2672 666.552 49.5043L678.777 59.9998C680.882 58.2241 680.882 55.3386 678.814 53.5313L666.552 43.0358C666.275 43.2729 666.036 43.5304 665.834 43.8028C665.631 43.5304 665.392 43.2729 665.116 43.0358ZM641.552 50.297L653.814 39.8016C655.882 38.0259 655.882 35.1088 653.814 33.3331L641.552 43.8285C641.275 44.0657 641.036 44.3231 640.834 44.5956C640.631 44.3232 640.392 44.0658 640.116 43.8287L627.853 33.3333C625.785 35.1089 625.785 38.0261 627.853 39.8017L640.116 50.2972C640.392 50.0601 640.631 49.8026 640.834 49.5302C641.036 49.8025 641.275 50.0599 641.552 50.297ZM622.202 44.6531L634.465 55.1486C636.533 53.3729 636.533 50.4874 634.428 48.6801L622.202 38.1846C620.134 39.9603 620.134 42.8774 622.202 44.6531ZM616.552 43.036L628.814 53.5314C630.882 55.3388 630.882 58.2243 628.777 59.9999L616.552 49.5045C614.483 47.7288 614.483 44.8117 616.552 43.036ZM684.465 55.1484L672.202 44.6529C670.134 42.8773 670.134 39.9601 672.202 38.1845L684.428 48.6799C686.533 50.4873 686.533 53.3727 684.465 55.1484ZM677.853 39.8016L690.116 50.297C690.392 50.0599 690.631 49.8025 690.834 49.5301C691.036 49.8025 691.275 50.0599 691.552 50.297L703.814 39.8016C705.882 38.0259 705.882 35.1088 703.814 33.3331L691.552 43.8285C691.275 44.0656 691.036 44.3231 690.834 44.5955C690.631 44.3231 690.392 44.0656 690.116 43.8285L677.853 33.3331C675.785 35.1088 675.785 38.0259 677.853 39.8016ZM709.465 44.6529L697.202 55.1484C695.134 53.3727 695.134 50.4873 697.239 48.6799L709.465 38.1845C711.533 39.9601 711.533 42.8773 709.465 44.6529ZM715.116 43.0358L702.853 53.5313C700.785 55.3386 700.785 58.2241 702.89 59.9998L715.116 49.5043C715.392 49.2672 715.631 49.0098 715.834 48.7374C716.036 49.0098 716.275 49.2672 716.552 49.5043L728.777 59.9998C730.882 58.2241 730.882 55.3386 728.814 53.5313L716.552 43.0358C716.275 43.2729 716.036 43.5304 715.834 43.8028C715.631 43.5304 715.392 43.2729 715.116 43.0358ZM734.465 55.1484L722.202 44.6529C720.134 42.8773 720.134 39.9601 722.202 38.1845L734.428 48.6799C736.533 50.4873 736.533 53.3727 734.465 55.1484ZM727.853 39.8016L740.116 50.297C740.392 50.0599 740.631 49.8025 740.834 49.5301C741.036 49.8025 741.275 50.0599 741.552 50.297L753.814 39.8016C755.882 38.0259 755.882 35.1088 753.814 33.3331L741.552 43.8285C741.275 44.0656 741.036 44.3231 740.834 44.5955C740.631 44.3231 740.392 44.0656 740.116 43.8285L727.853 33.3331C725.785 35.1088 725.785 38.0259 727.853 39.8016ZM759.465 44.6529L747.202 55.1484C745.134 53.3727 745.134 50.4873 747.239 48.6799L759.465 38.1845C761.533 39.9601 761.533 42.8773 759.465 44.6529ZM765.116 43.0358L752.853 53.5313C750.785 55.3386 750.785 58.2241 752.89 59.9998L765.116 49.5043C767.184 47.7287 767.184 44.8115 765.116 43.0358Z" fill="#142438"/>
<path d="M198.156 439.377L136.844 380.34C126.503 370.352 126.503 353.943 136.844 343.955L197.971 402.992C208.497 413.158 208.497 429.389 198.156 439.377ZM169.901 430.281L108.589 371.244C98.2478 381.232 98.2478 397.641 108.589 407.629L169.716 466.666C180.242 456.678 180.242 440.447 169.901 430.281ZM165.099 353.051L226.41 412.088C236.752 402.1 236.752 385.691 226.41 375.703L165.099 316.666C154.758 326.654 154.758 343.063 165.099 353.051Z" fill="#00469C"/>
<path d="M295.967 464.533C288.833 464.533 282.367 463 276.567 459.933C270.833 456.8 266.3 452.5 262.967 447.033C259.7 441.5 258.067 435.266 258.067 428.333C258.067 421.4 259.7 415.2 262.967 409.733C266.3 404.2 270.833 399.9 276.567 396.833C282.367 393.7 288.867 392.133 296.067 392.133C302.133 392.133 307.6 393.2 312.467 395.333C317.4 397.466 321.533 400.533 324.867 404.533L314.467 414.133C309.733 408.666 303.867 405.933 296.867 405.933C292.533 405.933 288.667 406.9 285.267 408.833C281.867 410.7 279.2 413.333 277.267 416.733C275.4 420.133 274.467 424 274.467 428.333C274.467 432.666 275.4 436.533 277.267 439.933C279.2 443.333 281.867 446 285.267 447.933C288.667 449.8 292.533 450.733 296.867 450.733C303.867 450.733 309.733 447.966 314.467 442.433L324.867 452.033C321.533 456.1 317.4 459.2 312.467 461.333C307.533 463.466 302.033 464.533 295.967 464.533ZM356.016 408.733C364.349 408.733 370.749 410.733 375.216 414.733C379.682 418.666 381.916 424.633 381.916 432.633V463.333H367.316V456.633C364.382 461.633 358.916 464.133 350.916 464.133C346.782 464.133 343.182 463.433 340.116 462.033C337.116 460.633 334.816 458.7 333.216 456.233C331.616 453.766 330.816 450.966 330.816 447.833C330.816 442.833 332.682 438.9 336.416 436.033C340.216 433.166 346.049 431.733 353.916 431.733H366.316C366.316 428.333 365.282 425.733 363.216 423.933C361.149 422.066 358.049 421.133 353.916 421.133C351.049 421.133 348.216 421.6 345.416 422.533C342.682 423.4 340.349 424.6 338.416 426.133L332.816 415.233C335.749 413.166 339.249 411.566 343.316 410.433C347.449 409.3 351.682 408.733 356.016 408.733ZM354.816 453.633C357.482 453.633 359.849 453.033 361.916 451.833C363.982 450.566 365.449 448.733 366.316 446.333V440.833H355.616C349.216 440.833 346.016 442.933 346.016 447.133C346.016 449.133 346.782 450.733 348.316 451.933C349.916 453.066 352.082 453.633 354.816 453.633ZM414.134 464.133C409.668 464.133 405.301 463.6 401.034 462.533C396.768 461.4 393.368 460 390.834 458.333L396.034 447.133C398.434 448.666 401.334 449.933 404.734 450.933C408.134 451.866 411.468 452.333 414.734 452.333C421.334 452.333 424.634 450.7 424.634 447.433C424.634 445.9 423.734 444.8 421.934 444.133C420.134 443.466 417.368 442.9 413.634 442.433C409.234 441.766 405.601 441 402.734 440.133C399.868 439.266 397.368 437.733 395.234 435.533C393.168 433.333 392.134 430.2 392.134 426.133C392.134 422.733 393.101 419.733 395.034 417.133C397.034 414.466 399.901 412.4 403.634 410.933C407.434 409.466 411.901 408.733 417.034 408.733C420.834 408.733 424.601 409.166 428.334 410.033C432.134 410.833 435.268 411.966 437.734 413.433L432.534 424.533C427.801 421.866 422.634 420.533 417.034 420.533C413.701 420.533 411.201 421 409.534 421.933C407.868 422.866 407.034 424.066 407.034 425.533C407.034 427.2 407.934 428.366 409.734 429.033C411.534 429.7 414.401 430.333 418.334 430.933C422.734 431.666 426.334 432.466 429.134 433.333C431.934 434.133 434.368 435.633 436.434 437.833C438.501 440.033 439.534 443.1 439.534 447.033C439.534 450.366 438.534 453.333 436.534 455.933C434.534 458.533 431.601 460.566 427.734 462.033C423.934 463.433 419.401 464.133 414.134 464.133ZM501.859 436.633C501.859 436.833 501.759 438.233 501.559 440.833H460.859C461.593 444.166 463.326 446.8 466.059 448.733C468.793 450.666 472.193 451.633 476.259 451.633C479.059 451.633 481.526 451.233 483.659 450.433C485.859 449.566 487.893 448.233 489.759 446.433L498.059 455.433C492.993 461.233 485.593 464.133 475.859 464.133C469.793 464.133 464.426 462.966 459.759 460.633C455.093 458.233 451.493 454.933 448.959 450.733C446.426 446.533 445.159 441.766 445.159 436.433C445.159 431.166 446.393 426.433 448.859 422.233C451.393 417.966 454.826 414.666 459.159 412.333C463.559 409.933 468.459 408.733 473.859 408.733C479.126 408.733 483.893 409.866 488.159 412.133C492.426 414.4 495.759 417.666 498.159 421.933C500.626 426.133 501.859 431.033 501.859 436.633ZM473.959 420.533C470.426 420.533 467.459 421.533 465.059 423.533C462.659 425.533 461.193 428.266 460.659 431.733H487.159C486.626 428.333 485.159 425.633 482.759 423.633C480.359 421.566 477.426 420.533 473.959 420.533ZM567.045 389.133V463.333H552.145V457.133C548.279 461.8 542.679 464.133 535.345 464.133C530.279 464.133 525.679 463 521.545 460.733C517.479 458.466 514.279 455.233 511.945 451.033C509.612 446.833 508.445 441.966 508.445 436.433C508.445 430.9 509.612 426.033 511.945 421.833C514.279 417.633 517.479 414.4 521.545 412.133C525.679 409.866 530.279 408.733 535.345 408.733C542.212 408.733 547.579 410.9 551.445 415.233V389.133H567.045ZM538.045 451.333C541.979 451.333 545.245 450 547.845 447.333C550.445 444.6 551.745 440.966 551.745 436.433C551.745 431.9 550.445 428.3 547.845 425.633C545.245 422.9 541.979 421.533 538.045 421.533C534.045 421.533 530.745 422.9 528.145 425.633C525.545 428.3 524.245 431.9 524.245 436.433C524.245 440.966 525.545 444.6 528.145 447.333C530.745 450 534.045 451.333 538.045 451.333ZM607.084 464.133C601.417 464.133 596.317 462.966 591.784 460.633C587.317 458.233 583.817 454.933 581.284 450.733C578.75 446.533 577.484 441.766 577.484 436.433C577.484 431.1 578.75 426.333 581.284 422.133C583.817 417.933 587.317 414.666 591.784 412.333C596.317 409.933 601.417 408.733 607.084 408.733C612.75 408.733 617.817 409.933 622.284 412.333C626.75 414.666 630.25 417.933 632.784 422.133C635.317 426.333 636.584 431.1 636.584 436.433C636.584 441.766 635.317 446.533 632.784 450.733C630.25 454.933 626.75 458.233 622.284 460.633C617.817 462.966 612.75 464.133 607.084 464.133ZM607.084 451.333C611.084 451.333 614.35 450 616.884 447.333C619.484 444.6 620.784 440.966 620.784 436.433C620.784 431.9 619.484 428.3 616.884 425.633C614.35 422.9 611.084 421.533 607.084 421.533C603.084 421.533 599.784 422.9 597.184 425.633C594.584 428.3 593.284 431.9 593.284 436.433C593.284 440.966 594.584 444.6 597.184 447.333C599.784 450 603.084 451.333 607.084 451.333ZM673.011 464.133C667.278 464.133 662.111 462.966 657.511 460.633C652.978 458.233 649.411 454.933 646.811 450.733C644.278 446.533 643.011 441.766 643.011 436.433C643.011 431.1 644.278 426.333 646.811 422.133C649.411 417.933 652.978 414.666 657.511 412.333C662.111 409.933 667.278 408.733 673.011 408.733C678.678 408.733 683.611 409.933 687.811 412.333C692.078 414.666 695.178 418.033 697.111 422.433L685.011 428.933C682.211 424 678.178 421.533 672.911 421.533C668.844 421.533 665.478 422.866 662.811 425.533C660.144 428.2 658.811 431.833 658.811 436.433C658.811 441.033 660.144 444.666 662.811 447.333C665.478 450 668.844 451.333 672.911 451.333C678.244 451.333 682.278 448.866 685.011 443.933L697.111 450.533C695.178 454.8 692.078 458.133 687.811 460.533C683.611 462.933 678.678 464.133 673.011 464.133Z" fill="#152539"/>
<rect x="33.3333" y="746.667" width="20" height="20" fill="#FFCC00"/>
<rect x="63.3333" y="746.667" width="20" height="20" fill="#2E3853"/>
<rect x="93.3333" y="746.667" width="20" height="20" fill="#00469C"/>
<g clip-path="url(#clip1_4007_167914)">
<rect width="400" height="400" transform="translate(800)" fill="#00469C"/>
<g clip-path="url(#clip2_4007_167914)">
<path d="M1005.93 267.291C1023.42 284.777 1023.45 313.105 1006.03 330.631L897.943 222.545C880.458 205.059 880.425 176.731 897.844 159.204L1005.93 267.291Z" stroke="#ECE8DE" stroke-width="0.28125"/>
<circle cx="930.017" cy="190.471" r="2.25" transform="rotate(-45 930.017 190.471)" fill="#ECE8DE"/>
<path d="M923.653 184.107C921.965 185.795 921.017 188.084 921.017 190.471C921.017 192.858 921.965 195.147 923.653 196.835C925.341 198.522 927.63 199.471 930.017 199.471C932.404 199.471 934.693 198.522 936.381 196.835" stroke="#ECE8DE" stroke-width="0.28125" stroke-miterlimit="10" stroke-linecap="round" stroke-linejoin="round" stroke-dasharray="0.56 1.12"/>
<path d="M917.289 177.743C915.618 179.414 914.292 181.399 913.387 183.582C912.483 185.766 912.017 188.107 912.017 190.471C912.017 192.834 912.483 195.175 913.387 197.359C914.292 199.543 915.618 201.527 917.289 203.199C918.961 204.87 920.945 206.196 923.129 207.101C925.313 208.005 927.653 208.471 930.017 208.471C932.381 208.471 934.722 208.005 936.905 207.101C939.089 206.196 941.074 204.87 942.745 203.199" stroke="#ECE8DE" stroke-width="0.28125" stroke-miterlimit="10" stroke-linecap="round" stroke-linejoin="round" stroke-dasharray="0.56 1.12"/>
<path d="M910.925 171.379C908.418 173.886 906.429 176.862 905.073 180.138C903.716 183.414 903.017 186.925 903.017 190.471C903.017 194.016 903.716 197.527 905.073 200.803C906.429 204.079 908.418 207.055 910.925 209.563C913.433 212.07 916.409 214.059 919.685 215.415C922.961 216.772 926.472 217.471 930.017 217.471C933.563 217.471 937.074 216.772 940.35 215.415C943.625 214.059 946.602 212.07 949.109 209.563" stroke="#ECE8DE" stroke-width="0.28125" stroke-miterlimit="10" stroke-linecap="round" stroke-linejoin="round" stroke-dasharray="0.56 1.12"/>
<path d="M904.561 165.015C897.81 171.766 894.017 180.923 894.017 190.471C894.017 200.018 897.81 209.175 904.561 215.927C911.313 222.678 920.469 226.471 930.017 226.471C939.565 226.471 948.722 222.678 955.473 215.927" stroke="#ECE8DE" stroke-width="0.28125" stroke-miterlimit="10" stroke-linecap="round" stroke-linejoin="round" stroke-dasharray="0.56 1.12"/>
<path d="M898.297 158.75C902.462 154.585 907.408 151.28 912.85 149.026C918.293 146.772 924.126 145.611 930.017 145.611C935.908 145.611 941.741 146.772 947.184 149.026C952.627 151.28 957.572 154.585 961.737 158.75C965.903 162.916 969.207 167.861 971.462 173.304C973.716 178.746 974.876 184.58 974.876 190.471C974.876 196.362 973.716 202.195 971.462 207.638C969.207 213.08 965.903 218.026 961.737 222.191C957.572 226.357 952.627 229.661 947.184 231.915C941.741 234.17 935.908 235.33 930.017 235.33C924.126 235.33 918.293 234.17 912.85 231.915C907.407 229.661 902.462 226.357 898.297 222.191C894.131 218.025 890.827 213.08 888.572 207.638C886.318 202.195 885.158 196.362 885.158 190.471C885.158 184.58 886.318 178.746 888.572 173.304C890.827 167.861 894.131 162.916 898.297 158.75L898.297 158.75Z" stroke="#ECE8DE" stroke-width="0.28125" stroke-miterlimit="10" stroke-linecap="round" stroke-linejoin="round"/>
<path d="M898.197 222.29L930.017 190.47" stroke="#ECE8DE" stroke-width="0.28125" stroke-miterlimit="10" stroke-linecap="round" stroke-linejoin="round" stroke-dasharray="0.56 1.12"/>
<circle cx="974.565" cy="298.657" r="2.25" transform="rotate(-45 974.565 298.657)" fill="#ECE8DE"/>
<path d="M968.201 292.293C969.889 290.605 972.178 289.657 974.565 289.657C976.952 289.657 979.241 290.605 980.929 292.293C982.616 293.98 983.565 296.27 983.565 298.657C983.565 301.044 982.616 303.333 980.929 305.021" stroke="#ECE8DE" stroke-width="0.28125" stroke-miterlimit="10" stroke-linecap="round" stroke-linejoin="round" stroke-dasharray="0.56 1.12"/>
<path d="M961.837 285.929C963.508 284.258 965.493 282.932 967.676 282.027C969.86 281.123 972.201 280.657 974.565 280.657C976.928 280.657 979.269 281.123 981.453 282.027C983.637 282.932 985.621 284.258 987.293 285.929C988.964 287.601 990.29 289.585 991.195 291.769C992.099 293.953 992.565 296.293 992.565 298.657C992.565 301.021 992.099 303.361 991.195 305.545C990.29 307.729 988.964 309.713 987.293 311.385" stroke="#ECE8DE" stroke-width="0.28125" stroke-miterlimit="10" stroke-linecap="round" stroke-linejoin="round" stroke-dasharray="0.56 1.12"/>
<path d="M955.473 279.565C957.98 277.057 960.956 275.069 964.232 273.712C967.508 272.355 971.019 271.656 974.565 271.656C978.11 271.656 981.621 272.355 984.897 273.712C988.173 275.069 991.149 277.057 993.657 279.565C996.164 282.072 998.153 285.048 999.509 288.324C1000.87 291.6 1001.56 295.111 1001.56 298.656C1001.56 302.202 1000.87 305.713 999.509 308.989C998.153 312.265 996.164 315.241 993.657 317.748" stroke="#ECE8DE" stroke-width="0.28125" stroke-miterlimit="10" stroke-linecap="round" stroke-linejoin="round" stroke-dasharray="0.56 1.12"/>
<path d="M949.109 273.201C955.86 266.45 965.017 262.657 974.565 262.657C984.112 262.657 993.269 266.45 1000.02 273.201C1006.77 279.952 1010.56 289.109 1010.56 298.657C1010.56 308.205 1006.77 317.361 1000.02 324.113" stroke="#ECE8DE" stroke-width="0.28125" stroke-miterlimit="10" stroke-linecap="round" stroke-linejoin="round" stroke-dasharray="0.56 1.12"/>
<path d="M942.844 266.937C947.01 262.771 951.955 259.467 957.398 257.213C962.84 254.958 968.674 253.798 974.565 253.798C980.456 253.798 986.289 254.958 991.732 257.213C997.174 259.467 1002.12 262.771 1006.29 266.937C1010.45 271.102 1013.75 276.048 1016.01 281.49C1018.26 286.933 1019.42 292.766 1019.42 298.657C1019.42 304.548 1018.26 310.382 1016.01 315.824C1013.75 321.267 1010.45 326.212 1006.29 330.378C1002.12 334.543 997.174 337.847 991.732 340.102C986.289 342.356 980.456 343.517 974.565 343.517C968.674 343.517 962.84 342.356 957.398 340.102C951.955 337.847 947.01 334.543 942.844 330.378C938.679 326.212 935.374 321.267 933.12 315.824C930.866 310.382 929.705 304.548 929.705 298.657C929.705 292.766 930.866 286.933 933.12 281.49C935.374 276.048 938.679 271.102 942.844 266.937L942.844 266.937Z" stroke="#ECE8DE" stroke-width="0.28125" stroke-miterlimit="10" stroke-linecap="round" stroke-linejoin="round"/>
<path d="M974.565 298.657L1006.38 266.837" stroke="#ECE8DE" stroke-width="0.28125" stroke-miterlimit="10" stroke-linecap="round" stroke-linejoin="round" stroke-dasharray="0.56 1.12"/>
<path d="M1050.48 222.743C1067.96 240.229 1068 268.557 1050.58 286.083L942.491 177.997C925.005 160.511 924.973 132.183 942.392 114.656L1050.48 222.743Z" stroke="#ECE8DE" stroke-width="0.28125"/>
<circle cx="974.565" cy="145.923" r="2.25" transform="rotate(-45 974.565 145.923)" fill="#ECE8DE"/>
<path d="M968.201 139.559C966.513 141.247 965.565 143.536 965.565 145.923C965.565 148.31 966.513 150.599 968.201 152.287C969.889 153.975 972.178 154.923 974.565 154.923C976.952 154.923 979.241 153.975 980.929 152.287" stroke="#ECE8DE" stroke-width="0.28125" stroke-miterlimit="10" stroke-linecap="round" stroke-linejoin="round" stroke-dasharray="0.56 1.12"/>
<path d="M961.837 133.195C960.165 134.866 958.839 136.851 957.935 139.035C957.03 141.218 956.565 143.559 956.565 145.923C956.565 148.287 957.03 150.627 957.935 152.811C958.839 154.995 960.165 156.979 961.837 158.651C963.508 160.322 965.493 161.648 967.676 162.553C969.86 163.457 972.201 163.923 974.565 163.923C976.929 163.923 979.269 163.457 981.453 162.553C983.637 161.648 985.621 160.322 987.293 158.651" stroke="#ECE8DE" stroke-width="0.28125" stroke-miterlimit="10" stroke-linecap="round" stroke-linejoin="round" stroke-dasharray="0.56 1.12"/>
<path d="M955.473 126.831C952.966 129.338 950.977 132.315 949.62 135.59C948.263 138.866 947.565 142.377 947.565 145.923C947.565 149.469 948.263 152.98 949.62 156.255C950.977 159.531 952.966 162.508 955.473 165.015C957.98 167.522 960.957 169.511 964.232 170.868C967.508 172.224 971.019 172.923 974.565 172.923C978.111 172.923 981.622 172.224 984.897 170.868C988.173 169.511 991.15 167.522 993.657 165.015" stroke="#ECE8DE" stroke-width="0.28125" stroke-miterlimit="10" stroke-linecap="round" stroke-linejoin="round" stroke-dasharray="0.56 1.12"/>
<path d="M949.109 120.467C942.358 127.218 938.565 136.375 938.565 145.923C938.565 155.471 942.358 164.627 949.109 171.379C955.86 178.13 965.017 181.923 974.565 181.923C984.113 181.923 993.269 178.13 1000.02 171.379" stroke="#ECE8DE" stroke-width="0.28125" stroke-miterlimit="10" stroke-linecap="round" stroke-linejoin="round" stroke-dasharray="0.56 1.12"/>
<path d="M942.844 114.202C947.01 110.037 951.955 106.733 957.398 104.478C962.84 102.224 968.674 101.063 974.565 101.063C980.456 101.063 986.289 102.224 991.732 104.478C997.174 106.733 1002.12 110.037 1006.29 114.202C1010.45 118.368 1013.75 123.313 1016.01 128.756C1018.26 134.199 1019.42 140.032 1019.42 145.923C1019.42 151.814 1018.26 157.647 1016.01 163.09C1013.75 168.532 1010.45 173.478 1006.29 177.643C1002.12 181.809 997.174 185.113 991.732 187.368C986.289 189.622 980.456 190.782 974.565 190.782C968.674 190.782 962.84 189.622 957.398 187.367C951.955 185.113 947.01 181.809 942.844 177.643C938.679 173.478 935.374 168.532 933.12 163.09C930.866 157.647 929.705 151.814 929.705 145.923C929.705 140.032 930.866 134.198 933.12 128.756C935.374 123.313 938.679 118.368 942.844 114.202L942.844 114.202Z" stroke="#ECE8DE" stroke-width="0.28125" stroke-miterlimit="10" stroke-linecap="round" stroke-linejoin="round"/>
<path d="M942.745 177.742L974.565 145.922" stroke="#ECE8DE" stroke-width="0.28125" stroke-miterlimit="10" stroke-linecap="round" stroke-linejoin="round" stroke-dasharray="0.56 1.12"/>
<circle cx="1019.11" cy="254.109" r="2.25" transform="rotate(-45 1019.11 254.109)" fill="#ECE8DE"/>
<path d="M1012.75 247.745C1014.44 246.057 1016.73 245.109 1019.11 245.109C1021.5 245.109 1023.79 246.057 1025.48 247.745C1027.16 249.433 1028.11 251.722 1028.11 254.109C1028.11 256.496 1027.16 258.785 1025.48 260.473" stroke="#ECE8DE" stroke-width="0.28125" stroke-miterlimit="10" stroke-linecap="round" stroke-linejoin="round" stroke-dasharray="0.56 1.12"/>
<path d="M1006.38 241.381C1008.06 239.71 1010.04 238.384 1012.22 237.479C1014.41 236.575 1016.75 236.109 1019.11 236.109C1021.48 236.109 1023.82 236.575 1026 237.479C1028.18 238.384 1030.17 239.71 1031.84 241.381C1033.51 243.053 1034.84 245.037 1035.74 247.221C1036.65 249.405 1037.11 251.745 1037.11 254.109C1037.11 256.473 1036.65 258.814 1035.74 260.997C1034.84 263.181 1033.51 265.166 1031.84 266.837" stroke="#ECE8DE" stroke-width="0.28125" stroke-miterlimit="10" stroke-linecap="round" stroke-linejoin="round" stroke-dasharray="0.56 1.12"/>
<path d="M1000.02 235.017C1002.53 232.51 1005.5 230.521 1008.78 229.164C1012.06 227.807 1015.57 227.109 1019.11 227.109C1022.66 227.109 1026.17 227.807 1029.44 229.164C1032.72 230.521 1035.7 232.51 1038.2 235.017C1040.71 237.524 1042.7 240.5 1044.06 243.776C1045.41 247.052 1046.11 250.563 1046.11 254.109C1046.11 257.654 1045.41 261.165 1044.06 264.441C1042.7 267.717 1040.71 270.693 1038.2 273.2" stroke="#ECE8DE" stroke-width="0.28125" stroke-miterlimit="10" stroke-linecap="round" stroke-linejoin="round" stroke-dasharray="0.56 1.12"/>
<path d="M993.656 228.653C1000.41 221.902 1009.56 218.109 1019.11 218.109C1028.66 218.109 1037.82 221.902 1044.57 228.653C1051.32 235.404 1055.11 244.561 1055.11 254.109C1055.11 263.657 1051.32 272.813 1044.57 279.565" stroke="#ECE8DE" stroke-width="0.28125" stroke-miterlimit="10" stroke-linecap="round" stroke-linejoin="round" stroke-dasharray="0.56 1.12"/>
<path d="M987.392 222.389C991.557 218.223 996.503 214.919 1001.95 212.665C1007.39 210.41 1013.22 209.25 1019.11 209.25C1025 209.25 1030.84 210.41 1036.28 212.665C1041.72 214.919 1046.67 218.223 1050.83 222.389C1055 226.555 1058.3 231.5 1060.56 236.942C1062.81 242.385 1063.97 248.218 1063.97 254.109C1063.97 260 1062.81 265.834 1060.56 271.276C1058.3 276.719 1055 281.664 1050.83 285.83C1046.67 289.995 1041.72 293.3 1036.28 295.554C1030.84 297.808 1025 298.969 1019.11 298.969C1013.22 298.969 1007.39 297.808 1001.95 295.554C996.503 293.3 991.557 289.995 987.392 285.83C983.226 281.664 979.922 276.719 977.668 271.276C975.413 265.834 974.253 260 974.253 254.109C974.253 248.218 975.413 242.385 977.668 236.942C979.922 231.5 983.226 226.555 987.392 222.389L987.392 222.389Z" stroke="#ECE8DE" stroke-width="0.28125" stroke-miterlimit="10" stroke-linecap="round" stroke-linejoin="round"/>
<path d="M1019.11 254.109L1050.93 222.29" stroke="#ECE8DE" stroke-width="0.28125" stroke-miterlimit="10" stroke-linecap="round" stroke-linejoin="round" stroke-dasharray="0.56 1.12"/>
<path d="M1095.03 178.195C1112.51 195.681 1112.54 224.009 1095.13 241.535L987.039 133.449C969.553 115.963 969.521 87.6348 986.94 70.1083L1095.03 178.195Z" stroke="#ECE8DE" stroke-width="0.28125"/>
<circle cx="1019.11" cy="101.375" r="2.25" transform="rotate(-45 1019.11 101.375)" fill="#ECE8DE"/>
<path d="M1012.75 95.011C1011.06 96.6989 1010.11 98.9881 1010.11 101.375C1010.11 103.762 1011.06 106.051 1012.75 107.739C1014.44 109.427 1016.73 110.375 1019.11 110.375C1021.5 110.375 1023.79 109.427 1025.48 107.739" stroke="#ECE8DE" stroke-width="0.28125" stroke-miterlimit="10" stroke-linecap="round" stroke-linejoin="round" stroke-dasharray="0.56 1.12"/>
<path d="M1006.38 88.6471C1004.71 90.3185 1003.39 92.3028 1002.48 94.4867C1001.58 96.6706 1001.11 99.0112 1001.11 101.375C1001.11 103.739 1001.58 106.079 1002.48 108.263C1003.39 110.447 1004.71 112.431 1006.38 114.103C1008.06 115.774 1010.04 117.1 1012.22 118.005C1014.41 118.909 1016.75 119.375 1019.11 119.375C1021.48 119.375 1023.82 118.909 1026 118.005C1028.18 117.1 1030.17 115.774 1031.84 114.103" stroke="#ECE8DE" stroke-width="0.28125" stroke-miterlimit="10" stroke-linecap="round" stroke-linejoin="round" stroke-dasharray="0.56 1.12"/>
<path d="M1000.02 82.2831C997.514 84.7903 995.525 87.7668 994.168 91.0425C992.811 94.3183 992.113 97.8293 992.113 101.375C992.113 104.921 992.811 108.432 994.168 111.707C995.525 114.983 997.514 117.96 1000.02 120.467C1002.53 122.974 1005.5 124.963 1008.78 126.32C1012.06 127.677 1015.57 128.375 1019.11 128.375C1022.66 128.375 1026.17 127.677 1029.45 126.32C1032.72 124.963 1035.7 122.974 1038.2 120.467" stroke="#ECE8DE" stroke-width="0.28125" stroke-miterlimit="10" stroke-linecap="round" stroke-linejoin="round" stroke-dasharray="0.56 1.12"/>
<path d="M993.657 75.9192C986.905 82.6705 983.113 91.8272 983.113 101.375C983.113 110.923 986.905 120.08 993.657 126.831C1000.41 133.582 1009.56 137.375 1019.11 137.375C1028.66 137.375 1037.82 133.582 1044.57 126.831" stroke="#ECE8DE" stroke-width="0.28125" stroke-miterlimit="10" stroke-linecap="round" stroke-linejoin="round" stroke-dasharray="0.56 1.12"/>
<path d="M987.392 69.6546C991.558 65.4891 996.503 62.1847 1001.95 59.9303C1007.39 57.676 1013.22 56.5156 1019.11 56.5156C1025 56.5156 1030.84 57.676 1036.28 59.9303C1041.72 62.1847 1046.67 65.4891 1050.83 69.6546C1055 73.8202 1058.3 78.7655 1060.56 84.2081C1062.81 89.6507 1063.97 95.484 1063.97 101.375C1063.97 107.266 1062.81 113.099 1060.56 118.542C1058.3 123.985 1055 128.93 1050.83 133.095C1046.67 137.261 1041.72 140.565 1036.28 142.82C1030.84 145.074 1025 146.234 1019.11 146.234C1013.22 146.234 1007.39 145.074 1001.95 142.82C996.503 140.565 991.558 137.261 987.392 133.095C983.227 128.93 979.922 123.985 977.668 118.542C975.413 113.099 974.253 107.266 974.253 101.375C974.253 95.484 975.413 89.6506 977.668 84.208C979.922 78.7654 983.227 73.8202 987.392 69.6546L987.392 69.6546Z" stroke="#ECE8DE" stroke-width="0.28125" stroke-miterlimit="10" stroke-linecap="round" stroke-linejoin="round"/>
<path d="M987.293 133.194L1019.11 101.375" stroke="#ECE8DE" stroke-width="0.28125" stroke-miterlimit="10" stroke-linecap="round" stroke-linejoin="round" stroke-dasharray="0.56 1.12"/>
<circle cx="1063.66" cy="209.562" r="2.25" transform="rotate(-45 1063.66 209.562)" fill="#ECE8DE"/>
<path d="M1057.3 203.197C1058.98 201.509 1061.27 200.561 1063.66 200.561C1066.05 200.561 1068.34 201.509 1070.02 203.197C1071.71 204.885 1072.66 207.174 1072.66 209.561C1072.66 211.948 1071.71 214.237 1070.02 215.925" stroke="#ECE8DE" stroke-width="0.28125" stroke-miterlimit="10" stroke-linecap="round" stroke-linejoin="round" stroke-dasharray="0.56 1.12"/>
<path d="M1050.93 196.833C1052.6 195.162 1054.59 193.836 1056.77 192.931C1058.96 192.027 1061.3 191.561 1063.66 191.561C1066.02 191.561 1068.36 192.027 1070.55 192.931C1072.73 193.836 1074.72 195.162 1076.39 196.833C1078.06 198.505 1079.39 200.489 1080.29 202.673C1081.19 204.857 1081.66 207.198 1081.66 209.561C1081.66 211.925 1081.19 214.266 1080.29 216.45C1079.39 218.633 1078.06 220.618 1076.39 222.289" stroke="#ECE8DE" stroke-width="0.28125" stroke-miterlimit="10" stroke-linecap="round" stroke-linejoin="round" stroke-dasharray="0.56 1.12"/>
<path d="M1044.57 190.469C1047.08 187.962 1050.05 185.973 1053.33 184.616C1056.6 183.259 1060.11 182.561 1063.66 182.561C1067.21 182.561 1070.72 183.259 1073.99 184.616C1077.27 185.973 1080.24 187.962 1082.75 190.469C1085.26 192.976 1087.25 195.952 1088.6 199.228C1089.96 202.504 1090.66 206.015 1090.66 209.561C1090.66 213.106 1089.96 216.617 1088.6 219.893C1087.25 223.169 1085.26 226.145 1082.75 228.653" stroke="#ECE8DE" stroke-width="0.28125" stroke-miterlimit="10" stroke-linecap="round" stroke-linejoin="round" stroke-dasharray="0.56 1.12"/>
<path d="M1038.2 184.105C1044.96 177.354 1054.11 173.561 1063.66 173.561C1073.21 173.561 1082.36 177.354 1089.12 184.105C1095.87 190.857 1099.66 200.013 1099.66 209.561C1099.66 219.109 1095.87 228.266 1089.12 235.017" stroke="#ECE8DE" stroke-width="0.28125" stroke-miterlimit="10" stroke-linecap="round" stroke-linejoin="round" stroke-dasharray="0.56 1.12"/>
<path d="M1031.94 177.841C1036.11 173.676 1041.05 170.371 1046.49 168.117C1051.94 165.862 1057.77 164.702 1063.66 164.702C1069.55 164.702 1075.38 165.862 1080.83 168.117C1086.27 170.371 1091.21 173.676 1095.38 177.841C1099.55 182.007 1102.85 186.952 1105.1 192.395C1107.36 197.837 1108.52 203.671 1108.52 209.562C1108.52 215.453 1107.36 221.286 1105.1 226.728C1102.85 232.171 1099.55 237.116 1095.38 241.282C1091.21 245.447 1086.27 248.752 1080.83 251.006C1075.38 253.261 1069.55 254.421 1063.66 254.421C1057.77 254.421 1051.94 253.261 1046.49 251.006C1041.05 248.752 1036.11 245.447 1031.94 241.282C1027.77 237.116 1024.47 232.171 1022.22 226.728C1019.96 221.286 1018.8 215.453 1018.8 209.561C1018.8 203.67 1019.96 197.837 1022.22 192.395C1024.47 186.952 1027.77 182.007 1031.94 177.841L1031.94 177.841Z" stroke="#ECE8DE" stroke-width="0.28125" stroke-miterlimit="10" stroke-linecap="round" stroke-linejoin="round"/>
<path d="M1063.66 209.562L1095.48 177.742" stroke="#ECE8DE" stroke-width="0.28125" stroke-miterlimit="10" stroke-linecap="round" stroke-linejoin="round" stroke-dasharray="0.56 1.12"/>
<path d="M937.373 256.781C937.268 256.886 937.157 256.961 937.041 257.008C936.924 257.053 936.813 257.069 936.705 257.053C936.598 257.037 936.505 256.99 936.428 256.912C936.366 256.851 936.324 256.782 936.3 256.705C936.276 256.627 936.27 256.548 936.281 256.469C936.293 256.388 936.323 256.315 936.37 256.249L936.36 256.239C936.269 256.297 936.171 256.319 936.065 256.306C935.96 256.292 935.868 256.246 935.791 256.167C935.716 256.093 935.67 256.006 935.654 255.906C935.637 255.806 935.649 255.702 935.688 255.596C935.727 255.489 935.794 255.389 935.887 255.295C935.98 255.202 936.08 255.137 936.186 255.098C936.292 255.058 936.396 255.047 936.496 255.063C936.597 255.079 936.684 255.125 936.759 255.199C936.837 255.277 936.883 255.369 936.896 255.476C936.909 255.581 936.887 255.679 936.831 255.768L936.841 255.778C936.907 255.731 936.979 255.702 937.059 255.691C937.139 255.679 937.217 255.685 937.295 255.71C937.373 255.733 937.442 255.775 937.503 255.836C937.581 255.914 937.628 256.007 937.644 256.115C937.659 256.222 937.644 256.334 937.598 256.45C937.553 256.566 937.478 256.676 937.373 256.781ZM937.171 256.579C937.225 256.525 937.263 256.468 937.285 256.41C937.306 256.351 937.311 256.294 937.299 256.238C937.287 256.182 937.26 256.131 937.216 256.087C937.169 256.041 937.116 256.012 937.058 256C936.999 255.988 936.939 255.992 936.878 256.012C936.818 256.032 936.762 256.067 936.711 256.118C936.659 256.17 936.623 256.226 936.603 256.287C936.583 256.348 936.579 256.408 936.591 256.467C936.603 256.526 936.632 256.578 936.679 256.623C936.723 256.668 936.773 256.696 936.829 256.708C936.884 256.719 936.942 256.714 937 256.693C937.06 256.672 937.117 256.633 937.171 256.579ZM936.512 255.92C936.557 255.876 936.587 255.828 936.603 255.776C936.619 255.724 936.621 255.672 936.609 255.62C936.597 255.568 936.57 255.521 936.529 255.479C936.487 255.438 936.441 255.411 936.39 255.399C936.339 255.387 936.288 255.39 936.237 255.407C936.185 255.424 936.137 255.455 936.092 255.5C936.046 255.545 936.015 255.594 935.998 255.647C935.98 255.698 935.978 255.749 935.99 255.8C936.002 255.85 936.029 255.895 936.071 255.936C936.112 255.979 936.159 256.006 936.21 256.019C936.261 256.031 936.313 256.028 936.366 256.012C936.419 255.996 936.468 255.965 936.512 255.92ZM938.685 255.484C938.569 255.601 938.44 255.671 938.298 255.696C938.155 255.719 938.006 255.697 937.85 255.631C937.693 255.563 937.536 255.45 937.379 255.292C937.221 255.134 937.11 254.978 937.043 254.823C936.977 254.667 936.956 254.518 936.98 254.377C937.005 254.235 937.076 254.107 937.192 253.991C937.307 253.875 937.436 253.805 937.578 253.78C937.72 253.755 937.868 253.776 938.024 253.842C938.179 253.909 938.336 254.021 938.493 254.178C938.651 254.336 938.764 254.494 938.831 254.65C938.899 254.806 938.92 254.955 938.896 255.097C938.872 255.239 938.802 255.368 938.685 255.484ZM938.464 255.263C938.555 255.173 938.581 255.057 938.545 254.916C938.508 254.774 938.403 254.616 938.229 254.442C938.114 254.327 938.006 254.243 937.903 254.188C937.801 254.134 937.709 254.109 937.625 254.114C937.541 254.117 937.47 254.149 937.41 254.209C937.32 254.299 937.294 254.415 937.331 254.556C937.367 254.698 937.472 254.855 937.644 255.027C937.758 255.143 937.867 255.229 937.969 255.284C938.072 255.338 938.165 255.364 938.249 255.36C938.332 255.356 938.404 255.324 938.464 255.263Z" fill="#ECE8DE"/>
<path d="M935.806 259.899L936.602 260.695" stroke="#5597FF" stroke-width="0.28125" stroke-linecap="round"/>
<path d="M936.204 260.297L968.024 228.477" stroke="#5597FF" stroke-width="0.28125" stroke-dasharray="0.56 0.84"/>
<path d="M967.626 228.079L968.421 228.875" stroke="#5597FF" stroke-width="0.28125" stroke-linecap="round"/>
<path d="M969.238 224.917C969.136 225.018 969.028 225.091 968.914 225.136C968.801 225.179 968.69 225.193 968.582 225.177C968.475 225.16 968.379 225.113 968.294 225.034L968.56 224.768C968.601 224.805 968.648 224.826 968.701 224.832C968.753 224.837 968.807 224.828 968.862 224.805C968.917 224.782 968.969 224.746 969.017 224.698C969.069 224.646 969.106 224.591 969.128 224.533C969.15 224.475 969.156 224.418 969.146 224.363C969.136 224.308 969.11 224.259 969.067 224.218C969.024 224.173 968.974 224.146 968.917 224.136C968.861 224.125 968.801 224.133 968.739 224.158C968.676 224.182 968.615 224.225 968.554 224.286L968.426 224.414L968.224 224.212L968.352 224.084C968.402 224.034 968.437 223.981 968.457 223.926C968.478 223.87 968.484 223.816 968.474 223.763C968.463 223.709 968.437 223.662 968.395 223.62C968.354 223.579 968.309 223.552 968.26 223.541C968.211 223.529 968.162 223.531 968.111 223.548C968.06 223.565 968.013 223.595 967.967 223.641C967.923 223.685 967.89 223.734 967.868 223.787C967.847 223.841 967.839 223.894 967.846 223.947C967.852 223.999 967.875 224.046 967.914 224.088L967.662 224.34C967.582 224.258 967.535 224.163 967.518 224.057C967.502 223.95 967.514 223.842 967.555 223.732C967.595 223.622 967.662 223.52 967.756 223.427C967.853 223.33 967.955 223.264 968.062 223.23C968.169 223.194 968.273 223.187 968.373 223.208C968.473 223.23 968.559 223.278 968.633 223.351C968.715 223.432 968.759 223.524 968.765 223.628C968.772 223.731 968.745 223.83 968.684 223.925L968.695 223.937C968.811 223.849 968.927 223.809 969.042 223.816C969.158 223.822 969.26 223.87 969.35 223.961C969.431 224.042 969.481 224.138 969.498 224.248C969.516 224.357 969.503 224.47 969.459 224.587C969.415 224.703 969.341 224.813 969.238 224.917ZM969.994 224.121L969.805 223.931L969.815 222.937C969.815 222.841 969.811 222.757 969.806 222.688C969.8 222.618 969.788 222.558 969.768 222.506C969.749 222.455 969.719 222.409 969.679 222.369C969.634 222.324 969.584 222.295 969.531 222.283C969.477 222.271 969.424 222.274 969.369 222.292C969.315 222.311 969.265 222.343 969.219 222.389C969.171 222.437 969.14 222.488 969.124 222.544C969.107 222.599 969.107 222.654 969.123 222.71C969.139 222.765 969.172 222.817 969.222 222.866L968.972 223.116C968.881 223.024 968.822 222.923 968.796 222.813C968.77 222.704 968.775 222.594 968.811 222.483C968.848 222.372 968.914 222.268 969.01 222.173C969.107 222.076 969.21 222.009 969.32 221.972C969.43 221.934 969.536 221.927 969.64 221.95C969.744 221.972 969.836 222.023 969.917 222.104C969.972 222.159 970.014 222.222 970.046 222.295C970.077 222.368 970.099 222.462 970.11 222.578C970.122 222.694 970.126 222.843 970.123 223.027L970.127 223.53L970.137 223.54L970.767 222.91L970.986 223.129L969.994 224.121Z" fill="#ECE8DE"/>
<path d="M967.626 228.08L968.421 228.876" stroke="#5597FF" stroke-width="0.28125" stroke-linecap="round"/>
<path d="M968.024 228.478L980.752 215.75" stroke="#5597FF" stroke-width="0.28125" stroke-dasharray="0.56 0.84"/>
<path d="M980.354 215.353L981.149 216.148" stroke="#5597FF" stroke-width="0.28125" stroke-linecap="round"/>
<path d="M981.921 212.233C981.816 212.338 981.705 212.414 981.588 212.46C981.472 212.505 981.36 212.521 981.253 212.506C981.145 212.49 981.053 212.442 980.975 212.364C980.914 212.303 980.871 212.234 980.847 212.157C980.823 212.079 980.817 212 980.829 211.921C980.841 211.84 980.87 211.767 980.917 211.701L980.907 211.691C980.817 211.749 980.718 211.772 980.613 211.758C980.507 211.744 980.416 211.698 980.338 211.619C980.263 211.545 980.218 211.458 980.201 211.358C980.185 211.258 980.196 211.154 980.236 211.048C980.275 210.941 980.341 210.841 980.435 210.747C980.528 210.654 980.627 210.589 980.734 210.55C980.84 210.511 980.943 210.499 981.044 210.515C981.144 210.531 981.232 210.577 981.306 210.651C981.385 210.729 981.43 210.821 981.443 210.928C981.457 211.033 981.435 211.131 981.378 211.22L981.388 211.23C981.454 211.183 981.527 211.154 981.607 211.143C981.686 211.132 981.765 211.138 981.842 211.162C981.921 211.185 981.99 211.227 982.051 211.288C982.129 211.366 982.176 211.459 982.191 211.567C982.206 211.674 982.191 211.786 982.145 211.902C982.1 212.018 982.025 212.128 981.921 212.233ZM981.719 212.031C981.773 211.977 981.811 211.921 981.833 211.862C981.854 211.803 981.858 211.746 981.847 211.69C981.835 211.634 981.807 211.584 981.763 211.539C981.717 211.493 981.664 211.464 981.605 211.453C981.546 211.44 981.487 211.444 981.426 211.464C981.366 211.484 981.31 211.519 981.258 211.571C981.207 211.622 981.171 211.679 981.15 211.739C981.13 211.8 981.126 211.86 981.138 211.919C981.151 211.978 981.18 212.03 981.227 212.076C981.27 212.12 981.32 212.148 981.376 212.16C981.432 212.172 981.489 212.167 981.548 212.145C981.607 212.124 981.664 212.086 981.719 212.031ZM981.06 211.372C981.104 211.328 981.134 211.28 981.15 211.228C981.167 211.176 981.169 211.124 981.157 211.072C981.144 211.02 981.118 210.973 981.076 210.931C981.034 210.89 980.988 210.863 980.938 210.852C980.887 210.839 980.836 210.842 980.785 210.859C980.733 210.876 980.684 210.907 980.64 210.952C980.594 210.998 980.563 211.047 980.545 211.099C980.528 211.15 980.525 211.201 980.537 211.252C980.55 211.302 980.577 211.347 980.619 211.388C980.66 211.431 980.706 211.458 980.758 211.471C980.809 211.483 980.861 211.481 980.914 211.465C980.967 211.448 981.015 211.417 981.06 211.372ZM983.233 210.937C983.117 211.053 982.987 211.123 982.845 211.148C982.703 211.171 982.554 211.15 982.397 211.083C982.241 211.015 982.084 210.902 981.926 210.744C981.769 210.586 981.657 210.43 981.591 210.275C981.524 210.119 981.504 209.97 981.528 209.829C981.553 209.687 981.623 209.559 981.739 209.443C981.855 209.327 981.984 209.257 982.125 209.232C982.267 209.207 982.416 209.228 982.571 209.295C982.727 209.361 982.884 209.473 983.041 209.63C983.199 209.788 983.312 209.946 983.379 210.102C983.446 210.258 983.468 210.407 983.443 210.55C983.419 210.691 983.349 210.82 983.233 210.937ZM983.012 210.715C983.102 210.625 983.129 210.509 983.092 210.368C983.056 210.226 982.95 210.068 982.777 209.894C982.662 209.779 982.553 209.695 982.451 209.641C982.349 209.586 982.256 209.562 982.173 209.566C982.089 209.57 982.017 209.601 981.957 209.661C981.867 209.751 981.841 209.867 981.878 210.009C981.915 210.15 982.019 210.307 982.191 210.48C982.306 210.595 982.415 210.681 982.517 210.736C982.619 210.791 982.713 210.816 982.796 210.812C982.88 210.808 982.952 210.776 983.012 210.715Z" fill="#ECE8DE"/>
<path d="M980.354 215.352L981.149 216.147" stroke="#5597FF" stroke-width="0.28125" stroke-linecap="round"/>
<path d="M980.751 215.749L1012.57 183.929" stroke="#5597FF" stroke-width="0.28125" stroke-dasharray="0.56 0.84"/>
<path d="M1012.17 183.531L1012.97 184.327" stroke="#5597FF" stroke-width="0.28125" stroke-linecap="round"/>
<path d="M1013.79 180.369C1013.68 180.471 1013.58 180.544 1013.46 180.588C1013.35 180.632 1013.24 180.645 1013.13 180.629C1013.02 180.612 1012.93 180.565 1012.84 180.486L1013.11 180.221C1013.15 180.257 1013.2 180.279 1013.25 180.284C1013.3 180.289 1013.35 180.28 1013.41 180.257C1013.46 180.234 1013.52 180.198 1013.57 180.15C1013.62 180.098 1013.65 180.043 1013.68 179.985C1013.7 179.927 1013.7 179.87 1013.69 179.815C1013.68 179.76 1013.66 179.712 1013.61 179.67C1013.57 179.625 1013.52 179.598 1013.46 179.588C1013.41 179.577 1013.35 179.585 1013.29 179.61C1013.22 179.634 1013.16 179.677 1013.1 179.738L1012.97 179.866L1012.77 179.664L1012.9 179.536C1012.95 179.486 1012.98 179.433 1013.01 179.378C1013.03 179.323 1013.03 179.268 1013.02 179.215C1013.01 179.161 1012.98 179.114 1012.94 179.072C1012.9 179.031 1012.86 179.004 1012.81 178.993C1012.76 178.981 1012.71 178.983 1012.66 179C1012.61 179.017 1012.56 179.048 1012.51 179.093C1012.47 179.137 1012.44 179.186 1012.42 179.24C1012.39 179.293 1012.39 179.347 1012.39 179.399C1012.4 179.452 1012.42 179.499 1012.46 179.54L1012.21 179.793C1012.13 179.71 1012.08 179.615 1012.07 179.509C1012.05 179.403 1012.06 179.294 1012.1 179.185C1012.14 179.074 1012.21 178.972 1012.3 178.879C1012.4 178.782 1012.5 178.717 1012.61 178.682C1012.72 178.646 1012.82 178.639 1012.92 178.661C1013.02 178.682 1013.11 178.73 1013.18 178.803C1013.26 178.884 1013.31 178.976 1013.31 179.08C1013.32 179.183 1013.29 179.282 1013.23 179.377L1013.24 179.389C1013.36 179.301 1013.47 179.261 1013.59 179.268C1013.71 179.274 1013.81 179.323 1013.9 179.413C1013.98 179.494 1014.03 179.59 1014.05 179.7C1014.06 179.809 1014.05 179.922 1014.01 180.039C1013.96 180.155 1013.89 180.265 1013.79 180.369ZM1014.54 179.573L1014.35 179.384L1014.36 178.389C1014.36 178.293 1014.36 178.21 1014.35 178.14C1014.35 178.07 1014.34 178.01 1014.32 177.958C1014.3 177.907 1014.27 177.861 1014.23 177.821C1014.18 177.776 1014.13 177.747 1014.08 177.735C1014.03 177.723 1013.97 177.726 1013.92 177.744C1013.86 177.763 1013.81 177.795 1013.77 177.841C1013.72 177.889 1013.69 177.94 1013.67 177.996C1013.65 178.051 1013.65 178.106 1013.67 178.162C1013.69 178.217 1013.72 178.269 1013.77 178.319L1013.52 178.568C1013.43 178.476 1013.37 178.375 1013.34 178.266C1013.32 178.156 1013.32 178.046 1013.36 177.935C1013.4 177.824 1013.46 177.721 1013.56 177.625C1013.65 177.528 1013.76 177.461 1013.87 177.424C1013.98 177.387 1014.08 177.379 1014.19 177.402C1014.29 177.424 1014.38 177.476 1014.47 177.557C1014.52 177.611 1014.56 177.674 1014.59 177.747C1014.63 177.82 1014.65 177.915 1014.66 178.03C1014.67 178.146 1014.67 178.295 1014.67 178.48L1014.67 178.982L1014.68 178.992L1015.31 178.362L1015.53 178.581L1014.54 179.573Z" fill="#ECE8DE"/>
<path d="M1012.17 183.532L1012.97 184.328" stroke="#5597FF" stroke-width="0.28125" stroke-linecap="round"/>
<path d="M1012.57 183.93L1025.3 171.202" stroke="#5597FF" stroke-width="0.28125" stroke-dasharray="0.56 0.84"/>
<path d="M1024.9 170.805L1025.7 171.6" stroke="#5597FF" stroke-width="0.28125" stroke-linecap="round"/>
<path d="M1026.47 167.685C1026.36 167.79 1026.25 167.866 1026.14 167.912C1026.02 167.958 1025.91 167.973 1025.8 167.958C1025.69 167.942 1025.6 167.894 1025.52 167.816C1025.46 167.756 1025.42 167.687 1025.4 167.609C1025.37 167.531 1025.37 167.453 1025.38 167.373C1025.39 167.292 1025.42 167.219 1025.47 167.153L1025.46 167.143C1025.36 167.201 1025.27 167.224 1025.16 167.211C1025.06 167.196 1024.96 167.15 1024.89 167.071C1024.81 166.998 1024.77 166.91 1024.75 166.81C1024.73 166.71 1024.74 166.607 1024.78 166.5C1024.82 166.393 1024.89 166.293 1024.98 166.199C1025.08 166.106 1025.18 166.041 1025.28 166.002C1025.39 165.963 1025.49 165.951 1025.59 165.968C1025.69 165.984 1025.78 166.029 1025.85 166.103C1025.93 166.181 1025.98 166.274 1025.99 166.38C1026 166.486 1025.98 166.583 1025.93 166.672L1025.94 166.682C1026 166.635 1026.07 166.606 1026.15 166.595C1026.23 166.584 1026.31 166.59 1026.39 166.614C1026.47 166.637 1026.54 166.679 1026.6 166.74C1026.68 166.818 1026.72 166.911 1026.74 167.019C1026.75 167.127 1026.74 167.238 1026.69 167.355C1026.65 167.47 1026.57 167.581 1026.47 167.685ZM1026.27 167.483C1026.32 167.429 1026.36 167.373 1026.38 167.314C1026.4 167.256 1026.41 167.198 1026.39 167.142C1026.38 167.086 1026.36 167.036 1026.31 166.991C1026.26 166.945 1026.21 166.917 1026.15 166.905C1026.09 166.892 1026.03 166.896 1025.97 166.916C1025.91 166.936 1025.86 166.971 1025.81 167.023C1025.75 167.074 1025.72 167.131 1025.7 167.191C1025.68 167.252 1025.67 167.312 1025.69 167.372C1025.7 167.43 1025.73 167.482 1025.77 167.528C1025.82 167.572 1025.87 167.601 1025.92 167.612C1025.98 167.624 1026.04 167.619 1026.1 167.598C1026.16 167.576 1026.21 167.538 1026.27 167.483ZM1025.61 166.824C1025.65 166.78 1025.68 166.732 1025.7 166.68C1025.71 166.628 1025.72 166.576 1025.7 166.524C1025.69 166.472 1025.67 166.425 1025.62 166.383C1025.58 166.342 1025.54 166.316 1025.49 166.304C1025.43 166.292 1025.38 166.294 1025.33 166.312C1025.28 166.328 1025.23 166.359 1025.19 166.404C1025.14 166.45 1025.11 166.499 1025.09 166.551C1025.08 166.602 1025.07 166.653 1025.09 166.704C1025.1 166.754 1025.12 166.8 1025.17 166.84C1025.21 166.883 1025.25 166.91 1025.31 166.923C1025.36 166.935 1025.41 166.933 1025.46 166.917C1025.51 166.9 1025.56 166.869 1025.61 166.824ZM1027.78 166.389C1027.66 166.505 1027.54 166.575 1027.39 166.6C1027.25 166.623 1027.1 166.602 1026.95 166.535C1026.79 166.467 1026.63 166.354 1026.47 166.197C1026.32 166.038 1026.21 165.882 1026.14 165.727C1026.07 165.571 1026.05 165.423 1026.08 165.281C1026.1 165.14 1026.17 165.011 1026.29 164.895C1026.4 164.779 1026.53 164.709 1026.67 164.684C1026.82 164.659 1026.96 164.68 1027.12 164.747C1027.27 164.813 1027.43 164.925 1027.59 165.082C1027.75 165.24 1027.86 165.398 1027.93 165.555C1027.99 165.71 1028.02 165.859 1027.99 166.002C1027.97 166.143 1027.9 166.272 1027.78 166.389ZM1027.56 166.168C1027.65 166.077 1027.68 165.961 1027.64 165.82C1027.6 165.678 1027.5 165.52 1027.32 165.346C1027.21 165.231 1027.1 165.147 1027 165.093C1026.9 165.039 1026.8 165.014 1026.72 165.018C1026.64 165.022 1026.57 165.053 1026.51 165.113C1026.42 165.203 1026.39 165.319 1026.43 165.461C1026.46 165.602 1026.57 165.759 1026.74 165.932C1026.85 166.048 1026.96 166.133 1027.06 166.188C1027.17 166.243 1027.26 166.268 1027.34 166.264C1027.43 166.26 1027.5 166.228 1027.56 166.168Z" fill="#ECE8DE"/>
<path d="M1024.9 170.804L1025.7 171.599" stroke="#5597FF" stroke-width="0.28125" stroke-linecap="round"/>
<path d="M1025.3 171.201L1057.12 139.381" stroke="#5597FF" stroke-width="0.28125" stroke-dasharray="0.56 0.84"/>
<path d="M1056.72 138.983L1057.52 139.779" stroke="#5597FF" stroke-width="0.28125" stroke-linecap="round"/>
<path d="M862.625 181.43L864.071 182.877L863.809 183.139L862.618 181.947L862.609 181.956L862.487 182.51L862.247 182.27L862.375 181.679L862.625 181.43ZM864.988 181.999C864.918 182.068 864.838 182.124 864.749 182.166C864.659 182.208 864.561 182.228 864.455 182.227C864.348 182.226 864.234 182.196 864.113 182.138C863.992 182.079 863.866 181.983 863.733 181.85C863.61 181.726 863.512 181.602 863.442 181.479C863.371 181.356 863.327 181.236 863.31 181.119C863.292 181.003 863.3 180.892 863.334 180.787C863.369 180.681 863.43 180.585 863.517 180.499C863.608 180.408 863.706 180.345 863.812 180.311C863.918 180.276 864.024 180.268 864.13 180.287C864.235 180.305 864.331 180.348 864.419 180.415L864.161 180.673C864.093 180.631 864.021 180.614 863.947 180.622C863.874 180.629 863.806 180.663 863.743 180.725C863.643 180.826 863.609 180.946 863.642 181.088C863.676 181.228 863.768 181.375 863.92 181.528L863.93 181.518C863.911 181.453 863.906 181.388 863.913 181.321C863.92 181.255 863.939 181.191 863.969 181.129C863.999 181.066 864.04 181.008 864.092 180.956C864.176 180.872 864.273 180.816 864.38 180.789C864.489 180.762 864.598 180.764 864.709 180.795C864.819 180.826 864.919 180.888 865.01 180.98C865.106 181.074 865.17 181.181 865.202 181.301C865.233 181.42 865.232 181.54 865.197 181.662C865.162 181.783 865.092 181.896 864.988 181.999ZM864.774 181.789C864.826 181.738 864.859 181.679 864.875 181.614C864.89 181.548 864.889 181.483 864.87 181.417C864.851 181.351 864.815 181.292 864.762 181.239C864.71 181.187 864.652 181.152 864.587 181.133C864.523 181.114 864.458 181.112 864.394 181.127C864.329 181.143 864.271 181.176 864.22 181.227C864.182 181.266 864.154 181.308 864.135 181.356C864.117 181.404 864.108 181.453 864.11 181.503C864.111 181.553 864.121 181.602 864.141 181.65C864.161 181.697 864.189 181.74 864.227 181.778C864.278 181.828 864.336 181.863 864.402 181.882C864.467 181.901 864.533 181.904 864.599 181.888C864.665 181.873 864.723 181.84 864.774 181.789ZM866.29 180.713C866.174 180.829 866.044 180.899 865.902 180.924C865.76 180.947 865.611 180.926 865.455 180.859C865.298 180.791 865.141 180.678 864.984 180.521C864.826 180.362 864.714 180.206 864.648 180.051C864.582 179.895 864.561 179.747 864.585 179.605C864.61 179.464 864.681 179.335 864.796 179.219C864.912 179.103 865.041 179.033 865.183 179.008C865.324 178.983 865.473 179.004 865.628 179.071C865.784 179.137 865.941 179.249 866.098 179.406C866.256 179.564 866.369 179.722 866.436 179.879C866.504 180.034 866.525 180.183 866.5 180.326C866.476 180.467 866.406 180.596 866.29 180.713ZM866.069 180.492C866.159 180.401 866.186 180.285 866.149 180.144C866.113 180.002 866.008 179.844 865.834 179.67C865.719 179.555 865.61 179.471 865.508 179.417C865.406 179.363 865.313 179.338 865.23 179.342C865.146 179.346 865.074 179.377 865.015 179.437C864.925 179.527 864.898 179.643 864.935 179.785C864.972 179.926 865.076 180.083 865.248 180.256C865.363 180.372 865.472 180.457 865.574 180.512C865.677 180.567 865.77 180.592 865.854 180.588C865.937 180.584 866.009 180.552 866.069 180.492Z" fill="#ECE8DE"/>
<path d="M862.223 186.315L863.019 187.111" stroke="#5597FF" stroke-width="0.28125" stroke-linecap="round"/>
<path d="M862.621 186.713L926.26 123.073" stroke="#5597FF" stroke-width="0.28125" stroke-dasharray="0.56 0.84"/>
<path d="M925.863 122.676L926.658 123.471" stroke="#5597FF" stroke-width="0.28125" stroke-linecap="round"/>
<path d="M1013.39 332.707C1013.29 332.808 1013.18 332.881 1013.06 332.926C1012.95 332.969 1012.84 332.983 1012.73 332.967C1012.62 332.95 1012.53 332.902 1012.44 332.824L1012.71 332.558C1012.75 332.595 1012.8 332.616 1012.85 332.622C1012.9 332.627 1012.96 332.618 1013.01 332.595C1013.07 332.572 1013.12 332.536 1013.17 332.488C1013.22 332.436 1013.26 332.381 1013.28 332.323C1013.3 332.265 1013.31 332.208 1013.3 332.153C1013.29 332.098 1013.26 332.049 1013.22 332.007C1013.17 331.963 1013.12 331.936 1013.07 331.926C1013.01 331.915 1012.95 331.922 1012.89 331.947C1012.83 331.972 1012.76 332.015 1012.7 332.076L1012.58 332.204L1012.37 332.002L1012.5 331.874C1012.55 331.824 1012.59 331.771 1012.61 331.716C1012.63 331.66 1012.63 331.606 1012.62 331.553C1012.61 331.499 1012.59 331.451 1012.54 331.41C1012.5 331.369 1012.46 331.342 1012.41 331.331C1012.36 331.319 1012.31 331.321 1012.26 331.338C1012.21 331.354 1012.16 331.385 1012.12 331.43C1012.07 331.475 1012.04 331.524 1012.02 331.577C1012 331.631 1011.99 331.684 1012 331.737C1012 331.789 1012.02 331.836 1012.06 331.878L1011.81 332.13C1011.73 332.047 1011.68 331.953 1011.67 331.847C1011.65 331.74 1011.66 331.632 1011.7 331.522C1011.74 331.412 1011.81 331.31 1011.91 331.216C1012 331.12 1012.1 331.054 1012.21 331.019C1012.32 330.984 1012.42 330.977 1012.52 330.998C1012.62 331.02 1012.71 331.067 1012.78 331.141C1012.86 331.222 1012.91 331.314 1012.91 331.418C1012.92 331.521 1012.89 331.62 1012.83 331.715L1012.85 331.726C1012.96 331.639 1013.08 331.599 1013.19 331.606C1013.31 331.612 1013.41 331.66 1013.5 331.751C1013.58 331.832 1013.63 331.928 1013.65 332.038C1013.67 332.147 1013.65 332.26 1013.61 332.377C1013.56 332.493 1013.49 332.603 1013.39 332.707ZM1014.71 331.403C1014.59 331.52 1014.46 331.59 1014.32 331.615C1014.18 331.638 1014.03 331.616 1013.87 331.55C1013.71 331.482 1013.56 331.369 1013.4 331.211C1013.24 331.053 1013.13 330.897 1013.06 330.742C1013 330.586 1012.98 330.437 1013 330.296C1013.03 330.154 1013.1 330.026 1013.21 329.91C1013.33 329.794 1013.46 329.724 1013.6 329.699C1013.74 329.674 1013.89 329.695 1014.04 329.761C1014.2 329.828 1014.36 329.94 1014.51 330.097C1014.67 330.255 1014.78 330.413 1014.85 330.569C1014.92 330.725 1014.94 330.874 1014.92 331.016C1014.89 331.158 1014.82 331.287 1014.71 331.403ZM1014.49 331.182C1014.58 331.092 1014.6 330.976 1014.57 330.835C1014.53 330.693 1014.42 330.535 1014.25 330.361C1014.14 330.246 1014.03 330.162 1013.92 330.108C1013.82 330.053 1013.73 330.028 1013.65 330.033C1013.56 330.036 1013.49 330.068 1013.43 330.128C1013.34 330.218 1013.31 330.334 1013.35 330.475C1013.39 330.617 1013.49 330.774 1013.66 330.947C1013.78 331.062 1013.89 331.148 1013.99 331.203C1014.09 331.257 1014.19 331.283 1014.27 331.279C1014.35 331.275 1014.42 331.243 1014.49 331.182ZM1015.18 330.342L1014.97 330.133L1014.61 328.55L1014.79 328.376L1015.08 328.673L1014.98 328.779L1015.22 329.847L1015.23 329.858L1016.09 329.001L1016.3 329.217L1015.18 330.342ZM1016.13 329.92L1015.8 329.588L1015.71 329.492L1014.69 328.471L1014.94 328.224L1016.38 329.67L1016.13 329.92Z" fill="#ECE8DE"/>
<path d="M1011.78 335.869L1012.57 336.665" stroke="#5597FF" stroke-width="0.28125" stroke-linecap="round"/>
<path d="M1012.17 336.267L1133.09 215.351" stroke="#5597FF" stroke-width="0.28125" stroke-dasharray="0.56 0.84"/>
<path d="M1132.69 214.954L1133.49 215.75" stroke="#5597FF" stroke-width="0.28125" stroke-linecap="round"/>
<path d="M994.055 62.792L993.259 63.5875" stroke="#5597FF" stroke-width="0.28125" stroke-linecap="round"/>
<path d="M993.657 63.1904L1133.66 203.198" stroke="#5597FF" stroke-width="0.28125" stroke-dasharray="0.56 0.84"/>
<path d="M1133.27 203.595L1134.06 202.799" stroke="#5597FF" stroke-width="0.28125" stroke-linecap="round"/>
<path d="M1009.09 74.4893C1008.99 74.591 1008.88 74.664 1008.77 74.7082C1008.65 74.752 1008.54 74.7657 1008.44 74.7492C1008.33 74.7327 1008.23 74.6851 1008.15 74.6065L1008.41 74.341C1008.45 74.3777 1008.5 74.3989 1008.55 74.4045C1008.61 74.4097 1008.66 74.4008 1008.72 74.3777C1008.77 74.3546 1008.82 74.3189 1008.87 74.2704C1008.92 74.2186 1008.96 74.1637 1008.98 74.1058C1009 74.0474 1009.01 73.9907 1009 73.9356C1008.99 73.8805 1008.96 73.832 1008.92 73.7901C1008.88 73.7459 1008.83 73.7186 1008.77 73.7082C1008.71 73.6978 1008.65 73.7051 1008.59 73.7301C1008.53 73.7546 1008.47 73.7974 1008.41 73.8586L1008.28 73.9865L1008.08 73.7845L1008.21 73.6566C1008.26 73.6063 1008.29 73.5535 1008.31 73.4985C1008.33 73.4429 1008.34 73.3885 1008.33 73.3353C1008.32 73.2816 1008.29 73.2341 1008.25 73.1927C1008.21 73.1512 1008.16 73.1249 1008.11 73.1136C1008.06 73.1013 1008.02 73.1037 1007.96 73.1206C1007.91 73.1371 1007.87 73.1679 1007.82 73.2131C1007.78 73.2574 1007.74 73.3064 1007.72 73.36C1007.7 73.4137 1007.69 73.4669 1007.7 73.5196C1007.71 73.5719 1007.73 73.619 1007.77 73.6609L1007.52 73.913C1007.44 73.8301 1007.39 73.7357 1007.37 73.6298C1007.36 73.5229 1007.37 73.4146 1007.41 73.3049C1007.45 73.1948 1007.52 73.0928 1007.61 72.9991C1007.71 72.9026 1007.81 72.837 1007.92 72.8021C1008.02 72.7663 1008.13 72.7593 1008.23 72.7809C1008.33 72.8026 1008.41 72.8501 1008.49 72.9236C1008.57 73.0046 1008.61 73.0968 1008.62 73.2004C1008.63 73.3035 1008.6 73.4026 1008.54 73.4977L1008.55 73.509C1008.66 73.4215 1008.78 73.3812 1008.9 73.3883C1009.01 73.3944 1009.11 73.4429 1009.2 73.5338C1009.28 73.6147 1009.33 73.7103 1009.35 73.8205C1009.37 73.9297 1009.36 74.0427 1009.31 74.1595C1009.27 74.2758 1009.19 74.3857 1009.09 74.4893ZM1010.37 73.2101C1010.28 73.3043 1010.17 73.3709 1010.06 73.41C1009.95 73.4486 1009.85 73.4587 1009.74 73.4404C1009.64 73.4215 1009.54 73.3735 1009.46 73.2963L1009.71 73.0421C1009.78 73.0967 1009.85 73.1195 1009.93 73.1106C1010.02 73.1011 1010.09 73.0637 1010.16 72.9983C1010.21 72.9469 1010.24 72.8895 1010.26 72.8259C1010.28 72.7624 1010.28 72.6981 1010.26 72.6331C1010.24 72.5682 1010.2 72.5091 1010.15 72.4559C1010.09 72.4008 1010.03 72.3638 1009.97 72.345C1009.9 72.3262 1009.84 72.3252 1009.77 72.3422C1009.71 72.3587 1009.65 72.3935 1009.59 72.4467C1009.55 72.4895 1009.51 72.5402 1009.49 72.5985C1009.46 72.6569 1009.45 72.7118 1009.45 72.7631L1009.18 72.9608L1008.51 72.1395L1009.35 71.3005L1009.57 71.5194L1008.94 72.1416L1009.29 72.5668L1009.29 72.5583C1009.29 72.4999 1009.3 72.4359 1009.33 72.3662C1009.36 72.296 1009.4 72.2318 1009.46 72.1734C1009.55 72.0858 1009.65 72.0284 1009.76 72.0011C1009.87 71.9733 1009.98 71.9756 1010.09 72.0081C1010.2 72.0406 1010.3 72.1032 1010.39 72.196C1010.49 72.2916 1010.55 72.3989 1010.58 72.518C1010.61 72.6362 1010.61 72.7558 1010.58 72.8768C1010.54 72.9969 1010.47 73.108 1010.37 73.2101ZM1011.11 72.4347L1010.92 72.2454L1010.93 71.2511C1010.93 71.1545 1010.92 71.0714 1010.92 71.0018C1010.91 70.9321 1010.9 70.8716 1010.88 70.8203C1010.86 70.7689 1010.83 70.7233 1010.79 70.6833C1010.75 70.6376 1010.7 70.6089 1010.64 70.5971C1010.59 70.5848 1010.54 70.5879 1010.48 70.6063C1010.43 70.6246 1010.38 70.6569 1010.33 70.703C1010.28 70.7506 1010.25 70.8021 1010.24 70.8577C1010.22 70.9128 1010.22 70.9681 1010.23 71.0237C1010.25 71.0787 1010.28 71.131 1010.33 71.1804L1010.08 71.4297C1009.99 71.3379 1009.93 71.2372 1009.91 71.1275C1009.88 71.0178 1009.89 70.9076 1009.92 70.797C1009.96 70.6858 1010.03 70.5825 1010.12 70.4869C1010.22 70.3899 1010.32 70.3228 1010.43 70.2856C1010.54 70.2484 1010.65 70.2412 1010.75 70.2638C1010.86 70.2859 1010.95 70.3374 1011.03 70.4184C1011.08 70.4726 1011.13 70.5361 1011.16 70.6091C1011.19 70.6821 1011.21 70.7765 1011.22 70.8923C1011.23 71.0076 1011.24 71.1574 1011.23 71.3415L1011.24 71.8443L1011.25 71.8542L1011.88 71.2242L1012.1 71.4432L1011.11 72.4347Z" fill="#ECE8DE"/>
<path opacity="0.1" d="M898.197 222.29C880.623 204.716 880.623 176.224 898.197 158.65V158.65L1006.38 266.837C1023.96 284.411 1023.96 312.903 1006.38 330.477V330.477L898.197 222.29Z" fill="#ECE8DE"/>
<path opacity="0.1" d="M942.745 177.742C925.171 160.168 925.171 131.676 942.745 114.102V114.102L1050.93 222.289C1068.51 239.863 1068.51 268.355 1050.93 285.929V285.929L942.745 177.742Z" fill="#ECE8DE"/>
<path opacity="0.1" d="M987.293 133.194C969.719 115.62 969.719 87.1278 987.293 69.5542V69.5542L1095.48 177.742C1113.05 195.315 1113.05 223.808 1095.48 241.381V241.381L987.293 133.194Z" fill="#ECE8DE"/>
</g>
<rect width="400" height="400" transform="translate(800 400)" fill="#142438"/>
<path d="M965.401 476.879V468.677H966.639V475.814H970.355V476.879H965.401ZM974.262 477.003C973.685 477.003 973.182 476.871 972.752 476.607C972.322 476.342 971.988 475.972 971.751 475.497C971.513 475.022 971.394 474.467 971.394 473.831C971.394 473.193 971.513 472.635 971.751 472.157C971.988 471.679 972.322 471.308 972.752 471.044C973.182 470.779 973.685 470.647 974.262 470.647C974.839 470.647 975.342 470.779 975.772 471.044C976.202 471.308 976.535 471.679 976.773 472.157C977.011 472.635 977.129 473.193 977.129 473.831C977.129 474.467 977.011 475.022 976.773 475.497C976.535 475.972 976.202 476.342 975.772 476.607C975.342 476.871 974.839 477.003 974.262 477.003ZM974.266 475.998C974.64 475.998 974.949 475.899 975.195 475.701C975.441 475.504 975.622 475.241 975.74 474.913C975.86 474.584 975.92 474.222 975.92 473.827C975.92 473.435 975.86 473.074 975.74 472.746C975.622 472.415 975.441 472.149 975.195 471.949C974.949 471.749 974.64 471.649 974.266 471.649C973.889 471.649 973.577 471.749 973.329 471.949C973.083 472.149 972.9 472.415 972.78 472.746C972.663 473.074 972.604 473.435 972.604 473.827C972.604 474.222 972.663 474.584 972.78 474.913C972.9 475.241 973.083 475.504 973.329 475.701C973.577 475.899 973.889 475.998 974.266 475.998ZM981.045 479.314C980.557 479.314 980.136 479.25 979.784 479.122C979.434 478.993 979.148 478.824 978.927 478.613C978.705 478.402 978.539 478.171 978.43 477.92L979.459 477.496C979.531 477.613 979.627 477.737 979.748 477.868C979.87 478.002 980.036 478.115 980.244 478.209C980.455 478.302 980.726 478.349 981.057 478.349C981.511 478.349 981.886 478.238 982.183 478.016C982.479 477.797 982.627 477.448 982.627 476.967V475.758H982.551C982.479 475.888 982.375 476.034 982.239 476.194C982.105 476.354 981.921 476.493 981.686 476.611C981.451 476.728 981.145 476.787 980.769 476.787C980.283 476.787 979.845 476.673 979.455 476.446C979.068 476.217 978.761 475.879 978.534 475.433C978.31 474.985 978.198 474.433 978.198 473.779C978.198 473.125 978.309 472.564 978.53 472.097C978.754 471.63 979.061 471.272 979.451 471.024C979.841 470.773 980.283 470.647 980.777 470.647C981.159 470.647 981.467 470.711 981.702 470.84C981.937 470.965 982.12 471.112 982.251 471.28C982.384 471.448 982.487 471.596 982.559 471.725H982.647V470.727H983.821V477.015C983.821 477.544 983.698 477.978 983.452 478.317C983.207 478.656 982.874 478.907 982.455 479.07C982.038 479.232 981.569 479.314 981.045 479.314ZM981.033 475.794C981.378 475.794 981.669 475.713 981.906 475.553C982.147 475.39 982.328 475.158 982.451 474.856C982.576 474.552 982.639 474.188 982.639 473.763C982.639 473.349 982.578 472.985 982.455 472.67C982.332 472.355 982.152 472.109 981.914 471.933C981.677 471.754 981.383 471.665 981.033 471.665C980.673 471.665 980.372 471.758 980.132 471.945C979.892 472.129 979.71 472.38 979.587 472.698C979.467 473.016 979.407 473.371 979.407 473.763C979.407 474.166 979.469 474.52 979.591 474.824C979.714 475.129 979.896 475.366 980.136 475.537C980.379 475.708 980.678 475.794 981.033 475.794ZM988.018 477.003C987.441 477.003 986.938 476.871 986.508 476.607C986.078 476.342 985.744 475.972 985.507 475.497C985.269 475.022 985.15 474.467 985.15 473.831C985.15 473.193 985.269 472.635 985.507 472.157C985.744 471.679 986.078 471.308 986.508 471.044C986.938 470.779 987.441 470.647 988.018 470.647C988.594 470.647 989.098 470.779 989.528 471.044C989.957 471.308 990.291 471.679 990.529 472.157C990.766 472.635 990.885 473.193 990.885 473.831C990.885 474.467 990.766 475.022 990.529 475.497C990.291 475.972 989.957 476.342 989.528 476.607C989.098 476.871 988.594 477.003 988.018 477.003ZM988.022 475.998C988.396 475.998 988.705 475.899 988.951 475.701C989.197 475.504 989.378 475.241 989.496 474.913C989.616 474.584 989.676 474.222 989.676 473.827C989.676 473.435 989.616 473.074 989.496 472.746C989.378 472.415 989.197 472.149 988.951 471.949C988.705 471.749 988.396 471.649 988.022 471.649C987.645 471.649 987.333 471.749 987.085 471.949C986.839 472.149 986.656 472.415 986.536 472.746C986.418 473.074 986.36 473.435 986.36 473.827C986.36 474.222 986.418 474.584 986.536 474.913C986.656 475.241 986.839 475.504 987.085 475.701C987.333 475.899 987.645 475.998 988.022 475.998ZM992.222 476.879V470.727H993.371V471.729H993.447C993.576 471.39 993.785 471.125 994.076 470.936C994.367 470.743 994.716 470.647 995.121 470.647C995.533 470.647 995.877 470.743 996.155 470.936C996.435 471.128 996.642 471.392 996.775 471.729H996.84C996.986 471.4 997.22 471.139 997.54 470.944C997.861 470.746 998.243 470.647 998.686 470.647C999.244 470.647 999.699 470.822 1000.05 471.172C1000.41 471.522 1000.58 472.049 1000.58 472.754V476.879H999.387V472.866C999.387 472.449 999.273 472.148 999.046 471.961C998.819 471.774 998.548 471.681 998.233 471.681C997.843 471.681 997.54 471.801 997.324 472.041C997.108 472.279 997 472.584 997 472.958V476.879H995.806V472.79C995.806 472.456 995.702 472.188 995.494 471.985C995.286 471.782 995.015 471.681 994.681 471.681C994.454 471.681 994.244 471.741 994.052 471.861C993.863 471.978 993.709 472.142 993.592 472.353C993.477 472.564 993.419 472.809 993.419 473.086V476.879H992.222ZM1003.98 477.015C1003.59 477.015 1003.24 476.943 1002.92 476.799C1002.61 476.652 1002.36 476.44 1002.17 476.162C1001.99 475.884 1001.9 475.544 1001.9 475.141C1001.9 474.794 1001.97 474.508 1002.1 474.284C1002.23 474.059 1002.41 473.882 1002.64 473.751C1002.87 473.62 1003.12 473.521 1003.4 473.455C1003.68 473.388 1003.97 473.337 1004.26 473.303C1004.63 473.26 1004.93 473.225 1005.16 473.198C1005.39 473.169 1005.55 473.122 1005.66 473.058C1005.76 472.994 1005.81 472.89 1005.81 472.746V472.718C1005.81 472.368 1005.71 472.097 1005.52 471.905C1005.32 471.713 1005.03 471.616 1004.64 471.616C1004.24 471.616 1003.92 471.706 1003.69 471.885C1003.46 472.061 1003.3 472.257 1003.21 472.474L1002.09 472.217C1002.22 471.843 1002.42 471.542 1002.67 471.312C1002.93 471.08 1003.23 470.912 1003.57 470.807C1003.9 470.701 1004.26 470.647 1004.63 470.647C1004.87 470.647 1005.13 470.677 1005.41 470.735C1005.69 470.791 1005.95 470.896 1006.19 471.048C1006.43 471.2 1006.63 471.418 1006.78 471.701C1006.94 471.981 1007.01 472.345 1007.01 472.794V476.879H1005.85V476.038H1005.8C1005.72 476.193 1005.6 476.345 1005.45 476.494C1005.29 476.644 1005.1 476.768 1004.85 476.867C1004.61 476.966 1004.32 477.015 1003.98 477.015ZM1004.24 476.054C1004.57 476.054 1004.85 475.988 1005.09 475.858C1005.33 475.727 1005.51 475.556 1005.63 475.345C1005.75 475.131 1005.82 474.903 1005.82 474.66V473.867C1005.77 473.91 1005.69 473.95 1005.57 473.987C1005.45 474.022 1005.31 474.053 1005.16 474.079C1005 474.104 1004.85 474.126 1004.7 474.148C1004.56 474.166 1004.43 474.182 1004.34 474.196C1004.1 474.225 1003.89 474.274 1003.7 474.344C1003.51 474.413 1003.36 474.513 1003.24 474.644C1003.13 474.772 1003.07 474.943 1003.07 475.157C1003.07 475.453 1003.18 475.677 1003.4 475.83C1003.62 475.979 1003.9 476.054 1004.24 476.054ZM1008.61 476.879V470.727H1009.77V471.705H1009.83C1009.94 471.374 1010.14 471.113 1010.42 470.924C1010.71 470.731 1011.03 470.635 1011.39 470.635C1011.47 470.635 1011.56 470.638 1011.66 470.643C1011.76 470.649 1011.84 470.655 1011.9 470.663V471.809C1011.85 471.795 1011.77 471.781 1011.65 471.765C1011.52 471.746 1011.4 471.737 1011.28 471.737C1010.99 471.737 1010.74 471.797 1010.52 471.917C1010.3 472.034 1010.13 472.199 1010 472.409C1009.87 472.618 1009.81 472.855 1009.81 473.122V476.879H1008.61ZM1014.04 474.792L1014.03 473.331H1014.24L1016.69 470.727H1018.12L1015.33 473.691H1015.14L1014.04 474.792ZM1012.94 476.879V468.677H1014.14V476.879H1012.94ZM1016.82 476.879L1014.62 473.955L1015.45 473.118L1018.29 476.879H1016.82ZM1025.3 468.677V476.879H1024.05V469.918H1024.01L1022.04 471.2V470.015L1024.09 468.677H1025.3ZM1032.9 468.677H1034.14V474.071C1034.14 474.646 1034.01 475.154 1033.74 475.597C1033.47 476.038 1033.09 476.385 1032.6 476.639C1032.11 476.89 1031.54 477.015 1030.88 477.015C1030.23 477.015 1029.66 476.89 1029.17 476.639C1028.68 476.385 1028.3 476.038 1028.03 475.597C1027.76 475.154 1027.63 474.646 1027.63 474.071V468.677H1028.86V473.971C1028.86 474.342 1028.95 474.672 1029.11 474.961C1029.27 475.249 1029.51 475.476 1029.81 475.641C1030.11 475.804 1030.47 475.886 1030.88 475.886C1031.3 475.886 1031.66 475.804 1031.96 475.641C1032.26 475.476 1032.5 475.249 1032.66 474.961C1032.82 474.672 1032.9 474.342 1032.9 473.971V468.677Z" fill="#ECE8DE"/>
<path d="M954.889 503.434L954.889 492.156L1045.11 492.156V503.434" stroke="#F3CB28" stroke-width="1.05729" stroke-linecap="round" stroke-linejoin="round"/>
<g clip-path="url(#clip3_4007_167914)">
<path d="M864.666 645.818H1135.33" stroke="#C6B69A" stroke-width="1.05729" stroke-linecap="round" stroke-dasharray="5.64 5.64"/>
<path d="M864.666 633.13H1135.33" stroke="#C6B69A" stroke-width="1.05729" stroke-linecap="round" stroke-dasharray="5.64 5.64"/>
</g>
<rect x="864.666" y="610.574" width="270.667" height="67.6667" stroke="#C6B69A" stroke-width="1.05729" stroke-dasharray="5.64 5.64"/>
<rect x="954.889" y="520.352" width="90.2222" height="90.2222" stroke="#C6B69A" stroke-width="1.05729" stroke-dasharray="5.64 5.64"/>
<path d="M1018.15 594.865L981.849 559.355C975.726 553.348 975.726 543.478 981.849 537.47L1018.04 572.98C1024.27 579.095 1024.27 588.857 1018.15 594.865ZM1001.42 589.394L965.12 553.884C958.997 559.892 958.997 569.762 965.12 575.769L1001.31 611.279C1007.54 605.271 1007.54 595.509 1001.42 589.394ZM998.579 542.942L1034.88 578.451C1041 572.444 1041 562.574 1034.88 556.566L998.579 521.057C992.455 527.064 992.455 536.934 998.579 542.942Z" fill="#ECE8DE"/>
<path d="M888.645 643.881C892.996 643.881 896.603 645.522 899.574 648.803L906.046 643.061C902.014 638.243 895.754 635.679 888.221 635.679C874.746 635.679 864.666 644.702 864.666 657.312C864.666 669.923 874.64 678.945 888.115 678.945C895.648 678.945 901.908 676.279 905.94 671.461L899.468 665.719C896.603 669 892.889 670.641 888.539 670.641C880.475 670.641 874.64 665.104 874.64 657.21C874.746 649.418 880.475 643.881 888.645 643.881ZM925.144 645.624C919.839 645.624 914.428 646.957 910.821 649.52L914.322 656.082C916.762 654.237 920.37 653.109 923.871 653.109C929.07 653.109 931.511 655.467 931.511 659.465H923.871C913.685 659.465 909.547 663.361 909.547 669.103C909.547 674.639 914.216 678.843 921.961 678.843C926.842 678.843 930.344 677.305 932.147 674.331V678.33H941.166V659.875C941.166 650.135 935.33 645.624 925.144 645.624ZM931.511 668.077C930.45 671.051 927.585 672.486 924.402 672.486C921.007 672.486 918.991 670.948 918.991 668.59C918.991 666.437 920.37 664.797 924.932 664.797H931.511V668.077ZM956.763 655.672C956.763 654.031 958.567 652.699 962.917 652.699C965.994 652.699 969.177 653.314 972.466 655.057L975.649 648.393C972.466 646.65 967.373 645.624 962.811 645.624C953.049 645.624 947.426 649.93 947.426 655.979C947.426 668.795 967.479 663.464 967.479 668.693C967.479 670.435 965.782 671.666 961.325 671.666C957.293 671.666 952.731 670.435 949.76 668.59L946.577 675.254C949.654 677.202 955.384 678.74 961.007 678.74C970.981 678.74 976.71 674.537 976.71 668.488C976.816 655.774 956.763 661.106 956.763 655.672ZM1015.33 662.233C1015.33 651.878 1007.8 645.522 998.037 645.522C987.851 645.522 980.318 652.494 980.318 662.131C980.318 671.666 987.851 678.638 999.31 678.638C1005.36 678.638 1009.92 676.895 1013 673.409L1007.9 668.077C1005.57 670.128 1003.13 671.153 999.522 671.153C994.429 671.153 990.928 668.693 989.973 664.694H1015.12C1015.23 663.976 1015.33 662.951 1015.33 662.233ZM989.867 659.363C990.503 655.262 993.686 652.699 998.143 652.699C1002.49 652.699 1005.68 655.364 1006.31 659.363H989.867ZM1045.99 633.834V649.418C1043.55 646.752 1040.16 645.522 1036.02 645.522C1026.58 645.522 1019.36 651.981 1019.36 662.131C1019.36 672.281 1026.58 678.638 1036.02 678.638C1040.48 678.638 1043.98 677.305 1046.42 674.434V678.125H1055.65V633.834H1045.99ZM1037.72 671.051C1032.94 671.051 1029.23 667.667 1029.23 662.131C1029.23 656.595 1032.94 653.211 1037.72 653.211C1042.49 653.211 1046.21 656.595 1046.21 662.131C1046.21 667.667 1042.49 671.051 1037.72 671.051ZM1079.42 645.624C1068.81 645.624 1061.06 652.494 1061.06 662.233C1061.06 671.871 1068.81 678.74 1079.42 678.74C1090.03 678.74 1097.67 671.871 1097.67 662.233C1097.67 652.494 1089.92 645.624 1079.42 645.624ZM1079.42 671.051C1074.64 671.051 1070.93 667.667 1070.93 662.131C1070.93 656.595 1074.64 653.211 1079.42 653.211C1084.19 653.211 1087.91 656.595 1087.91 662.131C1087.91 667.667 1084.19 671.051 1079.42 671.051ZM1120.27 671.051C1115.39 671.051 1111.57 667.77 1111.57 662.131C1111.57 656.492 1115.39 653.211 1120.27 653.211C1123.34 653.211 1126 654.544 1127.8 657.62L1135.33 653.724C1132.89 648.495 1127.38 645.522 1120.37 645.522C1109.55 645.522 1101.8 652.391 1101.8 662.131C1101.8 671.768 1109.55 678.638 1120.37 678.638C1127.38 678.638 1132.89 675.664 1135.33 670.538L1127.8 666.642C1126 669.718 1123.34 671.051 1120.27 671.051Z" fill="#ECE8DE"/>
<path d="M864.667 696.566L864.667 707.844L1135.33 707.844V696.566" stroke="#F3CB28" stroke-width="1.05729" stroke-linecap="round" stroke-linejoin="round"/>
<path d="M947.007 730.122L944.732 721.92H946.034L947.632 728.272H947.708L949.37 721.92H950.66L952.322 728.276H952.398L953.992 721.92H955.297L953.018 730.122H951.773L950.047 723.979H949.983L948.257 730.122H947.007ZM958.315 730.246C957.738 730.246 957.235 730.114 956.805 729.85C956.375 729.585 956.041 729.216 955.804 728.74C955.566 728.265 955.447 727.71 955.447 727.074C955.447 726.436 955.566 725.878 955.804 725.4C956.041 724.922 956.375 724.551 956.805 724.287C957.235 724.023 957.738 723.89 958.315 723.89C958.892 723.89 959.395 724.023 959.825 724.287C960.255 724.551 960.588 724.922 960.826 725.4C961.064 725.878 961.182 726.436 961.182 727.074C961.182 727.71 961.064 728.265 960.826 728.74C960.588 729.216 960.255 729.585 959.825 729.85C959.395 730.114 958.892 730.246 958.315 730.246ZM958.319 729.241C958.693 729.241 959.002 729.142 959.248 728.945C959.494 728.747 959.675 728.484 959.793 728.156C959.913 727.827 959.973 727.465 959.973 727.07C959.973 726.678 959.913 726.317 959.793 725.989C959.675 725.658 959.494 725.392 959.248 725.192C959.002 724.992 958.693 724.892 958.319 724.892C957.942 724.892 957.63 724.992 957.382 725.192C957.136 725.392 956.953 725.658 956.833 725.989C956.716 726.317 956.657 726.678 956.657 727.07C956.657 727.465 956.716 727.827 956.833 728.156C956.953 728.484 957.136 728.747 957.382 728.945C957.63 729.142 957.942 729.241 958.319 729.241ZM962.519 730.122V723.971H963.676V724.948H963.741C963.853 724.617 964.05 724.356 964.333 724.167C964.619 723.975 964.942 723.878 965.302 723.878C965.377 723.878 965.465 723.881 965.567 723.886C965.671 723.892 965.752 723.898 965.811 723.906V725.052C965.763 725.039 965.678 725.024 965.555 725.008C965.432 724.989 965.309 724.98 965.186 724.98C964.903 724.98 964.651 725.04 964.429 725.16C964.21 725.277 964.037 725.442 963.909 725.653C963.781 725.861 963.716 726.098 963.716 726.365V730.122H962.519ZM968.93 730.242C968.433 730.242 967.99 730.115 967.6 729.862C967.213 729.605 966.909 729.241 966.687 728.768C966.468 728.293 966.359 727.723 966.359 727.058C966.359 726.394 966.47 725.825 966.691 725.352C966.915 724.88 967.222 724.518 967.612 724.267C968.002 724.016 968.444 723.89 968.938 723.89C969.32 723.89 969.627 723.955 969.859 724.083C970.094 724.208 970.275 724.355 970.404 724.523C970.534 724.691 970.636 724.84 970.708 724.968H970.78V721.92H971.978V730.122H970.808V729.165H970.708C970.636 729.296 970.532 729.445 970.396 729.613C970.262 729.782 970.078 729.929 969.843 730.054C969.608 730.179 969.304 730.242 968.93 730.242ZM969.194 729.221C969.539 729.221 969.83 729.13 970.067 728.949C970.308 728.764 970.489 728.509 970.612 728.184C970.737 727.858 970.8 727.479 970.8 727.046C970.8 726.619 970.739 726.245 970.616 725.925C970.493 725.605 970.313 725.355 970.075 725.176C969.838 724.997 969.544 724.908 969.194 724.908C968.834 724.908 968.533 725.001 968.293 725.188C968.053 725.375 967.871 725.63 967.748 725.953C967.628 726.276 967.568 726.64 967.568 727.046C967.568 727.457 967.63 727.827 967.752 728.156C967.875 728.484 968.057 728.744 968.297 728.937C968.54 729.126 968.839 729.221 969.194 729.221ZM973.687 730.122V723.971H974.836V724.972H974.912C975.04 724.633 975.25 724.368 975.541 724.179C975.832 723.987 976.18 723.89 976.586 723.89C976.997 723.89 977.342 723.987 977.619 724.179C977.9 724.371 978.107 724.635 978.24 724.972H978.304C978.451 724.643 978.685 724.382 979.005 724.187C979.326 723.989 979.707 723.89 980.151 723.89C980.709 723.89 981.164 724.065 981.516 724.415C981.871 724.765 982.049 725.292 982.049 725.997V730.122H980.851V726.109C980.851 725.693 980.738 725.391 980.511 725.204C980.284 725.017 980.013 724.924 979.698 724.924C979.308 724.924 979.005 725.044 978.789 725.284C978.573 725.522 978.464 725.827 978.464 726.201V730.122H977.271V726.033C977.271 725.699 977.167 725.431 976.959 725.228C976.75 725.025 976.479 724.924 976.146 724.924C975.919 724.924 975.709 724.984 975.517 725.104C975.327 725.221 975.174 725.386 975.056 725.597C974.942 725.807 974.884 726.052 974.884 726.329V730.122H973.687ZM985.444 730.258C985.054 730.258 984.702 730.186 984.387 730.042C984.072 729.895 983.822 729.683 983.638 729.405C983.456 729.128 983.365 728.787 983.365 728.384C983.365 728.037 983.432 727.751 983.566 727.527C983.699 727.303 983.879 727.125 984.106 726.994C984.333 726.863 984.587 726.765 984.867 726.698C985.148 726.631 985.433 726.58 985.724 726.546C986.093 726.503 986.392 726.468 986.621 726.442C986.851 726.412 987.018 726.365 987.122 726.301C987.226 726.237 987.278 726.133 987.278 725.989V725.961C987.278 725.611 987.179 725.34 986.982 725.148C986.787 724.956 986.496 724.86 986.109 724.86C985.706 724.86 985.388 724.949 985.156 725.128C984.926 725.304 984.767 725.5 984.679 725.717L983.554 725.46C983.687 725.087 983.882 724.785 984.138 724.555C984.397 724.323 984.695 724.155 985.032 724.051C985.368 723.944 985.722 723.89 986.093 723.89C986.338 723.89 986.599 723.92 986.874 723.979C987.151 724.035 987.41 724.139 987.651 724.291C987.894 724.443 988.093 724.661 988.247 724.944C988.402 725.224 988.48 725.589 988.48 726.037V730.122H987.31V729.281H987.262C987.185 729.436 987.069 729.588 986.914 729.738C986.759 729.887 986.56 730.011 986.317 730.11C986.074 730.209 985.783 730.258 985.444 730.258ZM985.704 729.297C986.035 729.297 986.318 729.232 986.553 729.101C986.791 728.97 986.971 728.799 987.094 728.588C987.22 728.375 987.282 728.146 987.282 727.903V727.11C987.24 727.153 987.157 727.193 987.034 727.231C986.914 727.265 986.776 727.296 986.621 727.323C986.467 727.347 986.316 727.369 986.169 727.391C986.022 727.409 985.899 727.425 985.8 727.439C985.568 727.468 985.356 727.518 985.164 727.587C984.974 727.656 984.822 727.757 984.707 727.887C984.595 728.015 984.539 728.186 984.539 728.4C984.539 728.696 984.648 728.921 984.867 729.073C985.086 729.222 985.365 729.297 985.704 729.297ZM990.075 730.122V723.971H991.232V724.948H991.296C991.408 724.617 991.606 724.356 991.889 724.167C992.175 723.975 992.498 723.878 992.858 723.878C992.933 723.878 993.021 723.881 993.122 723.886C993.227 723.892 993.308 723.898 993.367 723.906V725.052C993.319 725.039 993.233 725.024 993.11 725.008C992.988 724.989 992.865 724.98 992.742 724.98C992.459 724.98 992.207 725.04 991.985 725.16C991.766 725.277 991.593 725.442 991.464 725.653C991.336 725.861 991.272 726.098 991.272 726.365V730.122H990.075ZM995.504 728.036L995.496 726.574H995.705L998.156 723.971H999.589L996.794 726.934H996.606L995.504 728.036ZM994.403 730.122V721.92H995.6V730.122H994.403ZM998.288 730.122L996.085 727.198L996.91 726.361L999.758 730.122H998.288ZM1004.15 731.131V720.915H1006.78V721.864H1005.29V730.182H1006.78V731.131H1004.15ZM1008.88 721.92L1010.85 725.128H1010.91L1012.87 721.92H1014.31L1011.75 726.021L1014.32 730.122H1012.88L1010.91 726.958H1010.85L1008.88 730.122H1007.43L1010.05 726.021L1007.45 721.92H1008.88ZM1018.52 726.926C1018.51 726.464 1018.58 726.085 1018.73 725.789C1018.88 725.492 1019.08 725.273 1019.33 725.132C1019.58 724.988 1019.86 724.916 1020.16 724.916C1020.42 724.916 1020.67 724.973 1020.9 725.088C1021.13 725.2 1021.38 725.384 1021.68 725.641C1021.86 725.798 1022.01 725.913 1022.12 725.985C1022.23 726.054 1022.36 726.089 1022.5 726.089C1022.72 726.089 1022.89 726.009 1023.02 725.849C1023.15 725.686 1023.21 725.446 1023.21 725.128H1024.22C1024.23 725.593 1024.16 725.973 1024.01 726.269C1023.87 726.566 1023.67 726.785 1023.41 726.926C1023.16 727.068 1022.89 727.138 1022.59 727.138C1022.32 727.138 1022.07 727.081 1021.84 726.966C1021.62 726.849 1021.36 726.665 1021.07 726.414C1020.88 726.251 1020.73 726.136 1020.62 726.069C1020.51 726 1020.38 725.965 1020.24 725.965C1020.04 725.965 1019.87 726.04 1019.73 726.189C1019.6 726.336 1019.53 726.582 1019.54 726.926H1018.52ZM1025.59 730.122V729.225L1028.36 726.349C1028.66 726.037 1028.9 725.763 1029.1 725.528C1029.29 725.291 1029.44 725.065 1029.53 724.852C1029.63 724.638 1029.68 724.411 1029.68 724.171C1029.68 723.898 1029.61 723.664 1029.48 723.466C1029.36 723.266 1029.18 723.112 1028.96 723.005C1028.74 722.896 1028.49 722.841 1028.21 722.841C1027.92 722.841 1027.66 722.901 1027.44 723.021C1027.22 723.142 1027.06 723.311 1026.94 723.53C1026.82 723.749 1026.76 724.005 1026.76 724.299H1025.58C1025.58 723.8 1025.69 723.363 1025.92 722.989C1026.15 722.616 1026.47 722.326 1026.87 722.12C1027.27 721.912 1027.73 721.808 1028.24 721.808C1028.75 721.808 1029.2 721.911 1029.6 722.116C1029.99 722.319 1030.3 722.597 1030.52 722.949C1030.74 723.299 1030.85 723.694 1030.85 724.135C1030.85 724.439 1030.8 724.737 1030.68 725.028C1030.57 725.319 1030.37 725.643 1030.09 726.001C1029.81 726.356 1029.42 726.787 1028.92 727.295L1027.29 729.001V729.061H1030.99V730.122H1025.59ZM1033.31 730.198C1033.09 730.198 1032.9 730.121 1032.74 729.966C1032.59 729.808 1032.51 729.619 1032.51 729.397C1032.51 729.178 1032.59 728.991 1032.74 728.836C1032.9 728.679 1033.09 728.6 1033.31 728.6C1033.53 728.6 1033.72 728.679 1033.87 728.836C1034.03 728.991 1034.11 729.178 1034.11 729.397C1034.11 729.544 1034.07 729.679 1034 729.802C1033.93 729.922 1033.83 730.018 1033.71 730.09C1033.59 730.162 1033.46 730.198 1033.31 730.198ZM1035.53 728.52V727.519L1039.07 721.92H1039.86V723.394H1039.36L1036.82 727.407V727.471H1041.68V728.52H1035.53ZM1039.41 730.122V728.216L1039.42 727.759V721.92H1040.6V730.122H1039.41ZM1048.46 721.92H1049.71V727.315C1049.71 727.889 1049.57 728.397 1049.3 728.841C1049.03 729.281 1048.65 729.628 1048.16 729.882C1047.68 730.133 1047.1 730.258 1046.45 730.258C1045.79 730.258 1045.22 730.133 1044.73 729.882C1044.24 729.628 1043.86 729.281 1043.59 728.841C1043.32 728.397 1043.19 727.889 1043.19 727.315V721.92H1044.43V727.215C1044.43 727.586 1044.51 727.915 1044.67 728.204C1044.84 728.492 1045.07 728.719 1045.37 728.885C1045.67 729.047 1046.03 729.129 1046.45 729.129C1046.86 729.129 1047.22 729.047 1047.52 728.885C1047.83 728.719 1048.06 728.492 1048.22 728.204C1048.38 727.915 1048.46 727.586 1048.46 727.215V721.92ZM1053.58 720.915V731.131H1050.95V730.182H1052.43V721.864H1050.95V720.915H1053.58Z" fill="#ECE8DE"/>
</g>
</g>
<defs>
<clipPath id="clip0_4007_167914">
<rect width="1200" height="800" fill="white"/>
</clipPath>
<clipPath id="clip1_4007_167914">
<rect width="400" height="800" fill="white" transform="translate(800)"/>
</clipPath>
<clipPath id="clip2_4007_167914">
<rect width="288" height="288" fill="white" transform="translate(856 56)"/>
</clipPath>
<clipPath id="clip3_4007_167914">
<rect x="864.666" y="610.574" width="270.667" height="67.6667" fill="white"/>
</clipPath>
</defs>
</svg>
