<svg width="1200" height="800" viewBox="0 0 1200 800" fill="none" xmlns="http://www.w3.org/2000/svg">
<rect width="1200" height="800" fill="#2C3642"/>
<g filter="url(#filter0_d_4008_193711)">
<g clip-path="url(#clip0_4008_193711)">
<rect x="110.954" y="134.553" width="256" height="512" rx="8" transform="rotate(-4 110.954 134.553)" fill="#142438"/>
<g clip-path="url(#clip1_4008_193711)">
<mask id="path-2-inside-1_4008_193711" fill="white">
<path d="M110.954 134.553L172.404 130.256L208.119 641.009L146.669 645.306L110.954 134.553Z"/>
</mask>
<path d="M110.954 134.553L172.404 130.256L208.119 641.009L146.669 645.306L110.954 134.553Z" fill="white" fill-opacity="0.04"/>
<rect width="61.6" height="65.6" transform="translate(110.954 134.553) rotate(-4)" fill="#152438"/>
<path fill-rule="evenodd" clip-rule="evenodd" d="M139.228 171.265C139.514 175.345 143.053 178.421 147.133 178.136L146.237 165.323C145.951 161.243 142.413 158.166 138.333 158.452L125.52 159.348C125.805 163.428 129.344 166.504 133.424 166.219L138.849 165.839L139.228 171.265Z" fill="white"/>
<path d="M140.133 142.537C144.213 142.252 147.752 145.328 148.037 149.408L148.416 154.833L153.842 154.454C157.922 154.169 161.461 157.245 161.746 161.325C156.924 161.662 152.103 161.999 147.281 162.336C146.21 159.648 143.92 157.61 141.134 156.853L140.133 142.537Z" fill="white"/>
<rect x="114.86" y="190.416" width="61.6" height="9.6" transform="rotate(-4 114.86 190.416)" fill="#2752E7"/>
<rect x="161.609" y="182.336" width="9.6" height="9.6" rx="4.8" transform="rotate(-4 161.609 182.336)" fill="#FFCC00"/>
<rect x="125.776" y="208.9" width="9.6" height="9.6" rx="4.8" transform="rotate(-4 125.776 208.9)" fill="#0083F5"/>
<path d="M145.265 212.349L168.408 210.73" stroke="white" stroke-opacity="0.2" stroke-width="3.2" stroke-linecap="round"/>
<path d="M123.979 229.074L172.661 225.67" stroke="white" stroke-opacity="0.2" stroke-width="0.8"/>
<rect x="127.896" y="239.227" width="9.6" height="9.6" rx="4.8" transform="rotate(-4 127.896 239.227)" fill="#0083F5"/>
<path d="M147.385 242.675L170.528 241.056" stroke="white" stroke-opacity="0.2" stroke-width="3.2" stroke-linecap="round"/>
<path d="M126.101 259.4L174.782 255.996" stroke="white" stroke-opacity="0.2" stroke-width="0.8"/>
<rect x="130.018" y="269.553" width="9.6" height="9.6" rx="4.8" transform="rotate(-4 130.018 269.553)" fill="#0083F5"/>
<path d="M149.506 273.001L172.649 271.383" stroke="white" stroke-opacity="0.2" stroke-width="3.2" stroke-linecap="round"/>
<path d="M128.221 289.727L176.902 286.322" stroke="white" stroke-opacity="0.2" stroke-width="0.8"/>
<rect x="132.138" y="299.878" width="9.6" height="9.6" rx="4.8" transform="rotate(-4 132.138 299.878)" fill="#0083F5"/>
<path d="M151.626 303.326L174.769 301.708" stroke="white" stroke-opacity="0.2" stroke-width="3.2" stroke-linecap="round"/>
<path d="M130.342 320.053L179.023 316.649" stroke="white" stroke-opacity="0.2" stroke-width="0.8"/>
<rect x="134.259" y="330.204" width="9.6" height="9.6" rx="4.8" transform="rotate(-4 134.259 330.204)" fill="#0083F5"/>
<path d="M153.747 333.652L176.891 332.034" stroke="white" stroke-opacity="0.2" stroke-width="3.2" stroke-linecap="round"/>
<path d="M132.462 350.378L181.143 346.974" stroke="white" stroke-opacity="0.2" stroke-width="0.8"/>
<path d="M150.767 612.14L199.448 608.736" stroke="white" stroke-opacity="0.2" stroke-width="0.8"/>
<path d="M155.13 628.675L175.081 627.28" stroke="white" stroke-opacity="0.2" stroke-width="3.2" stroke-linecap="round"/>
<path fill-rule="evenodd" clip-rule="evenodd" d="M186.426 622.9C186.62 622.678 186.957 622.654 187.179 622.847L190.594 625.816C190.817 626.009 190.84 626.346 190.647 626.569L187.678 629.984C187.485 630.206 187.148 630.23 186.926 630.037C186.703 629.843 186.68 629.507 186.873 629.284L189.492 626.271L186.479 623.652C186.257 623.459 186.233 623.122 186.426 622.9Z" fill="#B3B7C1"/>
<path fill-rule="evenodd" clip-rule="evenodd" d="M191.216 622.566C191.409 622.344 191.746 622.32 191.968 622.513L195.383 625.482C195.606 625.675 195.629 626.012 195.436 626.235L192.467 629.65C192.274 629.872 191.937 629.896 191.715 629.703C191.492 629.509 191.469 629.173 191.662 628.95L194.281 625.937L191.268 623.318C191.046 623.125 191.022 622.788 191.216 622.566Z" fill="#B3B7C1"/>
</g>
<path d="M172.404 130.256L171.606 130.312L207.321 641.064L208.119 641.009L208.917 640.953L173.202 130.2L172.404 130.256Z" fill="white" fill-opacity="0.2" mask="url(#path-2-inside-1_4008_193711)"/>
<g clip-path="url(#clip2_4008_193711)">
<rect width="194.4" height="512" transform="translate(172.404 130.256) rotate(-4)" fill="#142438"/>
<path d="M190.89 156.279L351.647 145.038" stroke="#8491B2" stroke-width="1.25" stroke-linecap="round" stroke-linejoin="round"/>
<path d="M194.184 176.516L269.001 171.284" stroke="#F2F4F7" stroke-width="5" stroke-linecap="round" stroke-linejoin="round"/>
<rect x="193.027" y="195.811" width="162.4" height="111.667" rx="3.33333" transform="rotate(-4 193.027 195.811)" fill="white" fill-opacity="0.04"/>
<path d="M207.316 328.47L259.065 324.851" stroke="#FFCF33" stroke-width="10" stroke-linecap="round" stroke-linejoin="round"/>
<path d="M205.132 359.948L365.889 348.707" stroke="#8491B2" stroke-width="1.25" stroke-linecap="round" stroke-linejoin="round"/>
<rect x="215.248" y="384.554" width="15" height="15" rx="7.5" transform="rotate(-4 215.248 384.554)" fill="white" fill-opacity="0.3"/>
<path d="M227.191 388.104L221.875 394.219L219.096 391.803" stroke="white" stroke-width="1.25" stroke-linecap="round" stroke-linejoin="round"/>
<rect width="121.9" height="3.75001" transform="translate(238.086 388.596) rotate(-4)" fill="white" fill-opacity="0.01"/>
<path d="M240.087 390.335L357.949 382.093" stroke="#F2F4F7" stroke-width="3.75" stroke-linecap="round" stroke-linejoin="round"/>
<rect x="216.991" y="409.493" width="15" height="15" rx="7.5" transform="rotate(-4 216.991 409.493)" fill="white" fill-opacity="0.3"/>
<path d="M228.934 413.044L223.619 419.159L220.839 416.742" stroke="white" stroke-width="1.25" stroke-linecap="round" stroke-linejoin="round"/>
<rect width="121.9" height="3.75001" transform="translate(239.829 413.535) rotate(-4)" fill="white" fill-opacity="0.01"/>
<path d="M241.83 415.274L359.692 407.033" stroke="#F2F4F7" stroke-width="3.75" stroke-linecap="round" stroke-linejoin="round"/>
<rect x="218.735" y="434.432" width="15" height="15" rx="7.5" transform="rotate(-4 218.735 434.432)" fill="white" fill-opacity="0.3"/>
<path d="M230.678 437.982L225.363 444.097L222.583 441.681" stroke="white" stroke-width="1.25" stroke-linecap="round" stroke-linejoin="round"/>
<rect width="121.9" height="3.75001" transform="translate(241.573 438.474) rotate(-4)" fill="white" fill-opacity="0.01"/>
<path d="M243.574 440.213L361.436 431.971" stroke="#F2F4F7" stroke-width="3.75" stroke-linecap="round" stroke-linejoin="round"/>
<path d="M215.216 477.281L290.033 472.05" stroke="#F2F4F7" stroke-width="5" stroke-linecap="round" stroke-linejoin="round"/>
<rect x="214.06" y="496.576" width="162.4" height="74.3333" rx="3.33333" transform="rotate(-4 214.06 496.576)" fill="white" fill-opacity="0.04"/>
<rect width="107.4" height="10" transform="translate(220.872 594.004) rotate(-4)" fill="white" fill-opacity="0.01"/>
<path d="M226.209 598.643L323.372 591.848" stroke="#FFCF33" stroke-width="10" stroke-linecap="round" stroke-linejoin="round"/>
</g>
</g>
</g>
<g filter="url(#filter1_d_4008_193711)">
<g clip-path="url(#clip3_4008_193711)">
<rect x="276.513" y="153.688" width="256" height="512" rx="8" transform="rotate(2 276.513 153.688)" fill="#142438"/>
<mask id="path-48-inside-2_4008_193711" fill="white">
<path d="M276.513 153.688L308.493 154.805L290.625 666.493L258.644 665.377L276.513 153.688Z"/>
</mask>
<path d="M276.513 153.688L308.493 154.805L290.625 666.493L258.644 665.377L276.513 153.688Z" fill="white" fill-opacity="0.04"/>
<path d="M308.493 154.805L307.694 154.777L289.825 666.465L290.625 666.493L291.424 666.521L309.293 154.833L308.493 154.805Z" fill="#536175" fill-opacity="0.2" mask="url(#path-48-inside-2_4008_193711)"/>
<rect opacity="0.4" x="284.32" y="205.192" width="12.8" height="12.8" rx="6.4" transform="rotate(2 284.32 205.192)" fill="white"/>
<rect opacity="0.4" x="283.427" y="230.776" width="12.8" height="12.8" rx="6.4" transform="rotate(2 283.427 230.776)" fill="white"/>
<rect opacity="0.4" x="282.533" y="256.361" width="12.8" height="12.8" rx="6.4" transform="rotate(2 282.533 256.361)" fill="white"/>
<rect opacity="0.4" x="281.64" y="281.945" width="12.8" height="12.8" rx="6.4" transform="rotate(2 281.64 281.945)" fill="white"/>
<rect x="302.303" y="194.615" width="9.6" height="9.6" rx="4.8" transform="rotate(2 302.303 194.615)" fill="#FFCC00"/>
<g filter="url(#filter2_d_4008_193711)">
<g clip-path="url(#clip4_4008_193711)">
<rect width="208" height="19.2" transform="translate(316.209 163.08) rotate(2)" fill="white" fill-opacity="0.04"/>
<path d="M327.326 211.498L400.881 214.067" stroke="white" stroke-opacity="0.6" stroke-width="3.2" stroke-linecap="round"/>
<path d="M326.879 224.29L512.366 230.767" stroke="white" stroke-opacity="0.6" stroke-width="3.2" stroke-linecap="round"/>
<path d="M319.45 253.648L495.343 259.791" stroke="#536175" stroke-width="0.8"/>
<g opacity="0.4">
<path d="M321.201 290.638C320.936 290.629 320.714 290.829 320.705 291.085L320.699 291.263C320.698 291.289 320.719 291.31 320.745 291.311L322.573 291.375C322.883 291.386 323.151 291.587 323.239 291.875L323.475 292.645C323.504 292.741 323.593 292.808 323.697 292.812L328.241 292.971C328.589 292.983 328.879 293.234 328.929 293.567L329.124 294.846C329.132 294.902 329.217 294.897 329.219 294.841L329.34 291.387C329.349 291.131 329.141 290.915 328.876 290.906L321.201 290.638Z" fill="#F8F9FA"/>
<path d="M319.875 291.762C319.88 291.76 319.886 291.76 319.891 291.76L322.515 291.851C322.618 291.855 322.709 291.922 322.738 292.019L322.975 292.791C323.064 293.08 323.334 293.282 323.646 293.293L328.221 293.453C328.337 293.457 328.435 293.541 328.452 293.652L329.109 297.96C329.11 297.964 329.11 297.969 329.109 297.973C329.072 298.202 328.862 298.373 328.616 298.364L328.583 298.363C328.562 298.365 328.541 298.366 328.52 298.365L320.816 298.096C320.576 298.088 320.378 297.91 320.352 297.679L319.715 292.007C319.702 291.895 319.773 291.796 319.875 291.762Z" fill="#F8F9FA"/>
</g>
<path d="M346.814 295.269L352.411 295.464" stroke="#15BB4C" stroke-width="3.2" stroke-linecap="round"/>
<path d="M377.995 296.357L428.364 298.116" stroke="white" stroke-opacity="0.2" stroke-width="3.2" stroke-linecap="round"/>
<path d="M453.949 299.01L503.519 300.741" stroke="#FFCC00" stroke-width="3.2" stroke-linecap="round"/>
<path d="M316.613 334.879L492.506 341.021" stroke="#536175" stroke-width="0.8"/>
<g opacity="0.4">
<path d="M318.364 371.869C318.099 371.859 317.877 372.06 317.868 372.316L317.862 372.494C317.861 372.519 317.882 372.541 317.908 372.542L319.736 372.606C320.046 372.616 320.314 372.818 320.402 373.105L320.638 373.876C320.667 373.972 320.756 374.039 320.86 374.042L325.404 374.201C325.752 374.213 326.042 374.464 326.092 374.797L326.287 376.076C326.295 376.132 326.38 376.128 326.382 376.071L326.503 372.617C326.512 372.361 326.304 372.146 326.039 372.137L318.364 371.869Z" fill="#F8F9FA"/>
<path d="M317.038 372.992C317.044 372.991 317.049 372.99 317.054 372.99L319.678 373.082C319.782 373.085 319.872 373.153 319.901 373.249L320.139 374.022C320.227 374.31 320.497 374.512 320.809 374.523L325.384 374.683C325.501 374.687 325.598 374.771 325.615 374.882L326.272 379.19C326.273 379.195 326.273 379.199 326.272 379.204C326.235 379.433 326.025 379.604 325.779 379.595L325.746 379.594C325.725 379.596 325.704 379.596 325.683 379.595L317.979 379.326C317.739 379.318 317.541 379.14 317.515 378.91L316.878 373.237C316.865 373.126 316.936 373.027 317.038 372.992Z" fill="#F8F9FA"/>
</g>
<path d="M343.978 376.499L349.574 376.694" stroke="white" stroke-opacity="0.2" stroke-width="3.2" stroke-linecap="round"/>
<path d="M375.158 377.588L425.528 379.347" stroke="#15BB4C" stroke-width="3.2" stroke-linecap="round"/>
<path d="M451.112 380.24L500.682 381.971" stroke="#FFCC00" stroke-width="3.2" stroke-linecap="round"/>
<path d="M313.777 416.109L489.67 422.252" stroke="#536175" stroke-width="0.8"/>
<g opacity="0.4">
<path d="M315.527 453.099C315.262 453.09 315.04 453.29 315.031 453.546L315.025 453.724C315.024 453.75 315.045 453.771 315.071 453.772L316.899 453.836C317.209 453.847 317.477 454.048 317.565 454.336L317.801 455.106C317.83 455.202 317.92 455.269 318.023 455.273L322.567 455.432C322.915 455.444 323.205 455.695 323.255 456.028L323.45 457.307C323.458 457.363 323.543 457.358 323.545 457.302L323.666 453.848C323.675 453.592 323.467 453.376 323.202 453.367L315.527 453.099Z" fill="#F8F9FA"/>
<path d="M314.202 454.223C314.207 454.221 314.212 454.221 314.217 454.221L316.841 454.312C316.945 454.316 317.035 454.383 317.064 454.479L317.302 455.252C317.39 455.541 317.66 455.743 317.972 455.754L322.547 455.914C322.664 455.918 322.761 456.002 322.778 456.113L323.436 460.421C323.436 460.425 323.436 460.43 323.436 460.434C323.398 460.663 323.188 460.834 322.942 460.825L322.909 460.824C322.888 460.826 322.867 460.827 322.846 460.826L315.143 460.557C314.902 460.548 314.704 460.371 314.678 460.14L314.041 454.468C314.028 454.356 314.099 454.257 314.202 454.223Z" fill="#F8F9FA"/>
</g>
<path d="M341.141 457.729L346.737 457.925" stroke="white" stroke-opacity="0.2" stroke-width="3.2" stroke-linecap="round"/>
<path d="M372.321 458.818L422.691 460.577" stroke="#15BB4C" stroke-width="3.2" stroke-linecap="round"/>
<path d="M448.275 461.471L497.845 463.202" stroke="#FFCC00" stroke-width="3.2" stroke-linecap="round"/>
<path d="M310.94 497.34L486.833 503.482" stroke="#536175" stroke-width="0.8"/>
<g opacity="0.4">
<path d="M312.691 534.33C312.426 534.32 312.204 534.521 312.195 534.777L312.189 534.955C312.188 534.98 312.209 535.002 312.235 535.003L314.063 535.067C314.373 535.077 314.641 535.279 314.729 535.566L314.965 536.337C314.994 536.433 315.084 536.5 315.187 536.503L319.731 536.662C320.079 536.674 320.369 536.925 320.419 537.258L320.614 538.537C320.622 538.593 320.707 538.589 320.709 538.532L320.83 535.078C320.839 534.822 320.631 534.607 320.366 534.598L312.691 534.33Z" fill="#F8F9FA"/>
<path d="M311.366 535.453C311.371 535.452 311.376 535.451 311.382 535.451L314.005 535.543C314.109 535.546 314.199 535.614 314.228 535.71L314.466 536.483C314.554 536.771 314.824 536.973 315.136 536.984L319.711 537.144C319.828 537.148 319.925 537.232 319.942 537.343L320.6 541.651C320.6 541.656 320.6 541.66 320.6 541.665C320.562 541.894 320.353 542.064 320.106 542.056L320.073 542.055C320.052 542.057 320.031 542.057 320.01 542.056L312.307 541.787C312.066 541.779 311.868 541.601 311.842 541.371L311.205 535.698C311.192 535.587 311.263 535.488 311.366 535.453Z" fill="#F8F9FA"/>
</g>
<path d="M338.305 538.96L343.901 539.155" stroke="#15BB4C" stroke-width="3.2" stroke-linecap="round"/>
<path d="M369.485 540.049L419.855 541.808" stroke="white" stroke-opacity="0.2" stroke-width="3.2" stroke-linecap="round"/>
<path d="M445.439 542.701L495.009 544.432" stroke="#FFCC00" stroke-width="3.2" stroke-linecap="round"/>
<path d="M308.104 578.57L483.996 584.713" stroke="#536175" stroke-width="0.8"/>
<g opacity="0.4">
<path d="M309.854 615.56C309.589 615.551 309.367 615.751 309.358 616.007L309.352 616.185C309.351 616.211 309.372 616.232 309.398 616.233L311.226 616.297C311.536 616.308 311.804 616.509 311.892 616.797L312.128 617.567C312.157 617.663 312.247 617.73 312.35 617.734L316.895 617.892C317.242 617.905 317.532 618.156 317.582 618.489L317.777 619.768C317.785 619.824 317.87 619.819 317.872 619.763L317.993 616.309C318.002 616.053 317.794 615.837 317.529 615.828L309.854 615.56Z" fill="#F8F9FA"/>
<path d="M308.529 616.684C308.534 616.682 308.539 616.681 308.545 616.682L311.168 616.773C311.272 616.777 311.362 616.844 311.391 616.94L311.629 617.713C311.717 618.002 311.987 618.204 312.299 618.215L316.874 618.374C316.991 618.379 317.088 618.462 317.105 618.574L317.763 622.882C317.763 622.886 317.763 622.891 317.763 622.895C317.725 623.124 317.516 623.295 317.269 623.286L317.236 623.285C317.216 623.287 317.195 623.288 317.173 623.287L309.47 623.018C309.229 623.009 309.031 622.832 309.006 622.601L308.368 616.929C308.355 616.817 308.426 616.718 308.529 616.684Z" fill="#F8F9FA"/>
</g>
<path d="M335.468 620.19L341.064 620.386" stroke="white" stroke-opacity="0.2" stroke-width="3.2" stroke-linecap="round"/>
<path d="M366.648 621.279L417.018 623.038" stroke="#15BB4C" stroke-width="3.2" stroke-linecap="round"/>
<path d="M442.603 623.932L492.172 625.663" stroke="#FFCC00" stroke-width="3.2" stroke-linecap="round"/>
</g>
</g>
</g>
</g>
<g filter="url(#filter3_d_4008_193711)">
<g clip-path="url(#clip5_4008_193711)">
<rect x="799.17" y="110.694" width="256" height="512" rx="8" transform="rotate(4 799.17 110.694)" fill="#142438"/>
<g filter="url(#filter4_d_4008_193711)">
<g clip-path="url(#clip6_4008_193711)">
<g opacity="0.2">
<path d="M815.377 128.935C815.112 128.917 814.884 129.109 814.866 129.365L814.853 129.543C814.852 129.568 814.871 129.59 814.898 129.592L816.722 129.72C817.032 129.741 817.293 129.952 817.371 130.243L817.579 131.021C817.605 131.118 817.692 131.188 817.795 131.195L822.332 131.512C822.679 131.536 822.959 131.797 822.998 132.132L823.148 133.417C823.155 133.473 823.24 133.472 823.244 133.415L823.485 129.968C823.503 129.712 823.303 129.49 823.038 129.471L815.377 128.935Z" fill="#F8F9FA"/>
<path d="M814.013 130.012C814.018 130.011 814.024 130.01 814.029 130.011L816.648 130.194C816.751 130.201 816.839 130.271 816.865 130.369L817.075 131.149C817.154 131.441 817.417 131.652 817.728 131.674L822.294 131.993C822.411 132.001 822.505 132.089 822.518 132.2L823.025 136.529C823.026 136.533 823.025 136.538 823.025 136.542C822.979 136.77 822.764 136.933 822.518 136.916L822.485 136.913C822.464 136.915 822.443 136.914 822.422 136.913L814.732 136.375C814.492 136.358 814.301 136.174 814.283 135.943L813.844 130.251C813.835 130.14 813.909 130.043 814.013 130.012Z" fill="#F8F9FA"/>
</g>
<path d="M834.43 134.01L974.089 143.776" stroke="white" stroke-opacity="0.2" stroke-width="3.2" stroke-linecap="round"/>
<path d="M813.49 158.209L953.149 167.975" stroke="white" stroke-opacity="0.2" stroke-width="3.2" stroke-linecap="round"/>
<g opacity="0.2">
<path fill-rule="evenodd" clip-rule="evenodd" d="M967.388 165.384C967.61 165.191 967.947 165.215 968.141 165.437L971.109 168.853C971.303 169.075 971.279 169.412 971.057 169.605L967.641 172.574C967.419 172.767 967.082 172.744 966.889 172.521C966.696 172.299 966.719 171.962 966.942 171.769L969.955 169.15L967.335 166.137C967.142 165.915 967.166 165.578 967.388 165.384Z" fill="#F8F9FA"/>
</g>
<path d="M811.705 183.746L951.364 193.512" stroke="white" stroke-opacity="0.2" stroke-width="3.2" stroke-linecap="round"/>
<g opacity="0.2">
<path fill-rule="evenodd" clip-rule="evenodd" d="M963.895 192.406C964.117 192.213 964.454 192.236 964.647 192.459L967.266 195.472L970.279 192.852C970.502 192.659 970.839 192.683 971.032 192.905C971.225 193.127 971.201 193.464 970.979 193.657L967.564 196.626C967.341 196.82 967.005 196.796 966.811 196.574L963.842 193.158C963.649 192.936 963.673 192.599 963.895 192.406Z" fill="#F8F9FA"/>
</g>
<g clip-path="url(#clip7_4008_193711)">
<rect x="811.915" y="226.608" width="9.6" height="9.6" rx="4.8" transform="rotate(4 811.915 226.608)" fill="#0083F5"/>
<path d="M830.733 232.736L964.008 242.056" stroke="white" stroke-opacity="0.2" stroke-width="3.2" stroke-linecap="round"/>
<path d="M809.547 260.469L942.821 269.788" stroke="white" stroke-opacity="0.2" stroke-width="0.8"/>
<rect x="807.85" y="284.752" width="9.6" height="9.6" rx="4.8" transform="rotate(4 807.85 284.752)" fill="#0083F5"/>
<path d="M826.668 290.88L959.943 300.199" stroke="white" stroke-opacity="0.2" stroke-width="3.2" stroke-linecap="round"/>
<path d="M805.481 318.612L938.756 327.932" stroke="white" stroke-opacity="0.2" stroke-width="0.8"/>
<rect x="803.783" y="342.896" width="9.6" height="9.6" rx="4.8" transform="rotate(4 803.783 342.896)" fill="#0083F5"/>
<path d="M822.602 349.023L955.876 358.343" stroke="white" stroke-opacity="0.2" stroke-width="3.2" stroke-linecap="round"/>
<path d="M801.415 376.756L934.69 386.075" stroke="white" stroke-opacity="0.2" stroke-width="0.8"/>
<rect x="799.718" y="401.04" width="9.6" height="9.6" rx="4.8" transform="rotate(4 799.718 401.04)" fill="#0083F5"/>
<path d="M818.536 407.168L951.811 416.487" stroke="white" stroke-opacity="0.2" stroke-width="3.2" stroke-linecap="round"/>
<path d="M797.35 434.899L930.624 444.219" stroke="white" stroke-opacity="0.2" stroke-width="0.8"/>
<rect x="795.651" y="459.184" width="9.6" height="9.6" rx="4.8" transform="rotate(4 795.651 459.184)" fill="#0083F5"/>
<path d="M814.47 465.312L947.744 474.631" stroke="white" stroke-opacity="0.2" stroke-width="3.2" stroke-linecap="round"/>
<path d="M793.283 493.044L926.558 502.363" stroke="white" stroke-opacity="0.2" stroke-width="0.8"/>
<rect x="791.586" y="517.327" width="9.6" height="9.6" rx="4.8" transform="rotate(4 791.586 517.327)" fill="#0083F5"/>
<path d="M810.404 523.455L943.679 532.775" stroke="white" stroke-opacity="0.2" stroke-width="3.2" stroke-linecap="round"/>
<path d="M789.218 551.188L922.492 560.507" stroke="white" stroke-opacity="0.2" stroke-width="0.8"/>
<rect x="787.521" y="575.471" width="9.6" height="9.6" rx="4.8" transform="rotate(4 787.521 575.471)" fill="#0083F5"/>
<path d="M806.339 581.599L939.613 590.918" stroke="white" stroke-opacity="0.2" stroke-width="3.2" stroke-linecap="round"/>
</g>
</g>
<rect x="806.593" y="119.232" width="178.4" height="496" rx="3.2" transform="rotate(4 806.593 119.232)" stroke="white" stroke-opacity="0.2" stroke-width="0.8"/>
</g>
<g clip-path="url(#clip8_4008_193711)">
<mask id="path-112-inside-3_4008_193711" fill="white">
<path d="M993.097 124.255L1054.55 128.552L1018.83 639.305L957.381 635.008L993.097 124.255Z"/>
</mask>
<path d="M993.097 124.255L1054.55 128.552L1018.83 639.305L957.381 635.008L993.097 124.255Z" fill="white" fill-opacity="0.04"/>
<rect width="61.6" height="65.6" transform="translate(993.097 124.255) rotate(4)" fill="#152438"/>
<path d="M1027.58 164.938L1015.61 151.476C1013.6 149.199 1013.84 145.707 1016.16 143.732L1028.08 157.192C1030.14 159.509 1029.9 162.964 1027.58 164.938ZM1021.8 162.588L1009.83 149.126C1007.52 151.1 1007.27 154.592 1009.29 156.869L1021.22 170.329C1023.57 168.357 1023.81 164.903 1021.8 162.588ZM1021.94 146.082L1033.91 159.544C1036.22 157.57 1036.46 154.078 1034.45 151.801L1022.48 138.339C1020.17 140.313 1019.92 143.805 1021.94 146.082Z" fill="white"/>
<rect x="989.19" y="180.118" width="61.6" height="9.6" transform="rotate(4 989.19 180.118)" fill="#2752E7"/>
<rect x="1036.61" y="178.623" width="9.6" height="9.6" rx="4.8" transform="rotate(4 1036.61 178.623)" fill="#FFCC00"/>
<rect x="997.428" y="199.941" width="9.6" height="9.6" rx="4.8" transform="rotate(4 997.428 199.941)" fill="#0083F5"/>
<path d="M1016.25 206.069L1039.39 207.688" stroke="white" stroke-opacity="0.2" stroke-width="3.2" stroke-linecap="round"/>
<path d="M992.84 219.669L1041.52 223.073" stroke="white" stroke-opacity="0.2" stroke-width="0.8"/>
<rect x="995.308" y="230.268" width="9.6" height="9.6" rx="4.8" transform="rotate(4 995.308 230.268)" fill="#0083F5"/>
<path d="M1014.13 236.396L1037.27 238.014" stroke="white" stroke-opacity="0.2" stroke-width="3.2" stroke-linecap="round"/>
<path d="M990.719 249.995L1039.4 253.399" stroke="white" stroke-opacity="0.2" stroke-width="0.8"/>
<rect x="993.187" y="260.594" width="9.6" height="9.6" rx="4.8" transform="rotate(4 993.187 260.594)" fill="#0083F5"/>
<path d="M1012 266.722L1035.15 268.34" stroke="white" stroke-opacity="0.2" stroke-width="3.2" stroke-linecap="round"/>
<path d="M988.599 280.321L1037.28 283.725" stroke="white" stroke-opacity="0.2" stroke-width="0.8"/>
<rect x="991.066" y="290.919" width="9.6" height="9.6" rx="4.8" transform="rotate(4 991.066 290.919)" fill="#0083F5"/>
<path d="M1009.88 297.047L1033.03 298.665" stroke="white" stroke-opacity="0.2" stroke-width="3.2" stroke-linecap="round"/>
<path d="M986.478 310.647L1035.16 314.052" stroke="white" stroke-opacity="0.2" stroke-width="0.8"/>
<rect x="988.945" y="321.245" width="9.6" height="9.6" rx="4.8" transform="rotate(4 988.945 321.245)" fill="#0083F5"/>
<path d="M1007.76 327.373L1030.91 328.991" stroke="white" stroke-opacity="0.2" stroke-width="3.2" stroke-linecap="round"/>
<path d="M984.357 340.973L1033.04 344.377" stroke="white" stroke-opacity="0.2" stroke-width="0.8"/>
<path d="M966.053 602.734L1014.73 606.138" stroke="white" stroke-opacity="0.2" stroke-width="0.8"/>
<path d="M968.074 619.717L988.026 621.112" stroke="white" stroke-opacity="0.2" stroke-width="3.2" stroke-linecap="round"/>
<path fill-rule="evenodd" clip-rule="evenodd" d="M999.869 618.355C1000.09 618.162 1000.43 618.186 1000.62 618.408L1003.59 621.823C1003.78 622.046 1003.76 622.382 1003.54 622.576L1000.12 625.545C999.9 625.738 999.563 625.714 999.37 625.492C999.176 625.27 999.2 624.933 999.422 624.74L1002.44 622.121L999.816 619.108C999.623 618.885 999.646 618.548 999.869 618.355Z" fill="#B3B7C1"/>
<path fill-rule="evenodd" clip-rule="evenodd" d="M1004.66 618.689C1004.88 618.496 1005.22 618.519 1005.41 618.742L1008.38 622.157C1008.57 622.38 1008.55 622.716 1008.33 622.91L1004.91 625.879C1004.69 626.072 1004.35 626.048 1004.16 625.826C1003.97 625.604 1003.99 625.267 1004.21 625.074L1007.22 622.455L1004.61 619.442C1004.41 619.219 1004.44 618.882 1004.66 618.689Z" fill="#B3B7C1"/>
</g>
<path d="M1054.55 128.552L1053.75 128.496L1018.03 639.249L1018.83 639.305L1019.63 639.36L1055.34 128.608L1054.55 128.552Z" fill="white" fill-opacity="0.2" mask="url(#path-112-inside-3_4008_193711)"/>
</g>
</g>
<g filter="url(#filter5_d_4008_193711)">
<g clip-path="url(#clip9_4008_193711)">
<rect x="672.144" y="146.623" width="256" height="512" rx="8" transform="rotate(-2 672.144 146.623)" fill="#142438"/>
<mask id="path-137-inside-4_4008_193711" fill="white">
<path d="M672.144 146.623L704.124 145.506L721.993 657.194L690.012 658.311L672.144 146.623Z"/>
</mask>
<path d="M672.144 146.623L704.124 145.506L721.993 657.194L690.012 658.311L672.144 146.623Z" fill="white" fill-opacity="0.04"/>
<path d="M704.124 145.506L703.325 145.534L721.193 657.222L721.993 657.194L722.792 657.166L704.924 145.478L704.124 145.506Z" fill="#536175" fill-opacity="0.2" mask="url(#path-137-inside-4_4008_193711)"/>
<rect opacity="0.4" x="683.524" y="197.457" width="12.8" height="12.8" rx="6.4" transform="rotate(-2 683.524 197.457)" fill="white"/>
<rect opacity="0.4" x="684.418" y="223.041" width="12.8" height="12.8" rx="6.4" transform="rotate(-2 684.418 223.041)" fill="white"/>
<rect opacity="0.4" x="685.312" y="248.626" width="12.8" height="12.8" rx="6.4" transform="rotate(-2 685.312 248.626)" fill="white"/>
<rect opacity="0.4" x="686.204" y="274.21" width="12.8" height="12.8" rx="6.4" transform="rotate(-2 686.204 274.21)" fill="white"/>
<rect x="700.726" y="185.651" width="9.6" height="9.6" rx="4.8" transform="rotate(-2 700.726 185.651)" fill="#FFCC00"/>
<g filter="url(#filter6_d_4008_193711)">
<g clip-path="url(#clip10_4008_193711)">
<rect x="704.124" y="145.506" width="224" height="512" rx="8" transform="rotate(-2 704.124 145.506)" fill="#142438"/>
<path d="M890.569 155.005L906.56 154.446" stroke="#F08A04" stroke-width="6" stroke-linecap="round" stroke-linejoin="round"/>
<rect x="727.374" y="195.225" width="15" height="15" rx="7.5" transform="rotate(-2 727.374 195.225)" stroke="#FFCF33" stroke-width="3"/>
<path d="M753.12 201.83L785.101 200.713" stroke="white" stroke-opacity="0.28" stroke-width="6" stroke-linecap="round" stroke-linejoin="round"/>
<rect x="808.772" y="190.882" width="18" height="18" rx="9" transform="rotate(-2 808.772 190.882)" fill="#FFCF33"/>
<rect x="796.361" y="179.308" width="42" height="42" rx="21" transform="rotate(-2 796.361 179.308)" stroke="#F08A04" stroke-width="6" stroke-dasharray="13.5 13.5"/>
<path d="M851.061 198.409L883.041 197.292" stroke="white" stroke-opacity="0.28" stroke-width="6" stroke-linecap="round" stroke-linejoin="round"/>
<rect x="891.722" y="187.984" width="18" height="18" rx="9" transform="rotate(-2 891.722 187.984)" fill="#15BB4C"/>
<g opacity="0.4">
<path d="M726.707 247.78L816.652 244.639" stroke="#F2F4F7" stroke-width="6" stroke-linecap="round" stroke-linejoin="round"/>
</g>
<rect x="724.372" y="266.873" width="192" height="36" rx="3" transform="rotate(-2 724.372 266.873)" fill="white" fill-opacity="0.04"/>
<g opacity="0.4">
<path d="M729.359 323.733L819.305 320.592" stroke="#F2F4F7" stroke-width="6" stroke-linecap="round" stroke-linejoin="round"/>
</g>
<rect x="727.024" y="342.826" width="192" height="80" rx="3" transform="rotate(-2 727.024 342.826)" fill="white" fill-opacity="0.04"/>
<path d="M736.581 444.555L798.793 442.382" stroke="#FFCF33" stroke-width="12" stroke-linecap="round" stroke-linejoin="round"/>
<g opacity="0.3">
<rect width="54" height="12" transform="translate(804.006 484.227) rotate(-2)" fill="white" fill-opacity="0.01"/>
<path d="M810.212 490.014L852.186 488.548" stroke="white" stroke-width="12" stroke-linecap="round" stroke-linejoin="round"/>
</g>
<rect width="54" height="12" transform="translate(869.966 481.923) rotate(-2)" fill="white" fill-opacity="0.01"/>
<path d="M876.172 487.71L918.146 486.244" stroke="#198148" stroke-width="12" stroke-linecap="round" stroke-linejoin="round"/>
<g opacity="0.6">
<path d="M759.178 618.872L919.58 613.271" stroke="white" stroke-opacity="0.6" stroke-width="3" stroke-linecap="round" stroke-linejoin="round"/>
</g>
<rect x="910.271" y="604.591" width="18" height="18" rx="9" transform="rotate(-2 910.271 604.591)" fill="#363F55"/>
<rect x="829.32" y="607.418" width="18" height="18" rx="9" transform="rotate(-2 829.32 607.418)" fill="#363F55"/>
<rect x="748.369" y="610.245" width="18" height="18" rx="9" transform="rotate(-2 748.369 610.245)" fill="#363F55"/>
</g>
</g>
</g>
</g>
<defs>
<filter id="filter0_d_4008_193711" x="30.9541" y="60.6953" width="451.092" height="688.61" filterUnits="userSpaceOnUse" color-interpolation-filters="sRGB">
<feFlood flood-opacity="0" result="BackgroundImageFix"/>
<feColorMatrix in="SourceAlpha" type="matrix" values="0 0 0 0 0 0 0 0 0 0 0 0 0 0 0 0 0 0 127 0" result="hardAlpha"/>
<feMorphology radius="32" operator="erode" in="SourceAlpha" result="effect1_dropShadow_4008_193711"/>
<feOffset dy="24"/>
<feGaussianBlur stdDeviation="56"/>
<feComposite in2="hardAlpha" operator="out"/>
<feColorMatrix type="matrix" values="0 0 0 0 1 0 0 0 0 1 0 0 0 0 1 0 0 0 0.12 0"/>
<feBlend mode="normal" in2="BackgroundImageFix" result="effect1_dropShadow_4008_193711"/>
<feBlend mode="normal" in="SourceGraphic" in2="effect1_dropShadow_4008_193711" result="shape"/>
</filter>
<filter id="filter1_d_4008_193711" x="178.645" y="97.6885" width="433.712" height="680.622" filterUnits="userSpaceOnUse" color-interpolation-filters="sRGB">
<feFlood flood-opacity="0" result="BackgroundImageFix"/>
<feColorMatrix in="SourceAlpha" type="matrix" values="0 0 0 0 0 0 0 0 0 0 0 0 0 0 0 0 0 0 127 0" result="hardAlpha"/>
<feMorphology radius="32" operator="erode" in="SourceAlpha" result="effect1_dropShadow_4008_193711"/>
<feOffset dy="24"/>
<feGaussianBlur stdDeviation="56"/>
<feComposite in2="hardAlpha" operator="out"/>
<feColorMatrix type="matrix" values="0 0 0 0 1 0 0 0 0 1 0 0 0 0 1 0 0 0 0.12 0"/>
<feBlend mode="normal" in2="BackgroundImageFix" result="effect1_dropShadow_4008_193711"/>
<feBlend mode="normal" in="SourceGraphic" in2="effect1_dropShadow_4008_193711" result="shape"/>
</filter>
<filter id="filter2_d_4008_193711" x="286.098" y="153.48" width="250.784" height="528.557" filterUnits="userSpaceOnUse" color-interpolation-filters="sRGB">
<feFlood flood-opacity="0" result="BackgroundImageFix"/>
<feColorMatrix in="SourceAlpha" type="matrix" values="0 0 0 0 0 0 0 0 0 0 0 0 0 0 0 0 0 0 127 0" result="hardAlpha"/>
<feOffset dy="3.2"/>
<feGaussianBlur stdDeviation="6.4"/>
<feColorMatrix type="matrix" values="0 0 0 0 0.12549 0 0 0 0 0.164706 0 0 0 0 0.258824 0 0 0 0.16 0"/>
<feBlend mode="normal" in2="BackgroundImageFix" result="effect1_dropShadow_4008_193711"/>
<feBlend mode="normal" in="SourceGraphic" in2="effect1_dropShadow_4008_193711" result="shape"/>
</filter>
<filter id="filter3_d_4008_193711" x="683.455" y="54.6943" width="451.091" height="688.61" filterUnits="userSpaceOnUse" color-interpolation-filters="sRGB">
<feFlood flood-opacity="0" result="BackgroundImageFix"/>
<feColorMatrix in="SourceAlpha" type="matrix" values="0 0 0 0 0 0 0 0 0 0 0 0 0 0 0 0 0 0 127 0" result="hardAlpha"/>
<feMorphology radius="32" operator="erode" in="SourceAlpha" result="effect1_dropShadow_4008_193711"/>
<feOffset dy="24"/>
<feGaussianBlur stdDeviation="56"/>
<feComposite in2="hardAlpha" operator="out"/>
<feColorMatrix type="matrix" values="0 0 0 0 1 0 0 0 0 1 0 0 0 0 1 0 0 0 0.12 0"/>
<feBlend mode="normal" in2="BackgroundImageFix" result="effect1_dropShadow_4008_193711"/>
<feBlend mode="normal" in="SourceGraphic" in2="effect1_dropShadow_4008_193711" result="shape"/>
</filter>
<filter id="filter4_d_4008_193711" x="759.009" y="109.448" width="238.535" height="533.205" filterUnits="userSpaceOnUse" color-interpolation-filters="sRGB">
<feFlood flood-opacity="0" result="BackgroundImageFix"/>
<feColorMatrix in="SourceAlpha" type="matrix" values="0 0 0 0 0 0 0 0 0 0 0 0 0 0 0 0 0 0 127 0" result="hardAlpha"/>
<feOffset dy="3.2"/>
<feGaussianBlur stdDeviation="6.4"/>
<feColorMatrix type="matrix" values="0 0 0 0 0.12549 0 0 0 0 0.164706 0 0 0 0 0.258824 0 0 0 0.16 0"/>
<feBlend mode="normal" in2="BackgroundImageFix" result="effect1_dropShadow_4008_193711"/>
<feBlend mode="normal" in="SourceGraphic" in2="effect1_dropShadow_4008_193711" result="shape"/>
</filter>
<filter id="filter5_d_4008_193711" x="592.144" y="81.6885" width="433.713" height="680.623" filterUnits="userSpaceOnUse" color-interpolation-filters="sRGB">
<feFlood flood-opacity="0" result="BackgroundImageFix"/>
<feColorMatrix in="SourceAlpha" type="matrix" values="0 0 0 0 0 0 0 0 0 0 0 0 0 0 0 0 0 0 127 0" result="hardAlpha"/>
<feMorphology radius="32" operator="erode" in="SourceAlpha" result="effect1_dropShadow_4008_193711"/>
<feOffset dy="24"/>
<feGaussianBlur stdDeviation="56"/>
<feComposite in2="hardAlpha" operator="out"/>
<feColorMatrix type="matrix" values="0 0 0 0 1 0 0 0 0 1 0 0 0 0 1 0 0 0 0.12 0"/>
<feBlend mode="normal" in2="BackgroundImageFix" result="effect1_dropShadow_4008_193711"/>
<feBlend mode="normal" in="SourceGraphic" in2="effect1_dropShadow_4008_193711" result="shape"/>
</filter>
<filter id="filter6_d_4008_193711" x="600.124" y="73.6885" width="449.732" height="727.506" filterUnits="userSpaceOnUse" color-interpolation-filters="sRGB">
<feFlood flood-opacity="0" result="BackgroundImageFix"/>
<feColorMatrix in="SourceAlpha" type="matrix" values="0 0 0 0 0 0 0 0 0 0 0 0 0 0 0 0 0 0 127 0" result="hardAlpha"/>
<feMorphology radius="24" operator="erode" in="SourceAlpha" result="effect1_dropShadow_4008_193711"/>
<feOffset dy="40"/>
<feGaussianBlur stdDeviation="64"/>
<feComposite in2="hardAlpha" operator="out"/>
<feColorMatrix type="matrix" values="0 0 0 0 0 0 0 0 0 0 0 0 0 0 0 0 0 0 0.44 0"/>
<feBlend mode="normal" in2="BackgroundImageFix" result="effect1_dropShadow_4008_193711"/>
<feBlend mode="normal" in="SourceGraphic" in2="effect1_dropShadow_4008_193711" result="shape"/>
</filter>
<clipPath id="clip0_4008_193711">
<rect x="110.954" y="134.553" width="256" height="512" rx="8" transform="rotate(-4 110.954 134.553)" fill="white"/>
</clipPath>
<clipPath id="clip1_4008_193711">
<path d="M110.954 134.553L172.404 130.256L208.119 641.009L146.669 645.306L110.954 134.553Z" fill="white"/>
</clipPath>
<clipPath id="clip2_4008_193711">
<rect width="194.4" height="512" fill="white" transform="translate(172.404 130.256) rotate(-4)"/>
</clipPath>
<clipPath id="clip3_4008_193711">
<rect x="276.513" y="153.688" width="256" height="512" rx="8" transform="rotate(2 276.513 153.688)" fill="white"/>
</clipPath>
<clipPath id="clip4_4008_193711">
<rect x="316.209" y="163.08" width="208" height="496" rx="3.2" transform="rotate(2 316.209 163.08)" fill="white"/>
</clipPath>
<clipPath id="clip5_4008_193711">
<rect x="799.17" y="110.694" width="256" height="512" rx="8" transform="rotate(4 799.17 110.694)" fill="white"/>
</clipPath>
<clipPath id="clip6_4008_193711">
<rect x="806.593" y="119.232" width="178.4" height="496" rx="3.2" transform="rotate(4 806.593 119.232)" fill="white"/>
</clipPath>
<clipPath id="clip7_4008_193711">
<rect x="807.173" y="202.677" width="165.6" height="406.4" rx="3.2" transform="rotate(4 807.173 202.677)" fill="white"/>
</clipPath>
<clipPath id="clip8_4008_193711">
<path d="M993.097 124.255L1054.55 128.552L1018.83 639.305L957.381 635.008L993.097 124.255Z" fill="white"/>
</clipPath>
<clipPath id="clip9_4008_193711">
<rect x="672.144" y="146.623" width="256" height="512" rx="8" transform="rotate(-2 672.144 146.623)" fill="white"/>
</clipPath>
<clipPath id="clip10_4008_193711">
<rect x="704.124" y="145.506" width="224" height="512" rx="8" transform="rotate(-2 704.124 145.506)" fill="white"/>
</clipPath>
</defs>
</svg>
