<svg width="590" height="534" viewBox="0 0 590 534" fill="none" xmlns="http://www.w3.org/2000/svg">
<path d="M345.153 489.217C480.067 489.217 589.436 379.702 589.436 244.609C589.436 109.515 480.067 0 345.153 0C210.24 0 100.871 109.515 100.871 244.609C100.871 379.702 210.24 489.217 345.153 489.217Z" fill="#EC680A"/>
<path d="M153.172 345.796C153.172 345.796 195.13 316.32 217.318 326.658C239.505 336.997 250.27 338.317 282.562 354.375C314.855 370.433 322.983 351.295 339.02 313.68C355.056 276.065 377.683 216.452 393.061 195.775C408.438 175.098 412.832 169.818 421.838 174.658C500.923 216.672 493.673 106.907 455.449 89.7488C413.051 65.7719 373.07 79.1901 335.285 122.965L153.172 345.796Z" fill="#0044AA"/>
<path d="M3.57031 529.472C91.4416 421.686 313.536 149.361 335.065 122.964C361.866 89.9684 416.346 57.8526 455.229 89.7485C494.112 121.644 489.499 150.901 477.636 165.419C465.773 179.937 451.494 199.074 421.618 174.658" stroke="#F3CB28" stroke-width="7.1424" stroke-miterlimit="10" stroke-linecap="round" stroke-linejoin="round"/>
<path d="M197.324 316.759C228.738 300.261 285.855 331.717 312.216 349.315" stroke="#B4C8E6" stroke-width="2.1427" stroke-miterlimit="10" stroke-linecap="round"/>
<path d="M321.664 327.098C323.421 328.198 324.959 329.518 326.497 330.618" stroke="#B4C8E6" stroke-width="2.1427" stroke-miterlimit="10" stroke-linecap="round"/>
<path d="M215.117 296.743C244.554 282.885 294.421 308.181 321.661 327.099" stroke="#B4C8E6" stroke-width="2.1427" stroke-miterlimit="10" stroke-linecap="round"/>
<path d="M232.91 276.725C261.029 265.286 305.404 286.184 332.424 305.321" stroke="#B4C8E6" stroke-width="2.1427" stroke-miterlimit="10" stroke-linecap="round"/>
<path d="M250.707 256.488C277.947 246.809 318.588 265.067 344.949 284.424" stroke="#B4C8E6" stroke-width="2.1427" stroke-miterlimit="10" stroke-linecap="round"/>
<path d="M268.281 236.47C293.325 229.211 327.594 242.85 352.857 260.227" stroke="#B4C8E6" stroke-width="2.1427" stroke-miterlimit="10" stroke-linecap="round"/>
<path d="M286.074 216.452C309.14 211.173 338.138 221.292 361.643 236.69" stroke="#B4C8E6" stroke-width="2.1427" stroke-miterlimit="10" stroke-linecap="round"/>
<path d="M303.867 196.435C325.396 192.696 351.318 200.835 372.846 214.693" stroke="#B4C8E6" stroke-width="2.1427" stroke-miterlimit="10" stroke-linecap="round"/>
<path d="M315.289 176.197C335.939 173.778 361.861 180.817 383.829 193.575" stroke="#B4C8E6" stroke-width="2.1427" stroke-miterlimit="10" stroke-linecap="round"/>
<path d="M331.988 156.84C353.517 155.74 379.878 162.34 401.626 175.758" stroke="#B4C8E6" stroke-width="2.1427" stroke-miterlimit="10" stroke-linecap="round"/>
<path d="M346.707 134.403C371.97 134.623 404.263 144.522 427.109 164.099" stroke="#B4C8E6" stroke-width="2.1427" stroke-miterlimit="10" stroke-linecap="round"/>
<path d="M366.695 114.167C397.89 116.146 434.576 129.345 455.885 160.361" stroke="#B4C8E6" stroke-width="2.1427" stroke-miterlimit="10" stroke-linecap="round"/>
<path d="M392.617 95.9082C423.812 99.8677 449.514 109.107 470.164 141.442" stroke="#B4C8E6" stroke-width="2.1427" stroke-miterlimit="10" stroke-linecap="round"/>
</svg>
