<svg width="770" height="160" viewBox="0 0 770 160" fill="none" xmlns="http://www.w3.org/2000/svg">
<path fill-rule="evenodd" clip-rule="evenodd" d="M57.0857 127.086C57.0857 145.264 71.822 160 90 160V102.915C90 84.7375 75.2638 70.0012 57.0857 70.0012L6.04391e-06 70.0014C3.66015e-06 88.1792 14.7362 102.915 32.9143 102.915H57.0857V127.086Z" fill="#DEB430"/>
<path d="M70 0.00012207C88.1781 0.00012207 102.914 14.7362 102.914 32.914V57.0855L127.086 57.0855C145.264 57.0855 160 71.8215 160 89.9993C138.518 89.9993 117.037 89.9989 95.5551 89.9989C91.6379 77.7458 82.1161 67.9995 70 63.7828V0.00012207Z" fill="#142438"/>
<path d="M659.019 66.1327C654.731 66.1327 651.239 64.8811 648.546 62.378C645.853 59.8748 644.507 56.771 644.507 53.0663C644.507 49.3617 645.853 46.2578 648.546 43.7547C651.239 41.2516 654.731 40 659.019 40C663.308 40 666.799 41.2015 669.492 43.6045C672.185 45.9074 673.532 48.9111 673.532 52.6158C673.532 56.5207 672.185 59.7747 669.492 62.378C666.899 64.8811 663.408 66.1327 659.019 66.1327Z" fill="#142438"/>
<path d="M256.704 160C248.624 160 241.094 158.698 234.112 156.095C227.23 153.392 221.245 149.587 216.158 144.681C211.071 139.775 207.082 134.018 204.189 127.409C201.396 120.801 200 113.542 200 105.632C200 97.7221 201.396 90.4631 204.189 83.8548C207.082 77.2466 211.071 71.4894 216.158 66.5832C221.345 61.6771 227.379 57.9224 234.262 55.3191C241.144 52.6158 248.674 51.2641 256.853 51.2641C265.93 51.2641 274.109 52.8661 281.39 56.0701C288.771 59.174 294.955 63.7797 299.942 69.8874L284.382 84.3054C280.791 80.2002 276.802 77.1464 272.413 75.1439C268.024 73.0413 263.237 71.99 258.05 71.99C253.163 71.99 248.674 72.791 244.585 74.393C240.495 75.995 236.955 78.2979 233.962 81.3016C230.97 84.3054 228.626 87.8598 226.93 91.965C225.335 96.0701 224.537 100.626 224.537 105.632C224.537 110.638 225.335 115.194 226.93 119.299C228.626 123.404 230.97 126.959 233.962 129.962C236.955 132.966 240.495 135.269 244.585 136.871C248.674 138.473 253.163 139.274 258.05 139.274C263.237 139.274 268.024 138.273 272.413 136.27C276.802 134.168 280.791 131.014 284.382 126.809L299.942 141.227C294.955 147.334 288.771 151.99 281.39 155.194C274.109 158.398 265.88 160 256.704 160Z" fill="#142438"/>
<path fill-rule="evenodd" clip-rule="evenodd" d="M375.268 84.9061C382.05 90.7134 385.441 99.7747 385.441 112.09V158.198H363.598V148.157C361.841 151.123 359.447 153.519 356.416 155.344C351.928 158.048 346.143 159.399 339.061 159.399C332.777 159.399 327.391 158.348 322.903 156.245C318.415 154.043 314.973 151.089 312.58 147.384C310.186 143.68 308.989 139.524 308.989 134.919C308.989 130.113 310.136 125.907 312.43 122.303C314.824 118.698 318.564 115.895 323.651 113.892C328.738 111.79 335.371 110.738 343.55 110.738H362.102C362.102 105.732 360.556 101.827 357.464 99.0238C354.471 96.2203 349.833 94.8185 343.55 94.8185C339.261 94.8185 335.022 95.5194 330.832 96.9212C326.743 98.2228 323.252 100.025 320.36 102.328L311.981 85.9574C316.37 82.8536 321.656 80.4506 327.84 78.7484C334.024 77.0463 340.308 76.1952 346.692 76.1952C358.96 76.1952 368.485 79.0989 375.268 84.9061ZM334.722 127.109C336.817 125.307 340.607 124.406 346.093 124.406H362.102V132.666C360.705 136.27 358.461 139.024 355.369 140.926C352.277 142.728 348.786 143.63 344.896 143.63C340.807 143.63 337.565 142.778 335.171 141.076C332.877 139.274 331.73 136.871 331.73 133.867C331.73 131.164 332.728 128.911 334.722 127.109Z" fill="#142438"/>
<path d="M472.545 80.1001C467.558 77.4969 461.872 76.1952 455.489 76.1952C448.607 76.1952 442.472 77.6471 437.086 80.5507C433.91 82.2632 431.167 84.411 428.857 86.9942V77.3967H406.565V158.198H429.905V118.248C429.905 113.242 430.703 109.136 432.299 105.932C433.994 102.728 436.288 100.375 439.181 98.8736C442.173 97.2716 445.514 96.4706 449.205 96.4706C454.392 96.4706 458.381 98.0225 461.174 101.126C464.067 104.23 465.513 109.036 465.513 115.544V158.198H488.853V111.94C488.853 103.73 487.406 97.0213 484.514 91.8148C481.621 86.5081 477.632 82.6033 472.545 80.1001Z" fill="#142438"/>
<path fill-rule="evenodd" clip-rule="evenodd" d="M571.051 84.9061C577.834 90.7134 581.225 99.7747 581.225 112.09V158.198H559.381V148.157C557.624 151.123 555.23 153.519 552.2 155.344C547.712 158.048 541.926 159.399 534.845 159.399C528.561 159.399 523.175 158.348 518.686 156.245C514.198 154.043 510.757 151.089 508.363 147.384C505.969 143.68 504.772 139.524 504.772 134.919C504.772 130.113 505.919 125.907 508.214 122.303C510.607 118.698 514.348 115.895 519.435 113.892C524.521 111.79 531.154 110.738 539.333 110.738H557.885C557.885 105.732 556.339 101.827 553.247 99.0238C550.255 96.2203 545.617 94.8185 539.333 94.8185C535.044 94.8185 530.805 95.5194 526.616 96.9212C522.527 98.2228 519.036 100.025 516.143 102.328L507.765 85.9574C512.153 82.8536 517.44 80.4506 523.624 78.7484C529.808 77.0463 536.092 76.1952 542.475 76.1952C554.743 76.1952 564.269 79.0989 571.051 84.9061ZM530.506 127.109C532.601 125.307 536.391 124.406 541.877 124.406H557.885V132.666C556.489 136.27 554.245 139.024 551.153 140.926C548.061 142.728 544.57 143.63 540.68 143.63C536.59 143.63 533.349 142.778 530.955 141.076C528.661 139.274 527.514 136.871 527.514 133.867C527.514 131.164 528.511 128.911 530.506 127.109Z" fill="#142438"/>
<path d="M713.142 117.44L682.177 158.198H707.611L725.892 133.449L743.518 158.198H770L738.861 116.911L768.803 77.3967H743.967L726.481 100.994L709.407 77.3967H683.224L713.142 117.44Z" fill="#142438"/>
<path d="M647.35 158.198V77.3967H670.689V158.198H647.35Z" fill="#142438"/>
<path d="M602.349 46.7584V158.198H625.688V46.7584H602.349Z" fill="#142438"/>
</svg>
