<svg width="304" height="192" viewBox="0 0 304 192" fill="none" xmlns="http://www.w3.org/2000/svg">
<path d="M144 0C158.542 0 170.331 11.789 170.331 26.3314V45.6688L189.669 45.6688C204.211 45.6688 216 57.4578 216 72.0002C198.815 72.0002 181.629 71.9999 164.444 71.9999C161.31 62.1972 153.693 54.4001 144 51.0268V0Z" fill="#DEB430"/>
<path fill-rule="evenodd" clip-rule="evenodd" d="M133.669 101.67C133.669 116.212 145.458 128.001 160 128.001V82.3331C160 67.7907 148.211 56.0015 133.669 56.0015L88 56.0017C88 70.5441 99.789 82.3331 114.331 82.3331H133.669V101.67Z" fill="#DEB430"/>
<path d="M244.81 141.939C242.523 141.939 240.661 141.272 239.225 139.937C237.788 138.602 237.07 136.946 237.07 134.971C237.07 132.995 237.788 131.339 239.225 130.004C240.661 128.669 242.523 128.002 244.81 128.002C247.098 128.002 248.96 128.643 250.396 129.924C251.832 131.153 252.55 132.755 252.55 134.73C252.55 136.813 251.832 138.548 250.396 139.937C249.013 141.272 247.151 141.939 244.81 141.939Z" fill="#142438"/>
<path d="M30.2419 192.002C25.933 192.002 21.9167 191.308 18.193 189.919C14.5225 188.478 11.3307 186.448 8.61775 183.832C5.90475 181.215 3.77691 178.145 2.23423 174.62C0.744743 171.096 0 167.224 0 163.006C0 158.787 0.744743 154.916 2.23423 151.391C3.77691 147.867 5.90475 144.796 8.61775 142.18C11.3839 139.563 14.6023 137.561 18.2728 136.172C21.9433 134.73 25.9596 134.009 30.3217 134.009C35.1625 134.009 39.5246 134.864 43.4079 136.573C47.3444 138.228 50.6426 140.684 53.3024 143.942L45.0038 151.631C43.0887 149.442 40.9609 147.813 38.6203 146.745C36.2797 145.624 33.7262 145.063 30.9601 145.063C28.3535 145.063 25.9596 145.49 23.7786 146.345C21.5976 147.199 19.7091 148.427 18.1132 150.029C16.5174 151.631 15.2672 153.527 14.3629 155.717C13.5118 157.906 13.0862 160.336 13.0862 163.006C13.0862 165.676 13.5118 168.105 14.3629 170.295C15.2672 172.484 16.5174 174.38 18.1132 175.982C19.7091 177.584 21.5976 178.812 23.7786 179.667C25.9596 180.521 28.3535 180.948 30.9601 180.948C33.7262 180.948 36.2797 180.414 38.6203 179.346C40.9609 178.225 43.0887 176.543 45.0038 174.3L53.3024 181.989C50.6426 185.247 47.3444 187.73 43.4079 189.439C39.5246 191.148 35.1359 192.002 30.2419 192.002Z" fill="#142438"/>
<path fill-rule="evenodd" clip-rule="evenodd" d="M93.4761 151.952C97.0935 155.049 98.9021 159.882 98.9021 166.45V191.041H87.2522V185.686C86.315 187.268 85.0383 188.545 83.4221 189.519C81.0283 190.961 77.9429 191.682 74.166 191.682C70.8147 191.682 67.9421 191.121 65.5482 189.999C63.1544 188.825 61.3192 187.249 60.0425 185.274C58.7658 183.298 58.1274 181.082 58.1274 178.625C58.1274 176.062 58.7392 173.819 59.9627 171.897C61.2394 169.974 63.2342 168.479 65.9472 167.411C68.6602 166.29 72.1977 165.729 76.5598 165.729H86.4543C86.4543 163.059 85.6297 160.977 83.9807 159.481C82.3848 157.986 79.9112 157.238 76.5598 157.238C74.2724 157.238 72.0116 157.612 69.7773 158.36C67.5963 159.054 65.7344 160.015 64.1918 161.244L59.7233 152.513C62.0639 150.857 64.8833 149.576 68.1814 148.668C71.4796 147.76 74.8309 147.306 78.2355 147.306C84.7786 147.306 89.8588 148.855 93.4761 151.952ZM71.852 174.46C72.9691 173.499 74.9905 173.018 77.9163 173.018H86.4543V177.424C85.7095 179.346 84.5126 180.815 82.8635 181.829C81.2145 182.79 79.3526 183.271 77.278 183.271C75.0969 183.271 73.3681 182.817 72.0914 181.909C70.8678 180.948 70.2561 179.667 70.2561 178.065C70.2561 176.623 70.7881 175.421 71.852 174.46Z" fill="#142438"/>
<path d="M145.357 149.389C142.697 148 139.665 147.306 136.261 147.306C132.59 147.306 129.319 148.08 126.446 149.629C124.752 150.542 123.289 151.688 122.057 153.066V147.947H110.168V191.041H122.616V169.734C122.616 167.064 123.041 164.875 123.893 163.166C124.797 161.457 126.02 160.202 127.563 159.401C129.159 158.547 130.941 158.12 132.909 158.12C135.675 158.12 137.803 158.947 139.293 160.603C140.836 162.258 141.607 164.821 141.607 168.292V191.041H154.055V166.37C154.055 161.991 153.283 158.413 151.741 155.636C150.198 152.806 148.07 150.724 145.357 149.389Z" fill="#142438"/>
<path fill-rule="evenodd" clip-rule="evenodd" d="M197.894 151.952C201.511 155.049 203.32 159.882 203.32 166.45V191.041H191.67V185.686C190.733 187.268 189.456 188.545 187.84 189.519C185.446 190.961 182.361 191.682 178.584 191.682C175.233 191.682 172.36 191.121 169.966 189.999C167.572 188.825 165.737 187.249 164.46 185.274C163.184 183.298 162.545 181.082 162.545 178.625C162.545 176.062 163.157 173.819 164.381 171.897C165.657 169.974 167.652 168.479 170.365 167.411C173.078 166.29 176.616 165.729 180.978 165.729H190.872C190.872 163.059 190.048 160.977 188.399 159.481C186.803 157.986 184.329 157.238 180.978 157.238C178.69 157.238 176.429 157.612 174.195 158.36C172.014 159.054 170.152 160.015 168.61 161.244L164.141 152.513C166.482 150.857 169.301 149.576 172.599 148.668C175.897 147.76 179.249 147.306 182.653 147.306C189.196 147.306 194.277 148.855 197.894 151.952ZM176.27 174.46C177.387 173.499 179.408 173.018 182.334 173.018H190.872V177.424C190.127 179.346 188.93 180.815 187.281 181.829C185.632 182.79 183.77 183.271 181.696 183.271C179.515 183.271 177.786 182.817 176.509 181.909C175.286 180.948 174.674 179.667 174.674 178.065C174.674 176.623 175.206 175.421 176.27 174.46Z" fill="#142438"/>
<path d="M273.676 169.303L257.161 191.041H270.726L280.475 177.841L289.876 191.041H304L287.393 169.021L303.362 147.947H290.116L280.79 160.532L271.683 147.947H257.72L273.676 169.303Z" fill="#142438"/>
<path d="M238.586 191.041V147.947H251.034V191.041H238.586Z" fill="#142438"/>
<path d="M214.586 131.606V191.041H227.034V131.606H214.586Z" fill="#142438"/>
</svg>
