<svg width="376" height="237" viewBox="0 0 376 237" fill="none" xmlns="http://www.w3.org/2000/svg">
<path d="M177.667 0C195.609 0 210.154 14.5452 210.154 32.4876V56.346L234.012 56.346C251.955 56.346 266.5 70.8912 266.5 88.8336C245.297 88.8336 224.094 88.8332 202.89 88.8332C199.024 76.7387 189.626 67.1186 177.667 62.9566V0Z" fill="#DEB430"/>
<path fill-rule="evenodd" clip-rule="evenodd" d="M164.92 125.44C164.92 143.383 179.465 157.928 197.407 157.928V101.582C197.407 83.6399 182.862 69.0944 164.92 69.0944L108.574 69.0946C108.574 87.037 123.119 101.582 141.062 101.582H164.92V125.44Z" fill="#DEB430"/>
<path d="M302.046 175.124C299.224 175.124 296.927 174.301 295.155 172.654C293.383 171.006 292.496 168.964 292.496 166.526C292.496 164.089 293.383 162.046 295.155 160.399C296.927 158.752 299.224 157.928 302.046 157.928C304.868 157.928 307.165 158.719 308.938 160.3C310.71 161.816 311.596 163.792 311.596 166.23C311.596 168.799 310.71 170.941 308.938 172.654C307.231 174.301 304.934 175.124 302.046 175.124Z" fill="#142438"/>
<path d="M37.3124 236.891C31.9961 236.891 27.0408 236.035 22.4465 234.322C17.9178 232.543 13.9798 230.039 10.6325 226.811C7.28526 223.583 4.65994 219.794 2.75659 215.446C0.918862 211.097 0 206.321 0 201.116C0 195.911 0.918862 191.134 2.75659 186.786C4.65994 182.437 7.28526 178.649 10.6325 175.421C14.0455 172.192 18.0163 169.722 22.5449 168.009C27.0736 166.23 32.0289 165.34 37.4108 165.34C43.3834 165.34 48.7653 166.395 53.5565 168.503C58.4134 170.545 62.4826 173.576 65.7643 177.595L55.5255 187.082C53.1627 184.381 50.5374 182.372 47.6496 181.054C44.7617 179.67 41.6113 178.979 38.1984 178.979C34.9824 178.979 32.0289 179.506 29.3379 180.56C26.647 181.614 24.317 183.129 22.348 185.106C20.379 187.082 18.8367 189.421 17.7209 192.123C16.6708 194.824 16.1457 197.822 16.1457 201.116C16.1457 204.41 16.6708 207.408 17.7209 210.109C18.8367 212.81 20.379 215.149 22.348 217.126C24.317 219.102 26.647 220.618 29.3379 221.672C32.0289 222.726 34.9824 223.253 38.1984 223.253C41.6113 223.253 44.7617 222.594 47.6496 221.277C50.5374 219.893 53.1627 217.818 55.5255 215.05L65.7643 224.538C62.4826 228.557 58.4134 231.621 53.5565 233.729C48.7653 235.837 43.3506 236.891 37.3124 236.891Z" fill="#142438"/>
<path fill-rule="evenodd" clip-rule="evenodd" d="M115.331 187.478C119.794 191.299 122.025 197.262 122.025 205.365V235.705H107.651V229.098C106.495 231.05 104.92 232.627 102.926 233.828C99.9724 235.607 96.1657 236.496 91.5057 236.496C87.3709 236.496 83.8267 235.804 80.8732 234.421C77.9197 232.971 75.6554 231.028 74.0802 228.59C72.505 226.152 71.7174 223.418 71.7174 220.387C71.7174 217.225 72.4722 214.458 73.9817 212.086C75.5569 209.714 78.0181 207.869 81.3654 206.551C84.7127 205.168 89.0773 204.476 94.4592 204.476H106.667C106.667 201.182 105.65 198.612 103.615 196.767C101.646 194.923 98.5941 194 94.4592 194C91.637 194 88.8476 194.461 86.091 195.384C83.4001 196.24 81.1029 197.426 79.1995 198.942L73.6864 188.169C76.5742 186.127 80.0528 184.546 84.122 183.426C88.1913 182.306 92.3261 181.746 96.5266 181.746C104.6 181.746 110.867 183.656 115.331 187.478ZM88.6507 215.248C90.029 214.062 92.523 213.469 96.1329 213.469H106.667V218.905C105.748 221.277 104.271 223.088 102.237 224.34C100.202 225.526 97.9049 226.119 95.3453 226.119C92.6543 226.119 90.5212 225.559 88.946 224.439C87.4365 223.253 86.6817 221.672 86.6817 219.695C86.6817 217.916 87.338 216.434 88.6507 215.248Z" fill="#142438"/>
<path d="M179.341 184.315C176.059 182.602 172.318 181.746 168.118 181.746C163.589 181.746 159.553 182.701 156.009 184.612C153.918 185.739 152.113 187.152 150.594 188.852V182.536H135.925V235.705H151.283V209.417C151.283 206.123 151.808 203.422 152.858 201.313C153.974 199.205 155.484 197.657 157.387 196.669C159.356 195.614 161.555 195.087 163.983 195.087C167.396 195.087 170.021 196.109 171.859 198.151C173.762 200.193 174.714 203.356 174.714 207.638V235.705H190.072V205.267C190.072 199.864 189.12 195.45 187.217 192.024C185.314 188.532 182.688 185.962 179.341 184.315Z" fill="#142438"/>
<path fill-rule="evenodd" clip-rule="evenodd" d="M244.161 187.478C248.624 191.299 250.855 197.262 250.855 205.365V235.705H236.482V229.098C235.325 231.05 233.75 232.627 231.756 233.828C228.803 235.607 224.996 236.496 220.336 236.496C216.201 236.496 212.657 235.804 209.704 234.421C206.75 232.971 204.486 231.028 202.911 228.59C201.335 226.152 200.548 223.418 200.548 220.387C200.548 217.225 201.303 214.458 202.812 212.086C204.387 209.714 206.849 207.869 210.196 206.551C213.543 205.168 217.908 204.476 223.29 204.476H235.497C235.497 201.182 234.48 198.612 232.445 196.767C230.476 194.923 227.424 194 223.29 194C220.467 194 217.678 194.461 214.921 195.384C212.23 196.24 209.933 197.426 208.03 198.942L202.517 188.169C205.405 186.127 208.883 184.546 212.952 183.426C217.022 182.306 221.157 181.746 225.357 181.746C233.43 181.746 239.698 183.656 244.161 187.478ZM217.481 215.248C218.859 214.062 221.353 213.469 224.963 213.469H235.497V218.905C234.578 221.277 233.102 223.088 231.067 224.34C229.032 225.526 226.735 226.119 224.176 226.119C221.485 226.119 219.352 225.559 217.776 224.439C216.267 223.253 215.512 221.672 215.512 219.695C215.512 217.916 216.168 216.434 217.481 215.248Z" fill="#142438"/>
<path d="M337.66 208.886L317.284 235.705H334.021L346.05 219.42L357.648 235.705H375.074L354.584 208.538L374.286 182.536H357.944L346.438 198.064L335.202 182.536H317.973L337.66 208.886Z" fill="#142438"/>
<path d="M294.367 235.705V182.536H309.725V235.705H294.367Z" fill="#142438"/>
<path d="M264.755 162.376V235.705H280.113V162.376H264.755Z" fill="#142438"/>
</svg>
