<svg width="570" height="120" viewBox="0 0 570 120" fill="none" xmlns="http://www.w3.org/2000/svg">
<path d="M459.019 26.1327C454.731 26.1327 451.239 24.8811 448.546 22.378C445.853 19.8748 444.507 16.771 444.507 13.0663C444.507 9.3617 445.853 6.25782 448.546 3.7547C451.239 1.25157 454.731 0 459.019 0C463.308 0 466.799 1.2015 469.492 3.60451C472.185 5.90739 473.532 8.91115 473.532 12.6158C473.532 16.5207 472.185 19.7747 469.492 22.378C466.899 24.8811 463.408 26.1327 459.019 26.1327Z" fill="#142438"/>
<path d="M56.7036 120C48.6244 120 41.0939 118.698 34.1119 116.095C27.2297 113.392 21.2451 109.587 16.1583 104.681C11.0714 99.7747 7.08171 94.0175 4.18918 87.4093C1.39639 80.801 0 73.5419 0 65.632C0 57.7221 1.39639 50.4631 4.18918 43.8548C7.08171 37.2466 11.0714 31.4894 16.1583 26.5832C21.3449 21.6771 27.3793 17.9224 34.2615 15.3191C41.1438 12.6158 48.6743 11.2641 56.8532 11.2641C65.9298 11.2641 74.1086 12.8661 81.3898 16.0701C88.7708 19.174 94.9548 23.7797 99.9419 29.8874L84.3821 44.3054C80.7914 40.2002 76.8017 37.1464 72.413 35.1439C68.0244 33.0413 63.2367 31.99 58.0501 31.99C53.1627 31.99 48.6743 32.791 44.5849 34.393C40.4954 35.995 36.9546 38.2979 33.9623 41.3016C30.97 44.3054 28.6261 47.8598 26.9305 51.965C25.3346 56.0701 24.5366 60.6258 24.5366 65.632C24.5366 70.6383 25.3346 75.194 26.9305 79.2991C28.6261 83.4043 30.97 86.9587 33.9623 89.9625C36.9546 92.9662 40.4954 95.2691 44.5849 96.8711C48.6743 98.4731 53.1627 99.2741 58.0501 99.2741C63.2367 99.2741 68.0244 98.2728 72.413 96.2703C76.8017 94.1677 80.7914 91.0138 84.3821 86.8085L99.9419 101.227C94.9548 107.334 88.7708 111.99 81.3898 115.194C74.1086 118.398 65.8799 120 56.7036 120Z" fill="#142438"/>
<path fill-rule="evenodd" clip-rule="evenodd" d="M175.268 44.9061C182.05 50.7134 185.441 59.7747 185.441 72.0901V118.198H163.598V108.157C161.841 111.123 159.447 113.519 156.416 115.344C151.928 118.048 146.143 119.399 139.061 119.399C132.777 119.399 127.391 118.348 122.903 116.245C118.415 114.043 114.973 111.089 112.58 107.384C110.186 103.68 108.989 99.5244 108.989 94.9186C108.989 90.1126 110.136 85.9074 112.43 82.3029C114.824 78.6984 118.564 75.8949 123.651 73.8924C128.738 71.7897 135.371 70.7384 143.55 70.7384H162.102C162.102 65.7322 160.556 61.8273 157.464 59.0238C154.471 56.2203 149.833 54.8185 143.55 54.8185C139.261 54.8185 135.022 55.5194 130.832 56.9212C126.743 58.2228 123.252 60.025 120.36 62.3279L111.981 45.9574C116.37 42.8536 121.656 40.4506 127.84 38.7484C134.024 37.0463 140.308 36.1952 146.692 36.1952C158.96 36.1952 168.485 39.0989 175.268 44.9061ZM134.722 87.1089C136.817 85.3066 140.607 84.4055 146.093 84.4055H162.102V92.6658C160.705 96.2703 158.461 99.0238 155.369 100.926C152.277 102.728 148.786 103.63 144.896 103.63C140.807 103.63 137.565 102.778 135.171 101.076C132.877 99.2741 131.73 96.8711 131.73 93.8673C131.73 91.164 132.728 88.9111 134.722 87.1089Z" fill="#142438"/>
<path d="M272.545 40.1001C267.558 37.4969 261.872 36.1952 255.489 36.1952C248.607 36.1952 242.472 37.6471 237.086 40.5507C233.91 42.2632 231.167 44.411 228.857 46.9942V37.3967H206.565V118.198H229.905V78.2478C229.905 73.2415 230.703 69.1364 232.299 65.9324C233.994 62.7284 236.288 60.3755 239.181 58.8736C242.173 57.2716 245.514 56.4706 249.205 56.4706C254.392 56.4706 258.381 58.0225 261.174 61.1264C264.067 64.2303 265.513 69.0363 265.513 75.5444V118.198H288.853V71.9399C288.853 63.7297 287.406 57.0213 284.514 51.8148C281.621 46.5081 277.632 42.6033 272.545 40.1001Z" fill="#142438"/>
<path fill-rule="evenodd" clip-rule="evenodd" d="M371.051 44.9061C377.834 50.7134 381.225 59.7747 381.225 72.0901V118.198H359.381V108.157C357.624 111.123 355.23 113.519 352.2 115.344C347.712 118.048 341.926 119.399 334.845 119.399C328.561 119.399 323.175 118.348 318.686 116.245C314.198 114.043 310.757 111.089 308.363 107.384C305.969 103.68 304.772 99.5244 304.772 94.9186C304.772 90.1126 305.919 85.9074 308.214 82.3029C310.607 78.6984 314.348 75.8949 319.435 73.8924C324.521 71.7897 331.154 70.7384 339.333 70.7384H357.885C357.885 65.7322 356.339 61.8273 353.247 59.0238C350.255 56.2203 345.617 54.8185 339.333 54.8185C335.044 54.8185 330.805 55.5194 326.616 56.9212C322.527 58.2228 319.036 60.025 316.143 62.3279L307.765 45.9574C312.153 42.8536 317.44 40.4506 323.624 38.7484C329.808 37.0463 336.092 36.1952 342.475 36.1952C354.743 36.1952 364.269 39.0989 371.051 44.9061ZM330.506 87.1089C332.601 85.3066 336.391 84.4055 341.877 84.4055H357.885V92.6658C356.489 96.2703 354.245 99.0238 351.153 100.926C348.061 102.728 344.57 103.63 340.68 103.63C336.59 103.63 333.349 102.778 330.955 101.076C328.661 99.2741 327.514 96.8711 327.514 93.8673C327.514 91.164 328.511 88.9111 330.506 87.1089Z" fill="#142438"/>
<path d="M513.142 77.4403L482.177 118.198H507.611L525.892 93.4486L543.518 118.198H570L538.861 76.9109L568.803 37.3967H543.967L526.481 60.9943L509.407 37.3967H483.224L513.142 77.4403Z" fill="#142438"/>
<path d="M447.35 118.198V37.3967H470.689V118.198H447.35Z" fill="#142438"/>
<path d="M402.349 6.75845V118.198H425.688V6.75845H402.349Z" fill="#142438"/>
</svg>
