<svg width="1600" height="1000" viewBox="0 0 1600 1000" fill="none" xmlns="http://www.w3.org/2000/svg">
<g clip-path="url(#clip0_4018_52858)">
<rect width="1600" height="1000" fill="#202A42"/>
<path d="M86.2622 89.6462C86.2622 80.302 93.8372 72.7271 103.181 72.7271" stroke="#0083F5" stroke-width="1.13636" stroke-dasharray="1.69 0.85"/>
<path d="M95.8315 94.1823C96.1453 94.1823 96.3997 93.9279 96.3997 93.6141L96.3997 88.5005C96.3997 88.1867 96.1453 87.9323 95.8315 87.9323C95.5177 87.9323 95.2633 88.1867 95.2633 88.5005L95.2633 93.0459L90.7179 93.046C90.4041 93.046 90.1497 93.3004 90.1497 93.6142C90.1497 93.928 90.4041 94.1823 90.7179 94.1823L95.8315 94.1823ZM95.8315 93.6141L96.2333 93.2123C90.7257 87.7048 81.7962 87.7048 76.2886 93.2123L76.6903 93.6141L77.0921 94.0159C82.1559 88.9522 90.366 88.9522 95.4298 94.0159L95.8315 93.6141ZM76.6903 93.6141L76.2886 93.2123C70.781 98.7199 70.781 107.649 76.2886 113.157L76.6903 112.755L77.0921 112.353C72.0283 107.29 72.0283 99.0796 77.0921 94.0159L76.6903 93.6141Z" fill="#0083F5"/>
<path d="M76.6894 112.183C76.3757 112.183 76.1213 112.437 76.1213 112.751L76.1213 117.865C76.1213 118.179 76.3757 118.433 76.6895 118.433C77.0033 118.433 77.2577 118.179 77.2577 117.865L77.2576 113.319L81.8031 113.319C82.1169 113.319 82.3713 113.065 82.3713 112.751C82.3713 112.437 82.1169 112.183 81.8031 112.183L76.6894 112.183ZM95.8306 112.751L96.2324 113.153V113.153L95.8306 112.751ZM76.6895 112.751L76.2877 113.153C81.7953 118.661 90.7248 118.661 96.2324 113.153L95.8306 112.751L95.4289 112.349C90.3651 117.413 82.155 117.413 77.0912 112.349L76.6895 112.751ZM95.8306 112.751L96.2324 113.153C101.74 107.646 101.74 98.7161 96.2324 93.2086L95.8306 93.6104L95.4289 94.0121C100.493 99.0758 100.493 107.286 95.4289 112.349L95.8306 112.751Z" fill="#0083F5"/>
<path d="M87.5317 101.914H96.4136V104.157C91.4882 104.471 87.5509 108.409 87.2368 113.334H84.9937V104.452H76.1108V102.208C81.0365 101.894 84.9749 97.957 85.2886 93.0312H87.5317V101.914Z" fill="#F8F9FA"/>
<path d="M86.2625 116.717C86.2625 126.061 78.6875 133.636 69.3433 133.636" stroke="#0083F5" stroke-width="1.13636" stroke-dasharray="1.69 0.85"/>
<path d="M120.101 89.6462C120.101 80.302 112.526 72.7271 103.182 72.7271" stroke="#0083F5" stroke-width="1.13636" stroke-dasharray="1.69 0.85"/>
<path d="M129.67 94.1823C129.984 94.1823 130.238 93.9279 130.238 93.6141L130.238 88.5005C130.238 88.1867 129.984 87.9323 129.67 87.9323C129.356 87.9323 129.102 88.1867 129.102 88.5005L129.102 93.0459L124.556 93.046C124.242 93.046 123.988 93.3004 123.988 93.6142C123.988 93.928 124.242 94.1823 124.556 94.1823L129.67 94.1823ZM129.67 93.6141L130.072 93.2123C124.564 87.7048 115.635 87.7048 110.127 93.2123L110.529 93.6141L110.93 94.0159C115.994 88.9522 124.204 88.9522 129.268 94.0159L129.67 93.6141ZM110.529 93.6141L110.127 93.2123C104.619 98.7199 104.619 107.649 110.127 113.157L110.529 112.755L110.93 112.353C105.867 107.29 105.867 99.0796 110.93 94.0159L110.529 93.6141Z" fill="#0083F5"/>
<path d="M110.528 112.183C110.214 112.183 109.96 112.437 109.96 112.751L109.96 117.865C109.96 118.179 110.214 118.433 110.528 118.433C110.842 118.433 111.096 118.179 111.096 117.865L111.096 113.319L115.641 113.319C115.955 113.319 116.21 113.065 116.21 112.751C116.21 112.437 115.955 112.183 115.641 112.183L110.528 112.183ZM129.669 112.751L130.071 113.153V113.153L129.669 112.751ZM110.528 112.751L110.126 113.153C115.634 118.661 124.563 118.661 130.071 113.153L129.669 112.751L129.267 112.349C124.203 117.413 115.993 117.413 110.93 112.349L110.528 112.751ZM129.669 112.751L130.071 113.153C135.578 107.646 135.578 98.7161 130.071 93.2086L129.669 93.6104L129.267 94.0121C134.331 99.0758 134.331 107.286 129.267 112.349L129.669 112.751Z" fill="#0083F5"/>
<path d="M121.835 102.717L129.527 107.158L128.405 109.1C123.982 106.909 118.604 108.351 115.869 112.459L113.927 111.338L118.368 103.645L110.675 99.2034L111.797 97.2608C116.219 99.4517 121.599 98.0109 124.333 93.9023L126.276 95.0239L121.835 102.717Z" fill="#F8F9FA"/>
<path d="M120.101 116.717C120.101 126.061 127.676 133.636 137.02 133.636" stroke="#0083F5" stroke-width="1.13636" stroke-dasharray="1.69 0.85"/>
<path d="M153.939 89.6462C153.939 80.302 161.514 72.7271 170.858 72.7271" stroke="#0083F5" stroke-width="1.13636" stroke-dasharray="1.69 0.85"/>
<path d="M163.508 94.1823C163.822 94.1823 164.076 93.9279 164.076 93.6141L164.076 88.5005C164.076 88.1867 163.822 87.9323 163.508 87.9323C163.194 87.9323 162.94 88.1867 162.94 88.5005L162.94 93.0459L158.395 93.046C158.081 93.046 157.826 93.3004 157.826 93.6142C157.826 93.928 158.081 94.1823 158.395 94.1823L163.508 94.1823ZM163.508 93.6141L163.91 93.2123C158.402 87.7048 149.473 87.7048 143.965 93.2123L144.367 93.6141L144.769 94.0159C149.833 88.9522 158.043 88.9522 163.107 94.0159L163.508 93.6141ZM144.367 93.6141L143.965 93.2123C138.458 98.7199 138.458 107.649 143.965 113.157L144.367 112.755L144.769 112.353C139.705 107.29 139.705 99.0796 144.769 94.0159L144.367 93.6141Z" fill="#0083F5"/>
<path d="M144.366 112.183C144.052 112.183 143.798 112.437 143.798 112.751L143.798 117.865C143.798 118.179 144.052 118.433 144.366 118.433C144.68 118.433 144.934 118.179 144.934 117.865L144.934 113.319L149.48 113.319C149.794 113.319 150.048 113.065 150.048 112.751C150.048 112.437 149.794 112.183 149.48 112.183L144.366 112.183ZM163.507 112.751L163.909 113.153V113.153L163.507 112.751ZM144.366 112.751L143.964 113.153C149.472 118.661 158.402 118.661 163.909 113.153L163.507 112.751L163.106 112.349C158.042 117.413 149.832 117.413 144.768 112.349L144.366 112.751ZM163.507 112.751L163.909 113.153C169.417 107.646 169.417 98.7161 163.909 93.2086L163.507 93.6104L163.106 94.0121C168.169 99.0758 168.169 107.286 163.106 112.349L163.507 112.751Z" fill="#0083F5"/>
<path d="M155.672 103.645L160.113 111.338L158.171 112.459C155.436 108.351 150.058 106.909 145.635 109.1L144.514 107.158L152.205 102.717L147.764 95.0239L149.707 93.9019C152.442 98.0104 157.821 99.4525 162.244 97.2616L163.365 99.2034L155.672 103.645Z" fill="#F8F9FA"/>
<path d="M153.939 116.717C153.939 126.061 146.364 133.636 137.02 133.636" stroke="#0083F5" stroke-width="1.13636" stroke-dasharray="1.69 0.85"/>
<path d="M187.778 89.6462C187.778 80.302 180.203 72.7271 170.858 72.7271" stroke="#0083F5" stroke-width="1.13636" stroke-dasharray="1.69 0.85"/>
<path d="M197.347 94.1823C197.66 94.1823 197.915 93.9279 197.915 93.6141L197.915 88.5005C197.915 88.1867 197.66 87.9323 197.347 87.9323C197.033 87.9323 196.778 88.1867 196.778 88.5005L196.778 93.0459L192.233 93.046C191.919 93.046 191.665 93.3004 191.665 93.6142C191.665 93.928 191.919 94.1823 192.233 94.1823L197.347 94.1823ZM197.347 93.6141L197.748 93.2123C192.241 87.7048 183.311 87.7048 177.804 93.2123L178.205 93.6141L178.607 94.0159C183.671 88.9522 191.881 88.9522 196.945 94.0159L197.347 93.6141ZM178.205 93.6141L177.804 93.2123C172.296 98.7199 172.296 107.649 177.804 113.157L178.205 112.755L178.607 112.353C173.543 107.29 173.543 99.0796 178.607 94.0159L178.205 93.6141Z" fill="#0083F5"/>
<path d="M178.205 112.183C177.891 112.183 177.636 112.437 177.636 112.751L177.636 117.865C177.636 118.179 177.891 118.433 178.205 118.433C178.518 118.433 178.773 118.179 178.773 117.865L178.773 113.319L183.318 113.319C183.632 113.319 183.886 113.065 183.886 112.751C183.886 112.437 183.632 112.183 183.318 112.183L178.205 112.183ZM197.346 112.751L197.748 113.153V113.153L197.346 112.751ZM178.205 112.751L177.803 113.153C183.31 118.661 192.24 118.661 197.748 113.153L197.346 112.751L196.944 112.349C191.88 117.413 183.67 117.413 178.606 112.349L178.205 112.751ZM197.346 112.751L197.748 113.153C203.255 107.646 203.255 98.7161 197.748 93.2086L197.346 93.6104L196.944 94.0121C202.008 99.0758 202.008 107.286 196.944 112.349L197.346 112.751Z" fill="#0083F5"/>
<path d="M189.046 104.452L189.046 113.334L186.803 113.334C186.489 108.409 182.552 104.472 177.626 104.158L177.626 101.914L186.508 101.914L186.508 93.0312L188.751 93.0312C189.065 97.957 193.004 101.895 197.929 102.209L197.929 104.452L189.046 104.452Z" fill="#F8F9FA"/>
<path d="M187.777 116.717C187.777 126.061 195.352 133.636 204.697 133.636" stroke="#0083F5" stroke-width="1.13636" stroke-dasharray="1.69 0.85"/>
<path d="M221.616 89.6462C221.616 80.302 229.191 72.7271 238.535 72.7271" stroke="#0083F5" stroke-width="1.13636" stroke-dasharray="1.69 0.85"/>
<path d="M231.185 94.1823C231.499 94.1823 231.753 93.9279 231.753 93.6141L231.753 88.5005C231.753 88.1867 231.499 87.9323 231.185 87.9323C230.871 87.9323 230.617 88.1867 230.617 88.5005L230.617 93.0459L226.071 93.046C225.758 93.046 225.503 93.3004 225.503 93.6142C225.503 93.928 225.758 94.1823 226.071 94.1823L231.185 94.1823ZM231.185 93.6141L231.587 93.2123C226.079 87.7048 217.15 87.7048 211.642 93.2123L212.044 93.6141L212.446 94.0159C217.509 88.9522 225.719 88.9522 230.783 94.0159L231.185 93.6141ZM212.044 93.6141L211.642 93.2123C206.135 98.7199 206.135 107.649 211.642 113.157L212.044 112.755L212.446 112.353C207.382 107.29 207.382 99.0796 212.446 94.0159L212.044 93.6141Z" fill="#0083F5"/>
<path d="M212.043 112.183C211.729 112.183 211.475 112.437 211.475 112.751L211.475 117.865C211.475 118.179 211.729 118.433 212.043 118.433C212.357 118.433 212.611 118.179 212.611 117.865L212.611 113.319L217.157 113.319C217.47 113.319 217.725 113.065 217.725 112.751C217.725 112.437 217.47 112.183 217.157 112.183L212.043 112.183ZM231.184 112.751L231.586 113.153V113.153L231.184 112.751ZM212.043 112.751L211.641 113.153C217.149 118.661 226.078 118.661 231.586 113.153L231.184 112.751L230.782 112.349C225.719 117.413 217.509 117.413 212.445 112.349L212.043 112.751ZM231.184 112.751L231.586 113.153C237.093 107.646 237.093 98.7161 231.586 93.2086L231.184 93.6104L230.782 94.0121C235.846 99.0758 235.846 107.286 230.782 112.349L231.184 112.751Z" fill="#0083F5"/>
<path d="M222.081 104.913L217.639 112.607L215.697 111.486C217.889 107.063 216.446 101.684 212.338 98.9493L213.46 97.0059L221.153 101.447L225.593 93.7554L227.536 94.877C225.345 99.2996 226.786 104.678 230.895 107.413L229.774 109.354L222.081 104.913Z" fill="#F8F9FA"/>
<path d="M221.616 116.717C221.616 126.061 214.041 133.636 204.697 133.636" stroke="#0083F5" stroke-width="1.13636" stroke-dasharray="1.69 0.85"/>
<path d="M255.454 89.6462C255.454 80.302 247.879 72.7271 238.535 72.7271" stroke="#0083F5" stroke-width="1.13636" stroke-dasharray="1.69 0.85"/>
<path d="M265.023 94.1823C265.337 94.1823 265.592 93.9279 265.592 93.6141L265.592 88.5005C265.592 88.1867 265.337 87.9323 265.023 87.9323C264.71 87.9323 264.455 88.1867 264.455 88.5005L264.455 93.0459L259.91 93.046C259.596 93.046 259.342 93.3004 259.342 93.6142C259.342 93.928 259.596 94.1823 259.91 94.1823L265.023 94.1823ZM265.023 93.6141L265.425 93.2123C259.918 87.7048 250.988 87.7048 245.48 93.2123L245.882 93.6141L246.284 94.0159C251.348 88.9522 259.558 88.9522 264.622 94.0159L265.023 93.6141ZM245.882 93.6141L245.48 93.2123C239.973 98.7199 239.973 107.649 245.48 113.157L245.882 112.755L246.284 112.353C241.22 107.29 241.22 99.0796 246.284 94.0159L245.882 93.6141Z" fill="#0083F5"/>
<path d="M245.881 112.183C245.568 112.183 245.313 112.437 245.313 112.751L245.313 117.865C245.313 118.179 245.568 118.433 245.881 118.433C246.195 118.433 246.45 118.179 246.45 117.865L246.45 113.319L250.995 113.319C251.309 113.319 251.563 113.065 251.563 112.751C251.563 112.437 251.309 112.183 250.995 112.183L245.881 112.183ZM265.023 112.751L265.424 113.153V113.153L265.023 112.751ZM245.881 112.751L245.48 113.153C250.987 118.661 259.917 118.661 265.424 113.153L265.023 112.751L264.621 112.349C259.557 117.413 251.347 117.413 246.283 112.349L245.881 112.751ZM265.023 112.751L265.424 113.153C270.932 107.646 270.932 98.7161 265.424 93.2086L265.023 93.6104L264.621 94.0121C269.685 99.0758 269.685 107.286 264.621 112.349L265.023 112.751Z" fill="#0083F5"/>
<path d="M254.991 104.917L247.298 109.358L246.177 107.415C250.285 104.681 251.726 99.3012 249.535 94.8787L251.478 93.7572L255.92 101.451L263.612 97.0093L264.733 98.9511C260.625 101.686 259.183 107.065 261.374 111.487L259.432 112.608L254.991 104.917Z" fill="#F8F9FA"/>
<path d="M255.454 116.717C255.454 126.061 263.029 133.636 272.373 133.636" stroke="#0083F5" stroke-width="1.13636" stroke-dasharray="1.69 0.85"/>
<g clip-path="url(#clip1_4018_52858)">
<path d="M812.443 635.484C847.767 670.808 847.833 728.038 812.642 763.445L594.284 545.087C558.96 509.763 558.893 452.533 594.084 417.125L812.443 635.484Z" stroke="white" stroke-width="0.568182"/>
<circle cx="658.815" cy="480.556" r="4.54545" transform="rotate(-45 658.815 480.556)" fill="white"/>
<path d="M645.959 467.699C642.549 471.109 640.634 475.734 640.634 480.556C640.634 485.378 642.549 490.002 645.959 493.412C649.369 496.822 653.993 498.737 658.816 498.737C663.638 498.737 668.262 496.822 671.672 493.412" stroke="white" stroke-width="0.568182" stroke-miterlimit="10" stroke-linecap="round" stroke-linejoin="round" stroke-dasharray="1.14 2.27"/>
<path d="M633.102 454.843C629.725 458.219 627.047 462.228 625.219 466.64C623.392 471.052 622.451 475.78 622.451 480.556C622.451 485.331 623.392 490.06 625.219 494.471C627.047 498.883 629.725 502.892 633.102 506.269C636.479 509.645 640.488 512.324 644.899 514.151C649.311 515.979 654.04 516.919 658.815 516.919C663.59 516.919 668.319 515.979 672.731 514.151C677.143 512.324 681.151 509.645 684.528 506.269" stroke="white" stroke-width="0.568182" stroke-miterlimit="10" stroke-linecap="round" stroke-linejoin="round" stroke-dasharray="1.14 2.27"/>
<path d="M620.246 441.986C615.181 447.051 611.163 453.064 608.422 459.682C605.681 466.3 604.27 473.393 604.27 480.556C604.27 487.719 605.681 494.812 608.422 501.429C611.163 508.047 615.181 514.06 620.246 519.125C625.311 524.19 631.324 528.208 637.942 530.949C644.559 533.69 651.652 535.101 658.815 535.101C665.978 535.101 673.071 533.69 679.689 530.949C686.307 528.208 692.32 524.19 697.385 519.125" stroke="white" stroke-width="0.568182" stroke-miterlimit="10" stroke-linecap="round" stroke-linejoin="round" stroke-dasharray="1.14 2.27"/>
<path d="M607.389 429.13C593.75 442.769 586.088 461.267 586.088 480.556C586.088 499.844 593.75 518.343 607.389 531.982C621.028 545.621 639.527 553.283 658.815 553.283C678.104 553.283 696.602 545.621 710.241 531.982" stroke="white" stroke-width="0.568182" stroke-miterlimit="10" stroke-linecap="round" stroke-linejoin="round" stroke-dasharray="1.14 2.27"/>
<path d="M594.734 416.474C603.149 408.059 613.14 401.383 624.135 396.829C635.13 392.275 646.914 389.931 658.815 389.931C670.716 389.931 682.501 392.275 693.496 396.829C704.491 401.383 714.482 408.059 722.897 416.474C731.312 424.889 737.988 434.88 742.542 445.875C747.096 456.87 749.44 468.655 749.44 480.556C749.44 492.457 747.096 504.241 742.542 515.236C737.988 526.232 731.312 536.222 722.897 544.637C714.482 553.053 704.491 559.728 693.496 564.282C682.501 568.837 670.716 571.181 658.815 571.181C646.914 571.181 635.13 568.837 624.135 564.282C613.139 559.728 603.149 553.052 594.734 544.637C586.318 536.222 579.643 526.231 575.089 515.236C570.534 504.241 568.19 492.457 568.19 480.556C568.19 468.655 570.534 456.87 575.089 445.875C579.643 434.88 586.319 424.889 594.734 416.474L594.734 416.474Z" stroke="white" stroke-width="0.568182" stroke-miterlimit="10" stroke-linecap="round" stroke-linejoin="round"/>
<path d="M594.533 544.838L658.815 480.555" stroke="white" stroke-width="0.568182" stroke-miterlimit="10" stroke-linecap="round" stroke-linejoin="round" stroke-dasharray="1.14 2.27"/>
<circle cx="748.618" cy="699.309" r="4.54545" transform="rotate(-45 748.618 699.309)" fill="white"/>
<path d="M735.762 686.452C739.171 683.042 743.796 681.127 748.618 681.127C753.44 681.127 758.065 683.042 761.475 686.452C764.884 689.862 766.8 694.487 766.8 699.309C766.8 704.131 764.884 708.755 761.475 712.165" stroke="white" stroke-width="0.568182" stroke-miterlimit="10" stroke-linecap="round" stroke-linejoin="round" stroke-dasharray="1.14 2.27"/>
<path d="M722.905 673.595C726.282 670.219 730.291 667.54 734.702 665.713C739.114 663.885 743.843 662.945 748.618 662.945C753.394 662.945 758.122 663.885 762.534 665.713C766.946 667.54 770.954 670.219 774.331 673.595C777.708 676.972 780.386 680.981 782.214 685.393C784.041 689.804 784.982 694.533 784.982 699.308C784.982 704.084 784.041 708.812 782.214 713.224C780.386 717.636 777.708 721.645 774.331 725.021" stroke="white" stroke-width="0.568182" stroke-miterlimit="10" stroke-linecap="round" stroke-linejoin="round" stroke-dasharray="1.14 2.27"/>
<path d="M710.049 660.739C715.114 655.674 721.127 651.656 727.745 648.915C734.362 646.174 741.455 644.763 748.618 644.763C755.781 644.763 762.874 646.174 769.492 648.915C776.11 651.656 782.123 655.674 787.188 660.739C792.253 665.804 796.27 671.817 799.012 678.435C801.753 685.052 803.164 692.145 803.164 699.308C803.164 706.471 801.753 713.564 799.012 720.182C796.27 726.8 792.253 732.813 787.188 737.878" stroke="white" stroke-width="0.568182" stroke-miterlimit="10" stroke-linecap="round" stroke-linejoin="round" stroke-dasharray="1.14 2.27"/>
<path d="M697.192 647.882C710.831 634.243 729.33 626.581 748.618 626.581C767.907 626.581 786.405 634.243 800.044 647.882C813.683 661.521 821.345 680.02 821.345 699.308C821.345 718.597 813.683 737.095 800.044 750.734" stroke="white" stroke-width="0.568182" stroke-miterlimit="10" stroke-linecap="round" stroke-linejoin="round" stroke-dasharray="1.14 2.27"/>
<path d="M684.537 635.227C692.952 626.812 702.942 620.136 713.937 615.582C724.933 611.028 736.717 608.684 748.618 608.684C760.519 608.684 772.304 611.028 783.299 615.582C794.294 620.136 804.284 626.812 812.7 635.227C821.115 643.642 827.79 653.633 832.345 664.628C836.899 675.623 839.243 687.408 839.243 699.309C839.243 711.21 836.899 722.994 832.345 733.989C827.79 744.984 821.115 754.975 812.7 763.39C804.284 771.805 794.294 778.481 783.299 783.035C772.304 787.59 760.519 789.934 748.618 789.934C736.717 789.934 724.932 787.589 713.937 783.035C702.942 778.481 692.952 771.805 684.537 763.39C676.121 754.975 669.446 744.984 664.891 733.989C660.337 722.994 657.993 711.21 657.993 699.309C657.993 687.407 660.337 675.623 664.892 664.628C669.446 653.633 676.121 643.642 684.537 635.227L684.537 635.227Z" stroke="white" stroke-width="0.568182" stroke-miterlimit="10" stroke-linecap="round" stroke-linejoin="round"/>
<path d="M748.618 699.309L812.901 635.026" stroke="white" stroke-width="0.568182" stroke-miterlimit="10" stroke-linecap="round" stroke-linejoin="round" stroke-dasharray="1.14 2.27"/>
<path d="M902.438 545.488C937.762 580.813 937.828 638.042 902.638 673.449L684.28 455.091C648.956 419.767 648.889 362.537 684.08 327.13L902.438 545.488Z" stroke="white" stroke-width="0.568182"/>
<circle cx="748.811" cy="390.56" r="4.54545" transform="rotate(-45 748.811 390.56)" fill="white"/>
<path d="M735.955 377.704C732.545 381.113 730.629 385.738 730.629 390.56C730.629 395.382 732.545 400.007 735.955 403.417C739.364 406.826 743.989 408.742 748.811 408.742C753.633 408.742 758.258 406.826 761.668 403.417" stroke="white" stroke-width="0.568182" stroke-miterlimit="10" stroke-linecap="round" stroke-linejoin="round" stroke-dasharray="1.14 2.27"/>
<path d="M723.098 364.847C719.721 368.224 717.043 372.232 715.215 376.644C713.388 381.056 712.447 385.785 712.447 390.56C712.447 395.335 713.388 400.064 715.215 404.476C717.043 408.888 719.721 412.896 723.098 416.273C726.474 419.65 730.483 422.328 734.895 424.156C739.307 425.983 744.035 426.924 748.811 426.924C753.586 426.924 758.315 425.983 762.726 424.156C767.138 422.328 771.147 419.65 774.524 416.273" stroke="white" stroke-width="0.568182" stroke-miterlimit="10" stroke-linecap="round" stroke-linejoin="round" stroke-dasharray="1.14 2.27"/>
<path d="M710.241 351.991C705.176 357.056 701.159 363.069 698.417 369.686C695.676 376.304 694.265 383.397 694.265 390.56C694.265 397.723 695.676 404.816 698.417 411.434C701.159 418.051 705.176 424.065 710.241 429.13C715.306 434.195 721.319 438.212 727.937 440.953C734.555 443.695 741.648 445.106 748.811 445.106C755.974 445.106 763.067 443.695 769.684 440.953C776.302 438.212 782.315 434.195 787.38 429.13" stroke="white" stroke-width="0.568182" stroke-miterlimit="10" stroke-linecap="round" stroke-linejoin="round" stroke-dasharray="1.14 2.27"/>
<path d="M697.385 339.134C683.746 352.773 676.084 371.272 676.084 390.56C676.084 409.849 683.746 428.347 697.385 441.986C711.024 455.625 729.522 463.287 748.811 463.287C768.099 463.287 786.598 455.625 800.237 441.986" stroke="white" stroke-width="0.568182" stroke-miterlimit="10" stroke-linecap="round" stroke-linejoin="round" stroke-dasharray="1.14 2.27"/>
<path d="M684.729 326.479C693.145 318.063 703.135 311.388 714.13 306.833C725.125 302.279 736.91 299.935 748.811 299.935C760.712 299.935 772.497 302.279 783.492 306.833C794.487 311.388 804.477 318.063 812.893 326.479C821.308 334.894 827.983 344.884 832.538 355.879C837.092 366.875 839.436 378.659 839.436 390.56C839.436 402.461 837.092 414.246 832.538 425.241C827.983 436.236 821.308 446.226 812.892 454.642C804.477 463.057 794.487 469.732 783.492 474.287C772.496 478.841 760.712 481.185 748.811 481.185C736.91 481.185 725.125 478.841 714.13 474.287C703.135 469.732 693.145 463.057 684.729 454.642C676.314 446.226 669.639 436.236 665.084 425.241C660.53 414.246 658.186 402.461 658.186 390.56C658.186 378.659 660.53 366.874 665.084 355.879C669.639 344.884 676.314 334.894 684.729 326.478L684.729 326.479Z" stroke="white" stroke-width="0.568182" stroke-miterlimit="10" stroke-linecap="round" stroke-linejoin="round"/>
<path d="M684.528 454.842L748.811 390.56" stroke="white" stroke-width="0.568182" stroke-miterlimit="10" stroke-linecap="round" stroke-linejoin="round" stroke-dasharray="1.14 2.27"/>
<circle cx="838.614" cy="609.313" r="4.54545" transform="rotate(-45 838.614 609.313)" fill="white"/>
<path d="M825.757 596.457C829.167 593.047 833.792 591.131 838.614 591.131C843.436 591.131 848.061 593.047 851.47 596.457C854.88 599.866 856.796 604.491 856.796 609.313C856.796 614.135 854.88 618.76 851.47 622.17" stroke="white" stroke-width="0.568182" stroke-miterlimit="10" stroke-linecap="round" stroke-linejoin="round" stroke-dasharray="1.14 2.27"/>
<path d="M812.901 583.6C816.277 580.223 820.286 577.544 824.698 575.717C829.11 573.89 833.838 572.949 838.614 572.949C843.389 572.949 848.118 573.89 852.53 575.717C856.941 577.544 860.95 580.223 864.327 583.6C867.703 586.976 870.382 590.985 872.209 595.397C874.037 599.809 874.977 604.537 874.977 609.313C874.977 614.088 874.037 618.817 872.209 623.228C870.382 627.64 867.703 631.649 864.327 635.026" stroke="white" stroke-width="0.568182" stroke-miterlimit="10" stroke-linecap="round" stroke-linejoin="round" stroke-dasharray="1.14 2.27"/>
<path d="M800.044 570.743C805.109 565.678 811.122 561.66 817.74 558.919C824.358 556.178 831.451 554.767 838.614 554.767C845.777 554.767 852.87 556.178 859.487 558.919C866.105 561.66 872.118 565.678 877.183 570.743C882.248 575.808 886.266 581.821 889.007 588.439C891.748 595.057 893.159 602.15 893.159 609.313C893.159 616.476 891.748 623.569 889.007 630.186C886.266 636.804 882.248 642.817 877.183 647.882" stroke="white" stroke-width="0.568182" stroke-miterlimit="10" stroke-linecap="round" stroke-linejoin="round" stroke-dasharray="1.14 2.27"/>
<path d="M787.188 557.887C800.827 544.248 819.325 536.586 838.614 536.586C857.902 536.586 876.401 544.248 890.04 557.887C903.679 571.526 911.341 590.024 911.341 609.313C911.341 628.601 903.679 647.1 890.04 660.739" stroke="white" stroke-width="0.568182" stroke-miterlimit="10" stroke-linecap="round" stroke-linejoin="round" stroke-dasharray="1.14 2.27"/>
<path d="M774.532 545.231C782.947 536.816 792.938 530.141 803.933 525.586C814.928 521.032 826.713 518.688 838.614 518.688C850.515 518.688 862.299 521.032 873.294 525.586C884.29 530.141 894.28 536.816 902.695 545.231C911.111 553.647 917.786 563.637 922.34 574.632C926.895 585.627 929.239 597.412 929.239 609.313C929.239 621.214 926.895 632.999 922.34 643.994C917.786 654.989 911.111 664.979 902.695 673.395C894.28 681.81 884.289 688.485 873.294 693.04C862.299 697.594 850.515 699.938 838.614 699.938C826.713 699.938 814.928 697.594 803.933 693.04C792.938 688.485 782.947 681.81 774.532 673.395C766.117 664.979 759.441 654.989 754.887 643.994C750.333 632.998 747.989 621.214 747.989 609.313C747.989 597.412 750.333 585.627 754.887 574.632C759.441 563.637 766.117 553.647 774.532 545.231L774.532 545.231Z" stroke="white" stroke-width="0.568182" stroke-miterlimit="10" stroke-linecap="round" stroke-linejoin="round"/>
<path d="M838.614 609.313L902.896 545.031" stroke="white" stroke-width="0.568182" stroke-miterlimit="10" stroke-linecap="round" stroke-linejoin="round" stroke-dasharray="1.14 2.27"/>
<path d="M992.433 455.493C1027.76 490.818 1027.82 548.047 992.633 583.454L774.275 365.096C738.951 329.772 738.884 272.542 774.075 237.135L992.433 455.493Z" stroke="white" stroke-width="0.568182"/>
<circle cx="838.806" cy="300.565" r="4.54545" transform="rotate(-45 838.806 300.565)" fill="white"/>
<path d="M825.95 287.708C822.54 291.118 820.624 295.743 820.624 300.565C820.624 305.387 822.54 310.012 825.95 313.421C829.359 316.831 833.984 318.747 838.806 318.747C843.628 318.747 848.253 316.831 851.663 313.421" stroke="white" stroke-width="0.568182" stroke-miterlimit="10" stroke-linecap="round" stroke-linejoin="round" stroke-dasharray="1.14 2.27"/>
<path d="M813.093 274.852C809.716 278.229 807.038 282.237 805.21 286.649C803.383 291.061 802.442 295.79 802.442 300.565C802.442 305.34 803.383 310.069 805.21 314.481C807.038 318.893 809.716 322.901 813.093 326.278C816.47 329.655 820.478 332.333 824.89 334.161C829.302 335.988 834.03 336.929 838.806 336.929C843.581 336.929 848.31 335.988 852.722 334.161C857.133 332.333 861.142 329.655 864.519 326.278" stroke="white" stroke-width="0.568182" stroke-miterlimit="10" stroke-linecap="round" stroke-linejoin="round" stroke-dasharray="1.14 2.27"/>
<path d="M800.236 261.995C795.171 267.06 791.154 273.074 788.412 279.691C785.671 286.309 784.26 293.402 784.26 300.565C784.26 307.728 785.671 314.821 788.412 321.439C791.154 328.056 795.171 334.069 800.236 339.134C805.301 344.199 811.315 348.217 817.932 350.958C824.55 353.7 831.643 355.11 838.806 355.11C845.969 355.11 853.062 353.7 859.68 350.958C866.297 348.217 872.31 344.199 877.375 339.134" stroke="white" stroke-width="0.568182" stroke-miterlimit="10" stroke-linecap="round" stroke-linejoin="round" stroke-dasharray="1.14 2.27"/>
<path d="M787.38 249.139C773.741 262.778 766.079 281.276 766.079 300.565C766.079 319.853 773.741 338.352 787.38 351.991C801.019 365.63 819.518 373.292 838.806 373.292C858.094 373.292 876.593 365.63 890.232 351.991" stroke="white" stroke-width="0.568182" stroke-miterlimit="10" stroke-linecap="round" stroke-linejoin="round" stroke-dasharray="1.14 2.27"/>
<path d="M774.725 236.483C783.14 228.068 793.13 221.393 804.125 216.838C815.121 212.284 826.905 209.94 838.806 209.94C850.707 209.94 862.492 212.284 873.487 216.838C884.482 221.393 894.472 228.068 902.888 236.483C911.303 244.899 917.978 254.889 922.533 265.884C927.087 276.879 929.431 288.664 929.431 300.565C929.431 312.466 927.087 324.251 922.533 335.246C917.978 346.241 911.303 356.231 902.888 364.647C894.472 373.062 884.482 379.737 873.487 384.292C862.492 388.846 850.707 391.19 838.806 391.19C826.905 391.19 815.12 388.846 804.125 384.292C793.13 379.737 783.14 373.062 774.724 364.646C766.309 356.231 759.634 346.241 755.079 335.246C750.525 324.25 748.181 312.466 748.181 300.565C748.181 288.664 750.525 276.879 755.08 265.884C759.634 254.889 766.309 244.899 774.725 236.483L774.725 236.483Z" stroke="white" stroke-width="0.568182" stroke-miterlimit="10" stroke-linecap="round" stroke-linejoin="round"/>
<path d="M774.523 364.847L838.806 300.565" stroke="white" stroke-width="0.568182" stroke-miterlimit="10" stroke-linecap="round" stroke-linejoin="round" stroke-dasharray="1.14 2.27"/>
<circle cx="928.609" cy="519.318" r="4.54545" transform="rotate(-45 928.609 519.318)" fill="white"/>
<path d="M915.752 506.461C919.162 503.052 923.787 501.136 928.609 501.136C933.431 501.136 938.056 503.052 941.465 506.461C944.875 509.871 946.791 514.496 946.791 519.318C946.791 524.14 944.875 528.765 941.465 532.174" stroke="white" stroke-width="0.568182" stroke-miterlimit="10" stroke-linecap="round" stroke-linejoin="round" stroke-dasharray="1.14 2.27"/>
<path d="M902.896 493.605C906.273 490.228 910.281 487.549 914.693 485.722C919.105 483.894 923.834 482.954 928.609 482.954C933.384 482.954 938.113 483.894 942.525 485.722C946.936 487.549 950.945 490.228 954.322 493.605C957.699 496.981 960.377 500.99 962.205 505.402C964.032 509.814 964.973 514.542 964.973 519.318C964.973 524.093 964.032 528.821 962.205 533.233C960.377 537.645 957.699 541.654 954.322 545.031" stroke="white" stroke-width="0.568182" stroke-miterlimit="10" stroke-linecap="round" stroke-linejoin="round" stroke-dasharray="1.14 2.27"/>
<path d="M890.039 480.748C895.104 475.683 901.117 471.665 907.735 468.924C914.353 466.183 921.446 464.772 928.609 464.772C935.772 464.772 942.865 466.183 949.483 468.924C956.1 471.665 962.113 475.683 967.178 480.748C972.243 485.813 976.261 491.826 979.002 498.444C981.743 505.062 983.154 512.155 983.154 519.318C983.154 526.481 981.743 533.574 979.002 540.191C976.261 546.809 972.243 552.822 967.178 557.887" stroke="white" stroke-width="0.568182" stroke-miterlimit="10" stroke-linecap="round" stroke-linejoin="round" stroke-dasharray="1.14 2.27"/>
<path d="M877.183 467.892C890.822 454.253 909.32 446.59 928.609 446.59C947.897 446.59 966.396 454.253 980.035 467.892C993.674 481.531 1001.34 500.029 1001.34 519.318C1001.34 538.606 993.674 557.105 980.035 570.744" stroke="white" stroke-width="0.568182" stroke-miterlimit="10" stroke-linecap="round" stroke-linejoin="round" stroke-dasharray="1.14 2.27"/>
<path d="M864.527 455.236C872.943 446.821 882.933 440.146 893.928 435.591C904.923 431.037 916.708 428.693 928.609 428.693C940.51 428.693 952.294 431.037 963.29 435.591C974.285 440.146 984.275 446.821 992.69 455.236C1001.11 463.652 1007.78 473.642 1012.34 484.637C1016.89 495.632 1019.23 507.417 1019.23 519.318C1019.23 531.219 1016.89 543.003 1012.34 553.999C1007.78 564.994 1001.11 574.984 992.69 583.399C984.275 591.815 974.285 598.49 963.289 603.044C952.294 607.599 940.51 609.943 928.609 609.943C916.708 609.943 904.923 607.599 893.928 603.044C882.933 598.49 872.943 591.815 864.527 583.399C856.112 574.984 849.437 564.994 844.882 553.999C840.328 543.003 837.984 531.219 837.984 519.318C837.984 507.417 840.328 495.632 844.882 484.637C849.437 473.642 856.112 463.652 864.527 455.236L864.527 455.236Z" stroke="white" stroke-width="0.568182" stroke-miterlimit="10" stroke-linecap="round" stroke-linejoin="round"/>
<path d="M928.609 519.318L992.891 455.035" stroke="white" stroke-width="0.568182" stroke-miterlimit="10" stroke-linecap="round" stroke-linejoin="round" stroke-dasharray="1.14 2.27"/>
<path d="M673.427 614.709C673.215 614.921 672.991 615.074 672.755 615.167C672.52 615.259 672.294 615.29 672.077 615.259C671.86 615.227 671.673 615.132 671.517 614.973C671.393 614.851 671.307 614.712 671.258 614.555C671.21 614.398 671.197 614.239 671.221 614.078C671.245 613.916 671.304 613.768 671.4 613.634L671.38 613.614C671.196 613.731 670.998 613.777 670.785 613.75C670.572 613.721 670.387 613.628 670.23 613.469C670.078 613.32 669.986 613.144 669.953 612.941C669.92 612.738 669.943 612.53 670.023 612.315C670.102 612.099 670.236 611.896 670.425 611.707C670.612 611.52 670.814 611.387 671.029 611.309C671.244 611.229 671.452 611.206 671.655 611.239C671.858 611.271 672.035 611.363 672.186 611.513C672.344 611.671 672.436 611.857 672.462 612.072C672.489 612.285 672.445 612.482 672.331 612.663L672.351 612.683C672.484 612.588 672.631 612.529 672.792 612.507C672.953 612.484 673.112 612.496 673.269 612.544C673.426 612.592 673.567 612.677 673.689 612.8C673.847 612.958 673.942 613.146 673.973 613.363C674.004 613.58 673.973 613.806 673.881 614.041C673.789 614.275 673.638 614.498 673.427 614.709ZM673.019 614.301C673.128 614.191 673.205 614.078 673.249 613.96C673.291 613.841 673.301 613.725 673.277 613.612C673.253 613.498 673.197 613.397 673.109 613.306C673.015 613.214 672.908 613.156 672.789 613.132C672.67 613.107 672.549 613.114 672.427 613.155C672.305 613.195 672.192 613.267 672.089 613.371C671.984 613.475 671.911 613.589 671.87 613.712C671.829 613.834 671.821 613.955 671.846 614.075C671.871 614.193 671.93 614.298 672.024 614.391C672.113 614.481 672.214 614.538 672.327 614.562C672.439 614.585 672.555 614.575 672.674 614.532C672.793 614.488 672.909 614.411 673.019 614.301ZM671.688 612.97C671.777 612.88 671.838 612.783 671.87 612.679C671.904 612.573 671.908 612.468 671.883 612.363C671.858 612.259 671.804 612.164 671.721 612.078C671.636 611.995 671.543 611.942 671.441 611.918C671.338 611.893 671.235 611.899 671.131 611.934C671.027 611.968 670.929 612.03 670.839 612.121C670.747 612.213 670.683 612.312 670.648 612.417C670.612 612.521 670.607 612.624 670.632 612.727C670.657 612.828 670.711 612.92 670.796 613.002C670.88 613.088 670.973 613.144 671.077 613.169C671.181 613.193 671.286 613.189 671.392 613.157C671.499 613.122 671.597 613.06 671.688 612.97ZM676.077 612.09C675.842 612.325 675.581 612.467 675.294 612.516C675.007 612.564 674.705 612.52 674.39 612.385C674.074 612.248 673.757 612.02 673.438 611.702C673.12 611.382 672.894 611.066 672.76 610.753C672.626 610.438 672.584 610.138 672.633 609.853C672.684 609.566 672.826 609.306 673.06 609.072C673.294 608.838 673.554 608.696 673.84 608.646C674.127 608.595 674.427 608.637 674.741 608.773C675.055 608.907 675.372 609.133 675.689 609.45C676.009 609.77 676.237 610.088 676.373 610.405C676.509 610.72 676.552 611.021 676.503 611.308C676.454 611.594 676.312 611.855 676.077 612.09ZM675.631 611.643C675.813 611.46 675.868 611.227 675.793 610.941C675.719 610.654 675.507 610.335 675.156 609.984C674.924 609.752 674.704 609.581 674.498 609.472C674.292 609.362 674.104 609.312 673.936 609.32C673.767 609.328 673.622 609.392 673.501 609.513C673.319 609.695 673.266 609.929 673.341 610.215C673.415 610.5 673.626 610.818 673.973 611.167C674.205 611.401 674.424 611.573 674.631 611.684C674.838 611.795 675.026 611.846 675.196 611.839C675.364 611.83 675.509 611.765 675.631 611.643Z" fill="white"/>
<path d="M670.29 620.98L671.897 622.588" stroke="#5597FF" stroke-width="0.568182" stroke-linecap="round"/>
<path d="M671.093 621.784L735.376 557.502" stroke="#5597FF" stroke-width="0.568182" stroke-dasharray="1.14 1.7"/>
<path d="M734.572 556.698L736.179 558.305" stroke="#5597FF" stroke-width="0.568182" stroke-linecap="round"/>
<path d="M737.8 550.336C737.594 550.542 737.376 550.689 737.146 550.778C736.917 550.867 736.693 550.894 736.476 550.861C736.258 550.828 736.064 550.732 735.893 550.573L736.43 550.037C736.514 550.111 736.609 550.154 736.715 550.165C736.821 550.175 736.929 550.157 737.041 550.111C737.152 550.064 737.256 549.992 737.354 549.894C737.459 549.789 737.534 549.678 737.578 549.561C737.622 549.443 737.634 549.329 737.614 549.218C737.594 549.106 737.541 549.008 737.454 548.924C737.367 548.834 737.266 548.779 737.152 548.758C737.038 548.737 736.917 548.752 736.791 548.802C736.665 548.852 736.541 548.938 736.417 549.062L736.159 549.32L735.751 548.912L736.009 548.654C736.111 548.552 736.182 548.446 736.223 548.334C736.265 548.222 736.276 548.112 736.256 548.005C736.235 547.896 736.182 547.8 736.096 547.717C736.014 547.633 735.924 547.58 735.825 547.557C735.726 547.532 735.625 547.537 735.522 547.571C735.421 547.604 735.324 547.667 735.233 547.758C735.143 547.847 735.077 547.946 735.033 548.055C734.989 548.163 734.974 548.271 734.987 548.377C735 548.483 735.045 548.578 735.124 548.663L734.615 549.172C734.455 549.005 734.359 548.814 734.325 548.6C734.292 548.384 734.317 548.165 734.4 547.944C734.481 547.721 734.617 547.515 734.806 547.326C735.001 547.131 735.207 546.998 735.424 546.928C735.641 546.855 735.85 546.841 736.052 546.885C736.253 546.929 736.428 547.025 736.577 547.173C736.742 547.337 736.832 547.523 736.845 547.732C736.859 547.941 736.805 548.141 736.681 548.333L736.704 548.356C736.938 548.179 737.171 548.098 737.404 548.112C737.637 548.124 737.845 548.222 738.026 548.406C738.19 548.569 738.29 548.762 738.326 548.985C738.362 549.206 738.336 549.434 738.246 549.67C738.158 549.905 738.009 550.127 737.8 550.336ZM739.328 548.728L738.946 548.346L738.966 546.337C738.965 546.142 738.958 545.974 738.947 545.833C738.936 545.692 738.91 545.57 738.871 545.466C738.832 545.363 738.772 545.27 738.692 545.19C738.599 545.097 738.499 545.039 738.392 545.016C738.284 544.991 738.175 544.997 738.065 545.034C737.956 545.071 737.855 545.136 737.761 545.23C737.665 545.326 737.601 545.43 737.569 545.542C737.535 545.653 737.535 545.765 737.567 545.877C737.601 545.989 737.667 546.094 737.767 546.194L737.263 546.698C737.078 546.512 736.959 546.309 736.907 546.087C736.854 545.865 736.865 545.643 736.938 545.419C737.012 545.195 737.146 544.986 737.339 544.793C737.535 544.597 737.744 544.461 737.965 544.386C738.187 544.311 738.402 544.296 738.612 544.342C738.822 544.387 739.009 544.491 739.172 544.655C739.282 544.764 739.368 544.892 739.432 545.04C739.496 545.187 739.539 545.378 739.562 545.612C739.586 545.845 739.594 546.147 739.588 546.519L739.596 547.535L739.616 547.555L740.889 546.282L741.331 546.725L739.328 548.728Z" fill="white"/>
<path d="M734.572 556.698L736.179 558.305" stroke="#5597FF" stroke-width="0.568182" stroke-linecap="round"/>
<path d="M735.376 557.502L761.088 531.789" stroke="#5597FF" stroke-width="0.568182" stroke-dasharray="1.14 1.7"/>
<path d="M760.285 530.985L761.892 532.592" stroke="#5597FF" stroke-width="0.568182" stroke-linecap="round"/>
<path d="M763.423 524.713C763.21 524.925 762.986 525.078 762.751 525.171C762.516 525.263 762.29 525.294 762.073 525.264C761.856 525.232 761.669 525.136 761.512 524.977C761.388 524.855 761.302 524.716 761.254 524.559C761.205 524.402 761.193 524.243 761.217 524.083C761.241 523.92 761.3 523.772 761.395 523.639L761.375 523.619C761.192 523.736 760.993 523.781 760.78 523.754C760.567 523.726 760.382 523.632 760.225 523.473C760.074 523.324 759.982 523.148 759.948 522.945C759.915 522.743 759.938 522.534 760.018 522.319C760.097 522.103 760.231 521.901 760.421 521.711C760.608 521.524 760.809 521.391 761.024 521.313C761.239 521.233 761.448 521.21 761.651 521.243C761.854 521.276 762.031 521.367 762.181 521.517C762.339 521.675 762.431 521.862 762.458 522.077C762.485 522.29 762.441 522.487 762.327 522.667L762.347 522.687C762.48 522.592 762.627 522.534 762.788 522.512C762.948 522.488 763.107 522.5 763.264 522.549C763.422 522.596 763.562 522.682 763.685 522.804C763.843 522.962 763.938 523.15 763.969 523.368C763.999 523.585 763.968 523.811 763.876 524.045C763.785 524.279 763.634 524.502 763.423 524.713ZM763.014 524.305C763.124 524.196 763.2 524.082 763.244 523.964C763.287 523.845 763.296 523.729 763.273 523.616C763.249 523.503 763.193 523.401 763.104 523.311C763.01 523.218 762.904 523.16 762.785 523.137C762.666 523.111 762.545 523.119 762.422 523.159C762.301 523.199 762.188 523.271 762.084 523.375C761.98 523.48 761.907 523.593 761.866 523.716C761.825 523.839 761.817 523.96 761.842 524.08C761.866 524.198 761.926 524.303 762.02 524.395C762.108 524.485 762.209 524.542 762.322 524.566C762.435 524.589 762.55 524.579 762.669 524.536C762.789 524.493 762.904 524.415 763.014 524.305ZM761.683 522.974C761.773 522.885 761.834 522.788 761.866 522.683C761.899 522.577 761.904 522.472 761.879 522.368C761.854 522.263 761.8 522.168 761.716 522.082C761.631 522 761.538 521.946 761.437 521.923C761.334 521.898 761.231 521.903 761.127 521.938C761.022 521.972 760.925 522.035 760.834 522.125C760.742 522.217 760.678 522.316 760.643 522.422C760.608 522.526 760.603 522.629 760.628 522.731C760.652 522.832 760.707 522.924 760.792 523.007C760.875 523.092 760.969 523.148 761.073 523.174C761.176 523.198 761.281 523.193 761.388 523.161C761.495 523.127 761.593 523.064 761.683 522.974ZM766.073 522.094C765.838 522.329 765.577 522.471 765.29 522.521C765.002 522.568 764.701 522.524 764.385 522.389C764.069 522.252 763.752 522.025 763.434 521.706C763.116 521.386 762.89 521.07 762.756 520.757C762.622 520.442 762.579 520.142 762.629 519.857C762.679 519.571 762.821 519.311 763.055 519.077C763.289 518.843 763.55 518.7 763.836 518.65C764.122 518.6 764.422 518.642 764.736 518.777C765.051 518.911 765.367 519.137 765.685 519.455C766.005 519.774 766.232 520.092 766.368 520.409C766.504 520.724 766.548 521.025 766.498 521.312C766.45 521.599 766.308 521.859 766.073 522.094ZM765.626 521.648C765.809 521.465 765.863 521.231 765.789 520.946C765.715 520.658 765.502 520.339 765.151 519.988C764.919 519.756 764.7 519.585 764.494 519.476C764.287 519.367 764.1 519.316 763.931 519.325C763.762 519.332 763.617 519.397 763.496 519.517C763.315 519.699 763.261 519.933 763.337 520.219C763.411 520.505 763.621 520.822 763.969 521.171C764.201 521.405 764.42 521.578 764.626 521.689C764.834 521.799 765.022 521.851 765.191 521.843C765.36 521.834 765.505 521.769 765.626 521.648Z" fill="white"/>
<path d="M760.285 530.985L761.892 532.592" stroke="#5597FF" stroke-width="0.568182" stroke-linecap="round"/>
<path d="M761.089 531.789L825.371 467.506" stroke="#5597FF" stroke-width="0.568182" stroke-dasharray="1.14 1.7"/>
<path d="M824.567 466.703L826.174 468.31" stroke="#5597FF" stroke-width="0.568182" stroke-linecap="round"/>
<path d="M827.795 460.341C827.59 460.546 827.372 460.693 827.142 460.783C826.912 460.871 826.689 460.899 826.471 460.866C826.253 460.832 826.059 460.736 825.889 460.577L826.425 460.041C826.509 460.115 826.604 460.158 826.711 460.169C826.816 460.18 826.925 460.162 827.036 460.115C827.147 460.069 827.252 459.996 827.35 459.898C827.455 459.794 827.529 459.683 827.574 459.566C827.618 459.448 827.63 459.333 827.61 459.222C827.59 459.111 827.536 459.013 827.45 458.928C827.362 458.839 827.262 458.783 827.147 458.763C827.033 458.742 826.913 458.756 826.786 458.807C826.661 458.856 826.536 458.943 826.413 459.066L826.154 459.325L825.746 458.917L826.005 458.658C826.106 458.557 826.178 458.45 826.219 458.339C826.26 458.227 826.271 458.117 826.251 458.009C826.231 457.901 826.177 457.805 826.092 457.721C826.01 457.637 825.919 457.584 825.821 457.561C825.722 457.537 825.621 457.541 825.518 457.576C825.416 457.609 825.32 457.671 825.228 457.762C825.139 457.852 825.072 457.951 825.029 458.059C824.985 458.168 824.97 458.275 824.983 458.382C824.995 458.487 825.041 458.582 825.12 458.667L824.611 459.176C824.451 459.009 824.354 458.818 824.321 458.604C824.288 458.388 824.313 458.17 824.395 457.948C824.477 457.725 824.613 457.519 824.802 457.33C824.997 457.135 825.203 457.002 825.42 456.932C825.637 456.86 825.846 456.846 826.047 456.889C826.249 456.933 826.424 457.029 826.572 457.177C826.738 457.341 826.827 457.528 826.841 457.737C826.855 457.945 826.8 458.145 826.677 458.337L826.699 458.36C826.933 458.183 827.167 458.102 827.4 458.116C827.633 458.129 827.84 458.227 828.022 458.41C828.186 458.574 828.285 458.767 828.322 458.989C828.358 459.21 828.331 459.438 828.242 459.674C828.153 459.909 828.004 460.131 827.795 460.341ZM829.324 458.732L828.941 458.35L828.961 456.341C828.96 456.146 828.954 455.978 828.943 455.837C828.931 455.697 828.906 455.574 828.867 455.471C828.828 455.367 828.768 455.275 828.687 455.194C828.595 455.102 828.495 455.044 828.388 455.02C828.279 454.995 828.17 455.001 828.061 455.038C827.951 455.076 827.85 455.141 827.757 455.234C827.661 455.33 827.597 455.434 827.564 455.546C827.531 455.658 827.531 455.769 827.563 455.882C827.596 455.993 827.663 456.099 827.763 456.198L827.259 456.702C827.074 456.517 826.955 456.313 826.902 456.091C826.85 455.87 826.861 455.647 826.934 455.424C827.008 455.199 827.142 454.99 827.335 454.797C827.531 454.601 827.739 454.466 827.961 454.391C828.183 454.316 828.398 454.301 828.607 454.347C828.818 454.391 829.004 454.495 829.168 454.659C829.277 454.768 829.364 454.897 829.428 455.044C829.491 455.192 829.535 455.382 829.558 455.616C829.581 455.849 829.59 456.152 829.583 456.524L829.592 457.54L829.612 457.559L830.884 456.287L831.327 456.729L829.324 458.732Z" fill="white"/>
<path d="M824.567 466.703L826.174 468.31" stroke="#5597FF" stroke-width="0.568182" stroke-linecap="round"/>
<path d="M825.371 467.506L851.084 441.793" stroke="#5597FF" stroke-width="0.568182" stroke-dasharray="1.14 1.7"/>
<path d="M850.28 440.99L851.887 442.597" stroke="#5597FF" stroke-width="0.568182" stroke-linecap="round"/>
<path d="M853.418 434.718C853.206 434.93 852.982 435.083 852.746 435.176C852.511 435.268 852.285 435.299 852.068 435.269C851.851 435.236 851.664 435.141 851.507 434.982C851.384 434.86 851.298 434.721 851.249 434.564C851.2 434.407 851.188 434.248 851.212 434.087C851.236 433.925 851.295 433.777 851.39 433.644L851.37 433.624C851.187 433.741 850.988 433.786 850.775 433.759C850.562 433.731 850.377 433.637 850.22 433.478C850.069 433.329 849.977 433.153 849.944 432.95C849.91 432.748 849.934 432.539 850.013 432.324C850.092 432.108 850.227 431.906 850.416 431.716C850.603 431.529 850.804 431.396 851.019 431.318C851.234 431.238 851.443 431.215 851.646 431.248C851.849 431.281 852.026 431.372 852.176 431.522C852.334 431.68 852.427 431.867 852.453 432.081C852.48 432.295 852.436 432.491 852.322 432.672L852.342 432.692C852.475 432.597 852.622 432.539 852.783 432.517C852.943 432.493 853.102 432.505 853.259 432.554C853.417 432.601 853.557 432.686 853.68 432.809C853.838 432.967 853.933 433.155 853.964 433.373C853.994 433.59 853.964 433.815 853.871 434.05C853.78 434.284 853.629 434.507 853.418 434.718ZM853.01 434.31C853.119 434.201 853.196 434.087 853.239 433.969C853.282 433.85 853.292 433.734 853.268 433.621C853.244 433.508 853.188 433.406 853.099 433.316C853.005 433.223 852.899 433.165 852.78 433.142C852.661 433.116 852.54 433.123 852.417 433.164C852.296 433.204 852.183 433.276 852.079 433.38C851.975 433.484 851.902 433.598 851.861 433.721C851.82 433.843 851.812 433.965 851.837 434.085C851.862 434.203 851.921 434.308 852.015 434.4C852.104 434.49 852.204 434.547 852.318 434.571C852.43 434.594 852.545 434.584 852.664 434.541C852.784 434.497 852.899 434.42 853.01 434.31ZM851.678 432.979C851.768 432.889 851.829 432.792 851.861 432.688C851.894 432.582 851.899 432.477 851.874 432.373C851.849 432.268 851.795 432.173 851.711 432.087C851.627 432.004 851.533 431.951 851.432 431.927C851.329 431.903 851.226 431.908 851.122 431.943C851.017 431.977 850.92 432.04 850.83 432.13C850.737 432.222 850.674 432.321 850.638 432.427C850.603 432.53 850.598 432.634 850.623 432.736C850.647 432.837 850.702 432.929 850.787 433.012C850.87 433.097 850.964 433.153 851.068 433.179C851.171 433.202 851.277 433.198 851.383 433.166C851.49 433.132 851.588 433.069 851.678 432.979ZM856.068 432.099C855.833 432.334 855.572 432.476 855.285 432.526C854.998 432.573 854.696 432.529 854.38 432.394C854.065 432.257 853.747 432.03 853.429 431.711C853.111 431.391 852.885 431.075 852.751 430.762C852.617 430.447 852.575 430.147 852.624 429.862C852.674 429.576 852.817 429.315 853.051 429.081C853.285 428.847 853.545 428.705 853.831 428.655C854.117 428.604 854.417 428.647 854.731 428.782C855.046 428.916 855.362 429.142 855.68 429.46C856 429.779 856.227 430.097 856.363 430.414C856.499 430.729 856.543 431.03 856.493 431.317C856.445 431.603 856.303 431.864 856.068 432.099ZM855.622 431.652C855.804 431.47 855.858 431.236 855.784 430.95C855.71 430.663 855.497 430.344 855.146 429.993C854.914 429.761 854.695 429.59 854.489 429.481C854.282 429.372 854.095 429.321 853.927 429.33C853.757 429.337 853.612 429.401 853.491 429.522C853.31 429.704 853.257 429.938 853.332 430.224C853.406 430.51 853.617 430.827 853.964 431.176C854.196 431.41 854.415 431.582 854.621 431.694C854.829 431.804 855.017 431.855 855.186 431.848C855.355 431.839 855.5 431.774 855.622 431.652Z" fill="white"/>
<path d="M850.28 440.99L851.887 442.597" stroke="#5597FF" stroke-width="0.568182" stroke-linecap="round"/>
<path d="M851.084 441.794L915.366 377.511" stroke="#5597FF" stroke-width="0.568182" stroke-dasharray="1.14 1.7"/>
<path d="M914.562 376.708L916.17 378.315" stroke="#5597FF" stroke-width="0.568182" stroke-linecap="round"/>
<path d="M522.052 462.855L524.974 465.777L524.444 466.306L522.037 463.899L522.02 463.916L521.773 465.036L521.288 464.551L521.548 463.358L522.052 462.855ZM526.825 464.005C526.685 464.143 526.524 464.256 526.343 464.341C526.162 464.426 525.963 464.467 525.748 464.465C525.532 464.463 525.303 464.402 525.059 464.284C524.815 464.165 524.559 463.971 524.292 463.702C524.041 463.452 523.845 463.202 523.702 462.953C523.56 462.704 523.471 462.462 523.436 462.227C523.399 461.991 523.416 461.767 523.485 461.555C523.556 461.342 523.679 461.148 523.854 460.973C524.037 460.789 524.236 460.663 524.45 460.593C524.665 460.523 524.879 460.507 525.092 460.545C525.304 460.582 525.499 460.668 525.677 460.804L525.156 461.325C525.017 461.24 524.873 461.205 524.724 461.221C524.575 461.235 524.437 461.305 524.312 461.431C524.109 461.633 524.041 461.877 524.107 462.163C524.175 462.447 524.362 462.743 524.668 463.052L524.688 463.032C524.651 462.901 524.64 462.769 524.654 462.635C524.668 462.501 524.706 462.371 524.767 462.245C524.828 462.118 524.91 462.002 525.015 461.897C525.186 461.726 525.381 461.613 525.598 461.559C525.817 461.504 526.038 461.508 526.262 461.572C526.484 461.635 526.687 461.759 526.871 461.944C527.064 462.136 527.193 462.352 527.258 462.594C527.321 462.834 527.318 463.077 527.248 463.323C527.177 463.568 527.037 463.795 526.825 464.005ZM526.395 463.579C526.498 463.476 526.566 463.358 526.597 463.226C526.629 463.093 526.625 462.961 526.587 462.828C526.549 462.694 526.476 462.575 526.369 462.469C526.265 462.364 526.148 462.292 526.016 462.254C525.886 462.215 525.756 462.211 525.626 462.243C525.495 462.274 525.378 462.342 525.275 462.445C525.198 462.522 525.14 462.609 525.103 462.705C525.066 462.801 525.049 462.9 525.052 463.002C525.054 463.102 525.075 463.201 525.115 463.298C525.155 463.393 525.213 463.48 525.289 463.558C525.392 463.659 525.509 463.729 525.641 463.768C525.773 463.807 525.906 463.811 526.039 463.781C526.172 463.75 526.291 463.683 526.395 463.579ZM529.456 461.405C529.221 461.64 528.96 461.782 528.673 461.832C528.386 461.879 528.084 461.836 527.768 461.7C527.453 461.563 527.135 461.336 526.817 461.017C526.499 460.697 526.273 460.381 526.139 460.068C526.005 459.753 525.963 459.453 526.012 459.168C526.063 458.882 526.205 458.622 526.439 458.388C526.673 458.154 526.933 458.011 527.219 457.961C527.505 457.911 527.806 457.953 528.119 458.088C528.434 458.222 528.751 458.448 529.068 458.766C529.388 459.085 529.616 459.403 529.752 459.72C529.888 460.035 529.931 460.336 529.881 460.623C529.833 460.91 529.691 461.17 529.456 461.405ZM529.01 460.959C529.192 460.776 529.247 460.542 529.172 460.257C529.098 459.969 528.886 459.65 528.535 459.299C528.303 459.067 528.083 458.896 527.877 458.787C527.671 458.678 527.483 458.627 527.315 458.636C527.145 458.643 527 458.708 526.88 458.828C526.698 459.01 526.645 459.244 526.72 459.53C526.794 459.816 527.005 460.133 527.352 460.482C527.584 460.716 527.803 460.889 528.01 461C528.217 461.11 528.405 461.162 528.575 461.154C528.743 461.145 528.888 461.08 529.01 460.959Z" fill="white"/>
<path d="M521.637 472.328L523.244 473.935" stroke="#5597FF" stroke-width="0.568182" stroke-linecap="round"/>
<path d="M522.44 473.131L651.005 344.566" stroke="#5597FF" stroke-width="0.568182" stroke-dasharray="1.14 1.7"/>
<path d="M650.202 343.763L651.809 345.37" stroke="#5597FF" stroke-width="0.568182" stroke-linecap="round"/>
<path d="M826.976 768.109C826.771 768.314 826.553 768.462 826.323 768.551C826.093 768.64 825.87 768.667 825.652 768.634C825.434 768.601 825.24 768.505 825.07 768.346L825.606 767.809C825.69 767.883 825.785 767.926 825.892 767.938C825.997 767.948 826.106 767.93 826.217 767.883C826.328 767.837 826.433 767.765 826.531 767.667C826.636 767.562 826.71 767.451 826.755 767.334C826.799 767.216 826.811 767.102 826.791 766.99C826.771 766.879 826.717 766.781 826.631 766.696C826.543 766.607 826.442 766.552 826.328 766.531C826.214 766.51 826.094 766.525 825.967 766.575C825.842 766.625 825.717 766.711 825.594 766.835L825.335 767.093L824.927 766.685L825.185 766.427C825.287 766.325 825.359 766.218 825.399 766.107C825.441 765.995 825.452 765.885 825.432 765.778C825.411 765.669 825.358 765.573 825.273 765.489C825.191 765.406 825.1 765.352 825.001 765.33C824.903 765.305 824.802 765.31 824.699 765.344C824.597 765.377 824.501 765.439 824.409 765.531C824.32 765.62 824.253 765.719 824.21 765.828C824.166 765.936 824.151 766.043 824.164 766.15C824.176 766.256 824.222 766.351 824.301 766.435L823.792 766.945C823.632 766.777 823.535 766.587 823.502 766.373C823.469 766.157 823.493 765.938 823.576 765.716C823.658 765.494 823.793 765.288 823.983 765.098C824.178 764.903 824.384 764.771 824.601 764.7C824.817 764.628 825.027 764.614 825.228 764.658C825.43 764.701 825.605 764.797 825.753 764.946C825.919 765.109 826.008 765.296 826.022 765.505C826.036 765.713 825.981 765.914 825.857 766.106L825.88 766.129C826.114 765.952 826.348 765.87 826.581 765.885C826.814 765.897 827.021 765.995 827.203 766.179C827.366 766.342 827.466 766.535 827.502 766.758C827.539 766.978 827.512 767.207 827.423 767.443C827.334 767.678 827.185 767.9 826.976 768.109ZM829.64 765.476C829.405 765.711 829.144 765.853 828.857 765.903C828.57 765.95 828.268 765.907 827.952 765.772C827.636 765.635 827.319 765.407 827.001 765.088C826.683 764.769 826.457 764.452 826.323 764.139C826.189 763.825 826.147 763.524 826.196 763.239C826.246 762.953 826.389 762.693 826.623 762.459C826.857 762.225 827.117 762.083 827.403 762.032C827.689 761.982 827.989 762.024 828.303 762.159C828.618 762.293 828.934 762.519 829.252 762.837C829.572 763.156 829.799 763.475 829.935 763.791C830.071 764.106 830.115 764.407 830.065 764.694C830.017 764.981 829.875 765.241 829.64 765.476ZM829.194 765.03C829.376 764.847 829.43 764.613 829.356 764.328C829.282 764.04 829.069 763.721 828.718 763.37C828.486 763.138 828.267 762.968 828.061 762.858C827.854 762.749 827.667 762.698 827.499 762.707C827.329 762.715 827.184 762.779 827.063 762.9C826.882 763.081 826.828 763.315 826.904 763.601C826.978 763.887 827.188 764.204 827.536 764.553C827.768 764.787 827.987 764.96 828.193 765.071C828.401 765.181 828.589 765.233 828.758 765.225C828.927 765.217 829.072 765.151 829.194 765.03ZM830.589 763.331L830.168 762.911L829.449 759.712L829.8 759.361L830.399 759.96L830.185 760.174L830.673 762.331L830.696 762.354L832.427 760.624L832.862 761.059L830.589 763.331ZM832.525 762.48L831.855 761.809L831.672 761.615L829.609 759.552L830.108 759.053L833.03 761.975L832.525 762.48Z" fill="white"/>
<path d="M823.764 774.455L825.371 776.062" stroke="#5597FF" stroke-width="0.568182" stroke-linecap="round"/>
<path d="M824.568 775.259L1068.84 530.986" stroke="#5597FF" stroke-width="0.568182" stroke-dasharray="1.14 1.7"/>
<path d="M1068.04 530.182L1069.64 531.789" stroke="#5597FF" stroke-width="0.568182" stroke-linecap="round"/>
<path d="M787.991 222.815L786.384 224.422" stroke="#5597FF" stroke-width="0.568182" stroke-linecap="round"/>
<path d="M787.188 223.619L1070.03 506.461" stroke="#5597FF" stroke-width="0.568182" stroke-dasharray="1.14 1.7"/>
<path d="M1069.23 507.265L1070.83 505.658" stroke="#5597FF" stroke-width="0.568182" stroke-linecap="round"/>
<path d="M817.943 246.812C817.737 247.018 817.519 247.165 817.289 247.255C817.06 247.343 816.836 247.371 816.619 247.337C816.401 247.304 816.207 247.208 816.036 247.049L816.573 246.513C816.657 246.587 816.752 246.63 816.858 246.641C816.964 246.652 817.072 246.633 817.183 246.587C817.295 246.54 817.399 246.468 817.497 246.37C817.602 246.265 817.677 246.155 817.721 246.038C817.765 245.92 817.777 245.805 817.757 245.694C817.737 245.582 817.684 245.485 817.597 245.4C817.51 245.31 817.409 245.255 817.295 245.234C817.181 245.213 817.06 245.228 816.934 245.279C816.808 245.328 816.684 245.415 816.56 245.538L816.302 245.796L815.894 245.388L816.152 245.13C816.254 245.028 816.325 244.922 816.366 244.811C816.408 244.698 816.419 244.589 816.399 244.481C816.378 244.373 816.325 244.277 816.239 244.193C816.157 244.109 816.067 244.056 815.968 244.033C815.869 244.008 815.768 244.013 815.665 244.047C815.564 244.081 815.467 244.143 815.376 244.234C815.286 244.324 815.22 244.423 815.176 244.531C815.132 244.639 815.117 244.747 815.13 244.853C815.143 244.959 815.188 245.054 815.267 245.139L814.758 245.648C814.598 245.481 814.502 245.29 814.468 245.076C814.435 244.86 814.46 244.641 814.543 244.42C814.624 244.197 814.76 243.991 814.949 243.802C815.144 243.607 815.35 243.474 815.567 243.404C815.784 243.332 815.993 243.317 816.195 243.361C816.396 243.405 816.571 243.501 816.72 243.649C816.885 243.813 816.975 243.999 816.988 244.209C817.002 244.417 816.948 244.617 816.824 244.809L816.847 244.832C817.081 244.655 817.314 244.574 817.547 244.588C817.78 244.6 817.988 244.698 818.169 244.882C818.333 245.046 818.433 245.239 818.469 245.461C818.505 245.682 818.478 245.91 818.389 246.146C818.301 246.381 818.152 246.603 817.943 246.812ZM820.527 244.228C820.336 244.418 820.131 244.553 819.909 244.632C819.686 244.71 819.468 244.73 819.254 244.693C819.041 244.655 818.851 244.558 818.683 244.402L819.197 243.889C819.326 243.999 819.476 244.045 819.646 244.027C819.816 244.008 819.966 243.932 820.099 243.8C820.202 243.696 820.271 243.58 820.304 243.452C820.337 243.324 820.335 243.194 820.297 243.063C820.259 242.931 820.185 242.812 820.076 242.704C819.966 242.593 819.845 242.518 819.712 242.48C819.579 242.442 819.447 242.44 819.315 242.475C819.183 242.508 819.063 242.578 818.956 242.686C818.867 242.772 818.797 242.875 818.746 242.993C818.695 243.111 818.671 243.221 818.676 243.325L818.12 243.725L816.766 242.065L818.461 240.37L818.903 240.813L817.646 242.07L818.337 242.928L818.354 242.911C818.344 242.793 818.368 242.664 818.425 242.523C818.481 242.382 818.568 242.252 818.686 242.134C818.863 241.957 819.063 241.841 819.285 241.786C819.507 241.729 819.731 241.734 819.956 241.8C820.181 241.866 820.388 241.992 820.575 242.179C820.768 242.372 820.896 242.589 820.958 242.83C821.019 243.069 821.015 243.31 820.943 243.555C820.872 243.797 820.733 244.022 820.527 244.228ZM822.013 242.662L821.631 242.279L821.651 240.27C821.65 240.075 821.644 239.908 821.632 239.767C821.621 239.626 821.596 239.504 821.557 239.4C821.518 239.296 821.458 239.204 821.377 239.123C821.285 239.031 821.185 238.973 821.077 238.949C820.969 238.925 820.86 238.931 820.751 238.968C820.641 239.005 820.54 239.07 820.447 239.163C820.351 239.259 820.286 239.364 820.254 239.476C820.221 239.587 820.22 239.699 820.253 239.811C820.286 239.922 820.353 240.028 820.452 240.128L819.949 240.631C819.763 240.446 819.644 240.242 819.592 240.021C819.54 239.799 819.55 239.577 819.624 239.353C819.698 239.129 819.831 238.92 820.024 238.727C820.22 238.531 820.429 238.395 820.651 238.32C820.872 238.245 821.088 238.23 821.297 238.276C821.507 238.321 821.694 238.425 821.858 238.588C821.967 238.698 822.054 238.826 822.117 238.974C822.181 239.121 822.224 239.312 822.247 239.546C822.271 239.779 822.28 240.081 822.273 240.453L822.282 241.469L822.302 241.489L823.574 240.216L824.016 240.658L822.013 242.662Z" fill="white"/>
<path opacity="0.1" d="M594.405 544.967C558.902 509.464 558.902 451.904 594.405 416.402V416.402L813.093 635.09C848.596 670.593 848.596 728.153 813.093 763.655V763.655L594.405 544.967Z" fill="white"/>
<path opacity="0.1" d="M684.4 454.971C648.898 419.469 648.898 361.909 684.4 326.407V326.407L903.089 545.095C938.591 580.598 938.591 638.158 903.089 673.66V673.66L684.4 454.971Z" fill="white"/>
<path opacity="0.1" d="M774.395 364.976C738.893 329.474 738.893 271.913 774.395 236.411V236.411L993.084 455.1C1028.59 490.602 1028.59 548.162 993.084 583.665V583.665L774.395 364.976Z" fill="white"/>
</g>
<rect x="72.7271" y="906.97" width="20.303" height="20.303" fill="#FFCC00"/>
<rect x="103.182" y="906.97" width="20.303" height="20.303" fill="#2752E7"/>
<rect x="133.636" y="906.97" width="20.303" height="20.303" fill="#F2F4F6"/>
<path d="M1344.54 883.283C1344.54 873.939 1352.12 866.364 1361.46 866.364" stroke="#0083F5" stroke-width="1.13636" stroke-dasharray="1.69 0.85"/>
<path d="M1354.11 887.819C1354.43 887.819 1354.68 887.565 1354.68 887.251L1354.68 882.137C1354.68 881.823 1354.43 881.569 1354.11 881.569C1353.8 881.569 1353.55 881.823 1353.55 882.137L1353.55 886.683L1349 886.683C1348.69 886.683 1348.43 886.937 1348.43 887.251C1348.43 887.565 1348.69 887.819 1349 887.819L1354.11 887.819ZM1354.11 887.251L1354.52 886.849C1349.01 881.342 1340.08 881.342 1334.57 886.849L1334.97 887.251L1335.37 887.653C1340.44 882.589 1348.65 882.589 1353.71 887.653L1354.11 887.251ZM1334.97 887.251L1334.57 886.849C1329.06 892.357 1329.06 901.286 1334.57 906.794L1334.97 906.392L1335.37 905.99C1330.31 900.926 1330.31 892.716 1335.37 887.653L1334.97 887.251Z" fill="#0083F5"/>
<path d="M1334.97 905.82C1334.66 905.82 1334.4 906.074 1334.4 906.388L1334.4 911.502C1334.4 911.815 1334.66 912.07 1334.97 912.07C1335.29 912.07 1335.54 911.815 1335.54 911.502L1335.54 906.956L1340.09 906.956C1340.4 906.956 1340.65 906.702 1340.65 906.388C1340.65 906.074 1340.4 905.82 1340.09 905.82L1334.97 905.82ZM1354.11 906.388L1354.52 906.79V906.79L1354.11 906.388ZM1334.97 906.388L1334.57 906.79C1340.08 912.297 1349.01 912.297 1354.52 906.79L1354.11 906.388L1353.71 905.986C1348.65 911.05 1340.44 911.05 1335.37 905.986L1334.97 906.388ZM1354.11 906.388L1354.52 906.79C1360.02 901.282 1360.02 892.353 1354.52 886.845L1354.11 887.247L1353.71 887.649C1358.78 892.713 1358.78 900.922 1353.71 905.986L1354.11 906.388Z" fill="#0083F5"/>
<path d="M1345.81 895.551H1354.7V897.794C1349.77 898.108 1345.83 902.045 1345.52 906.971H1343.28V898.089H1334.39V895.845C1339.32 895.531 1343.26 891.594 1343.57 886.668H1345.81V895.551Z" fill="#F8F9FA"/>
<path d="M1344.55 910.354C1344.55 919.698 1336.97 927.273 1327.63 927.273" stroke="#0083F5" stroke-width="1.13636" stroke-dasharray="1.69 0.85"/>
<path d="M1378.38 883.283C1378.38 873.939 1370.81 866.364 1361.46 866.364" stroke="#0083F5" stroke-width="1.13636" stroke-dasharray="1.69 0.85"/>
<path d="M1387.95 887.819C1388.27 887.819 1388.52 887.565 1388.52 887.251L1388.52 882.137C1388.52 881.823 1388.27 881.569 1387.95 881.569C1387.64 881.569 1387.38 881.823 1387.38 882.137L1387.38 886.683L1382.84 886.683C1382.53 886.683 1382.27 886.937 1382.27 887.251C1382.27 887.565 1382.53 887.819 1382.84 887.819L1387.95 887.819ZM1387.95 887.251L1388.35 886.849C1382.85 881.342 1373.92 881.342 1368.41 886.849L1368.81 887.251L1369.21 887.653C1374.28 882.589 1382.49 882.589 1387.55 887.653L1387.95 887.251ZM1368.81 887.251L1368.41 886.849C1362.9 892.357 1362.9 901.286 1368.41 906.794L1368.81 906.392L1369.21 905.99C1364.15 900.926 1364.15 892.716 1369.21 887.653L1368.81 887.251Z" fill="#0083F5"/>
<path d="M1368.81 905.82C1368.5 905.82 1368.24 906.074 1368.24 906.388L1368.24 911.502C1368.24 911.815 1368.5 912.07 1368.81 912.07C1369.12 912.07 1369.38 911.815 1369.38 911.502L1369.38 906.956L1373.92 906.956C1374.24 906.956 1374.49 906.702 1374.49 906.388C1374.49 906.074 1374.24 905.82 1373.92 905.82L1368.81 905.82ZM1387.95 906.388L1388.35 906.79V906.79L1387.95 906.388ZM1368.81 906.388L1368.41 906.79C1373.92 912.297 1382.85 912.297 1388.35 906.79L1387.95 906.388L1387.55 905.986C1382.49 911.05 1374.28 911.05 1369.21 905.986L1368.81 906.388ZM1387.95 906.388L1388.35 906.79C1393.86 901.282 1393.86 892.353 1388.35 886.845L1387.95 887.247L1387.55 887.649C1392.61 892.713 1392.61 900.922 1387.55 905.986L1387.95 906.388Z" fill="#0083F5"/>
<path d="M1380.12 896.353L1387.81 900.794L1386.69 902.736C1382.27 900.545 1376.89 901.987 1374.15 906.096L1372.21 904.974L1376.65 897.282L1368.96 892.84L1370.08 890.898C1374.5 893.088 1379.88 891.648 1382.62 887.539L1384.56 888.661L1380.12 896.353Z" fill="#F8F9FA"/>
<path d="M1378.38 910.354C1378.38 919.698 1385.96 927.273 1395.3 927.273" stroke="#0083F5" stroke-width="1.13636" stroke-dasharray="1.69 0.85"/>
<path d="M1412.22 883.283C1412.22 873.939 1419.8 866.364 1429.14 866.364" stroke="#0083F5" stroke-width="1.13636" stroke-dasharray="1.69 0.85"/>
<path d="M1421.79 887.819C1422.1 887.819 1422.36 887.565 1422.36 887.251L1422.36 882.137C1422.36 881.823 1422.1 881.569 1421.79 881.569C1421.48 881.569 1421.22 881.823 1421.22 882.137L1421.22 886.683L1416.68 886.683C1416.36 886.683 1416.11 886.937 1416.11 887.251C1416.11 887.565 1416.36 887.819 1416.68 887.819L1421.79 887.819ZM1421.79 887.251L1422.19 886.849C1416.69 881.342 1407.76 881.342 1402.25 886.849L1402.65 887.251L1403.05 887.653C1408.12 882.589 1416.33 882.589 1421.39 887.653L1421.79 887.251ZM1402.65 887.251L1402.25 886.849C1396.74 892.357 1396.74 901.286 1402.25 906.794L1402.65 906.392L1403.05 905.99C1397.99 900.926 1397.99 892.716 1403.05 887.653L1402.65 887.251Z" fill="#0083F5"/>
<path d="M1402.65 905.82C1402.33 905.82 1402.08 906.074 1402.08 906.388L1402.08 911.502C1402.08 911.815 1402.33 912.07 1402.65 912.07C1402.96 912.07 1403.22 911.815 1403.22 911.502L1403.22 906.956L1407.76 906.956C1408.08 906.956 1408.33 906.702 1408.33 906.388C1408.33 906.074 1408.08 905.82 1407.76 905.82L1402.65 905.82ZM1421.79 906.388L1422.19 906.79V906.79L1421.79 906.388ZM1402.65 906.388L1402.25 906.79C1407.75 912.297 1416.68 912.297 1422.19 906.79L1421.79 906.388L1421.39 905.986C1416.32 911.05 1408.11 911.05 1403.05 905.986L1402.65 906.388ZM1421.79 906.388L1422.19 906.79C1427.7 901.282 1427.7 892.353 1422.19 886.845L1421.79 887.247L1421.39 887.649C1426.45 892.713 1426.45 900.922 1421.39 905.986L1421.79 906.388Z" fill="#0083F5"/>
<path d="M1413.95 897.282L1418.4 904.974L1416.45 906.096C1413.72 901.987 1408.34 900.546 1403.92 902.737L1402.8 900.794L1410.49 896.353L1406.05 888.661L1407.99 887.539C1410.72 891.647 1416.1 893.089 1420.53 890.898L1421.65 892.84L1413.95 897.282Z" fill="#F8F9FA"/>
<path d="M1412.22 910.354C1412.22 919.698 1404.65 927.273 1395.3 927.273" stroke="#0083F5" stroke-width="1.13636" stroke-dasharray="1.69 0.85"/>
<path d="M1446.06 883.283C1446.06 873.939 1438.49 866.364 1429.14 866.364" stroke="#0083F5" stroke-width="1.13636" stroke-dasharray="1.69 0.85"/>
<path d="M1455.63 887.819C1455.94 887.819 1456.2 887.565 1456.2 887.251L1456.2 882.137C1456.2 881.823 1455.94 881.569 1455.63 881.569C1455.32 881.569 1455.06 881.823 1455.06 882.137L1455.06 886.683L1450.52 886.683C1450.2 886.683 1449.95 886.937 1449.95 887.251C1449.95 887.565 1450.2 887.819 1450.52 887.819L1455.63 887.819ZM1455.63 887.251L1456.03 886.849C1450.52 881.342 1441.59 881.342 1436.09 886.849L1436.49 887.251L1436.89 887.653C1441.95 882.589 1450.16 882.589 1455.23 887.653L1455.63 887.251ZM1436.49 887.251L1436.09 886.849C1430.58 892.357 1430.58 901.286 1436.09 906.794L1436.49 906.392L1436.89 905.99C1431.83 900.926 1431.83 892.716 1436.89 887.653L1436.49 887.251Z" fill="#0083F5"/>
<path d="M1436.49 905.82C1436.17 905.82 1435.92 906.074 1435.92 906.388L1435.92 911.502C1435.92 911.815 1436.17 912.07 1436.49 912.07C1436.8 912.07 1437.06 911.815 1437.06 911.502L1437.06 906.956L1441.6 906.956C1441.91 906.956 1442.17 906.702 1442.17 906.388C1442.17 906.074 1441.91 905.82 1441.6 905.82L1436.49 905.82ZM1455.63 906.388L1456.03 906.79V906.79L1455.63 906.388ZM1436.49 906.388L1436.09 906.79C1441.59 912.297 1450.52 912.297 1456.03 906.79L1455.63 906.388L1455.23 905.986C1450.16 911.05 1441.95 911.05 1436.89 905.986L1436.49 906.388ZM1455.63 906.388L1456.03 906.79C1461.54 901.282 1461.54 892.353 1456.03 886.845L1455.63 887.247L1455.23 887.649C1460.29 892.713 1460.29 900.922 1455.23 905.986L1455.63 906.388Z" fill="#0083F5"/>
<path d="M1447.33 898.089L1447.33 906.971L1445.09 906.971C1444.77 902.045 1440.83 898.109 1435.91 897.795L1435.91 895.551L1444.79 895.551L1444.79 886.668L1447.03 886.668C1447.35 891.594 1451.29 895.532 1456.21 895.846L1456.21 898.089L1447.33 898.089Z" fill="#F8F9FA"/>
<path d="M1446.06 910.354C1446.06 919.698 1453.64 927.273 1462.98 927.273" stroke="#0083F5" stroke-width="1.13636" stroke-dasharray="1.69 0.85"/>
<path d="M1479.9 883.283C1479.9 873.939 1487.47 866.364 1496.82 866.364" stroke="#0083F5" stroke-width="1.13636" stroke-dasharray="1.69 0.85"/>
<path d="M1489.47 887.819C1489.78 887.819 1490.04 887.565 1490.04 887.251L1490.04 882.137C1490.04 881.823 1489.78 881.569 1489.47 881.569C1489.15 881.569 1488.9 881.823 1488.9 882.137L1488.9 886.683L1484.35 886.683C1484.04 886.683 1483.79 886.937 1483.79 887.251C1483.79 887.565 1484.04 887.819 1484.35 887.819L1489.47 887.819ZM1489.47 887.251L1489.87 886.849C1484.36 881.342 1475.43 881.342 1469.92 886.849L1470.33 887.251L1470.73 887.653C1475.79 882.589 1484 882.589 1489.07 887.653L1489.47 887.251ZM1470.33 887.251L1469.92 886.849C1464.42 892.357 1464.42 901.286 1469.92 906.794L1470.33 906.392L1470.73 905.99C1465.66 900.926 1465.66 892.716 1470.73 887.653L1470.33 887.251Z" fill="#0083F5"/>
<path d="M1470.33 905.82C1470.01 905.82 1469.76 906.074 1469.76 906.388L1469.76 911.502C1469.76 911.815 1470.01 912.07 1470.33 912.07C1470.64 912.07 1470.89 911.815 1470.89 911.502L1470.89 906.956L1475.44 906.956C1475.75 906.956 1476.01 906.702 1476.01 906.388C1476.01 906.074 1475.75 905.82 1475.44 905.82L1470.33 905.82ZM1489.47 906.388L1489.87 906.79V906.79L1489.47 906.388ZM1470.33 906.388L1469.92 906.79C1475.43 912.297 1484.36 912.297 1489.87 906.79L1489.47 906.388L1489.06 905.986C1484 911.05 1475.79 911.05 1470.73 905.986L1470.33 906.388ZM1489.47 906.388L1489.87 906.79C1495.38 901.282 1495.38 892.353 1489.87 886.845L1489.47 887.247L1489.06 887.649C1494.13 892.713 1494.13 900.922 1489.06 905.986L1489.47 906.388Z" fill="#0083F5"/>
<path d="M1480.36 898.55L1475.92 906.243L1473.98 905.123C1476.17 900.7 1474.73 895.32 1470.62 892.585L1471.74 890.643L1479.43 895.084L1483.88 887.392L1485.82 888.514C1483.63 892.936 1485.07 898.315 1489.18 901.049L1488.06 902.991L1480.36 898.55Z" fill="#F8F9FA"/>
<path d="M1479.9 910.354C1479.9 919.698 1472.32 927.273 1462.98 927.273" stroke="#0083F5" stroke-width="1.13636" stroke-dasharray="1.69 0.85"/>
<path d="M1513.74 883.283C1513.74 873.939 1506.16 866.364 1496.82 866.364" stroke="#0083F5" stroke-width="1.13636" stroke-dasharray="1.69 0.85"/>
<path d="M1523.31 887.819C1523.62 887.819 1523.87 887.565 1523.87 887.251L1523.87 882.137C1523.87 881.823 1523.62 881.569 1523.31 881.569C1522.99 881.569 1522.74 881.823 1522.74 882.137L1522.74 886.683L1518.19 886.683C1517.88 886.683 1517.62 886.937 1517.62 887.251C1517.62 887.565 1517.88 887.819 1518.19 887.819L1523.31 887.819ZM1523.31 887.251L1523.71 886.849C1518.2 881.342 1509.27 881.342 1503.76 886.849L1504.16 887.251L1504.57 887.653C1509.63 882.589 1517.84 882.589 1522.9 887.653L1523.31 887.251ZM1504.16 887.251L1503.76 886.849C1498.26 892.357 1498.26 901.286 1503.76 906.794L1504.16 906.392L1504.57 905.99C1499.5 900.926 1499.5 892.716 1504.57 887.653L1504.16 887.251Z" fill="#0083F5"/>
<path d="M1504.16 905.82C1503.85 905.82 1503.6 906.074 1503.6 906.388L1503.6 911.502C1503.6 911.815 1503.85 912.07 1504.16 912.07C1504.48 912.07 1504.73 911.815 1504.73 911.502L1504.73 906.956L1509.28 906.956C1509.59 906.956 1509.85 906.702 1509.85 906.388C1509.85 906.074 1509.59 905.82 1509.28 905.82L1504.16 905.82ZM1523.3 906.388L1523.71 906.79V906.79L1523.3 906.388ZM1504.16 906.388L1503.76 906.79C1509.27 912.297 1518.2 912.297 1523.71 906.79L1523.3 906.388L1522.9 905.986C1517.84 911.05 1509.63 911.05 1504.57 905.986L1504.16 906.388ZM1523.3 906.388L1523.71 906.79C1529.21 901.282 1529.21 892.353 1523.71 886.845L1523.3 887.247L1522.9 887.649C1527.97 892.713 1527.97 900.922 1522.9 905.986L1523.3 906.388Z" fill="#0083F5"/>
<path d="M1513.27 898.553L1505.58 902.995L1504.46 901.052C1508.57 898.317 1510.01 892.938 1507.82 888.515L1509.76 887.394L1514.2 895.087L1521.89 890.646L1523.02 892.589C1518.91 895.323 1517.47 900.702 1519.66 905.124L1517.71 906.245L1513.27 898.553Z" fill="#F8F9FA"/>
<path d="M1513.74 910.354C1513.74 919.698 1521.31 927.273 1530.66 927.273" stroke="#0083F5" stroke-width="1.13636" stroke-dasharray="1.69 0.85"/>
</g>
<defs>
<clipPath id="clip0_4018_52858">
<rect width="1600" height="1000" fill="white"/>
</clipPath>
<clipPath id="clip1_4018_52858">
<rect width="581.818" height="581.818" fill="white" transform="translate(509.091 209.091)"/>
</clipPath>
</defs>
</svg>
