<svg width="1600" height="1000" viewBox="0 0 1600 1000" fill="none" xmlns="http://www.w3.org/2000/svg">
<g clip-path="url(#clip0_4018_52859)">
<rect width="1600" height="1000" fill="#FAFAFA"/>
<path d="M77.3333 53.333C72.4859 53.333 68.5562 57.2627 68.5562 62.1101V68.5559L62.1105 68.5559C57.263 68.5559 53.3333 72.4856 53.3333 77.3331C59.0618 77.3331 64.7902 77.333 70.5186 77.333C71.5632 74.0654 74.1024 71.4664 77.3333 70.3419V53.333Z" fill="#2E3853"/>
<path fill-rule="evenodd" clip-rule="evenodd" d="M80.7771 87.223C80.7771 92.0705 76.8475 96.0002 72 96.0002V80.7774C72 75.9299 75.9297 72.0002 80.7771 72.0002L96 72.0002C96 76.8477 92.0703 80.7774 87.2229 80.7774H80.7771V87.223Z" fill="#2E3853"/>
<path d="M114.667 53.333C119.514 53.333 123.444 57.2627 123.444 62.1101V68.5559L129.89 68.5559C134.737 68.5559 138.667 72.4856 138.667 77.3331C132.938 77.3331 127.21 77.333 121.481 77.333C120.437 74.0654 117.898 71.4664 114.667 70.3419V53.333Z" fill="#2E3853"/>
<path fill-rule="evenodd" clip-rule="evenodd" d="M111.223 87.223C111.223 92.0705 115.153 96.0002 120 96.0002V80.7774C120 75.9299 116.07 72.0002 111.223 72.0002L96 72.0002C96 76.8477 99.9297 80.7774 104.777 80.7774H111.223V87.223Z" fill="#2E3853"/>
<path d="M162.667 53.333C157.819 53.333 153.89 57.2627 153.89 62.1101V68.5559L147.444 68.5559C142.596 68.5559 138.667 72.4856 138.667 77.3331C144.395 77.3331 150.124 77.333 155.852 77.333C156.897 74.0654 159.436 71.4664 162.667 70.3419V53.333Z" fill="#2E3853"/>
<path fill-rule="evenodd" clip-rule="evenodd" d="M166.111 87.223C166.111 92.0705 162.181 96.0002 157.333 96.0002V80.7774C157.333 75.9299 161.263 72.0002 166.111 72.0002L181.333 72.0002C181.333 76.8477 177.404 80.7774 172.556 80.7774H166.111V87.223Z" fill="#2E3853"/>
<path d="M200 53.333C204.848 53.333 208.777 57.2627 208.777 62.1101V68.5559L215.223 68.5559C220.071 68.5559 224 72.4856 224 77.3331C218.272 77.3331 212.543 77.333 206.815 77.333C205.77 74.0654 203.231 71.4664 200 70.3419V53.333Z" fill="#2E3853"/>
<path fill-rule="evenodd" clip-rule="evenodd" d="M196.556 87.223C196.556 92.0705 200.486 96.0002 205.333 96.0002V80.7774C205.333 75.9299 201.404 72.0002 196.556 72.0002L181.333 72.0002C181.333 76.8477 185.263 80.7774 190.111 80.7774H196.556V87.223Z" fill="#2E3853"/>
<path d="M248 53.333C243.153 53.333 239.223 57.2627 239.223 62.1101V68.5559L232.777 68.5559C227.93 68.5559 224 72.4856 224 77.3331C229.729 77.3331 235.457 77.333 241.186 77.333C242.23 74.0654 244.769 71.4664 248 70.3419V53.333Z" fill="#2E3853"/>
<path fill-rule="evenodd" clip-rule="evenodd" d="M251.444 87.223C251.444 92.0705 247.514 96.0002 242.667 96.0002V80.7774C242.667 75.9299 246.597 72.0002 251.444 72.0002L266.667 72.0002C266.667 76.8477 262.737 80.7774 257.89 80.7774H251.444V87.223Z" fill="#2E3853"/>
<path d="M285.334 53.333C290.181 53.333 294.111 57.2627 294.111 62.1101V68.5559L300.557 68.5559C305.404 68.5559 309.334 72.4856 309.334 77.3331C303.605 77.3331 297.877 77.333 292.148 77.333C291.104 74.0654 288.565 71.4664 285.334 70.3419V53.333Z" fill="#2E3853"/>
<path fill-rule="evenodd" clip-rule="evenodd" d="M281.89 87.223C281.89 92.0705 285.82 96.0002 290.667 96.0002V80.7774C290.667 75.9299 286.737 72.0002 281.89 72.0002L266.667 72.0002C266.667 76.8477 270.597 80.7774 275.444 80.7774H281.89V87.223Z" fill="#2E3853"/>
<path d="M558.168 493.427L455.166 392.671C437.792 375.624 437.792 347.62 455.166 330.573L557.858 431.329C575.542 448.68 575.542 476.381 558.168 493.427ZM510.7 477.903L407.697 377.146C390.324 394.193 390.324 422.197 407.697 439.244L510.39 540C528.074 522.954 528.074 495.253 510.7 477.903ZM502.634 346.098L605.637 446.854C623.01 429.807 623.01 401.803 605.637 384.756L502.634 284C485.26 301.046 485.26 329.051 502.634 346.098Z" fill="#00469C"/>
<path d="M190.706 616.509C203.05 616.509 213.286 621.164 221.715 630.473L240.08 614.182C228.64 600.509 210.877 593.236 189.502 593.236C151.268 593.236 122.667 618.836 122.667 654.618C122.667 690.4 150.966 716 189.201 716C210.576 716 228.338 708.436 239.779 694.764L221.414 678.473C213.286 687.782 202.749 692.436 190.405 692.436C167.525 692.436 150.966 676.727 150.966 654.327C151.268 632.218 167.525 616.509 190.706 616.509ZM294.27 621.455C279.217 621.455 263.863 625.236 253.627 632.509L263.562 651.127C270.487 645.891 280.723 642.691 290.658 642.691C305.409 642.691 312.334 649.382 312.334 660.727H290.658C261.756 660.727 250.015 671.782 250.015 688.073C250.015 703.782 263.261 715.709 285.239 715.709C299.087 715.709 309.022 711.345 314.14 702.909V714.255H339.73V661.891C339.73 634.255 323.172 621.455 294.27 621.455ZM312.334 685.164C309.323 693.6 301.195 697.673 292.163 697.673C282.529 697.673 276.809 693.309 276.809 686.618C276.809 680.509 280.723 675.855 293.668 675.855H312.334V685.164ZM383.986 649.964C383.986 645.309 389.104 641.527 401.447 641.527C410.178 641.527 419.21 643.273 428.542 648.218L437.574 629.309C428.542 624.364 414.092 621.455 401.146 621.455C373.449 621.455 357.493 633.673 357.493 650.836C357.493 687.2 414.393 672.073 414.393 686.909C414.393 691.855 409.576 695.345 396.931 695.345C385.491 695.345 372.545 691.855 364.116 686.618L355.084 705.527C363.815 711.055 380.072 715.418 396.028 715.418C424.327 715.418 440.585 703.491 440.585 686.327C440.886 650.255 383.986 665.382 383.986 649.964ZM550.17 668.582C550.17 639.2 528.795 621.164 501.097 621.164C472.196 621.164 450.821 640.945 450.821 668.291C450.821 695.345 472.196 715.127 504.71 715.127C521.87 715.127 534.816 710.182 543.547 700.291L529.096 685.164C522.473 690.982 515.548 693.891 505.312 693.891C490.861 693.891 480.927 686.909 478.217 675.564H549.568C549.869 673.527 550.17 670.618 550.17 668.582ZM477.916 660.436C479.722 648.8 488.754 641.527 501.398 641.527C513.742 641.527 522.774 649.091 524.58 660.436H477.916ZM637.176 588V632.218C630.251 624.655 620.618 621.164 608.876 621.164C582.082 621.164 561.61 639.491 561.61 668.291C561.61 697.091 582.082 715.127 608.876 715.127C621.521 715.127 631.456 711.345 638.38 703.2V713.673H664.572V588H637.176ZM613.693 693.6C600.146 693.6 589.609 684 589.609 668.291C589.609 652.582 600.146 642.982 613.693 642.982C627.241 642.982 637.778 652.582 637.778 668.291C637.778 684 627.241 693.6 613.693 693.6ZM732.009 621.455C701.903 621.455 679.926 640.945 679.926 668.582C679.926 695.927 701.903 715.418 732.009 715.418C762.115 715.418 783.791 695.927 783.791 668.582C783.791 640.945 761.814 621.455 732.009 621.455ZM732.009 693.6C718.462 693.6 707.925 684 707.925 668.291C707.925 652.582 718.462 642.982 732.009 642.982C745.557 642.982 756.094 652.582 756.094 668.291C756.094 684 745.557 693.6 732.009 693.6ZM847.917 693.6C834.068 693.6 823.23 684.291 823.23 668.291C823.23 652.291 834.068 642.982 847.917 642.982C856.647 642.982 864.174 646.764 869.292 655.491L890.667 644.436C883.743 629.6 868.088 621.164 848.218 621.164C817.51 621.164 795.533 640.655 795.533 668.291C795.533 695.636 817.51 715.127 848.218 715.127C868.088 715.127 883.743 706.691 890.667 692.145L869.292 681.091C864.174 689.818 856.647 693.6 847.917 693.6Z" fill="#2E3853"/>
<rect x="53.3335" y="914.667" width="32" height="32" fill="#FFCC00"/>
<rect x="101.333" y="914.667" width="32" height="32" fill="#2E3853"/>
<rect x="149.333" y="914.667" width="32" height="32" fill="#00469C"/>
<path d="M227.924 932.197H225.561C225.47 931.692 225.301 931.247 225.053 930.863C224.806 930.48 224.503 930.154 224.144 929.886C223.786 929.619 223.384 929.417 222.94 929.28C222.5 929.144 222.033 929.076 221.538 929.076C220.644 929.076 219.844 929.3 219.137 929.75C218.435 930.199 217.879 930.858 217.47 931.727C217.066 932.596 216.864 933.656 216.864 934.909C216.864 936.172 217.066 937.237 217.47 938.106C217.879 938.975 218.437 939.631 219.144 940.076C219.851 940.52 220.647 940.742 221.53 940.742C222.02 940.742 222.485 940.677 222.924 940.545C223.369 940.409 223.77 940.209 224.129 939.947C224.488 939.684 224.791 939.363 225.038 938.985C225.291 938.601 225.465 938.161 225.561 937.667L227.924 937.674C227.798 938.437 227.553 939.139 227.19 939.78C226.831 940.417 226.369 940.967 225.803 941.432C225.243 941.891 224.601 942.247 223.879 942.5C223.157 942.752 222.369 942.879 221.515 942.879C220.172 942.879 218.975 942.56 217.924 941.924C216.874 941.283 216.046 940.366 215.44 939.174C214.839 937.982 214.538 936.56 214.538 934.909C214.538 933.252 214.841 931.831 215.447 930.644C216.053 929.452 216.881 928.538 217.932 927.901C218.982 927.26 220.177 926.939 221.515 926.939C222.339 926.939 223.106 927.058 223.818 927.295C224.536 927.528 225.179 927.871 225.75 928.326C226.321 928.775 226.793 929.326 227.167 929.977C227.541 930.624 227.793 931.363 227.924 932.197ZM235.445 942.901C234.354 942.901 233.402 942.651 232.589 942.151C231.776 941.651 231.145 940.952 230.695 940.053C230.246 939.154 230.021 938.103 230.021 936.901C230.021 935.694 230.246 934.639 230.695 933.735C231.145 932.831 231.776 932.129 232.589 931.629C233.402 931.129 234.354 930.879 235.445 930.879C236.536 930.879 237.488 931.129 238.301 931.629C239.114 932.129 239.746 932.831 240.195 933.735C240.645 934.639 240.869 935.694 240.869 936.901C240.869 938.103 240.645 939.154 240.195 940.053C239.746 940.952 239.114 941.651 238.301 942.151C237.488 942.651 236.536 942.901 235.445 942.901ZM235.453 941C236.16 941 236.746 940.813 237.21 940.439C237.675 940.065 238.018 939.568 238.241 938.947C238.468 938.326 238.582 937.641 238.582 936.894C238.582 936.151 238.468 935.47 238.241 934.848C238.018 934.222 237.675 933.72 237.21 933.341C236.746 932.962 236.16 932.773 235.453 932.773C234.741 932.773 234.15 932.962 233.68 933.341C233.215 933.72 232.869 934.222 232.642 934.848C232.42 935.47 232.309 936.151 232.309 936.894C232.309 937.641 232.42 938.326 232.642 938.947C232.869 939.568 233.215 940.065 233.68 940.439C234.15 940.813 234.741 941 235.453 941ZM245.663 927.151V942.667H243.398V927.151H245.663ZM253.612 942.901C252.521 942.901 251.569 942.651 250.756 942.151C249.943 941.651 249.311 940.952 248.862 940.053C248.412 939.154 248.188 938.103 248.188 936.901C248.188 935.694 248.412 934.639 248.862 933.735C249.311 932.831 249.943 932.129 250.756 931.629C251.569 931.129 252.521 930.879 253.612 930.879C254.703 930.879 255.655 931.129 256.468 931.629C257.281 932.129 257.912 932.831 258.362 933.735C258.811 934.639 259.036 935.694 259.036 936.901C259.036 938.103 258.811 939.154 258.362 940.053C257.912 940.952 257.281 941.651 256.468 942.151C255.655 942.651 254.703 942.901 253.612 942.901ZM253.619 941C254.327 941 254.912 940.813 255.377 940.439C255.842 940.065 256.185 939.568 256.407 938.947C256.635 938.326 256.748 937.641 256.748 936.894C256.748 936.151 256.635 935.47 256.407 934.848C256.185 934.222 255.842 933.72 255.377 933.341C254.912 932.962 254.327 932.773 253.619 932.773C252.907 932.773 252.316 932.962 251.847 933.341C251.382 933.72 251.036 934.222 250.809 934.848C250.587 935.47 250.476 936.151 250.476 936.894C250.476 937.641 250.587 938.326 250.809 938.947C251.036 939.568 251.382 940.065 251.847 940.439C252.316 940.813 252.907 941 253.619 941ZM261.565 942.667V931.03H263.754V932.879H263.875C264.087 932.252 264.461 931.76 264.996 931.401C265.537 931.038 266.148 930.856 266.83 930.856C266.971 930.856 267.138 930.861 267.33 930.871C267.527 930.881 267.681 930.894 267.792 930.909V933.076C267.701 933.05 267.539 933.023 267.307 932.992C267.075 932.957 266.842 932.939 266.61 932.939C266.075 932.939 265.597 933.053 265.178 933.28C264.764 933.502 264.436 933.813 264.193 934.212C263.951 934.606 263.83 935.055 263.83 935.56V942.667H261.565ZM275.398 947.03V931.03H277.61V932.917H277.799C277.931 932.674 278.12 932.394 278.368 932.076C278.615 931.757 278.958 931.48 279.398 931.242C279.837 931 280.418 930.879 281.14 930.879C282.08 930.879 282.918 931.116 283.655 931.591C284.393 932.065 284.971 932.75 285.39 933.644C285.815 934.538 286.027 935.613 286.027 936.871C286.027 938.129 285.817 939.207 285.398 940.106C284.979 941 284.403 941.689 283.671 942.174C282.938 942.654 282.102 942.894 281.163 942.894C280.456 942.894 279.878 942.775 279.428 942.538C278.984 942.3 278.635 942.023 278.383 941.704C278.13 941.386 277.936 941.103 277.799 940.856H277.663V947.03H275.398ZM277.618 936.848C277.618 937.667 277.736 938.384 277.974 939C278.211 939.616 278.554 940.098 279.004 940.447C279.453 940.79 280.004 940.962 280.655 940.962C281.332 940.962 281.898 940.783 282.352 940.424C282.807 940.06 283.15 939.568 283.383 938.947C283.62 938.326 283.739 937.626 283.739 936.848C283.739 936.081 283.623 935.391 283.39 934.78C283.163 934.169 282.82 933.687 282.36 933.333C281.905 932.98 281.337 932.803 280.655 932.803C279.999 932.803 279.443 932.972 278.989 933.31C278.539 933.649 278.198 934.121 277.966 934.727C277.734 935.333 277.618 936.04 277.618 936.848ZM291.951 942.924C291.214 942.924 290.547 942.788 289.951 942.515C289.355 942.237 288.883 941.836 288.534 941.31C288.191 940.785 288.019 940.141 288.019 939.379C288.019 938.722 288.145 938.182 288.398 937.757C288.65 937.333 288.991 936.997 289.421 936.75C289.85 936.502 290.33 936.315 290.86 936.189C291.39 936.063 291.931 935.967 292.481 935.901C293.178 935.821 293.744 935.755 294.178 935.704C294.613 935.649 294.928 935.56 295.125 935.439C295.322 935.318 295.421 935.121 295.421 934.848V934.795C295.421 934.134 295.234 933.621 294.86 933.257C294.491 932.894 293.941 932.712 293.208 932.712C292.446 932.712 291.845 932.881 291.405 933.22C290.971 933.553 290.671 933.924 290.504 934.333L288.375 933.848C288.628 933.141 288.996 932.571 289.481 932.136C289.971 931.697 290.534 931.379 291.171 931.182C291.807 930.98 292.476 930.879 293.178 930.879C293.643 930.879 294.135 930.934 294.655 931.045C295.181 931.151 295.671 931.348 296.125 931.636C296.585 931.924 296.961 932.336 297.254 932.871C297.547 933.401 297.693 934.091 297.693 934.939V942.667H295.481V941.076H295.39C295.244 941.369 295.024 941.656 294.731 941.939C294.438 942.222 294.062 942.457 293.602 942.644C293.143 942.831 292.592 942.924 291.951 942.924ZM292.443 941.106C293.07 941.106 293.605 940.982 294.049 940.735C294.499 940.487 294.84 940.164 295.072 939.765C295.31 939.361 295.428 938.929 295.428 938.47V936.97C295.347 937.05 295.191 937.126 294.958 937.197C294.731 937.262 294.471 937.321 294.178 937.371C293.885 937.417 293.6 937.459 293.322 937.5C293.044 937.535 292.812 937.565 292.625 937.591C292.186 937.646 291.784 937.74 291.421 937.871C291.062 938.002 290.774 938.192 290.557 938.439C290.345 938.682 290.239 939.005 290.239 939.409C290.239 939.97 290.446 940.394 290.86 940.682C291.274 940.964 291.802 941.106 292.443 941.106ZM302.976 927.151V942.667H300.71V927.151H302.976ZM311.038 942.901C309.892 942.901 308.904 942.656 308.076 942.167C307.253 941.672 306.616 940.977 306.167 940.083C305.722 939.184 305.5 938.131 305.5 936.924C305.5 935.732 305.722 934.682 306.167 933.773C306.616 932.863 307.243 932.154 308.046 931.644C308.854 931.134 309.798 930.879 310.879 930.879C311.536 930.879 312.172 930.987 312.788 931.204C313.404 931.422 313.957 931.762 314.447 932.227C314.937 932.692 315.323 933.295 315.606 934.038C315.889 934.775 316.03 935.672 316.03 936.727V937.53H306.78V935.833H313.811C313.811 935.237 313.69 934.709 313.447 934.25C313.205 933.785 312.864 933.419 312.424 933.151C311.99 932.884 311.48 932.75 310.894 932.75C310.258 932.75 309.702 932.906 309.227 933.22C308.758 933.528 308.394 933.932 308.137 934.432C307.884 934.927 307.758 935.464 307.758 936.045V937.371C307.758 938.149 307.894 938.81 308.167 939.356C308.445 939.901 308.831 940.318 309.326 940.606C309.821 940.889 310.399 941.03 311.061 941.03C311.49 941.03 311.881 940.97 312.235 940.848C312.589 940.722 312.894 940.535 313.152 940.288C313.409 940.04 313.606 939.735 313.743 939.371L315.887 939.757C315.715 940.389 315.407 940.942 314.962 941.417C314.523 941.886 313.97 942.252 313.303 942.515C312.642 942.773 311.887 942.901 311.038 942.901ZM323.976 931.03V932.848H317.619V931.03H323.976ZM319.324 928.242H321.589V939.25C321.589 939.689 321.655 940.02 321.786 940.242C321.917 940.459 322.087 940.608 322.294 940.689C322.506 940.765 322.736 940.803 322.983 940.803C323.165 940.803 323.324 940.79 323.46 940.765C323.597 940.74 323.703 940.72 323.779 940.704L324.188 942.576C324.056 942.626 323.869 942.677 323.627 942.727C323.385 942.783 323.082 942.813 322.718 942.818C322.122 942.828 321.566 942.722 321.051 942.5C320.536 942.278 320.119 941.934 319.801 941.47C319.483 941.005 319.324 940.422 319.324 939.72V928.242ZM331.913 931.03V932.848H325.557V931.03H331.913ZM327.262 928.242H329.527V939.25C329.527 939.689 329.592 940.02 329.724 940.242C329.855 940.459 330.024 940.608 330.231 940.689C330.443 940.765 330.673 940.803 330.921 940.803C331.102 940.803 331.262 940.79 331.398 940.765C331.534 940.74 331.64 940.72 331.716 940.704L332.125 942.576C331.994 942.626 331.807 942.677 331.565 942.727C331.322 942.783 331.019 942.813 330.655 942.818C330.06 942.828 329.504 942.722 328.989 942.5C328.474 942.278 328.057 941.934 327.739 941.47C327.421 941.005 327.262 940.422 327.262 939.72V928.242ZM339.309 942.901C338.162 942.901 337.175 942.656 336.347 942.167C335.524 941.672 334.887 940.977 334.438 940.083C333.993 939.184 333.771 938.131 333.771 936.924C333.771 935.732 333.993 934.682 334.438 933.773C334.887 932.863 335.513 932.154 336.316 931.644C337.125 931.134 338.069 930.879 339.15 930.879C339.806 930.879 340.443 930.987 341.059 931.204C341.675 931.422 342.228 931.762 342.718 932.227C343.208 932.692 343.594 933.295 343.877 934.038C344.16 934.775 344.301 935.672 344.301 936.727V937.53H335.051V935.833H342.082C342.082 935.237 341.96 934.709 341.718 934.25C341.476 933.785 341.135 933.419 340.695 933.151C340.261 932.884 339.751 932.75 339.165 932.75C338.529 932.75 337.973 932.906 337.498 933.22C337.029 933.528 336.665 933.932 336.407 934.432C336.155 934.927 336.029 935.464 336.029 936.045V937.371C336.029 938.149 336.165 938.81 336.438 939.356C336.715 939.901 337.102 940.318 337.597 940.606C338.092 940.889 338.67 941.03 339.332 941.03C339.761 941.03 340.152 940.97 340.506 940.848C340.859 940.722 341.165 940.535 341.423 940.288C341.68 940.04 341.877 939.735 342.013 939.371L344.157 939.757C343.986 940.389 343.678 940.942 343.233 941.417C342.794 941.886 342.241 942.252 341.574 942.515C340.912 942.773 340.157 942.901 339.309 942.901Z" fill="#2E3853"/>
<path d="M728 904C723.152 904 719.223 907.929 719.223 912.777V919.222L712.777 919.222C707.929 919.222 704 923.152 704 928C709.728 928 715.457 927.999 721.185 927.999C722.23 924.732 724.769 922.133 728 921.008V904Z" fill="#2E3853"/>
<path fill-rule="evenodd" clip-rule="evenodd" d="M731.444 937.89C731.444 942.737 727.514 946.667 722.667 946.667V931.444C722.667 926.596 726.596 922.667 731.444 922.667L746.667 922.667C746.667 927.514 742.737 931.444 737.889 931.444H731.444V937.89Z" fill="#2E3853"/>
<path d="M765.333 904C770.181 904 774.11 907.929 774.11 912.777V919.222L780.556 919.222C785.404 919.222 789.333 923.152 789.333 928C783.605 928 777.876 927.999 772.148 927.999C771.103 924.732 768.564 922.133 765.333 921.008V904Z" fill="#2E3853"/>
<path fill-rule="evenodd" clip-rule="evenodd" d="M761.889 937.89C761.889 942.737 765.819 946.667 770.667 946.667V931.444C770.667 926.596 766.737 922.667 761.889 922.667L746.667 922.667C746.667 927.514 750.596 931.444 755.444 931.444H761.889V937.89Z" fill="#2E3853"/>
<path d="M813.333 904C808.486 904 804.556 907.929 804.556 912.777V919.222L798.11 919.222C793.263 919.222 789.333 923.152 789.333 928C795.062 928 800.79 927.999 806.519 927.999C807.563 924.732 810.102 922.133 813.333 921.008V904Z" fill="#2E3853"/>
<path fill-rule="evenodd" clip-rule="evenodd" d="M816.777 937.89C816.777 942.737 812.847 946.667 808 946.667V931.444C808 926.596 811.93 922.667 816.777 922.667L832 922.667C832 927.514 828.07 931.444 823.223 931.444H816.777V937.89Z" fill="#2E3853"/>
<path d="M850.667 904C855.514 904 859.444 907.929 859.444 912.777V919.222L865.89 919.222C870.737 919.222 874.667 923.152 874.667 928C868.938 928 863.21 927.999 857.481 927.999C856.437 924.732 853.898 922.133 850.667 921.008V904Z" fill="#2E3853"/>
<path fill-rule="evenodd" clip-rule="evenodd" d="M847.223 937.89C847.223 942.737 851.153 946.667 856 946.667V931.444C856 926.596 852.07 922.667 847.223 922.667L832 922.667C832 927.514 835.93 931.444 840.777 931.444H847.223V937.89Z" fill="#2E3853"/>
<path d="M898.667 904C893.819 904 889.89 907.929 889.89 912.777V919.222L883.444 919.222C878.596 919.222 874.667 923.152 874.667 928C880.395 928 886.124 927.999 891.852 927.999C892.897 924.732 895.436 922.133 898.667 921.008V904Z" fill="#2E3853"/>
<path fill-rule="evenodd" clip-rule="evenodd" d="M902.111 937.89C902.111 942.737 898.181 946.667 893.333 946.667V931.444C893.333 926.596 897.263 922.667 902.111 922.667L917.333 922.667C917.333 927.514 913.404 931.444 908.556 931.444H902.111V937.89Z" fill="#2E3853"/>
<path d="M936 904C940.848 904 944.777 907.929 944.777 912.777V919.222L951.223 919.222C956.071 919.222 960 923.152 960 928C954.272 928 948.543 927.999 942.815 927.999C941.77 924.732 939.231 922.133 936 921.008V904Z" fill="#2E3853"/>
<path fill-rule="evenodd" clip-rule="evenodd" d="M932.556 937.89C932.556 942.737 936.486 946.667 941.333 946.667V931.444C941.333 926.596 937.404 922.667 932.556 922.667L917.333 922.667C917.333 927.514 921.263 931.444 926.111 931.444H932.556V937.89Z" fill="#2E3853"/>
<g clip-path="url(#clip1_4018_52859)">
<g clip-path="url(#clip2_4018_52859)">
<rect width="586.667" height="500" transform="translate(1013.33)" fill="#00469C"/>
<g clip-path="url(#clip3_4018_52859)">
<path d="M1317.84 368.998C1348.93 400.084 1348.99 450.445 1318.02 481.604L1125.86 289.449C1094.78 258.364 1094.72 208.001 1125.69 176.843L1317.84 368.998Z" stroke="white" stroke-width="0.5"/>
<circle cx="1182.26" cy="233.06" r="4" transform="rotate(-45 1182.26 233.06)" fill="white"/>
<path d="M1170.94 221.743C1167.94 224.744 1166.26 228.814 1166.26 233.057C1166.26 237.301 1167.94 241.37 1170.94 244.371C1173.94 247.371 1178.01 249.057 1182.26 249.057C1186.5 249.057 1190.57 247.371 1193.57 244.371" stroke="white" stroke-width="0.5" stroke-miterlimit="10" stroke-linecap="round" stroke-linejoin="round" stroke-dasharray="1 2"/>
<path d="M1159.63 210.43C1156.66 213.401 1154.3 216.929 1152.69 220.811C1151.08 224.694 1150.26 228.855 1150.26 233.057C1150.26 237.259 1151.08 241.421 1152.69 245.303C1154.3 249.185 1156.66 252.713 1159.63 255.685C1162.6 258.656 1166.13 261.013 1170.01 262.621C1173.89 264.229 1178.05 265.057 1182.26 265.057C1186.46 265.057 1190.62 264.229 1194.5 262.621C1198.38 261.013 1201.91 258.656 1204.88 255.685" stroke="white" stroke-width="0.5" stroke-miterlimit="10" stroke-linecap="round" stroke-linejoin="round" stroke-dasharray="1 2"/>
<path d="M1148.31 199.116C1143.86 203.573 1140.32 208.865 1137.91 214.688C1135.5 220.512 1134.26 226.754 1134.26 233.057C1134.26 239.361 1135.5 245.602 1137.91 251.426C1140.32 257.25 1143.86 262.541 1148.31 266.998C1152.77 271.455 1158.06 274.991 1163.89 277.403C1169.71 279.816 1175.95 281.057 1182.26 281.057C1188.56 281.057 1194.8 279.816 1200.62 277.403C1206.45 274.991 1211.74 271.455 1216.2 266.998" stroke="white" stroke-width="0.5" stroke-miterlimit="10" stroke-linecap="round" stroke-linejoin="round" stroke-dasharray="1 2"/>
<path d="M1137 187.802C1125 199.805 1118.26 216.083 1118.26 233.057C1118.26 250.031 1125 266.31 1137 278.312C1149 290.314 1165.28 297.057 1182.26 297.057C1199.23 297.057 1215.51 290.314 1227.51 278.312" stroke="white" stroke-width="0.5" stroke-miterlimit="10" stroke-linecap="round" stroke-linejoin="round" stroke-dasharray="1 2"/>
<path d="M1125.86 176.668C1133.27 169.262 1142.06 163.388 1151.74 159.38C1161.41 155.372 1171.78 153.31 1182.26 153.31C1192.73 153.31 1203.1 155.372 1212.77 159.38C1222.45 163.388 1231.24 169.262 1238.65 176.668C1246.05 184.073 1251.93 192.865 1255.93 202.541C1259.94 212.216 1262.01 222.587 1262.01 233.06C1262.01 243.533 1259.94 253.903 1255.93 263.579C1251.93 273.254 1246.05 282.046 1238.65 289.451C1231.24 296.857 1222.45 302.731 1212.77 306.739C1203.1 310.747 1192.73 312.81 1182.26 312.81C1171.78 312.81 1161.41 310.747 1151.74 306.739C1142.06 302.731 1133.27 296.857 1125.86 289.451C1118.46 282.046 1112.58 273.254 1108.58 263.579C1104.57 253.903 1102.51 243.532 1102.51 233.06C1102.51 222.587 1104.57 212.216 1108.58 202.541C1112.58 192.865 1118.46 184.073 1125.86 176.668L1125.86 176.668Z" stroke="white" stroke-width="0.5" stroke-miterlimit="10" stroke-linecap="round" stroke-linejoin="round"/>
<path d="M1125.69 289.63L1182.26 233.061" stroke="white" stroke-width="0.5" stroke-miterlimit="10" stroke-linecap="round" stroke-linejoin="round" stroke-dasharray="1 2"/>
<circle cx="1261.45" cy="425.393" r="4" transform="rotate(-45 1261.45 425.393)" fill="white"/>
<path d="M1250.14 414.079C1253.14 411.079 1257.21 409.393 1261.45 409.393C1265.69 409.393 1269.76 411.079 1272.76 414.079C1275.77 417.08 1277.45 421.15 1277.45 425.393C1277.45 429.637 1275.77 433.706 1272.76 436.707" stroke="white" stroke-width="0.5" stroke-miterlimit="10" stroke-linecap="round" stroke-linejoin="round" stroke-dasharray="1 2"/>
<path d="M1238.82 402.764C1241.8 399.793 1245.32 397.436 1249.21 395.827C1253.09 394.219 1257.25 393.392 1261.45 393.392C1265.65 393.392 1269.81 394.219 1273.7 395.827C1277.58 397.436 1281.11 399.793 1284.08 402.764C1287.05 405.736 1289.41 409.263 1291.02 413.146C1292.62 417.028 1293.45 421.189 1293.45 425.392C1293.45 429.594 1292.62 433.755 1291.02 437.637C1289.41 441.52 1287.05 445.047 1284.08 448.019" stroke="white" stroke-width="0.5" stroke-miterlimit="10" stroke-linecap="round" stroke-linejoin="round" stroke-dasharray="1 2"/>
<path d="M1227.51 391.453C1231.97 386.996 1237.26 383.46 1243.08 381.048C1248.91 378.636 1255.15 377.394 1261.45 377.394C1267.75 377.394 1274 378.636 1279.82 381.048C1285.64 383.46 1290.94 386.996 1295.39 391.453C1299.85 395.91 1303.39 401.202 1305.8 407.025C1308.21 412.849 1309.45 419.091 1309.45 425.394C1309.45 431.697 1308.21 437.939 1305.8 443.763C1303.39 449.586 1299.85 454.878 1295.39 459.335" stroke="white" stroke-width="0.5" stroke-miterlimit="10" stroke-linecap="round" stroke-linejoin="round" stroke-dasharray="1 2"/>
<path d="M1216.2 380.138C1228.2 368.135 1244.48 361.392 1261.45 361.392C1278.43 361.392 1294.7 368.135 1306.71 380.138C1318.71 392.14 1325.45 408.419 1325.45 425.392C1325.45 442.366 1318.71 458.645 1306.71 470.647" stroke="white" stroke-width="0.5" stroke-miterlimit="10" stroke-linecap="round" stroke-linejoin="round" stroke-dasharray="1 2"/>
<path d="M1205.06 369.001C1212.46 361.596 1221.26 355.721 1230.93 351.714C1240.61 347.706 1250.98 345.643 1261.45 345.643C1271.92 345.643 1282.29 347.706 1291.97 351.714C1301.65 355.721 1310.44 361.596 1317.84 369.001C1325.25 376.407 1331.12 385.198 1335.13 394.874C1339.14 404.55 1341.2 414.92 1341.2 425.393C1341.2 435.866 1339.14 446.236 1335.13 455.912C1331.12 465.588 1325.25 474.379 1317.84 481.785C1310.44 489.19 1301.65 495.065 1291.97 499.072C1282.29 503.08 1271.92 505.143 1261.45 505.143C1250.98 505.143 1240.61 503.08 1230.93 499.072C1221.26 495.065 1212.46 489.19 1205.06 481.785C1197.65 474.379 1191.78 465.588 1187.77 455.912C1183.76 446.236 1181.7 435.866 1181.7 425.393C1181.7 414.92 1183.76 404.55 1187.77 394.874C1191.78 385.198 1197.65 376.407 1205.06 369.001L1205.06 369.001Z" stroke="white" stroke-width="0.5" stroke-miterlimit="10" stroke-linecap="round" stroke-linejoin="round"/>
<path d="M1261.45 425.393L1318.02 368.825" stroke="white" stroke-width="0.5" stroke-miterlimit="10" stroke-linecap="round" stroke-linejoin="round" stroke-dasharray="1 2"/>
<path d="M1397.04 289.8C1428.12 320.886 1428.18 371.247 1397.21 402.406L1205.06 210.251C1173.97 179.165 1173.92 128.803 1204.88 97.6446L1397.04 289.8Z" stroke="white" stroke-width="0.5"/>
<circle cx="1261.45" cy="153.859" r="4" transform="rotate(-45 1261.45 153.859)" fill="white"/>
<path d="M1250.14 142.545C1247.14 145.546 1245.45 149.615 1245.45 153.859C1245.45 158.102 1247.14 162.172 1250.14 165.173C1253.14 168.173 1257.21 169.859 1261.45 169.859C1265.69 169.859 1269.76 168.173 1272.76 165.173" stroke="white" stroke-width="0.5" stroke-miterlimit="10" stroke-linecap="round" stroke-linejoin="round" stroke-dasharray="1 2"/>
<path d="M1238.82 131.231C1235.85 134.203 1233.5 137.731 1231.89 141.613C1230.28 145.495 1229.45 149.657 1229.45 153.859C1229.45 158.061 1230.28 162.222 1231.89 166.105C1233.5 169.987 1235.85 173.515 1238.82 176.486C1241.8 179.458 1245.32 181.815 1249.21 183.423C1253.09 185.031 1257.25 185.859 1261.45 185.859C1265.65 185.859 1269.81 185.031 1273.7 183.423C1277.58 181.815 1281.11 179.458 1284.08 176.486" stroke="white" stroke-width="0.5" stroke-miterlimit="10" stroke-linecap="round" stroke-linejoin="round" stroke-dasharray="1 2"/>
<path d="M1227.51 119.918C1223.05 124.375 1219.52 129.666 1217.1 135.49C1214.69 141.314 1213.45 147.555 1213.45 153.859C1213.45 160.162 1214.69 166.404 1217.1 172.228C1219.52 178.051 1223.05 183.343 1227.51 187.8C1231.97 192.257 1237.26 195.793 1243.08 198.205C1248.91 200.617 1255.15 201.859 1261.45 201.859C1267.75 201.859 1274 200.617 1279.82 198.205C1285.64 195.793 1290.94 192.257 1295.39 187.8" stroke="white" stroke-width="0.5" stroke-miterlimit="10" stroke-linecap="round" stroke-linejoin="round" stroke-dasharray="1 2"/>
<path d="M1216.2 108.604C1204.19 120.606 1197.45 136.885 1197.45 153.859C1197.45 170.833 1204.19 187.111 1216.2 199.114C1228.2 211.116 1244.48 217.859 1261.45 217.859C1278.42 217.859 1294.7 211.116 1306.71 199.114" stroke="white" stroke-width="0.5" stroke-miterlimit="10" stroke-linecap="round" stroke-linejoin="round" stroke-dasharray="1 2"/>
<path d="M1205.06 97.4671C1212.46 90.0616 1221.26 84.1873 1230.93 80.1795C1240.61 76.1717 1250.98 74.1089 1261.45 74.1089C1271.92 74.1089 1282.29 76.1717 1291.97 80.1795C1301.65 84.1873 1310.44 90.0617 1317.84 97.4671C1325.25 104.873 1331.12 113.664 1335.13 123.34C1339.14 133.016 1341.2 143.386 1341.2 153.859C1341.2 164.332 1339.14 174.702 1335.13 184.378C1331.12 194.054 1325.25 202.845 1317.84 210.251C1310.44 217.656 1301.65 223.53 1291.97 227.538C1282.29 231.546 1271.92 233.609 1261.45 233.609C1250.98 233.609 1240.61 231.546 1230.93 227.538C1221.26 223.53 1212.46 217.656 1205.06 210.251C1197.65 202.845 1191.78 194.054 1187.77 184.378C1183.76 174.702 1181.7 164.332 1181.7 153.859C1181.7 143.386 1183.76 133.016 1187.77 123.34C1191.78 113.664 1197.65 104.873 1205.06 97.4671L1205.06 97.4671Z" stroke="white" stroke-width="0.5" stroke-miterlimit="10" stroke-linecap="round" stroke-linejoin="round"/>
<path d="M1204.88 210.429L1261.45 153.861" stroke="white" stroke-width="0.5" stroke-miterlimit="10" stroke-linecap="round" stroke-linejoin="round" stroke-dasharray="1 2"/>
<circle cx="1340.65" cy="346.197" r="4" transform="rotate(-45 1340.65 346.197)" fill="white"/>
<path d="M1329.33 334.886C1332.33 331.885 1336.4 330.2 1340.65 330.2C1344.89 330.2 1348.96 331.885 1351.96 334.886C1354.96 337.887 1356.65 341.956 1356.65 346.2C1356.65 350.443 1354.96 354.513 1351.96 357.513" stroke="white" stroke-width="0.5" stroke-miterlimit="10" stroke-linecap="round" stroke-linejoin="round" stroke-dasharray="1 2"/>
<path d="M1318.02 323.571C1320.99 320.599 1324.52 318.242 1328.4 316.634C1332.28 315.026 1336.44 314.198 1340.65 314.198C1344.85 314.198 1349.01 315.026 1352.89 316.634C1356.78 318.242 1360.3 320.599 1363.27 323.571C1366.25 326.542 1368.6 330.07 1370.21 333.952C1371.82 337.835 1372.65 341.996 1372.65 346.198C1372.65 350.4 1371.82 354.562 1370.21 358.444C1368.6 362.326 1366.25 365.854 1363.27 368.826" stroke="white" stroke-width="0.5" stroke-miterlimit="10" stroke-linecap="round" stroke-linejoin="round" stroke-dasharray="1 2"/>
<path d="M1306.71 312.259C1311.16 307.802 1316.45 304.267 1322.28 301.854C1328.1 299.442 1334.34 298.201 1340.65 298.201C1346.95 298.201 1353.19 299.442 1359.02 301.854C1364.84 304.267 1370.13 307.802 1374.59 312.259C1379.05 316.717 1382.58 322.008 1384.99 327.832C1387.41 333.655 1388.65 339.897 1388.65 346.201C1388.65 352.504 1387.41 358.746 1384.99 364.569C1382.58 370.393 1379.05 375.685 1374.59 380.142" stroke="white" stroke-width="0.5" stroke-miterlimit="10" stroke-linecap="round" stroke-linejoin="round" stroke-dasharray="1 2"/>
<path d="M1295.39 300.944C1307.39 288.942 1323.67 282.199 1340.65 282.199C1357.62 282.199 1373.9 288.942 1385.9 300.944C1397.9 312.947 1404.65 329.225 1404.65 346.199C1404.65 363.173 1397.9 379.452 1385.9 391.454" stroke="white" stroke-width="0.5" stroke-miterlimit="10" stroke-linecap="round" stroke-linejoin="round" stroke-dasharray="1 2"/>
<path d="M1284.26 289.806C1291.66 282.4 1300.45 276.526 1310.13 272.518C1319.8 268.51 1330.17 266.447 1340.65 266.447C1351.12 266.447 1361.49 268.51 1371.17 272.518C1380.84 276.526 1389.63 282.4 1397.04 289.806C1404.44 297.211 1410.32 306.003 1414.33 315.678C1418.33 325.354 1420.4 335.724 1420.4 346.197C1420.4 356.67 1418.33 367.041 1414.33 376.716C1410.32 386.392 1404.44 395.184 1397.04 402.589C1389.63 409.995 1380.84 415.869 1371.17 419.877C1361.49 423.884 1351.12 425.947 1340.65 425.947C1330.17 425.947 1319.8 423.884 1310.13 419.877C1300.45 415.869 1291.66 409.994 1284.26 402.589C1276.85 395.184 1270.98 386.392 1266.97 376.716C1262.96 367.041 1260.9 356.67 1260.9 346.197C1260.9 335.724 1262.96 325.354 1266.97 315.678C1270.98 306.003 1276.85 297.211 1284.26 289.805L1284.26 289.806Z" stroke="white" stroke-width="0.5" stroke-miterlimit="10" stroke-linecap="round" stroke-linejoin="round"/>
<path d="M1340.65 346.197L1397.22 289.629" stroke="white" stroke-width="0.5" stroke-miterlimit="10" stroke-linecap="round" stroke-linejoin="round" stroke-dasharray="1 2"/>
<path d="M1476.23 210.606C1507.32 241.692 1507.38 292.053 1476.41 323.212L1284.26 131.057C1253.17 99.9714 1253.11 49.6091 1284.08 18.4507L1476.23 210.606Z" stroke="white" stroke-width="0.5"/>
<circle cx="1340.65" cy="74.6675" r="4" transform="rotate(-45 1340.65 74.6675)" fill="white"/>
<path d="M1329.33 63.3567C1326.33 66.3573 1324.65 70.4269 1324.65 74.6704C1324.65 78.9139 1326.33 82.9835 1329.33 85.9841C1332.33 88.9847 1336.4 90.6704 1340.65 90.6704C1344.89 90.6704 1348.96 88.9847 1351.96 85.9841" stroke="white" stroke-width="0.5" stroke-miterlimit="10" stroke-linecap="round" stroke-linejoin="round" stroke-dasharray="1 2"/>
<path d="M1318.02 52.043C1315.05 55.0145 1312.69 58.5421 1311.08 62.4245C1309.47 66.307 1308.65 70.4681 1308.65 74.6704C1308.65 78.8727 1309.47 83.0339 1311.08 86.9163C1312.69 90.7987 1315.05 94.3264 1318.02 97.2978C1320.99 100.269 1324.52 102.626 1328.4 104.235C1332.28 105.843 1336.44 106.67 1340.65 106.67C1344.85 106.67 1349.01 105.843 1352.89 104.235C1356.78 102.626 1360.3 100.269 1363.27 97.2978" stroke="white" stroke-width="0.5" stroke-miterlimit="10" stroke-linecap="round" stroke-linejoin="round" stroke-dasharray="1 2"/>
<path d="M1306.71 40.7293C1302.25 45.1865 1298.71 50.478 1296.3 56.3016C1293.89 62.1252 1292.65 68.367 1292.65 74.6704C1292.65 80.9739 1293.89 87.2156 1296.3 93.0392C1298.71 98.8628 1302.25 104.154 1306.71 108.612C1311.16 113.069 1316.45 116.604 1322.28 119.017C1328.1 121.429 1334.34 122.67 1340.65 122.67C1346.95 122.67 1353.19 121.429 1359.02 119.017C1364.84 116.604 1370.13 113.069 1374.59 108.612" stroke="white" stroke-width="0.5" stroke-miterlimit="10" stroke-linecap="round" stroke-linejoin="round" stroke-dasharray="1 2"/>
<path d="M1295.39 29.4156C1283.39 41.4179 1276.65 57.6966 1276.65 74.6704C1276.65 91.6443 1283.39 107.923 1295.39 119.925C1307.39 131.928 1323.67 138.67 1340.65 138.67C1357.62 138.67 1373.9 131.928 1385.9 119.925" stroke="white" stroke-width="0.5" stroke-miterlimit="10" stroke-linecap="round" stroke-linejoin="round" stroke-dasharray="1 2"/>
<path d="M1284.26 18.2757C1291.66 10.8702 1300.45 4.9959 1310.13 0.988087C1319.8 -3.01973 1330.17 -5.08252 1340.65 -5.08252C1351.12 -5.08252 1361.49 -3.01972 1371.17 0.988093C1380.84 4.99591 1389.63 10.8703 1397.04 18.2757C1404.44 25.6812 1410.32 34.4728 1414.33 44.1485C1418.33 53.8242 1420.4 64.1946 1420.4 74.6675C1420.4 85.1404 1418.33 95.5108 1414.33 105.187C1410.32 114.862 1404.44 123.654 1397.04 131.059C1389.63 138.465 1380.84 144.339 1371.17 148.347C1361.49 152.355 1351.12 154.417 1340.65 154.417C1330.17 154.417 1319.8 152.355 1310.13 148.347C1300.45 144.339 1291.66 138.465 1284.26 131.059C1276.85 123.654 1270.98 114.862 1266.97 105.186C1262.96 95.5107 1260.9 85.1404 1260.9 74.6674C1260.9 64.1945 1262.96 53.8241 1266.97 44.1484C1270.98 34.4727 1276.85 25.6811 1284.26 18.2757L1284.26 18.2757Z" stroke="white" stroke-width="0.5" stroke-miterlimit="10" stroke-linecap="round" stroke-linejoin="round"/>
<path d="M1284.08 131.238L1340.65 74.6693" stroke="white" stroke-width="0.5" stroke-miterlimit="10" stroke-linecap="round" stroke-linejoin="round" stroke-dasharray="1 2"/>
<circle cx="1419.84" cy="267.001" r="4" transform="rotate(-45 1419.84 267.001)" fill="white"/>
<path d="M1408.53 255.692C1411.53 252.692 1415.6 251.006 1419.84 251.006C1424.09 251.006 1428.16 252.692 1431.16 255.692C1434.16 258.693 1435.84 262.762 1435.84 267.006C1435.84 271.249 1434.16 275.319 1431.16 278.32" stroke="white" stroke-width="0.5" stroke-miterlimit="10" stroke-linecap="round" stroke-linejoin="round" stroke-dasharray="1 2"/>
<path d="M1397.21 244.377C1400.19 241.405 1403.71 239.048 1407.6 237.44C1411.48 235.832 1415.64 235.004 1419.84 235.004C1424.04 235.004 1428.21 235.832 1432.09 237.44C1435.97 239.048 1439.5 241.405 1442.47 244.377C1445.44 247.348 1447.8 250.876 1449.41 254.758C1451.01 258.641 1451.84 262.802 1451.84 267.004C1451.84 271.207 1451.01 275.368 1449.41 279.25C1447.8 283.133 1445.44 286.66 1442.47 289.632" stroke="white" stroke-width="0.5" stroke-miterlimit="10" stroke-linecap="round" stroke-linejoin="round" stroke-dasharray="1 2"/>
<path d="M1385.9 233.066C1390.36 228.608 1395.65 225.073 1401.47 222.661C1407.3 220.248 1413.54 219.007 1419.84 219.007C1426.15 219.007 1432.39 220.248 1438.21 222.661C1444.03 225.073 1449.33 228.608 1453.78 233.066C1458.24 237.523 1461.78 242.814 1464.19 248.638C1466.6 254.462 1467.84 260.703 1467.84 267.007C1467.84 273.31 1466.6 279.552 1464.19 285.376C1461.78 291.199 1458.24 296.491 1453.78 300.948" stroke="white" stroke-width="0.5" stroke-miterlimit="10" stroke-linecap="round" stroke-linejoin="round" stroke-dasharray="1 2"/>
<path d="M1374.59 221.75C1386.59 209.748 1402.87 203.005 1419.84 203.005C1436.82 203.005 1453.09 209.748 1465.1 221.75C1477.1 233.753 1483.84 250.031 1483.84 267.005C1483.84 283.979 1477.1 300.258 1465.1 312.26" stroke="white" stroke-width="0.5" stroke-miterlimit="10" stroke-linecap="round" stroke-linejoin="round" stroke-dasharray="1 2"/>
<path d="M1363.45 210.609C1370.86 203.204 1379.65 197.329 1389.32 193.322C1399 189.314 1409.37 187.251 1419.84 187.251C1430.32 187.251 1440.69 189.314 1450.36 193.322C1460.04 197.329 1468.83 203.204 1476.23 210.609C1483.64 218.015 1489.51 226.806 1493.52 236.482C1497.53 246.158 1499.59 256.528 1499.59 267.001C1499.59 277.474 1497.53 287.844 1493.52 297.52C1489.51 307.196 1483.64 315.987 1476.23 323.393C1468.83 330.798 1460.04 336.673 1450.36 340.68C1440.69 344.688 1430.32 346.751 1419.84 346.751C1409.37 346.751 1399 344.688 1389.32 340.68C1379.65 336.673 1370.86 330.798 1363.45 323.393C1356.05 315.987 1350.17 307.196 1346.16 297.52C1342.16 287.844 1340.09 277.474 1340.09 267.001C1340.09 256.528 1342.16 246.158 1346.16 236.482C1350.17 226.806 1356.05 218.015 1363.45 210.609L1363.45 210.609Z" stroke="white" stroke-width="0.5" stroke-miterlimit="10" stroke-linecap="round" stroke-linejoin="round"/>
<path d="M1419.84 267.001L1476.41 210.432" stroke="white" stroke-width="0.5" stroke-miterlimit="10" stroke-linecap="round" stroke-linejoin="round" stroke-dasharray="1 2"/>
<path d="M1195.61 351.298C1195.42 351.484 1195.22 351.619 1195.02 351.701C1194.81 351.782 1194.61 351.809 1194.42 351.782C1194.23 351.754 1194.07 351.67 1193.93 351.53C1193.82 351.423 1193.74 351.3 1193.7 351.162C1193.66 351.024 1193.65 350.884 1193.67 350.743C1193.69 350.6 1193.74 350.47 1193.82 350.352L1193.81 350.335C1193.64 350.438 1193.47 350.478 1193.28 350.454C1193.1 350.429 1192.93 350.347 1192.79 350.207C1192.66 350.075 1192.58 349.921 1192.55 349.742C1192.52 349.564 1192.54 349.38 1192.61 349.191C1192.68 349.001 1192.8 348.823 1192.97 348.656C1193.13 348.491 1193.31 348.375 1193.5 348.306C1193.69 348.236 1193.87 348.215 1194.05 348.244C1194.23 348.273 1194.38 348.353 1194.52 348.485C1194.65 348.624 1194.74 348.788 1194.76 348.978C1194.78 349.165 1194.74 349.338 1194.64 349.497L1194.66 349.515C1194.78 349.431 1194.91 349.38 1195.05 349.361C1195.19 349.34 1195.33 349.351 1195.47 349.393C1195.61 349.435 1195.73 349.51 1195.84 349.618C1195.98 349.757 1196.06 349.922 1196.09 350.114C1196.12 350.305 1196.09 350.504 1196.01 350.71C1195.93 350.916 1195.79 351.112 1195.61 351.298ZM1195.25 350.939C1195.35 350.842 1195.41 350.742 1195.45 350.639C1195.49 350.534 1195.5 350.432 1195.48 350.332C1195.46 350.233 1195.41 350.143 1195.33 350.064C1195.25 349.982 1195.15 349.931 1195.05 349.91C1194.94 349.888 1194.84 349.895 1194.73 349.931C1194.62 349.966 1194.52 350.029 1194.43 350.12C1194.34 350.212 1194.27 350.312 1194.24 350.42C1194.2 350.528 1194.2 350.635 1194.22 350.74C1194.24 350.844 1194.29 350.937 1194.37 351.018C1194.45 351.097 1194.54 351.148 1194.64 351.169C1194.74 351.189 1194.84 351.18 1194.95 351.142C1195.05 351.104 1195.15 351.036 1195.25 350.939ZM1194.08 349.767C1194.16 349.689 1194.21 349.603 1194.24 349.511C1194.27 349.418 1194.27 349.326 1194.25 349.234C1194.23 349.142 1194.18 349.058 1194.11 348.983C1194.03 348.91 1193.95 348.863 1193.86 348.842C1193.77 348.82 1193.68 348.825 1193.59 348.856C1193.5 348.886 1193.41 348.941 1193.33 349.02C1193.25 349.102 1193.19 349.189 1193.16 349.281C1193.13 349.373 1193.13 349.464 1193.15 349.554C1193.17 349.643 1193.22 349.723 1193.29 349.796C1193.37 349.872 1193.45 349.921 1193.54 349.943C1193.63 349.964 1193.72 349.96 1193.82 349.932C1193.91 349.902 1194 349.847 1194.08 349.767ZM1197.94 348.993C1197.73 349.2 1197.5 349.325 1197.25 349.368C1197 349.41 1196.73 349.372 1196.46 349.253C1196.18 349.132 1195.9 348.932 1195.62 348.652C1195.34 348.37 1195.14 348.092 1195.02 347.817C1194.9 347.54 1194.87 347.275 1194.91 347.024C1194.95 346.772 1195.08 346.544 1195.29 346.338C1195.49 346.132 1195.72 346.007 1195.97 345.962C1196.22 345.918 1196.49 345.955 1196.76 346.074C1197.04 346.192 1197.32 346.391 1197.6 346.67C1197.88 346.952 1198.08 347.232 1198.2 347.51C1198.32 347.787 1198.36 348.052 1198.31 348.305C1198.27 348.557 1198.15 348.786 1197.94 348.993ZM1197.55 348.6C1197.71 348.439 1197.76 348.233 1197.69 347.982C1197.63 347.73 1197.44 347.449 1197.13 347.14C1196.93 346.936 1196.73 346.785 1196.55 346.689C1196.37 346.593 1196.2 346.549 1196.06 346.556C1195.91 346.563 1195.78 346.619 1195.67 346.726C1195.51 346.885 1195.47 347.091 1195.53 347.343C1195.6 347.594 1195.78 347.874 1196.09 348.181C1196.29 348.387 1196.49 348.539 1196.67 348.636C1196.85 348.734 1197.02 348.779 1197.16 348.772C1197.31 348.765 1197.44 348.707 1197.55 348.6Z" fill="white"/>
<path d="M1192.86 356.803L1194.28 358.217" stroke="#5597FF" stroke-width="0.5" stroke-linecap="round"/>
<path d="M1193.57 357.51L1250.14 300.941" stroke="#5597FF" stroke-width="0.5" stroke-dasharray="1 1.5"/>
<path d="M1249.43 300.234L1250.84 301.649" stroke="#5597FF" stroke-width="0.5" stroke-linecap="round"/>
<path d="M1252.26 294.65C1252.08 294.831 1251.88 294.96 1251.68 295.039C1251.48 295.117 1251.28 295.141 1251.09 295.112C1250.9 295.083 1250.73 294.998 1250.58 294.858L1251.05 294.386C1251.12 294.452 1251.21 294.489 1251.3 294.499C1251.39 294.508 1251.49 294.493 1251.59 294.452C1251.69 294.411 1251.78 294.347 1251.86 294.261C1251.96 294.169 1252.02 294.071 1252.06 293.968C1252.1 293.864 1252.11 293.764 1252.09 293.666C1252.08 293.568 1252.03 293.481 1251.95 293.407C1251.88 293.328 1251.79 293.28 1251.69 293.261C1251.59 293.243 1251.48 293.256 1251.37 293.3C1251.26 293.344 1251.15 293.42 1251.04 293.529L1250.81 293.756L1250.45 293.397L1250.68 293.17C1250.77 293.08 1250.83 292.986 1250.87 292.888C1250.91 292.79 1250.92 292.693 1250.9 292.598C1250.88 292.503 1250.83 292.418 1250.76 292.345C1250.68 292.271 1250.61 292.224 1250.52 292.204C1250.43 292.182 1250.34 292.187 1250.25 292.217C1250.16 292.246 1250.08 292.301 1250 292.381C1249.92 292.46 1249.86 292.547 1249.82 292.642C1249.78 292.738 1249.77 292.832 1249.78 292.926C1249.79 293.019 1249.83 293.103 1249.9 293.177L1249.45 293.625C1249.31 293.478 1249.23 293.31 1249.2 293.122C1249.17 292.932 1249.19 292.739 1249.26 292.544C1249.34 292.349 1249.46 292.167 1249.62 292.001C1249.79 291.829 1249.97 291.712 1250.17 291.65C1250.36 291.587 1250.54 291.574 1250.72 291.613C1250.9 291.651 1251.05 291.736 1251.18 291.866C1251.33 292.01 1251.4 292.174 1251.42 292.359C1251.43 292.542 1251.38 292.718 1251.27 292.887L1251.29 292.907C1251.5 292.752 1251.7 292.68 1251.91 292.693C1252.11 292.703 1252.3 292.79 1252.46 292.951C1252.6 293.095 1252.69 293.265 1252.72 293.461C1252.75 293.655 1252.73 293.856 1252.65 294.064C1252.57 294.27 1252.44 294.466 1252.26 294.65ZM1253.6 293.235L1253.26 292.898L1253.28 291.13C1253.28 290.959 1253.28 290.811 1253.27 290.687C1253.26 290.563 1253.23 290.456 1253.2 290.365C1253.16 290.273 1253.11 290.192 1253.04 290.121C1252.96 290.04 1252.87 289.989 1252.78 289.968C1252.68 289.946 1252.59 289.951 1252.49 289.984C1252.39 290.017 1252.3 290.074 1252.22 290.156C1252.14 290.241 1252.08 290.332 1252.05 290.431C1252.02 290.529 1252.02 290.627 1252.05 290.726C1252.08 290.824 1252.14 290.917 1252.23 291.005L1251.78 291.448C1251.62 291.285 1251.52 291.106 1251.47 290.911C1251.42 290.716 1251.43 290.52 1251.5 290.323C1251.56 290.126 1251.68 289.942 1251.85 289.772C1252.02 289.599 1252.21 289.48 1252.4 289.414C1252.6 289.348 1252.79 289.335 1252.97 289.375C1253.16 289.415 1253.32 289.506 1253.46 289.65C1253.56 289.746 1253.64 289.859 1253.69 289.989C1253.75 290.119 1253.79 290.287 1253.81 290.493C1253.83 290.698 1253.84 290.964 1253.83 291.291L1253.84 292.185L1253.85 292.203L1254.97 291.083L1255.36 291.472L1253.6 293.235Z" fill="white"/>
<path d="M1249.43 300.234L1250.84 301.649" stroke="#5597FF" stroke-width="0.5" stroke-linecap="round"/>
<path d="M1250.14 300.941L1272.76 278.314" stroke="#5597FF" stroke-width="0.5" stroke-dasharray="1 1.5"/>
<path d="M1272.06 277.607L1273.47 279.021" stroke="#5597FF" stroke-width="0.5" stroke-linecap="round"/>
<path d="M1274.8 272.102C1274.62 272.289 1274.42 272.423 1274.21 272.505C1274.01 272.586 1273.81 272.613 1273.62 272.587C1273.43 272.558 1273.26 272.474 1273.12 272.334C1273.01 272.227 1272.94 272.105 1272.9 271.966C1272.85 271.828 1272.84 271.689 1272.86 271.547C1272.88 271.404 1272.94 271.274 1273.02 271.157L1273 271.139C1272.84 271.242 1272.67 271.282 1272.48 271.258C1272.29 271.233 1272.13 271.151 1271.99 271.011C1271.86 270.88 1271.78 270.725 1271.75 270.546C1271.72 270.368 1271.74 270.184 1271.81 269.995C1271.88 269.805 1272 269.627 1272.16 269.46C1272.33 269.296 1272.5 269.179 1272.69 269.11C1272.88 269.04 1273.07 269.019 1273.24 269.049C1273.42 269.077 1273.58 269.157 1273.71 269.29C1273.85 269.429 1273.93 269.593 1273.96 269.782C1273.98 269.969 1273.94 270.143 1273.84 270.302L1273.86 270.319C1273.97 270.235 1274.1 270.184 1274.25 270.165C1274.39 270.144 1274.53 270.155 1274.66 270.197C1274.8 270.239 1274.93 270.314 1275.03 270.422C1275.17 270.561 1275.26 270.726 1275.28 270.918C1275.31 271.109 1275.28 271.308 1275.2 271.514C1275.12 271.72 1274.99 271.916 1274.8 272.102ZM1274.44 271.743C1274.54 271.647 1274.61 271.547 1274.65 271.443C1274.68 271.338 1274.69 271.236 1274.67 271.137C1274.65 271.037 1274.6 270.947 1274.52 270.868C1274.44 270.787 1274.35 270.736 1274.24 270.715C1274.14 270.692 1274.03 270.699 1273.92 270.735C1273.82 270.77 1273.72 270.833 1273.63 270.924C1273.53 271.016 1273.47 271.116 1273.43 271.224C1273.4 271.332 1273.39 271.439 1273.41 271.545C1273.43 271.648 1273.49 271.741 1273.57 271.822C1273.65 271.902 1273.74 271.952 1273.84 271.973C1273.93 271.993 1274.04 271.984 1274.14 271.946C1274.25 271.908 1274.35 271.84 1274.44 271.743ZM1273.27 270.572C1273.35 270.493 1273.41 270.407 1273.43 270.315C1273.46 270.223 1273.47 270.13 1273.45 270.038C1273.42 269.946 1273.38 269.862 1273.3 269.787C1273.23 269.714 1273.15 269.667 1273.06 269.646C1272.97 269.624 1272.87 269.629 1272.78 269.66C1272.69 269.69 1272.61 269.745 1272.53 269.825C1272.45 269.906 1272.39 269.993 1272.36 270.086C1272.33 270.177 1272.32 270.268 1272.34 270.358C1272.37 270.447 1272.41 270.528 1272.49 270.6C1272.56 270.676 1272.64 270.725 1272.74 270.747C1272.83 270.768 1272.92 270.764 1273.01 270.736C1273.11 270.706 1273.19 270.651 1273.27 270.572ZM1277.14 269.797C1276.93 270.004 1276.7 270.129 1276.45 270.173C1276.19 270.214 1275.93 270.176 1275.65 270.057C1275.37 269.937 1275.09 269.736 1274.81 269.456C1274.53 269.174 1274.34 268.896 1274.22 268.621C1274.1 268.344 1274.06 268.08 1274.11 267.829C1274.15 267.577 1274.27 267.348 1274.48 267.142C1274.69 266.936 1274.92 266.811 1275.17 266.766C1275.42 266.722 1275.68 266.759 1275.96 266.878C1276.24 266.996 1276.52 267.195 1276.79 267.475C1277.08 267.756 1277.28 268.036 1277.4 268.314C1277.52 268.591 1277.55 268.856 1277.51 269.109C1277.47 269.361 1277.34 269.59 1277.14 269.797ZM1276.74 269.404C1276.9 269.244 1276.95 269.038 1276.89 268.787C1276.82 268.534 1276.63 268.253 1276.33 267.944C1276.12 267.74 1275.93 267.59 1275.75 267.493C1275.56 267.397 1275.4 267.353 1275.25 267.36C1275.1 267.367 1274.98 267.423 1274.87 267.53C1274.71 267.69 1274.66 267.896 1274.73 268.147C1274.79 268.399 1274.98 268.678 1275.28 268.985C1275.49 269.191 1275.68 269.343 1275.86 269.441C1276.05 269.538 1276.21 269.583 1276.36 269.576C1276.51 269.569 1276.64 269.511 1276.74 269.404Z" fill="white"/>
<path d="M1272.06 277.607L1273.47 279.021" stroke="#5597FF" stroke-width="0.5" stroke-linecap="round"/>
<path d="M1272.76 278.314L1329.33 221.745" stroke="#5597FF" stroke-width="0.5" stroke-dasharray="1 1.5"/>
<path d="M1328.63 221.039L1330.04 222.453" stroke="#5597FF" stroke-width="0.5" stroke-linecap="round"/>
<path d="M1331.45 215.454C1331.27 215.634 1331.08 215.764 1330.88 215.843C1330.68 215.921 1330.48 215.945 1330.29 215.916C1330.1 215.886 1329.92 215.802 1329.77 215.662L1330.25 215.19C1330.32 215.255 1330.4 215.293 1330.5 215.303C1330.59 215.312 1330.69 215.296 1330.78 215.255C1330.88 215.214 1330.97 215.151 1331.06 215.064C1331.15 214.972 1331.22 214.875 1331.26 214.772C1331.3 214.668 1331.31 214.567 1331.29 214.469C1331.27 214.371 1331.22 214.285 1331.15 214.211C1331.07 214.132 1330.98 214.083 1330.88 214.065C1330.78 214.047 1330.68 214.06 1330.56 214.104C1330.45 214.147 1330.34 214.224 1330.24 214.332L1330.01 214.56L1329.65 214.201L1329.88 213.973C1329.97 213.884 1330.03 213.79 1330.06 213.692C1330.1 213.593 1330.11 213.497 1330.09 213.402C1330.08 213.307 1330.03 213.222 1329.95 213.148C1329.88 213.075 1329.8 213.028 1329.71 213.008C1329.63 212.986 1329.54 212.99 1329.45 213.02C1329.36 213.05 1329.27 213.105 1329.19 213.185C1329.11 213.264 1329.06 213.351 1329.02 213.446C1328.98 213.541 1328.97 213.636 1328.98 213.73C1328.99 213.823 1329.03 213.906 1329.1 213.981L1328.65 214.429C1328.51 214.282 1328.42 214.114 1328.4 213.926C1328.37 213.736 1328.39 213.543 1328.46 213.348C1328.53 213.152 1328.65 212.971 1328.82 212.804C1328.99 212.633 1329.17 212.516 1329.36 212.454C1329.55 212.391 1329.74 212.378 1329.91 212.417C1330.09 212.455 1330.25 212.54 1330.38 212.67C1330.52 212.814 1330.6 212.978 1330.61 213.162C1330.62 213.346 1330.58 213.522 1330.47 213.691L1330.49 213.711C1330.69 213.555 1330.9 213.484 1331.1 213.496C1331.31 213.507 1331.49 213.593 1331.65 213.755C1331.8 213.899 1331.88 214.069 1331.92 214.265C1331.95 214.459 1331.92 214.66 1331.85 214.867C1331.77 215.074 1331.64 215.269 1331.45 215.454ZM1332.8 214.038L1332.46 213.702L1332.48 211.934C1332.48 211.762 1332.47 211.615 1332.46 211.491C1332.45 211.367 1332.43 211.259 1332.4 211.168C1332.36 211.077 1332.31 210.996 1332.24 210.925C1332.16 210.843 1332.07 210.792 1331.97 210.771C1331.88 210.75 1331.78 210.755 1331.69 210.788C1331.59 210.82 1331.5 210.878 1331.42 210.96C1331.33 211.044 1331.28 211.136 1331.25 211.235C1331.22 211.333 1331.22 211.431 1331.25 211.53C1331.28 211.628 1331.34 211.721 1331.42 211.809L1330.98 212.252C1330.82 212.089 1330.71 211.909 1330.67 211.714C1330.62 211.519 1330.63 211.323 1330.69 211.127C1330.76 210.929 1330.88 210.746 1331.05 210.576C1331.22 210.403 1331.4 210.284 1331.6 210.218C1331.79 210.152 1331.98 210.139 1332.17 210.179C1332.35 210.218 1332.52 210.31 1332.66 210.454C1332.76 210.55 1332.83 210.663 1332.89 210.793C1332.94 210.923 1332.98 211.09 1333 211.296C1333.02 211.501 1333.03 211.768 1333.03 212.095L1333.03 212.989L1333.05 213.006L1334.17 211.886L1334.56 212.276L1332.8 214.038Z" fill="white"/>
<path d="M1328.63 221.038L1330.04 222.452" stroke="#5597FF" stroke-width="0.5" stroke-linecap="round"/>
<path d="M1329.33 221.745L1351.96 199.118" stroke="#5597FF" stroke-width="0.5" stroke-dasharray="1 1.5"/>
<path d="M1351.25 198.411L1352.67 199.825" stroke="#5597FF" stroke-width="0.5" stroke-linecap="round"/>
<path d="M1354 192.906C1353.81 193.092 1353.62 193.227 1353.41 193.309C1353.2 193.39 1353 193.417 1352.81 193.39C1352.62 193.362 1352.46 193.278 1352.32 193.138C1352.21 193.031 1352.13 192.908 1352.09 192.77C1352.05 192.632 1352.04 192.492 1352.06 192.351C1352.08 192.208 1352.13 192.078 1352.22 191.96L1352.2 191.943C1352.04 192.046 1351.86 192.085 1351.67 192.062C1351.49 192.037 1351.32 191.954 1351.19 191.815C1351.05 191.683 1350.97 191.528 1350.94 191.35C1350.91 191.172 1350.93 190.988 1351 190.799C1351.07 190.609 1351.19 190.431 1351.36 190.264C1351.52 190.099 1351.7 189.982 1351.89 189.914C1352.08 189.844 1352.26 189.823 1352.44 189.852C1352.62 189.881 1352.78 189.961 1352.91 190.093C1353.05 190.232 1353.13 190.396 1353.15 190.586C1353.17 190.773 1353.14 190.946 1353.04 191.105L1353.05 191.123C1353.17 191.039 1353.3 190.988 1353.44 190.968C1353.58 190.948 1353.72 190.958 1353.86 191.001C1354 191.043 1354.12 191.118 1354.23 191.226C1354.37 191.365 1354.45 191.53 1354.48 191.722C1354.51 191.913 1354.48 192.111 1354.4 192.318C1354.32 192.524 1354.19 192.72 1354 192.906ZM1353.64 192.547C1353.74 192.45 1353.8 192.35 1353.84 192.247C1353.88 192.142 1353.89 192.04 1353.87 191.94C1353.85 191.841 1353.8 191.751 1353.72 191.672C1353.64 191.59 1353.54 191.539 1353.44 191.518C1353.33 191.496 1353.23 191.502 1353.12 191.538C1353.01 191.574 1352.91 191.637 1352.82 191.728C1352.73 191.82 1352.67 191.92 1352.63 192.028C1352.59 192.136 1352.59 192.243 1352.61 192.348C1352.63 192.452 1352.68 192.545 1352.77 192.626C1352.84 192.705 1352.93 192.755 1353.03 192.776C1353.13 192.797 1353.23 192.788 1353.34 192.75C1353.44 192.712 1353.54 192.644 1353.64 192.547ZM1352.47 191.375C1352.55 191.297 1352.6 191.211 1352.63 191.119C1352.66 191.026 1352.66 190.934 1352.64 190.842C1352.62 190.75 1352.57 190.666 1352.5 190.591C1352.42 190.518 1352.34 190.471 1352.25 190.45C1352.16 190.428 1352.07 190.433 1351.98 190.464C1351.89 190.494 1351.8 190.549 1351.72 190.628C1351.64 190.709 1351.59 190.796 1351.55 190.889C1351.52 190.981 1351.52 191.071 1351.54 191.162C1351.56 191.251 1351.61 191.331 1351.68 191.404C1351.76 191.479 1351.84 191.528 1351.93 191.551C1352.02 191.572 1352.12 191.568 1352.21 191.54C1352.3 191.51 1352.39 191.455 1352.47 191.375ZM1356.33 190.601C1356.13 190.808 1355.9 190.933 1355.64 190.976C1355.39 191.018 1355.13 190.98 1354.85 190.861C1354.57 190.74 1354.29 190.54 1354.01 190.259C1353.73 189.978 1353.53 189.7 1353.41 189.425C1353.3 189.147 1353.26 188.883 1353.3 188.632C1353.35 188.38 1353.47 188.151 1353.68 187.946C1353.88 187.74 1354.11 187.614 1354.36 187.57C1354.62 187.526 1354.88 187.563 1355.16 187.682C1355.43 187.8 1355.71 187.999 1355.99 188.278C1356.27 188.559 1356.47 188.839 1356.59 189.118C1356.71 189.395 1356.75 189.66 1356.71 189.913C1356.66 190.165 1356.54 190.394 1356.33 190.601ZM1355.94 190.208C1356.1 190.047 1356.15 189.841 1356.08 189.59C1356.02 189.337 1355.83 189.057 1355.52 188.748C1355.32 188.544 1355.12 188.393 1354.94 188.297C1354.76 188.201 1354.6 188.156 1354.45 188.164C1354.3 188.171 1354.17 188.227 1354.07 188.333C1353.91 188.493 1353.86 188.699 1353.92 188.951C1353.99 189.202 1354.18 189.481 1354.48 189.789C1354.68 189.995 1354.88 190.146 1355.06 190.244C1355.24 190.341 1355.41 190.387 1355.56 190.38C1355.7 190.372 1355.83 190.315 1355.94 190.208Z" fill="white"/>
<path d="M1351.25 198.411L1352.67 199.825" stroke="#5597FF" stroke-width="0.5" stroke-linecap="round"/>
<path d="M1351.96 199.118L1408.53 142.549" stroke="#5597FF" stroke-width="0.5" stroke-dasharray="1 1.5"/>
<path d="M1407.82 141.842L1409.24 143.256" stroke="#5597FF" stroke-width="0.5" stroke-linecap="round"/>
<path d="M1062.17 217.892L1064.74 220.463L1064.28 220.929L1062.16 218.811L1062.14 218.826L1061.93 219.812L1061.5 219.385L1061.73 218.335L1062.17 217.892ZM1066.37 218.904C1066.25 219.026 1066.11 219.125 1065.95 219.2C1065.79 219.275 1065.61 219.311 1065.42 219.31C1065.23 219.307 1065.03 219.254 1064.82 219.15C1064.6 219.045 1064.38 218.875 1064.14 218.638C1063.92 218.418 1063.75 218.198 1063.62 217.979C1063.5 217.759 1063.42 217.546 1063.39 217.34C1063.36 217.132 1063.37 216.935 1063.43 216.748C1063.5 216.561 1063.6 216.39 1063.76 216.236C1063.92 216.074 1064.09 215.963 1064.28 215.902C1064.47 215.84 1064.66 215.826 1064.85 215.859C1065.03 215.892 1065.21 215.968 1065.36 216.088L1064.9 216.546C1064.78 216.471 1064.65 216.44 1064.52 216.454C1064.39 216.467 1064.27 216.529 1064.16 216.639C1063.98 216.817 1063.92 217.032 1063.98 217.283C1064.04 217.533 1064.2 217.794 1064.47 218.065L1064.49 218.048C1064.46 217.933 1064.45 217.817 1064.46 217.699C1064.47 217.581 1064.51 217.466 1064.56 217.356C1064.61 217.244 1064.69 217.142 1064.78 217.05C1064.93 216.899 1065.1 216.8 1065.29 216.752C1065.49 216.703 1065.68 216.707 1065.88 216.763C1066.07 216.819 1066.25 216.928 1066.41 217.091C1066.58 217.259 1066.7 217.45 1066.75 217.662C1066.81 217.874 1066.81 218.088 1066.74 218.304C1066.68 218.52 1066.56 218.72 1066.37 218.904ZM1065.99 218.53C1066.08 218.439 1066.14 218.335 1066.17 218.218C1066.2 218.102 1066.2 217.985 1066.16 217.868C1066.13 217.751 1066.07 217.646 1065.97 217.553C1065.88 217.46 1065.78 217.397 1065.66 217.363C1065.55 217.329 1065.43 217.326 1065.32 217.353C1065.2 217.381 1065.1 217.44 1065.01 217.532C1064.94 217.599 1064.89 217.676 1064.86 217.76C1064.82 217.845 1064.81 217.932 1064.81 218.021C1064.81 218.11 1064.83 218.197 1064.87 218.282C1064.9 218.366 1064.95 218.442 1065.02 218.511C1065.11 218.6 1065.21 218.661 1065.33 218.696C1065.45 218.73 1065.56 218.734 1065.68 218.707C1065.8 218.68 1065.9 218.621 1065.99 218.53ZM1068.69 216.616C1068.48 216.823 1068.25 216.948 1068 216.992C1067.75 217.034 1067.48 216.995 1067.2 216.876C1066.92 216.756 1066.65 216.555 1066.36 216.275C1066.09 215.994 1065.89 215.715 1065.77 215.44C1065.65 215.163 1065.61 214.899 1065.66 214.648C1065.7 214.396 1065.83 214.167 1066.03 213.961C1066.24 213.755 1066.47 213.63 1066.72 213.586C1066.97 213.541 1067.24 213.578 1067.51 213.697C1067.79 213.815 1068.07 214.014 1068.35 214.294C1068.63 214.575 1068.83 214.855 1068.95 215.134C1069.07 215.411 1069.11 215.676 1069.06 215.928C1069.02 216.18 1068.89 216.41 1068.69 216.616ZM1068.29 216.223C1068.46 216.063 1068.5 215.857 1068.44 215.606C1068.37 215.353 1068.19 215.072 1067.88 214.763C1067.67 214.559 1067.48 214.409 1067.3 214.313C1067.12 214.216 1066.95 214.172 1066.8 214.179C1066.65 214.186 1066.53 214.243 1066.42 214.349C1066.26 214.509 1066.21 214.715 1066.28 214.967C1066.34 215.218 1066.53 215.497 1066.84 215.804C1067.04 216.01 1067.23 216.162 1067.41 216.26C1067.6 216.357 1067.76 216.402 1067.91 216.395C1068.06 216.388 1068.19 216.331 1068.29 216.223Z" fill="white"/>
<path d="M1062.05 225.988L1063.46 227.402" stroke="#5597FF" stroke-width="0.5" stroke-linecap="round"/>
<path d="M1062.75 226.695L1175.89 113.558" stroke="#5597FF" stroke-width="0.5" stroke-dasharray="1 1.5"/>
<path d="M1175.18 112.851L1176.6 114.265" stroke="#5597FF" stroke-width="0.5" stroke-linecap="round"/>
<path d="M1330.55 486.473C1330.37 486.654 1330.17 486.784 1329.97 486.862C1329.77 486.94 1329.57 486.965 1329.38 486.935C1329.19 486.906 1329.02 486.821 1328.87 486.682L1329.34 486.21C1329.42 486.275 1329.5 486.313 1329.59 486.323C1329.69 486.332 1329.78 486.316 1329.88 486.275C1329.98 486.234 1330.07 486.17 1330.16 486.084C1330.25 485.992 1330.31 485.894 1330.35 485.791C1330.39 485.688 1330.4 485.587 1330.38 485.489C1330.37 485.391 1330.32 485.305 1330.24 485.23C1330.17 485.152 1330.08 485.103 1329.98 485.085C1329.88 485.066 1329.77 485.079 1329.66 485.124C1329.55 485.167 1329.44 485.243 1329.33 485.352L1329.1 485.579L1328.74 485.22L1328.97 484.993C1329.06 484.903 1329.12 484.81 1329.16 484.712C1329.2 484.613 1329.21 484.516 1329.19 484.422C1329.17 484.326 1329.12 484.242 1329.05 484.168C1328.98 484.094 1328.9 484.048 1328.81 484.027C1328.72 484.006 1328.63 484.01 1328.54 484.04C1328.45 484.069 1328.37 484.124 1328.29 484.205C1328.21 484.283 1328.15 484.37 1328.11 484.466C1328.07 484.561 1328.06 484.656 1328.07 484.749C1328.08 484.842 1328.12 484.926 1328.19 485.001L1327.75 485.449C1327.6 485.301 1327.52 485.134 1327.49 484.945C1327.46 484.755 1327.48 484.563 1327.56 484.368C1327.63 484.172 1327.75 483.991 1327.91 483.824C1328.08 483.652 1328.27 483.536 1328.46 483.474C1328.65 483.41 1328.83 483.398 1329.01 483.436C1329.19 483.475 1329.34 483.559 1329.47 483.69C1329.62 483.834 1329.7 483.998 1329.71 484.182C1329.72 484.365 1329.67 484.541 1329.56 484.71L1329.58 484.731C1329.79 484.575 1329.99 484.503 1330.2 484.516C1330.4 484.527 1330.59 484.613 1330.75 484.775C1330.89 484.918 1330.98 485.088 1331.01 485.284C1331.04 485.478 1331.02 485.679 1330.94 485.887C1330.86 486.094 1330.73 486.289 1330.55 486.473ZM1332.89 484.156C1332.69 484.363 1332.46 484.488 1332.2 484.532C1331.95 484.574 1331.68 484.535 1331.41 484.416C1331.13 484.296 1330.85 484.095 1330.57 483.815C1330.29 483.534 1330.09 483.255 1329.97 482.98C1329.85 482.703 1329.82 482.439 1329.86 482.188C1329.91 481.936 1330.03 481.707 1330.24 481.501C1330.44 481.295 1330.67 481.17 1330.92 481.126C1331.18 481.081 1331.44 481.119 1331.72 481.237C1331.99 481.355 1332.27 481.554 1332.55 481.834C1332.83 482.115 1333.03 482.395 1333.15 482.674C1333.27 482.951 1333.31 483.216 1333.27 483.468C1333.22 483.72 1333.1 483.95 1332.89 484.156ZM1332.5 483.764C1332.66 483.603 1332.71 483.397 1332.64 483.146C1332.58 482.893 1332.39 482.612 1332.08 482.303C1331.88 482.099 1331.68 481.949 1331.5 481.853C1331.32 481.756 1331.16 481.712 1331.01 481.72C1330.86 481.726 1330.73 481.783 1330.62 481.889C1330.46 482.049 1330.42 482.255 1330.48 482.507C1330.55 482.758 1330.73 483.037 1331.04 483.344C1331.24 483.55 1331.44 483.702 1331.62 483.8C1331.8 483.897 1331.97 483.942 1332.12 483.936C1332.26 483.928 1332.39 483.871 1332.5 483.764ZM1333.73 482.269L1333.36 481.899L1332.72 479.084L1333.03 478.775L1333.56 479.302L1333.37 479.491L1333.8 481.389L1333.82 481.409L1335.34 479.886L1335.73 480.269L1333.73 482.269ZM1335.43 481.52L1334.84 480.929L1334.68 480.759L1332.86 478.943L1333.3 478.504L1335.88 481.075L1335.43 481.52Z" fill="white"/>
<path d="M1327.92 491.86L1329.33 493.274" stroke="#5597FF" stroke-width="0.5" stroke-linecap="round"/>
<path d="M1328.63 492.567L1543.59 277.606" stroke="#5597FF" stroke-width="0.5" stroke-dasharray="1 1.5"/>
<path d="M1542.88 276.899L1544.29 278.314" stroke="#5597FF" stroke-width="0.5" stroke-linecap="round"/>
<path d="M1296.1 6.07764L1294.68 7.49185" stroke="#5597FF" stroke-width="0.5" stroke-linecap="round"/>
<path d="M1295.39 6.78467L1544.29 255.686" stroke="#5597FF" stroke-width="0.5" stroke-dasharray="1 1.5"/>
<path d="M1543.59 256.393L1545 254.979" stroke="#5597FF" stroke-width="0.5" stroke-linecap="round"/>
<path d="M1322.91 27.4213C1322.73 27.6021 1322.54 27.7318 1322.33 27.8105C1322.13 27.8883 1321.94 27.9126 1321.74 27.8833C1321.55 27.854 1321.38 27.7695 1321.23 27.6297L1321.7 27.1576C1321.78 27.2229 1321.86 27.2606 1321.96 27.2706C1322.05 27.2798 1322.14 27.2639 1322.24 27.2229C1322.34 27.1819 1322.43 27.1183 1322.52 27.0321C1322.61 26.94 1322.68 26.8425 1322.71 26.7395C1322.75 26.6357 1322.76 26.5349 1322.75 26.437C1322.73 26.339 1322.68 26.2528 1322.61 26.1783C1322.53 26.0996 1322.44 26.0511 1322.34 26.0327C1322.24 26.0143 1322.13 26.0272 1322.02 26.0716C1321.91 26.1151 1321.8 26.1913 1321.69 26.3001L1321.47 26.5274L1321.11 26.1683L1321.33 25.941C1321.42 25.8515 1321.49 25.7577 1321.52 25.6598C1321.56 25.561 1321.57 25.4644 1321.55 25.3698C1321.53 25.2744 1321.49 25.1898 1321.41 25.1162C1321.34 25.0425 1321.26 24.9956 1321.17 24.9755C1321.08 24.9538 1321 24.958 1320.91 24.9881C1320.82 25.0174 1320.73 25.0722 1320.65 25.1526C1320.57 25.2312 1320.51 25.3183 1320.47 25.4137C1320.44 25.5091 1320.42 25.6037 1320.43 25.6975C1320.45 25.7904 1320.49 25.8741 1320.56 25.9486L1320.11 26.3968C1319.97 26.2495 1319.88 26.0816 1319.85 25.8933C1319.82 25.7033 1319.84 25.5108 1319.92 25.3158C1319.99 25.1199 1320.11 24.9387 1320.28 24.7721C1320.45 24.6006 1320.63 24.4838 1320.82 24.4219C1321.01 24.3582 1321.19 24.3457 1321.37 24.3842C1321.55 24.4227 1321.7 24.5072 1321.83 24.6378C1321.98 24.7818 1322.06 24.9458 1322.07 25.13C1322.08 25.3133 1322.03 25.4895 1321.93 25.6585L1321.95 25.6786C1322.15 25.5229 1322.36 25.4514 1322.56 25.4639C1322.77 25.4748 1322.95 25.561 1323.11 25.7226C1323.25 25.8665 1323.34 26.0364 1323.37 26.2323C1323.4 26.4265 1323.38 26.6274 1323.3 26.835C1323.22 27.0417 1323.09 27.2371 1322.91 27.4213ZM1325.18 25.1472C1325.02 25.3146 1324.83 25.4331 1324.64 25.5025C1324.44 25.5712 1324.25 25.5892 1324.06 25.5565C1323.88 25.523 1323.71 25.4377 1323.56 25.3004L1324.01 24.8484C1324.13 24.9455 1324.26 24.9861 1324.41 24.9702C1324.56 24.9535 1324.69 24.8869 1324.81 24.7706C1324.9 24.6793 1324.96 24.5772 1324.99 24.4642C1325.02 24.3512 1325.01 24.237 1324.98 24.1215C1324.95 24.006 1324.88 23.9009 1324.79 23.8063C1324.69 23.7084 1324.58 23.6427 1324.47 23.6092C1324.35 23.5757 1324.23 23.5741 1324.12 23.6042C1324 23.6335 1323.9 23.6954 1323.8 23.79C1323.72 23.8662 1323.66 23.9562 1323.62 24.06C1323.57 24.1637 1323.55 24.2613 1323.56 24.3525L1323.07 24.704L1321.87 23.2439L1323.37 21.7523L1323.75 22.1415L1322.65 23.2476L1323.26 24.0035L1323.27 23.9884C1323.26 23.8846 1323.28 23.7708 1323.33 23.6469C1323.38 23.5222 1323.46 23.4079 1323.56 23.3041C1323.72 23.1484 1323.9 23.0463 1324.09 22.9978C1324.29 22.9484 1324.48 22.9526 1324.68 23.0103C1324.88 23.0681 1325.06 23.1794 1325.23 23.3443C1325.4 23.5142 1325.51 23.7051 1325.56 23.9168C1325.62 24.1269 1325.61 24.3395 1325.55 24.5546C1325.49 24.7681 1325.37 24.9656 1325.18 25.1472ZM1326.49 23.7687L1326.16 23.4322L1326.17 21.6644C1326.17 21.4928 1326.17 21.3451 1326.16 21.2212C1326.15 21.0974 1326.12 20.9898 1326.09 20.8986C1326.06 20.8073 1326 20.7261 1325.93 20.655C1325.85 20.5738 1325.76 20.5227 1325.67 20.5018C1325.57 20.4801 1325.48 20.4855 1325.38 20.5181C1325.28 20.5508 1325.2 20.6081 1325.11 20.6901C1325.03 20.7747 1324.97 20.8663 1324.94 20.9651C1324.91 21.063 1324.91 21.1614 1324.94 21.2602C1324.97 21.3581 1325.03 21.451 1325.12 21.5389L1324.67 21.9821C1324.51 21.8189 1324.41 21.6397 1324.36 21.4447C1324.32 21.2497 1324.32 21.0538 1324.39 20.8571C1324.45 20.6596 1324.57 20.4759 1324.74 20.306C1324.91 20.1335 1325.1 20.0143 1325.29 19.9481C1325.49 19.882 1325.68 19.869 1325.86 19.9092C1326.05 19.9486 1326.21 20.0402 1326.35 20.1842C1326.45 20.2804 1326.53 20.3934 1326.58 20.5232C1326.64 20.6529 1326.68 20.8207 1326.7 21.0266C1326.72 21.2317 1326.73 21.4979 1326.72 21.8251L1326.73 22.7191L1326.75 22.7366L1327.87 21.6167L1328.25 22.0059L1326.49 23.7687Z" fill="white"/>
<path opacity="0.1" d="M1125.69 289.628C1094.44 258.386 1094.44 207.733 1125.69 176.491V176.491L1318.02 368.824C1349.26 400.066 1349.26 450.719 1318.02 481.961V481.961L1125.69 289.628Z" fill="white"/>
<path opacity="0.1" d="M1204.88 210.432C1173.64 179.19 1173.64 128.537 1204.88 97.2947V97.2947L1397.22 289.628C1428.46 320.87 1428.46 371.523 1397.22 402.765V402.765L1204.88 210.432Z" fill="white"/>
<path opacity="0.1" d="M1284.08 131.236C1252.84 99.9936 1252.84 49.3404 1284.08 18.0985V18.0985L1476.41 210.431C1507.65 241.673 1507.65 292.327 1476.41 323.569V323.569L1284.08 131.236Z" fill="white"/>
</g>
</g>
<rect width="586.667" height="500" transform="translate(1013.33 500)" fill="#2E3853"/>
<path d="M1251.61 554.406V541.283H1253.59V552.701H1259.54V554.406H1251.61ZM1265.79 554.604C1264.86 554.604 1264.06 554.393 1263.37 553.97C1262.68 553.547 1262.15 552.955 1261.77 552.195C1261.39 551.435 1261.2 550.546 1261.2 549.529C1261.2 548.508 1261.39 547.616 1261.77 546.851C1262.15 546.086 1262.68 545.492 1263.37 545.07C1264.06 544.647 1264.86 544.435 1265.79 544.435C1266.71 544.435 1267.51 544.647 1268.2 545.07C1268.89 545.492 1269.42 546.086 1269.8 546.851C1270.18 547.616 1270.37 548.508 1270.37 549.529C1270.37 550.546 1270.18 551.435 1269.8 552.195C1269.42 552.955 1268.89 553.547 1268.2 553.97C1267.51 554.393 1266.71 554.604 1265.79 554.604ZM1265.79 552.996C1266.39 552.996 1266.89 552.838 1267.28 552.522C1267.67 552.206 1267.96 551.785 1268.15 551.26C1268.34 550.734 1268.44 550.155 1268.44 549.523C1268.44 548.895 1268.34 548.318 1268.15 547.793C1267.96 547.263 1267.67 546.838 1267.28 546.518C1266.89 546.197 1266.39 546.037 1265.79 546.037C1265.19 546.037 1264.69 546.197 1264.29 546.518C1263.9 546.838 1263.61 547.263 1263.42 547.793C1263.23 548.318 1263.13 548.895 1263.13 549.523C1263.13 550.155 1263.23 550.734 1263.42 551.26C1263.61 551.785 1263.9 552.206 1264.29 552.522C1264.69 552.838 1265.19 552.996 1265.79 552.996ZM1276.64 558.302C1275.86 558.302 1275.18 558.199 1274.62 557.994C1274.06 557.789 1273.6 557.518 1273.25 557.18C1272.9 556.843 1272.63 556.473 1272.46 556.072L1274.1 555.393C1274.22 555.581 1274.37 555.779 1274.56 555.988C1274.76 556.202 1275.02 556.384 1275.36 556.533C1275.7 556.683 1276.13 556.757 1276.66 556.757C1277.38 556.757 1277.98 556.58 1278.46 556.226C1278.93 555.875 1279.17 555.316 1279.17 554.547V552.612H1279.05C1278.93 552.821 1278.77 553.054 1278.55 553.31C1278.34 553.566 1278.04 553.788 1277.66 553.976C1277.29 554.164 1276.8 554.258 1276.2 554.258C1275.42 554.258 1274.72 554.077 1274.1 553.714C1273.48 553.346 1272.98 552.806 1272.62 552.093C1272.26 551.375 1272.08 550.493 1272.08 549.446C1272.08 548.399 1272.26 547.502 1272.62 546.755C1272.97 546.007 1273.47 545.435 1274.09 545.038C1274.71 544.636 1275.42 544.435 1276.21 544.435C1276.82 544.435 1277.31 544.538 1277.69 544.743C1278.07 544.944 1278.36 545.178 1278.57 545.448C1278.78 545.717 1278.95 545.954 1279.06 546.159H1279.2V544.563H1281.08V554.624C1281.08 555.469 1280.88 556.164 1280.49 556.706C1280.1 557.249 1279.57 557.65 1278.89 557.911C1278.23 558.171 1277.48 558.302 1276.64 558.302ZM1276.62 552.669C1277.17 552.669 1277.64 552.541 1278.02 552.285C1278.4 552.024 1278.69 551.653 1278.89 551.17C1279.09 550.683 1279.19 550.1 1279.19 549.42C1279.19 548.758 1279.09 548.175 1278.89 547.671C1278.7 547.167 1278.41 546.774 1278.03 546.492C1277.65 546.206 1277.18 546.063 1276.62 546.063C1276.04 546.063 1275.56 546.212 1275.18 546.511C1274.79 546.806 1274.5 547.208 1274.31 547.716C1274.11 548.224 1274.02 548.793 1274.02 549.42C1274.02 550.066 1274.12 550.632 1274.31 551.119C1274.51 551.606 1274.8 551.986 1275.18 552.259C1275.57 552.533 1276.05 552.669 1276.62 552.669ZM1287.8 554.604C1286.87 554.604 1286.07 554.393 1285.38 553.97C1284.69 553.547 1284.16 552.955 1283.78 552.195C1283.4 551.435 1283.21 550.546 1283.21 549.529C1283.21 548.508 1283.4 547.616 1283.78 546.851C1284.16 546.086 1284.69 545.492 1285.38 545.07C1286.07 544.647 1286.87 544.435 1287.8 544.435C1288.72 544.435 1289.52 544.647 1290.21 545.07C1290.9 545.492 1291.43 546.086 1291.81 546.851C1292.19 547.616 1292.38 548.508 1292.38 549.529C1292.38 550.546 1292.19 551.435 1291.81 552.195C1291.43 552.955 1290.9 553.547 1290.21 553.97C1289.52 554.393 1288.72 554.604 1287.8 554.604ZM1287.8 552.996C1288.4 552.996 1288.9 552.838 1289.29 552.522C1289.68 552.206 1289.97 551.785 1290.16 551.26C1290.35 550.734 1290.45 550.155 1290.45 549.523C1290.45 548.895 1290.35 548.318 1290.16 547.793C1289.97 547.263 1289.68 546.838 1289.29 546.518C1288.9 546.197 1288.4 546.037 1287.8 546.037C1287.2 546.037 1286.7 546.197 1286.3 546.518C1285.91 546.838 1285.62 547.263 1285.42 547.793C1285.24 548.318 1285.14 548.895 1285.14 549.523C1285.14 550.155 1285.24 550.734 1285.42 551.26C1285.62 551.785 1285.91 552.206 1286.3 552.522C1286.7 552.838 1287.2 552.996 1287.8 552.996ZM1294.52 554.406V544.563H1296.36V546.165H1296.48C1296.69 545.623 1297.02 545.2 1297.49 544.897C1297.95 544.589 1298.51 544.435 1299.16 544.435C1299.82 544.435 1300.37 544.589 1300.81 544.897C1301.26 545.204 1301.59 545.627 1301.81 546.165H1301.91C1302.15 545.64 1302.52 545.221 1303.03 544.909C1303.54 544.593 1304.16 544.435 1304.86 544.435C1305.76 544.435 1306.49 544.715 1307.05 545.275C1307.62 545.834 1307.9 546.678 1307.9 547.806V554.406H1305.99V547.985C1305.99 547.319 1305.8 546.836 1305.44 546.537C1305.08 546.238 1304.64 546.088 1304.14 546.088C1303.52 546.088 1303.03 546.281 1302.69 546.665C1302.34 547.045 1302.17 547.534 1302.17 548.132V554.406H1300.26V547.863C1300.26 547.329 1300.09 546.9 1299.76 546.575C1299.42 546.251 1298.99 546.088 1298.46 546.088C1298.09 546.088 1297.76 546.185 1297.45 546.377C1297.15 546.565 1296.9 546.827 1296.71 547.165C1296.53 547.502 1296.44 547.893 1296.44 548.338V554.406H1294.52ZM1313.33 554.624C1312.71 554.624 1312.15 554.508 1311.64 554.278C1311.14 554.043 1310.74 553.703 1310.44 553.259C1310.15 552.814 1310.01 552.27 1310.01 551.625C1310.01 551.069 1310.11 550.612 1310.33 550.253C1310.54 549.895 1310.83 549.611 1311.19 549.401C1311.56 549.192 1311.96 549.034 1312.41 548.927C1312.86 548.82 1313.32 548.739 1313.78 548.684C1314.37 548.615 1314.85 548.56 1315.22 548.517C1315.59 548.47 1315.85 548.395 1316.02 548.293C1316.19 548.19 1316.27 548.024 1316.27 547.793V547.748C1316.27 547.188 1316.11 546.755 1315.79 546.447C1315.48 546.14 1315.02 545.986 1314.4 545.986C1313.75 545.986 1313.24 546.129 1312.87 546.415C1312.51 546.697 1312.25 547.011 1312.11 547.357L1310.31 546.947C1310.52 546.349 1310.83 545.866 1311.24 545.499C1311.66 545.127 1312.14 544.858 1312.67 544.691C1313.21 544.521 1313.78 544.435 1314.37 544.435C1314.76 544.435 1315.18 544.482 1315.62 544.576C1316.07 544.666 1316.48 544.832 1316.86 545.076C1317.25 545.319 1317.57 545.668 1317.82 546.12C1318.07 546.569 1318.19 547.152 1318.19 547.87V554.406H1316.32V553.06H1316.24C1316.12 553.308 1315.93 553.551 1315.69 553.791C1315.44 554.03 1315.12 554.228 1314.73 554.387C1314.34 554.545 1313.88 554.624 1313.33 554.624ZM1313.75 553.086C1314.28 553.086 1314.73 552.981 1315.11 552.772C1315.49 552.562 1315.78 552.289 1315.97 551.952C1316.17 551.61 1316.27 551.245 1316.27 550.856V549.587C1316.21 549.655 1316.07 549.72 1315.88 549.779C1315.69 549.835 1315.47 549.884 1315.22 549.927C1314.97 549.965 1314.73 550.001 1314.49 550.036C1314.26 550.066 1314.06 550.091 1313.9 550.113C1313.53 550.16 1313.19 550.239 1312.89 550.35C1312.58 550.461 1312.34 550.621 1312.15 550.83C1311.98 551.035 1311.89 551.309 1311.89 551.65C1311.89 552.125 1312.06 552.483 1312.41 552.727C1312.76 552.966 1313.21 553.086 1313.75 553.086ZM1320.74 554.406V544.563H1322.59V546.127H1322.7C1322.88 545.597 1323.19 545.181 1323.65 544.877C1324.1 544.57 1324.62 544.416 1325.2 544.416C1325.32 544.416 1325.46 544.42 1325.62 544.429C1325.79 544.437 1325.92 544.448 1326.01 544.461V546.293C1325.93 546.272 1325.8 546.249 1325.6 546.223C1325.4 546.193 1325.21 546.178 1325.01 546.178C1324.56 546.178 1324.15 546.274 1323.8 546.466C1323.45 546.654 1323.17 546.917 1322.97 547.255C1322.76 547.588 1322.66 547.968 1322.66 548.395V554.406H1320.74ZM1329.43 551.067L1329.42 548.728H1329.75L1333.67 544.563H1335.97L1331.49 549.305H1331.19L1329.43 551.067ZM1327.67 554.406V541.283H1329.58V554.406H1327.67ZM1333.88 554.406L1330.36 549.728L1331.68 548.389L1336.24 554.406H1333.88ZM1347.44 541.283V554.406H1345.45V543.269H1345.38L1342.24 545.319V543.423L1345.51 541.283H1347.44ZM1359.61 541.283H1361.6V549.914C1361.6 550.832 1361.38 551.646 1360.95 552.355C1360.52 553.06 1359.91 553.615 1359.13 554.021C1358.35 554.423 1357.43 554.624 1356.38 554.624C1355.33 554.624 1354.42 554.423 1353.64 554.021C1352.86 553.615 1352.25 553.06 1351.82 552.355C1351.39 551.646 1351.17 550.832 1351.17 549.914V541.283H1353.15V549.754C1353.15 550.347 1353.28 550.875 1353.54 551.336C1353.81 551.798 1354.18 552.161 1354.66 552.426C1355.15 552.686 1355.72 552.817 1356.38 552.817C1357.05 552.817 1357.62 552.686 1358.1 552.426C1358.59 552.161 1358.96 551.798 1359.22 551.336C1359.48 550.875 1359.61 550.347 1359.61 549.754V541.283Z" fill="#ECE8DE"/>
<path d="M1234.49 595.495L1234.49 577.45L1378.84 577.45V595.495" stroke="#F3CB28" stroke-width="1.69167" stroke-linecap="round" stroke-linejoin="round"/>
<g clip-path="url(#clip4_4018_52859)">
<path d="M1090.13 823.172H1523.13" stroke="#C6B69A" stroke-width="1.69167" stroke-linecap="round" stroke-dasharray="9.02 9.02"/>
<path d="M1090.13 802.873H1523.13" stroke="#C6B69A" stroke-width="1.69167" stroke-linecap="round" stroke-dasharray="9.02 9.02"/>
</g>
<rect x="1090.13" y="766.917" width="433.067" height="108.267" stroke="#C6B69A" stroke-width="1.69167" stroke-dasharray="9.02 9.02"/>
<rect x="1234.49" y="622.562" width="144.356" height="144.356" stroke="#C6B69A" stroke-width="1.69167" stroke-dasharray="9.02 9.02"/>
<path d="M1335.71 741.783L1277.63 684.968C1267.83 675.355 1267.83 659.564 1277.63 649.952L1335.53 706.767C1345.51 716.551 1345.51 732.171 1335.71 741.783ZM1308.94 733.029L1250.86 676.214C1241.06 685.826 1241.06 701.617 1250.86 711.23L1308.77 768.045C1318.74 758.433 1318.74 742.813 1308.94 733.029ZM1304.39 658.706L1362.48 715.521C1372.27 705.909 1372.27 690.117 1362.48 680.505L1304.39 623.689C1294.6 633.302 1294.6 649.093 1304.39 658.706Z" fill="white"/>
<path d="M1128.97 820.588C1135.93 820.588 1141.7 823.212 1146.45 828.462L1156.81 819.275C1150.36 811.565 1140.34 807.464 1128.29 807.464C1106.73 807.464 1090.6 821.9 1090.6 842.077C1090.6 862.254 1106.56 876.689 1128.12 876.689C1140.17 876.689 1150.19 872.424 1156.64 864.715L1146.28 855.528C1141.7 860.778 1135.76 863.402 1128.8 863.402C1115.9 863.402 1106.56 854.544 1106.56 841.913C1106.73 829.446 1115.9 820.588 1128.97 820.588ZM1187.37 823.376C1178.88 823.376 1170.22 825.509 1164.45 829.61L1170.05 840.108C1173.95 837.156 1179.73 835.351 1185.33 835.351C1193.65 835.351 1197.55 839.124 1197.55 845.522H1185.33C1169.03 845.522 1162.41 851.755 1162.41 860.942C1162.41 869.8 1169.88 876.525 1182.27 876.525C1190.08 876.525 1195.68 874.065 1198.57 869.308V875.705H1213V846.178C1213 830.594 1203.66 823.376 1187.37 823.376ZM1197.55 859.301C1195.85 864.058 1191.27 866.355 1186.18 866.355C1180.75 866.355 1177.52 863.894 1177.52 860.121C1177.52 856.677 1179.73 854.052 1187.03 854.052H1197.55V859.301ZM1237.96 839.452C1237.96 836.828 1240.84 834.695 1247.8 834.695C1252.72 834.695 1257.82 835.679 1263.08 838.468L1268.17 827.805C1263.08 825.017 1254.93 823.376 1247.63 823.376C1232.01 823.376 1223.02 830.266 1223.02 839.944C1223.02 860.449 1255.1 851.919 1255.1 860.285C1255.1 863.074 1252.39 865.043 1245.26 865.043C1238.8 865.043 1231.5 863.074 1226.75 860.121L1221.66 870.784C1226.58 873.901 1235.75 876.361 1244.75 876.361C1260.7 876.361 1269.87 869.636 1269.87 859.957C1270.04 839.616 1237.96 848.146 1237.96 839.452ZM1331.66 849.951C1331.66 833.383 1319.61 823.212 1303.99 823.212C1287.7 823.212 1275.64 834.367 1275.64 849.787C1275.64 865.043 1287.7 876.197 1306.03 876.197C1315.71 876.197 1323.01 873.409 1327.93 867.831L1319.78 859.301C1316.05 862.582 1312.14 864.222 1306.37 864.222C1298.22 864.222 1292.62 860.285 1291.09 853.888H1331.33C1331.49 852.74 1331.66 851.099 1331.66 849.951ZM1290.92 845.358C1291.94 838.796 1297.03 834.695 1304.16 834.695C1311.12 834.695 1316.22 838.96 1317.23 845.358H1290.92ZM1380.73 804.512V829.446C1376.82 825.181 1371.39 823.212 1364.77 823.212C1349.66 823.212 1338.12 833.547 1338.12 849.787C1338.12 866.027 1349.66 876.197 1364.77 876.197C1371.9 876.197 1377.5 874.065 1381.41 869.472V875.377H1396.17V804.512H1380.73ZM1367.48 864.058C1359.85 864.058 1353.9 858.645 1353.9 849.787C1353.9 840.929 1359.85 835.515 1367.48 835.515C1375.12 835.515 1381.07 840.929 1381.07 849.787C1381.07 858.645 1375.12 864.058 1367.48 864.058ZM1434.2 823.376C1417.23 823.376 1404.83 834.367 1404.83 849.951C1404.83 865.371 1417.23 876.361 1434.2 876.361C1451.18 876.361 1463.4 865.371 1463.4 849.951C1463.4 834.367 1451.01 823.376 1434.2 823.376ZM1434.2 864.058C1426.56 864.058 1420.62 858.645 1420.62 849.787C1420.62 840.929 1426.56 835.515 1434.2 835.515C1441.84 835.515 1447.78 840.929 1447.78 849.787C1447.78 858.645 1441.84 864.058 1434.2 864.058ZM1499.56 864.058C1491.75 864.058 1485.64 858.809 1485.64 849.787C1485.64 840.765 1491.75 835.515 1499.56 835.515C1504.48 835.515 1508.73 837.648 1511.61 842.569L1523.67 836.336C1519.76 827.969 1510.93 823.212 1499.73 823.212C1482.41 823.212 1470.02 834.203 1470.02 849.787C1470.02 865.207 1482.41 876.197 1499.73 876.197C1510.93 876.197 1519.76 871.44 1523.67 863.238L1511.61 857.005C1508.73 861.926 1504.48 864.058 1499.56 864.058Z" fill="white"/>
<path d="M1090.13 904.506L1090.13 922.55L1523.2 922.55V904.506" stroke="#F3CB28" stroke-width="1.69167" stroke-linecap="round" stroke-linejoin="round"/>
<path d="M1222.18 958.595L1218.54 945.471H1220.62L1223.18 955.634H1223.3L1225.96 945.471H1228.02L1230.68 955.641H1230.8L1233.35 945.471H1235.44L1231.8 958.595H1229.8L1227.04 948.765H1226.94L1224.18 958.595H1222.18ZM1240.27 958.793C1239.35 958.793 1238.54 958.582 1237.86 958.159C1237.17 957.736 1236.63 957.144 1236.25 956.384C1235.87 955.624 1235.68 954.735 1235.68 953.718C1235.68 952.697 1235.87 951.805 1236.25 951.04C1236.63 950.275 1237.17 949.681 1237.86 949.259C1238.54 948.836 1239.35 948.624 1240.27 948.624C1241.19 948.624 1242 948.836 1242.69 949.259C1243.37 949.681 1243.91 950.275 1244.29 951.04C1244.67 951.805 1244.86 952.697 1244.86 953.718C1244.86 954.735 1244.67 955.624 1244.29 956.384C1243.91 957.144 1243.37 957.736 1242.69 958.159C1242 958.582 1241.19 958.793 1240.27 958.793ZM1240.28 957.185C1240.88 957.185 1241.37 957.027 1241.76 956.711C1242.16 956.395 1242.45 955.974 1242.64 955.448C1242.83 954.923 1242.92 954.344 1242.92 953.712C1242.92 953.084 1242.83 952.507 1242.64 951.982C1242.45 951.452 1242.16 951.027 1241.76 950.707C1241.37 950.386 1240.88 950.226 1240.28 950.226C1239.67 950.226 1239.18 950.386 1238.78 950.707C1238.38 951.027 1238.09 951.452 1237.9 951.982C1237.71 952.507 1237.62 953.084 1237.62 953.712C1237.62 954.344 1237.71 954.923 1237.9 955.448C1238.09 955.974 1238.38 956.395 1238.78 956.711C1239.18 957.027 1239.67 957.185 1240.28 957.185ZM1247 958.595V948.752H1248.85V950.316H1248.95C1249.13 949.786 1249.45 949.37 1249.9 949.066C1250.36 948.759 1250.87 948.605 1251.45 948.605C1251.57 948.605 1251.71 948.609 1251.87 948.618C1252.04 948.626 1252.17 948.637 1252.26 948.65V950.482C1252.19 950.461 1252.05 950.438 1251.85 950.412C1251.66 950.382 1251.46 950.367 1251.27 950.367C1250.81 950.367 1250.41 950.463 1250.05 950.655C1249.7 950.843 1249.43 951.106 1249.22 951.444C1249.02 951.777 1248.91 952.157 1248.91 952.584V958.595H1247ZM1257.25 958.787C1256.46 958.787 1255.75 958.584 1255.13 958.178C1254.51 957.768 1254.02 957.185 1253.67 956.429C1253.32 955.668 1253.14 954.756 1253.14 953.693C1253.14 952.629 1253.32 951.719 1253.67 950.963C1254.03 950.207 1254.52 949.628 1255.15 949.226C1255.77 948.825 1256.48 948.624 1257.27 948.624C1257.88 948.624 1258.37 948.727 1258.74 948.932C1259.12 949.132 1259.41 949.367 1259.61 949.637C1259.82 949.906 1259.98 950.143 1260.1 950.348H1260.22V945.471H1262.13V958.595H1260.26V957.063H1260.1C1259.98 957.273 1259.82 957.512 1259.6 957.781C1259.39 958.05 1259.09 958.285 1258.72 958.486C1258.34 958.687 1257.85 958.787 1257.25 958.787ZM1257.68 957.153C1258.23 957.153 1258.69 957.008 1259.07 956.717C1259.46 956.422 1259.75 956.015 1259.95 955.493C1260.15 954.972 1260.25 954.366 1260.25 953.674C1260.25 952.99 1260.15 952.392 1259.95 951.879C1259.76 951.367 1259.47 950.967 1259.09 950.681C1258.71 950.395 1258.24 950.252 1257.68 950.252C1257.1 950.252 1256.62 950.401 1256.24 950.7C1255.85 950.999 1255.56 951.407 1255.36 951.924C1255.17 952.441 1255.08 953.024 1255.08 953.674C1255.08 954.331 1255.17 954.923 1255.37 955.448C1255.57 955.974 1255.86 956.39 1256.24 956.698C1256.63 957.001 1257.11 957.153 1257.68 957.153ZM1264.87 958.595V948.752H1266.7V950.354H1266.83C1267.03 949.812 1267.37 949.389 1267.83 949.086C1268.3 948.778 1268.86 948.624 1269.5 948.624C1270.16 948.624 1270.71 948.778 1271.16 949.086C1271.61 949.393 1271.94 949.816 1272.15 950.354H1272.25C1272.49 949.829 1272.86 949.41 1273.38 949.098C1273.89 948.782 1274.5 948.624 1275.21 948.624C1276.1 948.624 1276.83 948.904 1277.39 949.464C1277.96 950.023 1278.25 950.867 1278.25 951.995V958.595H1276.33V952.174C1276.33 951.508 1276.15 951.025 1275.78 950.726C1275.42 950.427 1274.99 950.277 1274.48 950.277C1273.86 950.277 1273.38 950.47 1273.03 950.854C1272.68 951.234 1272.51 951.723 1272.51 952.321V958.595H1270.6V952.052C1270.6 951.518 1270.43 951.089 1270.1 950.764C1269.77 950.44 1269.33 950.277 1268.8 950.277C1268.44 950.277 1268.1 950.373 1267.79 950.566C1267.49 950.754 1267.25 951.016 1267.06 951.354C1266.87 951.691 1266.78 952.082 1266.78 952.527V958.595H1264.87ZM1283.68 958.813C1283.05 958.813 1282.49 958.697 1281.99 958.467C1281.48 958.232 1281.08 957.892 1280.79 957.448C1280.5 957.003 1280.35 956.459 1280.35 955.814C1280.35 955.258 1280.46 954.801 1280.67 954.442C1280.89 954.084 1281.17 953.8 1281.54 953.59C1281.9 953.381 1282.31 953.223 1282.75 953.116C1283.2 953.009 1283.66 952.928 1284.13 952.873C1284.72 952.804 1285.19 952.749 1285.56 952.706C1285.93 952.659 1286.2 952.584 1286.36 952.482C1286.53 952.379 1286.61 952.213 1286.61 951.982V951.937C1286.61 951.377 1286.45 950.944 1286.14 950.636C1285.83 950.329 1285.36 950.175 1284.74 950.175C1284.1 950.175 1283.59 950.318 1283.22 950.604C1282.85 950.886 1282.59 951.2 1282.45 951.546L1280.65 951.136C1280.87 950.538 1281.18 950.055 1281.59 949.688C1282 949.316 1282.48 949.047 1283.02 948.88C1283.56 948.71 1284.12 948.624 1284.72 948.624C1285.11 948.624 1285.53 948.671 1285.97 948.765C1286.41 948.855 1286.82 949.021 1287.21 949.265C1287.6 949.508 1287.92 949.857 1288.16 950.309C1288.41 950.758 1288.53 951.341 1288.53 952.059V958.595H1286.66V957.249H1286.59C1286.46 957.497 1286.28 957.74 1286.03 957.98C1285.78 958.219 1285.46 958.417 1285.07 958.576C1284.69 958.734 1284.22 958.813 1283.68 958.813ZM1284.09 957.275C1284.62 957.275 1285.08 957.17 1285.45 956.961C1285.83 956.751 1286.12 956.478 1286.32 956.141C1286.52 955.799 1286.62 955.434 1286.62 955.045V953.776C1286.55 953.844 1286.42 953.908 1286.22 953.968C1286.03 954.024 1285.81 954.073 1285.56 954.116C1285.31 954.154 1285.07 954.19 1284.84 954.225C1284.6 954.254 1284.41 954.28 1284.25 954.301C1283.88 954.348 1283.54 954.428 1283.23 954.539C1282.93 954.65 1282.68 954.81 1282.5 955.019C1282.32 955.224 1282.23 955.498 1282.23 955.839C1282.23 956.314 1282.4 956.672 1282.75 956.916C1283.1 957.155 1283.55 957.275 1284.09 957.275ZM1291.09 958.595V948.752H1292.94V950.316H1293.04C1293.22 949.786 1293.54 949.37 1293.99 949.066C1294.45 948.759 1294.96 948.605 1295.54 948.605C1295.66 948.605 1295.8 948.609 1295.96 948.618C1296.13 948.626 1296.26 948.637 1296.35 948.65V950.482C1296.28 950.461 1296.14 950.438 1295.94 950.412C1295.75 950.382 1295.55 950.367 1295.35 950.367C1294.9 950.367 1294.5 950.463 1294.14 950.655C1293.79 950.843 1293.52 951.106 1293.31 951.444C1293.1 951.777 1293 952.157 1293 952.584V958.595H1291.09ZM1299.77 955.256L1299.76 952.917H1300.09L1304.02 948.752H1306.31L1301.84 953.494H1301.54L1299.77 955.256ZM1298.01 958.595V945.471H1299.93V958.595H1298.01ZM1304.23 958.595L1300.7 953.917L1302.02 952.578L1306.58 958.595H1304.23ZM1313.6 960.209V943.863H1317.81V945.382H1315.43V958.691H1317.81V960.209H1313.6ZM1321.18 945.471L1324.32 950.604H1324.42L1327.56 945.471H1329.86L1325.77 952.033L1329.88 958.595H1327.58L1324.42 953.533H1324.32L1321.17 958.595H1318.86L1323.05 952.033L1318.89 945.471H1321.18ZM1336.6 953.481C1336.59 952.742 1336.7 952.136 1336.93 951.661C1337.17 951.187 1337.49 950.837 1337.89 950.611C1338.29 950.38 1338.74 950.265 1339.22 950.265C1339.65 950.265 1340.04 950.356 1340.4 950.54C1340.77 950.72 1341.18 951.014 1341.65 951.424C1341.94 951.676 1342.18 951.86 1342.36 951.975C1342.54 952.087 1342.75 952.142 1342.97 952.142C1343.32 952.142 1343.6 952.014 1343.8 951.758C1344.01 951.497 1344.11 951.113 1344.1 950.604H1345.72C1345.74 951.347 1345.63 951.956 1345.39 952.43C1345.15 952.905 1344.83 953.255 1344.43 953.481C1344.03 953.708 1343.59 953.821 1343.11 953.821C1342.68 953.821 1342.28 953.729 1341.92 953.545C1341.55 953.357 1341.14 953.063 1340.68 952.661C1340.38 952.4 1340.14 952.217 1339.96 952.11C1339.78 951.999 1339.58 951.943 1339.35 951.943C1339.02 951.943 1338.75 952.063 1338.53 952.302C1338.32 952.537 1338.22 952.93 1338.23 953.481H1336.6ZM1347.91 958.595V957.159L1352.35 952.559C1352.82 952.059 1353.21 951.621 1353.52 951.245C1353.83 950.865 1354.07 950.504 1354.22 950.162C1354.37 949.82 1354.45 949.457 1354.45 949.073C1354.45 948.637 1354.35 948.261 1354.14 947.945C1353.94 947.625 1353.66 947.379 1353.3 947.208C1352.95 947.033 1352.55 946.945 1352.11 946.945C1351.64 946.945 1351.23 947.041 1350.87 947.234C1350.52 947.426 1350.26 947.697 1350.07 948.047C1349.88 948.398 1349.79 948.808 1349.79 949.278H1347.9C1347.9 948.479 1348.08 947.78 1348.45 947.182C1348.81 946.584 1349.32 946.121 1349.96 945.792C1350.6 945.459 1351.33 945.292 1352.14 945.292C1352.97 945.292 1353.69 945.457 1354.32 945.785C1354.95 946.11 1355.45 946.554 1355.8 947.118C1356.16 947.678 1356.33 948.31 1356.33 949.015C1356.33 949.502 1356.24 949.978 1356.06 950.444C1355.88 950.91 1355.57 951.429 1355.12 952.001C1354.67 952.569 1354.04 953.259 1353.25 954.071L1350.64 956.801V956.897H1356.55V958.595H1347.91ZM1360.26 958.716C1359.91 958.716 1359.61 958.593 1359.36 958.345C1359.11 958.093 1358.98 957.789 1358.98 957.435C1358.98 957.085 1359.11 956.786 1359.36 956.538C1359.61 956.286 1359.91 956.16 1360.26 956.16C1360.61 956.16 1360.91 956.286 1361.17 956.538C1361.42 956.786 1361.54 957.085 1361.54 957.435C1361.54 957.67 1361.48 957.886 1361.36 958.082C1361.25 958.274 1361.1 958.428 1360.9 958.543C1360.71 958.659 1360.5 958.716 1360.26 958.716ZM1363.81 956.032V954.43L1369.48 945.471H1370.74V947.83H1369.94L1365.89 954.25V954.353H1373.66V956.032H1363.81ZM1370.03 958.595V955.545L1370.04 954.814V945.471H1371.92V958.595H1370.03ZM1384.51 945.471H1386.5V954.103C1386.5 955.021 1386.28 955.835 1385.85 956.544C1385.42 957.249 1384.81 957.804 1384.03 958.21C1383.25 958.612 1382.33 958.813 1381.28 958.813C1380.23 958.813 1379.32 958.612 1378.54 958.21C1377.76 957.804 1377.15 957.249 1376.72 956.544C1376.29 955.835 1376.07 955.021 1376.07 954.103V945.471H1378.05V953.943C1378.05 954.536 1378.18 955.064 1378.44 955.525C1378.71 955.987 1379.08 956.35 1379.56 956.615C1380.05 956.875 1380.62 957.006 1381.28 957.006C1381.95 957.006 1382.52 956.875 1383 956.615C1383.49 956.35 1383.86 955.987 1384.12 955.525C1384.38 955.064 1384.51 954.536 1384.51 953.943V945.471ZM1392.69 943.863V960.209H1388.48V958.691H1390.86V945.382H1388.48V943.863H1392.69Z" fill="#ECE8DE"/>
</g>
</g>
<defs>
<clipPath id="clip0_4018_52859">
<rect width="1600" height="1000" fill="white"/>
</clipPath>
<clipPath id="clip1_4018_52859">
<rect width="586.667" height="1000" fill="white" transform="translate(1013.33)"/>
</clipPath>
<clipPath id="clip2_4018_52859">
<rect width="586.667" height="500" fill="white" transform="translate(1013.33)"/>
</clipPath>
<clipPath id="clip3_4018_52859">
<rect width="512" height="512" fill="white" transform="translate(1050.67 -6)"/>
</clipPath>
<clipPath id="clip4_4018_52859">
<rect x="1090.13" y="766.917" width="433.067" height="108.267" fill="white"/>
</clipPath>
</defs>
</svg>
