<svg width="1600" height="1000" viewBox="0 0 1600 1000" fill="none" xmlns="http://www.w3.org/2000/svg">
<g clip-path="url(#clip0_4017_35115)">
<g clip-path="url(#clip1_4017_35115)">
<rect width="1699.66" height="1133.11" transform="translate(-99.6606)" fill="#234E8F"/>
<g clip-path="url(#clip2_4017_35115)">
<path opacity="0.4" d="M-249.266 1233.14V252.736C-249.266 243.549 -236.181 239.556 -231.116 247.221C-154.697 362.876 168.078 773.926 832.04 656.033C1544.5 529.53 1840.65 1138.43 1881.06 1230.47C1883.57 1236.18 1879.19 1241.99 1872.95 1241.99H-240.414C-245.303 1241.99 -249.266 1238.03 -249.266 1233.14Z" fill="url(#paint0_radial_4017_35115)"/>
<path d="M654.205 197.113C654.205 176.253 671.115 159.343 691.975 159.343H1738.46C1759.32 159.343 1776.23 176.253 1776.23 197.113V806.294H654.205V197.113Z" fill="#202A42"/>
<g clip-path="url(#clip3_4017_35115)">
<g clip-path="url(#clip4_4017_35115)">
<rect width="1065.37" height="1059.09" transform="translate(682.533 187.671)" fill="white"/>
<g clip-path="url(#clip5_4017_35115)">
<rect width="1065.37" height="542.947" transform="translate(682.533 268.326)" fill="#FAFAFA"/>
<g clip-path="url(#clip6_4017_35115)">
<path d="M825.663 427.569L809.927 463.923H801.618L785.933 427.569H795.022L806.084 453.536L817.302 427.569H825.663ZM828.044 435.982H836.146V463.923H828.044V435.982ZM832.095 432.087C830.606 432.087 829.394 431.654 828.46 430.789C827.525 429.923 827.057 428.85 827.057 427.569C827.057 426.288 827.525 425.215 828.46 424.349C829.394 423.484 830.606 423.051 832.095 423.051C833.584 423.051 834.796 423.466 835.73 424.297C836.665 425.128 837.133 426.167 837.133 427.413C837.133 428.763 836.665 429.889 835.73 430.789C834.796 431.654 833.584 432.087 832.095 432.087ZM850.813 439.67C851.782 438.319 853.081 437.298 854.708 436.606C856.37 435.913 858.274 435.567 860.421 435.567V443.045C859.521 442.976 858.915 442.941 858.603 442.941C856.283 442.941 854.466 443.599 853.15 444.915C851.834 446.196 851.176 448.135 851.176 450.732V463.923H843.075V435.982H850.813V439.67ZM883.633 462.573C882.836 463.161 881.85 463.611 880.672 463.923C879.53 464.2 878.318 464.338 877.037 464.338C873.713 464.338 871.134 463.49 869.299 461.794C867.498 460.097 866.598 457.604 866.598 454.315V442.838H862.288V436.606H866.598V429.802H874.7V436.606H881.659V442.838H874.7V454.211C874.7 455.388 874.994 456.306 875.583 456.964C876.206 457.587 877.072 457.898 878.18 457.898C879.461 457.898 880.551 457.552 881.451 456.86L883.633 462.573ZM915.739 435.982V463.923H908.052V460.599C906.979 461.811 905.698 462.746 904.209 463.404C902.72 464.027 901.11 464.338 899.379 464.338C895.709 464.338 892.801 463.282 890.654 461.17C888.508 459.058 887.435 455.925 887.435 451.77V435.982H895.536V450.576C895.536 455.077 897.423 457.327 901.197 457.327C903.136 457.327 904.694 456.704 905.871 455.458C907.048 454.177 907.637 452.29 907.637 449.797V435.982H915.739ZM933.924 435.567C938.252 435.567 941.575 436.606 943.895 438.683C946.215 440.726 947.375 443.824 947.375 447.979V463.923H939.792V460.443C938.269 463.04 935.43 464.338 931.275 464.338C929.129 464.338 927.259 463.975 925.666 463.248C924.108 462.521 922.914 461.517 922.083 460.236C921.252 458.954 920.836 457.5 920.836 455.873C920.836 453.276 921.806 451.234 923.745 449.745C925.718 448.256 928.748 447.512 932.833 447.512H939.273C939.273 445.746 938.736 444.396 937.663 443.461C936.59 442.491 934.98 442.007 932.833 442.007C931.344 442.007 929.873 442.249 928.419 442.734C926.999 443.184 925.787 443.807 924.783 444.603L921.875 438.943C923.398 437.869 925.216 437.038 927.328 436.45C929.475 435.861 931.673 435.567 933.924 435.567ZM933.301 458.885C934.686 458.885 935.915 458.574 936.988 457.95C938.061 457.293 938.823 456.34 939.273 455.094V452.238H933.716C930.392 452.238 928.73 453.328 928.73 455.51C928.73 456.548 929.129 457.379 929.925 458.002C930.756 458.591 931.881 458.885 933.301 458.885ZM954.117 425.388H962.219V463.923H954.117V425.388ZM1017.18 427.569V463.923H1008.77V449.018H992.25V463.923H983.837V427.569H992.25V441.903H1008.77V427.569H1017.18ZM1051.99 450.056C1051.99 450.16 1051.94 450.887 1051.83 452.238H1030.69C1031.08 453.969 1031.98 455.336 1033.39 456.34C1034.81 457.345 1036.58 457.847 1038.69 457.847C1040.15 457.847 1041.43 457.639 1042.54 457.223C1043.68 456.773 1044.73 456.081 1045.7 455.146L1050.01 459.82C1047.38 462.832 1043.54 464.338 1038.48 464.338C1035.33 464.338 1032.55 463.732 1030.12 462.521C1027.7 461.274 1025.83 459.56 1024.51 457.379C1023.2 455.198 1022.54 452.722 1022.54 449.953C1022.54 447.217 1023.18 444.759 1024.46 442.578C1025.78 440.362 1027.56 438.648 1029.81 437.436C1032.1 436.19 1034.64 435.567 1037.45 435.567C1040.18 435.567 1042.66 436.155 1044.87 437.333C1047.09 438.51 1048.82 440.206 1050.07 442.422C1051.35 444.603 1051.99 447.148 1051.99 450.056ZM1037.5 441.695C1035.66 441.695 1034.12 442.214 1032.88 443.253C1031.63 444.292 1030.87 445.711 1030.59 447.512H1044.35C1044.08 445.746 1043.31 444.344 1042.07 443.305C1040.82 442.232 1039.3 441.695 1037.5 441.695ZM1067.3 435.567C1071.63 435.567 1074.95 436.606 1077.27 438.683C1079.59 440.726 1080.75 443.824 1080.75 447.979V463.923H1073.17V460.443C1071.65 463.04 1068.81 464.338 1064.65 464.338C1062.5 464.338 1060.64 463.975 1059.04 463.248C1057.48 462.521 1056.29 461.517 1055.46 460.236C1054.63 458.954 1054.21 457.5 1054.21 455.873C1054.21 453.276 1055.18 451.234 1057.12 449.745C1059.09 448.256 1062.12 447.512 1066.21 447.512H1072.65C1072.65 445.746 1072.11 444.396 1071.04 443.461C1069.97 442.491 1068.36 442.007 1066.21 442.007C1064.72 442.007 1063.25 442.249 1061.79 442.734C1060.38 443.184 1059.16 443.807 1058.16 444.603L1055.25 438.943C1056.77 437.869 1058.59 437.038 1060.7 436.45C1062.85 435.861 1065.05 435.567 1067.3 435.567ZM1066.68 458.885C1068.06 458.885 1069.29 458.574 1070.36 457.95C1071.44 457.293 1072.2 456.34 1072.65 455.094V452.238H1067.09C1063.77 452.238 1062.11 453.328 1062.11 455.51C1062.11 456.548 1062.5 457.379 1063.3 458.002C1064.13 458.591 1065.26 458.885 1066.68 458.885ZM1095.23 439.67C1096.2 438.319 1097.5 437.298 1099.13 436.606C1100.79 435.913 1102.69 435.567 1104.84 435.567V443.045C1103.94 442.976 1103.33 442.941 1103.02 442.941C1100.7 442.941 1098.88 443.599 1097.57 444.915C1096.25 446.196 1095.59 448.135 1095.59 450.732V463.923H1087.49V435.982H1095.23V439.67ZM1109.07 435.982H1117.17V463.923H1109.07V435.982ZM1113.12 432.087C1111.63 432.087 1110.42 431.654 1109.48 430.789C1108.55 429.923 1108.08 428.85 1108.08 427.569C1108.08 426.288 1108.55 425.215 1109.48 424.349C1110.42 423.484 1111.63 423.051 1113.12 423.051C1114.61 423.051 1115.82 423.466 1116.75 424.297C1117.69 425.128 1118.15 426.167 1118.15 427.413C1118.15 428.763 1117.69 429.889 1116.75 430.789C1115.82 431.654 1114.61 432.087 1113.12 432.087ZM1141.08 435.567C1144.54 435.567 1147.33 436.606 1149.44 438.683C1151.59 440.76 1152.66 443.842 1152.66 447.927V463.923H1144.56V449.174C1144.56 446.958 1144.07 445.313 1143.1 444.24C1142.14 443.132 1140.73 442.578 1138.9 442.578C1136.86 442.578 1135.23 443.218 1134.02 444.5C1132.8 445.746 1132.2 447.616 1132.2 450.108V463.923H1124.1V435.982H1131.84V439.254C1132.91 438.077 1134.24 437.177 1135.83 436.554C1137.43 435.896 1139.18 435.567 1141.08 435.567ZM1188.54 435.982V459.249C1188.54 464.373 1187.21 468.181 1184.54 470.674C1181.88 473.167 1177.98 474.414 1172.86 474.414C1170.16 474.414 1167.6 474.085 1165.17 473.427C1162.75 472.769 1160.74 471.817 1159.15 470.57L1162.37 464.754C1163.54 465.723 1165.03 466.485 1166.83 467.039C1168.63 467.627 1170.43 467.922 1172.23 467.922C1175.04 467.922 1177.1 467.281 1178.41 466C1179.77 464.754 1180.44 462.85 1180.44 460.287V459.093C1178.33 461.413 1175.39 462.573 1171.61 462.573C1169.05 462.573 1166.7 462.019 1164.55 460.911C1162.44 459.768 1160.76 458.175 1159.51 456.133C1158.26 454.09 1157.64 451.736 1157.64 449.07C1157.64 446.404 1158.26 444.049 1159.51 442.007C1160.76 439.964 1162.44 438.389 1164.55 437.281C1166.7 436.138 1169.05 435.567 1171.61 435.567C1175.66 435.567 1178.74 436.9 1180.86 439.566V435.982H1188.54ZM1173.22 455.925C1175.37 455.925 1177.12 455.302 1178.47 454.055C1179.85 452.774 1180.54 451.112 1180.54 449.07C1180.54 447.027 1179.85 445.382 1178.47 444.136C1177.12 442.855 1175.37 442.214 1173.22 442.214C1171.07 442.214 1169.31 442.855 1167.92 444.136C1166.54 445.382 1165.85 447.027 1165.85 449.07C1165.85 451.112 1166.54 452.774 1167.92 454.055C1169.31 455.302 1171.07 455.925 1173.22 455.925Z" fill="#2E3853"/>
<path d="M791.24 503.337V509.097H799.526V511.127H791.24V517.808H788.88V501.283H800.541V503.337H791.24ZM808.5 517.949C807.257 517.949 806.14 517.674 805.148 517.123C804.157 516.572 803.378 515.817 802.811 514.857C802.26 513.881 801.985 512.779 801.985 511.552C801.985 510.324 802.26 509.231 802.811 508.271C803.378 507.295 804.157 506.539 805.148 506.004C806.14 505.454 807.257 505.178 808.5 505.178C809.744 505.178 810.853 505.454 811.829 506.004C812.82 506.539 813.591 507.295 814.142 508.271C814.709 509.231 814.992 510.324 814.992 511.552C814.992 512.779 814.709 513.881 814.142 514.857C813.591 515.817 812.82 516.572 811.829 517.123C810.853 517.674 809.744 517.949 808.5 517.949ZM808.5 515.966C809.303 515.966 810.019 515.785 810.649 515.423C811.294 515.046 811.797 514.526 812.159 513.865C812.521 513.189 812.702 512.417 812.702 511.552C812.702 510.686 812.521 509.923 812.159 509.262C811.797 508.585 811.294 508.066 810.649 507.704C810.019 507.342 809.303 507.161 808.5 507.161C807.698 507.161 806.974 507.342 806.329 507.704C805.699 508.066 805.195 508.585 804.818 509.262C804.456 509.923 804.275 510.686 804.275 511.552C804.275 512.417 804.456 513.189 804.818 513.865C805.195 514.526 805.699 515.046 806.329 515.423C806.974 515.785 807.698 515.966 808.5 515.966ZM820.298 507.397C820.691 506.673 821.274 506.122 822.045 505.745C822.816 505.367 823.752 505.178 824.854 505.178V507.374C824.728 507.358 824.555 507.35 824.335 507.35C823.107 507.35 822.139 507.72 821.431 508.459C820.739 509.183 820.392 510.222 820.392 511.576V517.808H818.126V505.296H820.298V507.397ZM839.5 505.296V516.108C839.5 518.295 838.957 519.909 837.871 520.947C836.786 522.002 835.165 522.529 833.009 522.529C831.828 522.529 830.703 522.364 829.633 522.033C828.563 521.718 827.697 521.262 827.036 520.664L828.122 518.917C828.704 519.421 829.42 519.814 830.27 520.097C831.136 520.396 832.025 520.546 832.938 520.546C834.401 520.546 835.479 520.2 836.172 519.507C836.88 518.815 837.234 517.76 837.234 516.344V515.353C836.699 515.998 836.038 516.486 835.251 516.816C834.48 517.131 833.638 517.288 832.725 517.288C831.529 517.288 830.443 517.036 829.468 516.533C828.508 516.014 827.752 515.297 827.201 514.385C826.651 513.456 826.375 512.402 826.375 511.221C826.375 510.041 826.651 508.995 827.201 508.082C827.752 507.153 828.508 506.437 829.468 505.934C830.443 505.43 831.529 505.178 832.725 505.178C833.67 505.178 834.543 505.351 835.346 505.698C836.164 506.044 836.833 506.555 837.352 507.232V505.296H839.5ZM832.985 515.305C833.803 515.305 834.535 515.132 835.18 514.786C835.841 514.44 836.353 513.96 836.715 513.346C837.092 512.717 837.281 512.008 837.281 511.221C837.281 510.01 836.88 509.034 836.077 508.294C835.275 507.539 834.244 507.161 832.985 507.161C831.71 507.161 830.672 507.539 829.869 508.294C829.066 509.034 828.665 510.01 828.665 511.221C828.665 512.008 828.846 512.717 829.208 513.346C829.586 513.96 830.097 514.44 830.742 514.786C831.403 515.132 832.151 515.305 832.985 515.305ZM855.138 511.623C855.138 511.796 855.122 512.024 855.091 512.307H844.94C845.082 513.409 845.562 514.298 846.38 514.975C847.214 515.636 848.245 515.966 849.472 515.966C850.967 515.966 852.171 515.463 853.084 514.456L854.335 515.919C853.769 516.58 853.061 517.084 852.211 517.43C851.377 517.776 850.44 517.949 849.402 517.949C848.08 517.949 846.907 517.682 845.884 517.147C844.861 516.596 844.067 515.833 843.5 514.857C842.949 513.881 842.674 512.779 842.674 511.552C842.674 510.34 842.941 509.246 843.476 508.271C844.027 507.295 844.775 506.539 845.719 506.004C846.679 505.454 847.757 505.178 848.953 505.178C850.149 505.178 851.211 505.454 852.14 506.004C853.084 506.539 853.816 507.295 854.335 508.271C854.87 509.246 855.138 510.364 855.138 511.623ZM848.953 507.09C847.867 507.09 846.954 507.421 846.215 508.082C845.491 508.743 845.066 509.608 844.94 510.678H852.966C852.84 509.624 852.407 508.766 851.668 508.105C850.944 507.429 850.039 507.09 848.953 507.09ZM865.319 517.076C864.989 517.359 864.58 517.579 864.092 517.737C863.604 517.878 863.1 517.949 862.581 517.949C861.322 517.949 860.346 517.611 859.654 516.934C858.961 516.257 858.615 515.29 858.615 514.031V507.161H856.491V505.296H858.615V502.558H860.881V505.296H864.47V507.161H860.881V513.936C860.881 514.613 861.047 515.132 861.377 515.494C861.723 515.856 862.211 516.037 862.841 516.037C863.533 516.037 864.123 515.84 864.611 515.447L865.319 517.076ZM885.706 511.623C885.706 511.796 885.691 512.024 885.659 512.307H875.508C875.65 513.409 876.13 514.298 876.948 514.975C877.782 515.636 878.813 515.966 880.041 515.966C881.536 515.966 882.74 515.463 883.653 514.456L884.904 515.919C884.337 516.58 883.629 517.084 882.779 517.43C881.945 517.776 881.009 517.949 879.97 517.949C878.648 517.949 877.476 517.682 876.453 517.147C875.43 516.596 874.635 515.833 874.068 514.857C873.518 513.881 873.242 512.779 873.242 511.552C873.242 510.34 873.51 509.246 874.045 508.271C874.596 507.295 875.343 506.539 876.287 506.004C877.247 505.454 878.325 505.178 879.521 505.178C880.718 505.178 881.78 505.454 882.708 506.004C883.653 506.539 884.384 507.295 884.904 508.271C885.439 509.246 885.706 510.364 885.706 511.623ZM879.521 507.09C878.436 507.09 877.523 507.421 876.783 508.082C876.059 508.743 875.634 509.608 875.508 510.678H883.535C883.409 509.624 882.976 508.766 882.236 508.105C881.512 507.429 880.607 507.09 879.521 507.09ZM899.694 505.296L894.217 517.808H891.904L886.427 505.296H888.788L893.084 515.329L897.475 505.296H899.694ZM912.771 511.623C912.771 511.796 912.755 512.024 912.724 512.307H902.573C902.714 513.409 903.194 514.298 904.013 514.975C904.847 515.636 905.878 515.966 907.105 515.966C908.6 515.966 909.804 515.463 910.717 514.456L911.968 515.919C911.402 516.58 910.693 517.084 909.844 517.43C909.009 517.776 908.073 517.949 907.034 517.949C905.712 517.949 904.54 517.682 903.517 517.147C902.494 516.596 901.699 515.833 901.133 514.857C900.582 513.881 900.307 512.779 900.307 511.552C900.307 510.34 900.574 509.246 901.109 508.271C901.66 507.295 902.408 506.539 903.352 506.004C904.312 505.454 905.39 505.178 906.586 505.178C907.782 505.178 908.844 505.454 909.773 506.004C910.717 506.539 911.449 507.295 911.968 508.271C912.503 509.246 912.771 510.364 912.771 511.623ZM906.586 507.09C905.5 507.09 904.587 507.421 903.848 508.082C903.124 508.743 902.699 509.608 902.573 510.678H910.599C910.473 509.624 910.04 508.766 909.301 508.105C908.577 507.429 907.672 507.09 906.586 507.09ZM918.089 507.397C918.483 506.673 919.065 506.122 919.836 505.745C920.607 505.367 921.544 505.178 922.645 505.178V507.374C922.519 507.358 922.346 507.35 922.126 507.35C920.899 507.35 919.931 507.72 919.222 508.459C918.53 509.183 918.184 510.222 918.184 511.576V517.808H915.918V505.296H918.089V507.397ZM937.017 505.296L930.95 519.059C930.415 520.334 929.786 521.231 929.062 521.75C928.354 522.269 927.496 522.529 926.489 522.529C925.875 522.529 925.277 522.427 924.695 522.222C924.128 522.033 923.656 521.75 923.278 521.372L924.246 519.673C924.891 520.286 925.639 520.593 926.489 520.593C927.039 520.593 927.496 520.444 927.858 520.145C928.236 519.861 928.574 519.366 928.873 518.657L929.274 517.784L923.75 505.296H926.111L930.478 515.305L934.798 505.296H937.017ZM946.513 517.076C946.182 517.359 945.773 517.579 945.285 517.737C944.797 517.878 944.294 517.949 943.774 517.949C942.515 517.949 941.539 517.611 940.847 516.934C940.155 516.257 939.808 515.29 939.808 514.031V507.161H937.684V505.296H939.808V502.558H942.075V505.296H945.663V507.161H942.075V513.936C942.075 514.613 942.24 515.132 942.57 515.494C942.917 515.856 943.404 516.037 944.034 516.037C944.726 516.037 945.317 515.84 945.804 515.447L946.513 517.076ZM955.933 505.178C957.523 505.178 958.782 505.642 959.71 506.571C960.654 507.484 961.126 508.829 961.126 510.608V517.808H958.86V510.867C958.86 509.656 958.569 508.743 957.987 508.129C957.404 507.515 956.57 507.208 955.484 507.208C954.257 507.208 953.289 507.57 952.581 508.294C951.873 509.002 951.519 510.025 951.519 511.363V517.808H949.252V500.292H951.519V507.067C951.991 506.469 952.605 506.004 953.36 505.674C954.131 505.343 954.989 505.178 955.933 505.178ZM965.32 505.296H967.587V517.808H965.32V505.296ZM966.454 502.888C966.013 502.888 965.643 502.747 965.344 502.463C965.061 502.18 964.919 501.834 964.919 501.425C964.919 501.016 965.061 500.669 965.344 500.386C965.643 500.087 966.013 499.938 966.454 499.938C966.894 499.938 967.256 500.079 967.539 500.362C967.838 500.63 967.988 500.968 967.988 501.378C967.988 501.802 967.838 502.164 967.539 502.463C967.256 502.747 966.894 502.888 966.454 502.888ZM978.594 505.178C980.184 505.178 981.443 505.642 982.371 506.571C983.316 507.484 983.788 508.829 983.788 510.608V517.808H981.521V510.867C981.521 509.656 981.23 508.743 980.648 508.129C980.066 507.515 979.232 507.208 978.146 507.208C976.918 507.208 975.95 507.57 975.242 508.294C974.534 509.002 974.18 510.025 974.18 511.363V517.808H971.914V505.296H974.085V507.185C974.542 506.539 975.156 506.044 975.927 505.698C976.714 505.351 977.603 505.178 978.594 505.178ZM1000.02 505.296V516.108C1000.02 518.295 999.476 519.909 998.39 520.947C997.305 522.002 995.684 522.529 993.527 522.529C992.347 522.529 991.222 522.364 990.152 522.033C989.082 521.718 988.216 521.262 987.555 520.664L988.641 518.917C989.223 519.421 989.939 519.814 990.789 520.097C991.655 520.396 992.544 520.546 993.457 520.546C994.92 520.546 995.998 520.2 996.691 519.507C997.399 518.815 997.753 517.76 997.753 516.344V515.353C997.218 515.998 996.557 516.486 995.77 516.816C994.999 517.131 994.157 517.288 993.244 517.288C992.048 517.288 990.962 517.036 989.987 516.533C989.027 516.014 988.271 515.297 987.72 514.385C987.169 513.456 986.894 512.402 986.894 511.221C986.894 510.041 987.169 508.995 987.72 508.082C988.271 507.153 989.027 506.437 989.987 505.934C990.962 505.43 992.048 505.178 993.244 505.178C994.188 505.178 995.062 505.351 995.865 505.698C996.683 506.044 997.352 506.555 997.871 507.232V505.296H1000.02ZM993.504 515.305C994.322 515.305 995.054 515.132 995.699 514.786C996.36 514.44 996.872 513.96 997.234 513.346C997.611 512.717 997.8 512.008 997.8 511.221C997.8 510.01 997.399 509.034 996.596 508.294C995.794 507.539 994.763 507.161 993.504 507.161C992.229 507.161 991.19 507.539 990.388 508.294C989.585 509.034 989.184 510.01 989.184 511.221C989.184 512.008 989.365 512.717 989.727 513.346C990.105 513.96 990.616 514.44 991.261 514.786C991.922 515.132 992.67 515.305 993.504 515.305ZM1021.76 505.296L1015.69 519.059C1015.16 520.334 1014.53 521.231 1013.81 521.75C1013.1 522.269 1012.24 522.529 1011.23 522.529C1010.62 522.529 1010.02 522.427 1009.44 522.222C1008.87 522.033 1008.4 521.75 1008.02 521.372L1008.99 519.673C1009.63 520.286 1010.38 520.593 1011.23 520.593C1011.78 520.593 1012.24 520.444 1012.6 520.145C1012.98 519.861 1013.32 519.366 1013.62 518.657L1014.02 517.784L1008.49 505.296H1010.85L1015.22 515.305L1019.54 505.296H1021.76ZM1028.89 517.949C1027.64 517.949 1026.53 517.674 1025.54 517.123C1024.54 516.572 1023.77 515.817 1023.2 514.857C1022.65 513.881 1022.37 512.779 1022.37 511.552C1022.37 510.324 1022.65 509.231 1023.2 508.271C1023.77 507.295 1024.54 506.539 1025.54 506.004C1026.53 505.454 1027.64 505.178 1028.89 505.178C1030.13 505.178 1031.24 505.454 1032.22 506.004C1033.21 506.539 1033.98 507.295 1034.53 508.271C1035.1 509.231 1035.38 510.324 1035.38 511.552C1035.38 512.779 1035.1 513.881 1034.53 514.857C1033.98 515.817 1033.21 516.572 1032.22 517.123C1031.24 517.674 1030.13 517.949 1028.89 517.949ZM1028.89 515.966C1029.69 515.966 1030.41 515.785 1031.04 515.423C1031.68 515.046 1032.19 514.526 1032.55 513.865C1032.91 513.189 1033.09 512.417 1033.09 511.552C1033.09 510.686 1032.91 509.923 1032.55 509.262C1032.19 508.585 1031.68 508.066 1031.04 507.704C1030.41 507.342 1029.69 507.161 1028.89 507.161C1028.09 507.161 1027.36 507.342 1026.72 507.704C1026.09 508.066 1025.58 508.585 1025.21 509.262C1024.84 509.923 1024.66 510.686 1024.66 511.552C1024.66 512.417 1024.84 513.189 1025.21 513.865C1025.58 514.526 1026.09 515.046 1026.72 515.423C1027.36 515.785 1028.09 515.966 1028.89 515.966ZM1050.18 505.296V517.808H1048.03V515.919C1047.57 516.564 1046.97 517.068 1046.21 517.43C1045.47 517.776 1044.66 517.949 1043.78 517.949C1042.11 517.949 1040.8 517.493 1039.84 516.58C1038.88 515.652 1038.4 514.29 1038.4 512.496V505.296H1040.66V512.237C1040.66 513.448 1040.95 514.369 1041.54 514.998C1042.12 515.612 1042.95 515.919 1044.04 515.919C1045.23 515.919 1046.18 515.557 1046.87 514.833C1047.56 514.109 1047.91 513.086 1047.91 511.764V505.296H1050.18ZM1065.69 511.977L1063.1 514.385V517.808H1060.83V500.292H1063.1V511.528L1069.92 505.296H1072.66L1067.39 510.466L1073.18 517.808H1070.39L1065.69 511.977ZM1081.9 505.178C1083.48 505.178 1084.74 505.642 1085.67 506.571C1086.62 507.484 1087.09 508.829 1087.09 510.608V517.808H1084.82V510.867C1084.82 509.656 1084.53 508.743 1083.95 508.129C1083.37 507.515 1082.53 507.208 1081.45 507.208C1080.22 507.208 1079.25 507.57 1078.54 508.294C1077.83 509.002 1077.48 510.025 1077.48 511.363V517.808H1075.21V505.296H1077.39V507.185C1077.84 506.539 1078.46 506.044 1079.23 505.698C1080.01 505.351 1080.9 505.178 1081.9 505.178ZM1096.71 517.949C1095.47 517.949 1094.35 517.674 1093.36 517.123C1092.37 516.572 1091.59 515.817 1091.02 514.857C1090.47 513.881 1090.2 512.779 1090.2 511.552C1090.2 510.324 1090.47 509.231 1091.02 508.271C1091.59 507.295 1092.37 506.539 1093.36 506.004C1094.35 505.454 1095.47 505.178 1096.71 505.178C1097.95 505.178 1099.06 505.454 1100.04 506.004C1101.03 506.539 1101.8 507.295 1102.35 508.271C1102.92 509.231 1103.2 510.324 1103.2 511.552C1103.2 512.779 1102.92 513.881 1102.35 514.857C1101.8 515.817 1101.03 516.572 1100.04 517.123C1099.06 517.674 1097.95 517.949 1096.71 517.949ZM1096.71 515.966C1097.51 515.966 1098.23 515.785 1098.86 515.423C1099.5 515.046 1100.01 514.526 1100.37 513.865C1100.73 513.189 1100.91 512.417 1100.91 511.552C1100.91 510.686 1100.73 509.923 1100.37 509.262C1100.01 508.585 1099.5 508.066 1098.86 507.704C1098.23 507.342 1097.51 507.161 1096.71 507.161C1095.91 507.161 1095.18 507.342 1094.54 507.704C1093.91 508.066 1093.41 508.585 1093.03 509.262C1092.67 509.923 1092.48 510.686 1092.48 511.552C1092.48 512.417 1092.67 513.189 1093.03 513.865C1093.41 514.526 1093.91 515.046 1094.54 515.423C1095.18 515.785 1095.91 515.966 1096.71 515.966ZM1124.92 505.296L1120.25 517.808H1118.08L1114.47 508.318L1110.81 517.808H1108.63L1103.98 505.296H1106.13L1109.77 515.258L1113.54 505.296H1115.46L1119.16 515.305L1122.89 505.296H1124.92ZM793.105 538.178C794.836 538.178 796.158 538.603 797.071 539.453C797.999 540.303 798.464 541.57 798.464 543.254V550.808H796.316V549.155C795.938 549.737 795.395 550.186 794.687 550.501C793.994 550.8 793.168 550.949 792.208 550.949C790.807 550.949 789.682 550.611 788.832 549.934C787.998 549.257 787.581 548.368 787.581 547.267C787.581 546.165 787.983 545.284 788.785 544.623C789.588 543.946 790.862 543.608 792.609 543.608H796.198V543.159C796.198 542.183 795.914 541.436 795.348 540.917C794.781 540.397 793.947 540.138 792.845 540.138C792.106 540.138 791.382 540.263 790.674 540.515C789.965 540.751 789.367 541.074 788.88 541.483L787.935 539.783C788.581 539.264 789.352 538.871 790.249 538.603C791.146 538.32 792.098 538.178 793.105 538.178ZM792.586 549.202C793.451 549.202 794.199 549.014 794.828 548.636C795.458 548.242 795.914 547.692 796.198 546.983V545.237H792.704C790.784 545.237 789.824 545.882 789.824 547.172C789.824 547.802 790.068 548.297 790.556 548.659C791.043 549.021 791.72 549.202 792.586 549.202ZM809.291 538.178C810.503 538.178 811.589 538.446 812.549 538.981C813.509 539.516 814.256 540.263 814.791 541.223C815.342 542.183 815.617 543.293 815.617 544.552C815.617 545.811 815.342 546.928 814.791 547.904C814.256 548.864 813.509 549.612 812.549 550.147C811.589 550.682 810.503 550.949 809.291 550.949C808.362 550.949 807.513 550.768 806.741 550.406C805.97 550.044 805.333 549.517 804.829 548.825V550.808H802.658V533.292H804.924V540.185C805.427 539.524 806.057 539.028 806.812 538.698C807.568 538.351 808.394 538.178 809.291 538.178ZM809.102 548.966C809.905 548.966 810.621 548.785 811.25 548.423C811.896 548.046 812.399 547.526 812.761 546.865C813.139 546.189 813.328 545.417 813.328 544.552C813.328 543.686 813.139 542.923 812.761 542.262C812.399 541.585 811.896 541.066 811.25 540.704C810.621 540.342 809.905 540.161 809.102 540.161C808.315 540.161 807.599 540.342 806.954 540.704C806.309 541.066 805.805 541.585 805.443 542.262C805.081 542.923 804.9 543.686 804.9 544.552C804.9 545.417 805.081 546.189 805.443 546.865C805.805 547.526 806.309 548.046 806.954 548.423C807.599 548.785 808.315 548.966 809.102 548.966ZM824.107 550.949C822.864 550.949 821.747 550.674 820.755 550.123C819.764 549.572 818.985 548.817 818.418 547.857C817.867 546.881 817.592 545.779 817.592 544.552C817.592 543.324 817.867 542.231 818.418 541.271C818.985 540.295 819.764 539.539 820.755 539.004C821.747 538.454 822.864 538.178 824.107 538.178C825.351 538.178 826.46 538.454 827.436 539.004C828.427 539.539 829.198 540.295 829.749 541.271C830.316 542.231 830.599 543.324 830.599 544.552C830.599 545.779 830.316 546.881 829.749 547.857C829.198 548.817 828.427 549.572 827.436 550.123C826.46 550.674 825.351 550.949 824.107 550.949ZM824.107 548.966C824.91 548.966 825.626 548.785 826.255 548.423C826.901 548.046 827.404 547.526 827.766 546.865C828.128 546.189 828.309 545.417 828.309 544.552C828.309 543.686 828.128 542.923 827.766 542.262C827.404 541.585 826.901 541.066 826.255 540.704C825.626 540.342 824.91 540.161 824.107 540.161C823.305 540.161 822.581 540.342 821.936 540.704C821.306 541.066 820.802 541.585 820.425 542.262C820.063 542.923 819.882 543.686 819.882 544.552C819.882 545.417 820.063 546.189 820.425 546.865C820.802 547.526 821.306 548.046 821.936 548.423C822.581 548.785 823.305 548.966 824.107 548.966ZM845.395 538.296V550.808H843.247V548.919C842.79 549.564 842.184 550.068 841.429 550.43C840.689 550.776 839.879 550.949 838.997 550.949C837.329 550.949 836.015 550.493 835.055 549.58C834.095 548.652 833.615 547.29 833.615 545.496V538.296H835.881V545.237C835.881 546.448 836.173 547.369 836.755 547.998C837.337 548.612 838.171 548.919 839.257 548.919C840.453 548.919 841.397 548.557 842.09 547.833C842.782 547.109 843.129 546.086 843.129 544.764V538.296H845.395ZM856.744 550.076C856.413 550.359 856.004 550.579 855.516 550.737C855.028 550.878 854.525 550.949 854.005 550.949C852.746 550.949 851.771 550.611 851.078 549.934C850.386 549.257 850.039 548.29 850.039 547.031V540.161H847.915V538.296H850.039V535.558H852.306V538.296H855.894V540.161H852.306V546.936C852.306 547.613 852.471 548.132 852.801 548.494C853.148 548.856 853.636 549.037 854.265 549.037C854.957 549.037 855.548 548.84 856.036 548.447L856.744 550.076ZM871.276 550.949C870.001 550.949 868.86 550.674 867.853 550.123C866.862 549.572 866.083 548.817 865.516 547.857C864.95 546.881 864.666 545.779 864.666 544.552C864.666 543.324 864.95 542.231 865.516 541.271C866.083 540.295 866.862 539.539 867.853 539.004C868.86 538.454 870.001 538.178 871.276 538.178C872.409 538.178 873.417 538.406 874.298 538.863C875.195 539.319 875.887 539.98 876.375 540.846L874.652 541.955C874.258 541.357 873.771 540.909 873.188 540.61C872.606 540.311 871.961 540.161 871.253 540.161C870.434 540.161 869.695 540.342 869.034 540.704C868.388 541.066 867.877 541.585 867.499 542.262C867.137 542.923 866.956 543.686 866.956 544.552C866.956 545.433 867.137 546.212 867.499 546.889C867.877 547.55 868.388 548.061 869.034 548.423C869.695 548.785 870.434 548.966 871.253 548.966C871.961 548.966 872.606 548.817 873.188 548.518C873.771 548.219 874.258 547.77 874.652 547.172L876.375 548.258C875.887 549.124 875.195 549.793 874.298 550.265C873.417 550.721 872.409 550.949 871.276 550.949ZM884.483 550.949C883.24 550.949 882.123 550.674 881.131 550.123C880.14 549.572 879.361 548.817 878.794 547.857C878.243 546.881 877.968 545.779 877.968 544.552C877.968 543.324 878.243 542.231 878.794 541.271C879.361 540.295 880.14 539.539 881.131 539.004C882.123 538.454 883.24 538.178 884.483 538.178C885.727 538.178 886.836 538.454 887.812 539.004C888.803 539.539 889.575 540.295 890.125 541.271C890.692 542.231 890.975 543.324 890.975 544.552C890.975 545.779 890.692 546.881 890.125 547.857C889.575 548.817 888.803 549.572 887.812 550.123C886.836 550.674 885.727 550.949 884.483 550.949ZM884.483 548.966C885.286 548.966 886.002 548.785 886.632 548.423C887.277 548.046 887.78 547.526 888.142 546.865C888.504 546.189 888.685 545.417 888.685 544.552C888.685 543.686 888.504 542.923 888.142 542.262C887.78 541.585 887.277 541.066 886.632 540.704C886.002 540.342 885.286 540.161 884.483 540.161C883.681 540.161 882.957 540.342 882.312 540.704C881.682 541.066 881.179 541.585 880.801 542.262C880.439 542.923 880.258 543.686 880.258 544.552C880.258 545.417 880.439 546.189 880.801 546.865C881.179 547.526 881.682 548.046 882.312 548.423C882.957 548.785 883.681 548.966 884.483 548.966ZM905.771 538.296V550.808H903.623V548.919C903.166 549.564 902.56 550.068 901.805 550.43C901.065 550.776 900.255 550.949 899.374 550.949C897.705 550.949 896.391 550.493 895.431 549.58C894.471 548.652 893.991 547.29 893.991 545.496V538.296H896.258V545.237C896.258 546.448 896.549 547.369 897.131 547.998C897.713 548.612 898.547 548.919 899.633 548.919C900.829 548.919 901.774 548.557 902.466 547.833C903.158 547.109 903.505 546.086 903.505 544.764V538.296H905.771ZM912.257 540.397C912.65 539.673 913.233 539.122 914.004 538.745C914.775 538.367 915.711 538.178 916.813 538.178V540.374C916.687 540.358 916.514 540.35 916.294 540.35C915.066 540.35 914.098 540.72 913.39 541.459C912.698 542.183 912.351 543.222 912.351 544.576V550.808H910.085V538.296H912.257V540.397ZM927.148 550.076C926.817 550.359 926.408 550.579 925.92 550.737C925.433 550.878 924.929 550.949 924.41 550.949C923.151 550.949 922.175 550.611 921.482 549.934C920.79 549.257 920.444 548.29 920.444 547.031V540.161H918.319V538.296H920.444V535.558H922.71V538.296H926.298V540.161H922.71V546.936C922.71 547.613 922.875 548.132 923.206 548.494C923.552 548.856 924.04 549.037 924.669 549.037C925.362 549.037 925.952 548.84 926.44 548.447L927.148 550.076ZM932.06 540.397C932.453 539.673 933.035 539.122 933.806 538.745C934.578 538.367 935.514 538.178 936.616 538.178V540.374C936.49 540.358 936.317 540.35 936.096 540.35C934.869 540.35 933.901 540.72 933.193 541.459C932.5 542.183 932.154 543.222 932.154 544.576V550.808H929.888V538.296H932.06V540.397ZM944.652 550.949C943.409 550.949 942.291 550.674 941.3 550.123C940.309 549.572 939.53 548.817 938.963 547.857C938.412 546.881 938.137 545.779 938.137 544.552C938.137 543.324 938.412 542.231 938.963 541.271C939.53 540.295 940.309 539.539 941.3 539.004C942.291 538.454 943.409 538.178 944.652 538.178C945.895 538.178 947.005 538.454 947.981 539.004C948.972 539.539 949.743 540.295 950.294 541.271C950.861 542.231 951.144 543.324 951.144 544.552C951.144 545.779 950.861 546.881 950.294 547.857C949.743 548.817 948.972 549.572 947.981 550.123C947.005 550.674 945.895 550.949 944.652 550.949ZM944.652 548.966C945.455 548.966 946.171 548.785 946.8 548.423C947.446 548.046 947.949 547.526 948.311 546.865C948.673 546.189 948.854 545.417 948.854 544.552C948.854 543.686 948.673 542.923 948.311 542.262C947.949 541.585 947.446 541.066 946.8 540.704C946.171 540.342 945.455 540.161 944.652 540.161C943.849 540.161 943.126 540.342 942.48 540.704C941.851 541.066 941.347 541.585 940.97 542.262C940.608 542.923 940.427 543.686 940.427 544.552C940.427 545.417 940.608 546.189 940.97 546.865C941.347 547.526 941.851 548.046 942.48 548.423C943.126 548.785 943.849 548.966 944.652 548.966ZM959.637 550.949C958.393 550.949 957.276 550.674 956.285 550.123C955.293 549.572 954.514 548.817 953.947 547.857C953.397 546.881 953.121 545.779 953.121 544.552C953.121 543.324 953.397 542.231 953.947 541.271C954.514 540.295 955.293 539.539 956.285 539.004C957.276 538.454 958.393 538.178 959.637 538.178C960.88 538.178 961.989 538.454 962.965 539.004C963.957 539.539 964.728 540.295 965.279 541.271C965.845 542.231 966.128 543.324 966.128 544.552C966.128 545.779 965.845 546.881 965.279 547.857C964.728 548.817 963.957 549.572 962.965 550.123C961.989 550.674 960.88 550.949 959.637 550.949ZM959.637 548.966C960.439 548.966 961.155 548.785 961.785 548.423C962.43 548.046 962.934 547.526 963.296 546.865C963.658 546.189 963.839 545.417 963.839 544.552C963.839 543.686 963.658 542.923 963.296 542.262C962.934 541.585 962.43 541.066 961.785 540.704C961.155 540.342 960.439 540.161 959.637 540.161C958.834 540.161 958.11 540.342 957.465 540.704C956.835 541.066 956.332 541.585 955.954 542.262C955.592 542.923 955.411 543.686 955.411 544.552C955.411 545.417 955.592 546.189 955.954 546.865C956.332 547.526 956.835 548.046 957.465 548.423C958.11 548.785 958.834 548.966 959.637 548.966ZM984.914 538.178C986.487 538.178 987.731 538.635 988.643 539.547C989.572 540.46 990.036 541.814 990.036 543.608V550.808H987.77V543.867C987.77 542.656 987.487 541.743 986.92 541.129C986.369 540.515 985.575 540.208 984.536 540.208C983.387 540.208 982.474 540.57 981.798 541.294C981.121 542.002 980.782 543.025 980.782 544.363V550.808H978.516V543.867C978.516 542.656 978.233 541.743 977.666 541.129C977.116 540.515 976.321 540.208 975.282 540.208C974.133 540.208 973.221 540.57 972.544 541.294C971.867 542.002 971.529 543.025 971.529 544.363V550.808H969.263V538.296H971.434V540.161C971.891 539.516 972.489 539.028 973.228 538.698C973.968 538.351 974.81 538.178 975.754 538.178C976.73 538.178 977.596 538.375 978.351 538.768C979.106 539.162 979.689 539.736 980.098 540.492C980.57 539.768 981.223 539.201 982.057 538.792C982.907 538.383 983.859 538.178 984.914 538.178ZM997.794 550.949C996.771 550.949 995.788 550.815 994.843 550.548C993.899 550.265 993.159 549.911 992.624 549.486L993.569 547.692C994.119 548.085 994.788 548.4 995.575 548.636C996.362 548.872 997.157 548.99 997.959 548.99C999.942 548.99 1000.93 548.423 1000.93 547.29C1000.93 546.913 1000.8 546.614 1000.53 546.393C1000.26 546.173 999.927 546.016 999.517 545.921C999.124 545.811 998.557 545.693 997.818 545.567C996.811 545.41 995.984 545.229 995.339 545.024C994.71 544.819 994.167 544.473 993.71 543.985C993.254 543.498 993.026 542.813 993.026 541.932C993.026 540.799 993.498 539.894 994.442 539.217C995.386 538.524 996.653 538.178 998.243 538.178C999.077 538.178 999.911 538.28 1000.74 538.485C1001.58 538.69 1002.26 538.965 1002.8 539.311L1001.83 541.105C1000.81 540.444 999.604 540.114 998.219 540.114C997.259 540.114 996.527 540.271 996.024 540.586C995.52 540.901 995.268 541.318 995.268 541.837C995.268 542.246 995.41 542.569 995.693 542.805C995.976 543.041 996.323 543.214 996.732 543.324C997.157 543.435 997.747 543.56 998.502 543.702C999.51 543.875 1000.32 544.064 1000.93 544.269C1001.56 544.457 1002.1 544.788 1002.54 545.26C1002.98 545.732 1003.2 546.393 1003.2 547.243C1003.2 548.376 1002.71 549.281 1001.74 549.958C1000.78 550.619 999.462 550.949 997.794 550.949Z" fill="#2E3853"/>
</g>
<g filter="url(#filter0_d_4017_35115)">
<g clip-path="url(#clip7_4017_35115)">
<path d="M1353.65 811.035V492.793H1309.61V811.035H1353.65Z" fill="#EEEEEE"/>
<path d="M1906.97 359.759H1271.51V392.019H1906.97V359.759Z" fill="#464775"/>
<path d="M1906.97 392.02H1309.6V424.28H1906.97V392.02Z" fill="#EEEEEE"/>
<path d="M1353.63 492.808H1464.3V451.689H1353.63V492.808Z" fill="#EEEEEE"/>
<path fill-rule="evenodd" clip-rule="evenodd" d="M1464.52 493.028H1353.41V451.469H1464.52V493.028ZM1464.08 492.588V451.909H1353.85V492.588H1464.08Z" fill="#D5D5D5"/>
<path d="M1464.28 492.808H1574.96V451.689H1464.28V492.808Z" fill="#EEEEEE"/>
<path fill-rule="evenodd" clip-rule="evenodd" d="M1575.18 493.028H1464.06V451.469H1575.18V493.028ZM1574.74 492.588V451.909H1464.5V492.588H1574.74Z" fill="#D5D5D5"/>
<path d="M1574.94 492.808H1685.62V451.689H1574.94V492.808Z" fill="#FAFAFA"/>
<path fill-rule="evenodd" clip-rule="evenodd" d="M1685.84 493.028H1574.72V451.469H1685.84V493.028ZM1685.39 492.588V451.909H1575.16V492.588H1685.39Z" fill="#D5D5D5"/>
<path d="M1353.64 451.692H1309.6V492.811H1353.64V451.692Z" fill="#EEEEEE"/>
<path fill-rule="evenodd" clip-rule="evenodd" d="M1309.38 451.472H1353.86V493.031H1309.38V451.472ZM1309.82 451.912V492.591H1353.42V451.912H1309.82Z" fill="#D5D5D5"/>
<path d="M1464.31 747.414H1353.64V811.054H1464.31V747.414Z" fill="#FAFAFA"/>
<path fill-rule="evenodd" clip-rule="evenodd" d="M1353.42 747.193H1464.53V811.274H1353.42V747.193ZM1353.86 747.634V810.833H1464.09V747.634H1353.86Z" fill="#D5D5D5"/>
<path d="M1464.31 683.774H1353.64V747.414H1464.31V683.774Z" fill="#FAFAFA"/>
<path fill-rule="evenodd" clip-rule="evenodd" d="M1353.42 683.554H1464.53V747.634H1353.42V683.554ZM1353.86 683.994V747.193H1464.09V683.994H1353.86Z" fill="#D5D5D5"/>
<path d="M1464.31 620.091H1353.64V683.73H1464.31V620.091Z" fill="#FAFAFA"/>
<path fill-rule="evenodd" clip-rule="evenodd" d="M1353.42 619.87H1464.53V683.95H1353.42V619.87ZM1353.86 620.311V683.51H1464.09V620.311H1353.86Z" fill="#D5D5D5"/>
<path d="M1464.31 556.451H1353.64V620.091H1464.31V556.451Z" fill="#FAFAFA"/>
<path fill-rule="evenodd" clip-rule="evenodd" d="M1353.42 556.23H1464.53V620.311H1353.42V556.23ZM1353.86 556.671V619.87H1464.09V556.671H1353.86Z" fill="#D5D5D5"/>
<path d="M1464.31 492.812H1353.64V556.451H1464.31V492.812Z" fill="#FAFAFA"/>
<path fill-rule="evenodd" clip-rule="evenodd" d="M1353.42 492.591H1464.53V556.671H1353.42V492.591ZM1353.86 493.032V556.23H1464.09V493.032H1353.86Z" fill="#D5D5D5"/>
<path d="M1574.99 747.414H1464.31V811.054H1574.99V747.414Z" fill="#FAFAFA"/>
<path fill-rule="evenodd" clip-rule="evenodd" d="M1464.09 747.193H1575.21V811.274H1464.09V747.193ZM1464.53 747.634V810.833H1574.76V747.634H1464.53Z" fill="#D5D5D5"/>
<path d="M1574.99 683.774H1464.31V747.414H1574.99V683.774Z" fill="#FAFAFA"/>
<path fill-rule="evenodd" clip-rule="evenodd" d="M1464.09 683.554H1575.21V747.634H1464.09V683.554ZM1464.53 683.994V747.193H1574.76V683.994H1464.53Z" fill="#D5D5D5"/>
<path d="M1574.99 620.091H1464.31V683.73H1574.99V620.091Z" fill="#FAFAFA"/>
<path fill-rule="evenodd" clip-rule="evenodd" d="M1464.09 619.87H1575.21V683.95H1464.09V619.87ZM1464.53 620.311V683.51H1574.76V620.311H1464.53Z" fill="#D5D5D5"/>
<path d="M1574.99 556.451H1464.31V620.091H1574.99V556.451Z" fill="#FAFAFA"/>
<path fill-rule="evenodd" clip-rule="evenodd" d="M1464.09 556.23H1575.21V620.311H1464.09V556.23ZM1464.53 556.671V619.87H1574.76V556.671H1464.53Z" fill="#D5D5D5"/>
<path d="M1574.99 492.812H1464.31V556.451H1574.99V492.812Z" fill="#FAFAFA"/>
<path fill-rule="evenodd" clip-rule="evenodd" d="M1464.09 492.591H1575.21V556.671H1464.09V492.591ZM1464.53 493.032V556.23H1574.76V493.032H1464.53Z" fill="#D5D5D5"/>
<path d="M1685.66 747.414H1574.99V811.054H1685.66V747.414Z" fill="#FAFAFA"/>
<path fill-rule="evenodd" clip-rule="evenodd" d="M1574.76 747.193H1685.88V811.274H1574.76V747.193ZM1575.21 747.634V810.833H1685.44V747.634H1575.21Z" fill="#D5D5D5"/>
<path d="M1685.66 683.774H1574.99V747.414H1685.66V683.774Z" fill="#FAFAFA"/>
<path fill-rule="evenodd" clip-rule="evenodd" d="M1574.76 683.554H1685.88V747.634H1574.76V683.554ZM1575.21 683.994V747.193H1685.44V683.994H1575.21Z" fill="#D5D5D5"/>
<path d="M1685.66 620.091H1574.99V683.73H1685.66V620.091Z" fill="#FAFAFA"/>
<path fill-rule="evenodd" clip-rule="evenodd" d="M1574.76 619.87H1685.88V683.95H1574.76V619.87ZM1575.21 620.311V683.51H1685.44V620.311H1575.21Z" fill="#D5D5D5"/>
<path d="M1685.66 556.451H1574.99V620.091H1685.66V556.451Z" fill="#FAFAFA"/>
<path fill-rule="evenodd" clip-rule="evenodd" d="M1574.76 556.23H1685.88V620.311H1574.76V556.23ZM1575.21 556.671V619.87H1685.44V556.671H1575.21Z" fill="#D5D5D5"/>
<path d="M1685.66 492.812H1574.99V556.451H1685.66V492.812Z" fill="#FAFAFA"/>
<path fill-rule="evenodd" clip-rule="evenodd" d="M1574.76 492.591H1685.88V556.671H1574.76V492.591ZM1575.21 493.032V556.23H1685.44V493.032H1575.21Z" fill="#D5D5D5"/>
<path d="M1906.97 424.28H1309.6V451.693H1906.97V424.28Z" fill="#FAFAFA"/>
<path d="M1309.57 811.04V392.006H1271.48V811.04H1309.57Z" fill="#33344A"/>
<path d="M1761.74 385.1H1456.54C1455.4 385.1 1454.47 384.174 1454.47 383.028V368.749C1454.47 367.603 1455.4 366.678 1456.54 366.678H1761.78C1762.93 366.678 1763.86 367.603 1763.86 368.749V382.984C1763.81 384.174 1762.89 385.1 1761.74 385.1Z" fill="#FAFAFA"/>
<path fill-rule="evenodd" clip-rule="evenodd" d="M1296.49 370.905C1296.66 370.733 1296.94 370.733 1297.11 370.905L1301.17 374.96C1301.7 375.485 1301.7 376.293 1301.17 376.817L1297.11 380.872C1296.94 381.044 1296.66 381.044 1296.49 380.872C1296.31 380.7 1296.31 380.421 1296.49 380.249L1300.55 376.194C1300.73 376.014 1300.73 375.764 1300.55 375.583L1296.49 371.529C1296.31 371.357 1296.31 371.078 1296.49 370.905Z" fill="#BDBDBD"/>
<path fill-rule="evenodd" clip-rule="evenodd" d="M1284.62 370.905C1284.79 371.078 1284.79 371.357 1284.62 371.529L1280.56 375.583C1280.38 375.764 1280.38 376.014 1280.56 376.194L1280.56 376.196L1280.56 376.196L1284.58 380.25C1284.75 380.423 1284.75 380.702 1284.58 380.874C1284.4 381.045 1284.12 381.043 1283.95 380.87L1279.94 376.817C1279.94 376.817 1279.94 376.817 1279.94 376.816C1279.41 376.292 1279.41 375.484 1279.94 374.96L1284 370.905C1284.17 370.733 1284.45 370.733 1284.62 370.905Z" fill="#BDBDBD"/>
<g opacity="0.5">
<path opacity="0.5" d="M1290.53 425.911C1296.6 425.911 1301.52 420.997 1301.52 414.937C1301.52 408.876 1296.6 403.963 1290.53 403.963C1284.46 403.963 1279.54 408.876 1279.54 414.937C1279.54 420.997 1284.46 425.911 1290.53 425.911Z" fill="#286F90"/>
<path opacity="0.5" d="M1290.53 462.666C1296.6 462.666 1301.52 457.753 1301.52 451.693C1301.52 445.632 1296.6 440.719 1290.53 440.719C1284.46 440.719 1279.54 445.632 1279.54 451.693C1279.54 457.753 1284.46 462.666 1290.53 462.666Z" fill="#286F90"/>
<path opacity="0.5" d="M1290.53 499.422C1296.6 499.422 1301.52 494.509 1301.52 488.448C1301.52 482.388 1296.6 477.475 1290.53 477.475C1284.46 477.475 1279.54 482.388 1279.54 488.448C1279.54 494.509 1284.46 499.422 1290.53 499.422Z" fill="#286F90"/>
<path opacity="0.5" d="M1290.53 536.178C1296.6 536.178 1301.52 531.265 1301.52 525.204C1301.52 519.144 1296.6 514.23 1290.53 514.23C1284.46 514.23 1279.54 519.144 1279.54 525.204C1279.54 531.265 1284.46 536.178 1290.53 536.178Z" fill="#286F90"/>
<path opacity="0.5" d="M1290.53 572.934C1296.6 572.934 1301.52 568.021 1301.52 561.96C1301.52 555.899 1296.6 550.986 1290.53 550.986C1284.46 550.986 1279.54 555.899 1279.54 561.96C1279.54 568.021 1284.46 572.934 1290.53 572.934Z" fill="#286F90"/>
<path opacity="0.5" d="M1290.53 764.69C1296.6 764.69 1301.52 759.777 1301.52 753.716C1301.52 747.655 1296.6 742.742 1290.53 742.742C1284.46 742.742 1279.54 747.655 1279.54 753.716C1279.54 759.777 1284.46 764.69 1290.53 764.69Z" fill="#286F90"/>
</g>
<path d="M1273.98 469.895H1271.51V507.047H1273.98V469.895Z" fill="#FAFAFA"/>
<path d="M1342.78 417.449H1325.53C1325.17 417.449 1324.86 417.14 1324.86 416.788V399.556C1324.86 399.203 1325.17 398.895 1325.53 398.895H1342.78C1343.13 398.895 1343.44 399.203 1343.44 399.556V416.788C1343.44 417.14 1343.13 417.449 1342.78 417.449Z" fill="#0073CC"/>
<path d="M1409.15 410.353H1349.93C1349.66 410.353 1349.49 410.133 1349.49 409.913V406.387C1349.49 406.123 1349.71 405.946 1349.93 405.946H1409.19C1409.46 405.946 1409.64 406.167 1409.64 406.387V409.913C1409.64 410.177 1409.41 410.353 1409.15 410.353Z" fill="#BDBDBD"/>
<path fill-rule="evenodd" clip-rule="evenodd" d="M1475.92 436.09C1476.09 436.263 1476.09 436.542 1475.92 436.713L1472.3 440.283C1472.13 440.454 1471.85 440.452 1471.68 440.279C1471.5 440.106 1471.51 439.827 1471.68 439.656L1475.3 436.086C1475.47 435.915 1475.75 435.917 1475.92 436.09Z" fill="#BDBDBD"/>
<path fill-rule="evenodd" clip-rule="evenodd" d="M1468.06 436.09C1468.23 435.917 1468.51 435.915 1468.68 436.086L1472.3 439.656C1472.47 439.827 1472.47 440.106 1472.3 440.279C1472.13 440.452 1471.85 440.454 1471.68 440.283L1468.06 436.713C1467.89 436.542 1467.89 436.263 1468.06 436.09Z" fill="#BDBDBD"/>
<path fill-rule="evenodd" clip-rule="evenodd" d="M1392.68 432.911C1393.03 432.567 1393.59 432.567 1393.93 432.911L1398.57 437.539C1398.91 437.883 1398.91 438.441 1398.57 438.786C1398.22 439.13 1397.66 439.13 1397.32 438.786L1392.68 434.158C1392.34 433.814 1392.34 433.256 1392.68 432.911Z" fill="#BDBDBD"/>
<path fill-rule="evenodd" clip-rule="evenodd" d="M1398.56 437.536C1398.91 437.879 1398.91 438.437 1398.57 438.783L1393.93 443.455C1393.59 443.8 1393.03 443.803 1392.69 443.461C1392.34 443.118 1392.34 442.56 1392.68 442.214L1397.31 437.542C1397.66 437.197 1398.22 437.194 1398.56 437.536Z" fill="#BDBDBD"/>
<path fill-rule="evenodd" clip-rule="evenodd" d="M1380.52 432.914C1380.86 433.26 1380.86 433.818 1380.51 434.161L1375.84 438.789C1375.49 439.131 1374.93 439.128 1374.59 438.783C1374.25 438.437 1374.25 437.879 1374.59 437.536L1379.27 432.909C1379.62 432.566 1380.18 432.569 1380.52 432.914Z" fill="#BDBDBD"/>
<path fill-rule="evenodd" clip-rule="evenodd" d="M1374.59 437.539C1374.94 437.195 1375.49 437.195 1375.84 437.539L1380.52 442.211C1380.86 442.555 1380.86 443.113 1380.52 443.458C1380.17 443.802 1379.61 443.802 1379.27 443.458L1374.59 438.786C1374.25 438.442 1374.25 437.884 1374.59 437.539Z" fill="#BDBDBD"/>
<path d="M1359.68 439.485H1325.31C1325.04 439.485 1324.86 439.265 1324.86 439.044V437.325C1324.86 437.061 1325.08 436.885 1325.31 436.885H1359.68C1359.95 436.885 1360.12 437.105 1360.12 437.325V439.044C1360.17 439.309 1359.95 439.485 1359.68 439.485Z" fill="#DBDBDB"/>
<path d="M1463.08 439.529H1413.12C1412.86 439.529 1412.68 439.309 1412.68 439.088V437.325C1412.68 437.061 1412.9 436.885 1413.12 436.885H1463.03C1463.3 436.885 1463.47 437.105 1463.47 437.325V439.088C1463.52 439.309 1463.3 439.529 1463.08 439.529Z" fill="#DBDBDB"/>
<path d="M1314.76 514.848H1348.3C1348.78 514.848 1349.18 515.244 1349.18 515.729V516.611C1349.18 517.095 1348.78 517.492 1348.3 517.492H1314.76C1314.27 517.492 1313.88 517.095 1313.88 516.611V515.729C1313.88 515.244 1314.23 514.848 1314.76 514.848Z" fill="#DBDBDB"/>
<path d="M1314.76 578.487H1348.3C1348.78 578.487 1349.18 578.884 1349.18 579.369V580.25C1349.18 580.735 1348.78 581.132 1348.3 581.132H1314.76C1314.27 581.132 1313.88 580.735 1313.88 580.25V579.369C1313.88 578.884 1314.23 578.487 1314.76 578.487Z" fill="#DBDBDB"/>
<path d="M1314.76 642.127H1348.3C1348.78 642.127 1349.18 642.524 1349.18 643.008V643.89C1349.18 644.375 1348.78 644.771 1348.3 644.771H1314.76C1314.27 644.771 1313.88 644.375 1313.88 643.89V643.008C1313.88 642.524 1314.23 642.127 1314.76 642.127Z" fill="#DBDBDB"/>
<path d="M1314.76 705.811H1348.3C1348.78 705.811 1349.18 706.207 1349.18 706.692V707.573C1349.18 708.058 1348.78 708.455 1348.3 708.455H1314.76C1314.27 708.455 1313.88 708.058 1313.88 707.573V706.692C1313.88 706.163 1314.23 705.811 1314.76 705.811Z" fill="#DBDBDB"/>
<path d="M1314.76 769.45H1348.3C1348.78 769.45 1349.18 769.847 1349.18 770.332V771.213C1349.18 771.698 1348.78 772.094 1348.3 772.094H1314.76C1314.27 772.094 1313.88 771.698 1313.88 771.213V770.332C1313.88 769.847 1314.23 769.45 1314.76 769.45Z" fill="#DBDBDB"/>
<path d="M1357.25 514.848H1460.65C1461.13 514.848 1461.53 515.244 1461.53 515.729V531.022C1461.53 531.507 1461.13 531.903 1460.65 531.903H1357.25C1356.77 531.903 1356.37 531.507 1356.37 531.022V515.729C1356.37 515.244 1356.77 514.848 1357.25 514.848Z" fill="#E2E2F4"/>
<path d="M1361.14 514.848H1357.25C1356.77 514.848 1356.37 515.244 1356.37 515.729V531.022C1356.37 531.507 1356.77 531.903 1357.25 531.903H1361.14V514.848Z" fill="#6265A2"/>
<path d="M1357.25 710.79H1460.65C1461.13 710.79 1461.53 711.187 1461.53 711.671V726.964C1461.53 727.449 1461.13 727.846 1460.65 727.846H1357.25C1356.77 727.846 1356.37 727.449 1356.37 726.964V711.671C1356.37 711.187 1356.77 710.79 1357.25 710.79Z" fill="#E2E2F4"/>
<path d="M1357.25 710.79H1361.14V727.846H1357.25C1356.77 727.846 1356.37 727.449 1356.37 726.964V711.671C1356.37 711.187 1356.77 710.79 1357.25 710.79Z" fill="#6265A2"/>
<path d="M1357.25 620.091H1460.65C1461.13 620.091 1461.53 620.487 1461.53 620.972V682.849C1461.53 683.334 1461.13 683.73 1460.65 683.73H1357.25C1356.77 683.73 1356.37 683.334 1356.37 682.849V620.972C1356.37 620.487 1356.77 620.091 1357.25 620.091Z" fill="#E2E2F4"/>
<path d="M1357.25 620.091H1361.14V683.73H1357.25C1356.77 683.73 1356.37 683.334 1356.37 682.849V620.972C1356.37 620.487 1356.77 620.091 1357.25 620.091Z" fill="#6265A2"/>
<path d="M1467.93 683.73H1571.32C1571.81 683.73 1572.21 684.127 1572.21 684.612V746.489C1572.21 746.973 1571.81 747.37 1571.32 747.37H1467.93C1467.44 747.37 1467.05 746.973 1467.05 746.489V684.612C1467.05 684.127 1467.44 683.73 1467.93 683.73Z" fill="#E2E2F4"/>
<path d="M1467.93 683.73H1471.81V747.37H1467.93C1467.44 747.37 1467.05 746.973 1467.05 746.489V684.612C1467.05 684.127 1467.44 683.73 1467.93 683.73Z" fill="#6265A2"/>
<path d="M1578.6 514.23H1682C1682.48 514.23 1682.88 514.627 1682.88 515.112V790.604C1682.88 791.089 1682.48 791.486 1682 791.486H1578.6C1578.12 791.486 1577.72 791.089 1577.72 790.604V515.112C1577.72 514.627 1578.12 514.23 1578.6 514.23Z" fill="#E2E2F4"/>
<path d="M1578.6 514.23H1582.49V791.486H1578.6C1578.12 791.486 1577.72 791.089 1577.72 790.604V515.112C1577.72 514.627 1578.12 514.23 1578.6 514.23Z" fill="#6265A2"/>
<path d="M1399.62 521.855V524.852C1399.62 525.337 1399.22 525.733 1398.74 525.733H1366.43C1365.95 525.733 1365.55 525.337 1365.55 524.852V521.855C1365.55 521.37 1365.95 520.974 1366.43 520.974H1398.74C1399.22 520.974 1399.62 521.37 1399.62 521.855Z" fill="#6265A2"/>
<path d="M1399.62 627.141V630.138C1399.62 630.623 1399.22 631.02 1398.74 631.02H1366.43C1365.95 631.02 1365.55 630.623 1365.55 630.138V627.141C1365.55 626.656 1365.95 626.26 1366.43 626.26H1398.74C1399.22 626.26 1399.62 626.656 1399.62 627.141Z" fill="#6265A2"/>
<path d="M1399.62 626.268V620.098H1365.55V626.268H1399.62Z" fill="#E2E2F4"/>
<path d="M1457.43 638.028V664.162C1457.43 664.647 1457.03 665.044 1456.54 665.044H1366.43C1365.95 665.044 1365.55 664.647 1365.55 664.162V638.028C1365.55 637.543 1365.95 637.146 1366.43 637.146H1456.54C1457.03 637.146 1457.43 637.543 1457.43 638.028Z" fill="#CBCCE0"/>
<path d="M1399.63 637.164V630.994H1365.56V637.164H1399.63Z" fill="#E2E2F4"/>
<path d="M1568.1 701.58V727.714C1568.1 728.199 1567.7 728.596 1567.22 728.596H1477.11C1476.62 728.596 1476.23 728.199 1476.23 727.714V701.58C1476.23 701.095 1476.62 700.698 1477.11 700.698H1567.22C1567.7 700.698 1568.1 701.095 1568.1 701.58Z" fill="#CBCCE0"/>
<path d="M1510.3 700.73V694.56H1476.24V700.73H1510.3Z" fill="#E2E2F4"/>
<path d="M1678.78 532.168V572.097C1678.78 572.581 1678.38 572.978 1677.89 572.978H1587.74C1587.25 572.978 1586.86 572.581 1586.86 572.097V532.168C1586.86 531.683 1587.25 531.286 1587.74 531.286H1677.85C1678.38 531.286 1678.78 531.683 1678.78 532.168Z" fill="#CBCCE0"/>
<path d="M1620.95 531.306V525.136H1586.88V531.306H1620.95Z" fill="#E2E2F4"/>
<path d="M1399.62 717.797V720.794C1399.62 721.279 1399.22 721.676 1398.74 721.676H1366.43C1365.95 721.676 1365.55 721.279 1365.55 720.794V717.797C1365.55 717.313 1365.95 716.916 1366.43 716.916H1398.74C1399.22 716.916 1399.62 717.313 1399.62 717.797Z" fill="#6265A2"/>
<path d="M1399.64 716.938V710.768H1365.57V716.938H1399.64Z" fill="#E2E2F4"/>
<path d="M1510.29 690.694V693.691C1510.29 694.176 1509.9 694.572 1509.41 694.572H1477.11C1476.62 694.572 1476.23 694.176 1476.23 693.691V690.694C1476.23 690.209 1476.62 689.812 1477.11 689.812H1509.41C1509.9 689.812 1510.29 690.209 1510.29 690.694Z" fill="#6265A2"/>
<path d="M1510.29 689.834V683.664H1476.23V689.834H1510.29Z" fill="#E2E2F4"/>
<path d="M1620.97 521.282V524.279C1620.97 524.763 1620.57 525.16 1620.09 525.16H1587.78C1587.3 525.16 1586.9 524.763 1586.9 524.279V521.282C1586.9 520.797 1587.3 520.4 1587.78 520.4H1620.09C1620.57 520.4 1620.97 520.797 1620.97 521.282Z" fill="#6265A2"/>
<path d="M1620.94 520.41V514.24H1586.87V520.41H1620.94Z" fill="#E2E2F4"/>
<path d="M1399.35 481.133H1365.82C1365.33 481.133 1364.93 480.736 1364.93 480.251V479.37C1364.93 478.885 1365.33 478.488 1365.82 478.488H1399.35C1399.84 478.488 1400.24 478.885 1400.24 479.37V480.251C1400.24 480.736 1399.84 481.133 1399.35 481.133Z" fill="#BDBDBD"/>
<path d="M1374.91 473.552H1365.82C1365.33 473.552 1364.93 473.155 1364.93 472.671V461.741C1364.93 461.256 1365.33 460.859 1365.82 460.859H1374.91C1375.39 460.859 1375.79 461.256 1375.79 461.741V472.671C1375.79 473.199 1375.39 473.552 1374.91 473.552Z" fill="#BDBDBD"/>
<path d="M1510.03 481.133H1476.49C1476.01 481.133 1475.61 480.736 1475.61 480.251V479.37C1475.61 478.885 1476.01 478.488 1476.49 478.488H1510.03C1510.51 478.488 1510.91 478.885 1510.91 479.37V480.251C1510.91 480.736 1510.51 481.133 1510.03 481.133Z" fill="#BDBDBD"/>
<path d="M1485.58 473.552H1476.49C1476.01 473.552 1475.61 473.155 1475.61 472.671V461.741C1475.61 461.256 1476.01 460.859 1476.49 460.859H1485.58C1486.07 460.859 1486.46 461.256 1486.46 461.741V472.671C1486.46 473.199 1486.07 473.552 1485.58 473.552Z" fill="#BDBDBD"/>
<path d="M1620.7 481.133H1587.16C1586.68 481.133 1586.28 480.736 1586.28 480.251V479.37C1586.28 478.885 1586.68 478.488 1587.16 478.488H1620.7C1621.19 478.488 1621.59 478.885 1621.59 479.37V480.251C1621.59 480.736 1621.19 481.133 1620.7 481.133Z" fill="#BDBDBD"/>
<path d="M1596.21 473.552H1587.12C1586.64 473.552 1586.24 473.155 1586.24 472.671V461.741C1586.24 461.256 1586.64 460.859 1587.12 460.859H1596.21C1596.7 460.859 1597.09 461.256 1597.09 461.741V472.671C1597.09 473.199 1596.7 473.552 1596.21 473.552Z" fill="#BDBDBD"/>
</g>
</g>
<path d="M1747.53 811.326V646.081C1617.43 705.136 1427.09 742.382 1215.03 742.382C1002.97 742.382 812.63 705.136 682.533 646.081V811.326H1747.53Z" fill="white"/>
</g>
<g clip-path="url(#clip8_4017_35115)">
<mask id="path-107-inside-1_4017_35115" fill="white">
<path d="M682.533 187.671H1747.9V268.326H682.533V187.671Z"/>
</mask>
<g clip-path="url(#clip9_4017_35115)">
<rect width="1065.37" height="80.6554" transform="translate(682.533 187.671)" fill="white"/>
<path d="M811.615 227.845C813.648 227.845 815.334 228.664 816.722 230.302L819.747 227.436C817.863 225.029 814.937 223.75 811.417 223.75C805.119 223.75 800.409 228.255 800.409 234.552C800.409 240.849 805.07 245.354 811.367 245.354C814.888 245.354 817.813 244.023 819.697 241.616L816.673 238.75C815.334 240.388 813.598 241.207 811.565 241.207C807.797 241.207 805.07 238.442 805.07 234.5C805.119 230.61 807.797 227.845 811.615 227.845ZM828.672 228.715C826.193 228.715 823.664 229.381 821.978 230.661L823.615 233.937C824.755 233.016 826.441 232.453 828.077 232.453C830.507 232.453 831.647 233.63 831.647 235.627H828.077C823.317 235.627 821.383 237.572 821.383 240.439C821.383 243.203 823.565 245.302 827.185 245.302C829.466 245.302 831.102 244.535 831.945 243.05V245.046H836.16V235.831C836.16 230.968 833.432 228.715 828.672 228.715ZM831.647 239.927C831.151 241.412 829.813 242.128 828.325 242.128C826.738 242.128 825.796 241.36 825.796 240.183C825.796 239.108 826.441 238.289 828.573 238.289H831.647V239.927ZM843.448 233.732C843.448 232.913 844.291 232.248 846.324 232.248C847.762 232.248 849.25 232.555 850.787 233.425L852.275 230.098C850.787 229.227 848.407 228.715 846.275 228.715C841.713 228.715 839.085 230.866 839.085 233.886C839.085 240.285 848.457 237.623 848.457 240.234C848.457 241.105 847.663 241.719 845.581 241.719C843.696 241.719 841.564 241.105 840.176 240.183L838.688 243.511C840.126 244.483 842.804 245.251 845.432 245.251C850.093 245.251 852.77 243.152 852.77 240.132C852.82 233.784 843.448 236.446 843.448 233.732ZM870.819 237.009C870.819 231.838 867.299 228.664 862.737 228.664C857.977 228.664 854.456 232.145 854.456 236.958C854.456 241.719 857.977 245.2 863.332 245.2C866.158 245.2 868.29 244.33 869.728 242.589L867.348 239.927C866.257 240.951 865.117 241.463 863.431 241.463C861.051 241.463 859.415 240.234 858.969 238.238H870.72C870.77 237.879 870.819 237.367 870.819 237.009ZM858.919 235.575C859.216 233.528 860.704 232.248 862.787 232.248C864.82 232.248 866.307 233.579 866.605 235.575H858.919ZM885.149 222.828V230.61C884.009 229.279 882.422 228.664 880.488 228.664C876.075 228.664 872.704 231.889 872.704 236.958C872.704 242.026 876.075 245.2 880.488 245.2C882.571 245.2 884.207 244.535 885.348 243.101V244.944H889.662V222.828H885.149ZM881.282 241.412C879.05 241.412 877.315 239.722 877.315 236.958C877.315 234.193 879.05 232.504 881.282 232.504C883.513 232.504 885.248 234.193 885.248 236.958C885.248 239.722 883.513 241.412 881.282 241.412ZM900.769 228.715C895.81 228.715 892.19 232.145 892.19 237.009C892.19 241.821 895.81 245.251 900.769 245.251C905.727 245.251 909.297 241.821 909.297 237.009C909.297 232.145 905.677 228.715 900.769 228.715ZM900.769 241.412C898.537 241.412 896.802 239.722 896.802 236.958C896.802 234.193 898.537 232.504 900.769 232.504C903 232.504 904.735 234.193 904.735 236.958C904.735 239.722 903 241.412 900.769 241.412ZM919.859 241.412C917.578 241.412 915.793 239.773 915.793 236.958C915.793 234.142 917.578 232.504 919.859 232.504C921.297 232.504 922.536 233.169 923.379 234.705L926.9 232.76C925.759 230.149 923.181 228.664 919.908 228.664C914.851 228.664 911.231 232.094 911.231 236.958C911.231 241.77 914.851 245.2 919.908 245.2C923.181 245.2 925.759 243.715 926.9 241.156L923.379 239.21C922.536 240.746 921.297 241.412 919.859 241.412ZM784.988 241.514L768.774 224.773C765.997 221.907 765.997 217.299 768.774 214.483L784.988 231.224C787.765 234.04 787.765 238.647 784.988 241.514ZM777.501 238.903L761.336 222.214C758.559 225.081 758.559 229.688 761.336 232.504L777.55 249.244C780.277 246.378 780.277 241.77 777.501 238.903ZM776.261 217.043L792.475 233.784C795.252 230.917 795.252 226.309 792.475 223.494L776.261 206.753C773.534 209.62 773.534 214.227 776.261 217.043Z" fill="#2E3853"/>
<g clip-path="url(#clip10_4017_35115)">
<path d="M963.108 221.779C964.82 221.779 966.167 222.189 967.149 223.007C968.131 223.825 968.622 224.952 968.622 226.387C968.622 227.823 968.131 228.949 967.149 229.768C966.167 230.586 964.82 230.995 963.108 230.995H959.841V234.999H957.952V221.779H963.108ZM963.051 229.352C964.247 229.352 965.16 229.101 965.789 228.597C966.419 228.081 966.734 227.344 966.734 226.387C966.734 225.431 966.419 224.7 965.789 224.197C965.16 223.681 964.247 223.422 963.051 223.422H959.841V229.352H963.051ZM972.704 226.671C973.018 226.092 973.484 225.651 974.101 225.349C974.718 225.047 975.467 224.895 976.349 224.895V226.652C976.248 226.639 976.109 226.633 975.933 226.633C974.951 226.633 974.177 226.929 973.61 227.521C973.056 228.1 972.779 228.931 972.779 230.013V234.999H970.966V224.99H972.704V226.671ZM982.778 235.112C981.783 235.112 980.889 234.892 980.096 234.451C979.303 234.011 978.68 233.406 978.226 232.638C977.786 231.858 977.565 230.976 977.565 229.994C977.565 229.012 977.786 228.137 978.226 227.369C978.68 226.589 979.303 225.985 980.096 225.556C980.889 225.116 981.783 224.895 982.778 224.895C983.772 224.895 984.66 225.116 985.441 225.556C986.234 225.985 986.851 226.589 987.291 227.369C987.745 228.137 987.971 229.012 987.971 229.994C987.971 230.976 987.745 231.858 987.291 232.638C986.851 233.406 986.234 234.011 985.441 234.451C984.66 234.892 983.772 235.112 982.778 235.112ZM982.778 233.526C983.42 233.526 983.993 233.381 984.496 233.092C985.012 232.789 985.415 232.374 985.705 231.845C985.995 231.304 986.139 230.687 986.139 229.994C986.139 229.302 985.995 228.691 985.705 228.163C985.415 227.621 985.012 227.206 984.496 226.916C983.993 226.627 983.42 226.482 982.778 226.482C982.136 226.482 981.556 226.627 981.04 226.916C980.537 227.206 980.134 227.621 979.832 228.163C979.542 228.691 979.397 229.302 979.397 229.994C979.397 230.687 979.542 231.304 979.832 231.845C980.134 232.374 980.537 232.789 981.04 233.092C981.556 233.381 982.136 233.526 982.778 233.526ZM999.921 220.986V234.999H998.184V233.413C997.781 233.967 997.271 234.388 996.654 234.678C996.037 234.968 995.357 235.112 994.614 235.112C993.645 235.112 992.776 234.898 992.008 234.47C991.24 234.042 990.636 233.444 990.195 232.676C989.767 231.896 989.553 231.002 989.553 229.994C989.553 228.987 989.767 228.1 990.195 227.332C990.636 226.564 991.24 225.966 992.008 225.538C992.776 225.11 993.645 224.895 994.614 224.895C995.332 224.895 995.993 225.034 996.597 225.311C997.202 225.575 997.705 225.972 998.108 226.501V220.986H999.921ZM994.765 233.526C995.395 233.526 995.968 233.381 996.484 233.092C997 232.789 997.403 232.374 997.693 231.845C997.982 231.304 998.127 230.687 998.127 229.994C998.127 229.302 997.982 228.691 997.693 228.163C997.403 227.621 997 227.206 996.484 226.916C995.968 226.627 995.395 226.482 994.765 226.482C994.123 226.482 993.544 226.627 993.028 226.916C992.524 227.206 992.121 227.621 991.819 228.163C991.53 228.691 991.385 229.302 991.385 229.994C991.385 230.687 991.53 231.304 991.819 231.845C992.121 232.374 992.524 232.789 993.028 233.092C993.544 233.381 994.123 233.526 994.765 233.526ZM1012.68 224.99V234.999H1010.96V233.488C1010.6 234.004 1010.11 234.407 1009.51 234.697C1008.92 234.974 1008.27 235.112 1007.56 235.112C1006.23 235.112 1005.18 234.747 1004.41 234.017C1003.64 233.274 1003.26 232.185 1003.26 230.75V224.99H1005.07V230.542C1005.07 231.512 1005.3 232.248 1005.77 232.752C1006.23 233.243 1006.9 233.488 1007.77 233.488C1008.73 233.488 1009.48 233.199 1010.04 232.619C1010.59 232.04 1010.87 231.222 1010.87 230.164V224.99H1012.68ZM1020.49 235.112C1019.47 235.112 1018.56 234.892 1017.76 234.451C1016.96 234.011 1016.34 233.406 1015.89 232.638C1015.43 231.858 1015.21 230.976 1015.21 229.994C1015.21 229.012 1015.43 228.137 1015.89 227.369C1016.34 226.589 1016.96 225.985 1017.76 225.556C1018.56 225.116 1019.47 224.895 1020.49 224.895C1021.4 224.895 1022.21 225.078 1022.91 225.443C1023.63 225.808 1024.18 226.337 1024.57 227.03L1023.19 227.917C1022.88 227.439 1022.49 227.08 1022.02 226.841C1021.56 226.601 1021.04 226.482 1020.48 226.482C1019.82 226.482 1019.23 226.627 1018.7 226.916C1018.18 227.206 1017.77 227.621 1017.47 228.163C1017.18 228.691 1017.04 229.302 1017.04 229.994C1017.04 230.7 1017.18 231.323 1017.47 231.864C1017.77 232.393 1018.18 232.802 1018.7 233.092C1019.23 233.381 1019.82 233.526 1020.48 233.526C1021.04 233.526 1021.56 233.406 1022.02 233.167C1022.49 232.928 1022.88 232.569 1023.19 232.091L1024.57 232.959C1024.18 233.652 1023.63 234.187 1022.91 234.565C1022.21 234.93 1021.4 235.112 1020.49 235.112ZM1032.68 234.414C1032.41 234.64 1032.09 234.816 1031.7 234.942C1031.31 235.056 1030.9 235.112 1030.49 235.112C1029.48 235.112 1028.7 234.842 1028.15 234.3C1027.59 233.759 1027.31 232.985 1027.31 231.977V226.482H1025.61V224.99H1027.31V222.799H1029.13V224.99H1032V226.482H1029.13V231.902C1029.13 232.443 1029.26 232.859 1029.52 233.148C1029.8 233.438 1030.19 233.583 1030.69 233.583C1031.25 233.583 1031.72 233.425 1032.11 233.111L1032.68 234.414Z" fill="#444444"/>
<path d="M1083.48 235.15C1082.49 235.15 1081.52 234.999 1080.59 234.697C1079.67 234.382 1078.95 233.979 1078.42 233.488L1079.12 232.015C1079.62 232.468 1080.27 232.84 1081.05 233.129C1081.84 233.406 1082.65 233.545 1083.48 233.545C1084.58 233.545 1085.4 233.362 1085.94 232.997C1086.48 232.619 1086.75 232.122 1086.75 231.505C1086.75 231.052 1086.6 230.687 1086.3 230.41C1086.01 230.12 1085.64 229.9 1085.2 229.749C1084.77 229.598 1084.16 229.428 1083.37 229.239C1082.37 229 1081.57 228.761 1080.95 228.521C1080.35 228.282 1079.83 227.917 1079.38 227.426C1078.96 226.922 1078.74 226.249 1078.74 225.405C1078.74 224.7 1078.93 224.065 1079.29 223.498C1079.67 222.931 1080.23 222.478 1080.99 222.138C1081.75 221.798 1082.68 221.628 1083.8 221.628C1084.58 221.628 1085.35 221.729 1086.11 221.931C1086.86 222.132 1087.51 222.422 1088.05 222.799L1087.43 224.31C1086.88 223.958 1086.28 223.693 1085.65 223.517C1085.02 223.328 1084.41 223.234 1083.8 223.234C1082.73 223.234 1081.93 223.429 1081.39 223.819C1080.86 224.209 1080.59 224.713 1080.59 225.33C1080.59 225.783 1080.74 226.154 1081.05 226.444C1081.35 226.721 1081.72 226.941 1082.16 227.105C1082.61 227.256 1083.22 227.42 1083.99 227.596C1084.99 227.835 1085.79 228.074 1086.39 228.314C1087 228.553 1087.51 228.918 1087.94 229.409C1088.38 229.9 1088.6 230.561 1088.6 231.392C1088.6 232.084 1088.41 232.72 1088.03 233.299C1087.66 233.866 1087.08 234.319 1086.32 234.659C1085.55 234.986 1084.6 235.15 1083.48 235.15ZM1095.38 235.112C1094.39 235.112 1093.49 234.892 1092.7 234.451C1091.91 234.011 1091.28 233.406 1090.83 232.638C1090.39 231.858 1090.17 230.976 1090.17 229.994C1090.17 229.012 1090.39 228.137 1090.83 227.369C1091.28 226.589 1091.91 225.985 1092.7 225.556C1093.49 225.116 1094.39 224.895 1095.38 224.895C1096.38 224.895 1097.26 225.116 1098.04 225.556C1098.84 225.985 1099.45 226.589 1099.9 227.369C1100.35 228.137 1100.58 229.012 1100.58 229.994C1100.58 230.976 1100.35 231.858 1099.9 232.638C1099.45 233.406 1098.84 234.011 1098.04 234.451C1097.26 234.892 1096.38 235.112 1095.38 235.112ZM1095.38 233.526C1096.02 233.526 1096.6 233.381 1097.1 233.092C1097.62 232.789 1098.02 232.374 1098.31 231.845C1098.6 231.304 1098.74 230.687 1098.74 229.994C1098.74 229.302 1098.6 228.691 1098.31 228.163C1098.02 227.621 1097.62 227.206 1097.1 226.916C1096.6 226.627 1096.02 226.482 1095.38 226.482C1094.74 226.482 1094.16 226.627 1093.64 226.916C1093.14 227.206 1092.74 227.621 1092.44 228.163C1092.15 228.691 1092 229.302 1092 229.994C1092 230.687 1092.15 231.304 1092.44 231.845C1092.74 232.374 1093.14 232.789 1093.64 233.092C1094.16 233.381 1094.74 233.526 1095.38 233.526ZM1103.08 220.986H1104.9V234.999H1103.08V220.986ZM1117.69 224.99V234.999H1115.97V233.488C1115.6 234.004 1115.12 234.407 1114.51 234.697C1113.92 234.974 1113.27 235.112 1112.57 235.112C1111.23 235.112 1110.18 234.747 1109.41 234.017C1108.65 233.274 1108.26 232.185 1108.26 230.75V224.99H1110.08V230.542C1110.08 231.512 1110.31 232.248 1110.77 232.752C1111.24 233.243 1111.91 233.488 1112.78 233.488C1113.73 233.488 1114.49 233.199 1115.04 232.619C1115.6 232.04 1115.87 231.222 1115.87 230.164V224.99H1117.69ZM1126.77 234.414C1126.5 234.64 1126.17 234.816 1125.78 234.942C1125.39 235.056 1124.99 235.112 1124.58 235.112C1123.57 235.112 1122.79 234.842 1122.23 234.3C1121.68 233.759 1121.4 232.985 1121.4 231.977V226.482H1119.7V224.99H1121.4V222.799H1123.22V224.99H1126.09V226.482H1123.22V231.902C1123.22 232.443 1123.35 232.859 1123.61 233.148C1123.89 233.438 1124.28 233.583 1124.78 233.583C1125.34 233.583 1125.81 233.425 1126.2 233.111L1126.77 234.414ZM1128.96 224.99H1130.77V234.999H1128.96V224.99ZM1129.86 223.064C1129.51 223.064 1129.22 222.95 1128.98 222.724C1128.75 222.497 1128.64 222.22 1128.64 221.893C1128.64 221.565 1128.75 221.288 1128.98 221.062C1129.22 220.823 1129.51 220.703 1129.86 220.703C1130.22 220.703 1130.51 220.816 1130.73 221.043C1130.97 221.257 1131.09 221.528 1131.09 221.855C1131.09 222.195 1130.97 222.484 1130.73 222.724C1130.51 222.95 1130.22 223.064 1129.86 223.064ZM1138.52 235.112C1137.52 235.112 1136.63 234.892 1135.84 234.451C1135.04 234.011 1134.42 233.406 1133.97 232.638C1133.53 231.858 1133.31 230.976 1133.31 229.994C1133.31 229.012 1133.53 228.137 1133.97 227.369C1134.42 226.589 1135.04 225.985 1135.84 225.556C1136.63 225.116 1137.52 224.895 1138.52 224.895C1139.51 224.895 1140.4 225.116 1141.18 225.556C1141.98 225.985 1142.59 226.589 1143.03 227.369C1143.49 228.137 1143.71 229.012 1143.71 229.994C1143.71 230.976 1143.49 231.858 1143.03 232.638C1142.59 233.406 1141.98 234.011 1141.18 234.451C1140.4 234.892 1139.51 235.112 1138.52 235.112ZM1138.52 233.526C1139.16 233.526 1139.73 233.381 1140.24 233.092C1140.75 232.789 1141.16 232.374 1141.45 231.845C1141.74 231.304 1141.88 230.687 1141.88 229.994C1141.88 229.302 1141.74 228.691 1141.45 228.163C1141.16 227.621 1140.75 227.206 1140.24 226.916C1139.73 226.627 1139.16 226.482 1138.52 226.482C1137.88 226.482 1137.3 226.627 1136.78 226.916C1136.28 227.206 1135.88 227.621 1135.57 228.163C1135.28 228.691 1135.14 229.302 1135.14 229.994C1135.14 230.687 1135.28 231.304 1135.57 231.845C1135.88 232.374 1136.28 232.789 1136.78 233.092C1137.3 233.381 1137.88 233.526 1138.52 233.526ZM1151.56 224.895C1152.84 224.895 1153.84 225.267 1154.59 226.01C1155.34 226.74 1155.72 227.816 1155.72 229.239V234.999H1153.91V229.447C1153.91 228.477 1153.67 227.747 1153.21 227.256C1152.74 226.765 1152.07 226.52 1151.21 226.52C1150.22 226.52 1149.45 226.809 1148.88 227.388C1148.32 227.955 1148.03 228.773 1148.03 229.843V234.999H1146.22V224.99H1147.96V226.501C1148.32 225.985 1148.81 225.588 1149.43 225.311C1150.06 225.034 1150.77 224.895 1151.56 224.895ZM1161.94 235.112C1161.13 235.112 1160.34 235.005 1159.58 234.791C1158.83 234.565 1158.24 234.281 1157.81 233.941L1158.56 232.506C1159 232.821 1159.54 233.073 1160.17 233.262C1160.8 233.45 1161.43 233.545 1162.08 233.545C1163.66 233.545 1164.46 233.092 1164.46 232.185C1164.46 231.883 1164.35 231.644 1164.14 231.468C1163.92 231.291 1163.65 231.165 1163.32 231.09C1163.01 231.002 1162.56 230.907 1161.96 230.807C1161.16 230.681 1160.5 230.536 1159.98 230.372C1159.48 230.208 1159.04 229.932 1158.68 229.541C1158.31 229.151 1158.13 228.603 1158.13 227.898C1158.13 226.992 1158.51 226.268 1159.26 225.726C1160.02 225.172 1161.03 224.895 1162.3 224.895C1162.97 224.895 1163.64 224.977 1164.31 225.141C1164.97 225.305 1165.52 225.525 1165.95 225.802L1165.17 227.237C1164.36 226.708 1163.39 226.444 1162.28 226.444C1161.52 226.444 1160.93 226.57 1160.53 226.822C1160.13 227.074 1159.92 227.407 1159.92 227.823C1159.92 228.15 1160.04 228.408 1160.26 228.597C1160.49 228.786 1160.77 228.924 1161.09 229.012C1161.43 229.101 1161.91 229.201 1162.51 229.315C1163.32 229.453 1163.97 229.604 1164.46 229.768C1164.96 229.919 1165.39 230.183 1165.74 230.561C1166.09 230.939 1166.27 231.468 1166.27 232.147C1166.27 233.054 1165.88 233.778 1165.1 234.319C1164.33 234.848 1163.28 235.112 1161.94 235.112Z" fill="#444444"/>
<path d="M1216.02 235.15C1215.02 235.15 1214.06 234.999 1213.13 234.697C1212.21 234.382 1211.48 233.979 1210.96 233.488L1211.65 232.015C1212.16 232.468 1212.8 232.84 1213.58 233.129C1214.37 233.406 1215.19 233.545 1216.02 233.545C1217.11 233.545 1217.93 233.362 1218.47 232.997C1219.01 232.619 1219.28 232.122 1219.28 231.505C1219.28 231.052 1219.13 230.687 1218.83 230.41C1218.54 230.12 1218.18 229.9 1217.73 229.749C1217.31 229.598 1216.7 229.428 1215.9 229.239C1214.91 229 1214.1 228.761 1213.49 228.521C1212.88 228.282 1212.36 227.917 1211.92 227.426C1211.49 226.922 1211.28 226.249 1211.28 225.405C1211.28 224.7 1211.46 224.065 1211.82 223.498C1212.2 222.931 1212.77 222.478 1213.52 222.138C1214.28 221.798 1215.22 221.628 1216.34 221.628C1217.12 221.628 1217.89 221.729 1218.64 221.931C1219.4 222.132 1220.05 222.422 1220.59 222.799L1219.96 224.31C1219.41 223.958 1218.82 223.693 1218.19 223.517C1217.56 223.328 1216.94 223.234 1216.34 223.234C1215.27 223.234 1214.46 223.429 1213.92 223.819C1213.39 224.209 1213.13 224.713 1213.13 225.33C1213.13 225.783 1213.28 226.154 1213.58 226.444C1213.88 226.721 1214.25 226.941 1214.69 227.105C1215.15 227.256 1215.76 227.42 1216.53 227.596C1217.52 227.835 1218.32 228.074 1218.92 228.314C1219.53 228.553 1220.05 228.918 1220.47 229.409C1220.91 229.9 1221.13 230.561 1221.13 231.392C1221.13 232.084 1220.95 232.72 1220.57 233.299C1220.19 233.866 1219.62 234.319 1218.85 234.659C1218.08 234.986 1217.14 235.15 1216.02 235.15ZM1232.96 224.99V234.999H1231.24V233.488C1230.87 234.004 1230.39 234.407 1229.79 234.697C1229.19 234.974 1228.55 235.112 1227.84 235.112C1226.51 235.112 1225.45 234.747 1224.69 234.017C1223.92 233.274 1223.53 232.185 1223.53 230.75V224.99H1225.35V230.542C1225.35 231.512 1225.58 232.248 1226.05 232.752C1226.51 233.243 1227.18 233.488 1228.05 233.488C1229 233.488 1229.76 233.199 1230.31 232.619C1230.87 232.04 1231.15 231.222 1231.15 230.164V224.99H1232.96ZM1241.72 224.895C1242.69 224.895 1243.55 225.11 1244.32 225.538C1245.09 225.966 1245.69 226.564 1246.12 227.332C1246.56 228.1 1246.78 228.987 1246.78 229.994C1246.78 231.002 1246.56 231.896 1246.12 232.676C1245.69 233.444 1245.09 234.042 1244.32 234.47C1243.55 234.898 1242.69 235.112 1241.72 235.112C1241 235.112 1240.34 234.974 1239.73 234.697C1239.14 234.42 1238.64 234.017 1238.22 233.488V238.663H1236.41V224.99H1238.15V226.576C1238.55 226.022 1239.06 225.607 1239.68 225.33C1240.29 225.04 1240.97 224.895 1241.72 224.895ZM1241.57 233.526C1242.21 233.526 1242.78 233.381 1243.28 233.092C1243.8 232.789 1244.2 232.374 1244.49 231.845C1244.79 231.304 1244.95 230.687 1244.95 229.994C1244.95 229.302 1244.79 228.691 1244.49 228.163C1244.2 227.621 1243.8 227.206 1243.28 226.916C1242.78 226.627 1242.21 226.482 1241.57 226.482C1240.94 226.482 1240.36 226.633 1239.85 226.935C1239.34 227.225 1238.94 227.634 1238.64 228.163C1238.35 228.691 1238.2 229.302 1238.2 229.994C1238.2 230.687 1238.35 231.304 1238.64 231.845C1238.93 232.374 1239.33 232.789 1239.85 233.092C1240.36 233.381 1240.94 233.526 1241.57 233.526ZM1254.59 224.895C1255.56 224.895 1256.43 225.11 1257.2 225.538C1257.96 225.966 1258.56 226.564 1258.99 227.332C1259.43 228.1 1259.65 228.987 1259.65 229.994C1259.65 231.002 1259.43 231.896 1258.99 232.676C1258.56 233.444 1257.96 234.042 1257.2 234.47C1256.43 234.898 1255.56 235.112 1254.59 235.112C1253.87 235.112 1253.21 234.974 1252.61 234.697C1252.01 234.42 1251.51 234.017 1251.1 233.488V238.663H1249.28V224.99H1251.02V226.576C1251.42 226.022 1251.93 225.607 1252.55 225.33C1253.17 225.04 1253.85 224.895 1254.59 224.895ZM1254.44 233.526C1255.08 233.526 1255.65 233.381 1256.16 233.092C1256.67 232.789 1257.08 232.374 1257.37 231.845C1257.67 231.304 1257.82 230.687 1257.82 229.994C1257.82 229.302 1257.67 228.691 1257.37 228.163C1257.08 227.621 1256.67 227.206 1256.16 226.916C1255.65 226.627 1255.08 226.482 1254.44 226.482C1253.81 226.482 1253.24 226.633 1252.72 226.935C1252.22 227.225 1251.81 227.634 1251.51 228.163C1251.22 228.691 1251.08 229.302 1251.08 229.994C1251.08 230.687 1251.22 231.304 1251.51 231.845C1251.8 232.374 1252.2 232.789 1252.72 233.092C1253.24 233.381 1253.81 233.526 1254.44 233.526ZM1266.44 235.112C1265.45 235.112 1264.55 234.892 1263.76 234.451C1262.97 234.011 1262.34 233.406 1261.89 232.638C1261.45 231.858 1261.23 230.976 1261.23 229.994C1261.23 229.012 1261.45 228.137 1261.89 227.369C1262.34 226.589 1262.97 225.985 1263.76 225.556C1264.55 225.116 1265.45 224.895 1266.44 224.895C1267.44 224.895 1268.32 225.116 1269.1 225.556C1269.9 225.985 1270.52 226.589 1270.96 227.369C1271.41 228.137 1271.64 229.012 1271.64 229.994C1271.64 230.976 1271.41 231.858 1270.96 232.638C1270.52 233.406 1269.9 234.011 1269.1 234.451C1268.32 234.892 1267.44 235.112 1266.44 235.112ZM1266.44 233.526C1267.08 233.526 1267.66 233.381 1268.16 233.092C1268.68 232.789 1269.08 232.374 1269.37 231.845C1269.66 231.304 1269.8 230.687 1269.8 229.994C1269.8 229.302 1269.66 228.691 1269.37 228.163C1269.08 227.621 1268.68 227.206 1268.16 226.916C1267.66 226.627 1267.08 226.482 1266.44 226.482C1265.8 226.482 1265.22 226.627 1264.7 226.916C1264.2 227.206 1263.8 227.621 1263.5 228.163C1263.21 228.691 1263.06 229.302 1263.06 229.994C1263.06 230.687 1263.21 231.304 1263.5 231.845C1263.8 232.374 1264.2 232.789 1264.7 233.092C1265.22 233.381 1265.8 233.526 1266.44 233.526ZM1275.88 226.671C1276.2 226.092 1276.66 225.651 1277.28 225.349C1277.89 225.047 1278.64 224.895 1279.53 224.895V226.652C1279.42 226.639 1279.29 226.633 1279.11 226.633C1278.13 226.633 1277.35 226.929 1276.79 227.521C1276.23 228.1 1275.96 228.931 1275.96 230.013V234.999H1274.14V224.99H1275.88V226.671ZM1287.79 234.414C1287.53 234.64 1287.2 234.816 1286.81 234.942C1286.42 235.056 1286.02 235.112 1285.6 235.112C1284.6 235.112 1283.81 234.842 1283.26 234.3C1282.71 233.759 1282.43 232.985 1282.43 231.977V226.482H1280.73V224.99H1282.43V222.799H1284.24V224.99H1287.11V226.482H1284.24V231.902C1284.24 232.443 1284.37 232.859 1284.64 233.148C1284.92 233.438 1285.31 233.583 1285.81 233.583C1286.36 233.583 1286.84 233.425 1287.23 233.111L1287.79 234.414Z" fill="#444444"/>
<path d="M1337.46 234.999L1334.61 230.939C1334.26 230.964 1333.98 230.976 1333.78 230.976H1330.51V234.999H1328.62V221.779H1333.78C1335.49 221.779 1336.84 222.189 1337.82 223.007C1338.8 223.825 1339.29 224.952 1339.29 226.387C1339.29 227.407 1339.04 228.276 1338.54 228.994C1338.04 229.711 1337.32 230.234 1336.39 230.561L1339.52 234.999H1337.46ZM1333.72 229.371C1334.92 229.371 1335.83 229.113 1336.46 228.597C1337.09 228.081 1337.41 227.344 1337.41 226.387C1337.41 225.431 1337.09 224.7 1336.46 224.197C1335.83 223.681 1334.92 223.422 1333.72 223.422H1330.51V229.371H1333.72ZM1351.13 230.051C1351.13 230.19 1351.11 230.372 1351.09 230.599H1342.97C1343.08 231.48 1343.47 232.191 1344.12 232.733C1344.79 233.262 1345.61 233.526 1346.59 233.526C1347.79 233.526 1348.75 233.123 1349.48 232.317L1350.49 233.488C1350.03 234.017 1349.47 234.42 1348.79 234.697C1348.12 234.974 1347.37 235.112 1346.54 235.112C1345.48 235.112 1344.54 234.898 1343.72 234.47C1342.91 234.03 1342.27 233.419 1341.82 232.638C1341.38 231.858 1341.16 230.976 1341.16 229.994C1341.16 229.025 1341.37 228.15 1341.8 227.369C1342.24 226.589 1342.84 225.985 1343.59 225.556C1344.36 225.116 1345.22 224.895 1346.18 224.895C1347.14 224.895 1347.99 225.116 1348.73 225.556C1349.48 225.985 1350.07 226.589 1350.49 227.369C1350.91 228.15 1351.13 229.044 1351.13 230.051ZM1346.18 226.425C1345.31 226.425 1344.58 226.69 1343.99 227.218C1343.41 227.747 1343.07 228.44 1342.97 229.296H1349.39C1349.29 228.452 1348.94 227.766 1348.35 227.237C1347.77 226.696 1347.05 226.425 1346.18 226.425ZM1356.52 235.112C1355.7 235.112 1354.91 235.005 1354.15 234.791C1353.4 234.565 1352.81 234.281 1352.38 233.941L1353.13 232.506C1353.58 232.821 1354.11 233.073 1354.74 233.262C1355.37 233.45 1356.01 233.545 1356.65 233.545C1358.23 233.545 1359.03 233.092 1359.03 232.185C1359.03 231.883 1358.92 231.644 1358.71 231.468C1358.49 231.291 1358.22 231.165 1357.89 231.09C1357.58 231.002 1357.13 230.907 1356.53 230.807C1355.73 230.681 1355.07 230.536 1354.55 230.372C1354.05 230.208 1353.61 229.932 1353.25 229.541C1352.88 229.151 1352.7 228.603 1352.7 227.898C1352.7 226.992 1353.08 226.268 1353.83 225.726C1354.59 225.172 1355.6 224.895 1356.87 224.895C1357.54 224.895 1358.21 224.977 1358.88 225.141C1359.54 225.305 1360.09 225.525 1360.52 225.802L1359.74 227.237C1358.93 226.708 1357.96 226.444 1356.86 226.444C1356.09 226.444 1355.5 226.57 1355.1 226.822C1354.7 227.074 1354.49 227.407 1354.49 227.823C1354.49 228.15 1354.61 228.408 1354.83 228.597C1355.06 228.786 1355.34 228.924 1355.67 229.012C1356.01 229.101 1356.48 229.201 1357.08 229.315C1357.89 229.453 1358.54 229.604 1359.03 229.768C1359.53 229.919 1359.96 230.183 1360.31 230.561C1360.66 230.939 1360.84 231.468 1360.84 232.147C1360.84 233.054 1360.45 233.778 1359.67 234.319C1358.9 234.848 1357.85 235.112 1356.52 235.112ZM1367.39 235.112C1366.4 235.112 1365.5 234.892 1364.71 234.451C1363.92 234.011 1363.29 233.406 1362.84 232.638C1362.4 231.858 1362.18 230.976 1362.18 229.994C1362.18 229.012 1362.4 228.137 1362.84 227.369C1363.29 226.589 1363.92 225.985 1364.71 225.556C1365.5 225.116 1366.4 224.895 1367.39 224.895C1368.39 224.895 1369.27 225.116 1370.06 225.556C1370.85 225.985 1371.47 226.589 1371.91 227.369C1372.36 228.137 1372.59 229.012 1372.59 229.994C1372.59 230.976 1372.36 231.858 1371.91 232.638C1371.47 233.406 1370.85 234.011 1370.06 234.451C1369.27 234.892 1368.39 235.112 1367.39 235.112ZM1367.39 233.526C1368.03 233.526 1368.61 233.381 1369.11 233.092C1369.63 232.789 1370.03 232.374 1370.32 231.845C1370.61 231.304 1370.75 230.687 1370.75 229.994C1370.75 229.302 1370.61 228.691 1370.32 228.163C1370.03 227.621 1369.63 227.206 1369.11 226.916C1368.61 226.627 1368.03 226.482 1367.39 226.482C1366.75 226.482 1366.17 226.627 1365.66 226.916C1365.15 227.206 1364.75 227.621 1364.45 228.163C1364.16 228.691 1364.01 229.302 1364.01 229.994C1364.01 230.687 1364.16 231.304 1364.45 231.845C1364.75 232.374 1365.15 232.789 1365.66 233.092C1366.17 233.381 1366.75 233.526 1367.39 233.526ZM1384.42 224.99V234.999H1382.7V233.488C1382.34 234.004 1381.85 234.407 1381.25 234.697C1380.66 234.974 1380.01 235.112 1379.3 235.112C1377.97 235.112 1376.92 234.747 1376.15 234.017C1375.38 233.274 1375 232.185 1375 230.75V224.99H1376.81V230.542C1376.81 231.512 1377.04 232.248 1377.51 232.752C1377.98 233.243 1378.64 233.488 1379.51 233.488C1380.47 233.488 1381.22 233.199 1381.78 232.619C1382.33 232.04 1382.61 231.222 1382.61 230.164V224.99H1384.42ZM1389.61 226.671C1389.93 226.092 1390.39 225.651 1391.01 225.349C1391.63 225.047 1392.37 224.895 1393.26 224.895V226.652C1393.16 226.639 1393.02 226.633 1392.84 226.633C1391.86 226.633 1391.08 226.929 1390.52 227.521C1389.96 228.1 1389.69 228.931 1389.69 230.013V234.999H1387.87V224.99H1389.61V226.671ZM1399.76 235.112C1398.74 235.112 1397.83 234.892 1397.02 234.451C1396.23 234.011 1395.61 233.406 1395.15 232.638C1394.7 231.858 1394.47 230.976 1394.47 229.994C1394.47 229.012 1394.7 228.137 1395.15 227.369C1395.61 226.589 1396.23 225.985 1397.02 225.556C1397.83 225.116 1398.74 224.895 1399.76 224.895C1400.67 224.895 1401.47 225.078 1402.18 225.443C1402.9 225.808 1403.45 226.337 1403.84 227.03L1402.46 227.917C1402.15 227.439 1401.76 227.08 1401.29 226.841C1400.82 226.601 1400.31 226.482 1399.74 226.482C1399.09 226.482 1398.5 226.627 1397.97 226.916C1397.45 227.206 1397.04 227.621 1396.74 228.163C1396.45 228.691 1396.31 229.302 1396.31 229.994C1396.31 230.7 1396.45 231.323 1396.74 231.864C1397.04 232.393 1397.45 232.802 1397.97 233.092C1398.5 233.381 1399.09 233.526 1399.74 233.526C1400.31 233.526 1400.82 233.406 1401.29 233.167C1401.76 232.928 1402.15 232.569 1402.46 232.091L1403.84 232.959C1403.45 233.652 1402.9 234.187 1402.18 234.565C1401.47 234.93 1400.67 235.112 1399.76 235.112ZM1415.09 230.051C1415.09 230.19 1415.07 230.372 1415.05 230.599H1406.93C1407.04 231.48 1407.42 232.191 1408.08 232.733C1408.75 233.262 1409.57 233.526 1410.55 233.526C1411.75 233.526 1412.71 233.123 1413.44 232.317L1414.44 233.488C1413.99 234.017 1413.42 234.42 1412.74 234.697C1412.08 234.974 1411.33 235.112 1410.5 235.112C1409.44 235.112 1408.5 234.898 1407.68 234.47C1406.86 234.03 1406.23 233.419 1405.78 232.638C1405.33 231.858 1405.11 230.976 1405.11 229.994C1405.11 229.025 1405.33 228.15 1405.76 227.369C1406.2 226.589 1406.8 225.985 1407.55 225.556C1408.32 225.116 1409.18 224.895 1410.14 224.895C1411.09 224.895 1411.94 225.116 1412.69 225.556C1413.44 225.985 1414.03 226.589 1414.44 227.369C1414.87 228.15 1415.09 229.044 1415.09 230.051ZM1410.14 226.425C1409.27 226.425 1408.54 226.69 1407.95 227.218C1407.37 227.747 1407.03 228.44 1406.93 229.296H1413.35C1413.25 228.452 1412.9 227.766 1412.31 227.237C1411.73 226.696 1411.01 226.425 1410.14 226.425ZM1420.47 235.112C1419.66 235.112 1418.87 235.005 1418.11 234.791C1417.36 234.565 1416.77 234.281 1416.34 233.941L1417.09 232.506C1417.53 232.821 1418.07 233.073 1418.7 233.262C1419.33 233.45 1419.96 233.545 1420.61 233.545C1422.19 233.545 1422.99 233.092 1422.99 232.185C1422.99 231.883 1422.88 231.644 1422.66 231.468C1422.45 231.291 1422.18 231.165 1421.85 231.09C1421.54 231.002 1421.08 230.907 1420.49 230.807C1419.69 230.681 1419.03 230.536 1418.51 230.372C1418.01 230.208 1417.57 229.932 1417.21 229.541C1416.84 229.151 1416.66 228.603 1416.66 227.898C1416.66 226.992 1417.04 226.268 1417.79 225.726C1418.55 225.172 1419.56 224.895 1420.83 224.895C1421.5 224.895 1422.17 224.977 1422.83 225.141C1423.5 225.305 1424.05 225.525 1424.48 225.802L1423.7 227.237C1422.88 226.708 1421.92 226.444 1420.81 226.444C1420.05 226.444 1419.46 226.57 1419.06 226.822C1418.65 227.074 1418.45 227.407 1418.45 227.823C1418.45 228.15 1418.57 228.408 1418.79 228.597C1419.02 228.786 1419.3 228.924 1419.62 229.012C1419.96 229.101 1420.44 229.201 1421.04 229.315C1421.85 229.453 1422.49 229.604 1422.99 229.768C1423.49 229.919 1423.92 230.183 1424.27 230.561C1424.62 230.939 1424.8 231.468 1424.8 232.147C1424.8 233.054 1424.41 233.778 1423.63 234.319C1422.86 234.848 1421.81 235.112 1420.47 235.112Z" fill="#444444"/>
<path d="M1483.47 231.694H1476.44L1474.99 234.999H1473.04L1479.03 221.779H1480.9L1486.9 234.999H1484.92L1483.47 231.694ZM1482.8 230.183L1479.95 223.706L1477.1 230.183H1482.8ZM1493.92 224.895C1494.89 224.895 1495.76 225.11 1496.52 225.538C1497.29 225.966 1497.89 226.564 1498.32 227.332C1498.76 228.1 1498.98 228.987 1498.98 229.994C1498.98 231.002 1498.76 231.896 1498.32 232.676C1497.89 233.444 1497.29 234.042 1496.52 234.47C1495.76 234.898 1494.89 235.112 1493.92 235.112C1493.17 235.112 1492.49 234.968 1491.88 234.678C1491.26 234.388 1490.75 233.967 1490.35 233.413V234.999H1488.61V220.986H1490.42V226.501C1490.83 225.972 1491.33 225.575 1491.93 225.311C1492.54 225.034 1493.2 224.895 1493.92 224.895ZM1493.77 233.526C1494.41 233.526 1494.98 233.381 1495.48 233.092C1496 232.789 1496.4 232.374 1496.69 231.845C1497 231.304 1497.15 230.687 1497.15 229.994C1497.15 229.302 1497 228.691 1496.69 228.163C1496.4 227.621 1496 227.206 1495.48 226.916C1494.98 226.627 1494.41 226.482 1493.77 226.482C1493.14 226.482 1492.56 226.627 1492.05 226.916C1491.53 227.206 1491.13 227.621 1490.84 228.163C1490.55 228.691 1490.4 229.302 1490.4 229.994C1490.4 230.687 1490.55 231.304 1490.84 231.845C1491.13 232.374 1491.53 232.789 1492.05 233.092C1492.56 233.381 1493.14 233.526 1493.77 233.526ZM1505.77 235.112C1504.78 235.112 1503.88 234.892 1503.09 234.451C1502.3 234.011 1501.67 233.406 1501.22 232.638C1500.78 231.858 1500.56 230.976 1500.56 229.994C1500.56 229.012 1500.78 228.137 1501.22 227.369C1501.67 226.589 1502.3 225.985 1503.09 225.556C1503.88 225.116 1504.78 224.895 1505.77 224.895C1506.77 224.895 1507.65 225.116 1508.43 225.556C1509.23 225.985 1509.84 226.589 1510.28 227.369C1510.74 228.137 1510.96 229.012 1510.96 229.994C1510.96 230.976 1510.74 231.858 1510.28 232.638C1509.84 233.406 1509.23 234.011 1508.43 234.451C1507.65 234.892 1506.77 235.112 1505.77 235.112ZM1505.77 233.526C1506.41 233.526 1506.99 233.381 1507.49 233.092C1508.01 232.789 1508.41 232.374 1508.7 231.845C1508.99 231.304 1509.13 230.687 1509.13 229.994C1509.13 229.302 1508.99 228.691 1508.7 228.163C1508.41 227.621 1508.01 227.206 1507.49 226.916C1506.99 226.627 1506.41 226.482 1505.77 226.482C1505.13 226.482 1504.55 226.627 1504.03 226.916C1503.53 227.206 1503.13 227.621 1502.82 228.163C1502.53 228.691 1502.39 229.302 1502.39 229.994C1502.39 230.687 1502.53 231.304 1502.82 231.845C1503.13 232.374 1503.53 232.789 1504.03 233.092C1504.55 233.381 1505.13 233.526 1505.77 233.526ZM1522.8 224.99V234.999H1521.08V233.488C1520.72 234.004 1520.23 234.407 1519.63 234.697C1519.04 234.974 1518.39 235.112 1517.68 235.112C1516.35 235.112 1515.3 234.747 1514.53 234.017C1513.76 233.274 1513.38 232.185 1513.38 230.75V224.99H1515.19V230.542C1515.19 231.512 1515.42 232.248 1515.89 232.752C1516.35 233.243 1517.02 233.488 1517.89 233.488C1518.85 233.488 1519.6 233.199 1520.16 232.619C1520.71 232.04 1520.99 231.222 1520.99 230.164V224.99H1522.8ZM1531.88 234.414C1531.62 234.64 1531.29 234.816 1530.9 234.942C1530.51 235.056 1530.1 235.112 1529.69 235.112C1528.68 235.112 1527.9 234.842 1527.35 234.3C1526.79 233.759 1526.52 232.985 1526.52 231.977V226.482H1524.82V224.99H1526.52V222.799H1528.33V224.99H1531.2V226.482H1528.33V231.902C1528.33 232.443 1528.46 232.859 1528.73 233.148C1529 233.438 1529.39 233.583 1529.9 233.583C1530.45 233.583 1530.92 233.425 1531.31 233.111L1531.88 234.414Z" fill="#444444"/>
</g>
<g clip-path="url(#clip11_4017_35115)">
<path d="M1572.65 226.572C1572.04 221.58 1576.23 217.378 1581.23 217.991C1584.53 218.393 1587.27 221.013 1587.82 224.294C1588.23 226.69 1587.49 228.945 1586.08 230.598L1586.41 230.916H1587.34L1592.36 235.945C1592.84 236.428 1592.84 237.208 1592.36 237.692L1592.34 237.703C1591.86 238.187 1591.08 238.187 1590.6 237.703L1585.57 232.687V231.754L1585.25 231.424C1583.6 232.84 1581.34 233.571 1578.95 233.17C1575.67 232.615 1573.05 229.877 1572.65 226.572ZM1580.26 220.293C1577.32 220.293 1574.95 222.666 1574.95 225.605C1574.95 228.544 1577.32 230.916 1580.26 230.916C1583.2 230.916 1585.57 228.544 1585.57 225.605C1585.57 222.666 1583.2 220.293 1580.26 220.293Z" fill="#4F4F4F"/>
</g>
</g>
</g>
<path d="M1747.9 268.326V267.146H682.533V268.326V269.507H1747.9V268.326Z" fill="#D2CFC6" mask="url(#path-107-inside-1_4017_35115)"/>
</g>
</g>
<g clip-path="url(#clip12_4017_35115)">
<path d="M573.712 805.769C573.712 803.451 575.591 801.572 577.909 801.572H1852.33C1854.65 801.572 1856.53 803.451 1856.53 805.769V805.769C1856.53 824.311 1841.5 839.343 1822.96 839.343H607.286C588.743 839.343 573.712 824.311 573.712 805.769V805.769Z" fill="#505F8A"/>
<path d="M1075.59 801.572H1355.48V801.572C1355.48 808.526 1349.84 814.162 1342.89 814.162H1088.18C1081.23 814.162 1075.59 808.526 1075.59 801.572V801.572Z" fill="url(#paint1_linear_4017_35115)"/>
<rect x="573.712" y="820.457" width="1283" height="19.1149" fill="url(#paint2_linear_4017_35115)"/>
<g opacity="0.3" style="mix-blend-mode:lighten">
<rect x="573.712" y="801.572" width="93.296" height="38" fill="url(#paint3_linear_4017_35115)"/>
</g>
</g>
</g>
</g>
</g>
<defs>
<filter id="filter0_d_4017_35115" x="1224.3" y="312.546" width="730.099" height="545.94" filterUnits="userSpaceOnUse" color-interpolation-filters="sRGB">
<feFlood flood-opacity="0" result="BackgroundImageFix"/>
<feColorMatrix in="SourceAlpha" type="matrix" values="0 0 0 0 0 0 0 0 0 0 0 0 0 0 0 0 0 0 127 0" result="hardAlpha"/>
<feOffset/>
<feGaussianBlur stdDeviation="23.6064"/>
<feColorMatrix type="matrix" values="0 0 0 0 0.12549 0 0 0 0 0.164706 0 0 0 0 0.258824 0 0 0 0.24 0"/>
<feBlend mode="normal" in2="BackgroundImageFix" result="effect1_dropShadow_4017_35115"/>
<feBlend mode="normal" in="SourceGraphic" in2="effect1_dropShadow_4017_35115" result="shape"/>
</filter>
<radialGradient id="paint0_radial_4017_35115" cx="0" cy="0" r="1" gradientUnits="userSpaceOnUse" gradientTransform="translate(661.203 398.801) rotate(63.7097) scale(660.552 669.285)">
<stop/>
<stop offset="1" stop-opacity="0"/>
</radialGradient>
<linearGradient id="paint1_linear_4017_35115" x1="1355.91" y1="801.572" x2="1075.59" y2="801.572" gradientUnits="userSpaceOnUse">
<stop stop-color="#040B1F" stop-opacity="0.8"/>
<stop offset="0.131938" stop-color="#F2F4F7" stop-opacity="0.2"/>
<stop offset="0.340275" stop-color="#E3E2B4"/>
<stop offset="0.845492" stop-color="#F2F4F7" stop-opacity="0.2"/>
<stop offset="1" stop-color="#040B1F" stop-opacity="0.9"/>
</linearGradient>
<linearGradient id="paint2_linear_4017_35115" x1="1215.21" y1="820.457" x2="1215.21" y2="847.536" gradientUnits="userSpaceOnUse">
<stop offset="0.0304892" stop-opacity="0"/>
<stop offset="1"/>
</linearGradient>
<linearGradient id="paint3_linear_4017_35115" x1="667.008" y1="801.572" x2="544.557" y2="801.572" gradientUnits="userSpaceOnUse">
<stop stop-color="#202A42" stop-opacity="0"/>
<stop offset="1" stop-color="white"/>
</linearGradient>
<clipPath id="clip0_4017_35115">
<rect width="1600" height="1000" fill="white"/>
</clipPath>
<clipPath id="clip1_4017_35115">
<rect width="1699.66" height="1133.11" fill="white" transform="translate(-99.6606)"/>
</clipPath>
<clipPath id="clip2_4017_35115">
<rect width="1699.66" height="1133.11" fill="white" transform="translate(-99.6606)"/>
</clipPath>
<clipPath id="clip3_4017_35115">
<rect x="682.533" y="187.671" width="1065.37" height="590.296" rx="14.1638" fill="white"/>
</clipPath>
<clipPath id="clip4_4017_35115">
<rect width="1065.37" height="1059.09" fill="white" transform="translate(682.533 187.671)"/>
</clipPath>
<clipPath id="clip5_4017_35115">
<rect width="1065.37" height="542.947" fill="white" transform="translate(682.533 268.326)"/>
</clipPath>
<clipPath id="clip6_4017_35115">
<rect width="447.341" height="147.885" fill="white" transform="translate(786.401 413.923)"/>
</clipPath>
<clipPath id="clip7_4017_35115">
<rect x="1271.51" y="359.759" width="635.673" height="451.515" rx="14.1638" fill="white"/>
</clipPath>
<clipPath id="clip8_4017_35115">
<path d="M682.533 187.671H1747.9V268.326H682.533V187.671Z" fill="white"/>
</clipPath>
<clipPath id="clip9_4017_35115">
<rect width="1065.37" height="80.6554" fill="white" transform="translate(682.533 187.671)"/>
</clipPath>
<clipPath id="clip10_4017_35115">
<rect width="625.54" height="80.6554" fill="white" transform="translate(935.495 187.671)"/>
</clipPath>
<clipPath id="clip11_4017_35115">
<rect width="103.868" height="28.3277" fill="white" transform="translate(1568.49 213.835)"/>
</clipPath>
<clipPath id="clip12_4017_35115">
<path d="M573.712 805.769C573.712 803.451 575.591 801.572 577.909 801.572H1852.33C1854.65 801.572 1856.53 803.451 1856.53 805.769V805.769C1856.53 824.311 1841.5 839.343 1822.96 839.343H607.286C588.743 839.343 573.712 824.311 573.712 805.769V805.769Z" fill="white"/>
</clipPath>
</defs>
</svg>
