<svg width="1600" height="1000" viewBox="0 0 1600 1000" fill="none" xmlns="http://www.w3.org/2000/svg">
<g clip-path="url(#clip0_4018_51648)">
<rect width="1600" height="1000" fill="#234E8F"/>
<path opacity="0.6" d="M-501.95 1142.8V-52.8107C-501.95 -64.0149 -485.993 -68.8844 -479.817 -59.5366C-386.622 81.5061 7.00659 582.786 816.716 439.015C1685.57 284.743 2046.73 1027.3 2096.01 1139.54C2099.07 1146.51 2093.72 1153.6 2086.12 1153.6H-491.155C-497.117 1153.6 -501.95 1148.77 -501.95 1142.8Z" fill="url(#paint0_radial_4018_51648)"/>
<g clip-path="url(#clip1_4018_51648)">
<rect width="540.366" height="473.366" transform="translate(139.634 273.17)" fill="white"/>
<g filter="url(#filter0_i_4018_51648)">
<rect width="540.366" height="29.2708" transform="translate(139.634 273.17)" fill="#202A42"/>
<circle cx="159.151" cy="287.805" r="4.8793" fill="#CF3232"/>
<circle cx="173.788" cy="287.805" r="4.8793" fill="#FFCC00"/>
<circle cx="188.427" cy="287.805" r="4.8793" fill="#28BB5A"/>
</g>
<rect width="540.366" height="43.9024" transform="translate(139.634 302.441)" fill="#005FBA"/>
<g clip-path="url(#clip2_4018_51648)">
<path d="M157.939 326.474C156.296 324.832 156.296 322.168 157.939 320.526L168.052 330.639C169.695 332.281 169.695 334.945 168.052 336.588L157.939 326.474Z" fill="white"/>
<path d="M162.103 322.31C160.461 320.668 160.461 318.004 162.103 316.361L172.217 326.474C173.859 328.117 173.859 330.781 172.217 332.423L162.103 322.31Z" fill="white"/>
<path d="M166.268 318.146C164.625 316.503 164.625 313.84 166.268 312.197L176.381 322.31C178.024 323.953 178.024 326.616 176.381 328.259L166.268 318.146Z" fill="white"/>
</g>
<path d="M191.055 324.145C192.253 324.145 193.246 324.602 194.063 325.517L195.845 323.916C194.735 322.573 193.012 321.858 190.939 321.858C187.23 321.858 184.455 324.373 184.455 327.889C184.455 331.405 187.2 333.92 190.909 333.92C192.983 333.92 194.706 333.177 195.816 331.833L194.034 330.233C193.246 331.147 192.224 331.605 191.026 331.605C188.807 331.605 187.2 330.061 187.2 327.861C187.23 325.688 188.807 324.145 191.055 324.145ZM201.102 324.631C199.642 324.631 198.152 325.002 197.159 325.717L198.123 327.546C198.795 327.032 199.788 326.717 200.751 326.717C202.182 326.717 202.854 327.375 202.854 328.489H200.751C197.948 328.489 196.809 329.575 196.809 331.176C196.809 332.72 198.094 333.891 200.226 333.891C201.569 333.891 202.533 333.463 203.029 332.634V333.748H205.512V328.604C205.512 325.888 203.905 324.631 201.102 324.631ZM202.854 330.89C202.562 331.719 201.773 332.119 200.897 332.119C199.963 332.119 199.408 331.691 199.408 331.033C199.408 330.433 199.788 329.976 201.043 329.976H202.854V330.89ZM209.805 327.432C209.805 326.974 210.301 326.603 211.499 326.603C212.346 326.603 213.222 326.774 214.127 327.26L215.003 325.402C214.127 324.917 212.725 324.631 211.469 324.631C208.783 324.631 207.235 325.831 207.235 327.518C207.235 331.09 212.754 329.604 212.754 331.062C212.754 331.548 212.287 331.891 211.061 331.891C209.951 331.891 208.695 331.548 207.877 331.033L207.001 332.891C207.848 333.434 209.425 333.863 210.973 333.863C213.718 333.863 215.295 332.691 215.295 331.005C215.324 327.46 209.805 328.947 209.805 327.432ZM225.926 329.261C225.926 326.374 223.852 324.602 221.165 324.602C218.362 324.602 216.288 326.546 216.288 329.232C216.288 331.891 218.362 333.834 221.516 333.834C223.18 333.834 224.436 333.348 225.283 332.377L223.881 330.89C223.239 331.462 222.567 331.748 221.574 331.748C220.172 331.748 219.209 331.062 218.946 329.947H225.867C225.896 329.747 225.926 329.461 225.926 329.261ZM218.917 328.461C219.092 327.317 219.968 326.603 221.195 326.603C222.392 326.603 223.268 327.346 223.443 328.461H218.917ZM234.366 321.344V325.688C233.694 324.945 232.76 324.602 231.621 324.602C229.021 324.602 227.035 326.403 227.035 329.232C227.035 332.062 229.021 333.834 231.621 333.834C232.847 333.834 233.811 333.463 234.483 332.662V333.691H237.023V321.344H234.366ZM232.088 331.719C230.774 331.719 229.752 330.776 229.752 329.232C229.752 327.689 230.774 326.746 232.088 326.746C233.402 326.746 234.424 327.689 234.424 329.232C234.424 330.776 233.402 331.719 232.088 331.719ZM243.565 324.631C240.645 324.631 238.513 326.546 238.513 329.261C238.513 331.948 240.645 333.863 243.565 333.863C246.486 333.863 248.589 331.948 248.589 329.261C248.589 326.546 246.457 324.631 243.565 324.631ZM243.565 331.719C242.251 331.719 241.229 330.776 241.229 329.232C241.229 327.689 242.251 326.746 243.565 326.746C244.88 326.746 245.902 327.689 245.902 329.232C245.902 330.776 244.88 331.719 243.565 331.719ZM254.809 331.719C253.466 331.719 252.414 330.804 252.414 329.232C252.414 327.66 253.466 326.746 254.809 326.746C255.656 326.746 256.386 327.117 256.883 327.975L258.956 326.889C258.284 325.431 256.766 324.602 254.838 324.602C251.859 324.602 249.728 326.517 249.728 329.232C249.728 331.919 251.859 333.834 254.838 333.834C256.766 333.834 258.284 333.005 258.956 331.576L256.883 330.49C256.386 331.348 255.656 331.719 254.809 331.719Z" fill="white"/>
<g clip-path="url(#clip3_4018_51648)">
<rect width="39.0244" height="44" transform="translate(339.634 302.441)" fill="#0053B9"/>
<rect x="351.829" y="317.125" width="14.6341" height="14.6341" rx="2.43902" fill="#FFCC00"/>
<mask id="path-8-inside-1_4018_51648" fill="white">
<path d="M378.658 302.441H417.683V346.441H378.658V302.441Z"/>
</mask>
<path d="M417.683 302.441H416.463V346.441H417.683H418.902V302.441H417.683Z" fill="#0053B9" mask="url(#path-8-inside-1_4018_51648)"/>
<rect x="390.854" y="317.125" width="14.6341" height="14.6341" rx="2.43902" fill="white"/>
</g>
<g filter="url(#filter1_d_4018_51648)">
<rect width="540.366" height="400.193" transform="translate(139.634 346.344)" fill="#202A42"/>
<mask id="path-11-inside-2_4018_51648" fill="white">
<path d="M139.634 346.344H188.414V746.536H139.634V346.344Z"/>
</mask>
<path d="M139.634 346.344H188.414V746.536H139.634V346.344Z" fill="white" fill-opacity="0.04"/>
<path d="M188.414 346.344H187.195V746.536H188.414H189.634V346.344H188.414Z" fill="#536175" mask="url(#path-11-inside-2_4018_51648)"/>
<rect opacity="0.4" x="154.268" y="424.393" width="19.5122" height="19.5122" rx="9.7561" fill="white"/>
<rect opacity="0.4" x="154.268" y="463.416" width="19.5122" height="19.5122" rx="9.7561" fill="white"/>
<rect opacity="0.4" x="154.268" y="502.441" width="19.5122" height="19.5122" rx="9.7561" fill="white"/>
<rect opacity="0.4" x="154.268" y="541.465" width="19.5122" height="19.5122" rx="9.7561" fill="white"/>
<rect x="181.098" y="407.32" width="14.6341" height="14.6341" rx="7.31707" fill="#FFCC00"/>
<g filter="url(#filter2_d_4018_51648)">
<g clip-path="url(#clip4_4018_51648)">
<g opacity="0.1">
<rect width="462.317" height="29.2683" transform="translate(203.048 360.979)" fill="#EEEEEE"/>
</g>
<path d="M222.561 409.758H334.756" stroke="white" stroke-opacity="0.6" stroke-width="4.87805" stroke-linecap="round"/>
<path d="M222.561 429.27H505.487" stroke="white" stroke-opacity="0.6" stroke-width="4.87805" stroke-linecap="round"/>
<mask id="path-21-inside-3_4018_51648" fill="white">
<path d="M203.048 448.783H665.365V473.173H203.048V448.783Z"/>
</mask>
<path d="M203.048 448.783V450.003H665.365V448.783V447.564H203.048V448.783ZM665.365 473.173V471.954H203.048V473.173V474.393H665.365V473.173Z" fill="white" fill-opacity="0.2" mask="url(#path-21-inside-3_4018_51648)"/>
<path d="M242.073 448.783L242.073 473.173" stroke="white" stroke-opacity="0.2" stroke-width="1.21951"/>
<rect x="251.829" y="457.32" width="78.0488" height="7.31707" rx="2.43902" fill="white" fill-opacity="0.2"/>
<path d="M467.683 448.783L467.683 473.173" stroke="white" stroke-opacity="0.2" stroke-width="1.21951"/>
<rect x="477.438" y="457.32" width="87.8049" height="7.31707" rx="2.43902" fill="white" fill-opacity="0.2"/>
<path d="M575 448.783L575 473.173" stroke="white" stroke-opacity="0.2" stroke-width="1.21951"/>
<rect x="584.756" y="457.32" width="87.8049" height="7.31707" rx="2.43902" fill="white" fill-opacity="0.2"/>
<g opacity="0.4">
<path d="M217.438 492.379C217.034 492.379 216.707 492.696 216.707 493.087V493.358C216.707 493.397 216.739 493.429 216.78 493.429H219.568C220.04 493.429 220.46 493.721 220.609 494.155L221.009 495.316C221.059 495.46 221.199 495.558 221.356 495.558H228.288C228.818 495.558 229.273 495.925 229.368 496.43L229.732 498.368C229.748 498.452 229.877 498.441 229.877 498.355V493.087C229.877 492.696 229.55 492.379 229.146 492.379H217.438Z" fill="#F8F9FA"/>
<path d="M215.479 494.161C215.486 494.159 215.495 494.157 215.503 494.157H219.504C219.663 494.157 219.804 494.255 219.854 494.4L220.256 495.565C220.407 496 220.829 496.293 221.305 496.293H228.283C228.461 496.293 228.613 496.416 228.645 496.585L229.876 503.113C229.877 503.119 229.878 503.126 229.877 503.133C229.832 503.484 229.522 503.755 229.146 503.755H229.095C229.064 503.759 229.032 503.761 229 503.761H217.249C216.883 503.761 216.572 503.501 216.52 503.151L215.247 494.543C215.222 494.374 215.324 494.219 215.479 494.161Z" fill="#F8F9FA"/>
</g>
<path d="M256.707 498.07H257.707" stroke="#15BB4C" stroke-width="4.87805" stroke-linecap="round"/>
<path d="M296.731 498.07H373.56" stroke="white" stroke-opacity="0.2" stroke-width="4.87805" stroke-linecap="round"/>
<path d="M412.585 498.07H488.195" stroke="#FFCC00" stroke-width="4.87805" stroke-linecap="round"/>
<path d="M421.463 498.07H475.121" stroke="white" stroke-opacity="0.2" stroke-width="4.87805" stroke-linecap="round"/>
<path d="M494.634 498.07H562.926" stroke="#0083F5" stroke-width="4.87805" stroke-linecap="round"/>
<path d="M582.439 498.07H631.219" stroke="white" stroke-opacity="0.2" stroke-width="4.87805" stroke-linecap="round"/>
<path d="M212.804 524.188H655.609" stroke="#536175" stroke-width="1.21951"/>
<g opacity="0.4">
<path d="M217.438 544.613C217.034 544.613 216.707 544.93 216.707 545.321V545.592C216.707 545.631 216.739 545.663 216.78 545.663H219.568C220.04 545.663 220.46 545.956 220.609 546.389L221.009 547.55C221.059 547.695 221.199 547.792 221.356 547.792H228.288C228.818 547.792 229.273 548.159 229.368 548.664L229.732 550.602C229.748 550.687 229.877 550.675 229.877 550.589V545.321C229.877 544.93 229.55 544.613 229.146 544.613H217.438Z" fill="#F8F9FA"/>
<path d="M215.479 546.396C215.486 546.393 215.495 546.392 215.503 546.392H219.504C219.663 546.392 219.804 546.49 219.854 546.634L220.256 547.799C220.407 548.234 220.829 548.528 221.305 548.528H228.283C228.461 548.528 228.613 548.65 228.645 548.819L229.876 555.347C229.877 555.354 229.878 555.361 229.877 555.367C229.832 555.718 229.522 555.99 229.146 555.99H229.095C229.064 555.993 229.032 555.995 229 555.995H217.249C216.883 555.995 216.572 555.735 216.52 555.386L215.247 546.777C215.222 546.608 215.324 546.453 215.479 546.396Z" fill="#F8F9FA"/>
</g>
<path d="M256.707 550.305H257.707" stroke="white" stroke-opacity="0.2" stroke-width="4.87805" stroke-linecap="round"/>
<path d="M296.731 550.305H373.56" stroke="#15BB4C" stroke-width="4.87805" stroke-linecap="round"/>
<path d="M412.585 550.305H488.195" stroke="#FFCC00" stroke-width="4.87805" stroke-linecap="round"/>
<path d="M421.463 550.305H475.121" stroke="white" stroke-opacity="0.2" stroke-width="4.87805" stroke-linecap="round"/>
<path d="M494.634 550.305H562.926" stroke="white" stroke-opacity="0.2" stroke-width="4.87805" stroke-linecap="round"/>
<path d="M582.439 550.305H631.219" stroke="#0083F5" stroke-width="4.87805" stroke-linecap="round"/>
<path d="M212.804 576.42H655.609" stroke="#536175" stroke-width="1.21951"/>
<g opacity="0.4">
<path d="M217.438 596.846C217.034 596.846 216.707 597.163 216.707 597.554V597.825C216.707 597.864 216.739 597.895 216.78 597.895H219.568C220.04 597.895 220.46 598.188 220.609 598.621L221.009 599.783C221.059 599.927 221.199 600.025 221.356 600.025H228.288C228.818 600.025 229.273 600.392 229.368 600.896L229.732 602.834C229.748 602.919 229.877 602.908 229.877 602.822V597.554C229.877 597.163 229.55 596.846 229.146 596.846H217.438Z" fill="#F8F9FA"/>
<path d="M215.479 598.628C215.486 598.625 215.495 598.624 215.503 598.624H219.504C219.663 598.624 219.804 598.722 219.854 598.867L220.256 600.032C220.407 600.467 220.829 600.76 221.305 600.76H228.283C228.461 600.76 228.613 600.883 228.645 601.051L229.876 607.579C229.877 607.586 229.878 607.593 229.877 607.6C229.832 607.95 229.522 608.222 229.146 608.222H229.095C229.064 608.226 229.032 608.228 229 608.228H217.249C216.883 608.228 216.572 607.968 216.52 607.618L215.247 599.01C215.222 598.841 215.324 598.686 215.479 598.628Z" fill="#F8F9FA"/>
</g>
<path d="M256.707 602.537H257.707" stroke="white" stroke-opacity="0.2" stroke-width="4.87805" stroke-linecap="round"/>
<path d="M296.731 602.537H373.56" stroke="#15BB4C" stroke-width="4.87805" stroke-linecap="round"/>
<path d="M412.585 602.537H488.195" stroke="#FFCC00" stroke-width="4.87805" stroke-linecap="round"/>
<path d="M421.463 602.537H475.121" stroke="#0083F5" stroke-width="4.87805" stroke-linecap="round"/>
<path d="M494.634 602.537H562.926" stroke="#0083F5" stroke-width="4.87805" stroke-linecap="round"/>
<path d="M582.439 602.537H631.219" stroke="white" stroke-opacity="0.2" stroke-width="4.87805" stroke-linecap="round"/>
<path d="M212.804 628.654H655.609" stroke="#536175" stroke-width="1.21951"/>
<g opacity="0.4">
<path d="M217.438 649.08C217.034 649.08 216.707 649.397 216.707 649.788V650.059C216.707 650.098 216.739 650.13 216.78 650.13H219.568C220.04 650.13 220.46 650.422 220.609 650.856L221.009 652.017C221.059 652.161 221.199 652.259 221.356 652.259H228.288C228.818 652.259 229.273 652.626 229.368 653.131L229.732 655.069C229.748 655.154 229.877 655.142 229.877 655.056V649.788C229.877 649.397 229.55 649.08 229.146 649.08H217.438Z" fill="#F8F9FA"/>
<path d="M215.479 650.863C215.486 650.86 215.495 650.859 215.503 650.859H219.504C219.663 650.859 219.804 650.956 219.854 651.101L220.256 652.266C220.407 652.701 220.829 652.994 221.305 652.994H228.283C228.461 652.994 228.613 653.117 228.645 653.286L229.876 659.814C229.877 659.82 229.878 659.827 229.877 659.834C229.832 660.185 229.522 660.456 229.146 660.456H229.095C229.064 660.46 229.032 660.462 229 660.462H217.249C216.883 660.462 216.572 660.202 216.52 659.852L215.247 651.244C215.222 651.075 215.324 650.92 215.479 650.863Z" fill="#F8F9FA"/>
</g>
<path d="M256.707 654.771H257.707" stroke="#15BB4C" stroke-width="4.87805" stroke-linecap="round"/>
<path d="M296.731 654.771H373.56" stroke="white" stroke-opacity="0.2" stroke-width="4.87805" stroke-linecap="round"/>
<path d="M412.585 654.771H488.195" stroke="#FFCC00" stroke-width="4.87805" stroke-linecap="round"/>
<path d="M421.463 654.771H475.121" stroke="white" stroke-opacity="0.2" stroke-width="4.87805" stroke-linecap="round"/>
<path d="M494.634 654.771H562.926" stroke="#0083F5" stroke-width="4.87805" stroke-linecap="round"/>
<path d="M582.439 654.771H631.219" stroke="white" stroke-opacity="0.2" stroke-width="4.87805" stroke-linecap="round"/>
<path d="M212.804 680.889H655.609" stroke="#536175" stroke-width="1.21951"/>
<g opacity="0.4">
<path d="M217.438 701.314C217.034 701.314 216.707 701.631 216.707 702.022V702.293C216.707 702.333 216.739 702.364 216.78 702.364H219.568C220.04 702.364 220.46 702.657 220.609 703.09L221.009 704.251C221.059 704.396 221.199 704.493 221.356 704.493H228.288C228.818 704.493 229.273 704.86 229.368 705.365L229.732 707.303C229.748 707.388 229.877 707.377 229.877 707.29V702.022C229.877 701.631 229.55 701.314 229.146 701.314H217.438Z" fill="#F8F9FA"/>
<path d="M215.479 703.097C215.486 703.094 215.495 703.093 215.503 703.093H219.504C219.663 703.093 219.804 703.191 219.854 703.336L220.256 704.5C220.407 704.935 220.829 705.229 221.305 705.229H228.283C228.461 705.229 228.613 705.351 228.645 705.52L229.876 712.048C229.877 712.055 229.878 712.062 229.877 712.069C229.832 712.419 229.522 712.691 229.146 712.691H229.095C229.064 712.695 229.032 712.697 229 712.697H217.249C216.883 712.697 216.572 712.437 216.52 712.087L215.247 703.478C215.222 703.309 215.324 703.155 215.479 703.097Z" fill="#F8F9FA"/>
</g>
<path d="M256.707 707.006H257.707" stroke="white" stroke-opacity="0.2" stroke-width="4.87805" stroke-linecap="round"/>
<path d="M296.731 707.006H373.56" stroke="#15BB4C" stroke-width="4.87805" stroke-linecap="round"/>
<path d="M412.585 707.006H488.195" stroke="#FFCC00" stroke-width="4.87805" stroke-linecap="round"/>
<path d="M421.463 707.006H475.121" stroke="white" stroke-opacity="0.2" stroke-width="4.87805" stroke-linecap="round"/>
<path d="M494.634 707.006H562.926" stroke="#0083F5" stroke-width="4.87805" stroke-linecap="round"/>
<path d="M582.439 707.006H631.219" stroke="white" stroke-opacity="0.2" stroke-width="4.87805" stroke-linecap="round"/>
</g>
<rect x="203.048" y="360.979" width="462.317" height="370.924" rx="4.87805" stroke="#536175" stroke-width="1.21951"/>
</g>
</g>
</g>
<g filter="url(#filter3_ii_4018_51648)">
<path d="M667.804 265.854C678.58 265.854 687.317 274.589 687.317 285.365V734.341C687.317 745.117 678.581 753.853 667.805 753.854H151.83C141.053 753.854 132.317 745.118 132.317 734.342V285.366C132.317 274.59 141.053 265.854 151.829 265.854H667.804ZM154.268 273.171C146.186 273.171 139.634 279.723 139.634 287.805V731.902C139.634 739.985 146.186 746.536 154.268 746.536H665.366C673.448 746.536 679.999 739.985 680 731.902V287.805C679.999 279.723 673.448 273.171 665.366 273.171H154.268Z" fill="#696E75"/>
</g>
<g clip-path="url(#clip5_4018_51648)">
<rect width="540.366" height="473.366" transform="translate(920.122 273.17)" fill="white"/>
<g filter="url(#filter4_i_4018_51648)">
<rect width="540.366" height="29.2708" transform="translate(920.122 273.17)" fill="#202A42"/>
<circle cx="939.639" cy="287.805" r="4.8793" fill="#CF3232"/>
<circle cx="954.276" cy="287.805" r="4.8793" fill="#FFCC00"/>
<circle cx="968.914" cy="287.805" r="4.8793" fill="#28BB5A"/>
</g>
<rect width="540.366" height="43.9024" transform="translate(920.122 302.441)" fill="#005FBA"/>
<g clip-path="url(#clip6_4018_51648)">
<path d="M938.427 326.474C936.784 324.832 936.784 322.168 938.427 320.526L948.54 330.639C950.183 332.281 950.183 334.945 948.54 336.588L938.427 326.474Z" fill="white"/>
<path d="M942.591 322.31C940.948 320.668 940.948 318.004 942.591 316.361L952.704 326.474C954.347 328.117 954.347 330.781 952.704 332.423L942.591 322.31Z" fill="white"/>
<path d="M946.755 318.146C945.113 316.503 945.113 313.84 946.755 312.197L956.869 322.31C958.511 323.953 958.511 326.616 956.869 328.259L946.755 318.146Z" fill="white"/>
</g>
<path d="M971.543 324.145C972.741 324.145 973.733 324.602 974.551 325.517L976.333 323.916C975.223 322.573 973.5 321.858 971.426 321.858C967.717 321.858 964.943 324.373 964.943 327.889C964.943 331.405 967.688 333.92 971.397 333.92C973.471 333.92 975.194 333.177 976.303 331.833L974.522 330.233C973.733 331.147 972.711 331.605 971.514 331.605C969.294 331.605 967.688 330.061 967.688 327.861C967.717 325.688 969.294 324.145 971.543 324.145ZM981.59 324.631C980.129 324.631 978.64 325.002 977.647 325.717L978.611 327.546C979.282 327.032 980.275 326.717 981.239 326.717C982.67 326.717 983.342 327.375 983.342 328.489H981.239C978.435 328.489 977.296 329.575 977.296 331.176C977.296 332.72 978.581 333.891 980.713 333.891C982.057 333.891 983.021 333.463 983.517 332.634V333.748H985.999V328.604C985.999 325.888 984.393 324.631 981.59 324.631ZM983.342 330.89C983.05 331.719 982.261 332.119 981.385 332.119C980.451 332.119 979.896 331.691 979.896 331.033C979.896 330.433 980.275 329.976 981.531 329.976H983.342V330.89ZM990.293 327.432C990.293 326.974 990.789 326.603 991.986 326.603C992.833 326.603 993.709 326.774 994.615 327.26L995.491 325.402C994.615 324.917 993.213 324.631 991.957 324.631C989.27 324.631 987.723 325.831 987.723 327.518C987.723 331.09 993.242 329.604 993.242 331.062C993.242 331.548 992.775 331.891 991.548 331.891C990.439 331.891 989.183 331.548 988.365 331.033L987.489 332.891C988.336 333.434 989.913 333.863 991.461 333.863C994.206 333.863 995.783 332.691 995.783 331.005C995.812 327.46 990.293 328.947 990.293 327.432ZM1006.41 329.261C1006.41 326.374 1004.34 324.602 1001.65 324.602C998.849 324.602 996.776 326.546 996.776 329.232C996.776 331.891 998.849 333.834 1002 333.834C1003.67 333.834 1004.92 333.348 1005.77 332.377L1004.37 330.89C1003.73 331.462 1003.05 331.748 1002.06 331.748C1000.66 331.748 999.696 331.062 999.434 329.947H1006.36C1006.38 329.747 1006.41 329.461 1006.41 329.261ZM999.404 328.461C999.58 327.317 1000.46 326.603 1001.68 326.603C1002.88 326.603 1003.76 327.346 1003.93 328.461H999.404ZM1014.85 321.344V325.688C1014.18 324.945 1013.25 324.602 1012.11 324.602C1009.51 324.602 1007.52 326.403 1007.52 329.232C1007.52 332.062 1009.51 333.834 1012.11 333.834C1013.34 333.834 1014.3 333.463 1014.97 332.662V333.691H1017.51V321.344H1014.85ZM1012.58 331.719C1011.26 331.719 1010.24 330.776 1010.24 329.232C1010.24 327.689 1011.26 326.746 1012.58 326.746C1013.89 326.746 1014.91 327.689 1014.91 329.232C1014.91 330.776 1013.89 331.719 1012.58 331.719ZM1024.05 324.631C1021.13 324.631 1019 326.546 1019 329.261C1019 331.948 1021.13 333.863 1024.05 333.863C1026.97 333.863 1029.08 331.948 1029.08 329.261C1029.08 326.546 1026.94 324.631 1024.05 324.631ZM1024.05 331.719C1022.74 331.719 1021.72 330.776 1021.72 329.232C1021.72 327.689 1022.74 326.746 1024.05 326.746C1025.37 326.746 1026.39 327.689 1026.39 329.232C1026.39 330.776 1025.37 331.719 1024.05 331.719ZM1035.3 331.719C1033.95 331.719 1032.9 330.804 1032.9 329.232C1032.9 327.66 1033.95 326.746 1035.3 326.746C1036.14 326.746 1036.87 327.117 1037.37 327.975L1039.44 326.889C1038.77 325.431 1037.25 324.602 1035.33 324.602C1032.35 324.602 1030.22 326.517 1030.22 329.232C1030.22 331.919 1032.35 333.834 1035.33 333.834C1037.25 333.834 1038.77 333.005 1039.44 331.576L1037.37 330.49C1036.87 331.348 1036.14 331.719 1035.3 331.719Z" fill="white"/>
<g clip-path="url(#clip7_4018_51648)">
<rect width="39.0244" height="44" transform="translate(1120.12 302.441)" fill="#0053B9"/>
<rect x="1132.32" y="317.125" width="14.6341" height="14.6341" rx="2.43902" fill="#FFCC00"/>
<mask id="path-75-inside-4_4018_51648" fill="white">
<path d="M1159.15 302.441H1198.17V346.441H1159.15V302.441Z"/>
</mask>
<path d="M1198.17 302.441H1196.95V346.441H1198.17H1199.39V302.441H1198.17Z" fill="#0053B9" mask="url(#path-75-inside-4_4018_51648)"/>
<rect x="1171.34" y="317.125" width="14.6341" height="14.6341" rx="2.43902" fill="white"/>
</g>
<g filter="url(#filter5_d_4018_51648)">
<rect width="540.366" height="400.193" transform="translate(920.122 346.344)" fill="#202A42"/>
<mask id="path-78-inside-5_4018_51648" fill="white">
<path d="M920.122 346.344H968.902V746.536H920.122V346.344Z"/>
</mask>
<path d="M920.122 346.344H968.902V746.536H920.122V346.344Z" fill="white" fill-opacity="0.04"/>
<path d="M968.902 346.344H967.683V746.536H968.902H970.122V346.344H968.902Z" fill="#536175" mask="url(#path-78-inside-5_4018_51648)"/>
<rect opacity="0.4" x="934.756" y="424.393" width="19.5122" height="19.5122" rx="9.7561" fill="white"/>
<rect opacity="0.4" x="934.756" y="463.416" width="19.5122" height="19.5122" rx="9.7561" fill="white"/>
<rect opacity="0.4" x="934.756" y="502.441" width="19.5122" height="19.5122" rx="9.7561" fill="white"/>
<rect opacity="0.4" x="934.756" y="541.465" width="19.5122" height="19.5122" rx="9.7561" fill="white"/>
<rect x="961.585" y="407.32" width="14.6341" height="14.6341" rx="7.31707" fill="#FFCC00"/>
<g filter="url(#filter6_d_4018_51648)">
<g clip-path="url(#clip8_4018_51648)">
<g opacity="0.1">
<rect width="462.317" height="29.2683" transform="translate(983.536 360.979)" fill="#EEEEEE"/>
</g>
<path d="M1003.05 409.758H1115.24" stroke="white" stroke-opacity="0.6" stroke-width="4.87805" stroke-linecap="round"/>
<path d="M1003.05 429.27H1285.98" stroke="white" stroke-opacity="0.6" stroke-width="4.87805" stroke-linecap="round"/>
<mask id="path-88-inside-6_4018_51648" fill="white">
<path d="M983.536 448.783H1445.85V473.173H983.536V448.783Z"/>
</mask>
<path d="M983.536 448.783V450.003H1445.85V448.783V447.564H983.536V448.783ZM1445.85 473.173V471.954H983.536V473.173V474.393H1445.85V473.173Z" fill="white" fill-opacity="0.2" mask="url(#path-88-inside-6_4018_51648)"/>
<path d="M1022.56 448.783L1022.56 473.173" stroke="white" stroke-opacity="0.2" stroke-width="1.21951"/>
<rect x="1032.32" y="457.32" width="78.0488" height="7.31707" rx="2.43902" fill="white" fill-opacity="0.2"/>
<path d="M1248.17 448.783L1248.17 473.173" stroke="white" stroke-opacity="0.2" stroke-width="1.21951"/>
<rect x="1257.93" y="457.32" width="87.8049" height="7.31707" rx="2.43902" fill="white" fill-opacity="0.2"/>
<path d="M1355.49 448.783L1355.49 473.173" stroke="white" stroke-opacity="0.2" stroke-width="1.21951"/>
<rect x="1365.24" y="457.32" width="87.8049" height="7.31707" rx="2.43902" fill="white" fill-opacity="0.2"/>
<g opacity="0.4">
<path d="M997.926 492.379C997.522 492.379 997.194 492.696 997.194 493.087V493.358C997.194 493.397 997.227 493.429 997.268 493.429H1000.06C1000.53 493.429 1000.95 493.721 1001.1 494.155L1001.5 495.316C1001.55 495.46 1001.69 495.558 1001.84 495.558H1008.78C1009.31 495.558 1009.76 495.925 1009.86 496.43L1010.22 498.368C1010.24 498.452 1010.37 498.441 1010.37 498.355V493.087C1010.37 492.696 1010.04 492.379 1009.63 492.379H997.926Z" fill="#F8F9FA"/>
<path d="M995.967 494.161C995.974 494.159 995.982 494.157 995.991 494.157H999.992C1000.15 494.157 1000.29 494.255 1000.34 494.4L1000.74 495.565C1000.89 496 1001.32 496.293 1001.79 496.293H1008.77C1008.95 496.293 1009.1 496.416 1009.13 496.585L1010.36 503.113C1010.37 503.119 1010.37 503.126 1010.36 503.133C1010.32 503.484 1010.01 503.755 1009.63 503.755H1009.58C1009.55 503.759 1009.52 503.761 1009.49 503.761H997.737C997.37 503.761 997.06 503.501 997.008 503.151L995.735 494.543C995.71 494.374 995.812 494.219 995.967 494.161Z" fill="#F8F9FA"/>
</g>
<path d="M1037.19 498.07H1038.19" stroke="#15BB4C" stroke-width="4.87805" stroke-linecap="round"/>
<path d="M1077.22 498.07H1154.05" stroke="white" stroke-opacity="0.2" stroke-width="4.87805" stroke-linecap="round"/>
<path d="M1193.07 498.07H1268.68" stroke="#FFCC00" stroke-width="4.87805" stroke-linecap="round"/>
<path d="M1201.95 498.07H1255.61" stroke="white" stroke-opacity="0.2" stroke-width="4.87805" stroke-linecap="round"/>
<path d="M1275.12 498.07H1343.41" stroke="#0083F5" stroke-width="4.87805" stroke-linecap="round"/>
<path d="M1362.93 498.07H1411.71" stroke="white" stroke-opacity="0.2" stroke-width="4.87805" stroke-linecap="round"/>
<path d="M993.292 524.188H1436.1" stroke="#536175" stroke-width="1.21951"/>
<g opacity="0.4">
<path d="M997.926 544.613C997.522 544.613 997.194 544.93 997.194 545.321V545.592C997.194 545.631 997.227 545.663 997.268 545.663H1000.06C1000.53 545.663 1000.95 545.956 1001.1 546.389L1001.5 547.55C1001.55 547.695 1001.69 547.792 1001.84 547.792H1008.78C1009.31 547.792 1009.76 548.159 1009.86 548.664L1010.22 550.602C1010.24 550.687 1010.37 550.675 1010.37 550.589V545.321C1010.37 544.93 1010.04 544.613 1009.63 544.613H997.926Z" fill="#F8F9FA"/>
<path d="M995.967 546.396C995.974 546.393 995.982 546.392 995.991 546.392H999.992C1000.15 546.392 1000.29 546.49 1000.34 546.634L1000.74 547.799C1000.89 548.234 1001.32 548.528 1001.79 548.528H1008.77C1008.95 548.528 1009.1 548.65 1009.13 548.819L1010.36 555.347C1010.37 555.354 1010.37 555.361 1010.36 555.367C1010.32 555.718 1010.01 555.99 1009.63 555.99H1009.58C1009.55 555.993 1009.52 555.995 1009.49 555.995H997.737C997.37 555.995 997.06 555.735 997.008 555.386L995.735 546.777C995.71 546.608 995.812 546.453 995.967 546.396Z" fill="#F8F9FA"/>
</g>
<path d="M1037.19 550.305H1038.19" stroke="white" stroke-opacity="0.2" stroke-width="4.87805" stroke-linecap="round"/>
<path d="M1077.22 550.305H1154.05" stroke="#15BB4C" stroke-width="4.87805" stroke-linecap="round"/>
<path d="M1193.07 550.305H1268.68" stroke="#FFCC00" stroke-width="4.87805" stroke-linecap="round"/>
<path d="M1201.95 550.305H1255.61" stroke="white" stroke-opacity="0.2" stroke-width="4.87805" stroke-linecap="round"/>
<path d="M1275.12 550.305H1343.41" stroke="white" stroke-opacity="0.2" stroke-width="4.87805" stroke-linecap="round"/>
<path d="M1362.93 550.305H1411.71" stroke="#0083F5" stroke-width="4.87805" stroke-linecap="round"/>
<path d="M993.292 576.42H1436.1" stroke="#536175" stroke-width="1.21951"/>
<g opacity="0.4">
<path d="M997.926 596.846C997.522 596.846 997.194 597.163 997.194 597.554V597.825C997.194 597.864 997.227 597.895 997.268 597.895H1000.06C1000.53 597.895 1000.95 598.188 1001.1 598.621L1001.5 599.783C1001.55 599.927 1001.69 600.025 1001.84 600.025H1008.78C1009.31 600.025 1009.76 600.392 1009.86 600.896L1010.22 602.834C1010.24 602.919 1010.37 602.908 1010.37 602.822V597.554C1010.37 597.163 1010.04 596.846 1009.63 596.846H997.926Z" fill="#F8F9FA"/>
<path d="M995.967 598.628C995.974 598.625 995.982 598.624 995.991 598.624H999.992C1000.15 598.624 1000.29 598.722 1000.34 598.867L1000.74 600.032C1000.89 600.467 1001.32 600.76 1001.79 600.76H1008.77C1008.95 600.76 1009.1 600.883 1009.13 601.051L1010.36 607.579C1010.37 607.586 1010.37 607.593 1010.36 607.6C1010.32 607.95 1010.01 608.222 1009.63 608.222H1009.58C1009.55 608.226 1009.52 608.228 1009.49 608.228H997.737C997.37 608.228 997.06 607.968 997.008 607.618L995.735 599.01C995.71 598.841 995.812 598.686 995.967 598.628Z" fill="#F8F9FA"/>
</g>
<path d="M1037.19 602.537H1038.19" stroke="white" stroke-opacity="0.2" stroke-width="4.87805" stroke-linecap="round"/>
<path d="M1077.22 602.537H1154.05" stroke="#15BB4C" stroke-width="4.87805" stroke-linecap="round"/>
<path d="M1193.07 602.537H1268.68" stroke="#FFCC00" stroke-width="4.87805" stroke-linecap="round"/>
<path d="M1201.95 602.537H1255.61" stroke="#0083F5" stroke-width="4.87805" stroke-linecap="round"/>
<path d="M1275.12 602.537H1343.41" stroke="#0083F5" stroke-width="4.87805" stroke-linecap="round"/>
<path d="M1362.93 602.537H1411.71" stroke="white" stroke-opacity="0.2" stroke-width="4.87805" stroke-linecap="round"/>
<path d="M993.292 628.654H1436.1" stroke="#536175" stroke-width="1.21951"/>
<g opacity="0.4">
<path d="M997.926 649.08C997.522 649.08 997.194 649.397 997.194 649.788V650.059C997.194 650.098 997.227 650.13 997.268 650.13H1000.06C1000.53 650.13 1000.95 650.422 1001.1 650.856L1001.5 652.017C1001.55 652.161 1001.69 652.259 1001.84 652.259H1008.78C1009.31 652.259 1009.76 652.626 1009.86 653.131L1010.22 655.069C1010.24 655.154 1010.37 655.142 1010.37 655.056V649.788C1010.37 649.397 1010.04 649.08 1009.63 649.08H997.926Z" fill="#F8F9FA"/>
<path d="M995.967 650.863C995.974 650.86 995.982 650.859 995.991 650.859H999.992C1000.15 650.859 1000.29 650.956 1000.34 651.101L1000.74 652.266C1000.89 652.701 1001.32 652.994 1001.79 652.994H1008.77C1008.95 652.994 1009.1 653.117 1009.13 653.286L1010.36 659.814C1010.37 659.82 1010.37 659.827 1010.36 659.834C1010.32 660.185 1010.01 660.456 1009.63 660.456H1009.58C1009.55 660.46 1009.52 660.462 1009.49 660.462H997.737C997.37 660.462 997.06 660.202 997.008 659.852L995.735 651.244C995.71 651.075 995.812 650.92 995.967 650.863Z" fill="#F8F9FA"/>
</g>
<path d="M1037.19 654.771H1038.19" stroke="#15BB4C" stroke-width="4.87805" stroke-linecap="round"/>
<path d="M1077.22 654.771H1154.05" stroke="white" stroke-opacity="0.2" stroke-width="4.87805" stroke-linecap="round"/>
<path d="M1193.07 654.771H1268.68" stroke="#FFCC00" stroke-width="4.87805" stroke-linecap="round"/>
<path d="M1201.95 654.771H1255.61" stroke="white" stroke-opacity="0.2" stroke-width="4.87805" stroke-linecap="round"/>
<path d="M1275.12 654.771H1343.41" stroke="#0083F5" stroke-width="4.87805" stroke-linecap="round"/>
<path d="M1362.93 654.771H1411.71" stroke="white" stroke-opacity="0.2" stroke-width="4.87805" stroke-linecap="round"/>
<path d="M993.292 680.889H1436.1" stroke="#536175" stroke-width="1.21951"/>
<g opacity="0.4">
<path d="M997.926 701.314C997.522 701.314 997.194 701.631 997.194 702.022V702.293C997.194 702.333 997.227 702.364 997.268 702.364H1000.06C1000.53 702.364 1000.95 702.657 1001.1 703.09L1001.5 704.251C1001.55 704.396 1001.69 704.493 1001.84 704.493H1008.78C1009.31 704.493 1009.76 704.86 1009.86 705.365L1010.22 707.303C1010.24 707.388 1010.37 707.377 1010.37 707.29V702.022C1010.37 701.631 1010.04 701.314 1009.63 701.314H997.926Z" fill="#F8F9FA"/>
<path d="M995.967 703.097C995.974 703.094 995.982 703.093 995.991 703.093H999.992C1000.15 703.093 1000.29 703.191 1000.34 703.336L1000.74 704.5C1000.89 704.935 1001.32 705.229 1001.79 705.229H1008.77C1008.95 705.229 1009.1 705.351 1009.13 705.52L1010.36 712.048C1010.37 712.055 1010.37 712.062 1010.36 712.069C1010.32 712.419 1010.01 712.691 1009.63 712.691H1009.58C1009.55 712.695 1009.52 712.697 1009.49 712.697H997.737C997.37 712.697 997.06 712.437 997.008 712.087L995.735 703.478C995.71 703.309 995.812 703.155 995.967 703.097Z" fill="#F8F9FA"/>
</g>
<path d="M1037.19 707.006H1038.19" stroke="white" stroke-opacity="0.2" stroke-width="4.87805" stroke-linecap="round"/>
<path d="M1077.22 707.006H1154.05" stroke="#15BB4C" stroke-width="4.87805" stroke-linecap="round"/>
<path d="M1193.07 707.006H1268.68" stroke="#FFCC00" stroke-width="4.87805" stroke-linecap="round"/>
<path d="M1201.95 707.006H1255.61" stroke="white" stroke-opacity="0.2" stroke-width="4.87805" stroke-linecap="round"/>
<path d="M1275.12 707.006H1343.41" stroke="#0083F5" stroke-width="4.87805" stroke-linecap="round"/>
<path d="M1362.93 707.006H1411.71" stroke="white" stroke-opacity="0.2" stroke-width="4.87805" stroke-linecap="round"/>
</g>
<rect x="983.536" y="360.979" width="462.317" height="370.924" rx="4.87805" stroke="#536175" stroke-width="1.21951"/>
</g>
</g>
</g>
<g filter="url(#filter7_ii_4018_51648)">
<path d="M1448.29 265.854C1459.07 265.854 1467.8 274.589 1467.8 285.365V734.341C1467.8 745.117 1459.07 753.853 1448.29 753.854H932.317C921.541 753.854 912.805 745.118 912.805 734.342V285.366C912.805 274.59 921.54 265.854 932.316 265.854H1448.29ZM934.756 273.171C926.674 273.171 920.122 279.723 920.122 287.805V731.902C920.122 739.985 926.674 746.536 934.756 746.536H1445.85C1453.94 746.536 1460.49 739.985 1460.49 731.902V287.805C1460.49 279.723 1453.94 273.171 1445.85 273.171H934.756Z" fill="#696E75"/>
</g>
<g clip-path="url(#clip9_4018_51648)">
<rect width="863.366" height="609.366" transform="translate(367.39 195.121)" fill="white"/>
<g filter="url(#filter8_i_4018_51648)">
<rect width="863.366" height="29.2708" transform="translate(367.39 195.121)" fill="#202A42"/>
<circle cx="386.907" cy="209.756" r="4.8793" fill="#CF3232"/>
<circle cx="401.544" cy="209.756" r="4.8793" fill="#FFCC00"/>
<circle cx="416.183" cy="209.756" r="4.8793" fill="#28BB5A"/>
</g>
<rect width="863.366" height="43.9024" transform="translate(367.39 224.393)" fill="#005FBA"/>
<g clip-path="url(#clip10_4018_51648)">
<path d="M385.695 248.426C384.052 246.783 384.052 244.12 385.695 242.477L395.808 252.59C397.451 254.233 397.451 256.896 395.808 258.539L385.695 248.426Z" fill="white"/>
<path d="M389.859 244.261C388.216 242.619 388.216 239.955 389.859 238.313L399.973 248.426C401.615 250.068 401.615 252.732 399.973 254.374L389.859 244.261Z" fill="white"/>
<path d="M394.023 240.097C392.381 238.455 392.381 235.791 394.023 234.148L404.137 244.261C405.78 245.904 405.78 248.568 404.137 250.21L394.023 240.097Z" fill="white"/>
</g>
<path d="M418.811 246.096C420.009 246.096 421.002 246.553 421.819 247.468L423.601 245.867C422.491 244.524 420.768 243.809 418.694 243.809C414.985 243.809 412.211 246.325 412.211 249.84C412.211 253.356 414.956 255.871 418.665 255.871C420.739 255.871 422.462 255.128 423.572 253.785L421.79 252.184C421.002 253.099 419.979 253.556 418.782 253.556C416.562 253.556 414.956 252.013 414.956 249.812C414.985 247.639 416.562 246.096 418.811 246.096ZM428.858 246.582C427.397 246.582 425.908 246.953 424.915 247.668L425.879 249.497C426.55 248.983 427.543 248.668 428.507 248.668C429.938 248.668 430.61 249.326 430.61 250.441H428.507C425.703 250.441 424.565 251.527 424.565 253.127C424.565 254.671 425.85 255.843 427.981 255.843C429.325 255.843 430.289 255.414 430.785 254.585V255.7H433.268V250.555C433.268 247.84 431.661 246.582 428.858 246.582ZM430.61 252.841C430.318 253.67 429.529 254.07 428.653 254.07C427.719 254.07 427.164 253.642 427.164 252.984C427.164 252.384 427.543 251.927 428.799 251.927H430.61V252.841ZM437.561 249.383C437.561 248.926 438.057 248.554 439.254 248.554C440.101 248.554 440.978 248.726 441.883 249.211L442.759 247.354C441.883 246.868 440.481 246.582 439.225 246.582C436.538 246.582 434.991 247.782 434.991 249.469C434.991 253.041 440.51 251.555 440.51 253.013C440.51 253.499 440.043 253.842 438.816 253.842C437.707 253.842 436.451 253.499 435.633 252.984L434.757 254.842C435.604 255.385 437.181 255.814 438.729 255.814C441.474 255.814 443.051 254.642 443.051 252.956C443.08 249.412 437.561 250.898 437.561 249.383ZM453.682 251.212C453.682 248.325 451.608 246.553 448.921 246.553C446.118 246.553 444.044 248.497 444.044 251.184C444.044 253.842 446.118 255.785 449.272 255.785C450.936 255.785 452.192 255.299 453.039 254.328L451.637 252.841C450.995 253.413 450.323 253.699 449.33 253.699C447.928 253.699 446.964 253.013 446.702 251.898H453.623C453.652 251.698 453.682 251.412 453.682 251.212ZM446.672 250.412C446.848 249.269 447.724 248.554 448.95 248.554C450.148 248.554 451.024 249.297 451.199 250.412H446.672ZM462.122 243.295V247.639C461.45 246.896 460.515 246.553 459.376 246.553C456.777 246.553 454.791 248.354 454.791 251.184C454.791 254.013 456.777 255.785 459.376 255.785C460.603 255.785 461.567 255.414 462.239 254.614V255.642H464.779V243.295H462.122ZM459.844 253.67C458.53 253.67 457.507 252.727 457.507 251.184C457.507 249.64 458.53 248.697 459.844 248.697C461.158 248.697 462.18 249.64 462.18 251.184C462.18 252.727 461.158 253.67 459.844 253.67ZM471.321 246.582C468.401 246.582 466.269 248.497 466.269 251.212C466.269 253.899 468.401 255.814 471.321 255.814C474.242 255.814 476.344 253.899 476.344 251.212C476.344 248.497 474.212 246.582 471.321 246.582ZM471.321 253.67C470.007 253.67 468.985 252.727 468.985 251.184C468.985 249.64 470.007 248.697 471.321 248.697C472.635 248.697 473.658 249.64 473.658 251.184C473.658 252.727 472.635 253.67 471.321 253.67ZM482.565 253.67C481.222 253.67 480.17 252.756 480.17 251.184C480.17 249.612 481.222 248.697 482.565 248.697C483.412 248.697 484.142 249.069 484.639 249.926L486.712 248.84C486.04 247.382 484.522 246.553 482.594 246.553C479.615 246.553 477.483 248.468 477.483 251.184C477.483 253.87 479.615 255.785 482.594 255.785C484.522 255.785 486.04 254.957 486.712 253.527L484.639 252.441C484.142 253.299 483.412 253.67 482.565 253.67Z" fill="white"/>
<g clip-path="url(#clip11_4018_51648)">
<rect width="39.0244" height="44" transform="translate(567.39 224.393)" fill="#0053B9"/>
<rect x="579.585" y="239.076" width="14.6341" height="14.6341" rx="2.43902" fill="#FFCC00"/>
<mask id="path-142-inside-7_4018_51648" fill="white">
<path d="M606.414 224.393H645.438V268.393H606.414V224.393Z"/>
</mask>
<path d="M645.438 224.393H644.219V268.393H645.438H646.658V224.393H645.438Z" fill="#0053B9" mask="url(#path-142-inside-7_4018_51648)"/>
<rect x="618.609" y="239.076" width="14.6341" height="14.6341" rx="2.43902" fill="white"/>
</g>
<g filter="url(#filter9_d_4018_51648)">
<rect width="863.366" height="536.193" transform="translate(367.39 268.295)" fill="#202A42"/>
<mask id="path-145-inside-8_4018_51648" fill="white">
<path d="M367.39 268.295H416.17V804.488H367.39V268.295Z"/>
</mask>
<path d="M367.39 268.295H416.17V804.488H367.39V268.295Z" fill="white" fill-opacity="0.04"/>
<path d="M416.17 268.295H414.951V804.488H416.17H417.39V268.295H416.17Z" fill="#536175" mask="url(#path-145-inside-8_4018_51648)"/>
<rect opacity="0.4" x="382.024" y="346.344" width="19.5122" height="19.5122" rx="9.7561" fill="white"/>
<rect opacity="0.4" x="382.024" y="385.367" width="19.5122" height="19.5122" rx="9.7561" fill="white"/>
<rect opacity="0.4" x="382.024" y="424.393" width="19.5122" height="19.5122" rx="9.7561" fill="white"/>
<rect opacity="0.4" x="382.024" y="463.416" width="19.5122" height="19.5122" rx="9.7561" fill="white"/>
<rect x="408.854" y="329.27" width="14.6341" height="14.6341" rx="7.31707" fill="#FFCC00"/>
<g filter="url(#filter10_d_4018_51648)">
<g clip-path="url(#clip12_4018_51648)">
<g opacity="0.1">
<rect width="785.317" height="29.2683" transform="translate(430.804 282.93)" fill="#EEEEEE"/>
</g>
<path d="M450.316 331.709H562.512" stroke="white" stroke-opacity="0.6" stroke-width="4.87805" stroke-linecap="round"/>
<path d="M450.316 351.221H733.243" stroke="white" stroke-opacity="0.6" stroke-width="4.87805" stroke-linecap="round"/>
<mask id="path-155-inside-9_4018_51648" fill="white">
<path d="M430.804 370.734H1216.12V395.125H430.804V370.734Z"/>
</mask>
<path d="M430.804 370.734V371.954H1216.12V370.734V369.515H430.804V370.734ZM1216.12 395.125V393.905H430.804V395.125V396.344H1216.12V395.125Z" fill="white" fill-opacity="0.2" mask="url(#path-155-inside-9_4018_51648)"/>
<path d="M469.829 370.734L469.829 395.125" stroke="white" stroke-opacity="0.2" stroke-width="1.21951"/>
<rect x="479.584" y="379.271" width="78.0488" height="7.31707" rx="2.43902" fill="white" fill-opacity="0.2"/>
<path d="M695.438 370.734L695.438 395.125" stroke="white" stroke-opacity="0.2" stroke-width="1.21951"/>
<rect x="705.194" y="379.271" width="87.8049" height="7.31707" rx="2.43902" fill="white" fill-opacity="0.2"/>
<path d="M802.755 370.734L802.755 395.125" stroke="white" stroke-opacity="0.2" stroke-width="1.21951"/>
<rect x="812.512" y="379.271" width="87.8049" height="7.31707" rx="2.43902" fill="white" fill-opacity="0.2"/>
<path d="M910.073 370.734L910.073 395.125" stroke="white" stroke-opacity="0.2" stroke-width="1.21951"/>
<path d="M952.755 370.734L952.755 395.125" stroke="white" stroke-opacity="0.2" stroke-width="1.21951"/>
<rect x="962.511" y="379.271" width="78.0488" height="7.31707" rx="2.43902" fill="white" fill-opacity="0.2"/>
<path d="M1177.1 370.734L1177.1 395.125" stroke="white" stroke-opacity="0.2" stroke-width="1.21951"/>
<g opacity="0.4">
<path d="M445.194 427.932C444.79 427.932 444.462 428.249 444.462 428.639V428.911C444.462 428.95 444.495 428.981 444.536 428.981H447.324C447.796 428.981 448.215 429.274 448.365 429.707L448.765 430.869C448.815 431.013 448.955 431.111 449.112 431.111H456.044C456.574 431.111 457.029 431.477 457.124 431.982L457.488 433.92C457.504 434.005 457.633 433.994 457.633 433.908V428.639C457.633 428.249 457.306 427.932 456.901 427.932H445.194Z" fill="#F8F9FA"/>
<path d="M443.235 429.714C443.242 429.711 443.251 429.71 443.259 429.71H447.26C447.419 429.71 447.559 429.808 447.609 429.953L448.012 431.118C448.163 431.553 448.585 431.846 449.06 431.846H456.038C456.216 431.846 456.369 431.969 456.401 432.137L457.632 438.665C457.633 438.672 457.634 438.679 457.633 438.686C457.588 439.036 457.278 439.308 456.902 439.308H456.851C456.82 439.312 456.788 439.314 456.756 439.314H445.005C444.638 439.314 444.328 439.054 444.276 438.704L443.003 430.096C442.978 429.927 443.08 429.772 443.235 429.714Z" fill="#F8F9FA"/>
</g>
<path d="M484.462 433.623H688.072" stroke="#15BB4C" stroke-width="4.87805" stroke-linecap="round"/>
<path d="M727.097 433.623H803.926" stroke="white" stroke-opacity="0.2" stroke-width="4.87805" stroke-linecap="round"/>
<path d="M842.95 433.623H918.56" stroke="#FFCC00" stroke-width="4.87805" stroke-linecap="round"/>
<path d="M972.219 433.623H1025.88" stroke="white" stroke-opacity="0.2" stroke-width="4.87805" stroke-linecap="round"/>
<path d="M1045.39 433.623H1113.68" stroke="#0083F5" stroke-width="4.87805" stroke-linecap="round"/>
<path d="M1133.19 433.623H1181.98" stroke="white" stroke-opacity="0.2" stroke-width="4.87805" stroke-linecap="round"/>
<path d="M440.56 473.338H1206.36" stroke="#536175" stroke-width="1.21951"/>
<g opacity="0.4">
<path d="M445.194 507.365C444.79 507.365 444.462 507.682 444.462 508.073V508.344C444.462 508.383 444.495 508.415 444.536 508.415H447.324C447.796 508.415 448.215 508.707 448.365 509.141L448.765 510.302C448.815 510.447 448.955 510.544 449.112 510.544H456.044C456.574 510.544 457.029 510.911 457.124 511.416L457.488 513.354C457.504 513.439 457.633 513.427 457.633 513.341V508.073C457.633 507.682 457.306 507.365 456.901 507.365H445.194Z" fill="#F8F9FA"/>
<path d="M443.235 509.148C443.242 509.145 443.251 509.144 443.259 509.144H447.26C447.419 509.144 447.559 509.241 447.609 509.386L448.012 510.551C448.163 510.986 448.585 511.279 449.06 511.279H456.038C456.216 511.279 456.369 511.402 456.401 511.571L457.632 518.099C457.633 518.106 457.634 518.113 457.633 518.119C457.588 518.47 457.278 518.741 456.902 518.741H456.851C456.82 518.745 456.788 518.747 456.756 518.747H445.005C444.638 518.747 444.328 518.487 444.276 518.138L443.003 509.529C442.978 509.36 443.08 509.205 443.235 509.148Z" fill="#F8F9FA"/>
</g>
<path d="M484.462 513.057H688.072" stroke="white" stroke-opacity="0.2" stroke-width="4.87805" stroke-linecap="round"/>
<path d="M727.097 513.057H803.926" stroke="#15BB4C" stroke-width="4.87805" stroke-linecap="round"/>
<path d="M842.95 513.057H918.56" stroke="#FFCC00" stroke-width="4.87805" stroke-linecap="round"/>
<path d="M972.219 513.057H1025.88" stroke="white" stroke-opacity="0.2" stroke-width="4.87805" stroke-linecap="round"/>
<path d="M1045.39 513.057H1113.68" stroke="white" stroke-opacity="0.2" stroke-width="4.87805" stroke-linecap="round"/>
<path d="M1133.19 513.057H1181.98" stroke="#0083F5" stroke-width="4.87805" stroke-linecap="round"/>
<path d="M440.56 552.771H1206.36" stroke="#536175" stroke-width="1.21951"/>
<g opacity="0.4">
<path d="M445.194 586.799C444.79 586.799 444.462 587.116 444.462 587.507V587.778C444.462 587.817 444.495 587.849 444.536 587.849H447.324C447.796 587.849 448.215 588.141 448.365 588.575L448.765 589.736C448.815 589.88 448.955 589.978 449.112 589.978H456.044C456.574 589.978 457.029 590.345 457.124 590.85L457.488 592.787C457.504 592.872 457.633 592.861 457.633 592.775V587.507C457.633 587.116 457.306 586.799 456.901 586.799H445.194Z" fill="#F8F9FA"/>
<path d="M443.235 588.581C443.242 588.579 443.251 588.577 443.259 588.577H447.26C447.419 588.577 447.559 588.675 447.609 588.82L448.012 589.985C448.163 590.42 448.585 590.713 449.06 590.713H456.038C456.216 590.713 456.369 590.836 456.401 591.005L457.632 597.532C457.633 597.539 457.634 597.546 457.633 597.553C457.588 597.904 457.278 598.175 456.902 598.175H456.851C456.82 598.179 456.788 598.181 456.756 598.181H445.005C444.638 598.181 444.328 597.921 444.276 597.571L443.003 588.963C442.978 588.794 443.08 588.639 443.235 588.581Z" fill="#F8F9FA"/>
</g>
<path d="M484.462 592.49H688.072" stroke="white" stroke-opacity="0.2" stroke-width="4.87805" stroke-linecap="round"/>
<path d="M727.097 592.49H803.926" stroke="#15BB4C" stroke-width="4.87805" stroke-linecap="round"/>
<path d="M842.95 592.49H918.56" stroke="#FFCC00" stroke-width="4.87805" stroke-linecap="round"/>
<path d="M972.219 592.49H1025.88" stroke="#0083F5" stroke-width="4.87805" stroke-linecap="round"/>
<path d="M1045.39 592.49H1113.68" stroke="#0083F5" stroke-width="4.87805" stroke-linecap="round"/>
<path d="M1133.19 592.49H1181.98" stroke="white" stroke-opacity="0.2" stroke-width="4.87805" stroke-linecap="round"/>
<path d="M440.56 632.205H1206.36" stroke="#536175" stroke-width="1.21951"/>
<g opacity="0.4">
<path d="M445.194 666.23C444.79 666.23 444.462 666.547 444.462 666.938V667.209C444.462 667.249 444.495 667.28 444.536 667.28H447.324C447.796 667.28 448.215 667.573 448.365 668.006L448.765 669.167C448.815 669.312 448.955 669.409 449.112 669.409H456.044C456.574 669.409 457.029 669.776 457.124 670.281L457.488 672.219C457.504 672.304 457.633 672.293 457.633 672.206V666.938C457.633 666.547 457.306 666.23 456.901 666.23H445.194Z" fill="#F8F9FA"/>
<path d="M443.235 668.013C443.242 668.01 443.251 668.009 443.259 668.009H447.26C447.419 668.009 447.559 668.107 447.609 668.252L448.012 669.416C448.163 669.851 448.585 670.145 449.06 670.145H456.038C456.216 670.145 456.369 670.267 456.401 670.436L457.632 676.964C457.633 676.971 457.634 676.978 457.633 676.985C457.588 677.335 457.278 677.607 456.902 677.607H456.851C456.82 677.611 456.788 677.613 456.756 677.613H445.005C444.638 677.613 444.328 677.353 444.276 677.003L443.003 668.395C442.978 668.226 443.08 668.071 443.235 668.013Z" fill="#F8F9FA"/>
</g>
<path d="M484.462 671.922H688.072" stroke="#15BB4C" stroke-width="4.87805" stroke-linecap="round"/>
<path d="M727.097 671.922H803.926" stroke="white" stroke-opacity="0.2" stroke-width="4.87805" stroke-linecap="round"/>
<path d="M842.95 671.922H918.56" stroke="#FFCC00" stroke-width="4.87805" stroke-linecap="round"/>
<path d="M972.219 671.922H1025.88" stroke="white" stroke-opacity="0.2" stroke-width="4.87805" stroke-linecap="round"/>
<path d="M1045.39 671.922H1113.68" stroke="#0083F5" stroke-width="4.87805" stroke-linecap="round"/>
<path d="M1133.19 671.922H1181.98" stroke="white" stroke-opacity="0.2" stroke-width="4.87805" stroke-linecap="round"/>
<path d="M440.56 711.639H1206.36" stroke="#536175" stroke-width="1.21951"/>
<g opacity="0.4">
<path d="M445.194 745.664C444.79 745.664 444.462 745.981 444.462 746.372V746.643C444.462 746.682 444.495 746.714 444.536 746.714H447.324C447.796 746.714 448.215 747.006 448.365 747.44L448.765 748.601C448.815 748.745 448.955 748.843 449.112 748.843H456.044C456.574 748.843 457.029 749.21 457.124 749.715L457.488 751.653C457.504 751.738 457.633 751.726 457.633 751.64V746.372C457.633 745.981 457.306 745.664 456.901 745.664H445.194Z" fill="#F8F9FA"/>
<path d="M443.235 747.447C443.242 747.444 443.251 747.443 443.259 747.443H447.26C447.419 747.443 447.559 747.54 447.609 747.685L448.012 748.85C448.163 749.285 448.585 749.578 449.06 749.578H456.038C456.216 749.578 456.369 749.701 456.401 749.87L457.632 756.398C457.633 756.404 457.634 756.411 457.633 756.418C457.588 756.769 457.278 757.04 456.902 757.04H456.851C456.82 757.044 456.788 757.046 456.756 757.046H445.005C444.638 757.046 444.328 756.786 444.276 756.436L443.003 747.828C442.978 747.659 443.08 747.504 443.235 747.447Z" fill="#F8F9FA"/>
</g>
<path d="M484.462 751.355H688.072" stroke="white" stroke-opacity="0.2" stroke-width="4.87805" stroke-linecap="round"/>
<path d="M727.097 751.355H803.926" stroke="#15BB4C" stroke-width="4.87805" stroke-linecap="round"/>
<path d="M842.95 751.355H918.56" stroke="#FFCC00" stroke-width="4.87805" stroke-linecap="round"/>
<path d="M972.219 751.355H1025.88" stroke="white" stroke-opacity="0.2" stroke-width="4.87805" stroke-linecap="round"/>
<path d="M1045.39 751.355H1113.68" stroke="#0083F5" stroke-width="4.87805" stroke-linecap="round"/>
<path d="M1133.19 751.355H1181.98" stroke="white" stroke-opacity="0.2" stroke-width="4.87805" stroke-linecap="round"/>
</g>
<rect x="430.804" y="282.93" width="785.317" height="506.924" rx="4.87805" stroke="#536175" stroke-width="1.21951"/>
</g>
</g>
</g>
<g filter="url(#filter11_ii_4018_51648)">
<path d="M1218.56 187.805C1229.34 187.805 1238.07 196.54 1238.07 207.316V792.293C1238.07 803.069 1229.34 811.804 1218.56 811.805H379.585C368.809 811.805 360.073 803.069 360.073 792.293V207.316C360.073 196.54 368.809 187.805 379.584 187.805H1218.56ZM382.024 195.122C373.942 195.122 367.39 201.674 367.39 209.756V789.854C367.39 797.936 373.942 804.487 382.024 804.487H1216.12C1224.2 804.487 1230.76 797.936 1230.76 789.854V209.756C1230.76 201.674 1224.2 195.122 1216.12 195.122H382.024Z" fill="#696E75"/>
</g>
</g>
<defs>
<filter id="filter0_i_4018_51648" x="139.634" y="273.17" width="540.366" height="29.2715" filterUnits="userSpaceOnUse" color-interpolation-filters="sRGB">
<feFlood flood-opacity="0" result="BackgroundImageFix"/>
<feBlend mode="normal" in="SourceGraphic" in2="BackgroundImageFix" result="shape"/>
<feColorMatrix in="SourceAlpha" type="matrix" values="0 0 0 0 0 0 0 0 0 0 0 0 0 0 0 0 0 0 127 0" result="hardAlpha"/>
<feOffset dy="-1.21983"/>
<feComposite in2="hardAlpha" operator="arithmetic" k2="-1" k3="1"/>
<feColorMatrix type="matrix" values="0 0 0 0 0.682353 0 0 0 0 0.631373 0 0 0 0 0.831373 0 0 0 0.4 0"/>
<feBlend mode="normal" in2="shape" result="effect1_innerShadow_4018_51648"/>
</filter>
<filter id="filter1_d_4018_51648" x="42.0728" y="258.539" width="735.488" height="595.315" filterUnits="userSpaceOnUse" color-interpolation-filters="sRGB">
<feFlood flood-opacity="0" result="BackgroundImageFix"/>
<feColorMatrix in="SourceAlpha" type="matrix" values="0 0 0 0 0 0 0 0 0 0 0 0 0 0 0 0 0 0 127 0" result="hardAlpha"/>
<feOffset dy="9.7561"/>
<feGaussianBlur stdDeviation="48.7805"/>
<feColorMatrix type="matrix" values="0 0 0 0 0.12549 0 0 0 0 0.164706 0 0 0 0 0.258824 0 0 0 0.12 0"/>
<feBlend mode="normal" in2="BackgroundImageFix" result="effect1_dropShadow_4018_51648"/>
<feBlend mode="normal" in="SourceGraphic" in2="effect1_dropShadow_4018_51648" result="shape"/>
</filter>
<filter id="filter2_d_4018_51648" x="182.927" y="345.735" width="502.561" height="411.167" filterUnits="userSpaceOnUse" color-interpolation-filters="sRGB">
<feFlood flood-opacity="0" result="BackgroundImageFix"/>
<feColorMatrix in="SourceAlpha" type="matrix" values="0 0 0 0 0 0 0 0 0 0 0 0 0 0 0 0 0 0 127 0" result="hardAlpha"/>
<feOffset dy="4.87805"/>
<feGaussianBlur stdDeviation="9.7561"/>
<feColorMatrix type="matrix" values="0 0 0 0 0.12549 0 0 0 0 0.164706 0 0 0 0 0.258824 0 0 0 0.16 0"/>
<feBlend mode="normal" in2="BackgroundImageFix" result="effect1_dropShadow_4018_51648"/>
<feBlend mode="normal" in="SourceGraphic" in2="effect1_dropShadow_4018_51648" result="shape"/>
</filter>
<filter id="filter3_ii_4018_51648" x="129.878" y="263.414" width="559.878" height="492.878" filterUnits="userSpaceOnUse" color-interpolation-filters="sRGB">
<feFlood flood-opacity="0" result="BackgroundImageFix"/>
<feBlend mode="normal" in="SourceGraphic" in2="BackgroundImageFix" result="shape"/>
<feColorMatrix in="SourceAlpha" type="matrix" values="0 0 0 0 0 0 0 0 0 0 0 0 0 0 0 0 0 0 127 0" result="hardAlpha"/>
<feOffset dx="-2.43902" dy="-2.43902"/>
<feGaussianBlur stdDeviation="9.7561"/>
<feComposite in2="hardAlpha" operator="arithmetic" k2="-1" k3="1"/>
<feColorMatrix type="matrix" values="0 0 0 0 0.0722355 0 0 0 0 0.286326 0 0 0 0 0.800145 0 0 0 0.08 0"/>
<feBlend mode="normal" in2="shape" result="effect1_innerShadow_4018_51648"/>
<feColorMatrix in="SourceAlpha" type="matrix" values="0 0 0 0 0 0 0 0 0 0 0 0 0 0 0 0 0 0 127 0" result="hardAlpha"/>
<feOffset dx="2.43902" dy="2.43902"/>
<feGaussianBlur stdDeviation="9.7561"/>
<feComposite in2="hardAlpha" operator="arithmetic" k2="-1" k3="1"/>
<feColorMatrix type="matrix" values="0 0 0 0 1 0 0 0 0 0.3 0 0 0 0 0 0 0 0 0.04 0"/>
<feBlend mode="normal" in2="effect1_innerShadow_4018_51648" result="effect2_innerShadow_4018_51648"/>
</filter>
<filter id="filter4_i_4018_51648" x="920.122" y="273.17" width="540.366" height="29.2715" filterUnits="userSpaceOnUse" color-interpolation-filters="sRGB">
<feFlood flood-opacity="0" result="BackgroundImageFix"/>
<feBlend mode="normal" in="SourceGraphic" in2="BackgroundImageFix" result="shape"/>
<feColorMatrix in="SourceAlpha" type="matrix" values="0 0 0 0 0 0 0 0 0 0 0 0 0 0 0 0 0 0 127 0" result="hardAlpha"/>
<feOffset dy="-1.21983"/>
<feComposite in2="hardAlpha" operator="arithmetic" k2="-1" k3="1"/>
<feColorMatrix type="matrix" values="0 0 0 0 0.682353 0 0 0 0 0.631373 0 0 0 0 0.831373 0 0 0 0.4 0"/>
<feBlend mode="normal" in2="shape" result="effect1_innerShadow_4018_51648"/>
</filter>
<filter id="filter5_d_4018_51648" x="822.561" y="258.539" width="735.488" height="595.315" filterUnits="userSpaceOnUse" color-interpolation-filters="sRGB">
<feFlood flood-opacity="0" result="BackgroundImageFix"/>
<feColorMatrix in="SourceAlpha" type="matrix" values="0 0 0 0 0 0 0 0 0 0 0 0 0 0 0 0 0 0 127 0" result="hardAlpha"/>
<feOffset dy="9.7561"/>
<feGaussianBlur stdDeviation="48.7805"/>
<feColorMatrix type="matrix" values="0 0 0 0 0.12549 0 0 0 0 0.164706 0 0 0 0 0.258824 0 0 0 0.12 0"/>
<feBlend mode="normal" in2="BackgroundImageFix" result="effect1_dropShadow_4018_51648"/>
<feBlend mode="normal" in="SourceGraphic" in2="effect1_dropShadow_4018_51648" result="shape"/>
</filter>
<filter id="filter6_d_4018_51648" x="963.414" y="345.735" width="502.561" height="411.167" filterUnits="userSpaceOnUse" color-interpolation-filters="sRGB">
<feFlood flood-opacity="0" result="BackgroundImageFix"/>
<feColorMatrix in="SourceAlpha" type="matrix" values="0 0 0 0 0 0 0 0 0 0 0 0 0 0 0 0 0 0 127 0" result="hardAlpha"/>
<feOffset dy="4.87805"/>
<feGaussianBlur stdDeviation="9.7561"/>
<feColorMatrix type="matrix" values="0 0 0 0 0.12549 0 0 0 0 0.164706 0 0 0 0 0.258824 0 0 0 0.16 0"/>
<feBlend mode="normal" in2="BackgroundImageFix" result="effect1_dropShadow_4018_51648"/>
<feBlend mode="normal" in="SourceGraphic" in2="effect1_dropShadow_4018_51648" result="shape"/>
</filter>
<filter id="filter7_ii_4018_51648" x="910.366" y="263.414" width="559.878" height="492.878" filterUnits="userSpaceOnUse" color-interpolation-filters="sRGB">
<feFlood flood-opacity="0" result="BackgroundImageFix"/>
<feBlend mode="normal" in="SourceGraphic" in2="BackgroundImageFix" result="shape"/>
<feColorMatrix in="SourceAlpha" type="matrix" values="0 0 0 0 0 0 0 0 0 0 0 0 0 0 0 0 0 0 127 0" result="hardAlpha"/>
<feOffset dx="-2.43902" dy="-2.43902"/>
<feGaussianBlur stdDeviation="9.7561"/>
<feComposite in2="hardAlpha" operator="arithmetic" k2="-1" k3="1"/>
<feColorMatrix type="matrix" values="0 0 0 0 0.0722355 0 0 0 0 0.286326 0 0 0 0 0.800145 0 0 0 0.08 0"/>
<feBlend mode="normal" in2="shape" result="effect1_innerShadow_4018_51648"/>
<feColorMatrix in="SourceAlpha" type="matrix" values="0 0 0 0 0 0 0 0 0 0 0 0 0 0 0 0 0 0 127 0" result="hardAlpha"/>
<feOffset dx="2.43902" dy="2.43902"/>
<feGaussianBlur stdDeviation="9.7561"/>
<feComposite in2="hardAlpha" operator="arithmetic" k2="-1" k3="1"/>
<feColorMatrix type="matrix" values="0 0 0 0 1 0 0 0 0 0.3 0 0 0 0 0 0 0 0 0.04 0"/>
<feBlend mode="normal" in2="effect1_innerShadow_4018_51648" result="effect2_innerShadow_4018_51648"/>
</filter>
<filter id="filter8_i_4018_51648" x="367.39" y="195.121" width="863.366" height="29.2715" filterUnits="userSpaceOnUse" color-interpolation-filters="sRGB">
<feFlood flood-opacity="0" result="BackgroundImageFix"/>
<feBlend mode="normal" in="SourceGraphic" in2="BackgroundImageFix" result="shape"/>
<feColorMatrix in="SourceAlpha" type="matrix" values="0 0 0 0 0 0 0 0 0 0 0 0 0 0 0 0 0 0 127 0" result="hardAlpha"/>
<feOffset dy="-1.21983"/>
<feComposite in2="hardAlpha" operator="arithmetic" k2="-1" k3="1"/>
<feColorMatrix type="matrix" values="0 0 0 0 0.682353 0 0 0 0 0.631373 0 0 0 0 0.831373 0 0 0 0.4 0"/>
<feBlend mode="normal" in2="shape" result="effect1_innerShadow_4018_51648"/>
</filter>
<filter id="filter9_d_4018_51648" x="269.829" y="180.49" width="1058.49" height="731.315" filterUnits="userSpaceOnUse" color-interpolation-filters="sRGB">
<feFlood flood-opacity="0" result="BackgroundImageFix"/>
<feColorMatrix in="SourceAlpha" type="matrix" values="0 0 0 0 0 0 0 0 0 0 0 0 0 0 0 0 0 0 127 0" result="hardAlpha"/>
<feOffset dy="9.7561"/>
<feGaussianBlur stdDeviation="48.7805"/>
<feColorMatrix type="matrix" values="0 0 0 0 0.12549 0 0 0 0 0.164706 0 0 0 0 0.258824 0 0 0 0.12 0"/>
<feBlend mode="normal" in2="BackgroundImageFix" result="effect1_dropShadow_4018_51648"/>
<feBlend mode="normal" in="SourceGraphic" in2="effect1_dropShadow_4018_51648" result="shape"/>
</filter>
<filter id="filter10_d_4018_51648" x="410.683" y="267.686" width="825.561" height="547.169" filterUnits="userSpaceOnUse" color-interpolation-filters="sRGB">
<feFlood flood-opacity="0" result="BackgroundImageFix"/>
<feColorMatrix in="SourceAlpha" type="matrix" values="0 0 0 0 0 0 0 0 0 0 0 0 0 0 0 0 0 0 127 0" result="hardAlpha"/>
<feOffset dy="4.87805"/>
<feGaussianBlur stdDeviation="9.7561"/>
<feColorMatrix type="matrix" values="0 0 0 0 0.12549 0 0 0 0 0.164706 0 0 0 0 0.258824 0 0 0 0.16 0"/>
<feBlend mode="normal" in2="BackgroundImageFix" result="effect1_dropShadow_4018_51648"/>
<feBlend mode="normal" in="SourceGraphic" in2="effect1_dropShadow_4018_51648" result="shape"/>
</filter>
<filter id="filter11_ii_4018_51648" x="357.634" y="185.366" width="882.878" height="628.878" filterUnits="userSpaceOnUse" color-interpolation-filters="sRGB">
<feFlood flood-opacity="0" result="BackgroundImageFix"/>
<feBlend mode="normal" in="SourceGraphic" in2="BackgroundImageFix" result="shape"/>
<feColorMatrix in="SourceAlpha" type="matrix" values="0 0 0 0 0 0 0 0 0 0 0 0 0 0 0 0 0 0 127 0" result="hardAlpha"/>
<feOffset dx="-2.43902" dy="-2.43902"/>
<feGaussianBlur stdDeviation="9.7561"/>
<feComposite in2="hardAlpha" operator="arithmetic" k2="-1" k3="1"/>
<feColorMatrix type="matrix" values="0 0 0 0 0.0722355 0 0 0 0 0.286326 0 0 0 0 0.800145 0 0 0 0.08 0"/>
<feBlend mode="normal" in2="shape" result="effect1_innerShadow_4018_51648"/>
<feColorMatrix in="SourceAlpha" type="matrix" values="0 0 0 0 0 0 0 0 0 0 0 0 0 0 0 0 0 0 127 0" result="hardAlpha"/>
<feOffset dx="2.43902" dy="2.43902"/>
<feGaussianBlur stdDeviation="9.7561"/>
<feComposite in2="hardAlpha" operator="arithmetic" k2="-1" k3="1"/>
<feColorMatrix type="matrix" values="0 0 0 0 1 0 0 0 0 0.3 0 0 0 0 0 0 0 0 0.04 0"/>
<feBlend mode="normal" in2="effect1_innerShadow_4018_51648" result="effect2_innerShadow_4018_51648"/>
</filter>
<radialGradient id="paint0_radial_4018_51648" cx="0" cy="0" r="1" gradientUnits="userSpaceOnUse" gradientTransform="translate(608.378 125.317) rotate(63.7097) scale(805.552 816.201)">
<stop/>
<stop offset="1" stop-opacity="0"/>
</radialGradient>
<clipPath id="clip0_4018_51648">
<rect width="1600" height="1000" fill="white"/>
</clipPath>
<clipPath id="clip1_4018_51648">
<rect width="540.366" height="473.366" fill="white" transform="translate(139.634 273.17)"/>
</clipPath>
<clipPath id="clip2_4018_51648">
<rect width="24.3269" height="24.3902" fill="white" transform="translate(154.997 312.197)"/>
</clipPath>
<clipPath id="clip3_4018_51648">
<rect width="78.0488" height="44" fill="white" transform="translate(339.634 302.441)"/>
</clipPath>
<clipPath id="clip4_4018_51648">
<rect x="203.048" y="360.979" width="462.317" height="370.924" rx="4.87805" fill="white"/>
</clipPath>
<clipPath id="clip5_4018_51648">
<rect width="540.366" height="473.366" fill="white" transform="translate(920.122 273.17)"/>
</clipPath>
<clipPath id="clip6_4018_51648">
<rect width="24.3269" height="24.3902" fill="white" transform="translate(935.484 312.197)"/>
</clipPath>
<clipPath id="clip7_4018_51648">
<rect width="78.0488" height="44" fill="white" transform="translate(1120.12 302.441)"/>
</clipPath>
<clipPath id="clip8_4018_51648">
<rect x="983.536" y="360.979" width="462.317" height="370.924" rx="4.87805" fill="white"/>
</clipPath>
<clipPath id="clip9_4018_51648">
<rect width="863.366" height="609.366" fill="white" transform="translate(367.39 195.121)"/>
</clipPath>
<clipPath id="clip10_4018_51648">
<rect width="24.3269" height="24.3902" fill="white" transform="translate(382.752 234.148)"/>
</clipPath>
<clipPath id="clip11_4018_51648">
<rect width="78.0488" height="44" fill="white" transform="translate(567.39 224.393)"/>
</clipPath>
<clipPath id="clip12_4018_51648">
<rect x="430.804" y="282.93" width="785.317" height="506.924" rx="4.87805" fill="white"/>
</clipPath>
</defs>
</svg>
