<svg width="1600" height="1000" viewBox="0 0 1600 1000" fill="none" xmlns="http://www.w3.org/2000/svg">
<g clip-path="url(#clip0_4018_51650)">
<rect width="1600" height="1000" fill="#234E8F"/>
<path opacity="0.6" d="M2101.95 1113.53V-82.0802C2101.95 -93.2844 2085.99 -98.1539 2079.82 -88.8061C1986.62 52.2366 1592.99 553.517 783.283 409.746C-85.5658 255.473 -446.729 998.035 -496.01 1110.27C-499.069 1117.24 -493.724 1124.33 -486.116 1124.33H2091.15C2097.12 1124.33 2101.95 1119.5 2101.95 1113.53Z" fill="url(#paint0_radial_4018_51650)"/>
<path d="M220.361 187.806C220.361 166.253 237.833 148.781 259.386 148.781H1340.61C1362.17 148.781 1379.64 166.253 1379.64 187.806V816.635H220.361V187.806Z" fill="#202A42"/>
<g clip-path="url(#clip1_4018_51650)">
<rect width="1100.74" height="609.317" transform="translate(249.629 178.049)" fill="white"/>
<g clip-path="url(#clip2_4018_51650)">
<rect width="1100.74" height="53.6585" transform="translate(249.629 178.049)" fill="#005FBA"/>
<g clip-path="url(#clip3_4018_51650)">
<path d="M267.935 206.961C266.292 205.318 266.292 202.655 267.935 201.012L278.048 211.125C279.691 212.768 279.691 215.431 278.048 217.074L267.935 206.961Z" fill="white"/>
<path d="M272.099 202.797C270.456 201.154 270.456 198.491 272.099 196.848L282.212 206.961C283.855 208.604 283.855 211.267 282.212 212.91L272.099 202.797Z" fill="white"/>
<path d="M276.263 198.632C274.62 196.99 274.62 194.326 276.263 192.684L286.376 202.797C288.019 204.439 288.019 207.103 286.376 208.745L276.263 198.632Z" fill="white"/>
</g>
<path d="M301.051 204.631C302.248 204.631 303.241 205.088 304.059 206.003L305.841 204.402C304.731 203.059 303.008 202.345 300.934 202.345C297.225 202.345 294.451 204.86 294.451 208.375C294.451 211.891 297.196 214.406 300.905 214.406C302.978 214.406 304.702 213.663 305.811 212.32L304.03 210.719C303.241 211.634 302.219 212.091 301.022 212.091C298.802 212.091 297.196 210.548 297.196 208.347C297.225 206.175 298.802 204.631 301.051 204.631ZM311.097 205.117C309.637 205.117 308.148 205.489 307.155 206.203L308.118 208.032C308.79 207.518 309.783 207.204 310.747 207.204C312.178 207.204 312.85 207.861 312.85 208.976H310.747C307.943 208.976 306.804 210.062 306.804 211.662C306.804 213.206 308.089 214.378 310.221 214.378C311.565 214.378 312.528 213.949 313.025 213.12V214.235H315.507V209.09C315.507 206.375 313.901 205.117 311.097 205.117ZM312.85 211.377C312.558 212.205 311.769 212.606 310.893 212.606C309.958 212.606 309.403 212.177 309.403 211.519C309.403 210.919 309.783 210.462 311.039 210.462H312.85V211.377ZM319.8 207.918C319.8 207.461 320.297 207.089 321.494 207.089C322.341 207.089 323.217 207.261 324.123 207.747L324.999 205.889C324.123 205.403 322.721 205.117 321.465 205.117C318.778 205.117 317.23 206.318 317.23 208.004C317.23 211.577 322.75 210.09 322.75 211.548C322.75 212.034 322.283 212.377 321.056 212.377C319.946 212.377 318.691 212.034 317.873 211.519L316.997 213.377C317.844 213.92 319.421 214.349 320.969 214.349C323.714 214.349 325.291 213.177 325.291 211.491C325.32 207.947 319.8 209.433 319.8 207.918ZM335.921 209.747C335.921 206.861 333.848 205.088 331.161 205.088C328.357 205.088 326.284 207.032 326.284 209.719C326.284 212.377 328.357 214.321 331.511 214.321C333.176 214.321 334.432 213.835 335.279 212.863L333.877 211.377C333.234 211.948 332.563 212.234 331.57 212.234C330.168 212.234 329.204 211.548 328.941 210.433H335.863C335.892 210.233 335.921 209.947 335.921 209.747ZM328.912 208.947C329.087 207.804 329.964 207.089 331.19 207.089C332.388 207.089 333.264 207.832 333.439 208.947H328.912ZM344.361 201.83V206.175C343.69 205.431 342.755 205.088 341.616 205.088C339.017 205.088 337.031 206.889 337.031 209.719C337.031 212.548 339.017 214.321 341.616 214.321C342.843 214.321 343.807 213.949 344.478 213.149V214.178H347.019V201.83H344.361ZM342.083 212.205C340.769 212.205 339.747 211.262 339.747 209.719C339.747 208.175 340.769 207.232 342.083 207.232C343.398 207.232 344.42 208.175 344.42 209.719C344.42 211.262 343.398 212.205 342.083 212.205ZM353.561 205.117C350.64 205.117 348.509 207.032 348.509 209.747C348.509 212.434 350.64 214.349 353.561 214.349C356.481 214.349 358.584 212.434 358.584 209.747C358.584 207.032 356.452 205.117 353.561 205.117ZM353.561 212.205C352.247 212.205 351.225 211.262 351.225 209.719C351.225 208.175 352.247 207.232 353.561 207.232C354.875 207.232 355.897 208.175 355.897 209.719C355.897 211.262 354.875 212.205 353.561 212.205ZM364.805 212.205C363.461 212.205 362.41 211.291 362.41 209.719C362.41 208.147 363.461 207.232 364.805 207.232C365.652 207.232 366.382 207.604 366.878 208.461L368.952 207.375C368.28 205.917 366.761 205.088 364.834 205.088C361.855 205.088 359.723 207.003 359.723 209.719C359.723 212.406 361.855 214.321 364.834 214.321C366.761 214.321 368.28 213.492 368.952 212.063L366.878 210.976C366.382 211.834 365.652 212.205 364.805 212.205Z" fill="white"/>
<g clip-path="url(#clip4_4018_51650)">
<rect width="39.0244" height="54" transform="translate(449.629 178.049)" fill="#0053B9"/>
<rect x="461.825" y="197.732" width="14.6341" height="14.6341" rx="2.43902" fill="#FFCC00"/>
<mask id="path-7-inside-1_4018_51650" fill="white">
<path d="M488.654 178.049H527.678V232.049H488.654V178.049Z"/>
</mask>
<path d="M527.678 178.049H526.459V232.049H527.678H528.898V178.049H527.678Z" fill="#0053B9" mask="url(#path-7-inside-1_4018_51650)"/>
<rect x="500.849" y="197.732" width="14.6341" height="14.6341" rx="2.43902" fill="white"/>
</g>
<g filter="url(#filter0_d_4018_51650)">
<rect width="1100.74" height="555.659" transform="translate(249.629 231.707)" fill="white"/>
<g clip-path="url(#clip5_4018_51650)">
<mask id="path-10-inside-2_4018_51650" fill="white">
<path d="M249.629 231.707H444.751V787.366H249.629V231.707Z"/>
</mask>
<rect width="195.122" height="156.098" transform="translate(249.629 231.707)" fill="white"/>
<rect x="249.629" y="373.17" width="195.122" height="14.6341" fill="#2752E7"/>
<rect x="413.044" y="365.854" width="14.6341" height="14.6341" rx="7.31707" fill="#FFCC00"/>
<rect width="195.122" height="399.561" transform="translate(249.629 387.805)" fill="#F4F4F4"/>
<rect x="269.142" y="402.439" width="14.6341" height="14.6341" rx="7.31707" fill="#0083F5"/>
<path d="M303.288 409.756H425.239" stroke="#D5D5D5" stroke-width="4.87805" stroke-linecap="round"/>
<path d="M259.385 432.926H434.995" stroke="#E4E4E4" stroke-width="1.21951"/>
<rect x="269.142" y="448.781" width="14.6341" height="14.6341" rx="7.31707" fill="#0083F5"/>
<path d="M303.288 456.098H425.239" stroke="#D5D5D5" stroke-width="4.87805" stroke-linecap="round"/>
<path d="M259.385 479.268H434.995" stroke="#E4E4E4" stroke-width="1.21951"/>
<rect x="269.142" y="495.123" width="14.6341" height="14.6341" rx="7.31707" fill="#0083F5"/>
<path d="M303.288 502.439H425.239" stroke="#D5D5D5" stroke-width="4.87805" stroke-linecap="round"/>
<path d="M259.385 525.609H434.995" stroke="#E4E4E4" stroke-width="1.21951"/>
<rect x="269.142" y="541.463" width="14.6341" height="14.6341" rx="7.31707" fill="#0083F5"/>
<path d="M303.288 548.779H425.239" stroke="#D5D5D5" stroke-width="4.87805" stroke-linecap="round"/>
<path d="M259.385 571.951H434.995" stroke="#E4E4E4" stroke-width="1.21951"/>
<rect x="269.142" y="587.805" width="14.6341" height="14.6341" rx="7.31707" fill="#0083F5"/>
<path d="M303.288 595.121H425.239" stroke="#D5D5D5" stroke-width="4.87805" stroke-linecap="round"/>
<path d="M259.385 618.291H434.995" stroke="#E4E4E4" stroke-width="1.21951"/>
<path d="M259.385 727.609H434.995" stroke="#E4E4E4" stroke-width="1.21951"/>
<path d="M269.142 758.096H386.215" stroke="#D5D5D5" stroke-width="4.87805" stroke-linecap="round"/>
<path fill-rule="evenodd" clip-rule="evenodd" d="M401.206 749.918C401.682 749.441 402.454 749.441 402.93 749.918L410.248 757.235C410.724 757.711 410.724 758.483 410.248 758.959L402.93 766.277C402.454 766.753 401.682 766.753 401.206 766.277C400.73 765.8 400.73 765.028 401.206 764.552L407.661 758.097L401.206 751.642C400.73 751.166 400.73 750.394 401.206 749.918Z" fill="#B3B7C1"/>
<path fill-rule="evenodd" clip-rule="evenodd" d="M420.718 749.918C421.194 749.441 421.966 749.441 422.443 749.918L429.76 757.235C430.236 757.711 430.236 758.483 429.76 758.959L422.443 766.277C421.966 766.753 421.194 766.753 420.718 766.277C420.242 765.8 420.242 765.028 420.718 764.552L427.173 758.097L420.718 751.642C420.242 751.166 420.242 750.394 420.718 749.918Z" fill="#B3B7C1"/>
</g>
<path d="M444.751 231.707H443.532V787.366H444.751H445.971V231.707H444.751Z" fill="#D9D9D9" mask="url(#path-10-inside-2_4018_51650)"/>
<g filter="url(#filter1_d_4018_51650)">
<g clip-path="url(#clip6_4018_51650)">
<rect x="459.386" y="246.342" width="666.595" height="253.659" rx="4.87805" fill="white"/>
<rect width="666.595" height="19.2073" transform="translate(459.386 246.342)" fill="#EEEEEE"/>
<rect x="758.537" y="253.506" width="68.2927" height="4.87805" rx="2.43902" fill="#2752E7"/>
<rect width="666.595" height="29.2683" transform="translate(459.386 265.549)" fill="white"/>
<rect x="469.142" y="275.305" width="39.0244" height="9.7561" rx="2.43902" fill="#0073CC"/>
<rect x="513.044" y="275.305" width="39.0244" height="9.7561" rx="2.43902" fill="#EEEEEE" stroke="#D5D5D5" stroke-width="0.489512"/>
<path d="M469.142 296.037H1116.22" stroke="#E4E4E4" stroke-width="1.21951"/>
<rect width="666.595" height="38.5976" transform="translate(459.386 297.258)" fill="white"/>
<path d="M473.776 310.865C473.372 310.865 473.044 311.182 473.044 311.573V311.844C473.044 311.883 473.077 311.915 473.117 311.915H475.905C476.378 311.915 476.797 312.207 476.946 312.641L477.346 313.802C477.396 313.947 477.536 314.044 477.694 314.044H484.625C485.156 314.044 485.61 314.411 485.705 314.916L486.07 316.854C486.085 316.939 486.215 316.927 486.215 316.841V311.573C486.215 311.182 485.887 310.865 485.483 310.865H473.776Z" fill="#202A42"/>
<path d="M471.816 312.648C471.824 312.645 471.832 312.644 471.84 312.644H475.842C476 312.644 476.141 312.741 476.191 312.886L476.594 314.051C476.744 314.486 477.166 314.779 477.642 314.779H484.62C484.798 314.779 484.95 314.902 484.982 315.071L486.214 321.599C486.215 321.606 486.215 321.613 486.214 321.619C486.169 321.97 485.859 322.241 485.483 322.241H485.433C485.402 322.245 485.37 322.247 485.337 322.247H473.587C473.22 322.247 472.909 321.987 472.857 321.638L471.584 313.029C471.559 312.86 471.662 312.705 471.816 312.648Z" fill="#202A42"/>
<path d="M503.288 316.557H901.59" stroke="#E4E4E4" stroke-width="4.87805" stroke-linecap="round"/>
<path d="M916.224 316.557H1111.35" stroke="#E4E4E4" stroke-width="4.87805" stroke-linecap="round"/>
<path d="M469.142 337.074H1116.22" stroke="#E4E4E4" stroke-width="1.21951"/>
<rect width="666.595" height="38.5976" transform="translate(459.386 338.295)" fill="white"/>
<path d="M473.776 351.902C473.372 351.902 473.044 352.219 473.044 352.61V352.881C473.044 352.92 473.077 352.952 473.117 352.952H475.905C476.378 352.952 476.797 353.245 476.946 353.678L477.346 354.839C477.396 354.984 477.536 355.081 477.694 355.081H484.625C485.156 355.081 485.61 355.448 485.705 355.953L486.07 357.891C486.085 357.976 486.215 357.965 486.215 357.878V352.61C486.215 352.219 485.887 351.902 485.483 351.902H473.776Z" fill="#202A42"/>
<path d="M471.816 353.685C471.824 353.682 471.832 353.681 471.84 353.681H475.842C476 353.681 476.141 353.779 476.191 353.924L476.594 355.088C476.744 355.523 477.166 355.817 477.642 355.817H484.62C484.798 355.817 484.95 355.939 484.982 356.108L486.214 362.636C486.215 362.643 486.215 362.65 486.214 362.656C486.169 363.007 485.859 363.279 485.483 363.279H485.433C485.402 363.282 485.37 363.284 485.337 363.284H473.587C473.22 363.284 472.909 363.025 472.857 362.675L471.584 354.066C471.559 353.897 471.662 353.742 471.816 353.685Z" fill="#202A42"/>
<path d="M503.288 357.594H698.41" stroke="#E4E4E4" stroke-width="4.87805" stroke-linecap="round"/>
<path d="M713.044 357.594H1111.35" stroke="#E4E4E4" stroke-width="4.87805" stroke-linecap="round"/>
<path d="M469.142 378.109H1116.22" stroke="#E4E4E4" stroke-width="1.21951"/>
<rect width="666.595" height="38.5976" transform="translate(459.386 379.33)" fill="white"/>
<path d="M473.776 392.938C473.372 392.938 473.044 393.254 473.044 393.645V393.917C473.044 393.956 473.077 393.987 473.117 393.987H475.905C476.378 393.987 476.797 394.28 476.946 394.713L477.346 395.874C477.396 396.019 477.536 396.116 477.694 396.116H484.625C485.156 396.116 485.61 396.483 485.705 396.988L486.07 398.926C486.085 399.011 486.215 399 486.215 398.913V393.645C486.215 393.254 485.887 392.938 485.483 392.938H473.776Z" fill="#202A42"/>
<path d="M471.816 394.72C471.824 394.717 471.832 394.716 471.84 394.716H475.842C476 394.716 476.141 394.814 476.191 394.959L476.594 396.123C476.744 396.558 477.166 396.852 477.642 396.852H484.62C484.798 396.852 484.95 396.974 484.982 397.143L486.214 403.671C486.215 403.678 486.215 403.685 486.214 403.692C486.169 404.042 485.859 404.314 485.483 404.314H485.433C485.402 404.318 485.37 404.32 485.337 404.32H473.587C473.22 404.32 472.909 404.06 472.857 403.71L471.584 395.102C471.559 394.933 471.662 394.778 471.816 394.72Z" fill="#202A42"/>
<path d="M503.288 398.629H655.727" stroke="#E4E4E4" stroke-width="4.87805" stroke-linecap="round"/>
<path d="M670.361 398.629H1111.35" stroke="#E4E4E4" stroke-width="4.87805" stroke-linecap="round"/>
<path d="M469.142 419.146H1116.22" stroke="#E4E4E4" stroke-width="1.21951"/>
<rect width="666.595" height="38.5976" transform="translate(459.386 420.367)" fill="white"/>
<path d="M473.776 433.975C473.372 433.975 473.044 434.292 473.044 434.682V434.954C473.044 434.993 473.077 435.024 473.117 435.024H475.905C476.378 435.024 476.797 435.317 476.946 435.75L477.346 436.911C477.396 437.056 477.536 437.153 477.694 437.153H484.625C485.156 437.153 485.61 437.52 485.705 438.025L486.07 439.963C486.085 440.048 486.215 440.037 486.215 439.951V434.682C486.215 434.292 485.887 433.975 485.483 433.975H473.776Z" fill="#202A42"/>
<path d="M471.816 435.757C471.824 435.754 471.832 435.753 471.84 435.753H475.842C476 435.753 476.141 435.851 476.191 435.996L476.594 437.161C476.744 437.595 477.166 437.889 477.642 437.889H484.62C484.798 437.889 484.95 438.012 484.982 438.18L486.214 444.708C486.215 444.715 486.215 444.722 486.214 444.729C486.169 445.079 485.859 445.351 485.483 445.351H485.433C485.402 445.355 485.37 445.357 485.337 445.357H473.587C473.22 445.357 472.909 445.097 472.857 444.747L471.584 436.139C471.559 435.97 471.662 435.815 471.816 435.757Z" fill="#202A42"/>
<path d="M503.288 439.666H698.41" stroke="#E4E4E4" stroke-width="4.87805" stroke-linecap="round"/>
<path d="M713.044 439.666H1111.35" stroke="#E4E4E4" stroke-width="4.87805" stroke-linecap="round"/>
<path d="M469.142 460.184H1116.22" stroke="#E4E4E4" stroke-width="1.21951"/>
<rect width="666.595" height="38.5976" transform="translate(459.386 461.404)" fill="white"/>
<path d="M473.776 475.012C473.372 475.012 473.044 475.329 473.044 475.72V475.991C473.044 476.03 473.077 476.062 473.117 476.062H475.905C476.378 476.062 476.797 476.354 476.946 476.788L477.346 477.949C477.396 478.093 477.536 478.191 477.694 478.191H484.625C485.156 478.191 485.61 478.558 485.705 479.062L486.07 481C486.085 481.085 486.215 481.074 486.215 480.988V475.72C486.215 475.329 485.887 475.012 485.483 475.012H473.776Z" fill="#202A42"/>
<path d="M471.816 476.794C471.824 476.791 471.832 476.79 471.84 476.79H475.842C476 476.79 476.141 476.888 476.191 477.033L476.594 478.198C476.744 478.633 477.166 478.926 477.642 478.926H484.62C484.798 478.926 484.95 479.049 484.982 479.217L486.214 485.745C486.215 485.752 486.215 485.759 486.214 485.766C486.169 486.116 485.859 486.388 485.483 486.388H485.433C485.402 486.392 485.37 486.394 485.337 486.394H473.587C473.22 486.394 472.909 486.134 472.857 485.784L471.584 477.176C471.559 477.007 471.662 476.852 471.816 476.794Z" fill="#202A42"/>
<path d="M503.288 480.703H851.59" stroke="#E4E4E4" stroke-width="4.87805" stroke-linecap="round"/>
<path d="M866.224 480.703L1111.35 480.703" stroke="#E4E4E4" stroke-width="4.87805" stroke-linecap="round"/>
</g>
<rect x="459.386" y="246.342" width="666.595" height="253.659" rx="4.87805" stroke="#E4E4E4" stroke-width="1.21951"/>
</g>
<g filter="url(#filter2_d_4018_51650)">
<g clip-path="url(#clip7_4018_51650)">
<rect x="459.386" y="514.635" width="666.595" height="258.098" rx="4.87805" fill="white"/>
<path d="M1125.98 514.635H459.386V543.901H1125.98V514.635Z" fill="#EEEEEE"/>
<path d="M466.703 526.83C466.703 525.483 467.795 524.391 469.142 524.391H513.044C514.391 524.391 515.483 525.483 515.483 526.83V543.903H466.703V526.83Z" fill="white"/>
<rect x="486.215" y="529.27" width="9.7561" height="9.7561" rx="4.87805" fill="#D9D9D9"/>
<rect x="525.239" y="529.27" width="9.7561" height="9.7561" rx="4.87805" fill="#2752E7"/>
<rect x="554.507" y="529.27" width="9.7561" height="9.7561" rx="2.43902" fill="#2752E7"/>
<rect width="666.595" height="29.2683" transform="translate(459.386 543.902)" fill="white"/>
<g clip-path="url(#clip8_4018_51650)">
<rect x="469.142" y="553.658" width="9.7561" height="9.7561" fill="#2752E7"/>
<rect x="478.897" y="553.658" width="9.7561" height="9.7561" fill="#EEEEEE"/>
</g>
<rect x="498.41" y="553.658" width="9.7561" height="9.7561" rx="1.21951" fill="#EEEEEE"/>
<path d="M469.142 574.391H1116.22" stroke="#E4E4E4" stroke-width="1.21951"/>
<rect width="666.595" height="64.0813" transform="translate(459.386 575.611)" fill="white"/>
<path d="M477.678 596.676H475.239C474.566 596.676 474.02 597.222 474.02 597.895V617.407C474.02 618.081 474.566 618.627 475.239 618.627H477.678V596.676Z" fill="#202A42"/>
<path d="M478.898 596.676H492.312C492.986 596.676 493.532 597.222 493.532 597.895V617.407C493.532 618.081 492.986 618.627 492.312 618.627H482.55L482.556 620.844C482.557 621.023 482.379 621.128 482.249 621.026L481.449 620.393C481.382 620.34 481.292 620.34 481.225 620.394L480.434 621.025C480.305 621.128 480.126 621.024 480.126 620.845L480.12 618.627H478.898V596.676Z" fill="#202A42"/>
<path d="M513.044 607.652H901.59" stroke="#E4E4E4" stroke-width="4.87805" stroke-linecap="round"/>
<path d="M916.224 607.652H1111.35" stroke="#E4E4E4" stroke-width="4.87805" stroke-linecap="round"/>
<path d="M469.142 640.91H1116.22" stroke="#E4E4E4" stroke-width="1.21951"/>
<rect width="666.595" height="64.0813" transform="translate(459.386 642.131)" fill="white"/>
<path d="M477.678 663.195H475.239C474.566 663.195 474.02 663.741 474.02 664.415V683.927C474.02 684.601 474.566 685.147 475.239 685.147H477.678V663.195Z" fill="#202A42"/>
<path d="M478.898 663.195H492.312C492.986 663.195 493.532 663.741 493.532 664.415V683.927C493.532 684.601 492.986 685.147 492.312 685.147H482.55L482.556 687.364C482.557 687.543 482.379 687.648 482.249 687.545L481.449 686.913C481.382 686.859 481.292 686.86 481.225 686.913L480.434 687.544C480.305 687.648 480.126 687.544 480.126 687.365L480.12 685.147H478.898V663.195Z" fill="#202A42"/>
<path d="M513.044 674.172H708.166" stroke="#E4E4E4" stroke-width="4.87805" stroke-linecap="round"/>
<path d="M722.8 674.172H1111.35" stroke="#E4E4E4" stroke-width="4.87805" stroke-linecap="round"/>
<path d="M469.142 707.432H1116.22" stroke="#E4E4E4" stroke-width="1.21951"/>
<rect width="666.595" height="64.0813" transform="translate(459.386 708.652)" fill="white"/>
<path d="M473.776 735.002C473.372 735.002 473.044 735.319 473.044 735.71V735.981C473.044 736.02 473.077 736.052 473.117 736.052H475.905C476.378 736.052 476.797 736.344 476.946 736.778L477.346 737.939C477.396 738.083 477.536 738.181 477.694 738.181H484.625C485.156 738.181 485.61 738.548 485.705 739.053L486.07 740.991C486.085 741.075 486.215 741.064 486.215 740.978V735.71C486.215 735.319 485.887 735.002 485.483 735.002H473.776Z" fill="#202A42"/>
<path d="M471.816 736.785C471.824 736.782 471.832 736.78 471.84 736.78H475.842C476 736.78 476.141 736.878 476.191 737.023L476.594 738.188C476.744 738.623 477.166 738.916 477.642 738.916H484.62C484.798 738.916 484.95 739.039 484.982 739.208L486.214 745.736C486.215 745.742 486.215 745.749 486.214 745.756C486.169 746.107 485.859 746.378 485.483 746.378H485.433C485.402 746.382 485.37 746.384 485.337 746.384H473.587C473.22 746.384 472.909 746.124 472.857 745.774L471.584 737.166C471.559 736.997 471.662 736.842 471.816 736.785Z" fill="#202A42"/>
<path d="M503.288 740.693H655.727" stroke="#E4E4E4" stroke-width="4.87805" stroke-linecap="round"/>
<path d="M670.361 740.693H1111.35" stroke="#E4E4E4" stroke-width="4.87805" stroke-linecap="round"/>
</g>
<rect x="459.386" y="514.635" width="666.595" height="258.098" rx="4.87805" stroke="#E4E4E4" stroke-width="1.21951"/>
</g>
<g filter="url(#filter3_d_4018_51650)">
<g clip-path="url(#clip9_4018_51650)">
<rect width="195.122" height="39.0244" transform="translate(1140.61 246.342)" fill="white"/>
<path d="M1155 260.162C1154.6 260.162 1154.27 260.479 1154.27 260.87V261.141C1154.27 261.18 1154.31 261.212 1154.35 261.212H1157.13C1157.61 261.212 1158.03 261.504 1158.17 261.938L1158.57 263.099C1158.62 263.244 1158.76 263.341 1158.92 263.341H1165.85C1166.38 263.341 1166.84 263.708 1166.93 264.213L1167.3 266.151C1167.31 266.236 1167.44 266.224 1167.44 266.138V260.87C1167.44 260.479 1167.12 260.162 1166.71 260.162H1155Z" fill="#202A42"/>
<path d="M1153.04 261.945C1153.05 261.942 1153.06 261.941 1153.07 261.941H1157.07C1157.23 261.941 1157.37 262.038 1157.42 262.183L1157.82 263.348C1157.97 263.783 1158.39 264.076 1158.87 264.076H1165.85C1166.03 264.076 1166.18 264.199 1166.21 264.368L1167.44 270.896C1167.44 270.902 1167.44 270.909 1167.44 270.916C1167.4 271.267 1167.09 271.538 1166.71 271.538H1166.66C1166.63 271.542 1166.6 271.544 1166.57 271.544H1154.82C1154.45 271.544 1154.14 271.284 1154.09 270.934L1152.81 262.326C1152.79 262.157 1152.89 262.002 1153.04 261.945Z" fill="#202A42"/>
<path d="M1184.52 265.854H1321.1" stroke="#D5D5D5" stroke-width="4.87805" stroke-linecap="round"/>
<rect width="195.122" height="48.7805" transform="translate(1140.61 285.365)" fill="white"/>
<path d="M1155.25 309.756H1282.08" stroke="#D5D5D5" stroke-width="4.87805" stroke-linecap="round"/>
<path fill-rule="evenodd" clip-rule="evenodd" d="M1306.82 301.576C1307.3 301.1 1308.07 301.1 1308.55 301.576L1315.87 308.893C1316.34 309.369 1316.34 310.141 1315.87 310.618L1308.55 317.935C1308.07 318.411 1307.3 318.411 1306.82 317.935C1306.35 317.458 1306.35 316.686 1306.82 316.21L1313.28 309.755L1306.82 303.301C1306.35 302.824 1306.35 302.052 1306.82 301.576Z" fill="#202A42"/>
<rect width="195.122" height="48.7805" transform="translate(1140.61 334.146)" fill="white"/>
<path d="M1155.25 358.537H1282.08" stroke="#D5D5D5" stroke-width="4.87805" stroke-linecap="round"/>
<path fill-rule="evenodd" clip-rule="evenodd" d="M1303.17 354.015C1303.64 353.539 1304.42 353.539 1304.89 354.015L1311.35 360.47L1317.8 354.015C1318.28 353.539 1319.05 353.539 1319.53 354.015C1320 354.492 1320 355.264 1319.53 355.74L1312.21 363.057C1311.73 363.533 1310.96 363.533 1310.48 363.057L1303.17 355.74C1302.69 355.264 1302.69 354.492 1303.17 354.015Z" fill="#202A42"/>
<rect width="195.122" height="389.805" transform="translate(1140.61 382.928)" fill="white"/>
<g clip-path="url(#clip10_4018_51650)">
<rect x="1150.37" y="392.684" width="175.61" height="370.293" rx="4.87805" fill="#F4F4F4"/>
<rect x="1160.13" y="410.771" width="14.6341" height="14.6341" rx="7.31707" fill="#0083F5"/>
<path d="M1189.39 418.088H1316.22" stroke="#D5D5D5" stroke-width="4.87805" stroke-linecap="round"/>
<path d="M1160.13 444.711H1316.22" stroke="#E4E4E4" stroke-width="1.21951"/>
<rect x="1160.13" y="464.02" width="14.6341" height="14.6341" rx="7.31707" fill="#0083F5"/>
<path d="M1189.39 471.336H1316.22" stroke="#D5D5D5" stroke-width="4.87805" stroke-linecap="round"/>
<path d="M1160.13 497.959H1316.22" stroke="#E4E4E4" stroke-width="1.21951"/>
<rect x="1160.13" y="517.266" width="14.6341" height="14.6341" rx="7.31707" fill="#0083F5"/>
<path d="M1189.39 524.582H1316.22" stroke="#D5D5D5" stroke-width="4.87805" stroke-linecap="round"/>
<path d="M1160.13 551.205H1316.22" stroke="#E4E4E4" stroke-width="1.21951"/>
<rect x="1160.13" y="570.514" width="14.6341" height="14.6341" rx="7.31707" fill="#0083F5"/>
<path d="M1189.39 577.83H1316.22" stroke="#D5D5D5" stroke-width="4.87805" stroke-linecap="round"/>
<path d="M1160.13 604.453H1316.22" stroke="#E4E4E4" stroke-width="1.21951"/>
<rect x="1160.13" y="623.762" width="14.6341" height="14.6341" rx="7.31707" fill="#0083F5"/>
<path d="M1189.39 631.078H1316.22" stroke="#D5D5D5" stroke-width="4.87805" stroke-linecap="round"/>
<path d="M1160.13 657.701H1316.22" stroke="#E4E4E4" stroke-width="1.21951"/>
<rect x="1160.13" y="677.008" width="14.6341" height="14.6341" rx="7.31707" fill="#0083F5"/>
<path d="M1189.39 684.324H1316.22" stroke="#D5D5D5" stroke-width="4.87805" stroke-linecap="round"/>
<path d="M1160.13 710.947H1316.22" stroke="#E4E4E4" stroke-width="1.21951"/>
<rect x="1160.13" y="730.256" width="14.6341" height="14.6341" rx="7.31707" fill="#0083F5"/>
<path d="M1189.39 737.572H1316.22" stroke="#D5D5D5" stroke-width="4.87805" stroke-linecap="round"/>
</g>
</g>
<rect x="1140.61" y="246.342" width="195.122" height="526.39" rx="4.87805" stroke="#E4E4E4" stroke-width="1.21951"/>
</g>
</g>
</g>
<rect opacity="0.6" x="249.629" y="178.049" width="1101" height="609" fill="#202A42"/>
<g filter="url(#filter4_d_4018_51650)">
<g clip-path="url(#clip11_4018_51650)">
<rect x="531.336" y="326.951" width="536.585" height="312.195" rx="9.7561" fill="white"/>
<rect width="536.585" height="29.2683" transform="translate(531.336 326.951)" fill="#FAFAFA"/>
<circle cx="555.727" cy="341.585" r="4.87805" fill="#2752E7"/>
<path d="M570.361 341.586H706.946" stroke="#2752E7" stroke-width="4.87805" stroke-linecap="round"/>
<path d="M531.336 357.438H1067.92" stroke="#DEDEDE" stroke-width="1.21951"/>
<rect x="550.849" y="373.293" width="117.073" height="136.585" rx="9.7561" fill="#FAFAFA"/>
<rect x="550.849" y="373.293" width="117.073" height="136.585" rx="9.7561" stroke="#DEDEDE" stroke-width="1.21951"/>
<path d="M618.044 447.287C618.044 452.775 623.807 457.165 630.941 457.165C638.075 457.165 643.837 452.683 643.837 447.287H618.044V447.287Z" fill="#0083F5"/>
<path d="M630.941 418.385L618.044 447.379H643.837L630.941 418.385Z" fill="#2752E7"/>
<path d="M573.41 447.287C573.41 452.775 579.172 457.165 586.306 457.165C593.44 457.165 599.202 452.683 599.202 447.287H573.41V447.287Z" fill="#0083F5"/>
<path d="M586.306 418.385L573.41 447.287H599.202L586.306 418.385Z" fill="#2752E7"/>
<path fill-rule="evenodd" clip-rule="evenodd" d="M580.361 420.213C580.361 419.024 581.367 418.018 582.556 418.018H634.782C635.971 418.018 636.977 419.024 636.977 420.213C636.977 421.402 635.971 422.408 634.782 422.408H582.556C581.367 422.408 580.361 421.402 580.361 420.213Z" fill="#193594"/>
<path fill-rule="evenodd" clip-rule="evenodd" d="M608.624 409.055C611.642 409.055 614.112 411.524 614.112 414.542V472.713L608.624 472.622L603.136 472.713V414.542C603.045 411.524 605.606 409.055 608.624 409.055Z" fill="#2752E7"/>
<path d="M584.843 470.702C584.843 469.97 585.574 469.33 586.398 469.33H630.757C631.581 469.33 632.312 469.97 632.312 470.702V473.812H584.934L584.843 470.702Z" fill="#193594"/>
<path d="M608.623 422.501C609.903 422.501 610.91 421.495 610.91 420.214C610.91 418.934 609.903 417.928 608.623 417.928C607.343 417.928 606.336 418.934 606.336 420.214C606.428 421.495 607.434 422.501 608.623 422.501Z" fill="#0083F5"/>
<path d="M584.995 524.512H633.776" stroke="#FFCC00" stroke-width="4.87805" stroke-linecap="round"/>
<path d="M550.849 544.025H614.263" stroke="#888888" stroke-width="2.43902" stroke-linecap="round"/>
<path d="M550.849 553.781H667.922" stroke="#D9D9D9" stroke-width="2.43902" stroke-linecap="round"/>
<path d="M550.849 563.537H667.922" stroke="#D9D9D9" stroke-width="2.43902" stroke-linecap="round"/>
<path d="M550.849 573.293H587.434" stroke="#D9D9D9" stroke-width="2.43902" stroke-linecap="round"/>
<path d="M687.434 373.293H1048.41" stroke="#DEDEDE" stroke-width="1.21951"/>
<path d="M698.865 387.162H724.784" stroke="#FFCC00" stroke-width="3.34893" stroke-linecap="round"/>
<path d="M776.914 387.162H802.833" stroke="#0083F5" stroke-width="3.34893" stroke-linecap="round"/>
<path d="M854.962 387.162H880.882" stroke="#0083F5" stroke-width="3.34893" stroke-linecap="round"/>
<path d="M933.011 387.162H958.93" stroke="#0083F5" stroke-width="3.34893" stroke-linecap="round"/>
<path d="M1011.06 387.162H1036.98" stroke="#0083F5" stroke-width="3.34893" stroke-linecap="round"/>
<path d="M687.434 401.031H1048.41" stroke="#DEDEDE" stroke-width="1.21951"/>
<rect x="687.434" y="410.789" width="82.9268" height="76.3743" rx="9.7561" fill="#FAFAFA"/>
<rect x="687.434" y="410.789" width="82.9268" height="76.3743" rx="9.7561" stroke="#DEDEDE" stroke-width="1.21951"/>
<path d="M734.31 452.539C734.31 455.969 737.911 458.713 742.37 458.713C746.829 458.713 750.43 455.912 750.43 452.539H734.31V452.539Z" fill="#0083F5"/>
<path d="M742.37 434.475L734.31 452.596H750.43L742.37 434.475Z" fill="#2752E7"/>
<path d="M706.413 452.539C706.413 455.969 710.014 458.713 714.473 458.713C718.932 458.713 722.533 455.912 722.533 452.539H706.413V452.539Z" fill="#0083F5"/>
<path d="M714.473 434.475L706.413 452.539H722.533L714.473 434.475Z" fill="#2752E7"/>
<path fill-rule="evenodd" clip-rule="evenodd" d="M710.757 435.618C710.757 434.875 711.386 434.246 712.129 434.246H744.77C745.513 434.246 746.142 434.875 746.142 435.618C746.142 436.361 745.513 436.99 744.77 436.99H712.129C711.386 436.99 710.757 436.361 710.757 435.618Z" fill="#193594"/>
<path fill-rule="evenodd" clip-rule="evenodd" d="M728.422 428.645C730.308 428.645 731.851 430.188 731.851 432.074V468.431L728.422 468.374L724.992 468.431V432.074C724.935 430.188 726.535 428.645 728.422 428.645Z" fill="#2752E7"/>
<path d="M713.558 467.174C713.558 466.717 714.015 466.316 714.53 466.316H742.255C742.769 466.316 743.227 466.717 743.227 467.174V469.117H713.615L713.558 467.174Z" fill="#193594"/>
<path d="M728.421 437.048C729.221 437.048 729.85 436.419 729.85 435.619C729.85 434.818 729.221 434.189 728.421 434.189C727.621 434.189 726.992 434.818 726.992 435.619C727.049 436.419 727.678 437.048 728.421 437.048Z" fill="#0083F5"/>
<rect x="780.117" y="410.789" width="82.9268" height="76.3743" rx="9.7561" fill="#FAFAFA"/>
<rect x="780.117" y="410.789" width="82.9268" height="76.3743" rx="9.7561" stroke="#DEDEDE" stroke-width="1.21951"/>
<path d="M826.993 452.539C826.993 455.969 830.594 458.713 835.053 458.713C839.512 458.713 843.113 455.912 843.113 452.539H826.993V452.539Z" fill="#0083F5"/>
<path d="M835.053 434.475L826.993 452.596H843.113L835.053 434.475Z" fill="#2752E7"/>
<path d="M799.096 452.539C799.096 455.969 802.697 458.713 807.156 458.713C811.615 458.713 815.216 455.912 815.216 452.539H799.096V452.539Z" fill="#0083F5"/>
<path d="M807.156 434.475L799.096 452.539H815.216L807.156 434.475Z" fill="#2752E7"/>
<path fill-rule="evenodd" clip-rule="evenodd" d="M803.44 435.618C803.44 434.875 804.069 434.246 804.812 434.246H837.453C838.196 434.246 838.825 434.875 838.825 435.618C838.825 436.361 838.196 436.99 837.453 436.99H804.812C804.069 436.99 803.44 436.361 803.44 435.618Z" fill="#193594"/>
<path fill-rule="evenodd" clip-rule="evenodd" d="M821.105 428.645C822.991 428.645 824.535 430.188 824.535 432.074V468.431L821.105 468.374L817.675 468.431V432.074C817.618 430.188 819.218 428.645 821.105 428.645Z" fill="#2752E7"/>
<path d="M806.241 467.174C806.241 466.717 806.699 466.316 807.213 466.316H834.938C835.452 466.316 835.91 466.717 835.91 467.174V469.117H806.298L806.241 467.174Z" fill="#193594"/>
<path d="M821.104 437.048C821.904 437.048 822.533 436.419 822.533 435.619C822.533 434.818 821.904 434.189 821.104 434.189C820.304 434.189 819.675 434.818 819.675 435.619C819.732 436.419 820.361 437.048 821.104 437.048Z" fill="#0083F5"/>
<rect x="872.8" y="410.789" width="82.9268" height="76.3743" rx="9.7561" fill="#FAFAFA"/>
<rect x="872.8" y="410.789" width="82.9268" height="76.3743" rx="9.7561" stroke="#DEDEDE" stroke-width="1.21951"/>
<path d="M919.675 452.539C919.675 455.969 923.277 458.713 927.736 458.713C932.194 458.713 935.796 455.912 935.796 452.539H919.675V452.539Z" fill="#0083F5"/>
<path d="M927.736 434.475L919.675 452.596H935.796L927.736 434.475Z" fill="#2752E7"/>
<path d="M891.778 452.539C891.778 455.969 895.38 458.713 899.839 458.713C904.297 458.713 907.899 455.912 907.899 452.539H891.778V452.539Z" fill="#0083F5"/>
<path d="M899.839 434.475L891.778 452.539H907.899L899.839 434.475Z" fill="#2752E7"/>
<path fill-rule="evenodd" clip-rule="evenodd" d="M896.123 435.618C896.123 434.875 896.751 434.246 897.495 434.246H930.136C930.879 434.246 931.507 434.875 931.507 435.618C931.507 436.361 930.879 436.99 930.136 436.99H897.495C896.751 436.99 896.123 436.361 896.123 435.618Z" fill="#193594"/>
<path fill-rule="evenodd" clip-rule="evenodd" d="M913.787 428.645C915.674 428.645 917.217 430.188 917.217 432.074V468.431L913.787 468.374L910.357 468.431V432.074C910.3 430.188 911.901 428.645 913.787 428.645Z" fill="#2752E7"/>
<path d="M898.924 467.174C898.924 466.717 899.381 466.316 899.896 466.316H927.62C928.135 466.316 928.592 466.717 928.592 467.174V469.117H898.981L898.924 467.174Z" fill="#193594"/>
<path d="M913.787 437.048C914.587 437.048 915.216 436.419 915.216 435.619C915.216 434.818 914.587 434.189 913.787 434.189C912.986 434.189 912.357 434.818 912.357 435.619C912.415 436.419 913.043 437.048 913.787 437.048Z" fill="#0083F5"/>
<rect x="965.483" y="410.789" width="82.9268" height="76.3743" rx="9.7561" fill="#FAFAFA"/>
<rect x="965.483" y="410.789" width="82.9268" height="76.3743" rx="9.7561" stroke="#DEDEDE" stroke-width="1.21951"/>
<path d="M1012.36 452.539C1012.36 455.969 1015.96 458.713 1020.42 458.713C1024.88 458.713 1028.48 455.912 1028.48 452.539H1012.36V452.539Z" fill="#0083F5"/>
<path d="M1020.42 434.475L1012.36 452.596H1028.48L1020.42 434.475Z" fill="#2752E7"/>
<path d="M984.461 452.539C984.461 455.969 988.063 458.713 992.522 458.713C996.98 458.713 1000.58 455.912 1000.58 452.539H984.461V452.539Z" fill="#0083F5"/>
<path d="M992.522 434.475L984.461 452.539H1000.58L992.522 434.475Z" fill="#2752E7"/>
<path fill-rule="evenodd" clip-rule="evenodd" d="M988.806 435.618C988.806 434.875 989.434 434.246 990.178 434.246H1022.82C1023.56 434.246 1024.19 434.875 1024.19 435.618C1024.19 436.361 1023.56 436.99 1022.82 436.99H990.178C989.434 436.99 988.806 436.361 988.806 435.618Z" fill="#193594"/>
<path fill-rule="evenodd" clip-rule="evenodd" d="M1006.47 428.645C1008.36 428.645 1009.9 430.188 1009.9 432.074V468.431L1006.47 468.374L1003.04 468.431V432.074C1002.98 430.188 1004.58 428.645 1006.47 428.645Z" fill="#2752E7"/>
<path d="M991.607 467.174C991.607 466.717 992.064 466.316 992.579 466.316H1020.3C1020.82 466.316 1021.28 466.717 1021.28 467.174V469.117H991.664L991.607 467.174Z" fill="#193594"/>
<path d="M1006.47 437.048C1007.27 437.048 1007.9 436.419 1007.9 435.619C1007.9 434.818 1007.27 434.189 1006.47 434.189C1005.67 434.189 1005.04 434.818 1005.04 435.619C1005.1 436.419 1005.73 437.048 1006.47 437.048Z" fill="#0083F5"/>
<rect x="687.434" y="496.92" width="82.9268" height="76.3743" rx="9.7561" fill="#FAFAFA"/>
<rect x="687.434" y="496.92" width="82.9268" height="76.3743" rx="9.7561" stroke="#DEDEDE" stroke-width="1.21951"/>
<path d="M734.31 538.67C734.31 542.1 737.911 544.844 742.37 544.844C746.829 544.844 750.43 542.043 750.43 538.67H734.31V538.67Z" fill="#0083F5"/>
<path d="M742.37 520.605L734.31 538.727H750.43L742.37 520.605Z" fill="#2752E7"/>
<path d="M706.413 538.67C706.413 542.1 710.014 544.844 714.473 544.844C718.932 544.844 722.533 542.043 722.533 538.67H706.413V538.67Z" fill="#0083F5"/>
<path d="M714.473 520.605L706.413 538.669H722.533L714.473 520.605Z" fill="#2752E7"/>
<path fill-rule="evenodd" clip-rule="evenodd" d="M710.757 521.749C710.757 521.006 711.386 520.377 712.129 520.377H744.77C745.513 520.377 746.142 521.006 746.142 521.749C746.142 522.492 745.513 523.121 744.77 523.121H712.129C711.386 523.121 710.757 522.492 710.757 521.749Z" fill="#193594"/>
<path fill-rule="evenodd" clip-rule="evenodd" d="M728.422 514.775C730.308 514.775 731.851 516.319 731.851 518.205V554.562L728.422 554.505L724.992 554.562V518.205C724.935 516.319 726.535 514.775 728.422 514.775Z" fill="#2752E7"/>
<path d="M713.558 553.305C713.558 552.847 714.015 552.447 714.53 552.447H742.255C742.769 552.447 743.227 552.847 743.227 553.305V555.248H713.615L713.558 553.305Z" fill="#193594"/>
<path d="M728.421 523.179C729.221 523.179 729.85 522.55 729.85 521.749C729.85 520.949 729.221 520.32 728.421 520.32C727.621 520.32 726.992 520.949 726.992 521.749C727.049 522.55 727.678 523.179 728.421 523.179Z" fill="#0083F5"/>
<rect x="780.117" y="496.92" width="82.9268" height="76.3743" rx="9.7561" fill="#FAFAFA"/>
<rect x="780.117" y="496.92" width="82.9268" height="76.3743" rx="9.7561" stroke="#DEDEDE" stroke-width="1.21951"/>
<path d="M826.993 538.67C826.993 542.1 830.594 544.844 835.053 544.844C839.512 544.844 843.113 542.043 843.113 538.67H826.993V538.67Z" fill="#0083F5"/>
<path d="M835.053 520.605L826.993 538.727H843.113L835.053 520.605Z" fill="#2752E7"/>
<path d="M799.096 538.67C799.096 542.1 802.697 544.844 807.156 544.844C811.615 544.844 815.216 542.043 815.216 538.67H799.096V538.67Z" fill="#0083F5"/>
<path d="M807.156 520.605L799.096 538.669H815.216L807.156 520.605Z" fill="#2752E7"/>
<path fill-rule="evenodd" clip-rule="evenodd" d="M803.44 521.749C803.44 521.006 804.069 520.377 804.812 520.377H837.453C838.196 520.377 838.825 521.006 838.825 521.749C838.825 522.492 838.196 523.121 837.453 523.121H804.812C804.069 523.121 803.44 522.492 803.44 521.749Z" fill="#193594"/>
<path fill-rule="evenodd" clip-rule="evenodd" d="M821.105 514.775C822.991 514.775 824.535 516.319 824.535 518.205V554.562L821.105 554.505L817.675 554.562V518.205C817.618 516.319 819.218 514.775 821.105 514.775Z" fill="#2752E7"/>
<path d="M806.241 553.305C806.241 552.847 806.699 552.447 807.213 552.447H834.938C835.452 552.447 835.91 552.847 835.91 553.305V555.248H806.298L806.241 553.305Z" fill="#193594"/>
<path d="M821.104 523.179C821.904 523.179 822.533 522.55 822.533 521.749C822.533 520.949 821.904 520.32 821.104 520.32C820.304 520.32 819.675 520.949 819.675 521.749C819.732 522.55 820.361 523.179 821.104 523.179Z" fill="#0083F5"/>
<rect x="872.8" y="496.92" width="82.9268" height="76.3743" rx="9.7561" fill="#FAFAFA"/>
<rect x="872.8" y="496.92" width="82.9268" height="76.3743" rx="9.7561" stroke="#DEDEDE" stroke-width="1.21951"/>
<path d="M919.675 538.67C919.675 542.1 923.277 544.844 927.736 544.844C932.194 544.844 935.796 542.043 935.796 538.67H919.675V538.67Z" fill="#0083F5"/>
<path d="M927.736 520.605L919.675 538.727H935.796L927.736 520.605Z" fill="#2752E7"/>
<path d="M891.778 538.67C891.778 542.1 895.38 544.844 899.839 544.844C904.297 544.844 907.899 542.043 907.899 538.67H891.778V538.67Z" fill="#0083F5"/>
<path d="M899.839 520.605L891.778 538.669H907.899L899.839 520.605Z" fill="#2752E7"/>
<path fill-rule="evenodd" clip-rule="evenodd" d="M896.123 521.749C896.123 521.006 896.751 520.377 897.495 520.377H930.136C930.879 520.377 931.507 521.006 931.507 521.749C931.507 522.492 930.879 523.121 930.136 523.121H897.495C896.751 523.121 896.123 522.492 896.123 521.749Z" fill="#193594"/>
<path fill-rule="evenodd" clip-rule="evenodd" d="M913.787 514.775C915.674 514.775 917.217 516.319 917.217 518.205V554.562L913.787 554.505L910.357 554.562V518.205C910.3 516.319 911.901 514.775 913.787 514.775Z" fill="#2752E7"/>
<path d="M898.924 553.305C898.924 552.847 899.381 552.447 899.896 552.447H927.62C928.135 552.447 928.592 552.847 928.592 553.305V555.248H898.981L898.924 553.305Z" fill="#193594"/>
<path d="M913.787 523.179C914.587 523.179 915.216 522.55 915.216 521.749C915.216 520.949 914.587 520.32 913.787 520.32C912.986 520.32 912.357 520.949 912.357 521.749C912.415 522.55 913.043 523.179 913.787 523.179Z" fill="#0083F5"/>
<rect x="965.483" y="496.92" width="82.9268" height="76.3743" rx="9.7561" fill="#FAFAFA"/>
<rect x="965.483" y="496.92" width="82.9268" height="76.3743" rx="9.7561" stroke="#DEDEDE" stroke-width="1.21951"/>
<path d="M1012.36 538.67C1012.36 542.1 1015.96 544.844 1020.42 544.844C1024.88 544.844 1028.48 542.043 1028.48 538.67H1012.36V538.67Z" fill="#0083F5"/>
<path d="M1020.42 520.605L1012.36 538.727H1028.48L1020.42 520.605Z" fill="#2752E7"/>
<path d="M984.461 538.67C984.461 542.1 988.063 544.844 992.522 544.844C996.98 544.844 1000.58 542.043 1000.58 538.67H984.461V538.67Z" fill="#0083F5"/>
<path d="M992.522 520.605L984.461 538.669H1000.58L992.522 520.605Z" fill="#2752E7"/>
<path fill-rule="evenodd" clip-rule="evenodd" d="M988.806 521.749C988.806 521.006 989.434 520.377 990.178 520.377H1022.82C1023.56 520.377 1024.19 521.006 1024.19 521.749C1024.19 522.492 1023.56 523.121 1022.82 523.121H990.178C989.434 523.121 988.806 522.492 988.806 521.749Z" fill="#193594"/>
<path fill-rule="evenodd" clip-rule="evenodd" d="M1006.47 514.775C1008.36 514.775 1009.9 516.319 1009.9 518.205V554.562L1006.47 554.505L1003.04 554.562V518.205C1002.98 516.319 1004.58 514.775 1006.47 514.775Z" fill="#2752E7"/>
<path d="M991.607 553.305C991.607 552.847 992.064 552.447 992.579 552.447H1020.3C1020.82 552.447 1021.28 552.847 1021.28 553.305V555.248H991.664L991.607 553.305Z" fill="#193594"/>
<path d="M1006.47 523.179C1007.27 523.179 1007.9 522.55 1007.9 521.749C1007.9 520.949 1007.27 520.32 1006.47 520.32C1005.67 520.32 1005.04 520.949 1005.04 521.749C1005.1 522.55 1005.73 523.179 1006.47 523.179Z" fill="#0083F5"/>
<path d="M531.336 589.146H1067.92" stroke="#DEDEDE" stroke-width="1.21951"/>
<rect width="536.585" height="48.7805" transform="translate(531.336 590.365)" fill="#FAFAFA"/>
<rect x="877.678" y="605" width="78.0488" height="19.5122" rx="4.87805" fill="#0083F5"/>
<rect x="970.361" y="605" width="78.0488" height="19.5122" rx="4.87805" fill="#EEEEEE" stroke="#DEDEDE" stroke-width="1.21951"/>
</g>
</g>
</g>
<g clip-path="url(#clip12_4018_51650)">
<path d="M137.195 816.094C137.195 813.699 139.137 811.758 141.531 811.758H1458.64C1461.03 811.758 1462.98 813.699 1462.98 816.094V816.094C1462.98 835.252 1447.45 850.782 1428.29 850.782H171.884C152.726 850.782 137.195 835.252 137.195 816.094V816.094Z" fill="#505F8A"/>
<path d="M655.88 811.758H945.141V811.758C945.141 818.942 939.317 824.766 932.133 824.766H668.888C661.704 824.766 655.88 818.942 655.88 811.758V811.758Z" fill="url(#paint1_linear_4018_51650)"/>
<rect x="137.195" y="831.27" width="1326" height="19.4878" fill="url(#paint2_linear_4018_51650)"/>
<g opacity="0.3" style="mix-blend-mode:lighten">
<rect width="96.4204" height="39" transform="matrix(-1 0 0 1 1463.35 811.758)" fill="url(#paint3_linear_4018_51650)"/>
</g>
<g opacity="0.3" style="mix-blend-mode:lighten">
<rect x="137.195" y="811.758" width="96.4204" height="39" fill="url(#paint4_linear_4018_51650)"/>
</g>
</g>
</g>
<defs>
<filter id="filter0_d_4018_51650" x="152.068" y="143.902" width="1295.86" height="750.78" filterUnits="userSpaceOnUse" color-interpolation-filters="sRGB">
<feFlood flood-opacity="0" result="BackgroundImageFix"/>
<feColorMatrix in="SourceAlpha" type="matrix" values="0 0 0 0 0 0 0 0 0 0 0 0 0 0 0 0 0 0 127 0" result="hardAlpha"/>
<feOffset dy="9.7561"/>
<feGaussianBlur stdDeviation="48.7805"/>
<feColorMatrix type="matrix" values="0 0 0 0 0.12549 0 0 0 0 0.164706 0 0 0 0 0.258824 0 0 0 0.12 0"/>
<feBlend mode="normal" in2="BackgroundImageFix" result="effect1_dropShadow_4018_51650"/>
<feBlend mode="normal" in="SourceGraphic" in2="effect1_dropShadow_4018_51650" result="shape"/>
</filter>
<filter id="filter1_d_4018_51650" x="439.264" y="231.098" width="706.838" height="293.901" filterUnits="userSpaceOnUse" color-interpolation-filters="sRGB">
<feFlood flood-opacity="0" result="BackgroundImageFix"/>
<feColorMatrix in="SourceAlpha" type="matrix" values="0 0 0 0 0 0 0 0 0 0 0 0 0 0 0 0 0 0 127 0" result="hardAlpha"/>
<feOffset dy="4.87805"/>
<feGaussianBlur stdDeviation="9.7561"/>
<feColorMatrix type="matrix" values="0 0 0 0 0.12549 0 0 0 0 0.164706 0 0 0 0 0.258824 0 0 0 0.16 0"/>
<feBlend mode="normal" in2="BackgroundImageFix" result="effect1_dropShadow_4018_51650"/>
<feBlend mode="normal" in="SourceGraphic" in2="effect1_dropShadow_4018_51650" result="shape"/>
</filter>
<filter id="filter2_d_4018_51650" x="439.264" y="499.391" width="706.838" height="298.341" filterUnits="userSpaceOnUse" color-interpolation-filters="sRGB">
<feFlood flood-opacity="0" result="BackgroundImageFix"/>
<feColorMatrix in="SourceAlpha" type="matrix" values="0 0 0 0 0 0 0 0 0 0 0 0 0 0 0 0 0 0 127 0" result="hardAlpha"/>
<feOffset dy="4.87805"/>
<feGaussianBlur stdDeviation="9.7561"/>
<feColorMatrix type="matrix" values="0 0 0 0 0.12549 0 0 0 0 0.164706 0 0 0 0 0.258824 0 0 0 0.16 0"/>
<feBlend mode="normal" in2="BackgroundImageFix" result="effect1_dropShadow_4018_51650"/>
<feBlend mode="normal" in="SourceGraphic" in2="effect1_dropShadow_4018_51650" result="shape"/>
</filter>
<filter id="filter3_d_4018_51650" x="1120.49" y="231.098" width="235.366" height="566.634" filterUnits="userSpaceOnUse" color-interpolation-filters="sRGB">
<feFlood flood-opacity="0" result="BackgroundImageFix"/>
<feColorMatrix in="SourceAlpha" type="matrix" values="0 0 0 0 0 0 0 0 0 0 0 0 0 0 0 0 0 0 127 0" result="hardAlpha"/>
<feOffset dy="4.87805"/>
<feGaussianBlur stdDeviation="9.7561"/>
<feColorMatrix type="matrix" values="0 0 0 0 0.12549 0 0 0 0 0.164706 0 0 0 0 0.258824 0 0 0 0.16 0"/>
<feBlend mode="normal" in2="BackgroundImageFix" result="effect1_dropShadow_4018_51650"/>
<feBlend mode="normal" in="SourceGraphic" in2="effect1_dropShadow_4018_51650" result="shape"/>
</filter>
<filter id="filter4_d_4018_51650" x="414.263" y="214.756" width="770.732" height="546.342" filterUnits="userSpaceOnUse" color-interpolation-filters="sRGB">
<feFlood flood-opacity="0" result="BackgroundImageFix"/>
<feColorMatrix in="SourceAlpha" type="matrix" values="0 0 0 0 0 0 0 0 0 0 0 0 0 0 0 0 0 0 127 0" result="hardAlpha"/>
<feOffset dy="4.87805"/>
<feGaussianBlur stdDeviation="58.5366"/>
<feColorMatrix type="matrix" values="0 0 0 0 0.12549 0 0 0 0 0.164706 0 0 0 0 0.258824 0 0 0 0.6 0"/>
<feBlend mode="normal" in2="BackgroundImageFix" result="effect1_dropShadow_4018_51650"/>
<feBlend mode="normal" in="SourceGraphic" in2="effect1_dropShadow_4018_51650" result="shape"/>
</filter>
<radialGradient id="paint0_radial_4018_51650" cx="0" cy="0" r="1" gradientUnits="userSpaceOnUse" gradientTransform="translate(991.621 96.0476) rotate(116.29) scale(805.552 816.201)">
<stop/>
<stop offset="1" stop-opacity="0"/>
</radialGradient>
<linearGradient id="paint1_linear_4018_51650" x1="945.593" y1="811.758" x2="655.88" y2="811.758" gradientUnits="userSpaceOnUse">
<stop stop-color="#040B1F" stop-opacity="0.8"/>
<stop offset="0.131938" stop-color="#F2F4F7" stop-opacity="0.2"/>
<stop offset="0.340275" stop-color="#E3E2B4"/>
<stop offset="0.845492" stop-color="#F2F4F7" stop-opacity="0.2"/>
<stop offset="1" stop-color="#040B1F" stop-opacity="0.9"/>
</linearGradient>
<linearGradient id="paint2_linear_4018_51650" x1="800.195" y1="831.27" x2="800.195" y2="858.877" gradientUnits="userSpaceOnUse">
<stop offset="0.0304892" stop-opacity="0"/>
<stop offset="1"/>
</linearGradient>
<linearGradient id="paint3_linear_4018_51650" x1="96.4204" y1="0" x2="-30.1314" y2="0" gradientUnits="userSpaceOnUse">
<stop stop-color="#202A42" stop-opacity="0"/>
<stop offset="1" stop-color="white"/>
</linearGradient>
<linearGradient id="paint4_linear_4018_51650" x1="233.616" y1="811.758" x2="107.064" y2="811.758" gradientUnits="userSpaceOnUse">
<stop stop-color="#202A42" stop-opacity="0"/>
<stop offset="1" stop-color="white"/>
</linearGradient>
<clipPath id="clip0_4018_51650">
<rect width="1600" height="1000" fill="white"/>
</clipPath>
<clipPath id="clip1_4018_51650">
<rect x="249.629" y="178.049" width="1100.74" height="609.317" rx="14.6341" fill="white"/>
</clipPath>
<clipPath id="clip2_4018_51650">
<rect width="1100.74" height="609.317" fill="white" transform="translate(249.629 178.049)"/>
</clipPath>
<clipPath id="clip3_4018_51650">
<rect width="24.3269" height="24.3902" fill="white" transform="translate(264.992 192.684)"/>
</clipPath>
<clipPath id="clip4_4018_51650">
<rect width="78.0488" height="54" fill="white" transform="translate(449.629 178.049)"/>
</clipPath>
<clipPath id="clip5_4018_51650">
<path d="M249.629 231.707H444.751V787.366H249.629V231.707Z" fill="white"/>
</clipPath>
<clipPath id="clip6_4018_51650">
<rect x="459.386" y="246.342" width="666.595" height="253.659" rx="4.87805" fill="white"/>
</clipPath>
<clipPath id="clip7_4018_51650">
<rect x="459.386" y="514.635" width="666.595" height="258.098" rx="4.87805" fill="white"/>
</clipPath>
<clipPath id="clip8_4018_51650">
<rect x="469.142" y="553.658" width="19.5122" height="9.7561" rx="1.21951" fill="white"/>
</clipPath>
<clipPath id="clip9_4018_51650">
<rect x="1140.61" y="246.342" width="195.122" height="526.39" rx="4.87805" fill="white"/>
</clipPath>
<clipPath id="clip10_4018_51650">
<rect x="1150.37" y="392.684" width="175.61" height="370.293" rx="4.87805" fill="white"/>
</clipPath>
<clipPath id="clip11_4018_51650">
<rect x="531.336" y="326.951" width="536.585" height="312.195" rx="9.7561" fill="white"/>
</clipPath>
<clipPath id="clip12_4018_51650">
<path d="M137.195 816.094C137.195 813.699 139.137 811.758 141.531 811.758H1458.64C1461.03 811.758 1462.98 813.699 1462.98 816.094V816.094C1462.98 835.252 1447.45 850.782 1428.29 850.782H171.884C152.726 850.782 137.195 835.252 137.195 816.094V816.094Z" fill="white"/>
</clipPath>
</defs>
</svg>
