<svg width="1600" height="1000" viewBox="0 0 1600 1000" fill="none" xmlns="http://www.w3.org/2000/svg">
<g clip-path="url(#clip0_4018_51652)">
<rect width="1600" height="1000" fill="#234E8F"/>
<path opacity="0.6" d="M-501.95 1152.56V-43.0529C-501.95 -54.257 -485.993 -59.1266 -479.817 -49.7788C-386.622 91.2639 7.00659 592.544 816.716 448.773C1685.57 294.501 2046.73 1037.06 2096.01 1149.3C2099.07 1156.27 2093.72 1163.36 2086.12 1163.36H-491.155C-497.117 1163.36 -501.95 1158.52 -501.95 1152.56Z" fill="url(#paint0_radial_4018_51652)"/>
<g filter="url(#filter0_d_4018_51652)">
<g filter="url(#filter1_i_4018_51652)">
<rect x="168.292" y="123.17" width="395.122" height="753.659" rx="21.9512" fill="#161D2E"/>
<g clip-path="url(#clip1_4018_51652)">
<g clip-path="url(#clip2_4018_51652)">
<rect width="365.854" height="53.6585" transform="translate(182.927 137.805)" fill="#005FBA"/>
<g clip-path="url(#clip3_4018_51652)">
<path d="M201.232 166.717C199.589 165.074 199.589 162.411 201.232 160.768L211.345 170.881C212.988 172.524 212.988 175.187 211.345 176.83L201.232 166.717Z" fill="white"/>
<path d="M205.396 162.552C203.754 160.91 203.754 158.246 205.396 156.604L215.51 166.717C217.152 168.359 217.152 171.023 215.51 172.666L205.396 162.552Z" fill="white"/>
<path d="M209.561 158.388C207.918 156.746 207.918 154.082 209.561 152.439L219.674 162.552C221.317 164.195 221.317 166.859 219.674 168.501L209.561 158.388Z" fill="white"/>
</g>
<path d="M234.348 164.387C235.546 164.387 236.539 164.844 237.356 165.759L239.138 164.158C238.028 162.815 236.305 162.1 234.231 162.1C230.522 162.1 227.748 164.616 227.748 168.131C227.748 171.647 230.493 174.162 234.202 174.162C236.276 174.162 237.999 173.419 239.109 172.076L237.327 170.475C236.539 171.39 235.516 171.847 234.319 171.847C232.1 171.847 230.493 170.304 230.493 168.103C230.522 165.93 232.1 164.387 234.348 164.387ZM244.395 164.873C242.934 164.873 241.445 165.244 240.452 165.959L241.416 167.788C242.088 167.274 243.08 166.959 244.044 166.959C245.475 166.959 246.147 167.617 246.147 168.732H244.044C241.241 168.732 240.102 169.818 240.102 171.418C240.102 172.962 241.387 174.134 243.519 174.134C244.862 174.134 245.826 173.705 246.322 172.876V173.991H248.805V168.846C248.805 166.131 247.198 164.873 244.395 164.873ZM246.147 171.132C245.855 171.961 245.066 172.361 244.19 172.361C243.256 172.361 242.701 171.933 242.701 171.275C242.701 170.675 243.08 170.218 244.336 170.218H246.147V171.132ZM253.098 167.674C253.098 167.217 253.594 166.845 254.792 166.845C255.639 166.845 256.515 167.017 257.42 167.502L258.296 165.645C257.42 165.159 256.018 164.873 254.762 164.873C252.076 164.873 250.528 166.073 250.528 167.76C250.528 171.333 256.047 169.846 256.047 171.304C256.047 171.79 255.58 172.133 254.354 172.133C253.244 172.133 251.988 171.79 251.17 171.275L250.294 173.133C251.141 173.676 252.718 174.105 254.266 174.105C257.011 174.105 258.588 172.933 258.588 171.247C258.617 167.703 253.098 169.189 253.098 167.674ZM269.219 169.503C269.219 166.616 267.145 164.844 264.458 164.844C261.655 164.844 259.581 166.788 259.581 169.475C259.581 172.133 261.655 174.076 264.809 174.076C266.473 174.076 267.729 173.591 268.576 172.619L267.174 171.132C266.532 171.704 265.86 171.99 264.867 171.99C263.465 171.99 262.502 171.304 262.239 170.189H269.16C269.189 169.989 269.219 169.703 269.219 169.503ZM262.21 168.703C262.385 167.56 263.261 166.845 264.488 166.845C265.685 166.845 266.561 167.588 266.736 168.703H262.21ZM277.659 161.586V165.93C276.987 165.187 276.053 164.844 274.914 164.844C272.314 164.844 270.328 166.645 270.328 169.475C270.328 172.304 272.314 174.076 274.914 174.076C276.14 174.076 277.104 173.705 277.776 172.905V173.933H280.316V161.586H277.659ZM275.381 171.961C274.067 171.961 273.044 171.018 273.044 169.475C273.044 167.931 274.067 166.988 275.381 166.988C276.695 166.988 277.717 167.931 277.717 169.475C277.717 171.018 276.695 171.961 275.381 171.961ZM286.858 164.873C283.938 164.873 281.806 166.788 281.806 169.503C281.806 172.19 283.938 174.105 286.858 174.105C289.779 174.105 291.881 172.19 291.881 169.503C291.881 166.788 289.75 164.873 286.858 164.873ZM286.858 171.961C285.544 171.961 284.522 171.018 284.522 169.475C284.522 167.931 285.544 166.988 286.858 166.988C288.172 166.988 289.195 167.931 289.195 169.475C289.195 171.018 288.172 171.961 286.858 171.961ZM298.102 171.961C296.759 171.961 295.707 171.047 295.707 169.475C295.707 167.903 296.759 166.988 298.102 166.988C298.949 166.988 299.679 167.36 300.176 168.217L302.249 167.131C301.577 165.673 300.059 164.844 298.131 164.844C295.152 164.844 293.02 166.759 293.02 169.475C293.02 172.161 295.152 174.076 298.131 174.076C300.059 174.076 301.577 173.248 302.249 171.818L300.176 170.732C299.679 171.59 298.949 171.961 298.102 171.961Z" fill="white"/>
<g clip-path="url(#clip4_4018_51652)">
<rect width="39.0244" height="54" transform="translate(382.927 137.805)" fill="#0053B9"/>
<rect x="395.122" y="157.488" width="14.6341" height="14.6341" rx="2.43902" fill="#FFCC00"/>
<mask id="path-7-inside-1_4018_51652" fill="white">
<path d="M421.951 137.805H460.976V191.805H421.951V137.805Z"/>
</mask>
<path d="M460.976 137.805H459.756V191.805H460.976H462.195V137.805H460.976Z" fill="#0053B9" mask="url(#path-7-inside-1_4018_51652)"/>
<rect x="434.146" y="157.488" width="14.6341" height="14.6341" rx="2.43902" fill="white"/>
</g>
<g filter="url(#filter2_d_4018_51652)">
<rect width="365.854" height="670.732" transform="translate(182.927 191.463)" fill="#202A42"/>
<g clip-path="url(#clip5_4018_51652)">
<mask id="path-10-inside-2_4018_51652" fill="white">
<path d="M182.927 191.463H378.049V862.195H182.927V191.463Z"/>
</mask>
<rect x="182.927" y="332.926" width="195.122" height="14.6341" fill="#2752E7"/>
<rect x="346.341" y="325.609" width="14.6341" height="14.6341" rx="7.31707" fill="#FFCC00"/>
<rect x="202.439" y="362.195" width="14.6341" height="14.6341" rx="7.31707" fill="#0083F5"/>
<path d="M236.585 369.512H358.537" stroke="white" stroke-opacity="0.2" stroke-width="4.87805" stroke-linecap="round"/>
<path d="M192.683 392.682H368.292" stroke="white" stroke-opacity="0.2" stroke-width="1.21951"/>
<rect x="202.439" y="408.537" width="14.6341" height="14.6341" rx="7.31707" fill="#0083F5"/>
<path d="M236.585 415.854H358.537" stroke="white" stroke-opacity="0.2" stroke-width="4.87805" stroke-linecap="round"/>
<path d="M192.683 439.023H368.292" stroke="white" stroke-opacity="0.2" stroke-width="1.21951"/>
<rect x="202.439" y="454.879" width="14.6341" height="14.6341" rx="7.31707" fill="#0083F5"/>
<path d="M236.585 462.195H358.537" stroke="white" stroke-opacity="0.2" stroke-width="4.87805" stroke-linecap="round"/>
<path d="M192.683 485.365H368.292" stroke="white" stroke-opacity="0.2" stroke-width="1.21951"/>
<rect x="202.439" y="501.219" width="14.6341" height="14.6341" rx="7.31707" fill="#0083F5"/>
<path d="M236.585 508.535H358.537" stroke="white" stroke-opacity="0.2" stroke-width="4.87805" stroke-linecap="round"/>
<path d="M192.683 531.707H368.292" stroke="white" stroke-opacity="0.2" stroke-width="1.21951"/>
<rect x="202.439" y="547.561" width="14.6341" height="14.6341" rx="7.31707" fill="#0083F5"/>
<path d="M236.585 554.877H358.537" stroke="white" stroke-opacity="0.2" stroke-width="4.87805" stroke-linecap="round"/>
<path d="M192.683 578.047H368.292" stroke="white" stroke-opacity="0.2" stroke-width="1.21951"/>
<path d="M192.683 802.438H368.292" stroke="white" stroke-opacity="0.2" stroke-width="1.21951"/>
<path d="M202.439 832.926H319.512" stroke="white" stroke-opacity="0.2" stroke-width="4.87805" stroke-linecap="round"/>
<path fill-rule="evenodd" clip-rule="evenodd" d="M335.723 824.748C336.199 824.272 336.971 824.272 337.448 824.748L344.765 832.065C345.241 832.541 345.241 833.313 344.765 833.79L337.448 841.107C336.971 841.583 336.199 841.583 335.723 841.107C335.247 840.63 335.247 839.858 335.723 839.382L342.178 832.927L335.723 826.472C335.247 825.996 335.247 825.224 335.723 824.748Z" fill="#B3B7C1"/>
<path fill-rule="evenodd" clip-rule="evenodd" d="M352.796 824.748C353.272 824.272 354.045 824.272 354.521 824.748L361.838 832.065C362.314 832.541 362.314 833.313 361.838 833.79L354.521 841.107C354.045 841.583 353.272 841.583 352.796 841.107C352.32 840.63 352.32 839.858 352.796 839.382L359.251 832.927L352.796 826.472C352.32 825.996 352.32 825.224 352.796 824.748Z" fill="#B3B7C1"/>
</g>
<path d="M378.049 191.463H376.829V862.195H378.049H379.268V191.463H378.049Z" fill="white" fill-opacity="0.2" mask="url(#path-10-inside-2_4018_51652)"/>
<g filter="url(#filter3_d_4018_51652)">
<g clip-path="url(#clip6_4018_51652)">
<g opacity="0.2">
<path d="M407.073 219.918C406.669 219.918 406.341 220.235 406.341 220.626V220.897C406.341 220.936 406.374 220.968 406.415 220.968H409.203C409.675 220.968 410.094 221.26 410.244 221.694L410.644 222.855C410.694 222.999 410.833 223.097 410.991 223.097H417.923C418.453 223.097 418.908 223.464 419.003 223.969L419.367 225.907C419.383 225.991 419.512 225.98 419.512 225.894V220.626C419.512 220.235 419.184 219.918 418.78 219.918H407.073Z" fill="#F8F9FA"/>
<path d="M405.114 221.701C405.121 221.698 405.129 221.696 405.138 221.696H409.139C409.298 221.696 409.438 221.794 409.488 221.939L409.891 223.104C410.042 223.539 410.464 223.832 410.939 223.832H417.917C418.095 223.832 418.248 223.955 418.28 224.124L419.511 230.652C419.512 230.658 419.512 230.665 419.512 230.672C419.467 231.023 419.157 231.294 418.781 231.294H418.73C418.699 231.298 418.667 231.3 418.635 231.3H406.884C406.517 231.3 406.207 231.04 406.155 230.69L404.882 222.082C404.857 221.913 404.959 221.758 405.114 221.701Z" fill="#F8F9FA"/>
</g>
<path d="M436.585 225.609H519.512" stroke="white" stroke-opacity="0.2" stroke-width="4.87805" stroke-linecap="round"/>
<path d="M407.317 269.512H480.488" stroke="white" stroke-opacity="0.2" stroke-width="4.87805" stroke-linecap="round"/>
<path fill-rule="evenodd" clip-rule="evenodd" d="M505.235 261.332C505.711 260.856 506.484 260.856 506.96 261.332L514.277 268.649C514.753 269.125 514.753 269.897 514.277 270.374L506.96 277.691C506.484 278.167 505.711 278.167 505.235 277.691C504.759 277.214 504.759 276.442 505.235 275.966L511.69 269.511L505.235 263.056C504.759 262.58 504.759 261.808 505.235 261.332Z" fill="#F8F9FA"/>
<path d="M407.317 318.293H480.488" stroke="white" stroke-opacity="0.2" stroke-width="4.87805" stroke-linecap="round"/>
<path fill-rule="evenodd" clip-rule="evenodd" d="M501.577 313.771C502.053 313.295 502.825 313.295 503.302 313.771L509.756 320.226L516.211 313.771C516.687 313.295 517.459 313.295 517.936 313.771C518.412 314.247 518.412 315.02 517.936 315.496L510.619 322.813C510.142 323.289 509.37 323.289 508.894 322.813L501.577 315.496C501.101 315.02 501.101 314.247 501.577 313.771Z" fill="#F8F9FA"/>
<g clip-path="url(#clip7_4018_51652)">
<rect x="412.195" y="378.746" width="14.6341" height="14.6341" rx="7.31707" fill="#0083F5"/>
<path d="M441.463 386.062H514.634" stroke="white" stroke-opacity="0.2" stroke-width="4.87805" stroke-linecap="round"/>
<path d="M412.195 420.906H514.634" stroke="white" stroke-opacity="0.2" stroke-width="1.21951"/>
<rect x="412.195" y="448.432" width="14.6341" height="14.6341" rx="7.31707" fill="#0083F5"/>
<path d="M441.463 455.748H514.634" stroke="white" stroke-opacity="0.2" stroke-width="4.87805" stroke-linecap="round"/>
<path d="M412.195 490.592H514.634" stroke="white" stroke-opacity="0.2" stroke-width="1.21951"/>
<rect x="412.195" y="518.119" width="14.6341" height="14.6341" rx="7.31707" fill="#0083F5"/>
<path d="M441.463 525.436H514.634" stroke="white" stroke-opacity="0.2" stroke-width="4.87805" stroke-linecap="round"/>
<path d="M412.195 560.279H514.634" stroke="white" stroke-opacity="0.2" stroke-width="1.21951"/>
<rect x="412.195" y="587.805" width="14.6341" height="14.6341" rx="7.31707" fill="#0083F5"/>
<path d="M441.463 595.121H514.634" stroke="white" stroke-opacity="0.2" stroke-width="4.87805" stroke-linecap="round"/>
<path d="M412.195 629.965H514.634" stroke="white" stroke-opacity="0.2" stroke-width="1.21951"/>
<rect x="412.195" y="657.492" width="14.6341" height="14.6341" rx="7.31707" fill="#0083F5"/>
<path d="M441.463 664.809H514.634" stroke="white" stroke-opacity="0.2" stroke-width="4.87805" stroke-linecap="round"/>
<path d="M412.195 699.65H514.634" stroke="white" stroke-opacity="0.2" stroke-width="1.21951"/>
<rect x="412.195" y="727.178" width="14.6341" height="14.6341" rx="7.31707" fill="#0083F5"/>
<path d="M441.463 734.494H514.634" stroke="white" stroke-opacity="0.2" stroke-width="4.87805" stroke-linecap="round"/>
<path d="M412.195 769.338H514.634" stroke="white" stroke-opacity="0.2" stroke-width="1.21951"/>
<rect x="412.195" y="796.865" width="14.6341" height="14.6341" rx="7.31707" fill="#0083F5"/>
<path d="M441.463 804.182H514.634" stroke="white" stroke-opacity="0.2" stroke-width="4.87805" stroke-linecap="round"/>
</g>
</g>
<rect x="392.683" y="206.098" width="141.463" height="641.463" rx="4.87805" stroke="white" stroke-opacity="0.2" stroke-width="1.21951"/>
</g>
</g>
</g>
</g>
<path d="M326.208 137.073C326.208 135.457 324.499 134.146 322.39 134.146H410.195C408.087 134.146 406.377 135.457 406.377 137.073V145.122C406.377 147.143 404.535 148.781 402.262 148.781H330.324C328.05 148.781 326.208 147.143 326.208 145.122V137.073Z" fill="#161D2E"/>
</g>
</g>
<g filter="url(#filter4_d_4018_51652)">
<g filter="url(#filter5_i_4018_51652)">
<rect x="602.439" y="123.17" width="395.122" height="753.659" rx="21.9512" fill="#161D2E"/>
<g clip-path="url(#clip8_4018_51652)">
<g clip-path="url(#clip9_4018_51652)">
<rect width="365.854" height="43.9024" transform="translate(617.073 137.805)" fill="#005FBA"/>
<g clip-path="url(#clip10_4018_51652)">
<path d="M635.379 161.838C633.736 160.195 633.736 157.532 635.379 155.889L645.492 166.002C647.135 167.645 647.135 170.308 645.492 171.951L635.379 161.838Z" fill="white"/>
<path d="M639.543 157.674C637.9 156.031 637.9 153.367 639.543 151.725L649.656 161.838C651.299 163.48 651.299 166.144 649.656 167.787L639.543 157.674Z" fill="white"/>
<path d="M643.707 153.509C642.064 151.867 642.064 149.203 643.707 147.561L653.82 157.674C655.463 159.316 655.463 161.98 653.82 163.622L643.707 153.509Z" fill="white"/>
</g>
<path d="M668.495 159.508C669.692 159.508 670.685 159.965 671.503 160.88L673.284 159.279C672.175 157.936 670.451 157.222 668.378 157.222C664.669 157.222 661.895 159.737 661.895 163.252C661.895 166.768 664.64 169.283 668.349 169.283C670.422 169.283 672.145 168.54 673.255 167.197L671.474 165.596C670.685 166.511 669.663 166.968 668.466 166.968C666.246 166.968 664.64 165.425 664.64 163.224C664.669 161.052 666.246 159.508 668.495 159.508ZM678.541 159.994C677.081 159.994 675.592 160.366 674.599 161.08L675.562 162.909C676.234 162.395 677.227 162.081 678.191 162.081C679.622 162.081 680.293 162.738 680.293 163.853H678.191C675.387 163.853 674.248 164.939 674.248 166.539C674.248 168.083 675.533 169.255 677.665 169.255C679.008 169.255 679.972 168.826 680.469 167.997V169.112H682.951V163.967C682.951 161.252 681.345 159.994 678.541 159.994ZM680.293 166.254C680.001 167.082 679.213 167.483 678.337 167.483C677.402 167.483 676.847 167.054 676.847 166.396C676.847 165.796 677.227 165.339 678.483 165.339H680.293V166.254ZM687.244 162.795C687.244 162.338 687.741 161.966 688.938 161.966C689.785 161.966 690.661 162.138 691.566 162.624L692.443 160.766C691.566 160.28 690.165 159.994 688.909 159.994C686.222 159.994 684.674 161.194 684.674 162.881C684.674 166.454 690.194 164.967 690.194 166.425C690.194 166.911 689.727 167.254 688.5 167.254C687.39 167.254 686.134 166.911 685.317 166.396L684.441 168.254C685.287 168.797 686.865 169.226 688.412 169.226C691.158 169.226 692.735 168.054 692.735 166.368C692.764 162.824 687.244 164.31 687.244 162.795ZM703.365 164.624C703.365 161.738 701.292 159.965 698.605 159.965C695.801 159.965 693.728 161.909 693.728 164.596C693.728 167.254 695.801 169.198 698.955 169.198C700.62 169.198 701.876 168.712 702.723 167.74L701.321 166.254C700.678 166.825 700.007 167.111 699.014 167.111C697.612 167.111 696.648 166.425 696.385 165.31H703.307C703.336 165.11 703.365 164.824 703.365 164.624ZM696.356 163.824C696.531 162.681 697.407 161.966 698.634 161.966C699.831 161.966 700.708 162.709 700.883 163.824H696.356ZM711.805 156.707V161.052C711.134 160.308 710.199 159.965 709.06 159.965C706.461 159.965 704.475 161.766 704.475 164.596C704.475 167.425 706.461 169.198 709.06 169.198C710.287 169.198 711.25 168.826 711.922 168.026V169.055H714.463V156.707H711.805ZM709.527 167.082C708.213 167.082 707.191 166.139 707.191 164.596C707.191 163.052 708.213 162.109 709.527 162.109C710.842 162.109 711.864 163.052 711.864 164.596C711.864 166.139 710.842 167.082 709.527 167.082ZM721.005 159.994C718.084 159.994 715.952 161.909 715.952 164.624C715.952 167.311 718.084 169.226 721.005 169.226C723.925 169.226 726.028 167.311 726.028 164.624C726.028 161.909 723.896 159.994 721.005 159.994ZM721.005 167.082C719.691 167.082 718.668 166.139 718.668 164.596C718.668 163.052 719.691 162.109 721.005 162.109C722.319 162.109 723.341 163.052 723.341 164.596C723.341 166.139 722.319 167.082 721.005 167.082ZM732.249 167.082C730.905 167.082 729.854 166.168 729.854 164.596C729.854 163.024 730.905 162.109 732.249 162.109C733.096 162.109 733.826 162.481 734.322 163.338L736.396 162.252C735.724 160.794 734.205 159.965 732.278 159.965C729.299 159.965 727.167 161.88 727.167 164.596C727.167 167.282 729.299 169.198 732.278 169.198C734.205 169.198 735.724 168.369 736.396 166.939L734.322 165.853C733.826 166.711 733.096 167.082 732.249 167.082Z" fill="white"/>
<g clip-path="url(#clip11_4018_51652)">
<rect width="39.0244" height="44" transform="translate(817.073 137.805)" fill="#0053B9"/>
<rect x="829.269" y="152.488" width="14.6341" height="14.6341" rx="2.43902" fill="#FFCC00"/>
<mask id="path-67-inside-3_4018_51652" fill="white">
<path d="M856.098 137.805H895.122V181.805H856.098V137.805Z"/>
</mask>
<path d="M895.122 137.805H893.903V181.805H895.122H896.342V137.805H895.122Z" fill="#0053B9" mask="url(#path-67-inside-3_4018_51652)"/>
<rect x="868.293" y="152.488" width="14.6341" height="14.6341" rx="2.43902" fill="white"/>
</g>
<g filter="url(#filter6_d_4018_51652)">
<rect width="365.854" height="680.488" transform="translate(617.073 181.707)" fill="#202A42"/>
<mask id="path-70-inside-4_4018_51652" fill="white">
<path d="M617.073 181.707H665.854V862.195H617.073V181.707Z"/>
</mask>
<path d="M617.073 181.707H665.854V862.195H617.073V181.707Z" fill="white" fill-opacity="0.04"/>
<path d="M665.854 181.707H664.634V862.195H665.854H667.073V181.707H665.854Z" fill="#536175" mask="url(#path-70-inside-4_4018_51652)"/>
<rect opacity="0.4" x="631.708" y="259.756" width="19.5122" height="19.5122" rx="9.7561" fill="white"/>
<rect opacity="0.4" x="631.708" y="298.779" width="19.5122" height="19.5122" rx="9.7561" fill="white"/>
<rect opacity="0.4" x="631.708" y="337.805" width="19.5122" height="19.5122" rx="9.7561" fill="white"/>
<rect opacity="0.4" x="631.708" y="376.828" width="19.5122" height="19.5122" rx="9.7561" fill="white"/>
<rect x="658.537" y="242.684" width="14.6341" height="14.6341" rx="7.31707" fill="#FFCC00"/>
<g filter="url(#filter7_d_4018_51652)">
<g clip-path="url(#clip12_4018_51652)">
<g opacity="0.1">
<rect width="287.805" height="29.2683" transform="translate(680.488 196.342)" fill="#EEEEEE"/>
</g>
<path d="M700 245.121H812.195" stroke="white" stroke-opacity="0.6" stroke-width="4.87805" stroke-linecap="round"/>
<path d="M700 264.633H982.927" stroke="white" stroke-opacity="0.6" stroke-width="4.87805" stroke-linecap="round"/>
<mask id="path-80-inside-5_4018_51652" fill="white">
<path d="M680.488 284.146H968.293V308.537H680.488V284.146Z"/>
</mask>
<path d="M680.488 284.146V285.366H968.293V284.146V282.927H680.488V284.146ZM968.293 308.537V307.317H680.488V308.537V309.756H968.293V308.537Z" fill="white" fill-opacity="0.2" mask="url(#path-80-inside-5_4018_51652)"/>
<path d="M719.512 284.146L719.512 308.537" stroke="white" stroke-opacity="0.2" stroke-width="1.21951"/>
<rect x="729.268" y="292.684" width="78.0488" height="7.31707" rx="2.43902" fill="white" fill-opacity="0.2"/>
<path d="M945.122 284.146L945.122 308.537" stroke="white" stroke-opacity="0.2" stroke-width="1.21951"/>
<rect x="954.878" y="292.684" width="87.8049" height="7.31707" rx="2.43902" fill="white" fill-opacity="0.2"/>
<g opacity="0.4">
<path d="M694.878 355.771C694.474 355.771 694.146 356.088 694.146 356.479V356.75C694.146 356.79 694.179 356.821 694.219 356.821H697.007C697.48 356.821 697.899 357.114 698.048 357.547L698.449 358.708C698.498 358.853 698.638 358.95 698.796 358.95H705.728C706.258 358.95 706.712 359.317 706.807 359.822L707.172 361.76C707.188 361.845 707.317 361.834 707.317 361.747V356.479C707.317 356.088 706.989 355.771 706.585 355.771H694.878Z" fill="#F8F9FA"/>
<path d="M692.918 357.554C692.926 357.551 692.934 357.55 692.942 357.55H696.944C697.102 357.55 697.243 357.648 697.293 357.793L697.696 358.957C697.846 359.392 698.268 359.686 698.744 359.686H705.722C705.9 359.686 706.053 359.808 706.084 359.977L707.316 366.505C707.317 366.512 707.317 366.519 707.316 366.526C707.271 366.876 706.961 367.148 706.585 367.148H706.535C706.504 367.152 706.472 367.154 706.439 367.154H694.689C694.322 367.154 694.011 366.894 693.96 366.544L692.686 357.936C692.661 357.767 692.764 357.612 692.918 357.554Z" fill="#F8F9FA"/>
</g>
<path d="M734.146 361.463H735.146" stroke="#15BB4C" stroke-width="4.87805" stroke-linecap="round"/>
<path d="M774.17 361.463H851" stroke="white" stroke-opacity="0.2" stroke-width="4.87805" stroke-linecap="round"/>
<path d="M890.024 361.463H965.634" stroke="#FFCC00" stroke-width="4.87805" stroke-linecap="round"/>
<path d="M690.244 415.609H958.536" stroke="#536175" stroke-width="1.21951"/>
<g opacity="0.4">
<path d="M694.878 464.064C694.474 464.064 694.146 464.381 694.146 464.772V465.043C694.146 465.083 694.179 465.114 694.219 465.114H697.007C697.48 465.114 697.899 465.407 698.048 465.84L698.449 467.001C698.498 467.146 698.638 467.243 698.796 467.243H705.728C706.258 467.243 706.712 467.61 706.807 468.115L707.172 470.053C707.188 470.138 707.317 470.127 707.317 470.04V464.772C707.317 464.381 706.989 464.064 706.585 464.064H694.878Z" fill="#F8F9FA"/>
<path d="M692.918 465.847C692.926 465.844 692.934 465.843 692.942 465.843H696.944C697.102 465.843 697.243 465.941 697.293 466.086L697.696 467.25C697.846 467.685 698.268 467.979 698.744 467.979H705.722C705.9 467.979 706.053 468.101 706.084 468.27L707.316 474.798C707.317 474.805 707.317 474.812 707.316 474.819C707.271 475.169 706.961 475.441 706.585 475.441H706.535C706.504 475.445 706.472 475.447 706.439 475.447H694.689C694.322 475.447 694.011 475.187 693.96 474.837L692.686 466.228C692.661 466.059 692.764 465.905 692.918 465.847Z" fill="#F8F9FA"/>
</g>
<path d="M734.146 469.756H735.146" stroke="white" stroke-opacity="0.2" stroke-width="4.87805" stroke-linecap="round"/>
<path d="M774.17 469.756H851" stroke="#15BB4C" stroke-width="4.87805" stroke-linecap="round"/>
<path d="M890.024 469.756H965.634" stroke="#FFCC00" stroke-width="4.87805" stroke-linecap="round"/>
<path d="M690.244 523.902H958.536" stroke="#536175" stroke-width="1.21951"/>
<g opacity="0.4">
<path d="M694.878 572.357C694.474 572.357 694.146 572.674 694.146 573.065V573.336C694.146 573.376 694.179 573.407 694.219 573.407H697.007C697.48 573.407 697.899 573.7 698.048 574.133L698.449 575.294C698.498 575.439 698.638 575.536 698.796 575.536H705.728C706.258 575.536 706.712 575.903 706.807 576.408L707.172 578.346C707.188 578.431 707.317 578.42 707.317 578.333V573.065C707.317 572.674 706.989 572.357 706.585 572.357H694.878Z" fill="#F8F9FA"/>
<path d="M692.918 574.14C692.926 574.137 692.934 574.136 692.942 574.136H696.944C697.102 574.136 697.243 574.234 697.293 574.379L697.696 575.543C697.846 575.978 698.268 576.272 698.744 576.272H705.722C705.9 576.272 706.053 576.394 706.084 576.563L707.316 583.091C707.317 583.098 707.317 583.105 707.316 583.111C707.271 583.462 706.961 583.734 706.585 583.734H706.535C706.504 583.738 706.472 583.74 706.439 583.74H694.689C694.322 583.74 694.011 583.48 693.96 583.13L692.686 574.521C692.661 574.352 692.764 574.198 692.918 574.14Z" fill="#F8F9FA"/>
</g>
<path d="M734.146 578.049H735.146" stroke="white" stroke-opacity="0.2" stroke-width="4.87805" stroke-linecap="round"/>
<path d="M774.17 578.049H851" stroke="#15BB4C" stroke-width="4.87805" stroke-linecap="round"/>
<path d="M890.024 578.049H965.634" stroke="#FFCC00" stroke-width="4.87805" stroke-linecap="round"/>
<path d="M690.244 632.195H958.536" stroke="#536175" stroke-width="1.21951"/>
<g opacity="0.4">
<path d="M694.878 680.65C694.474 680.65 694.146 680.967 694.146 681.358V681.629C694.146 681.668 694.179 681.7 694.219 681.7H697.007C697.48 681.7 697.899 681.993 698.048 682.426L698.449 683.587C698.498 683.732 698.638 683.829 698.796 683.829H705.728C706.258 683.829 706.712 684.196 706.807 684.701L707.172 686.639C707.188 686.724 707.317 686.713 707.317 686.626V681.358C707.317 680.967 706.989 680.65 706.585 680.65H694.878Z" fill="#F8F9FA"/>
<path d="M692.918 682.433C692.926 682.43 692.934 682.429 692.942 682.429H696.944C697.102 682.429 697.243 682.527 697.293 682.672L697.696 683.836C697.846 684.271 698.268 684.565 698.744 684.565H705.722C705.9 684.565 706.053 684.687 706.084 684.856L707.316 691.384C707.317 691.391 707.317 691.398 707.316 691.404C707.271 691.755 706.961 692.027 706.585 692.027H706.535C706.504 692.031 706.472 692.033 706.439 692.033H694.689C694.322 692.033 694.011 691.773 693.96 691.423L692.686 682.814C692.661 682.645 692.764 682.491 692.918 682.433Z" fill="#F8F9FA"/>
</g>
<path d="M734.146 686.342H735.146" stroke="#15BB4C" stroke-width="4.87805" stroke-linecap="round"/>
<path d="M774.17 686.342H851" stroke="white" stroke-opacity="0.2" stroke-width="4.87805" stroke-linecap="round"/>
<path d="M890.024 686.342H965.634" stroke="#FFCC00" stroke-width="4.87805" stroke-linecap="round"/>
<path d="M690.244 740.488H958.536" stroke="#536175" stroke-width="1.21951"/>
<g opacity="0.4">
<path d="M694.878 788.941C694.474 788.941 694.146 789.258 694.146 789.649V789.92C694.146 789.96 694.179 789.991 694.219 789.991H697.007C697.48 789.991 697.899 790.284 698.048 790.717L698.449 791.878C698.498 792.023 698.638 792.12 698.796 792.12H705.728C706.258 792.12 706.712 792.487 706.807 792.992L707.172 794.93C707.188 795.015 707.317 795.004 707.317 794.917V789.649C707.317 789.258 706.989 788.941 706.585 788.941H694.878Z" fill="#F8F9FA"/>
<path d="M692.918 790.724C692.926 790.721 692.934 790.72 692.942 790.72H696.944C697.102 790.72 697.243 790.818 697.293 790.963L697.696 792.127C697.846 792.562 698.268 792.856 698.744 792.856H705.722C705.9 792.856 706.053 792.978 706.084 793.147L707.316 799.675C707.317 799.682 707.317 799.689 707.316 799.695C707.271 800.046 706.961 800.318 706.585 800.318H706.535C706.504 800.322 706.472 800.324 706.439 800.324H694.689C694.322 800.324 694.011 800.064 693.96 799.714L692.686 791.105C692.661 790.936 692.764 790.782 692.918 790.724Z" fill="#F8F9FA"/>
</g>
<path d="M734.146 794.633H735.146" stroke="white" stroke-opacity="0.2" stroke-width="4.87805" stroke-linecap="round"/>
<path d="M774.17 794.633H851" stroke="#15BB4C" stroke-width="4.87805" stroke-linecap="round"/>
<path d="M890.024 794.633H965.634" stroke="#FFCC00" stroke-width="4.87805" stroke-linecap="round"/>
</g>
<rect x="680.488" y="196.342" width="287.805" height="651.22" rx="4.87805" stroke="#536175" stroke-width="1.21951"/>
</g>
</g>
</g>
</g>
<path d="M760.354 137.073C760.354 135.457 758.645 134.146 756.537 134.146H844.341C842.233 134.146 840.524 135.457 840.524 137.073V145.122C840.524 147.143 838.681 148.781 836.408 148.781H764.47C762.197 148.781 760.354 147.143 760.354 145.122V137.073Z" fill="#161D2E"/>
</g>
</g>
<g filter="url(#filter8_d_4018_51652)">
<g filter="url(#filter9_i_4018_51652)">
<rect x="1037.02" y="123.17" width="395.122" height="753.659" rx="21.9512" fill="#161D2E"/>
<g clip-path="url(#clip13_4018_51652)">
<g clip-path="url(#clip14_4018_51652)">
<rect width="365.854" height="39.0244" transform="translate(1051.66 137.805)" fill="#005FBA"/>
<g clip-path="url(#clip15_4018_51652)">
<path d="M1065.09 159.398C1063.44 157.756 1063.44 155.092 1065.09 153.449L1075.2 163.562C1076.84 165.205 1076.84 167.869 1075.2 169.511L1065.09 159.398Z" fill="white"/>
<path d="M1069.25 155.234C1067.61 153.591 1067.61 150.928 1069.25 149.285L1079.36 159.398C1081.01 161.041 1081.01 163.704 1079.36 165.347L1069.25 155.234Z" fill="white"/>
<path d="M1073.41 151.07C1071.77 149.427 1071.77 146.764 1073.41 145.121L1083.53 155.234C1085.17 156.877 1085.17 159.54 1083.53 161.183L1073.41 151.07Z" fill="white"/>
</g>
<path d="M1098.2 157.069C1099.4 157.069 1100.39 157.526 1101.21 158.441L1102.99 156.84C1101.88 155.497 1100.16 154.782 1098.08 154.782C1094.38 154.782 1091.6 157.297 1091.6 160.813C1091.6 164.329 1094.35 166.844 1098.06 166.844C1100.13 166.844 1101.85 166.101 1102.96 164.757L1101.18 163.157C1100.39 164.071 1099.37 164.529 1098.17 164.529C1095.95 164.529 1094.35 162.985 1094.35 160.784C1094.38 158.612 1095.95 157.069 1098.2 157.069ZM1108.25 157.555C1106.79 157.555 1105.3 157.926 1104.31 158.641L1105.27 160.47C1105.94 159.955 1106.93 159.641 1107.9 159.641C1109.33 159.641 1110 160.298 1110 161.413H1107.9C1105.09 161.413 1103.95 162.499 1103.95 164.1C1103.95 165.643 1105.24 166.815 1107.37 166.815C1108.72 166.815 1109.68 166.386 1110.18 165.558V166.672H1112.66V161.527C1112.66 158.812 1111.05 157.555 1108.25 157.555ZM1110 163.814C1109.71 164.643 1108.92 165.043 1108.04 165.043C1107.11 165.043 1106.55 164.614 1106.55 163.957C1106.55 163.357 1106.93 162.899 1108.19 162.899H1110V163.814ZM1116.95 160.356C1116.95 159.898 1117.45 159.527 1118.64 159.527C1119.49 159.527 1120.37 159.698 1121.27 160.184L1122.15 158.326C1121.27 157.84 1119.87 157.555 1118.62 157.555C1115.93 157.555 1114.38 158.755 1114.38 160.441C1114.38 164.014 1119.9 162.528 1119.9 163.986C1119.9 164.471 1119.43 164.814 1118.21 164.814C1117.1 164.814 1115.84 164.471 1115.02 163.957L1114.15 165.815C1114.99 166.358 1116.57 166.787 1118.12 166.787C1120.86 166.787 1122.44 165.615 1122.44 163.928C1122.47 160.384 1116.95 161.87 1116.95 160.356ZM1133.07 162.185C1133.07 159.298 1131 157.526 1128.31 157.526C1125.51 157.526 1123.43 159.47 1123.43 162.156C1123.43 164.814 1125.51 166.758 1128.66 166.758C1130.33 166.758 1131.58 166.272 1132.43 165.3L1131.03 163.814C1130.38 164.386 1129.71 164.672 1128.72 164.672C1127.32 164.672 1126.35 163.986 1126.09 162.871H1133.01C1133.04 162.671 1133.07 162.385 1133.07 162.185ZM1126.06 161.385C1126.24 160.241 1127.11 159.527 1128.34 159.527C1129.54 159.527 1130.41 160.27 1130.59 161.385H1126.06ZM1141.51 154.268V158.612C1140.84 157.869 1139.91 157.526 1138.77 157.526C1136.17 157.526 1134.18 159.327 1134.18 162.156C1134.18 164.986 1136.17 166.758 1138.77 166.758C1139.99 166.758 1140.96 166.386 1141.63 165.586V166.615H1144.17V154.268H1141.51ZM1139.23 164.643C1137.92 164.643 1136.9 163.7 1136.9 162.156C1136.9 160.613 1137.92 159.67 1139.23 159.67C1140.55 159.67 1141.57 160.613 1141.57 162.156C1141.57 163.7 1140.55 164.643 1139.23 164.643ZM1150.71 157.555C1147.79 157.555 1145.66 159.47 1145.66 162.185C1145.66 164.872 1147.79 166.787 1150.71 166.787C1153.63 166.787 1155.73 164.872 1155.73 162.185C1155.73 159.47 1153.6 157.555 1150.71 157.555ZM1150.71 164.643C1149.4 164.643 1148.37 163.7 1148.37 162.156C1148.37 160.613 1149.4 159.67 1150.71 159.67C1152.03 159.67 1153.05 160.613 1153.05 162.156C1153.05 163.7 1152.03 164.643 1150.71 164.643ZM1161.96 164.643C1160.61 164.643 1159.56 163.728 1159.56 162.156C1159.56 160.584 1160.61 159.67 1161.96 159.67C1162.8 159.67 1163.53 160.041 1164.03 160.899L1166.1 159.813C1165.43 158.355 1163.91 157.526 1161.98 157.526C1159.01 157.526 1156.87 159.441 1156.87 162.156C1156.87 164.843 1159.01 166.758 1161.98 166.758C1163.91 166.758 1165.43 165.929 1166.1 164.5L1164.03 163.414C1163.53 164.271 1162.8 164.643 1161.96 164.643Z" fill="white"/>
<g clip-path="url(#clip16_4018_51652)">
<rect width="39.0244" height="39.0244" transform="translate(1246.78 137.805)" fill="#0053B9"/>
<rect x="1258.98" y="150" width="14.6341" height="14.6341" rx="2.43902" fill="#FFCC00"/>
<mask id="path-116-inside-6_4018_51652" fill="white">
<path d="M1285.8 137.805H1324.83V176.829H1285.8V137.805Z"/>
</mask>
<path d="M1324.83 137.805H1323.61V176.829H1324.83H1326.05V137.805H1324.83Z" fill="#0053B9" mask="url(#path-116-inside-6_4018_51652)"/>
<rect x="1298" y="150" width="14.6341" height="14.6341" rx="2.43902" fill="white"/>
</g>
<g filter="url(#filter10_d_4018_51652)">
<rect width="365.854" height="685.366" transform="translate(1051.66 176.828)" fill="#202A42"/>
<mask id="path-119-inside-7_4018_51652" fill="white">
<path d="M1051.66 176.828H1100.44V862.194H1051.66V176.828Z"/>
</mask>
<path d="M1051.66 176.828H1100.44V862.194H1051.66V176.828Z" fill="white" fill-opacity="0.04"/>
<path d="M1100.44 176.828H1099.22V862.194H1100.44H1101.66V176.828H1100.44Z" fill="#536175" mask="url(#path-119-inside-7_4018_51652)"/>
<rect opacity="0.4" x="1066.29" y="254.877" width="19.5122" height="19.5122" rx="9.7561" fill="white"/>
<rect opacity="0.4" x="1066.29" y="293.9" width="19.5122" height="19.5122" rx="9.7561" fill="white"/>
<rect opacity="0.4" x="1066.29" y="332.926" width="19.5122" height="19.5122" rx="9.7561" fill="white"/>
<rect opacity="0.4" x="1066.29" y="371.949" width="19.5122" height="19.5122" rx="9.7561" fill="white"/>
<rect x="1093.12" y="237.805" width="14.6341" height="14.6341" rx="7.31707" fill="#FFCC00"/>
<rect x="1115.07" y="191.463" width="287.805" height="234.146" rx="7.31707" fill="white" fill-opacity="0.02"/>
<path d="M1138.24 214.633H1248" stroke="#F2F4F7" stroke-width="7.31707" stroke-linecap="round" stroke-linejoin="round"/>
<rect x="1134.58" y="242.682" width="248.78" height="124.39" rx="3.65854" fill="white" fill-opacity="0.08"/>
<path d="M1141.9 398.779H1217.82" stroke="#FFCF33" stroke-width="14.6341" stroke-linecap="round" stroke-linejoin="round"/>
<path d="M1130.62 464.025H1387.33" stroke="#8491B2" stroke-width="1.82927" stroke-linecap="round" stroke-linejoin="round"/>
<rect x="1151.66" y="487.805" width="21.9512" height="21.9512" rx="10.9756" fill="white" fill-opacity="0.3"/>
<path d="M1168.73 494.207L1160.35 502.591L1156.54 498.78" stroke="white" stroke-width="1.82927" stroke-linecap="round" stroke-linejoin="round"/>
<rect width="181.707" height="5.48782" transform="translate(1184.58 496.037)" fill="white" fill-opacity="0.01"/>
<path d="M1187.33 498.781L1363.55 498.781" stroke="#F2F4F7" stroke-width="5.4878" stroke-linecap="round" stroke-linejoin="round"/>
<rect x="1151.66" y="524.391" width="21.9512" height="21.9512" rx="10.9756" fill="white" fill-opacity="0.3"/>
<path d="M1168.73 530.793L1160.35 539.177L1156.54 535.366" stroke="white" stroke-width="1.82927" stroke-linecap="round" stroke-linejoin="round"/>
<rect width="181.707" height="5.48782" transform="translate(1184.58 532.623)" fill="white" fill-opacity="0.01"/>
<path d="M1187.33 535.367L1363.55 535.367" stroke="#F2F4F7" stroke-width="5.4878" stroke-linecap="round" stroke-linejoin="round"/>
<rect x="1115.07" y="582.926" width="287.805" height="151.219" rx="7.31707" fill="white" fill-opacity="0.02"/>
<path d="M1138.24 606.096H1248" stroke="#F2F4F7" stroke-width="7.31707" stroke-linecap="round" stroke-linejoin="round"/>
<rect x="1134.58" y="634.145" width="248.78" height="80.4878" rx="3.65854" fill="white" fill-opacity="0.08"/>
<rect width="185.366" height="14.6342" transform="translate(1137.02 789.025)" fill="white" fill-opacity="0.01"/>
<path d="M1144.34 796.342L1315.07 796.342" stroke="#FFCF33" stroke-width="14.6341" stroke-linecap="round" stroke-linejoin="round"/>
</g>
</g>
</g>
<path d="M1194.94 137.073C1194.94 135.457 1193.23 134.146 1191.12 134.146H1278.93C1276.82 134.146 1275.11 135.457 1275.11 137.073V145.122C1275.11 147.143 1273.27 148.781 1270.99 148.781H1199.06C1196.78 148.781 1194.94 147.143 1194.94 145.122V137.073Z" fill="#161D2E"/>
</g>
</g>
</g>
<defs>
<filter id="filter0_d_4018_51652" x="117.073" y="93.9016" width="497.561" height="856.097" filterUnits="userSpaceOnUse" color-interpolation-filters="sRGB">
<feFlood flood-opacity="0" result="BackgroundImageFix"/>
<feColorMatrix in="SourceAlpha" type="matrix" values="0 0 0 0 0 0 0 0 0 0 0 0 0 0 0 0 0 0 127 0" result="hardAlpha"/>
<feOffset dy="21.9512"/>
<feGaussianBlur stdDeviation="25.6098"/>
<feColorMatrix type="matrix" values="0 0 0 0 0 0 0 0 0 0 0 0 0 0 0 0 0 0 0.2 0"/>
<feBlend mode="normal" in2="BackgroundImageFix" result="effect1_dropShadow_4018_51652"/>
<feBlend mode="normal" in="SourceGraphic" in2="effect1_dropShadow_4018_51652" result="shape"/>
</filter>
<filter id="filter1_i_4018_51652" x="168.292" y="120.426" width="395.122" height="756.402" filterUnits="userSpaceOnUse" color-interpolation-filters="sRGB">
<feFlood flood-opacity="0" result="BackgroundImageFix"/>
<feBlend mode="normal" in="SourceGraphic" in2="BackgroundImageFix" result="shape"/>
<feColorMatrix in="SourceAlpha" type="matrix" values="0 0 0 0 0 0 0 0 0 0 0 0 0 0 0 0 0 0 127 0" result="hardAlpha"/>
<feOffset dy="-2.7439"/>
<feGaussianBlur stdDeviation="5.4878"/>
<feComposite in2="hardAlpha" operator="arithmetic" k2="-1" k3="1"/>
<feColorMatrix type="matrix" values="0 0 0 0 0.12549 0 0 0 0 0.164706 0 0 0 0 0.258824 0 0 0 0.12 0"/>
<feBlend mode="multiply" in2="shape" result="effect1_innerShadow_4018_51652"/>
</filter>
<filter id="filter2_d_4018_51652" x="85.3658" y="103.658" width="560.976" height="865.854" filterUnits="userSpaceOnUse" color-interpolation-filters="sRGB">
<feFlood flood-opacity="0" result="BackgroundImageFix"/>
<feColorMatrix in="SourceAlpha" type="matrix" values="0 0 0 0 0 0 0 0 0 0 0 0 0 0 0 0 0 0 127 0" result="hardAlpha"/>
<feOffset dy="9.7561"/>
<feGaussianBlur stdDeviation="48.7805"/>
<feColorMatrix type="matrix" values="0 0 0 0 0.12549 0 0 0 0 0.164706 0 0 0 0 0.258824 0 0 0 0.12 0"/>
<feBlend mode="normal" in2="BackgroundImageFix" result="effect1_dropShadow_4018_51652"/>
<feBlend mode="normal" in="SourceGraphic" in2="effect1_dropShadow_4018_51652" result="shape"/>
</filter>
<filter id="filter3_d_4018_51652" x="372.562" y="190.854" width="181.707" height="681.708" filterUnits="userSpaceOnUse" color-interpolation-filters="sRGB">
<feFlood flood-opacity="0" result="BackgroundImageFix"/>
<feColorMatrix in="SourceAlpha" type="matrix" values="0 0 0 0 0 0 0 0 0 0 0 0 0 0 0 0 0 0 127 0" result="hardAlpha"/>
<feOffset dy="4.87805"/>
<feGaussianBlur stdDeviation="9.7561"/>
<feColorMatrix type="matrix" values="0 0 0 0 0.12549 0 0 0 0 0.164706 0 0 0 0 0.258824 0 0 0 0.16 0"/>
<feBlend mode="normal" in2="BackgroundImageFix" result="effect1_dropShadow_4018_51652"/>
<feBlend mode="normal" in="SourceGraphic" in2="effect1_dropShadow_4018_51652" result="shape"/>
</filter>
<filter id="filter4_d_4018_51652" x="551.219" y="93.9016" width="497.561" height="856.097" filterUnits="userSpaceOnUse" color-interpolation-filters="sRGB">
<feFlood flood-opacity="0" result="BackgroundImageFix"/>
<feColorMatrix in="SourceAlpha" type="matrix" values="0 0 0 0 0 0 0 0 0 0 0 0 0 0 0 0 0 0 127 0" result="hardAlpha"/>
<feOffset dy="21.9512"/>
<feGaussianBlur stdDeviation="25.6098"/>
<feColorMatrix type="matrix" values="0 0 0 0 0 0 0 0 0 0 0 0 0 0 0 0 0 0 0.2 0"/>
<feBlend mode="normal" in2="BackgroundImageFix" result="effect1_dropShadow_4018_51652"/>
<feBlend mode="normal" in="SourceGraphic" in2="effect1_dropShadow_4018_51652" result="shape"/>
</filter>
<filter id="filter5_i_4018_51652" x="602.439" y="120.426" width="395.122" height="756.402" filterUnits="userSpaceOnUse" color-interpolation-filters="sRGB">
<feFlood flood-opacity="0" result="BackgroundImageFix"/>
<feBlend mode="normal" in="SourceGraphic" in2="BackgroundImageFix" result="shape"/>
<feColorMatrix in="SourceAlpha" type="matrix" values="0 0 0 0 0 0 0 0 0 0 0 0 0 0 0 0 0 0 127 0" result="hardAlpha"/>
<feOffset dy="-2.7439"/>
<feGaussianBlur stdDeviation="5.4878"/>
<feComposite in2="hardAlpha" operator="arithmetic" k2="-1" k3="1"/>
<feColorMatrix type="matrix" values="0 0 0 0 0.12549 0 0 0 0 0.164706 0 0 0 0 0.258824 0 0 0 0.12 0"/>
<feBlend mode="multiply" in2="shape" result="effect1_innerShadow_4018_51652"/>
</filter>
<filter id="filter6_d_4018_51652" x="519.512" y="93.9022" width="560.975" height="875.61" filterUnits="userSpaceOnUse" color-interpolation-filters="sRGB">
<feFlood flood-opacity="0" result="BackgroundImageFix"/>
<feColorMatrix in="SourceAlpha" type="matrix" values="0 0 0 0 0 0 0 0 0 0 0 0 0 0 0 0 0 0 127 0" result="hardAlpha"/>
<feOffset dy="9.7561"/>
<feGaussianBlur stdDeviation="48.7805"/>
<feColorMatrix type="matrix" values="0 0 0 0 0.12549 0 0 0 0 0.164706 0 0 0 0 0.258824 0 0 0 0.12 0"/>
<feBlend mode="normal" in2="BackgroundImageFix" result="effect1_dropShadow_4018_51652"/>
<feBlend mode="normal" in="SourceGraphic" in2="effect1_dropShadow_4018_51652" result="shape"/>
</filter>
<filter id="filter7_d_4018_51652" x="660.366" y="181.098" width="328.048" height="691.464" filterUnits="userSpaceOnUse" color-interpolation-filters="sRGB">
<feFlood flood-opacity="0" result="BackgroundImageFix"/>
<feColorMatrix in="SourceAlpha" type="matrix" values="0 0 0 0 0 0 0 0 0 0 0 0 0 0 0 0 0 0 127 0" result="hardAlpha"/>
<feOffset dy="4.87805"/>
<feGaussianBlur stdDeviation="9.7561"/>
<feColorMatrix type="matrix" values="0 0 0 0 0.12549 0 0 0 0 0.164706 0 0 0 0 0.258824 0 0 0 0.16 0"/>
<feBlend mode="normal" in2="BackgroundImageFix" result="effect1_dropShadow_4018_51652"/>
<feBlend mode="normal" in="SourceGraphic" in2="effect1_dropShadow_4018_51652" result="shape"/>
</filter>
<filter id="filter8_d_4018_51652" x="985.365" y="93.9016" width="498" height="856.097" filterUnits="userSpaceOnUse" color-interpolation-filters="sRGB">
<feFlood flood-opacity="0" result="BackgroundImageFix"/>
<feColorMatrix in="SourceAlpha" type="matrix" values="0 0 0 0 0 0 0 0 0 0 0 0 0 0 0 0 0 0 127 0" result="hardAlpha"/>
<feOffset dy="21.9512"/>
<feGaussianBlur stdDeviation="25.6098"/>
<feColorMatrix type="matrix" values="0 0 0 0 0 0 0 0 0 0 0 0 0 0 0 0 0 0 0.2 0"/>
<feBlend mode="normal" in2="BackgroundImageFix" result="effect1_dropShadow_4018_51652"/>
<feBlend mode="normal" in="SourceGraphic" in2="effect1_dropShadow_4018_51652" result="shape"/>
</filter>
<filter id="filter9_i_4018_51652" x="1037.02" y="120.426" width="395.122" height="756.402" filterUnits="userSpaceOnUse" color-interpolation-filters="sRGB">
<feFlood flood-opacity="0" result="BackgroundImageFix"/>
<feBlend mode="normal" in="SourceGraphic" in2="BackgroundImageFix" result="shape"/>
<feColorMatrix in="SourceAlpha" type="matrix" values="0 0 0 0 0 0 0 0 0 0 0 0 0 0 0 0 0 0 127 0" result="hardAlpha"/>
<feOffset dy="-2.7439"/>
<feGaussianBlur stdDeviation="5.4878"/>
<feComposite in2="hardAlpha" operator="arithmetic" k2="-1" k3="1"/>
<feColorMatrix type="matrix" values="0 0 0 0 0.12549 0 0 0 0 0.164706 0 0 0 0 0.258824 0 0 0 0.12 0"/>
<feBlend mode="multiply" in2="shape" result="effect1_innerShadow_4018_51652"/>
</filter>
<filter id="filter10_d_4018_51652" x="954.097" y="89.0232" width="560.975" height="880.489" filterUnits="userSpaceOnUse" color-interpolation-filters="sRGB">
<feFlood flood-opacity="0" result="BackgroundImageFix"/>
<feColorMatrix in="SourceAlpha" type="matrix" values="0 0 0 0 0 0 0 0 0 0 0 0 0 0 0 0 0 0 127 0" result="hardAlpha"/>
<feOffset dy="9.7561"/>
<feGaussianBlur stdDeviation="48.7805"/>
<feColorMatrix type="matrix" values="0 0 0 0 0.12549 0 0 0 0 0.164706 0 0 0 0 0.258824 0 0 0 0.12 0"/>
<feBlend mode="normal" in2="BackgroundImageFix" result="effect1_dropShadow_4018_51652"/>
<feBlend mode="normal" in="SourceGraphic" in2="effect1_dropShadow_4018_51652" result="shape"/>
</filter>
<radialGradient id="paint0_radial_4018_51652" cx="0" cy="0" r="1" gradientUnits="userSpaceOnUse" gradientTransform="translate(608.378 135.075) rotate(63.7097) scale(805.552 816.201)">
<stop/>
<stop offset="1" stop-opacity="0"/>
</radialGradient>
<clipPath id="clip0_4018_51652">
<rect width="1600" height="1000" fill="white"/>
</clipPath>
<clipPath id="clip1_4018_51652">
<rect x="182.927" y="137.805" width="365.854" height="724.39" rx="14.6341" fill="white"/>
</clipPath>
<clipPath id="clip2_4018_51652">
<rect width="365.854" height="724.39" fill="white" transform="translate(182.927 137.805)"/>
</clipPath>
<clipPath id="clip3_4018_51652">
<rect width="24.3269" height="24.3902" fill="white" transform="translate(198.29 152.439)"/>
</clipPath>
<clipPath id="clip4_4018_51652">
<rect width="78.0488" height="54" fill="white" transform="translate(382.927 137.805)"/>
</clipPath>
<clipPath id="clip5_4018_51652">
<path d="M182.927 191.463H378.049V862.195H182.927V191.463Z" fill="white"/>
</clipPath>
<clipPath id="clip6_4018_51652">
<rect x="392.683" y="206.098" width="141.463" height="641.463" rx="4.87805" fill="white"/>
</clipPath>
<clipPath id="clip7_4018_51652">
<rect x="402.439" y="352.439" width="121.951" height="485.366" rx="4.87805" fill="white"/>
</clipPath>
<clipPath id="clip8_4018_51652">
<rect x="617.073" y="137.805" width="365.854" height="724.39" rx="14.6341" fill="white"/>
</clipPath>
<clipPath id="clip9_4018_51652">
<rect width="365.854" height="724.39" fill="white" transform="translate(617.073 137.805)"/>
</clipPath>
<clipPath id="clip10_4018_51652">
<rect width="24.3269" height="24.3902" fill="white" transform="translate(632.436 147.561)"/>
</clipPath>
<clipPath id="clip11_4018_51652">
<rect width="78.0488" height="44" fill="white" transform="translate(817.073 137.805)"/>
</clipPath>
<clipPath id="clip12_4018_51652">
<rect x="680.488" y="196.342" width="287.805" height="651.22" rx="4.87805" fill="white"/>
</clipPath>
<clipPath id="clip13_4018_51652">
<rect x="1051.66" y="137.805" width="365.854" height="724.39" rx="14.6341" fill="white"/>
</clipPath>
<clipPath id="clip14_4018_51652">
<rect width="365.854" height="724.39" fill="white" transform="translate(1051.66 137.805)"/>
</clipPath>
<clipPath id="clip15_4018_51652">
<rect width="24.3269" height="24.3902" fill="white" transform="translate(1062.14 145.121)"/>
</clipPath>
<clipPath id="clip16_4018_51652">
<rect width="78.0488" height="39.0244" fill="white" transform="translate(1246.78 137.805)"/>
</clipPath>
</defs>
</svg>
