<svg width="1200" height="800" viewBox="0 0 1200 800" fill="none" xmlns="http://www.w3.org/2000/svg">
<g clip-path="url(#clip0_4007_167915)">
<rect width="1200" height="800" fill="#F5F3EF"/>
<g clip-path="url(#clip1_4007_167915)">
<path d="M312.917 338.331C325.035 338.331 334.86 348.155 334.86 360.274V376.388L350.974 376.388C363.093 376.388 372.917 386.213 372.917 398.331C358.596 398.331 344.274 398.331 329.953 398.331C327.342 390.162 320.994 383.664 312.917 380.853V338.331Z" fill="#152539"/>
<path fill-rule="evenodd" clip-rule="evenodd" d="M304.307 423.056C304.307 435.175 314.131 444.999 326.25 444.999V406.942C326.25 394.823 316.426 384.999 304.307 384.999L266.25 384.999C266.25 397.118 276.074 406.942 288.193 406.942H304.307V423.056Z" fill="#152539"/>
<path d="M407.97 375.146C405.116 375.146 402.53 374.533 400.21 373.306C397.916 372.053 396.103 370.333 394.77 368.146C393.463 365.933 392.81 363.439 392.81 360.666C392.81 357.893 393.463 355.413 394.77 353.226C396.103 351.013 397.916 349.293 400.21 348.066C402.53 346.813 405.13 346.186 408.01 346.186C410.436 346.186 412.623 346.613 414.57 347.466C416.543 348.319 418.196 349.546 419.53 351.146L415.37 354.986C413.476 352.799 411.13 351.706 408.33 351.706C406.596 351.706 405.05 352.093 403.69 352.866C402.33 353.613 401.263 354.666 400.49 356.026C399.743 357.386 399.37 358.933 399.37 360.666C399.37 362.399 399.743 363.946 400.49 365.306C401.263 366.666 402.33 367.733 403.69 368.506C405.05 369.253 406.596 369.626 408.33 369.626C411.13 369.626 413.476 368.519 415.37 366.306L419.53 370.146C418.196 371.773 416.543 373.013 414.57 373.866C412.596 374.719 410.396 375.146 407.97 375.146ZM431.989 352.826C435.323 352.826 437.883 353.626 439.669 355.226C441.456 356.799 442.349 359.186 442.349 362.386V374.666H436.509V371.986C435.336 373.986 433.149 374.986 429.949 374.986C428.296 374.986 426.856 374.706 425.629 374.146C424.429 373.586 423.509 372.813 422.869 371.826C422.229 370.839 421.909 369.719 421.909 368.466C421.909 366.466 422.656 364.893 424.149 363.746C425.669 362.599 428.003 362.026 431.149 362.026H436.109C436.109 360.666 435.696 359.626 434.869 358.906C434.043 358.159 432.803 357.786 431.149 357.786C430.003 357.786 428.869 357.973 427.749 358.346C426.656 358.693 425.723 359.173 424.949 359.786L422.709 355.426C423.883 354.599 425.283 353.959 426.909 353.506C428.563 353.053 430.256 352.826 431.989 352.826ZM431.509 370.786C432.576 370.786 433.523 370.546 434.349 370.066C435.176 369.559 435.763 368.826 436.109 367.866V365.666H431.829C429.269 365.666 427.989 366.506 427.989 368.186C427.989 368.986 428.296 369.626 428.909 370.106C429.549 370.559 430.416 370.786 431.509 370.786ZM461.077 352.826C463.743 352.826 465.89 353.626 467.517 355.226C469.17 356.826 469.997 359.199 469.997 362.346V374.666H463.757V363.306C463.757 361.599 463.383 360.333 462.637 359.506C461.89 358.653 460.81 358.226 459.397 358.226C457.823 358.226 456.57 358.719 455.637 359.706C454.703 360.666 454.237 362.106 454.237 364.026V374.666H447.997V353.146H453.957V355.666C454.783 354.759 455.81 354.066 457.037 353.586C458.263 353.079 459.61 352.826 461.077 352.826ZM484.333 352.826C487.666 352.826 490.226 353.626 492.013 355.226C493.8 356.799 494.693 359.186 494.693 362.386V374.666H488.853V371.986C487.68 373.986 485.493 374.986 482.293 374.986C480.64 374.986 479.2 374.706 477.973 374.146C476.773 373.586 475.853 372.813 475.213 371.826C474.573 370.839 474.253 369.719 474.253 368.466C474.253 366.466 475 364.893 476.493 363.746C478.013 362.599 480.346 362.026 483.493 362.026H488.453C488.453 360.666 488.04 359.626 487.213 358.906C486.386 358.159 485.146 357.786 483.493 357.786C482.346 357.786 481.213 357.973 480.093 358.346C479 358.693 478.066 359.173 477.293 359.786L475.053 355.426C476.226 354.599 477.626 353.959 479.253 353.506C480.906 353.053 482.6 352.826 484.333 352.826ZM483.853 370.786C484.92 370.786 485.866 370.546 486.693 370.066C487.52 369.559 488.106 368.826 488.453 367.866V365.666H484.173C481.613 365.666 480.333 366.506 480.333 368.186C480.333 368.986 480.64 369.626 481.253 370.106C481.893 370.559 482.76 370.786 483.853 370.786ZM500.34 344.986H506.58V374.666H500.34V344.986ZM512.372 353.146H518.612V374.666H512.372V353.146ZM515.492 350.146C514.345 350.146 513.412 349.813 512.692 349.146C511.972 348.479 511.612 347.653 511.612 346.666C511.612 345.679 511.972 344.853 512.692 344.186C513.412 343.519 514.345 343.186 515.492 343.186C516.638 343.186 517.572 343.506 518.292 344.146C519.012 344.786 519.372 345.586 519.372 346.546C519.372 347.586 519.012 348.453 518.292 349.146C517.572 349.813 516.638 350.146 515.492 350.146ZM538.083 374.666L533.363 368.066L528.483 374.666H521.683L529.963 363.826L521.963 353.146H528.963L533.523 359.426L538.203 353.146H544.843L536.843 363.666L545.163 374.666H538.083Z" fill="#152539"/>
<path d="M420.463 388.333C425.423 388.333 429.717 389.16 433.343 390.813C437.023 392.466 439.85 394.813 441.823 397.853C443.797 400.893 444.783 404.493 444.783 408.653C444.783 412.76 443.797 416.36 441.823 419.453C439.85 422.493 437.023 424.84 433.343 426.493C429.717 428.093 425.423 428.893 420.463 428.893H409.183V444.333H396.223V388.333H420.463ZM419.743 418.333C423.637 418.333 426.597 417.506 428.623 415.853C430.65 414.146 431.663 411.746 431.663 408.653C431.663 405.506 430.65 403.106 428.623 401.453C426.597 399.746 423.637 398.893 419.743 398.893H409.183V418.333H419.743ZM465.076 406.973C466.569 404.893 468.569 403.32 471.076 402.253C473.636 401.186 476.569 400.653 479.876 400.653V412.173C478.489 412.066 477.556 412.013 477.076 412.013C473.502 412.013 470.702 413.026 468.676 415.053C466.649 417.026 465.636 420.013 465.636 424.013V444.333H453.156V401.293H465.076V406.973ZM507.386 444.973C502.852 444.973 498.772 444.04 495.146 442.173C491.572 440.253 488.772 437.613 486.746 434.253C484.719 430.893 483.706 427.08 483.706 422.813C483.706 418.546 484.719 414.733 486.746 411.373C488.772 408.013 491.572 405.4 495.146 403.533C498.772 401.613 502.852 400.653 507.386 400.653C511.919 400.653 515.972 401.613 519.546 403.533C523.119 405.4 525.919 408.013 527.946 411.373C529.972 414.733 530.986 418.546 530.986 422.813C530.986 427.08 529.972 430.893 527.946 434.253C525.919 437.613 523.119 440.253 519.546 442.173C515.972 444.04 511.919 444.973 507.386 444.973ZM507.386 434.733C510.586 434.733 513.199 433.666 515.226 431.533C517.306 429.346 518.346 426.44 518.346 422.813C518.346 419.186 517.306 416.306 515.226 414.173C513.199 411.986 510.586 410.893 507.386 410.893C504.186 410.893 501.546 411.986 499.466 414.173C497.386 416.306 496.346 419.186 496.346 422.813C496.346 426.44 497.386 429.346 499.466 431.533C501.546 433.666 504.186 434.733 507.386 434.733ZM583.168 384.973V444.333H571.248V439.373C568.154 443.106 563.674 444.973 557.808 444.973C553.754 444.973 550.074 444.066 546.768 442.253C543.514 440.44 540.954 437.853 539.088 434.493C537.221 431.133 536.288 427.24 536.288 422.813C536.288 418.386 537.221 414.493 539.088 411.133C540.954 407.773 543.514 405.186 546.768 403.373C550.074 401.56 553.754 400.653 557.808 400.653C563.301 400.653 567.594 402.386 570.688 405.853V384.973H583.168ZM559.968 434.733C563.114 434.733 565.728 433.666 567.808 431.533C569.888 429.346 570.928 426.44 570.928 422.813C570.928 419.186 569.888 416.306 567.808 414.173C565.728 411.986 563.114 410.893 559.968 410.893C556.768 410.893 554.128 411.986 552.048 414.173C549.968 416.306 548.928 419.186 548.928 422.813C548.928 426.44 549.968 429.346 552.048 431.533C554.128 433.666 556.768 434.733 559.968 434.733ZM638.078 401.293V444.333H626.238V439.213C624.585 441.08 622.612 442.52 620.318 443.533C618.025 444.493 615.545 444.973 612.878 444.973C607.225 444.973 602.745 443.346 599.438 440.093C596.132 436.84 594.478 432.013 594.478 425.613V401.293H606.958V423.773C606.958 430.706 609.865 434.173 615.678 434.173C618.665 434.173 621.065 433.213 622.878 431.293C624.692 429.32 625.598 426.413 625.598 422.573V401.293H638.078ZM670.44 444.973C665.853 444.973 661.72 444.04 658.04 442.173C654.413 440.253 651.56 437.613 649.48 434.253C647.453 430.893 646.44 427.08 646.44 422.813C646.44 418.546 647.453 414.733 649.48 411.373C651.56 408.013 654.413 405.4 658.04 403.533C661.72 401.613 665.853 400.653 670.44 400.653C674.973 400.653 678.92 401.613 682.28 403.533C685.693 405.4 688.173 408.093 689.72 411.613L680.04 416.813C677.8 412.866 674.573 410.893 670.36 410.893C667.107 410.893 664.413 411.96 662.28 414.093C660.147 416.226 659.08 419.133 659.08 422.813C659.08 426.493 660.147 429.4 662.28 431.533C664.413 433.666 667.107 434.733 670.36 434.733C674.627 434.733 677.853 432.76 680.04 428.813L689.72 434.093C688.173 437.506 685.693 440.173 682.28 442.093C678.92 444.013 674.973 444.973 670.44 444.973ZM725.291 442.253C724.064 443.16 722.544 443.853 720.731 444.333C718.971 444.76 717.104 444.973 715.131 444.973C710.011 444.973 706.037 443.666 703.211 441.053C700.437 438.44 699.051 434.6 699.051 429.533V411.853H692.411V402.253H699.051V391.773H711.531V402.253H722.251V411.853H711.531V429.373C711.531 431.186 711.984 432.6 712.891 433.613C713.851 434.573 715.184 435.053 716.891 435.053C718.864 435.053 720.544 434.52 721.931 433.453L725.291 442.253Z" fill="#152539"/>
<g opacity="0.4">
<path d="M578.419 471.884C578.268 470.539 577.643 469.498 576.544 468.759C575.446 468.011 574.063 467.637 572.396 467.637C571.203 467.637 570.171 467.826 569.3 468.205C568.429 468.574 567.752 469.086 567.269 469.739C566.795 470.383 566.558 471.117 566.558 471.941C566.558 472.632 566.719 473.229 567.041 473.731C567.373 474.233 567.804 474.654 568.334 474.995C568.874 475.326 569.451 475.606 570.067 475.833C570.682 476.051 571.274 476.231 571.842 476.373L574.683 477.111C575.611 477.339 576.563 477.646 577.539 478.035C578.514 478.423 579.418 478.934 580.252 479.569C581.085 480.203 581.757 480.989 582.269 481.927C582.789 482.864 583.05 483.986 583.05 485.293C583.05 486.941 582.624 488.404 581.771 489.682C580.929 490.961 579.702 491.969 578.092 492.708C576.492 493.447 574.556 493.816 572.283 493.816C570.105 493.816 568.22 493.47 566.629 492.779C565.039 492.088 563.793 491.108 562.894 489.839C561.994 488.56 561.497 487.045 561.402 485.293H565.806C565.891 486.344 566.232 487.22 566.828 487.921C567.434 488.612 568.206 489.128 569.144 489.469C570.091 489.801 571.128 489.967 572.254 489.967C573.495 489.967 574.598 489.772 575.564 489.384C576.539 488.986 577.307 488.437 577.865 487.736C578.424 487.026 578.703 486.198 578.703 485.251C578.703 484.389 578.457 483.683 577.965 483.134C577.482 482.585 576.824 482.13 575.99 481.771C575.166 481.411 574.234 481.093 573.192 480.819L569.754 479.881C567.425 479.247 565.578 478.314 564.215 477.083C562.86 475.852 562.183 474.223 562.183 472.197C562.183 470.521 562.638 469.057 563.547 467.807C564.456 466.557 565.687 465.587 567.24 464.896C568.793 464.195 570.545 463.844 572.496 463.844C574.466 463.844 576.203 464.19 577.709 464.881C579.224 465.573 580.417 466.524 581.289 467.736C582.16 468.939 582.614 470.322 582.652 471.884H578.419ZM588.295 493.333V464.242H606.534V468.021H592.684V476.884H605.582V480.648H592.684V489.555H606.704V493.333H588.295ZM612.396 493.333V464.242H622.766C625.02 464.242 626.89 464.63 628.377 465.407C629.873 466.183 630.99 467.258 631.729 468.631C632.467 469.995 632.837 471.572 632.837 473.361C632.837 475.142 632.463 476.709 631.715 478.063C630.976 479.408 629.859 480.454 628.362 481.202C626.876 481.95 625.005 482.324 622.752 482.324H614.896V478.546H622.354C623.774 478.546 624.93 478.342 625.82 477.935C626.719 477.528 627.378 476.936 627.794 476.16C628.211 475.383 628.419 474.45 628.419 473.361C628.419 472.263 628.206 471.311 627.78 470.506C627.363 469.701 626.705 469.086 625.806 468.66C624.915 468.224 623.746 468.006 622.297 468.006H616.786V493.333H612.396ZM626.757 480.208L633.945 493.333H628.945L621.899 480.208H626.757ZM640.017 464.242L648.114 487.935H648.44L656.537 464.242H661.281L650.813 493.333H645.742L635.273 464.242H640.017ZM669.872 464.242V493.333H665.482V464.242H669.872ZM700.426 473.702H695.994C695.823 472.755 695.506 471.922 695.042 471.202C694.578 470.483 694.01 469.872 693.338 469.37C692.665 468.868 691.912 468.489 691.079 468.234C690.255 467.978 689.379 467.85 688.451 467.85C686.775 467.85 685.274 468.271 683.948 469.114C682.632 469.957 681.59 471.193 680.823 472.822C680.066 474.45 679.687 476.439 679.687 478.788C679.687 481.155 680.066 483.153 680.823 484.782C681.59 486.411 682.637 487.642 683.963 488.475C685.288 489.308 686.78 489.725 688.437 489.725C689.356 489.725 690.227 489.602 691.051 489.356C691.884 489.1 692.637 488.726 693.309 488.234C693.981 487.741 694.55 487.14 695.014 486.43C695.487 485.71 695.814 484.886 695.994 483.958L700.426 483.972C700.189 485.402 699.73 486.718 699.048 487.921C698.375 489.114 697.509 490.146 696.448 491.018C695.397 491.879 694.195 492.547 692.84 493.021C691.486 493.494 690.009 493.731 688.409 493.731C685.89 493.731 683.645 493.134 681.676 491.941C679.706 490.738 678.153 489.02 677.016 486.785C675.89 484.55 675.326 481.884 675.326 478.788C675.326 475.681 675.894 473.016 677.031 470.79C678.167 468.556 679.72 466.842 681.69 465.648C683.659 464.446 685.899 463.844 688.409 463.844C689.952 463.844 691.391 464.067 692.727 464.512C694.071 464.948 695.279 465.592 696.349 466.444C697.419 467.287 698.304 468.319 699.005 469.54C699.706 470.753 700.179 472.14 700.426 473.702ZM705.678 493.333V464.242H723.916V468.021H710.067V476.884H722.965V480.648H710.067V489.555H724.087V493.333H705.678Z" fill="#152539"/>
</g>
<g opacity="0.4">
<path d="M764.922 413.515C764.673 411.416 763.665 409.786 761.897 408.626C760.13 407.466 757.961 406.886 755.393 406.886C753.515 406.886 751.871 407.19 750.463 407.797C749.068 408.405 747.977 409.241 747.19 410.304C746.416 411.367 746.03 412.576 746.03 413.929C746.03 415.062 746.299 416.035 746.837 416.85C747.39 417.651 748.094 418.321 748.95 418.859C749.807 419.384 750.704 419.819 751.643 420.164C752.582 420.496 753.445 420.765 754.233 420.972L758.541 422.132C759.646 422.422 760.875 422.823 762.229 423.334C763.596 423.845 764.901 424.542 766.144 425.426C767.4 426.296 768.436 427.415 769.251 428.782C770.066 430.149 770.473 431.827 770.473 433.815C770.473 436.108 769.872 438.179 768.671 440.03C767.483 441.881 765.743 443.351 763.451 444.442C761.172 445.533 758.403 446.079 755.144 446.079C752.106 446.079 749.475 445.588 747.252 444.608C745.042 443.627 743.302 442.26 742.032 440.506C740.775 438.753 740.064 436.716 739.898 434.396H745.201C745.339 435.997 745.878 437.323 746.817 438.373C747.77 439.409 748.971 440.182 750.421 440.693C751.885 441.19 753.459 441.439 755.144 441.439C757.105 441.439 758.866 441.121 760.426 440.486C761.987 439.837 763.223 438.939 764.134 437.793C765.046 436.633 765.502 435.279 765.502 433.733C765.502 432.324 765.108 431.178 764.321 430.294C763.534 429.41 762.498 428.692 761.214 428.14C759.929 427.587 758.541 427.104 757.05 426.69L751.83 425.198C748.515 424.245 745.891 422.885 743.958 421.117C742.025 419.35 741.058 417.036 741.058 414.178C741.058 411.802 741.7 409.731 742.984 407.963C744.283 406.182 746.023 404.801 748.205 403.82C750.4 402.826 752.852 402.329 755.558 402.329C758.293 402.329 760.723 402.819 762.85 403.8C764.977 404.766 766.662 406.092 767.905 407.777C769.161 409.462 769.824 411.374 769.893 413.515H764.922ZM814.715 424.121C814.715 428.595 813.907 432.462 812.292 435.721C810.676 438.98 808.459 441.494 805.642 443.262C802.825 445.029 799.607 445.913 795.989 445.913C792.371 445.913 789.153 445.029 786.336 443.262C783.518 441.494 781.302 438.98 779.686 435.721C778.07 432.462 777.263 428.595 777.263 424.121C777.263 419.646 778.07 415.78 779.686 412.521C781.302 409.261 783.518 406.748 786.336 404.98C789.153 403.213 792.371 402.329 795.989 402.329C799.607 402.329 802.825 403.213 805.642 404.98C808.459 406.748 810.676 409.261 812.292 412.521C813.907 415.78 814.715 419.646 814.715 424.121ZM809.744 424.121C809.744 420.447 809.129 417.347 807.9 414.82C806.685 412.293 805.034 410.38 802.949 409.082C800.878 407.784 798.557 407.135 795.989 407.135C793.42 407.135 791.093 407.784 789.008 409.082C786.936 410.38 785.286 412.293 784.057 414.82C782.842 417.347 782.234 420.447 782.234 424.121C782.234 427.794 782.842 430.895 784.057 433.422C785.286 435.949 786.936 437.862 789.008 439.16C791.093 440.458 793.42 441.107 795.989 441.107C798.557 441.107 800.878 440.458 802.949 439.16C805.034 437.862 806.685 435.949 807.9 433.422C809.129 430.895 809.744 427.794 809.744 424.121ZM823.353 445.333V402.909H828.491V440.776H848.211V445.333H823.353ZM884.007 402.909H889.144V430.998C889.144 433.898 888.46 436.488 887.093 438.766C885.74 441.031 883.827 442.82 881.355 444.132C878.883 445.43 875.983 446.079 872.655 446.079C869.327 446.079 866.427 445.43 863.955 444.132C861.483 442.82 859.563 441.031 858.196 438.766C856.842 436.488 856.166 433.898 856.166 430.998V402.909H861.303V430.584C861.303 432.655 861.759 434.499 862.67 436.115C863.582 437.717 864.88 438.98 866.565 439.906C868.263 440.817 870.293 441.273 872.655 441.273C875.016 441.273 877.046 440.817 878.745 439.906C880.444 438.98 881.742 437.717 882.64 436.115C883.551 434.499 884.007 432.655 884.007 430.584V402.909ZM897.083 407.466V402.909H928.901V407.466H915.561V445.333H910.423V407.466H897.083ZM941.967 402.909V445.333H936.83V402.909H941.967ZM988.063 424.121C988.063 428.595 987.255 432.462 985.639 435.721C984.024 438.98 981.807 441.494 978.99 443.262C976.173 445.029 972.955 445.913 969.337 445.913C965.719 445.913 962.501 445.029 959.684 443.262C956.866 441.494 954.65 438.98 953.034 435.721C951.418 432.462 950.61 428.595 950.61 424.121C950.61 419.646 951.418 415.78 953.034 412.521C954.65 409.261 956.866 406.748 959.684 404.98C962.501 403.213 965.719 402.329 969.337 402.329C972.955 402.329 976.173 403.213 978.99 404.98C981.807 406.748 984.024 409.261 985.639 412.521C987.255 415.78 988.063 419.646 988.063 424.121ZM983.092 424.121C983.092 420.447 982.477 417.347 981.248 414.82C980.033 412.293 978.382 410.38 976.297 409.082C974.226 407.784 971.905 407.135 969.337 407.135C966.768 407.135 964.441 407.784 962.356 409.082C960.284 410.38 958.634 412.293 957.405 414.82C956.19 417.347 955.582 420.447 955.582 424.121C955.582 427.794 956.19 430.895 957.405 433.422C958.634 435.949 960.284 437.862 962.356 439.16C964.441 440.458 966.768 441.107 969.337 441.107C971.905 441.107 974.226 440.458 976.297 439.16C978.382 437.862 980.033 435.949 981.248 433.422C982.477 430.895 983.092 427.794 983.092 424.121ZM1030.34 402.909V445.333H1025.37L1002.25 412.023H1001.84V445.333H996.701V402.909H1001.67L1024.87 436.301H1025.29V402.909H1030.34Z" fill="#152539"/>
</g>
<path d="M543.296 574.511C543.48 574.649 543.741 574.612 543.879 574.427C544.017 574.243 543.979 573.982 543.795 573.844L543.545 574.178L543.296 574.511ZM436.986 494.099C436.758 494.131 436.6 494.343 436.633 494.571L437.168 498.282C437.201 498.51 437.412 498.668 437.64 498.635C437.867 498.602 438.025 498.391 437.993 498.163L437.517 494.864L440.816 494.388C441.044 494.356 441.202 494.144 441.169 493.917C441.136 493.689 440.925 493.531 440.697 493.564L436.986 494.099ZM543.545 574.178L543.795 573.844L437.295 494.177L437.045 494.511L436.796 494.845L543.296 574.511L543.545 574.178Z" fill="#152539"/>
<path d="M553.292 583.466C553.656 583.466 553.972 583.526 554.24 583.646C554.512 583.766 554.72 583.938 554.864 584.162C555.008 584.386 555.08 584.652 555.08 584.96C555.08 585.264 555.008 585.53 554.864 585.758C554.72 585.982 554.512 586.154 554.24 586.274C553.972 586.394 553.656 586.454 553.292 586.454H552.344V587.666H551.564V583.466H553.292ZM553.256 585.794C553.596 585.794 553.854 585.722 554.03 585.578C554.206 585.434 554.294 585.228 554.294 584.96C554.294 584.692 554.206 584.486 554.03 584.342C553.854 584.198 553.596 584.126 553.256 584.126H552.344V585.794H553.256ZM559.507 587.666L558.649 586.436C558.613 586.44 558.559 586.442 558.487 586.442H557.539V587.666H556.759V583.466H558.487C558.851 583.466 559.167 583.526 559.435 583.646C559.707 583.766 559.915 583.938 560.059 584.162C560.203 584.386 560.275 584.652 560.275 584.96C560.275 585.276 560.197 585.548 560.041 585.776C559.889 586.004 559.669 586.174 559.381 586.286L560.347 587.666H559.507ZM559.489 584.96C559.489 584.692 559.401 584.486 559.225 584.342C559.049 584.198 558.791 584.126 558.451 584.126H557.539V585.8H558.451C558.791 585.8 559.049 585.728 559.225 585.584C559.401 585.436 559.489 585.228 559.489 584.96ZM564.01 587.726C563.582 587.726 563.196 587.634 562.852 587.45C562.508 587.262 562.238 587.004 562.042 586.676C561.846 586.344 561.748 585.974 561.748 585.566C561.748 585.158 561.846 584.79 562.042 584.462C562.238 584.13 562.508 583.872 562.852 583.688C563.196 583.5 563.582 583.406 564.01 583.406C564.438 583.406 564.824 583.5 565.168 583.688C565.512 583.872 565.782 584.128 565.978 584.456C566.174 584.784 566.272 585.154 566.272 585.566C566.272 585.978 566.174 586.348 565.978 586.676C565.782 587.004 565.512 587.262 565.168 587.45C564.824 587.634 564.438 587.726 564.01 587.726ZM564.01 587.042C564.29 587.042 564.542 586.98 564.766 586.856C564.99 586.728 565.166 586.552 565.294 586.328C565.422 586.1 565.486 585.846 565.486 585.566C565.486 585.286 565.422 585.034 565.294 584.81C565.166 584.582 564.99 584.406 564.766 584.282C564.542 584.154 564.29 584.09 564.01 584.09C563.73 584.09 563.478 584.154 563.254 584.282C563.03 584.406 562.854 584.582 562.726 584.81C562.598 585.034 562.534 585.286 562.534 585.566C562.534 585.846 562.598 586.1 562.726 586.328C562.854 586.552 563.03 586.728 563.254 586.856C563.478 586.98 563.73 587.042 564.01 587.042ZM567.999 583.466H569.835C570.283 583.466 570.681 583.554 571.029 583.73C571.377 583.902 571.647 584.148 571.839 584.468C572.031 584.784 572.127 585.15 572.127 585.566C572.127 585.982 572.031 586.35 571.839 586.67C571.647 586.986 571.377 587.232 571.029 587.408C570.681 587.58 570.283 587.666 569.835 587.666H567.999V583.466ZM569.799 587.006C570.107 587.006 570.377 586.948 570.609 586.832C570.845 586.712 571.025 586.544 571.149 586.328C571.277 586.108 571.341 585.854 571.341 585.566C571.341 585.278 571.277 585.026 571.149 584.81C571.025 584.59 570.845 584.422 570.609 584.306C570.377 584.186 570.107 584.126 569.799 584.126H568.779V587.006H569.799ZM575.662 587.726C575.082 587.726 574.63 587.564 574.306 587.24C573.982 586.912 573.82 586.444 573.82 585.836V583.466H574.6V585.806C574.6 586.63 574.956 587.042 575.668 587.042C576.376 587.042 576.73 586.63 576.73 585.806V583.466H577.498V585.836C577.498 586.444 577.336 586.912 577.012 587.24C576.692 587.564 576.242 587.726 575.662 587.726ZM581.434 587.726C581.01 587.726 580.626 587.634 580.282 587.45C579.942 587.262 579.674 587.004 579.478 586.676C579.286 586.348 579.19 585.978 579.19 585.566C579.19 585.154 579.288 584.784 579.484 584.456C579.68 584.128 579.948 583.872 580.288 583.688C580.632 583.5 581.016 583.406 581.44 583.406C581.784 583.406 582.098 583.466 582.382 583.586C582.666 583.706 582.906 583.88 583.102 584.108L582.598 584.582C582.294 584.254 581.92 584.09 581.476 584.09C581.188 584.09 580.93 584.154 580.702 584.282C580.474 584.406 580.296 584.58 580.168 584.804C580.04 585.028 579.976 585.282 579.976 585.566C579.976 585.85 580.04 586.104 580.168 586.328C580.296 586.552 580.474 586.728 580.702 586.856C580.93 586.98 581.188 587.042 581.476 587.042C581.92 587.042 582.294 586.876 582.598 586.544L583.102 587.024C582.906 587.252 582.664 587.426 582.376 587.546C582.092 587.666 581.778 587.726 581.434 587.726ZM585.555 584.126H584.163V583.466H587.727V584.126H586.335V587.666H585.555V584.126Z" fill="#152539"/>
<path d="M375.447 228.529C375.572 228.335 375.516 228.078 375.322 227.953C375.128 227.829 374.871 227.885 374.746 228.078L375.097 228.304L375.447 228.529ZM321.356 311.392C321.405 311.617 321.627 311.76 321.852 311.711L325.516 310.913C325.741 310.865 325.884 310.643 325.835 310.418C325.786 310.193 325.564 310.05 325.339 310.099L322.082 310.808L321.373 307.551C321.324 307.326 321.102 307.183 320.877 307.232C320.653 307.281 320.51 307.503 320.559 307.728L321.356 311.392ZM375.097 228.304L374.746 228.078L321.413 311.078L321.763 311.304L322.114 311.529L375.447 228.529L375.097 228.304Z" fill="#152539"/>
<path d="M388.064 215.134H388.844V218.674H391.04V219.334H388.064V215.134ZM394.442 219.394C394.014 219.394 393.628 219.302 393.284 219.118C392.94 218.93 392.67 218.672 392.474 218.344C392.278 218.012 392.18 217.642 392.18 217.234C392.18 216.826 392.278 216.458 392.474 216.13C392.67 215.798 392.94 215.54 393.284 215.356C393.628 215.168 394.014 215.074 394.442 215.074C394.87 215.074 395.256 215.168 395.6 215.356C395.944 215.54 396.214 215.796 396.41 216.124C396.606 216.452 396.704 216.822 396.704 217.234C396.704 217.646 396.606 218.016 396.41 218.344C396.214 218.672 395.944 218.93 395.6 219.118C395.256 219.302 394.87 219.394 394.442 219.394ZM394.442 218.71C394.722 218.71 394.974 218.648 395.198 218.524C395.422 218.396 395.598 218.22 395.726 217.996C395.854 217.768 395.918 217.514 395.918 217.234C395.918 216.954 395.854 216.702 395.726 216.478C395.598 216.25 395.422 216.074 395.198 215.95C394.974 215.822 394.722 215.758 394.442 215.758C394.162 215.758 393.91 215.822 393.686 215.95C393.462 216.074 393.286 216.25 393.158 216.478C393.03 216.702 392.966 216.954 392.966 217.234C392.966 217.514 393.03 217.768 393.158 217.996C393.286 218.22 393.462 218.396 393.686 218.524C393.91 218.648 394.162 218.71 394.442 218.71ZM401.299 217.186H402.037V218.86C401.821 219.032 401.569 219.164 401.281 219.256C400.993 219.348 400.697 219.394 400.393 219.394C399.965 219.394 399.579 219.302 399.235 219.118C398.891 218.93 398.621 218.672 398.425 218.344C398.229 218.016 398.131 217.646 398.131 217.234C398.131 216.822 398.229 216.452 398.425 216.124C398.621 215.796 398.891 215.54 399.235 215.356C399.583 215.168 399.973 215.074 400.405 215.074C400.757 215.074 401.077 215.132 401.365 215.248C401.653 215.364 401.895 215.534 402.091 215.758L401.599 216.238C401.279 215.918 400.893 215.758 400.441 215.758C400.145 215.758 399.881 215.82 399.649 215.944C399.421 216.068 399.241 216.242 399.109 216.466C398.981 216.69 398.917 216.946 398.917 217.234C398.917 217.514 398.981 217.766 399.109 217.99C399.241 218.214 399.421 218.39 399.649 218.518C399.881 218.646 400.143 218.71 400.435 218.71C400.763 218.71 401.051 218.638 401.299 218.494V217.186ZM405.927 219.394C405.499 219.394 405.113 219.302 404.769 219.118C404.425 218.93 404.155 218.672 403.959 218.344C403.763 218.012 403.665 217.642 403.665 217.234C403.665 216.826 403.763 216.458 403.959 216.13C404.155 215.798 404.425 215.54 404.769 215.356C405.113 215.168 405.499 215.074 405.927 215.074C406.355 215.074 406.741 215.168 407.085 215.356C407.429 215.54 407.699 215.796 407.895 216.124C408.091 216.452 408.189 216.822 408.189 217.234C408.189 217.646 408.091 218.016 407.895 218.344C407.699 218.672 407.429 218.93 407.085 219.118C406.741 219.302 406.355 219.394 405.927 219.394ZM405.927 218.71C406.207 218.71 406.459 218.648 406.683 218.524C406.907 218.396 407.083 218.22 407.211 217.996C407.339 217.768 407.403 217.514 407.403 217.234C407.403 216.954 407.339 216.702 407.211 216.478C407.083 216.25 406.907 216.074 406.683 215.95C406.459 215.822 406.207 215.758 405.927 215.758C405.647 215.758 405.395 215.822 405.171 215.95C404.947 216.074 404.771 216.25 404.643 216.478C404.515 216.702 404.451 216.954 404.451 217.234C404.451 217.514 404.515 217.768 404.643 217.996C404.771 218.22 404.947 218.396 405.171 218.524C405.395 218.648 405.647 218.71 405.927 218.71ZM413.774 219.334L413.768 216.55L412.388 218.854H412.04L410.66 216.586V219.334H409.916V215.134H410.558L412.226 217.918L413.864 215.134H414.506L414.512 219.334H413.774ZM419.271 218.362H417.171L416.757 219.334H415.953L417.843 215.134H418.611L420.507 219.334H419.691L419.271 218.362ZM419.013 217.75L418.221 215.914L417.435 217.75H419.013ZM424.689 219.334L423.831 218.104C423.795 218.108 423.741 218.11 423.669 218.11H422.721V219.334H421.941V215.134H423.669C424.033 215.134 424.349 215.194 424.617 215.314C424.889 215.434 425.097 215.606 425.241 215.83C425.385 216.054 425.457 216.32 425.457 216.628C425.457 216.944 425.379 217.216 425.223 217.444C425.071 217.672 424.851 217.842 424.563 217.954L425.529 219.334H424.689ZM424.671 216.628C424.671 216.36 424.583 216.154 424.407 216.01C424.231 215.866 423.973 215.794 423.633 215.794H422.721V217.468H423.633C423.973 217.468 424.231 217.396 424.407 217.252C424.583 217.104 424.671 216.896 424.671 216.628ZM428.675 217.576L428.009 218.26V219.334H427.229V215.134H428.009V217.288L430.085 215.134H430.961L429.197 217.012L431.069 219.334H430.157L428.675 217.576Z" fill="#152539"/>
<path d="M554.981 228.552C555.101 228.356 555.04 228.1 554.844 227.979C554.648 227.859 554.391 227.92 554.271 228.116L554.626 228.334L554.981 228.552ZM504.22 309.764C504.274 309.988 504.499 310.126 504.722 310.073L508.37 309.202C508.594 309.149 508.732 308.924 508.679 308.7C508.625 308.477 508.401 308.338 508.177 308.392L504.934 309.165L504.161 305.923C504.107 305.699 503.883 305.561 503.659 305.614C503.435 305.668 503.297 305.893 503.35 306.116L504.22 309.764ZM554.626 228.334L554.271 228.116L504.271 309.449L504.626 309.667L504.981 309.886L554.981 228.552L554.626 228.334Z" fill="#152539"/>
<path d="M575.035 215.134L573.643 219.334H572.815L571.777 216.226L570.721 219.334H569.887L568.495 215.134H569.305L570.349 218.326L571.435 215.134H572.155L573.217 218.344L574.291 215.134H575.035ZM578.486 219.394C578.058 219.394 577.672 219.302 577.328 219.118C576.984 218.93 576.714 218.672 576.518 218.344C576.322 218.012 576.224 217.642 576.224 217.234C576.224 216.826 576.322 216.458 576.518 216.13C576.714 215.798 576.984 215.54 577.328 215.356C577.672 215.168 578.058 215.074 578.486 215.074C578.914 215.074 579.3 215.168 579.644 215.356C579.988 215.54 580.258 215.796 580.454 216.124C580.65 216.452 580.748 216.822 580.748 217.234C580.748 217.646 580.65 218.016 580.454 218.344C580.258 218.672 579.988 218.93 579.644 219.118C579.3 219.302 578.914 219.394 578.486 219.394ZM578.486 218.71C578.766 218.71 579.018 218.648 579.242 218.524C579.466 218.396 579.642 218.22 579.77 217.996C579.898 217.768 579.962 217.514 579.962 217.234C579.962 216.954 579.898 216.702 579.77 216.478C579.642 216.25 579.466 216.074 579.242 215.95C579.018 215.822 578.766 215.758 578.486 215.758C578.206 215.758 577.954 215.822 577.73 215.95C577.506 216.074 577.33 216.25 577.202 216.478C577.074 216.702 577.01 216.954 577.01 217.234C577.01 217.514 577.074 217.768 577.202 217.996C577.33 218.22 577.506 218.396 577.73 218.524C577.954 218.648 578.206 218.71 578.486 218.71ZM585.223 219.334L584.365 218.104C584.329 218.108 584.275 218.11 584.203 218.11H583.255V219.334H582.475V215.134H584.203C584.567 215.134 584.883 215.194 585.151 215.314C585.423 215.434 585.631 215.606 585.775 215.83C585.919 216.054 585.991 216.32 585.991 216.628C585.991 216.944 585.913 217.216 585.757 217.444C585.605 217.672 585.385 217.842 585.097 217.954L586.063 219.334H585.223ZM585.205 216.628C585.205 216.36 585.117 216.154 584.941 216.01C584.765 215.866 584.507 215.794 584.167 215.794H583.255V217.468H584.167C584.507 217.468 584.765 217.396 584.941 217.252C585.117 217.104 585.205 216.896 585.205 216.628ZM587.764 215.134H589.6C590.048 215.134 590.446 215.222 590.794 215.398C591.142 215.57 591.412 215.816 591.604 216.136C591.796 216.452 591.892 216.818 591.892 217.234C591.892 217.65 591.796 218.018 591.604 218.338C591.412 218.654 591.142 218.9 590.794 219.076C590.446 219.248 590.048 219.334 589.6 219.334H587.764V215.134ZM589.564 218.674C589.872 218.674 590.142 218.616 590.374 218.5C590.61 218.38 590.79 218.212 590.914 217.996C591.042 217.776 591.106 217.522 591.106 217.234C591.106 216.946 591.042 216.694 590.914 216.478C590.79 216.258 590.61 216.09 590.374 215.974C590.142 215.854 589.872 215.794 589.564 215.794H588.544V218.674H589.564ZM597.479 219.334L597.473 216.55L596.093 218.854H595.745L594.365 216.586V219.334H593.621V215.134H594.263L595.931 217.918L597.569 215.134H598.211L598.217 219.334H597.479ZM602.975 218.362H600.875L600.461 219.334H599.657L601.547 215.134H602.315L604.211 219.334H603.395L602.975 218.362ZM602.717 217.75L601.925 215.914L601.139 217.75H602.717ZM608.393 219.334L607.535 218.104C607.499 218.108 607.445 218.11 607.373 218.11H606.425V219.334H605.645V215.134H607.373C607.737 215.134 608.053 215.194 608.321 215.314C608.593 215.434 608.801 215.606 608.945 215.83C609.089 216.054 609.161 216.32 609.161 216.628C609.161 216.944 609.083 217.216 608.927 217.444C608.775 217.672 608.555 217.842 608.267 217.954L609.233 219.334H608.393ZM608.375 216.628C608.375 216.36 608.287 216.154 608.111 216.01C607.935 215.866 607.677 215.794 607.337 215.794H606.425V217.468H607.337C607.677 217.468 607.935 217.396 608.111 217.252C608.287 217.104 608.375 216.896 608.375 216.628ZM612.38 217.576L611.714 218.26V219.334H610.934V215.134H611.714V217.288L613.79 215.134H614.666L612.902 217.012L614.774 219.334H613.862L612.38 217.576Z" fill="#152539"/>
<path d="M860.564 583.134H861.344V586.674H863.54V587.334H860.564V583.134ZM867.809 586.362H865.709L865.295 587.334H864.491L866.381 583.134H867.149L869.045 587.334H868.229L867.809 586.362ZM867.551 585.75L866.759 583.914L865.973 585.75H867.551ZM873.455 585.15C873.687 585.226 873.871 585.354 874.007 585.534C874.143 585.71 874.211 585.93 874.211 586.194C874.211 586.558 874.071 586.84 873.791 587.04C873.511 587.236 873.103 587.334 872.567 587.334H870.479V583.134H872.447C872.943 583.134 873.325 583.232 873.593 583.428C873.861 583.62 873.995 583.886 873.995 584.226C873.995 584.434 873.947 584.618 873.851 584.778C873.755 584.938 873.623 585.062 873.455 585.15ZM871.259 583.746V584.904H872.363C872.635 584.904 872.843 584.856 872.987 584.76C873.135 584.66 873.209 584.516 873.209 584.328C873.209 584.136 873.135 583.992 872.987 583.896C872.843 583.796 872.635 583.746 872.363 583.746H871.259ZM872.519 586.722C873.123 586.722 873.425 586.52 873.425 586.116C873.425 585.712 873.123 585.51 872.519 585.51H871.259V586.722H872.519ZM879.094 586.68V587.334H875.944V583.134H879.01V583.788H876.724V584.88H878.752V585.522H876.724V586.68H879.094ZM880.863 583.134H881.643V586.674H883.839V587.334H880.863V583.134ZM889.875 587.394C889.447 587.394 889.061 587.302 888.717 587.118C888.373 586.93 888.103 586.672 887.907 586.344C887.711 586.012 887.613 585.642 887.613 585.234C887.613 584.826 887.711 584.458 887.907 584.13C888.103 583.798 888.373 583.54 888.717 583.356C889.061 583.168 889.447 583.074 889.875 583.074C890.303 583.074 890.689 583.168 891.033 583.356C891.377 583.54 891.647 583.796 891.843 584.124C892.039 584.452 892.137 584.822 892.137 585.234C892.137 585.646 892.039 586.016 891.843 586.344C891.647 586.672 891.377 586.93 891.033 587.118C890.689 587.302 890.303 587.394 889.875 587.394ZM889.875 586.71C890.155 586.71 890.407 586.648 890.631 586.524C890.855 586.396 891.031 586.22 891.159 585.996C891.287 585.768 891.351 585.514 891.351 585.234C891.351 584.954 891.287 584.702 891.159 584.478C891.031 584.25 890.855 584.074 890.631 583.95C890.407 583.822 890.155 583.758 889.875 583.758C889.595 583.758 889.343 583.822 889.119 583.95C888.895 584.074 888.719 584.25 888.591 584.478C888.463 584.702 888.399 584.954 888.399 585.234C888.399 585.514 888.463 585.768 888.591 585.996C888.719 586.22 888.895 586.396 889.119 586.524C889.343 586.648 889.595 586.71 889.875 586.71ZM895.592 583.134C895.956 583.134 896.272 583.194 896.54 583.314C896.812 583.434 897.02 583.606 897.164 583.83C897.308 584.054 897.38 584.32 897.38 584.628C897.38 584.932 897.308 585.198 897.164 585.426C897.02 585.65 896.812 585.822 896.54 585.942C896.272 586.062 895.956 586.122 895.592 586.122H894.644V587.334H893.864V583.134H895.592ZM895.556 585.462C895.896 585.462 896.154 585.39 896.33 585.246C896.506 585.102 896.594 584.896 896.594 584.628C896.594 584.36 896.506 584.154 896.33 584.01C896.154 583.866 895.896 583.794 895.556 583.794H894.644V585.462H895.556ZM899.788 583.794H898.396V583.134H901.96V583.794H900.568V587.334H899.788V583.794ZM903.445 583.134H904.225V587.334H903.445V583.134ZM908.224 587.394C907.796 587.394 907.41 587.302 907.066 587.118C906.722 586.93 906.452 586.672 906.256 586.344C906.06 586.012 905.962 585.642 905.962 585.234C905.962 584.826 906.06 584.458 906.256 584.13C906.452 583.798 906.722 583.54 907.066 583.356C907.41 583.168 907.796 583.074 908.224 583.074C908.652 583.074 909.038 583.168 909.382 583.356C909.726 583.54 909.996 583.796 910.192 584.124C910.388 584.452 910.486 584.822 910.486 585.234C910.486 585.646 910.388 586.016 910.192 586.344C909.996 586.672 909.726 586.93 909.382 587.118C909.038 587.302 908.652 587.394 908.224 587.394ZM908.224 586.71C908.504 586.71 908.756 586.648 908.98 586.524C909.204 586.396 909.38 586.22 909.508 585.996C909.636 585.768 909.7 585.514 909.7 585.234C909.7 584.954 909.636 584.702 909.508 584.478C909.38 584.25 909.204 584.074 908.98 583.95C908.756 583.822 908.504 583.758 908.224 583.758C907.944 583.758 907.692 583.822 907.468 583.95C907.244 584.074 907.068 584.25 906.94 584.478C906.812 584.702 906.748 584.954 906.748 585.234C906.748 585.514 906.812 585.768 906.94 585.996C907.068 586.22 907.244 586.396 907.468 586.524C907.692 586.648 907.944 586.71 908.224 586.71ZM915.944 583.134V587.334H915.302L912.986 584.49V587.334H912.212V583.134H912.854L915.17 585.978V583.134H915.944ZM919.272 587.394C918.948 587.394 918.634 587.348 918.33 587.256C918.03 587.164 917.792 587.042 917.616 586.89L917.886 586.284C918.058 586.42 918.268 586.532 918.516 586.62C918.768 586.704 919.02 586.746 919.272 586.746C919.584 586.746 919.816 586.696 919.968 586.596C920.124 586.496 920.202 586.364 920.202 586.2C920.202 586.08 920.158 585.982 920.07 585.906C919.986 585.826 919.878 585.764 919.746 585.72C919.614 585.676 919.434 585.626 919.206 585.57C918.886 585.494 918.626 585.418 918.426 585.342C918.23 585.266 918.06 585.148 917.916 584.988C917.776 584.824 917.706 584.604 917.706 584.328C917.706 584.096 917.768 583.886 917.892 583.698C918.02 583.506 918.21 583.354 918.462 583.242C918.718 583.13 919.03 583.074 919.398 583.074C919.654 583.074 919.906 583.106 920.154 583.17C920.402 583.234 920.616 583.326 920.796 583.446L920.55 584.052C920.366 583.944 920.174 583.862 919.974 583.806C919.774 583.75 919.58 583.722 919.392 583.722C919.084 583.722 918.854 583.774 918.702 583.878C918.554 583.982 918.48 584.12 918.48 584.292C918.48 584.412 918.522 584.51 918.606 584.586C918.694 584.662 918.804 584.722 918.936 584.766C919.068 584.81 919.248 584.86 919.476 584.916C919.788 584.988 920.044 585.064 920.244 585.144C920.444 585.22 920.614 585.338 920.754 585.498C920.898 585.658 920.97 585.874 920.97 586.146C920.97 586.378 920.906 586.588 920.778 586.776C920.654 586.964 920.464 587.114 920.208 587.226C919.952 587.338 919.64 587.394 919.272 587.394Z" fill="#152539"/>
<path d="M848.171 580.052C848.383 580.141 848.628 580.042 848.717 579.83C848.807 579.618 848.707 579.374 848.495 579.284L848.333 579.668L848.171 580.052ZM726.51 527.949C726.296 528.035 726.194 528.278 726.281 528.492L727.693 531.965C727.78 532.179 728.023 532.281 728.236 532.195C728.449 532.108 728.552 531.865 728.465 531.652L727.209 528.564L730.297 527.308C730.511 527.222 730.613 526.979 730.526 526.765C730.44 526.552 730.197 526.45 729.984 526.536L726.51 527.949ZM848.333 579.668L848.495 579.284L726.829 527.951L726.667 528.335L726.505 528.719L848.171 580.052L848.333 579.668Z" fill="#152539"/>
<path d="M847.982 579.892C848.105 580.086 848.363 580.143 848.557 580.019C848.751 579.896 848.808 579.638 848.685 579.444L848.333 579.668L847.982 579.892ZM793.423 492.928C793.199 492.878 792.976 493.02 792.926 493.244L792.115 496.906C792.065 497.13 792.207 497.353 792.431 497.403C792.656 497.452 792.879 497.311 792.928 497.086L793.65 493.832L796.904 494.553C797.129 494.603 797.351 494.461 797.401 494.236C797.451 494.012 797.309 493.789 797.085 493.74L793.423 492.928ZM848.333 579.668L848.685 579.444L793.685 493.111L793.333 493.335L792.982 493.559L847.982 579.892L848.333 579.668Z" fill="#152539"/>
</g>
</g>
<defs>
<clipPath id="clip0_4007_167915">
<rect width="1200" height="800" fill="white"/>
</clipPath>
<clipPath id="clip1_4007_167915">
<rect width="1200" height="800" fill="white"/>
</clipPath>
</defs>
</svg>
