<svg width="1200" height="800" viewBox="0 0 1200 800" fill="none" xmlns="http://www.w3.org/2000/svg">
<rect width="1200" height="800" fill="#F5F3EF"/>
<path fill-rule="evenodd" clip-rule="evenodd" d="M261 232.713L298.882 270.535C305.369 264.058 305.369 253.648 298.882 247.287L261 209.465C254.513 215.827 254.513 226.236 261 232.713ZM243.623 226.93L281.389 264.636C287.876 271.113 287.876 281.523 281.505 288L243.623 250.178C237.136 243.817 237.136 233.407 243.623 226.93Z" fill="#202A42"/>
<path d="M278.493 215.248L316.374 253.07C322.862 246.593 322.862 236.183 316.374 229.822L278.493 192C272.121 198.477 272.121 208.887 278.493 215.248Z" fill="#0073CC"/>
<path d="M440.561 264.125C421.97 264.125 406.898 248.971 406.898 230.278V196.8C425.49 196.8 440.561 211.953 440.561 230.646V264.125Z" fill="#202A42"/>
<path d="M473.099 229.34C458.226 229.34 446.169 241.685 446.169 256.913V283.2C461.042 283.2 473.099 270.855 473.099 255.626V229.34Z" fill="#202A42"/>
<path d="M468.61 208.021C468.61 214.218 463.586 219.241 457.389 219.241C451.192 219.241 446.169 214.218 446.169 208.021C446.169 201.824 451.192 196.8 457.389 196.8C463.586 196.8 468.61 201.824 468.61 208.021Z" fill="#F3CB28"/>
<path d="M575.136 230.864C569.691 240.295 572.922 252.355 582.353 257.8L601.956 223.847C607.401 214.416 604.17 202.356 594.738 196.911L575.136 230.864Z" fill="#202A42"/>
<path d="M610.924 263.371C610.924 274.261 602.096 283.089 591.205 283.089H552C552 272.199 560.828 263.371 571.718 263.371H610.924Z" fill="#202A42"/>
<path d="M628.397 243.059C622.952 233.628 610.893 230.397 601.461 235.842L621.064 269.795C626.509 279.226 638.569 282.457 648 277.012L628.397 243.059Z" fill="#26B6FF"/>
<path d="M722.559 201.6C734.329 201.6 743.87 211.238 743.87 223.127V267.345C732.1 267.345 722.559 257.707 722.559 245.818V201.6Z" fill="#202A42"/>
<path d="M749.629 212.654C761.081 212.654 770.365 222.032 770.365 233.6V278.399C758.913 278.399 749.629 269.022 749.629 257.454V212.654Z" fill="#202A42"/>
<path d="M776.127 278.4C781.779 278.4 787.2 276.101 791.197 272.009C795.193 267.918 797.439 262.368 797.439 256.581C797.439 250.795 795.193 245.245 791.197 241.154C787.2 237.062 781.779 234.763 776.127 234.763V278.4Z" fill="#F28813"/>
<path d="M898.075 219.021C897.271 220.961 896.093 222.722 894.608 224.206L894.69 224.291C897.689 221.294 901.754 219.611 905.993 219.611C910.232 219.611 914.299 221.294 917.297 224.291L905.951 235.552C902.953 238.548 898.887 240.231 894.647 240.231C890.408 240.231 886.343 238.548 883.344 235.552C880.348 232.553 878.664 228.487 878.664 224.248C878.664 220.009 880.348 215.944 883.346 212.945L894.608 201.6C896.093 203.083 897.271 204.845 898.075 206.785C898.879 208.724 899.293 210.803 899.293 212.902C899.293 215.002 898.879 217.081 898.075 219.021Z" fill="#202A42"/>
<path d="M940.39 235.593C940.39 231.355 938.706 227.289 935.71 224.291L935.794 224.207C937.277 225.692 939.039 226.87 940.978 227.674C942.917 228.478 944.997 228.891 947.096 228.891C949.196 228.891 951.275 228.478 953.214 227.674C955.154 226.87 956.916 225.691 958.4 224.206L947.055 212.946C944.057 209.949 939.992 208.265 935.753 208.265C931.513 208.265 927.447 209.949 924.449 212.945C921.452 215.944 919.77 220.009 919.77 224.248C919.77 228.487 921.452 232.553 924.449 235.551L935.71 246.897C938.706 243.899 940.39 239.833 940.39 235.593Z" fill="#202A42"/>
<path d="M890.011 254.005C890.011 258.244 891.694 262.31 894.691 265.308L894.607 265.393C893.123 263.907 891.361 262.729 889.422 261.925C887.482 261.121 885.402 260.707 883.303 260.707C881.203 260.707 879.125 261.121 877.185 261.925C875.246 262.729 873.484 263.907 872 265.393L883.346 276.654C886.345 279.65 890.41 281.334 894.649 281.334C898.889 281.334 902.955 279.65 905.953 276.654C908.95 273.655 910.632 269.59 910.632 265.351C910.632 261.112 908.949 257.046 905.952 254.047L894.691 242.702C891.694 245.7 890.011 249.766 890.011 254.005Z" fill="#202A42"/>
<path d="M924.444 254.048C927.443 251.051 931.509 249.368 935.748 249.368C939.987 249.368 944.053 251.051 947.051 254.048C950.048 257.046 951.731 261.112 951.731 265.351C951.731 269.59 950.048 273.656 947.051 276.654L935.789 288C934.303 286.516 933.125 284.754 932.321 282.814C931.517 280.875 931.103 278.796 931.103 276.697C931.103 274.597 931.517 272.518 932.321 270.578C933.125 268.639 934.303 266.877 935.789 265.393L935.705 265.309C932.707 268.305 928.641 269.988 924.402 269.988C920.163 269.988 916.097 268.305 913.098 265.309L924.444 254.048Z" fill="#F3CB28"/>
<path d="M328 410.286C317.59 420.695 300.946 420.931 290.824 410.812C284.847 404.831 284.992 395.008 291.142 388.858C295.401 384.599 302.199 384.492 306.34 388.632L328 410.286Z" fill="#202A42"/>
<path d="M269.188 410.824C259.069 420.946 259.305 437.59 269.714 448L291.368 426.34C295.508 422.199 295.401 415.401 291.142 411.142C284.992 404.992 275.169 404.847 269.188 410.824Z" fill="#202A42"/>
<path d="M290.812 389.176C300.931 379.054 300.695 362.41 290.286 352L268.632 373.66C264.492 377.801 264.599 384.599 268.858 388.858C275.008 395.008 284.831 395.153 290.812 389.176Z" fill="#202A42"/>
<path d="M269.176 389.188C259.054 379.069 242.41 379.305 232 389.714L253.66 411.368C257.801 415.508 264.599 415.401 268.858 411.142C275.008 404.992 275.153 395.169 269.176 389.188Z" fill="#26B6FF"/>
<path d="M482.472 401.261C482.721 401.261 482.871 401.535 482.738 401.745L462.513 433.61C461.588 435.068 459.98 435.951 458.253 435.951L421.742 435.951C420.014 435.951 418.407 435.068 417.481 433.61L397.257 401.745C397.123 401.535 397.274 401.261 397.523 401.261H412.685C415.883 401.261 418.859 402.897 420.573 405.597L438.238 433.429H441.756L459.421 405.597C461.135 402.897 464.111 401.261 467.31 401.261H482.472Z" fill="#202A42"/>
<path d="M482.738 398.253C482.871 398.463 482.721 398.738 482.472 398.738H467.31C464.111 398.738 461.135 397.102 459.421 394.401L441.756 366.57H438.238L420.573 394.401C418.859 397.102 415.883 398.738 412.685 398.738H397.523C397.274 398.738 397.123 398.463 397.257 398.253L417.481 366.389C418.407 364.93 420.014 364.047 421.742 364.047L458.253 364.047C459.98 364.047 461.588 364.93 462.513 366.389L482.738 398.253Z" fill="#202A42"/>
<path d="M482.477 401.261C482.725 401.261 482.876 401.535 482.743 401.745L462.518 433.61C461.592 435.068 459.985 435.952 458.258 435.952H442.455C441.46 435.952 440.856 434.854 441.389 434.014L459.426 405.597C461.14 402.897 464.116 401.261 467.314 401.261H482.477Z" fill="#0073CC"/>
<path d="M575.906 383.364C584.207 391.666 597.668 391.666 605.969 383.364L624.433 364.9C616.131 356.598 602.671 356.598 594.369 364.9L575.906 383.364Z" fill="#202A42"/>
<path d="M616.636 375.906C608.334 384.208 608.334 397.668 616.636 405.97L635.099 424.434C643.401 416.132 643.401 402.672 635.099 394.37L616.636 375.906Z" fill="#202A42"/>
<path d="M583.366 394.03C591.668 402.332 591.668 415.792 583.366 424.094L564.902 405.63C556.6 397.329 556.6 383.868 564.902 375.566L583.366 394.03Z" fill="#202A42"/>
<path d="M624.094 416.636C615.792 408.334 602.332 408.334 594.03 416.636L575.567 435.1C583.869 443.402 597.329 443.402 605.631 435.1L624.094 416.636Z" fill="#202A42"/>
<path d="M594.034 416.636C602.336 408.334 615.796 408.334 624.098 416.636L605.635 435.1C597.333 443.402 583.873 443.402 575.571 435.1L594.034 416.636Z" fill="#F28813"/>
<path d="M759.437 424.229C778.109 424.229 793.245 409.009 793.245 390.235V356.611C774.573 356.611 759.437 371.831 759.437 390.605L759.437 424.229Z" fill="#202A42"/>
<path d="M726.758 389.294C741.695 389.294 753.805 401.692 753.805 416.987L753.805 443.388C738.867 443.388 726.758 430.989 726.758 415.695L726.758 389.294Z" fill="#26B6FF"/>
<path d="M922.489 370.14L904.229 401.72C905.416 402.405 906.727 402.849 908.085 403.027C909.444 403.206 910.825 403.116 912.148 402.761C913.472 402.407 914.713 401.796 915.801 400.962C916.888 400.129 917.799 399.09 918.484 397.905L936.743 366.325C935.557 365.641 934.247 365.196 932.888 365.018C931.529 364.839 930.148 364.93 928.824 365.284C927.501 365.638 926.26 366.25 925.173 367.083C924.086 367.916 923.173 368.955 922.489 370.14Z" fill="#202A42"/>
<path d="M907.281 370.401L889.022 401.981C890.209 402.665 891.519 403.11 892.878 403.288C894.237 403.467 895.618 403.376 896.941 403.022C898.265 402.667 899.506 402.056 900.593 401.223C901.68 400.39 902.592 399.351 903.277 398.165L921.537 366.585C920.35 365.901 919.039 365.457 917.681 365.278C916.322 365.1 914.941 365.19 913.617 365.544C912.293 365.899 911.052 366.51 909.965 367.343C908.878 368.177 907.966 369.215 907.281 370.401Z" fill="#202A42"/>
<path d="M936.379 431.959H899.861C897.094 431.959 894.44 430.861 892.483 428.908C890.526 426.954 889.427 424.304 889.427 421.541H925.945C928.713 421.541 931.366 422.639 933.323 424.592C935.28 426.546 936.379 429.196 936.379 431.959Z" fill="#202A42"/>
<path d="M892.035 418.936H928.554C928.554 416.173 927.454 413.523 925.498 411.57C923.541 409.616 920.887 408.518 918.12 408.518H881.602C881.602 411.281 882.701 413.931 884.658 415.885C886.614 417.839 889.268 418.936 892.035 418.936Z" fill="#202A42"/>
<path d="M938.727 375.987L956.986 407.567C958.366 409.96 958.74 412.801 958.023 415.468C957.307 418.134 955.559 420.407 953.165 421.788L934.906 390.221C934.221 389.036 933.776 387.728 933.597 386.371C933.418 385.015 933.509 383.636 933.864 382.314C934.219 380.992 934.831 379.753 935.665 378.668C936.5 377.582 937.54 376.671 938.727 375.987Z" fill="#202A42"/>
<path d="M949.605 420.838L931.346 389.258C930.159 389.942 929.118 390.852 928.283 391.938C927.449 393.023 926.837 394.262 926.482 395.584C926.127 396.906 926.037 398.285 926.216 399.641C926.394 400.998 926.839 402.306 927.524 403.492L945.783 435.071C946.971 434.388 948.011 433.477 948.846 432.391C949.68 431.306 950.293 430.067 950.647 428.745C951.002 427.423 951.093 426.044 950.914 424.688C950.735 423.331 950.29 422.023 949.605 420.838Z" fill="#202A42"/>
<path d="M938.749 375.829L957.008 407.409C958.388 409.802 958.762 412.643 958.045 415.309C957.329 417.976 955.581 420.249 953.187 421.63L934.928 390.063C934.243 388.878 933.798 387.57 933.619 386.213C933.44 384.856 933.531 383.478 933.886 382.156C934.241 380.834 934.853 379.595 935.687 378.51C936.522 377.424 937.562 376.513 938.749 375.829Z" fill="#0073CC"/>
<path d="M949.627 420.68L931.368 389.1C930.181 389.784 929.14 390.694 928.305 391.78C927.471 392.865 926.859 394.104 926.504 395.426C926.149 396.748 926.059 398.126 926.238 399.483C926.416 400.84 926.861 402.148 927.546 403.333L945.805 434.913C946.993 434.23 948.033 433.319 948.868 432.233C949.703 431.148 950.315 429.909 950.67 428.587C951.024 427.265 951.115 425.886 950.936 424.53C950.757 423.173 950.312 421.865 949.627 420.68Z" fill="#0073CC"/>
<path d="M304.962 533.118H275.836C275.582 533.118 275.332 533.068 275.098 532.971C274.864 532.874 274.651 532.731 274.473 532.552L266.793 524.873C266.525 524.604 266.344 524.261 266.27 523.889C266.197 523.517 266.236 523.131 266.382 522.781C266.528 522.431 266.774 522.132 267.09 521.922C267.406 521.711 267.776 521.599 268.156 521.6H297.282C297.791 521.602 298.277 521.805 298.636 522.166L306.316 529.845C306.583 530.113 306.764 530.455 306.838 530.826C306.911 531.197 306.873 531.582 306.729 531.932C306.584 532.282 306.339 532.581 306.025 532.792C305.71 533.003 305.341 533.117 304.962 533.118Z" fill="#202A42"/>
<path d="M280.799 548.476H309.935C310.313 548.475 310.683 548.361 310.997 548.15C311.312 547.939 311.556 547.64 311.701 547.29C311.846 546.94 311.884 546.555 311.81 546.184C311.737 545.813 311.555 545.471 311.289 545.203L303.609 537.524C303.25 537.163 302.763 536.96 302.255 536.958H273.119C272.741 536.959 272.371 537.073 272.057 537.284C271.742 537.495 271.498 537.794 271.353 538.144C271.208 538.493 271.17 538.878 271.243 539.25C271.317 539.621 271.499 539.962 271.766 540.231L279.446 547.91C279.804 548.27 280.291 548.474 280.799 548.476Z" fill="#202A42"/>
<path d="M306.882 584.952V555.819C306.884 555.311 307.088 554.824 307.448 554.466L315.128 546.787C315.397 546.52 315.738 546.338 316.109 546.265C316.481 546.192 316.866 546.23 317.215 546.374C317.565 546.519 317.865 546.764 318.076 547.078C318.287 547.392 318.4 547.762 318.402 548.14V577.273C318.402 577.779 318.202 578.266 317.845 578.626L310.165 586.305C309.897 586.575 309.555 586.759 309.182 586.835C308.809 586.91 308.422 586.873 308.07 586.728C307.718 586.583 307.417 586.336 307.206 586.02C306.994 585.704 306.882 585.332 306.882 584.952Z" fill="#202A42"/>
<path d="M291.522 589.914V560.791C291.524 560.283 291.727 559.796 292.088 559.438L299.768 551.759C300.036 551.492 300.378 551.311 300.749 551.237C301.12 551.164 301.505 551.202 301.855 551.346C302.205 551.491 302.504 551.736 302.715 552.05C302.927 552.364 303.04 552.734 303.042 553.112V582.235C303.043 582.488 302.995 582.738 302.899 582.972C302.804 583.206 302.663 583.419 302.485 583.598L294.805 591.277C294.536 591.548 294.193 591.733 293.819 591.808C293.445 591.883 293.058 591.844 292.705 591.698C292.353 591.552 292.052 591.304 291.841 590.986C291.631 590.669 291.519 590.295 291.522 589.914Z" fill="#202A42"/>
<path d="M268.482 559.198V530.075C268.48 529.697 268.367 529.327 268.156 529.013C267.944 528.699 267.645 528.454 267.295 528.309C266.946 528.165 266.56 528.127 266.189 528.2C265.818 528.273 265.476 528.455 265.208 528.722L257.528 536.401C257.348 536.579 257.206 536.792 257.108 537.026C257.011 537.26 256.962 537.51 256.962 537.764V566.887C256.96 567.268 257.071 567.641 257.281 567.959C257.492 568.277 257.793 568.524 258.145 568.671C258.498 568.817 258.885 568.855 259.259 568.78C259.633 568.705 259.976 568.52 260.245 568.249L267.925 560.57C268.104 560.39 268.246 560.176 268.341 559.94C268.437 559.704 268.484 559.452 268.482 559.198Z" fill="#202A42"/>
<path d="M253.122 535.038V564.17C253.122 564.677 252.922 565.164 252.565 565.524L244.885 573.203C244.617 573.473 244.275 573.657 243.902 573.732C243.529 573.808 243.142 573.77 242.79 573.625C242.438 573.48 242.137 573.234 241.926 572.918C241.714 572.602 241.602 572.229 241.602 571.849V542.717C241.604 542.209 241.808 541.722 242.168 541.363L249.848 533.684C250.117 533.417 250.458 533.236 250.829 533.163C251.201 533.089 251.586 533.127 251.935 533.272C252.285 533.416 252.585 533.661 252.796 533.975C253.007 534.29 253.12 534.659 253.122 535.038Z" fill="#202A42"/>
<path d="M279.214 571.513H250.079C249.7 571.515 249.33 571.628 249.016 571.839C248.702 572.05 248.457 572.35 248.312 572.699C248.168 573.049 248.129 573.434 248.203 573.805C248.276 574.177 248.458 574.518 248.725 574.787L256.405 582.466C256.763 582.826 257.25 583.03 257.759 583.032H286.894C287.273 583.03 287.643 582.917 287.957 582.706C288.271 582.495 288.516 582.195 288.661 581.846C288.805 581.496 288.843 581.111 288.77 580.74C288.696 580.368 288.515 580.027 288.248 579.759L280.568 572.08C280.21 571.719 279.723 571.516 279.214 571.513Z" fill="#202A42"/>
<path d="M255.051 586.871H284.177C284.431 586.873 284.683 586.924 284.917 587.023C285.151 587.122 285.363 587.266 285.541 587.447L293.221 595.126C293.488 595.395 293.67 595.738 293.743 596.11C293.816 596.482 293.777 596.868 293.632 597.218C293.486 597.568 293.24 597.867 292.924 598.077C292.608 598.288 292.237 598.4 291.857 598.4H262.731C262.478 598.4 262.227 598.35 261.993 598.253C261.759 598.155 261.547 598.013 261.368 597.833L253.688 590.154C253.417 589.886 253.232 589.543 253.157 589.169C253.082 588.795 253.12 588.407 253.267 588.055C253.413 587.703 253.661 587.402 253.979 587.191C254.297 586.981 254.67 586.869 255.051 586.871Z" fill="#202A42"/>
<path d="M256.962 566.96V537.828C256.964 537.319 257.167 536.833 257.528 536.474L265.208 528.795C265.477 528.528 265.818 528.347 266.189 528.273C266.561 528.2 266.946 528.238 267.295 528.383C267.645 528.527 267.944 528.772 268.156 529.086C268.367 529.401 268.48 529.77 268.482 530.149V559.281C268.482 559.788 268.282 560.274 267.925 560.634L260.245 568.313C259.977 568.583 259.634 568.768 259.261 568.843C258.888 568.918 258.501 568.881 258.15 568.736C257.798 568.591 257.497 568.345 257.286 568.029C257.074 567.712 256.961 567.34 256.962 566.96Z" fill="#F3CB28"/>
<path d="M241.602 571.923V542.8C241.604 542.291 241.807 541.805 242.168 541.446L249.848 533.767C250.116 533.501 250.458 533.319 250.829 533.246C251.2 533.172 251.585 533.21 251.935 533.355C252.285 533.499 252.584 533.744 252.795 534.059C253.006 534.373 253.12 534.742 253.122 535.121V564.244C253.123 564.496 253.075 564.747 252.979 564.981C252.884 565.214 252.743 565.427 252.565 565.606L244.885 573.285C244.616 573.556 244.273 573.741 243.899 573.816C243.525 573.891 243.137 573.853 242.785 573.707C242.433 573.56 242.132 573.313 241.921 572.995C241.71 572.677 241.599 572.304 241.602 571.923Z" fill="#F3CB28"/>
<path d="M428.385 525.512C422.718 525.512 417.283 527.763 413.276 531.77C409.269 535.777 407.018 541.212 407.018 546.878C407.018 552.545 409.269 557.98 413.276 561.987C417.283 565.994 422.718 568.245 428.385 568.245L428.385 525.512Z" fill="#202A42"/>
<path d="M430.249 525.512L450.687 525.512C463 525.512 472.983 535.494 472.983 547.807H452.545C440.231 547.807 430.249 537.825 430.249 525.512Z" fill="#202A42"/>
<path d="M451.614 594.489C457.28 594.489 462.715 592.238 466.722 588.231C470.729 584.224 472.98 578.79 472.98 573.123C472.98 567.456 470.729 562.021 466.722 558.014C462.715 554.007 457.28 551.756 451.614 551.756L451.614 594.489Z" fill="#26B6FF"/>
<path d="M449.749 594.489H429.311C416.998 594.489 407.016 584.507 407.016 572.194H427.453C439.767 572.194 449.749 582.176 449.749 594.489Z" fill="#202A42"/>
<path d="M584.4 560C581.077 558.066 578.198 555.263 576.138 551.691L563.937 530.539C574.85 524.233 588.802 527.971 595.1 538.889L607.23 559.919C607.253 559.933 607.277 559.946 607.3 559.96L607.277 560L607.3 560.041C607.277 560.055 607.253 560.068 607.23 560.082L595.1 581.112C588.802 592.03 574.85 595.768 563.937 589.462L576.138 568.31C578.198 564.738 581.077 561.935 584.4 560Z" fill="#202A42"/>
<path d="M615.601 559.999C618.924 558.065 621.803 555.262 623.862 551.691L636.063 530.539C625.15 524.233 611.198 527.971 604.9 538.889L592.772 559.916C592.748 559.93 592.724 559.943 592.7 559.957L592.724 559.999L592.7 560.041C592.724 560.055 592.748 560.069 592.772 560.083L604.9 581.109C611.198 592.027 625.15 595.766 636.063 589.459L623.862 568.307C621.803 564.737 618.924 561.934 615.601 559.999Z" fill="#F15845"/>
<path d="M725.139 558.078C718.832 547.165 722.571 533.213 733.489 526.915L754.641 514.715C760.947 525.628 757.209 539.58 746.291 545.877L725.139 558.078Z" fill="#202A42"/>
<path d="M794.858 558.078C801.165 547.165 797.427 533.213 786.508 526.915L765.357 514.715C759.05 525.628 762.789 539.58 773.707 545.877L794.858 558.078Z" fill="#202A42"/>
<path d="M733.489 593.084C722.571 586.786 718.832 572.834 725.139 561.921L746.291 574.122C757.209 580.419 760.947 594.371 754.641 605.284L733.489 593.084Z" fill="#202A42"/>
<path d="M794.858 561.921C801.165 572.834 797.427 586.786 786.508 593.084L765.357 605.284C759.05 594.371 762.789 580.419 773.707 574.122L794.858 561.921Z" fill="#202A42"/>
<path d="M733.489 526.915C722.571 533.213 718.832 547.165 725.139 558.078L746.291 545.877C757.209 539.58 760.947 525.628 754.641 514.715L733.489 526.915Z" fill="#F28813"/>
<path d="M916.464 566.929C916.464 551.7 903.801 539.354 888.179 539.354L888.179 569.719C888.179 584.949 900.843 597.294 916.464 597.294V566.929Z" fill="#202A42"/>
<path d="M923.535 566.929C923.535 551.7 936.199 539.354 951.82 539.354V569.719C951.82 584.949 939.157 597.294 923.535 597.294L923.535 566.929Z" fill="#202A42"/>
<path d="M931.23 534.134C931.23 540.447 926.136 545.564 919.853 545.564C913.57 545.564 908.476 540.447 908.476 534.134C908.476 527.822 913.57 522.705 919.853 522.705C926.136 522.705 931.23 527.822 931.23 534.134Z" fill="#0073CC"/>
</svg>
