<svg width="1200" height="800" viewBox="0 0 1200 800" fill="none" xmlns="http://www.w3.org/2000/svg">
<g clip-path="url(#clip0_4007_167916)">
<rect width="1200" height="800" fill="#F5F3EF"/>
<g clip-path="url(#clip1_4007_167916)">
<path d="M320.234 419.922C298.732 419.922 281.302 402.383 281.302 380.747V341.999C302.803 341.999 320.234 359.538 320.234 381.173V419.922Z" fill="#152539"/>
<path d="M357.864 379.661C340.663 379.661 326.719 393.949 326.719 411.575V441.999C343.92 441.999 357.864 427.711 357.864 410.085V379.661Z" fill="#152539"/>
<path d="M352.674 354.986C352.674 362.159 346.863 367.973 339.696 367.973C332.529 367.973 326.719 362.159 326.719 354.986C326.719 347.814 332.529 341.999 339.696 341.999C346.863 341.999 352.674 347.814 352.674 354.986Z" fill="#152539"/>
<path d="M407.97 375.479C405.116 375.479 402.53 374.866 400.21 373.639C397.916 372.386 396.103 370.666 394.77 368.479C393.463 366.266 392.81 363.772 392.81 360.999C392.81 358.226 393.463 355.746 394.77 353.559C396.103 351.346 397.916 349.626 400.21 348.399C402.53 347.146 405.13 346.519 408.01 346.519C410.436 346.519 412.623 346.946 414.57 347.799C416.543 348.652 418.196 349.879 419.53 351.479L415.37 355.319C413.476 353.132 411.13 352.039 408.33 352.039C406.596 352.039 405.05 352.426 403.69 353.199C402.33 353.946 401.263 354.999 400.49 356.359C399.743 357.719 399.37 359.266 399.37 360.999C399.37 362.732 399.743 364.279 400.49 365.639C401.263 366.999 402.33 368.066 403.69 368.839C405.05 369.586 406.596 369.959 408.33 369.959C411.13 369.959 413.476 368.852 415.37 366.639L419.53 370.479C418.196 372.106 416.543 373.346 414.57 374.199C412.596 375.052 410.396 375.479 407.97 375.479ZM431.989 353.159C435.323 353.159 437.883 353.959 439.669 355.559C441.456 357.132 442.349 359.519 442.349 362.719V374.999H436.509V372.319C435.336 374.319 433.149 375.319 429.949 375.319C428.296 375.319 426.856 375.039 425.629 374.479C424.429 373.919 423.509 373.146 422.869 372.159C422.229 371.172 421.909 370.052 421.909 368.799C421.909 366.799 422.656 365.226 424.149 364.079C425.669 362.932 428.003 362.359 431.149 362.359H436.109C436.109 360.999 435.696 359.959 434.869 359.239C434.043 358.492 432.803 358.119 431.149 358.119C430.003 358.119 428.869 358.306 427.749 358.679C426.656 359.026 425.723 359.506 424.949 360.119L422.709 355.759C423.883 354.932 425.283 354.292 426.909 353.839C428.563 353.386 430.256 353.159 431.989 353.159ZM431.509 371.119C432.576 371.119 433.523 370.879 434.349 370.399C435.176 369.892 435.763 369.159 436.109 368.199V365.999H431.829C429.269 365.999 427.989 366.839 427.989 368.519C427.989 369.319 428.296 369.959 428.909 370.439C429.549 370.892 430.416 371.119 431.509 371.119ZM455.237 375.319C453.45 375.319 451.703 375.106 449.997 374.679C448.29 374.226 446.93 373.666 445.917 372.999L447.997 368.519C448.957 369.132 450.117 369.639 451.477 370.039C452.837 370.412 454.17 370.599 455.477 370.599C458.117 370.599 459.437 369.946 459.437 368.639C459.437 368.026 459.077 367.586 458.357 367.319C457.637 367.052 456.53 366.826 455.037 366.639C453.277 366.372 451.823 366.066 450.677 365.719C449.53 365.372 448.53 364.759 447.677 363.879C446.85 362.999 446.437 361.746 446.437 360.119C446.437 358.759 446.823 357.559 447.597 356.519C448.397 355.452 449.543 354.626 451.037 354.039C452.557 353.452 454.343 353.159 456.397 353.159C457.917 353.159 459.423 353.332 460.917 353.679C462.437 353.999 463.69 354.452 464.677 355.039L462.597 359.479C460.703 358.412 458.637 357.879 456.397 357.879C455.063 357.879 454.063 358.066 453.397 358.439C452.73 358.812 452.397 359.292 452.397 359.879C452.397 360.546 452.757 361.012 453.477 361.279C454.197 361.546 455.343 361.799 456.917 362.039C458.677 362.332 460.117 362.652 461.237 362.999C462.357 363.319 463.33 363.919 464.157 364.799C464.983 365.679 465.397 366.906 465.397 368.479C465.397 369.812 464.997 370.999 464.197 372.039C463.397 373.079 462.223 373.892 460.677 374.479C459.157 375.039 457.343 375.319 455.237 375.319ZM490.327 364.319C490.327 364.399 490.287 364.959 490.207 365.999H473.927C474.22 367.332 474.913 368.386 476.007 369.159C477.1 369.932 478.46 370.319 480.087 370.319C481.207 370.319 482.193 370.159 483.047 369.839C483.927 369.492 484.74 368.959 485.487 368.239L488.807 371.839C486.78 374.159 483.82 375.319 479.927 375.319C477.5 375.319 475.353 374.852 473.487 373.919C471.62 372.959 470.18 371.639 469.167 369.959C468.153 368.279 467.647 366.372 467.647 364.239C467.647 362.132 468.14 360.239 469.127 358.559C470.14 356.852 471.513 355.532 473.247 354.599C475.007 353.639 476.967 353.159 479.127 353.159C481.233 353.159 483.14 353.612 484.847 354.519C486.553 355.426 487.887 356.732 488.847 358.439C489.833 360.119 490.327 362.079 490.327 364.319ZM479.167 357.879C477.753 357.879 476.567 358.279 475.607 359.079C474.647 359.879 474.06 360.972 473.847 362.359H484.447C484.233 360.999 483.647 359.919 482.687 359.119C481.727 358.292 480.553 357.879 479.167 357.879ZM516.401 345.319V374.999H510.441V372.519C508.894 374.386 506.654 375.319 503.721 375.319C501.694 375.319 499.854 374.866 498.201 373.959C496.574 373.052 495.294 371.759 494.361 370.079C493.428 368.399 492.961 366.452 492.961 364.239C492.961 362.026 493.428 360.079 494.361 358.399C495.294 356.719 496.574 355.426 498.201 354.519C499.854 353.612 501.694 353.159 503.721 353.159C506.468 353.159 508.614 354.026 510.161 355.759V345.319H516.401ZM504.801 370.199C506.374 370.199 507.681 369.666 508.721 368.599C509.761 367.506 510.281 366.052 510.281 364.239C510.281 362.426 509.761 360.986 508.721 359.919C507.681 358.826 506.374 358.279 504.801 358.279C503.201 358.279 501.881 358.826 500.841 359.919C499.801 360.986 499.281 362.426 499.281 364.239C499.281 366.052 499.801 367.506 500.841 368.599C501.881 369.666 503.201 370.199 504.801 370.199ZM532.416 375.319C530.15 375.319 528.11 374.852 526.296 373.919C524.51 372.959 523.11 371.639 522.096 369.959C521.083 368.279 520.576 366.372 520.576 364.239C520.576 362.106 521.083 360.199 522.096 358.519C523.11 356.839 524.51 355.532 526.296 354.599C528.11 353.639 530.15 353.159 532.416 353.159C534.683 353.159 536.71 353.639 538.496 354.599C540.283 355.532 541.683 356.839 542.696 358.519C543.71 360.199 544.216 362.106 544.216 364.239C544.216 366.372 543.71 368.279 542.696 369.959C541.683 371.639 540.283 372.959 538.496 373.919C536.71 374.852 534.683 375.319 532.416 375.319ZM532.416 370.199C534.016 370.199 535.323 369.666 536.336 368.599C537.376 367.506 537.896 366.052 537.896 364.239C537.896 362.426 537.376 360.986 536.336 359.919C535.323 358.826 534.016 358.279 532.416 358.279C530.816 358.279 529.496 358.826 528.456 359.919C527.416 360.986 526.896 362.426 526.896 364.239C526.896 366.052 527.416 367.506 528.456 368.599C529.496 369.666 530.816 370.199 532.416 370.199ZM558.787 375.319C556.494 375.319 554.427 374.852 552.587 373.919C550.774 372.959 549.347 371.639 548.307 369.959C547.294 368.279 546.787 366.372 546.787 364.239C546.787 362.106 547.294 360.199 548.307 358.519C549.347 356.839 550.774 355.532 552.587 354.599C554.427 353.639 556.494 353.159 558.787 353.159C561.054 353.159 563.027 353.639 564.707 354.599C566.414 355.532 567.654 356.879 568.427 358.639L563.587 361.239C562.467 359.266 560.854 358.279 558.747 358.279C557.121 358.279 555.774 358.812 554.707 359.879C553.641 360.946 553.107 362.399 553.107 364.239C553.107 366.079 553.641 367.532 554.707 368.599C555.774 369.666 557.121 370.199 558.747 370.199C560.881 370.199 562.494 369.212 563.587 367.239L568.427 369.879C567.654 371.586 566.414 372.919 564.707 373.879C563.027 374.839 561.054 375.319 558.787 375.319Z" fill="#152539"/>
<path d="M409.183 399.066V413.866H435.103V424.266H409.183V444.666H396.223V388.666H438.543V399.066H409.183ZM465.823 445.306C461.29 445.306 457.21 444.373 453.583 442.506C450.01 440.586 447.21 437.946 445.183 434.586C443.157 431.226 442.143 427.413 442.143 423.146C442.143 418.879 443.157 415.066 445.183 411.706C447.21 408.346 450.01 405.733 453.583 403.866C457.21 401.946 461.29 400.986 465.823 400.986C470.357 400.986 474.41 401.946 477.983 403.866C481.557 405.733 484.357 408.346 486.383 411.706C488.41 415.066 489.423 418.879 489.423 423.146C489.423 427.413 488.41 431.226 486.383 434.586C484.357 437.946 481.557 440.586 477.983 442.506C474.41 444.373 470.357 445.306 465.823 445.306ZM465.823 435.066C469.023 435.066 471.637 433.999 473.663 431.866C475.743 429.679 476.783 426.773 476.783 423.146C476.783 419.519 475.743 416.639 473.663 414.506C471.637 412.319 469.023 411.226 465.823 411.226C462.623 411.226 459.983 412.319 457.903 414.506C455.823 416.639 454.783 419.519 454.783 423.146C454.783 426.773 455.823 429.679 457.903 431.866C459.983 433.999 462.623 435.066 465.823 435.066ZM509.685 407.306C511.178 405.226 513.178 403.653 515.685 402.586C518.245 401.519 521.178 400.986 524.485 400.986V412.506C523.098 412.399 522.165 412.346 521.685 412.346C518.112 412.346 515.312 413.359 513.285 415.386C511.258 417.359 510.245 420.346 510.245 424.346V444.666H497.765V401.626H509.685V407.306ZM575.578 401.626V444.666H563.738V439.546C562.085 441.413 560.112 442.853 557.818 443.866C555.525 444.826 553.045 445.306 550.378 445.306C544.725 445.306 540.245 443.679 536.938 440.426C533.632 437.173 531.978 432.346 531.978 425.946V401.626H544.458V424.106C544.458 431.039 547.365 434.506 553.178 434.506C556.165 434.506 558.565 433.546 560.378 431.626C562.192 429.653 563.098 426.746 563.098 422.906V401.626H575.578ZM642.26 400.986C647.647 400.986 651.913 402.586 655.06 405.786C658.26 408.933 659.86 413.679 659.86 420.026V444.666H647.38V421.946C647.38 418.533 646.66 415.999 645.22 414.346C643.833 412.639 641.833 411.786 639.22 411.786C636.287 411.786 633.967 412.746 632.26 414.666C630.553 416.533 629.7 419.333 629.7 423.066V444.666H617.22V421.946C617.22 415.173 614.5 411.786 609.06 411.786C606.18 411.786 603.887 412.746 602.18 414.666C600.473 416.533 599.62 419.333 599.62 423.066V444.666H587.14V401.626H599.06V406.586C600.66 404.773 602.607 403.386 604.9 402.426C607.247 401.466 609.807 400.986 612.58 400.986C615.62 400.986 618.367 401.599 620.82 402.826C623.273 403.999 625.247 405.733 626.74 408.026C628.5 405.786 630.713 404.053 633.38 402.826C636.1 401.599 639.06 400.986 642.26 400.986Z" fill="#152539"/>
<g opacity="0.4">
<path d="M549.841 483.389H554.568C554.476 485.446 554.06 487.197 553.318 488.643C552.575 490.075 551.508 491.169 550.115 491.924C548.734 492.679 547.048 493.057 545.056 493.057C543.545 493.057 542.191 492.783 540.993 492.236C539.809 491.689 538.799 490.902 537.966 489.873C537.133 488.831 536.495 487.562 536.052 486.064C535.622 484.567 535.407 482.868 535.407 480.967V475.928C535.407 474.027 535.629 472.327 536.072 470.83C536.527 469.333 537.178 468.063 538.025 467.021C538.871 465.98 539.9 465.192 541.111 464.658C542.335 464.111 543.715 463.838 545.251 463.838C547.217 463.838 548.871 464.215 550.212 464.971C551.553 465.726 552.588 466.833 553.318 468.291C554.047 469.749 554.47 471.527 554.587 473.623H549.861C549.795 472.204 549.6 471.071 549.275 470.225C548.962 469.365 548.48 468.747 547.829 468.369C547.191 467.992 546.332 467.803 545.251 467.803C544.353 467.803 543.578 467.972 542.927 468.311C542.289 468.649 541.762 469.157 541.345 469.834C540.941 470.498 540.635 471.338 540.427 472.354C540.232 473.356 540.134 474.535 540.134 475.889V480.967C540.134 482.269 540.219 483.421 540.388 484.424C540.557 485.426 540.831 486.279 541.208 486.982C541.586 487.673 542.087 488.2 542.712 488.564C543.337 488.916 544.118 489.092 545.056 489.092C546.176 489.092 547.068 488.916 547.732 488.564C548.409 488.213 548.91 487.62 549.236 486.787C549.561 485.954 549.763 484.821 549.841 483.389ZM578.044 476.123V480.967C578.044 482.972 577.81 484.73 577.341 486.24C576.885 487.751 576.221 489.014 575.349 490.029C574.49 491.032 573.448 491.787 572.224 492.295C571.013 492.803 569.659 493.057 568.161 493.057C566.677 493.057 565.323 492.803 564.099 492.295C562.888 491.787 561.84 491.032 560.954 490.029C560.082 489.014 559.405 487.751 558.923 486.24C558.454 484.73 558.22 482.972 558.22 480.967V476.123C558.22 474.092 558.454 472.314 558.923 470.791C559.392 469.255 560.062 467.972 560.935 466.943C561.82 465.915 562.868 465.14 564.079 464.619C565.303 464.098 566.651 463.838 568.122 463.838C569.62 463.838 570.974 464.098 572.185 464.619C573.409 465.14 574.457 465.915 575.329 466.943C576.202 467.972 576.872 469.255 577.341 470.791C577.81 472.314 578.044 474.092 578.044 476.123ZM573.337 480.967V476.084C573.337 474.639 573.22 473.402 572.986 472.373C572.764 471.331 572.432 470.485 571.99 469.834C571.547 469.17 571 468.682 570.349 468.369C569.711 468.044 568.969 467.881 568.122 467.881C567.302 467.881 566.566 468.044 565.915 468.369C565.277 468.682 564.73 469.17 564.275 469.834C563.832 470.485 563.493 471.331 563.259 472.373C563.038 473.402 562.927 474.639 562.927 476.084V480.967C562.927 482.386 563.044 483.61 563.279 484.639C563.513 485.654 563.851 486.488 564.294 487.139C564.75 487.777 565.303 488.252 565.954 488.564C566.605 488.877 567.341 489.033 568.161 489.033C568.995 489.033 569.737 488.877 570.388 488.564C571.039 488.252 571.579 487.777 572.009 487.139C572.452 486.488 572.784 485.654 573.005 484.639C573.226 483.61 573.337 482.386 573.337 480.967ZM595.896 464.229H600.642V483.975C600.642 486.149 600.232 487.9 599.411 489.229C598.604 490.557 597.51 491.527 596.13 492.139C594.763 492.751 593.24 493.057 591.56 493.057C589.815 493.057 588.259 492.751 586.892 492.139C585.525 491.527 584.45 490.557 583.669 489.229C582.888 487.9 582.497 486.149 582.497 483.975V464.229H587.224V483.975C587.224 485.329 587.393 486.377 587.732 487.119C588.083 487.861 588.578 488.376 589.216 488.662C589.867 488.949 590.648 489.092 591.56 489.092C592.471 489.092 593.246 488.949 593.884 488.662C594.535 488.376 595.03 487.861 595.368 487.119C595.72 486.377 595.896 485.329 595.896 483.975V464.229ZM605.564 464.229H614.157C616.032 464.229 617.621 464.554 618.923 465.205C620.225 465.856 621.215 466.82 621.892 468.096C622.582 469.359 622.927 470.928 622.927 472.803C622.927 474.222 622.712 475.472 622.282 476.553C621.866 477.633 621.26 478.545 620.466 479.287C619.672 480.016 618.715 480.583 617.595 480.986L616.208 481.748H608.943L608.923 477.764H614.04C614.965 477.764 615.733 477.562 616.345 477.158C616.957 476.755 617.413 476.195 617.712 475.479C618.025 474.762 618.181 473.949 618.181 473.037C618.181 472.061 618.044 471.214 617.771 470.498C617.497 469.769 617.068 469.209 616.482 468.818C615.896 468.415 615.121 468.213 614.157 468.213H610.31V492.666H605.564V464.229ZM618.806 492.666L613.396 479.893L618.337 479.873L623.884 492.412V492.666H618.806ZM636.345 464.229V492.666H631.618V464.229H636.345ZM643.591 464.229V468.213H624.45V464.229H643.591ZM659.255 485.322C659.255 484.736 659.19 484.215 659.06 483.76C658.943 483.291 658.715 482.868 658.376 482.49C658.038 482.113 657.556 481.742 656.931 481.377C656.319 481.012 655.525 480.641 654.548 480.264C653.428 479.834 652.38 479.365 651.404 478.857C650.44 478.337 649.587 477.751 648.845 477.1C648.116 476.436 647.543 475.661 647.126 474.775C646.71 473.89 646.501 472.861 646.501 471.689C646.501 470.531 646.703 469.476 647.107 468.525C647.523 467.562 648.109 466.735 648.865 466.045C649.633 465.342 650.544 464.801 651.599 464.424C652.654 464.033 653.819 463.838 655.095 463.838C656.931 463.838 658.5 464.229 659.802 465.01C661.117 465.791 662.12 466.839 662.81 468.154C663.513 469.469 663.865 470.928 663.865 472.529H659.138C659.138 471.605 658.995 470.785 658.708 470.068C658.422 469.352 657.979 468.792 657.38 468.389C656.781 467.985 656.006 467.783 655.056 467.783C654.184 467.783 653.461 467.952 652.888 468.291C652.328 468.63 651.911 469.092 651.638 469.678C651.378 470.264 651.247 470.934 651.247 471.689C651.247 472.21 651.358 472.686 651.579 473.115C651.801 473.532 652.12 473.916 652.536 474.268C652.953 474.619 653.461 474.951 654.06 475.264C654.659 475.576 655.349 475.876 656.13 476.162C657.458 476.644 658.617 477.178 659.607 477.764C660.596 478.35 661.41 479.007 662.048 479.736C662.699 480.452 663.181 481.266 663.493 482.178C663.819 483.089 663.982 484.124 663.982 485.283C663.982 486.455 663.78 487.523 663.376 488.486C662.986 489.437 662.413 490.251 661.657 490.928C660.902 491.605 659.991 492.132 658.923 492.51C657.855 492.874 656.657 493.057 655.329 493.057C654.105 493.057 652.927 492.874 651.794 492.51C650.674 492.145 649.672 491.592 648.786 490.85C647.901 490.094 647.198 489.15 646.677 488.018C646.169 486.885 645.915 485.557 645.915 484.033H650.661C650.661 484.945 650.772 485.726 650.993 486.377C651.215 487.015 651.534 487.542 651.95 487.959C652.38 488.363 652.881 488.662 653.454 488.857C654.04 489.04 654.691 489.131 655.407 489.131C656.293 489.131 657.016 488.975 657.575 488.662C658.148 488.337 658.572 487.887 658.845 487.314C659.118 486.742 659.255 486.077 659.255 485.322Z" fill="#152539"/>
</g>
<g opacity="0.4">
<path d="M693.045 406.869L681.709 444.666H676.354L689.712 403.195H693.073L693.045 406.869ZM702.216 444.666L690.88 406.869L690.823 403.195H694.213L707.571 444.666H702.216ZM702.216 429.314V433.814H682.221V429.314H702.216ZM713.296 403.195H724.889C727.585 403.195 729.845 403.669 731.668 404.619C733.51 405.568 734.896 406.973 735.826 408.834C736.776 410.676 737.251 412.945 737.251 415.642C737.251 417.541 736.937 419.278 736.311 420.854C735.684 422.411 734.772 423.74 733.576 424.842C732.38 425.924 730.927 426.731 729.218 427.263L727.794 427.861H717.455L717.398 423.389H724.832C726.427 423.389 727.756 423.047 728.82 422.364C729.883 421.661 730.68 420.721 731.212 419.544C731.744 418.367 732.01 417.066 732.01 415.642C732.01 414.047 731.772 412.651 731.298 411.455C730.823 410.258 730.063 409.338 729.019 408.692C727.994 408.027 726.617 407.695 724.889 407.695H718.537V444.666H713.296V403.195ZM733.206 444.666L724.946 425.867L730.386 425.839L738.817 444.324V444.666H733.206ZM765.021 431.478H770.262C770.129 434.327 769.55 436.786 768.525 438.855C767.519 440.906 766.047 442.482 764.11 443.584C762.192 444.685 759.79 445.236 756.904 445.236C754.834 445.236 752.964 444.827 751.293 444.011C749.622 443.194 748.188 442.027 746.992 440.507C745.814 438.969 744.912 437.127 744.286 434.982C743.659 432.836 743.346 430.424 743.346 427.747V420.085C743.346 417.427 743.659 415.025 744.286 412.879C744.931 410.733 745.852 408.901 747.049 407.382C748.264 405.844 749.736 404.666 751.464 403.85C753.211 403.033 755.185 402.625 757.388 402.625C760.084 402.625 762.363 403.166 764.224 404.249C766.104 405.312 767.547 406.878 768.553 408.948C769.579 410.999 770.148 413.515 770.262 416.496H765.021C764.889 414.313 764.547 412.537 763.996 411.17C763.445 409.784 762.629 408.768 761.547 408.122C760.483 407.458 759.097 407.125 757.388 407.125C755.869 407.125 754.549 407.429 753.429 408.037C752.328 408.644 751.416 409.518 750.695 410.657C749.992 411.778 749.46 413.135 749.099 414.73C748.758 416.306 748.587 418.072 748.587 420.028V427.747C748.587 429.57 748.729 431.269 749.014 432.846C749.318 434.422 749.793 435.808 750.438 437.004C751.103 438.181 751.967 439.102 753.03 439.767C754.093 440.432 755.385 440.764 756.904 440.764C758.822 440.764 760.341 440.451 761.461 439.824C762.581 439.197 763.407 438.2 763.939 436.833C764.49 435.466 764.851 433.681 765.021 431.478ZM799.856 421.025V425.497H781.883V421.025H799.856ZM782.596 403.195V444.666H777.355V403.195H782.596ZM804.499 403.195V444.666H799.258V403.195H804.499ZM818.997 403.195V444.666H813.756V403.195H818.997ZM839.505 438.371L849.474 403.195H855.17L842.296 444.666H838.28L839.505 438.371ZM830.561 403.195L840.445 438.371L841.755 444.666H837.739L824.864 403.195H830.561ZM883.112 440.194V444.666H865.111V440.194H883.112ZM866.051 403.195V444.666H860.81V403.195H866.051ZM880.691 421.025V425.497H865.111V421.025H880.691ZM882.827 403.195V407.695H865.111V403.195H882.827ZM907.95 434.184C907.95 433.216 907.836 432.361 907.608 431.621C907.38 430.861 906.981 430.178 906.411 429.57C905.842 428.962 905.044 428.383 904.019 427.833C902.993 427.282 901.693 426.722 900.117 426.152C898.408 425.544 896.86 424.87 895.474 424.13C894.088 423.37 892.901 422.506 891.914 421.538C890.945 420.569 890.195 419.458 889.663 418.205C889.132 416.952 888.866 415.518 888.866 413.904C888.866 412.29 889.141 410.8 889.692 409.432C890.262 408.065 891.059 406.878 892.084 405.872C893.129 404.847 894.382 404.049 895.844 403.479C897.306 402.91 898.939 402.625 900.743 402.625C903.44 402.625 905.709 403.223 907.551 404.419C909.412 405.597 910.817 407.144 911.766 409.062C912.716 410.961 913.19 412.993 913.19 415.158H907.95C907.95 413.6 907.693 412.224 907.181 411.028C906.687 409.812 905.908 408.863 904.845 408.179C903.801 407.477 902.433 407.125 900.743 407.125C899.224 407.125 897.971 407.42 896.984 408.008C896.015 408.597 895.294 409.394 894.819 410.401C894.363 411.407 894.135 412.556 894.135 413.847C894.135 414.721 894.287 415.518 894.591 416.24C894.895 416.942 895.36 417.598 895.987 418.205C896.632 418.813 897.43 419.373 898.379 419.886C899.348 420.398 900.487 420.892 901.797 421.367C903.829 422.031 905.566 422.772 907.01 423.589C908.453 424.405 909.63 425.326 910.542 426.351C911.453 427.358 912.118 428.507 912.535 429.798C912.972 431.07 913.19 432.513 913.19 434.127C913.19 435.817 912.906 437.346 912.336 438.713C911.785 440.08 910.978 441.248 909.915 442.216C908.852 443.185 907.57 443.935 906.07 444.467C904.57 444.979 902.88 445.236 901 445.236C899.367 445.236 897.762 444.97 896.186 444.438C894.629 443.906 893.214 443.109 891.942 442.046C890.67 440.982 889.654 439.672 888.894 438.115C888.135 436.539 887.755 434.716 887.755 432.646H892.996C892.996 434.07 893.205 435.295 893.623 436.32C894.04 437.327 894.619 438.162 895.36 438.827C896.101 439.492 896.946 439.985 897.895 440.308C898.863 440.612 899.898 440.764 901 440.764C902.519 440.764 903.791 440.498 904.816 439.966C905.861 439.435 906.639 438.675 907.152 437.688C907.684 436.7 907.95 435.532 907.95 434.184Z" fill="#152539"/>
</g>
<path d="M543.296 574.511C543.48 574.649 543.741 574.612 543.879 574.427C544.017 574.243 543.979 573.982 543.795 573.844L543.545 574.178L543.296 574.511ZM436.986 494.099C436.758 494.131 436.6 494.343 436.633 494.571L437.168 498.282C437.201 498.51 437.412 498.668 437.64 498.635C437.867 498.602 438.025 498.391 437.993 498.163L437.517 494.864L440.816 494.388C441.044 494.356 441.202 494.144 441.169 493.917C441.136 493.689 440.925 493.531 440.697 493.564L436.986 494.099ZM543.545 574.178L543.795 573.844L437.295 494.177L437.045 494.511L436.796 494.845L543.296 574.511L543.545 574.178Z" fill="#152539"/>
<path d="M553.292 583.466C553.656 583.466 553.972 583.526 554.24 583.646C554.512 583.766 554.72 583.938 554.864 584.162C555.008 584.386 555.08 584.652 555.08 584.96C555.08 585.264 555.008 585.53 554.864 585.758C554.72 585.982 554.512 586.154 554.24 586.274C553.972 586.394 553.656 586.454 553.292 586.454H552.344V587.666H551.564V583.466H553.292ZM553.256 585.794C553.596 585.794 553.854 585.722 554.03 585.578C554.206 585.434 554.294 585.228 554.294 584.96C554.294 584.692 554.206 584.486 554.03 584.342C553.854 584.198 553.596 584.126 553.256 584.126H552.344V585.794H553.256ZM559.507 587.666L558.649 586.436C558.613 586.44 558.559 586.442 558.487 586.442H557.539V587.666H556.759V583.466H558.487C558.851 583.466 559.167 583.526 559.435 583.646C559.707 583.766 559.915 583.938 560.059 584.162C560.203 584.386 560.275 584.652 560.275 584.96C560.275 585.276 560.197 585.548 560.041 585.776C559.889 586.004 559.669 586.174 559.381 586.286L560.347 587.666H559.507ZM559.489 584.96C559.489 584.692 559.401 584.486 559.225 584.342C559.049 584.198 558.791 584.126 558.451 584.126H557.539V585.8H558.451C558.791 585.8 559.049 585.728 559.225 585.584C559.401 585.436 559.489 585.228 559.489 584.96ZM564.01 587.726C563.582 587.726 563.196 587.634 562.852 587.45C562.508 587.262 562.238 587.004 562.042 586.676C561.846 586.344 561.748 585.974 561.748 585.566C561.748 585.158 561.846 584.79 562.042 584.462C562.238 584.13 562.508 583.872 562.852 583.688C563.196 583.5 563.582 583.406 564.01 583.406C564.438 583.406 564.824 583.5 565.168 583.688C565.512 583.872 565.782 584.128 565.978 584.456C566.174 584.784 566.272 585.154 566.272 585.566C566.272 585.978 566.174 586.348 565.978 586.676C565.782 587.004 565.512 587.262 565.168 587.45C564.824 587.634 564.438 587.726 564.01 587.726ZM564.01 587.042C564.29 587.042 564.542 586.98 564.766 586.856C564.99 586.728 565.166 586.552 565.294 586.328C565.422 586.1 565.486 585.846 565.486 585.566C565.486 585.286 565.422 585.034 565.294 584.81C565.166 584.582 564.99 584.406 564.766 584.282C564.542 584.154 564.29 584.09 564.01 584.09C563.73 584.09 563.478 584.154 563.254 584.282C563.03 584.406 562.854 584.582 562.726 584.81C562.598 585.034 562.534 585.286 562.534 585.566C562.534 585.846 562.598 586.1 562.726 586.328C562.854 586.552 563.03 586.728 563.254 586.856C563.478 586.98 563.73 587.042 564.01 587.042ZM567.999 583.466H569.835C570.283 583.466 570.681 583.554 571.029 583.73C571.377 583.902 571.647 584.148 571.839 584.468C572.031 584.784 572.127 585.15 572.127 585.566C572.127 585.982 572.031 586.35 571.839 586.67C571.647 586.986 571.377 587.232 571.029 587.408C570.681 587.58 570.283 587.666 569.835 587.666H567.999V583.466ZM569.799 587.006C570.107 587.006 570.377 586.948 570.609 586.832C570.845 586.712 571.025 586.544 571.149 586.328C571.277 586.108 571.341 585.854 571.341 585.566C571.341 585.278 571.277 585.026 571.149 584.81C571.025 584.59 570.845 584.422 570.609 584.306C570.377 584.186 570.107 584.126 569.799 584.126H568.779V587.006H569.799ZM575.662 587.726C575.082 587.726 574.63 587.564 574.306 587.24C573.982 586.912 573.82 586.444 573.82 585.836V583.466H574.6V585.806C574.6 586.63 574.956 587.042 575.668 587.042C576.376 587.042 576.73 586.63 576.73 585.806V583.466H577.498V585.836C577.498 586.444 577.336 586.912 577.012 587.24C576.692 587.564 576.242 587.726 575.662 587.726ZM581.434 587.726C581.01 587.726 580.626 587.634 580.282 587.45C579.942 587.262 579.674 587.004 579.478 586.676C579.286 586.348 579.19 585.978 579.19 585.566C579.19 585.154 579.288 584.784 579.484 584.456C579.68 584.128 579.948 583.872 580.288 583.688C580.632 583.5 581.016 583.406 581.44 583.406C581.784 583.406 582.098 583.466 582.382 583.586C582.666 583.706 582.906 583.88 583.102 584.108L582.598 584.582C582.294 584.254 581.92 584.09 581.476 584.09C581.188 584.09 580.93 584.154 580.702 584.282C580.474 584.406 580.296 584.58 580.168 584.804C580.04 585.028 579.976 585.282 579.976 585.566C579.976 585.85 580.04 586.104 580.168 586.328C580.296 586.552 580.474 586.728 580.702 586.856C580.93 586.98 581.188 587.042 581.476 587.042C581.92 587.042 582.294 586.876 582.598 586.544L583.102 587.024C582.906 587.252 582.664 587.426 582.376 587.546C582.092 587.666 581.778 587.726 581.434 587.726ZM585.555 584.126H584.163V583.466H587.727V584.126H586.335V587.666H585.555V584.126Z" fill="#152539"/>
<path d="M375.447 228.529C375.572 228.335 375.516 228.078 375.322 227.953C375.128 227.829 374.871 227.885 374.746 228.078L375.097 228.304L375.447 228.529ZM321.356 311.392C321.405 311.617 321.627 311.76 321.852 311.711L325.516 310.913C325.741 310.865 325.884 310.643 325.835 310.418C325.786 310.193 325.564 310.05 325.339 310.099L322.082 310.808L321.373 307.551C321.324 307.326 321.102 307.183 320.877 307.232C320.653 307.281 320.51 307.503 320.559 307.728L321.356 311.392ZM375.097 228.304L374.746 228.078L321.413 311.078L321.763 311.304L322.114 311.529L375.447 228.529L375.097 228.304Z" fill="#152539"/>
<path d="M388.064 215.134H388.844V218.674H391.04V219.334H388.064V215.134ZM394.442 219.394C394.014 219.394 393.628 219.302 393.284 219.118C392.94 218.93 392.67 218.672 392.474 218.344C392.278 218.012 392.18 217.642 392.18 217.234C392.18 216.826 392.278 216.458 392.474 216.13C392.67 215.798 392.94 215.54 393.284 215.356C393.628 215.168 394.014 215.074 394.442 215.074C394.87 215.074 395.256 215.168 395.6 215.356C395.944 215.54 396.214 215.796 396.41 216.124C396.606 216.452 396.704 216.822 396.704 217.234C396.704 217.646 396.606 218.016 396.41 218.344C396.214 218.672 395.944 218.93 395.6 219.118C395.256 219.302 394.87 219.394 394.442 219.394ZM394.442 218.71C394.722 218.71 394.974 218.648 395.198 218.524C395.422 218.396 395.598 218.22 395.726 217.996C395.854 217.768 395.918 217.514 395.918 217.234C395.918 216.954 395.854 216.702 395.726 216.478C395.598 216.25 395.422 216.074 395.198 215.95C394.974 215.822 394.722 215.758 394.442 215.758C394.162 215.758 393.91 215.822 393.686 215.95C393.462 216.074 393.286 216.25 393.158 216.478C393.03 216.702 392.966 216.954 392.966 217.234C392.966 217.514 393.03 217.768 393.158 217.996C393.286 218.22 393.462 218.396 393.686 218.524C393.91 218.648 394.162 218.71 394.442 218.71ZM401.299 217.186H402.037V218.86C401.821 219.032 401.569 219.164 401.281 219.256C400.993 219.348 400.697 219.394 400.393 219.394C399.965 219.394 399.579 219.302 399.235 219.118C398.891 218.93 398.621 218.672 398.425 218.344C398.229 218.016 398.131 217.646 398.131 217.234C398.131 216.822 398.229 216.452 398.425 216.124C398.621 215.796 398.891 215.54 399.235 215.356C399.583 215.168 399.973 215.074 400.405 215.074C400.757 215.074 401.077 215.132 401.365 215.248C401.653 215.364 401.895 215.534 402.091 215.758L401.599 216.238C401.279 215.918 400.893 215.758 400.441 215.758C400.145 215.758 399.881 215.82 399.649 215.944C399.421 216.068 399.241 216.242 399.109 216.466C398.981 216.69 398.917 216.946 398.917 217.234C398.917 217.514 398.981 217.766 399.109 217.99C399.241 218.214 399.421 218.39 399.649 218.518C399.881 218.646 400.143 218.71 400.435 218.71C400.763 218.71 401.051 218.638 401.299 218.494V217.186ZM405.927 219.394C405.499 219.394 405.113 219.302 404.769 219.118C404.425 218.93 404.155 218.672 403.959 218.344C403.763 218.012 403.665 217.642 403.665 217.234C403.665 216.826 403.763 216.458 403.959 216.13C404.155 215.798 404.425 215.54 404.769 215.356C405.113 215.168 405.499 215.074 405.927 215.074C406.355 215.074 406.741 215.168 407.085 215.356C407.429 215.54 407.699 215.796 407.895 216.124C408.091 216.452 408.189 216.822 408.189 217.234C408.189 217.646 408.091 218.016 407.895 218.344C407.699 218.672 407.429 218.93 407.085 219.118C406.741 219.302 406.355 219.394 405.927 219.394ZM405.927 218.71C406.207 218.71 406.459 218.648 406.683 218.524C406.907 218.396 407.083 218.22 407.211 217.996C407.339 217.768 407.403 217.514 407.403 217.234C407.403 216.954 407.339 216.702 407.211 216.478C407.083 216.25 406.907 216.074 406.683 215.95C406.459 215.822 406.207 215.758 405.927 215.758C405.647 215.758 405.395 215.822 405.171 215.95C404.947 216.074 404.771 216.25 404.643 216.478C404.515 216.702 404.451 216.954 404.451 217.234C404.451 217.514 404.515 217.768 404.643 217.996C404.771 218.22 404.947 218.396 405.171 218.524C405.395 218.648 405.647 218.71 405.927 218.71ZM413.774 219.334L413.768 216.55L412.388 218.854H412.04L410.66 216.586V219.334H409.916V215.134H410.558L412.226 217.918L413.864 215.134H414.506L414.512 219.334H413.774ZM419.271 218.362H417.171L416.757 219.334H415.953L417.843 215.134H418.611L420.507 219.334H419.691L419.271 218.362ZM419.013 217.75L418.221 215.914L417.435 217.75H419.013ZM424.689 219.334L423.831 218.104C423.795 218.108 423.741 218.11 423.669 218.11H422.721V219.334H421.941V215.134H423.669C424.033 215.134 424.349 215.194 424.617 215.314C424.889 215.434 425.097 215.606 425.241 215.83C425.385 216.054 425.457 216.32 425.457 216.628C425.457 216.944 425.379 217.216 425.223 217.444C425.071 217.672 424.851 217.842 424.563 217.954L425.529 219.334H424.689ZM424.671 216.628C424.671 216.36 424.583 216.154 424.407 216.01C424.231 215.866 423.973 215.794 423.633 215.794H422.721V217.468H423.633C423.973 217.468 424.231 217.396 424.407 217.252C424.583 217.104 424.671 216.896 424.671 216.628ZM428.675 217.576L428.009 218.26V219.334H427.229V215.134H428.009V217.288L430.085 215.134H430.961L429.197 217.012L431.069 219.334H430.157L428.675 217.576Z" fill="#152539"/>
<path d="M554.981 228.552C555.101 228.356 555.04 228.1 554.844 227.979C554.648 227.859 554.391 227.92 554.271 228.116L554.626 228.334L554.981 228.552ZM504.22 309.764C504.274 309.988 504.499 310.126 504.722 310.073L508.37 309.202C508.594 309.149 508.732 308.924 508.679 308.7C508.625 308.477 508.401 308.338 508.177 308.392L504.934 309.165L504.161 305.923C504.107 305.699 503.883 305.561 503.659 305.614C503.435 305.668 503.297 305.893 503.35 306.116L504.22 309.764ZM554.626 228.334L554.271 228.116L504.271 309.449L504.626 309.667L504.981 309.886L554.981 228.552L554.626 228.334Z" fill="#152539"/>
<path d="M575.035 215.134L573.643 219.334H572.815L571.777 216.226L570.721 219.334H569.887L568.495 215.134H569.305L570.349 218.326L571.435 215.134H572.155L573.217 218.344L574.291 215.134H575.035ZM578.486 219.394C578.058 219.394 577.672 219.302 577.328 219.118C576.984 218.93 576.714 218.672 576.518 218.344C576.322 218.012 576.224 217.642 576.224 217.234C576.224 216.826 576.322 216.458 576.518 216.13C576.714 215.798 576.984 215.54 577.328 215.356C577.672 215.168 578.058 215.074 578.486 215.074C578.914 215.074 579.3 215.168 579.644 215.356C579.988 215.54 580.258 215.796 580.454 216.124C580.65 216.452 580.748 216.822 580.748 217.234C580.748 217.646 580.65 218.016 580.454 218.344C580.258 218.672 579.988 218.93 579.644 219.118C579.3 219.302 578.914 219.394 578.486 219.394ZM578.486 218.71C578.766 218.71 579.018 218.648 579.242 218.524C579.466 218.396 579.642 218.22 579.77 217.996C579.898 217.768 579.962 217.514 579.962 217.234C579.962 216.954 579.898 216.702 579.77 216.478C579.642 216.25 579.466 216.074 579.242 215.95C579.018 215.822 578.766 215.758 578.486 215.758C578.206 215.758 577.954 215.822 577.73 215.95C577.506 216.074 577.33 216.25 577.202 216.478C577.074 216.702 577.01 216.954 577.01 217.234C577.01 217.514 577.074 217.768 577.202 217.996C577.33 218.22 577.506 218.396 577.73 218.524C577.954 218.648 578.206 218.71 578.486 218.71ZM585.223 219.334L584.365 218.104C584.329 218.108 584.275 218.11 584.203 218.11H583.255V219.334H582.475V215.134H584.203C584.567 215.134 584.883 215.194 585.151 215.314C585.423 215.434 585.631 215.606 585.775 215.83C585.919 216.054 585.991 216.32 585.991 216.628C585.991 216.944 585.913 217.216 585.757 217.444C585.605 217.672 585.385 217.842 585.097 217.954L586.063 219.334H585.223ZM585.205 216.628C585.205 216.36 585.117 216.154 584.941 216.01C584.765 215.866 584.507 215.794 584.167 215.794H583.255V217.468H584.167C584.507 217.468 584.765 217.396 584.941 217.252C585.117 217.104 585.205 216.896 585.205 216.628ZM587.764 215.134H589.6C590.048 215.134 590.446 215.222 590.794 215.398C591.142 215.57 591.412 215.816 591.604 216.136C591.796 216.452 591.892 216.818 591.892 217.234C591.892 217.65 591.796 218.018 591.604 218.338C591.412 218.654 591.142 218.9 590.794 219.076C590.446 219.248 590.048 219.334 589.6 219.334H587.764V215.134ZM589.564 218.674C589.872 218.674 590.142 218.616 590.374 218.5C590.61 218.38 590.79 218.212 590.914 217.996C591.042 217.776 591.106 217.522 591.106 217.234C591.106 216.946 591.042 216.694 590.914 216.478C590.79 216.258 590.61 216.09 590.374 215.974C590.142 215.854 589.872 215.794 589.564 215.794H588.544V218.674H589.564ZM597.479 219.334L597.473 216.55L596.093 218.854H595.745L594.365 216.586V219.334H593.621V215.134H594.263L595.931 217.918L597.569 215.134H598.211L598.217 219.334H597.479ZM602.975 218.362H600.875L600.461 219.334H599.657L601.547 215.134H602.315L604.211 219.334H603.395L602.975 218.362ZM602.717 217.75L601.925 215.914L601.139 217.75H602.717ZM608.393 219.334L607.535 218.104C607.499 218.108 607.445 218.11 607.373 218.11H606.425V219.334H605.645V215.134H607.373C607.737 215.134 608.053 215.194 608.321 215.314C608.593 215.434 608.801 215.606 608.945 215.83C609.089 216.054 609.161 216.32 609.161 216.628C609.161 216.944 609.083 217.216 608.927 217.444C608.775 217.672 608.555 217.842 608.267 217.954L609.233 219.334H608.393ZM608.375 216.628C608.375 216.36 608.287 216.154 608.111 216.01C607.935 215.866 607.677 215.794 607.337 215.794H606.425V217.468H607.337C607.677 217.468 607.935 217.396 608.111 217.252C608.287 217.104 608.375 216.896 608.375 216.628ZM612.38 217.576L611.714 218.26V219.334H610.934V215.134H611.714V217.288L613.79 215.134H614.666L612.902 217.012L614.774 219.334H613.862L612.38 217.576Z" fill="#152539"/>
<path d="M860.564 583.134H861.344V586.674H863.54V587.334H860.564V583.134ZM867.809 586.362H865.709L865.295 587.334H864.491L866.381 583.134H867.149L869.045 587.334H868.229L867.809 586.362ZM867.551 585.75L866.759 583.914L865.973 585.75H867.551ZM873.455 585.15C873.687 585.226 873.871 585.354 874.007 585.534C874.143 585.71 874.211 585.93 874.211 586.194C874.211 586.558 874.071 586.84 873.791 587.04C873.511 587.236 873.103 587.334 872.567 587.334H870.479V583.134H872.447C872.943 583.134 873.325 583.232 873.593 583.428C873.861 583.62 873.995 583.886 873.995 584.226C873.995 584.434 873.947 584.618 873.851 584.778C873.755 584.938 873.623 585.062 873.455 585.15ZM871.259 583.746V584.904H872.363C872.635 584.904 872.843 584.856 872.987 584.76C873.135 584.66 873.209 584.516 873.209 584.328C873.209 584.136 873.135 583.992 872.987 583.896C872.843 583.796 872.635 583.746 872.363 583.746H871.259ZM872.519 586.722C873.123 586.722 873.425 586.52 873.425 586.116C873.425 585.712 873.123 585.51 872.519 585.51H871.259V586.722H872.519ZM879.094 586.68V587.334H875.944V583.134H879.01V583.788H876.724V584.88H878.752V585.522H876.724V586.68H879.094ZM880.863 583.134H881.643V586.674H883.839V587.334H880.863V583.134ZM889.875 587.394C889.447 587.394 889.061 587.302 888.717 587.118C888.373 586.93 888.103 586.672 887.907 586.344C887.711 586.012 887.613 585.642 887.613 585.234C887.613 584.826 887.711 584.458 887.907 584.13C888.103 583.798 888.373 583.54 888.717 583.356C889.061 583.168 889.447 583.074 889.875 583.074C890.303 583.074 890.689 583.168 891.033 583.356C891.377 583.54 891.647 583.796 891.843 584.124C892.039 584.452 892.137 584.822 892.137 585.234C892.137 585.646 892.039 586.016 891.843 586.344C891.647 586.672 891.377 586.93 891.033 587.118C890.689 587.302 890.303 587.394 889.875 587.394ZM889.875 586.71C890.155 586.71 890.407 586.648 890.631 586.524C890.855 586.396 891.031 586.22 891.159 585.996C891.287 585.768 891.351 585.514 891.351 585.234C891.351 584.954 891.287 584.702 891.159 584.478C891.031 584.25 890.855 584.074 890.631 583.95C890.407 583.822 890.155 583.758 889.875 583.758C889.595 583.758 889.343 583.822 889.119 583.95C888.895 584.074 888.719 584.25 888.591 584.478C888.463 584.702 888.399 584.954 888.399 585.234C888.399 585.514 888.463 585.768 888.591 585.996C888.719 586.22 888.895 586.396 889.119 586.524C889.343 586.648 889.595 586.71 889.875 586.71ZM895.592 583.134C895.956 583.134 896.272 583.194 896.54 583.314C896.812 583.434 897.02 583.606 897.164 583.83C897.308 584.054 897.38 584.32 897.38 584.628C897.38 584.932 897.308 585.198 897.164 585.426C897.02 585.65 896.812 585.822 896.54 585.942C896.272 586.062 895.956 586.122 895.592 586.122H894.644V587.334H893.864V583.134H895.592ZM895.556 585.462C895.896 585.462 896.154 585.39 896.33 585.246C896.506 585.102 896.594 584.896 896.594 584.628C896.594 584.36 896.506 584.154 896.33 584.01C896.154 583.866 895.896 583.794 895.556 583.794H894.644V585.462H895.556ZM899.788 583.794H898.396V583.134H901.96V583.794H900.568V587.334H899.788V583.794ZM903.445 583.134H904.225V587.334H903.445V583.134ZM908.224 587.394C907.796 587.394 907.41 587.302 907.066 587.118C906.722 586.93 906.452 586.672 906.256 586.344C906.06 586.012 905.962 585.642 905.962 585.234C905.962 584.826 906.06 584.458 906.256 584.13C906.452 583.798 906.722 583.54 907.066 583.356C907.41 583.168 907.796 583.074 908.224 583.074C908.652 583.074 909.038 583.168 909.382 583.356C909.726 583.54 909.996 583.796 910.192 584.124C910.388 584.452 910.486 584.822 910.486 585.234C910.486 585.646 910.388 586.016 910.192 586.344C909.996 586.672 909.726 586.93 909.382 587.118C909.038 587.302 908.652 587.394 908.224 587.394ZM908.224 586.71C908.504 586.71 908.756 586.648 908.98 586.524C909.204 586.396 909.38 586.22 909.508 585.996C909.636 585.768 909.7 585.514 909.7 585.234C909.7 584.954 909.636 584.702 909.508 584.478C909.38 584.25 909.204 584.074 908.98 583.95C908.756 583.822 908.504 583.758 908.224 583.758C907.944 583.758 907.692 583.822 907.468 583.95C907.244 584.074 907.068 584.25 906.94 584.478C906.812 584.702 906.748 584.954 906.748 585.234C906.748 585.514 906.812 585.768 906.94 585.996C907.068 586.22 907.244 586.396 907.468 586.524C907.692 586.648 907.944 586.71 908.224 586.71ZM915.944 583.134V587.334H915.302L912.986 584.49V587.334H912.212V583.134H912.854L915.17 585.978V583.134H915.944ZM919.272 587.394C918.948 587.394 918.634 587.348 918.33 587.256C918.03 587.164 917.792 587.042 917.616 586.89L917.886 586.284C918.058 586.42 918.268 586.532 918.516 586.62C918.768 586.704 919.02 586.746 919.272 586.746C919.584 586.746 919.816 586.696 919.968 586.596C920.124 586.496 920.202 586.364 920.202 586.2C920.202 586.08 920.158 585.982 920.07 585.906C919.986 585.826 919.878 585.764 919.746 585.72C919.614 585.676 919.434 585.626 919.206 585.57C918.886 585.494 918.626 585.418 918.426 585.342C918.23 585.266 918.06 585.148 917.916 584.988C917.776 584.824 917.706 584.604 917.706 584.328C917.706 584.096 917.768 583.886 917.892 583.698C918.02 583.506 918.21 583.354 918.462 583.242C918.718 583.13 919.03 583.074 919.398 583.074C919.654 583.074 919.906 583.106 920.154 583.17C920.402 583.234 920.616 583.326 920.796 583.446L920.55 584.052C920.366 583.944 920.174 583.862 919.974 583.806C919.774 583.75 919.58 583.722 919.392 583.722C919.084 583.722 918.854 583.774 918.702 583.878C918.554 583.982 918.48 584.12 918.48 584.292C918.48 584.412 918.522 584.51 918.606 584.586C918.694 584.662 918.804 584.722 918.936 584.766C919.068 584.81 919.248 584.86 919.476 584.916C919.788 584.988 920.044 585.064 920.244 585.144C920.444 585.22 920.614 585.338 920.754 585.498C920.898 585.658 920.97 585.874 920.97 586.146C920.97 586.378 920.906 586.588 920.778 586.776C920.654 586.964 920.464 587.114 920.208 587.226C919.952 587.338 919.64 587.394 919.272 587.394Z" fill="#152539"/>
<path d="M848.171 580.052C848.383 580.141 848.628 580.042 848.717 579.83C848.807 579.618 848.707 579.374 848.495 579.284L848.333 579.668L848.171 580.052ZM726.51 527.949C726.296 528.035 726.194 528.278 726.281 528.492L727.693 531.965C727.78 532.179 728.023 532.281 728.236 532.195C728.449 532.108 728.552 531.865 728.465 531.652L727.209 528.564L730.297 527.308C730.511 527.222 730.613 526.979 730.526 526.765C730.44 526.552 730.197 526.45 729.984 526.536L726.51 527.949ZM848.333 579.668L848.495 579.284L726.829 527.951L726.667 528.335L726.505 528.719L848.171 580.052L848.333 579.668Z" fill="#152539"/>
<path d="M847.982 579.892C848.105 580.086 848.363 580.143 848.557 580.019C848.751 579.896 848.808 579.638 848.685 579.444L848.333 579.668L847.982 579.892ZM793.423 492.928C793.199 492.878 792.976 493.02 792.926 493.244L792.115 496.906C792.065 497.13 792.207 497.353 792.431 497.403C792.656 497.452 792.879 497.311 792.928 497.086L793.65 493.832L796.904 494.553C797.129 494.603 797.351 494.461 797.401 494.236C797.451 494.012 797.309 493.789 797.085 493.74L793.423 492.928ZM848.333 579.668L848.685 579.444L793.685 493.111L793.333 493.335L792.982 493.559L847.982 579.892L848.333 579.668Z" fill="#152539"/>
</g>
</g>
<defs>
<clipPath id="clip0_4007_167916">
<rect width="1200" height="800" fill="white"/>
</clipPath>
<clipPath id="clip1_4007_167916">
<rect width="1200" height="800" fill="white"/>
</clipPath>
</defs>
</svg>
