<svg width="1200" height="800" viewBox="0 0 1200 800" fill="none" xmlns="http://www.w3.org/2000/svg">
<g clip-path="url(#clip0_4007_167917)">
<rect width="1200" height="800" fill="#F5F3EF"/>
<g clip-path="url(#clip1_4007_167917)">
<path d="M0 0L1200 0" stroke="#152539" stroke-width="0.416667"/>
<path d="M0.7 11.0003H1.36667L1.36667 15.087H3.89333V15.667H0.7L0.7 11.0003ZM7.68036 15.7203C7.20925 15.7203 6.78481 15.6181 6.40703 15.4137C6.02925 15.2048 5.73148 14.9181 5.5137 14.5537C5.30036 14.1892 5.1937 13.7825 5.1937 13.3337C5.1937 12.8848 5.30036 12.4781 5.5137 12.1137C5.73148 11.7492 6.02925 11.4648 6.40703 11.2603C6.78481 11.0514 7.20925 10.947 7.68036 10.947C8.14703 10.947 8.56925 11.0514 8.94703 11.2603C9.32481 11.4648 9.62036 11.7492 9.8337 12.1137C10.047 12.4737 10.1537 12.8803 10.1537 13.3337C10.1537 13.787 10.047 14.1959 9.8337 14.5603C9.62036 14.9203 9.32481 15.2048 8.94703 15.4137C8.56925 15.6181 8.14703 15.7203 7.68036 15.7203ZM7.68036 15.127C8.02259 15.127 8.32925 15.0492 8.60036 14.8937C8.87592 14.7381 9.09148 14.5248 9.24703 14.2537C9.40703 13.9781 9.48703 13.6714 9.48703 13.3337C9.48703 12.9959 9.40703 12.6914 9.24703 12.4203C9.09148 12.1448 8.87592 11.9292 8.60036 11.7737C8.32925 11.6181 8.02259 11.5403 7.68036 11.5403C7.33814 11.5403 7.02703 11.6181 6.74703 11.7737C6.47148 11.9292 6.2537 12.1448 6.0937 12.4203C5.93814 12.6914 5.86036 12.9959 5.86036 13.3337C5.86036 13.6714 5.93814 13.9781 6.0937 14.2537C6.2537 14.5248 6.47148 14.7381 6.74703 14.8937C7.02703 15.0492 7.33814 15.127 7.68036 15.127ZM14.2593 15.7203C13.7927 15.7203 13.3704 15.6181 12.9927 15.4137C12.6193 15.2048 12.326 14.9203 12.1127 14.5603C11.8993 14.1959 11.7927 13.787 11.7927 13.3337C11.7927 12.8803 11.8993 12.4737 12.1127 12.1137C12.326 11.7492 12.6215 11.4648 12.9993 11.2603C13.3771 11.0514 13.7993 10.947 14.266 10.947C14.6304 10.947 14.9638 11.0092 15.266 11.1337C15.5682 11.2537 15.826 11.4337 16.0393 11.6737L15.606 12.0937C15.2549 11.7248 14.8171 11.5403 14.2927 11.5403C13.946 11.5403 13.6327 11.6181 13.3527 11.7737C13.0727 11.9292 12.8527 12.1448 12.6927 12.4203C12.5371 12.6914 12.4593 12.9959 12.4593 13.3337C12.4593 13.6714 12.5371 13.9781 12.6927 14.2537C12.8527 14.5248 13.0727 14.7381 13.3527 14.8937C13.6327 15.0492 13.946 15.127 14.2927 15.127C14.8127 15.127 15.2504 14.9403 15.606 14.567L16.0393 14.987C15.826 15.227 15.566 15.4092 15.2593 15.5337C14.9571 15.6581 14.6238 15.7203 14.2593 15.7203ZM19.5104 13.5937L18.657 14.4603V15.667H17.9904V11.0003H18.657V13.607L21.1904 11.0003H21.9504L19.957 13.1003L22.077 15.667H21.297L19.5104 13.5937ZM25.6503 15.7203C25.028 15.7203 24.5436 15.5425 24.1969 15.187C23.8503 14.8314 23.6769 14.3203 23.6769 13.6537V11.0003H24.3436V13.627C24.3436 14.627 24.7814 15.127 25.6569 15.127C26.0836 15.127 26.4103 15.0048 26.6369 14.7603C26.8636 14.5114 26.9769 14.1337 26.9769 13.627V11.0003H27.6236V13.6537C27.6236 14.3248 27.4503 14.8381 27.1036 15.1937C26.7569 15.5448 26.2725 15.7203 25.6503 15.7203ZM31.8104 11.0003C32.4148 11.0003 32.8904 11.1448 33.237 11.4337C33.5837 11.7225 33.757 12.1203 33.757 12.627C33.757 13.1337 33.5837 13.5314 33.237 13.8203C32.8904 14.1092 32.4148 14.2537 31.8104 14.2537H30.657V15.667H29.9904V11.0003L31.8104 11.0003ZM31.7904 13.6737C32.2126 13.6737 32.5348 13.5848 32.757 13.407C32.9793 13.2248 33.0904 12.9648 33.0904 12.627C33.0904 12.2892 32.9793 12.0314 32.757 11.8537C32.5348 11.6714 32.2126 11.5803 31.7904 11.5803H30.657V13.6737H31.7904ZM39.9519 15.7203C39.6008 15.7203 39.2608 15.667 38.9319 15.5603C38.6075 15.4492 38.3519 15.307 38.1653 15.1337L38.4119 14.6137C38.5897 14.7737 38.8164 14.9048 39.0919 15.007C39.3719 15.1048 39.6586 15.1537 39.9519 15.1537C40.3386 15.1537 40.6275 15.0892 40.8186 14.9603C41.0097 14.827 41.1053 14.6514 41.1053 14.4337C41.1053 14.2737 41.0519 14.1448 40.9453 14.047C40.843 13.9448 40.7141 13.867 40.5586 13.8137C40.4075 13.7603 40.1919 13.7003 39.9119 13.6337C39.5608 13.5492 39.2764 13.4648 39.0586 13.3803C38.8453 13.2959 38.6608 13.167 38.5053 12.9937C38.3541 12.8159 38.2786 12.5781 38.2786 12.2803C38.2786 12.0314 38.343 11.807 38.4719 11.607C38.6053 11.407 38.8053 11.247 39.0719 11.127C39.3386 11.007 39.6697 10.947 40.0653 10.947C40.3408 10.947 40.6119 10.9825 40.8786 11.0537C41.1453 11.1248 41.3741 11.227 41.5653 11.3603L41.3453 11.8937C41.1497 11.7692 40.9408 11.6759 40.7186 11.6137C40.4964 11.547 40.2786 11.5137 40.0653 11.5137C39.6875 11.5137 39.403 11.5825 39.2119 11.7203C39.0253 11.8581 38.9319 12.0359 38.9319 12.2537C38.9319 12.4137 38.9853 12.5448 39.0919 12.647C39.1986 12.7448 39.3297 12.8225 39.4853 12.8803C39.6453 12.9337 39.8608 12.9914 40.1319 13.0537C40.483 13.1381 40.7653 13.2225 40.9786 13.307C41.1919 13.3914 41.3741 13.5203 41.5253 13.6937C41.6808 13.867 41.7586 14.1003 41.7586 14.3937C41.7586 14.6381 41.6919 14.8625 41.5586 15.067C41.4253 15.267 41.223 15.427 40.9519 15.547C40.6808 15.6625 40.3475 15.7203 39.9519 15.7203ZM45.4216 14.0537V15.667H44.7616V14.0403L42.9082 11.0003H43.6216L45.1149 13.4603L46.6149 11.0003H47.2749L45.4216 14.0537ZM50.2136 15.7203C49.8625 15.7203 49.5225 15.667 49.1936 15.5603C48.8692 15.4492 48.6136 15.307 48.427 15.1337L48.6736 14.6137C48.8514 14.7737 49.0781 14.9048 49.3536 15.007C49.6336 15.1048 49.9203 15.1537 50.2136 15.1537C50.6003 15.1537 50.8892 15.0892 51.0803 14.9603C51.2714 14.827 51.367 14.6514 51.367 14.4337C51.367 14.2737 51.3136 14.1448 51.207 14.047C51.1048 13.9448 50.9759 13.867 50.8203 13.8137C50.6692 13.7603 50.4536 13.7003 50.1736 13.6337C49.8225 13.5492 49.5381 13.4648 49.3203 13.3803C49.107 13.2959 48.9225 13.167 48.767 12.9937C48.6159 12.8159 48.5403 12.5781 48.5403 12.2803C48.5403 12.0314 48.6048 11.807 48.7336 11.607C48.867 11.407 49.067 11.247 49.3336 11.127C49.6003 11.007 49.9314 10.947 50.327 10.947C50.6025 10.947 50.8736 10.9825 51.1403 11.0537C51.407 11.1248 51.6359 11.227 51.827 11.3603L51.607 11.8937C51.4114 11.7692 51.2025 11.6759 50.9803 11.6137C50.7581 11.547 50.5403 11.5137 50.327 11.5137C49.9492 11.5137 49.6648 11.5825 49.4736 11.7203C49.287 11.8581 49.1936 12.0359 49.1936 12.2537C49.1936 12.4137 49.247 12.5448 49.3536 12.647C49.4603 12.7448 49.5914 12.8225 49.747 12.8803C49.907 12.9337 50.1225 12.9914 50.3936 13.0537C50.7448 13.1381 51.027 13.2225 51.2403 13.307C51.4536 13.3914 51.6359 13.5203 51.787 13.6937C51.9425 13.867 52.0203 14.1003 52.0203 14.3937C52.0203 14.6381 51.9536 14.8625 51.8203 15.067C51.687 15.267 51.4848 15.427 51.2136 15.547C50.9425 15.6625 50.6092 15.7203 50.2136 15.7203ZM54.8558 11.5803H53.2558V11.0003H57.1158V11.5803H55.5158V15.667H54.8558V11.5803ZM62.2286 15.087V15.667L58.8419 15.667V11.0003H62.1353V11.5803H59.5086V13.0137H61.8486V13.5803H59.5086V15.087L62.2286 15.087ZM68.6347 15.667L68.6281 12.267L66.9414 15.1003H66.6347L64.9481 12.287V15.667H64.3081V11.0003H64.8547L66.8014 14.2803L68.7214 11.0003H69.2681L69.2747 15.667H68.6347Z" fill="#152539"/>
<path d="M1161.79 15.7203C1161.32 15.7203 1160.9 15.6181 1160.52 15.4137C1160.15 15.2048 1159.85 14.9203 1159.64 14.5603C1159.43 14.1959 1159.32 13.787 1159.32 13.3337C1159.32 12.8803 1159.43 12.4737 1159.64 12.1137C1159.85 11.7492 1160.15 11.4648 1160.53 11.2603C1160.9 11.0514 1161.33 10.947 1161.79 10.947C1162.16 10.947 1162.49 11.0092 1162.79 11.1337C1163.1 11.2537 1163.35 11.4337 1163.57 11.6737L1163.13 12.0937C1162.78 11.7248 1162.34 11.5403 1161.82 11.5403C1161.47 11.5403 1161.16 11.6181 1160.88 11.7737C1160.6 11.9292 1160.38 12.1448 1160.22 12.4203C1160.06 12.6914 1159.99 12.9959 1159.99 13.3337C1159.99 13.6714 1160.06 13.9781 1160.22 14.2537C1160.38 14.5248 1160.6 14.7381 1160.88 14.8937C1161.16 15.0492 1161.47 15.127 1161.82 15.127C1162.34 15.127 1162.78 14.9403 1163.13 14.567L1163.57 14.987C1163.35 15.227 1163.09 15.4092 1162.79 15.5337C1162.48 15.6581 1162.15 15.7203 1161.79 15.7203ZM1168.38 14.5003L1165.9 14.5003L1165.39 15.667H1164.7L1166.81 11.0003L1167.47 11.0003L1169.59 15.667H1168.89L1168.38 14.5003ZM1168.15 13.967L1167.14 11.6803L1166.13 13.967L1168.15 13.967ZM1172.65 15.7203C1172.3 15.7203 1171.96 15.667 1171.63 15.5603C1171.31 15.4492 1171.05 15.307 1170.86 15.1337L1171.11 14.6137C1171.29 14.7737 1171.51 14.9048 1171.79 15.007C1172.07 15.1048 1172.36 15.1537 1172.65 15.1537C1173.04 15.1537 1173.33 15.0892 1173.52 14.9603C1173.71 14.827 1173.8 14.6514 1173.8 14.4337C1173.8 14.2737 1173.75 14.1448 1173.64 14.047C1173.54 13.9448 1173.41 13.867 1173.26 13.8137C1173.11 13.7603 1172.89 13.7003 1172.61 13.6337C1172.26 13.5492 1171.97 13.4648 1171.76 13.3803C1171.54 13.2959 1171.36 13.167 1171.2 12.9937C1171.05 12.8159 1170.98 12.5781 1170.98 12.2803C1170.98 12.0314 1171.04 11.807 1171.17 11.607C1171.3 11.407 1171.5 11.247 1171.77 11.127C1172.04 11.007 1172.37 10.947 1172.76 10.947C1173.04 10.947 1173.31 10.9825 1173.58 11.0537C1173.84 11.1248 1174.07 11.227 1174.26 11.3603L1174.04 11.8937C1173.85 11.7692 1173.64 11.6759 1173.42 11.6137C1173.19 11.547 1172.98 11.5137 1172.76 11.5137C1172.39 11.5137 1172.1 11.5825 1171.91 11.7203C1171.72 11.8581 1171.63 12.0359 1171.63 12.2537C1171.63 12.4137 1171.68 12.5448 1171.79 12.647C1171.9 12.7448 1172.03 12.8225 1172.18 12.8803C1172.34 12.9337 1172.56 12.9914 1172.83 13.0537C1173.18 13.1381 1173.46 13.2225 1173.68 13.307C1173.89 13.3914 1174.07 13.5203 1174.22 13.6937C1174.38 13.867 1174.46 14.1003 1174.46 14.3937C1174.46 14.6381 1174.39 14.8625 1174.26 15.067C1174.12 15.267 1173.92 15.427 1173.65 15.547C1173.38 15.6625 1173.05 15.7203 1172.65 15.7203ZM1179.82 15.087V15.667H1176.43V11.0003H1179.72V11.5803H1177.1V13.0137H1179.44V13.5803H1177.1V15.087H1179.82ZM1181.9 11.0003H1183.86C1184.36 11.0003 1184.79 11.0981 1185.18 11.2937C1185.56 11.4892 1185.85 11.7648 1186.06 12.1203C1186.28 12.4714 1186.38 12.8759 1186.38 13.3337C1186.38 13.7914 1186.28 14.1981 1186.06 14.5537C1185.85 14.9048 1185.56 15.1781 1185.18 15.3737C1184.79 15.5692 1184.36 15.667 1183.86 15.667H1181.9V11.0003ZM1183.82 15.087C1184.2 15.087 1184.53 15.0137 1184.82 14.867C1185.11 14.7203 1185.33 14.5159 1185.48 14.2537C1185.64 13.987 1185.72 13.6803 1185.72 13.3337C1185.72 12.987 1185.64 12.6825 1185.48 12.4203C1185.33 12.1537 1185.11 11.947 1184.82 11.8003C1184.53 11.6537 1184.2 11.5803 1183.82 11.5803H1182.56V15.087H1183.82ZM1190.51 15.7203C1190.04 15.7203 1189.62 15.6181 1189.24 15.4137C1188.86 15.2048 1188.56 14.9181 1188.34 14.5537C1188.13 14.1892 1188.02 13.7825 1188.02 13.3337C1188.02 12.8848 1188.13 12.4781 1188.34 12.1137C1188.56 11.7492 1188.86 11.4648 1189.24 11.2603C1189.62 11.0514 1190.04 10.947 1190.51 10.947C1190.98 10.947 1191.4 11.0514 1191.78 11.2603C1192.16 11.4648 1192.45 11.7492 1192.66 12.1137C1192.88 12.4737 1192.98 12.8803 1192.98 13.3337C1192.98 13.787 1192.88 14.1959 1192.66 14.5603C1192.45 14.9203 1192.16 15.2048 1191.78 15.4137C1191.4 15.6181 1190.98 15.7203 1190.51 15.7203ZM1190.51 15.127C1190.85 15.127 1191.16 15.0492 1191.43 14.8937C1191.71 14.7381 1191.92 14.5248 1192.08 14.2537C1192.24 13.9781 1192.32 13.6714 1192.32 13.3337C1192.32 12.9959 1192.24 12.6914 1192.08 12.4203C1191.92 12.1448 1191.71 11.9292 1191.43 11.7737C1191.16 11.6181 1190.85 11.5403 1190.51 11.5403C1190.17 11.5403 1189.86 11.6181 1189.58 11.7737C1189.3 11.9292 1189.08 12.1448 1188.92 12.4203C1188.77 12.6914 1188.69 12.9959 1188.69 13.3337C1188.69 13.6714 1188.77 13.9781 1188.92 14.2537C1189.08 14.5248 1189.3 14.7381 1189.58 14.8937C1189.86 15.0492 1190.17 15.127 1190.51 15.127ZM1197.09 15.7203C1196.62 15.7203 1196.2 15.6181 1195.82 15.4137C1195.45 15.2048 1195.16 14.9203 1194.94 14.5603C1194.73 14.1959 1194.62 13.787 1194.62 13.3337C1194.62 12.8803 1194.73 12.4737 1194.94 12.1137C1195.16 11.7492 1195.45 11.4648 1195.83 11.2603C1196.21 11.0514 1196.63 10.947 1197.1 10.947C1197.46 10.947 1197.79 11.0092 1198.1 11.1337C1198.4 11.2537 1198.66 11.4337 1198.87 11.6737L1198.44 12.0937C1198.09 11.7248 1197.65 11.5403 1197.12 11.5403C1196.78 11.5403 1196.46 11.6181 1196.18 11.7737C1195.9 11.9292 1195.68 12.1448 1195.52 12.4203C1195.37 12.6914 1195.29 12.9959 1195.29 13.3337C1195.29 13.6714 1195.37 13.9781 1195.52 14.2537C1195.68 14.5248 1195.9 14.7381 1196.18 14.8937C1196.46 15.0492 1196.78 15.127 1197.12 15.127C1197.64 15.127 1198.08 14.9403 1198.44 14.567L1198.87 14.987C1198.66 15.227 1198.4 15.4092 1198.09 15.5337C1197.79 15.6581 1197.45 15.7203 1197.09 15.7203Z" fill="#152539"/>
<path d="M320.234 429.923C298.732 429.923 281.302 412.384 281.302 390.748V352C302.803 352 320.234 369.539 320.234 391.174V429.923Z" fill="#152539"/>
<path d="M357.864 389.662C340.663 389.662 326.719 403.95 326.719 421.576V452C343.92 452 357.864 437.712 357.864 420.086V389.662Z" fill="#152539"/>
<path d="M352.674 364.987C352.674 372.16 346.863 377.974 339.696 377.974C332.529 377.974 326.719 372.16 326.719 364.987C326.719 357.815 332.529 352 339.696 352C346.863 352 352.674 357.815 352.674 364.987Z" fill="#152539"/>
<path d="M407.97 385.48C405.116 385.48 402.53 384.867 400.21 383.64C397.916 382.387 396.103 380.667 394.77 378.48C393.463 376.267 392.81 373.773 392.81 371C392.81 368.227 393.463 365.747 394.77 363.56C396.103 361.347 397.916 359.627 400.21 358.4C402.53 357.147 405.13 356.52 408.01 356.52C410.436 356.52 412.623 356.947 414.57 357.8C416.543 358.653 418.196 359.88 419.53 361.48L415.37 365.32C413.476 363.133 411.13 362.04 408.33 362.04C406.596 362.04 405.05 362.427 403.69 363.2C402.33 363.947 401.263 365 400.49 366.36C399.743 367.72 399.37 369.267 399.37 371C399.37 372.733 399.743 374.28 400.49 375.64C401.263 377 402.33 378.067 403.69 378.84C405.05 379.587 406.596 379.96 408.33 379.96C411.13 379.96 413.476 378.853 415.37 376.64L419.53 380.48C418.196 382.107 416.543 383.347 414.57 384.2C412.596 385.053 410.396 385.48 407.97 385.48ZM431.989 363.16C435.323 363.16 437.883 363.96 439.669 365.56C441.456 367.133 442.349 369.52 442.349 372.72V385H436.509V382.32C435.336 384.32 433.149 385.32 429.949 385.32C428.296 385.32 426.856 385.04 425.629 384.48C424.429 383.92 423.509 383.147 422.869 382.16C422.229 381.173 421.909 380.053 421.909 378.8C421.909 376.8 422.656 375.227 424.149 374.08C425.669 372.933 428.003 372.36 431.149 372.36H436.109C436.109 371 435.696 369.96 434.869 369.24C434.043 368.493 432.803 368.12 431.149 368.12C430.003 368.12 428.869 368.307 427.749 368.68C426.656 369.027 425.723 369.507 424.949 370.12L422.709 365.76C423.883 364.933 425.283 364.293 426.909 363.84C428.563 363.387 430.256 363.16 431.989 363.16ZM431.509 381.12C432.576 381.12 433.523 380.88 434.349 380.4C435.176 379.893 435.763 379.16 436.109 378.2V376H431.829C429.269 376 427.989 376.84 427.989 378.52C427.989 379.32 428.296 379.96 428.909 380.44C429.549 380.893 430.416 381.12 431.509 381.12ZM455.237 385.32C453.45 385.32 451.703 385.107 449.997 384.68C448.29 384.227 446.93 383.667 445.917 383L447.997 378.52C448.957 379.133 450.117 379.64 451.477 380.04C452.837 380.413 454.17 380.6 455.477 380.6C458.117 380.6 459.437 379.947 459.437 378.64C459.437 378.027 459.077 377.587 458.357 377.32C457.637 377.053 456.53 376.827 455.037 376.64C453.277 376.373 451.823 376.067 450.677 375.72C449.53 375.373 448.53 374.76 447.677 373.88C446.85 373 446.437 371.747 446.437 370.12C446.437 368.76 446.823 367.56 447.597 366.52C448.397 365.453 449.543 364.627 451.037 364.04C452.557 363.453 454.343 363.16 456.397 363.16C457.917 363.16 459.423 363.333 460.917 363.68C462.437 364 463.69 364.453 464.677 365.04L462.597 369.48C460.703 368.413 458.637 367.88 456.397 367.88C455.063 367.88 454.063 368.067 453.397 368.44C452.73 368.813 452.397 369.293 452.397 369.88C452.397 370.547 452.757 371.013 453.477 371.28C454.197 371.547 455.343 371.8 456.917 372.04C458.677 372.333 460.117 372.653 461.237 373C462.357 373.32 463.33 373.92 464.157 374.8C464.983 375.68 465.397 376.907 465.397 378.48C465.397 379.813 464.997 381 464.197 382.04C463.397 383.08 462.223 383.893 460.677 384.48C459.157 385.04 457.343 385.32 455.237 385.32ZM490.327 374.32C490.327 374.4 490.287 374.96 490.207 376H473.927C474.22 377.333 474.913 378.387 476.007 379.16C477.1 379.933 478.46 380.32 480.087 380.32C481.207 380.32 482.193 380.16 483.047 379.84C483.927 379.493 484.74 378.96 485.487 378.24L488.807 381.84C486.78 384.16 483.82 385.32 479.927 385.32C477.5 385.32 475.353 384.853 473.487 383.92C471.62 382.96 470.18 381.64 469.167 379.96C468.153 378.28 467.647 376.373 467.647 374.24C467.647 372.133 468.14 370.24 469.127 368.56C470.14 366.853 471.513 365.533 473.247 364.6C475.007 363.64 476.967 363.16 479.127 363.16C481.233 363.16 483.14 363.613 484.847 364.52C486.553 365.427 487.887 366.733 488.847 368.44C489.833 370.12 490.327 372.08 490.327 374.32ZM479.167 367.88C477.753 367.88 476.567 368.28 475.607 369.08C474.647 369.88 474.06 370.973 473.847 372.36H484.447C484.233 371 483.647 369.92 482.687 369.12C481.727 368.293 480.553 367.88 479.167 367.88ZM516.401 355.32V385H510.441V382.52C508.894 384.387 506.654 385.32 503.721 385.32C501.694 385.32 499.854 384.867 498.201 383.96C496.574 383.053 495.294 381.76 494.361 380.08C493.428 378.4 492.961 376.453 492.961 374.24C492.961 372.027 493.428 370.08 494.361 368.4C495.294 366.72 496.574 365.427 498.201 364.52C499.854 363.613 501.694 363.16 503.721 363.16C506.468 363.16 508.614 364.027 510.161 365.76V355.32H516.401ZM504.801 380.2C506.374 380.2 507.681 379.667 508.721 378.6C509.761 377.507 510.281 376.053 510.281 374.24C510.281 372.427 509.761 370.987 508.721 369.92C507.681 368.827 506.374 368.28 504.801 368.28C503.201 368.28 501.881 368.827 500.841 369.92C499.801 370.987 499.281 372.427 499.281 374.24C499.281 376.053 499.801 377.507 500.841 378.6C501.881 379.667 503.201 380.2 504.801 380.2ZM532.416 385.32C530.15 385.32 528.11 384.853 526.296 383.92C524.51 382.96 523.11 381.64 522.096 379.96C521.083 378.28 520.576 376.373 520.576 374.24C520.576 372.107 521.083 370.2 522.096 368.52C523.11 366.84 524.51 365.533 526.296 364.6C528.11 363.64 530.15 363.16 532.416 363.16C534.683 363.16 536.71 363.64 538.496 364.6C540.283 365.533 541.683 366.84 542.696 368.52C543.71 370.2 544.216 372.107 544.216 374.24C544.216 376.373 543.71 378.28 542.696 379.96C541.683 381.64 540.283 382.96 538.496 383.92C536.71 384.853 534.683 385.32 532.416 385.32ZM532.416 380.2C534.016 380.2 535.323 379.667 536.336 378.6C537.376 377.507 537.896 376.053 537.896 374.24C537.896 372.427 537.376 370.987 536.336 369.92C535.323 368.827 534.016 368.28 532.416 368.28C530.816 368.28 529.496 368.827 528.456 369.92C527.416 370.987 526.896 372.427 526.896 374.24C526.896 376.053 527.416 377.507 528.456 378.6C529.496 379.667 530.816 380.2 532.416 380.2ZM558.787 385.32C556.494 385.32 554.427 384.853 552.587 383.92C550.774 382.96 549.347 381.64 548.307 379.96C547.294 378.28 546.787 376.373 546.787 374.24C546.787 372.107 547.294 370.2 548.307 368.52C549.347 366.84 550.774 365.533 552.587 364.6C554.427 363.64 556.494 363.16 558.787 363.16C561.054 363.16 563.027 363.64 564.707 364.6C566.414 365.533 567.654 366.88 568.427 368.64L563.587 371.24C562.467 369.267 560.854 368.28 558.747 368.28C557.121 368.28 555.774 368.813 554.707 369.88C553.641 370.947 553.107 372.4 553.107 374.24C553.107 376.08 553.641 377.533 554.707 378.6C555.774 379.667 557.121 380.2 558.747 380.2C560.881 380.2 562.494 379.213 563.587 377.24L568.427 379.88C567.654 381.587 566.414 382.92 564.707 383.88C563.027 384.84 561.054 385.32 558.787 385.32Z" fill="#152539"/>
<path d="M409.183 409.067V423.867H435.103V434.267H409.183V454.667H396.223V398.667H438.543V409.067H409.183ZM465.823 455.307C461.29 455.307 457.21 454.374 453.583 452.507C450.01 450.587 447.21 447.947 445.183 444.587C443.157 441.227 442.143 437.414 442.143 433.147C442.143 428.88 443.157 425.067 445.183 421.707C447.21 418.347 450.01 415.734 453.583 413.867C457.21 411.947 461.29 410.987 465.823 410.987C470.357 410.987 474.41 411.947 477.983 413.867C481.557 415.734 484.357 418.347 486.383 421.707C488.41 425.067 489.423 428.88 489.423 433.147C489.423 437.414 488.41 441.227 486.383 444.587C484.357 447.947 481.557 450.587 477.983 452.507C474.41 454.374 470.357 455.307 465.823 455.307ZM465.823 445.067C469.023 445.067 471.637 444 473.663 441.867C475.743 439.68 476.783 436.774 476.783 433.147C476.783 429.52 475.743 426.64 473.663 424.507C471.637 422.32 469.023 421.227 465.823 421.227C462.623 421.227 459.983 422.32 457.903 424.507C455.823 426.64 454.783 429.52 454.783 433.147C454.783 436.774 455.823 439.68 457.903 441.867C459.983 444 462.623 445.067 465.823 445.067ZM509.685 417.307C511.178 415.227 513.178 413.654 515.685 412.587C518.245 411.52 521.178 410.987 524.485 410.987V422.507C523.098 422.4 522.165 422.347 521.685 422.347C518.112 422.347 515.312 423.36 513.285 425.387C511.258 427.36 510.245 430.347 510.245 434.347V454.667H497.765V411.627H509.685V417.307ZM575.578 411.627V454.667H563.738V449.547C562.085 451.414 560.112 452.854 557.818 453.867C555.525 454.827 553.045 455.307 550.378 455.307C544.725 455.307 540.245 453.68 536.938 450.427C533.632 447.174 531.978 442.347 531.978 435.947V411.627H544.458V434.107C544.458 441.04 547.365 444.507 553.178 444.507C556.165 444.507 558.565 443.547 560.378 441.627C562.192 439.654 563.098 436.747 563.098 432.907V411.627H575.578ZM642.26 410.987C647.647 410.987 651.913 412.587 655.06 415.787C658.26 418.934 659.86 423.68 659.86 430.027V454.667H647.38V431.947C647.38 428.534 646.66 426 645.22 424.347C643.833 422.64 641.833 421.787 639.22 421.787C636.287 421.787 633.967 422.747 632.26 424.667C630.553 426.534 629.7 429.334 629.7 433.067V454.667H617.22V431.947C617.22 425.174 614.5 421.787 609.06 421.787C606.18 421.787 603.887 422.747 602.18 424.667C600.473 426.534 599.62 429.334 599.62 433.067V454.667H587.14V411.627H599.06V416.587C600.66 414.774 602.607 413.387 604.9 412.427C607.247 411.467 609.807 410.987 612.58 410.987C615.62 410.987 618.367 411.6 620.82 412.827C623.273 414 625.247 415.734 626.74 418.027C628.5 415.787 630.713 414.054 633.38 412.827C636.1 411.6 639.06 410.987 642.26 410.987Z" fill="#152539"/>
<g opacity="0.4">
<path d="M525.715 484.036H521.283C521.112 483.089 520.795 482.256 520.331 481.536C519.867 480.817 519.299 480.206 518.627 479.704C517.954 479.202 517.201 478.823 516.368 478.568C515.544 478.312 514.668 478.184 513.74 478.184C512.064 478.184 510.563 478.605 509.237 479.448C507.921 480.291 506.879 481.527 506.112 483.156C505.355 484.784 504.976 486.773 504.976 489.122C504.976 491.489 505.355 493.487 506.112 495.116C506.879 496.745 507.926 497.976 509.252 498.809C510.577 499.642 512.069 500.059 513.726 500.059C514.645 500.059 515.516 499.936 516.34 499.69C517.173 499.434 517.926 499.06 518.598 498.568C519.271 498.075 519.839 497.474 520.303 496.764C520.776 496.044 521.103 495.22 521.283 494.292L525.715 494.306C525.478 495.736 525.019 497.052 524.337 498.255C523.664 499.448 522.798 500.48 521.737 501.352C520.686 502.213 519.484 502.881 518.129 503.354C516.775 503.828 515.298 504.065 513.698 504.065C511.179 504.065 508.934 503.468 506.965 502.275C504.995 501.072 503.442 499.354 502.306 497.119C501.179 494.884 500.615 492.218 500.615 489.122C500.615 486.015 501.183 483.35 502.32 481.124C503.456 478.89 505.009 477.176 506.979 475.982C508.949 474.78 511.188 474.178 513.698 474.178C515.241 474.178 516.681 474.401 518.016 474.846C519.36 475.282 520.568 475.926 521.638 476.778C522.708 477.621 523.593 478.653 524.294 479.874C524.995 481.086 525.468 482.474 525.715 484.036ZM556.237 489.122C556.237 492.228 555.668 494.898 554.532 497.133C553.396 499.358 551.838 501.072 549.859 502.275C547.889 503.468 545.65 504.065 543.14 504.065C540.621 504.065 538.372 503.468 536.393 502.275C534.423 501.072 532.87 499.354 531.734 497.119C530.597 494.884 530.029 492.218 530.029 489.122C530.029 486.015 530.597 483.35 531.734 481.124C532.87 478.89 534.423 477.176 536.393 475.982C538.372 474.78 540.621 474.178 543.14 474.178C545.65 474.178 547.889 474.78 549.859 475.982C551.838 477.176 553.396 478.89 554.532 481.124C555.668 483.35 556.237 486.015 556.237 489.122ZM551.89 489.122C551.89 486.754 551.507 484.761 550.74 483.141C549.982 481.513 548.94 480.282 547.615 479.448C546.298 478.605 544.807 478.184 543.14 478.184C541.464 478.184 539.968 478.605 538.651 479.448C537.335 480.282 536.293 481.513 535.526 483.141C534.769 484.761 534.39 486.754 534.39 489.122C534.39 491.489 534.769 493.487 535.526 495.116C536.293 496.735 537.335 497.966 538.651 498.809C539.968 499.642 541.464 500.059 543.14 500.059C544.807 500.059 546.298 499.642 547.615 498.809C548.94 497.966 549.982 496.735 550.74 495.116C551.507 493.487 551.89 491.489 551.89 489.122ZM580.416 474.576H584.82V493.71C584.82 495.746 584.342 497.55 583.385 499.122C582.429 500.684 581.084 501.915 579.351 502.815C577.618 503.705 575.587 504.15 573.257 504.15C570.937 504.15 568.911 503.705 567.178 502.815C565.445 501.915 564.1 500.684 563.144 499.122C562.187 497.55 561.709 495.746 561.709 493.71V474.576H566.098V493.354C566.098 494.671 566.387 495.84 566.965 496.863C567.552 497.886 568.38 498.691 569.45 499.278C570.521 499.855 571.789 500.144 573.257 500.144C574.735 500.144 576.008 499.855 577.078 499.278C578.158 498.691 578.982 497.886 579.55 496.863C580.128 495.84 580.416 494.671 580.416 493.354V474.576ZM591.201 503.667V474.576H601.57C603.824 474.576 605.695 474.964 607.181 475.741C608.677 476.517 609.795 477.592 610.534 478.965C611.272 480.329 611.641 481.906 611.641 483.695C611.641 485.476 611.267 487.043 610.519 488.397C609.781 489.742 608.663 490.788 607.167 491.536C605.68 492.284 603.81 492.658 601.556 492.658H593.701V488.88H601.159C602.579 488.88 603.734 488.676 604.624 488.269C605.524 487.862 606.182 487.27 606.599 486.494C607.016 485.717 607.224 484.784 607.224 483.695C607.224 482.597 607.011 481.645 606.585 480.84C606.168 480.035 605.51 479.42 604.61 478.994C603.72 478.558 602.551 478.34 601.102 478.34H595.59V503.667H591.201ZM605.562 490.542L612.749 503.667H607.749L600.704 490.542H605.562ZM615.548 478.354V474.576H638.062V478.354H628.985V503.667H624.61V478.354H615.548ZM658.904 482.218C658.752 480.873 658.127 479.832 657.029 479.093C655.93 478.345 654.548 477.971 652.881 477.971C651.688 477.971 650.655 478.16 649.784 478.539C648.913 478.908 648.236 479.42 647.753 480.073C647.28 480.717 647.043 481.451 647.043 482.275C647.043 482.966 647.204 483.563 647.526 484.065C647.857 484.567 648.288 484.988 648.818 485.329C649.358 485.66 649.936 485.94 650.551 486.167C651.167 486.385 651.759 486.565 652.327 486.707L655.168 487.445C656.096 487.673 657.048 487.98 658.023 488.369C658.998 488.757 659.903 489.268 660.736 489.903C661.569 490.537 662.242 491.323 662.753 492.261C663.274 493.198 663.534 494.32 663.534 495.627C663.534 497.275 663.108 498.738 662.256 500.016C661.413 501.295 660.187 502.303 658.577 503.042C656.976 503.781 655.04 504.15 652.767 504.15C650.589 504.15 648.705 503.804 647.114 503.113C645.523 502.422 644.278 501.442 643.378 500.173C642.478 498.894 641.981 497.379 641.887 495.627H646.29C646.375 496.678 646.716 497.554 647.313 498.255C647.919 498.946 648.69 499.462 649.628 499.803C650.575 500.135 651.612 500.301 652.739 500.301C653.979 500.301 655.083 500.106 656.048 499.718C657.024 499.32 657.791 498.771 658.35 498.07C658.908 497.36 659.188 496.532 659.188 495.585C659.188 494.723 658.941 494.017 658.449 493.468C657.966 492.919 657.308 492.464 656.475 492.104C655.651 491.745 654.718 491.427 653.676 491.153L650.239 490.215C647.909 489.581 646.063 488.648 644.699 487.417C643.345 486.186 642.668 484.557 642.668 482.531C642.668 480.854 643.122 479.391 644.031 478.141C644.94 476.891 646.172 475.921 647.725 475.229C649.278 474.529 651.03 474.178 652.98 474.178C654.95 474.178 656.688 474.524 658.193 475.215C659.708 475.907 660.902 476.858 661.773 478.07C662.644 479.273 663.099 480.656 663.137 482.218H658.904Z" fill="#152539"/>
</g>
<g opacity="0.4">
<path d="M633.186 455.667H627.8L643.378 413.243H648.681L664.259 455.667H658.873L646.195 419.954H645.864L633.186 455.667ZM635.175 439.095H656.884V443.652H635.175V439.095ZM670.867 455.667V413.243H685.202C688.516 413.243 691.237 413.809 693.363 414.941C695.49 416.06 697.064 417.6 698.086 419.561C699.108 421.522 699.619 423.752 699.619 426.252C699.619 428.751 699.108 430.968 698.086 432.901C697.064 434.835 695.497 436.354 693.384 437.459C691.271 438.55 688.571 439.095 685.284 439.095H673.684V434.455H685.119C687.384 434.455 689.206 434.123 690.587 433.461C691.982 432.798 692.99 431.859 693.612 430.643C694.247 429.414 694.565 427.95 694.565 426.252C694.565 424.553 694.247 423.069 693.612 421.798C692.977 420.528 691.962 419.547 690.567 418.857C689.172 418.152 687.328 417.8 685.036 417.8H676.004V455.667H670.867ZM690.836 436.609L701.276 455.667H695.31L685.036 436.609H690.836ZM742.318 426.5H737.181C736.877 425.023 736.345 423.725 735.586 422.606C734.84 421.487 733.928 420.548 732.851 419.789C731.788 419.015 730.607 418.435 729.309 418.049C728.011 417.662 726.657 417.469 725.249 417.469C722.68 417.469 720.353 418.118 718.268 419.416C716.196 420.714 714.546 422.627 713.317 425.154C712.102 427.681 711.494 430.781 711.494 434.455C711.494 438.128 712.102 441.229 713.317 443.756C714.546 446.283 716.196 448.196 718.268 449.494C720.353 450.792 722.68 451.441 725.249 451.441C726.657 451.441 728.011 451.248 729.309 450.861C730.607 450.474 731.788 449.901 732.851 449.142C733.928 448.368 734.84 447.422 735.586 446.304C736.345 445.171 736.877 443.873 737.181 442.409H742.318C741.931 444.578 741.227 446.518 740.205 448.23C739.183 449.943 737.913 451.4 736.393 452.601C734.874 453.789 733.169 454.693 731.277 455.315C729.399 455.936 727.389 456.247 725.249 456.247C721.631 456.247 718.413 455.363 715.596 453.595C712.778 451.828 710.562 449.314 708.946 446.055C707.33 442.796 706.522 438.929 706.522 434.455C706.522 429.98 707.33 426.114 708.946 422.854C710.562 419.595 712.778 417.082 715.596 415.314C718.413 413.547 721.631 412.663 725.249 412.663C727.389 412.663 729.399 412.973 731.277 413.595C733.169 414.216 734.874 415.128 736.393 416.329C737.913 417.517 739.183 418.967 740.205 420.679C741.227 422.378 741.931 424.318 742.318 426.5ZM750.619 455.667V413.243H755.757V432.135H778.377V413.243H783.515V455.667H778.377V436.692H755.757V455.667H750.619ZM798.937 413.243V455.667H793.8V413.243H798.937ZM810.978 413.243L823.572 448.955H824.069L836.664 413.243H842.05L826.472 455.667H821.169L805.592 413.243H810.978ZM848.658 455.667V413.243H874.262V417.8H853.795V432.135H872.936V436.692H853.795V451.11H874.593V455.667H848.658ZM906.722 423.849C906.474 421.75 905.465 420.12 903.698 418.96C901.93 417.8 899.762 417.22 897.193 417.22C895.315 417.22 893.672 417.524 892.263 418.131C890.868 418.739 889.777 419.575 888.99 420.638C888.217 421.701 887.83 422.91 887.83 424.263C887.83 425.396 888.099 426.369 888.638 427.184C889.19 427.985 889.895 428.655 890.751 429.193C891.607 429.718 892.505 430.153 893.444 430.498C894.383 430.83 895.246 431.099 896.033 431.306L900.342 432.466C901.447 432.756 902.676 433.157 904.029 433.668C905.396 434.179 906.701 434.876 907.944 435.76C909.201 436.63 910.237 437.749 911.052 439.116C911.866 440.483 912.274 442.161 912.274 444.149C912.274 446.442 911.673 448.513 910.472 450.364C909.284 452.214 907.544 453.685 905.251 454.776C902.973 455.867 900.204 456.413 896.945 456.413C893.907 456.413 891.276 455.922 889.052 454.942C886.843 453.961 885.103 452.594 883.832 450.84C882.575 449.087 881.864 447.05 881.699 444.729H887.002C887.14 446.331 887.678 447.657 888.617 448.707C889.57 449.743 890.772 450.516 892.222 451.027C893.686 451.524 895.26 451.773 896.945 451.773C898.906 451.773 900.667 451.455 902.227 450.82C903.788 450.171 905.024 449.273 905.935 448.127C906.846 446.967 907.302 445.613 907.302 444.067C907.302 442.658 906.909 441.512 906.121 440.628C905.334 439.744 904.299 439.026 903.014 438.474C901.73 437.921 900.342 437.438 898.85 437.024L893.63 435.532C890.316 434.579 887.692 433.219 885.759 431.451C883.825 429.684 882.859 427.37 882.859 424.512C882.859 422.136 883.501 420.065 884.785 418.297C886.083 416.516 887.823 415.135 890.005 414.154C892.201 413.16 894.652 412.663 897.359 412.663C900.093 412.663 902.524 413.153 904.651 414.133C906.777 415.1 908.462 416.426 909.705 418.111C910.962 419.796 911.625 421.708 911.694 423.849H906.722Z" fill="#152539"/>
</g>
<path d="M543.296 584.845C543.48 584.983 543.741 584.946 543.879 584.761C544.017 584.577 543.979 584.316 543.795 584.178L543.545 584.512L543.296 584.845ZM436.986 504.433C436.758 504.465 436.6 504.677 436.633 504.904L437.168 508.616C437.201 508.844 437.412 509.002 437.64 508.969C437.867 508.936 438.025 508.725 437.993 508.497L437.517 505.198L440.816 504.722C441.044 504.69 441.202 504.478 441.169 504.251C441.136 504.023 440.925 503.865 440.697 503.898L436.986 504.433ZM543.545 584.512L543.795 584.178L437.295 504.511L437.045 504.845L436.796 505.179L543.296 584.845L543.545 584.512Z" fill="#152539"/>
<path d="M553.292 593.8C553.656 593.8 553.972 593.86 554.24 593.98C554.512 594.1 554.72 594.272 554.864 594.496C555.008 594.72 555.08 594.986 555.08 595.294C555.08 595.598 555.008 595.864 554.864 596.092C554.72 596.316 554.512 596.488 554.24 596.608C553.972 596.728 553.656 596.788 553.292 596.788H552.344V598H551.564V593.8H553.292ZM553.256 596.128C553.596 596.128 553.854 596.056 554.03 595.912C554.206 595.768 554.294 595.562 554.294 595.294C554.294 595.026 554.206 594.82 554.03 594.676C553.854 594.532 553.596 594.46 553.256 594.46H552.344V596.128H553.256ZM559.507 598L558.649 596.77C558.613 596.774 558.559 596.776 558.487 596.776H557.539V598H556.759V593.8H558.487C558.851 593.8 559.167 593.86 559.435 593.98C559.707 594.1 559.915 594.272 560.059 594.496C560.203 594.72 560.275 594.986 560.275 595.294C560.275 595.61 560.197 595.882 560.041 596.11C559.889 596.338 559.669 596.508 559.381 596.62L560.347 598H559.507ZM559.489 595.294C559.489 595.026 559.401 594.82 559.225 594.676C559.049 594.532 558.791 594.46 558.451 594.46H557.539V596.134H558.451C558.791 596.134 559.049 596.062 559.225 595.918C559.401 595.77 559.489 595.562 559.489 595.294ZM564.01 598.06C563.582 598.06 563.196 597.968 562.852 597.784C562.508 597.596 562.238 597.338 562.042 597.01C561.846 596.678 561.748 596.308 561.748 595.9C561.748 595.492 561.846 595.124 562.042 594.796C562.238 594.464 562.508 594.206 562.852 594.022C563.196 593.834 563.582 593.74 564.01 593.74C564.438 593.74 564.824 593.834 565.168 594.022C565.512 594.206 565.782 594.462 565.978 594.79C566.174 595.118 566.272 595.488 566.272 595.9C566.272 596.312 566.174 596.682 565.978 597.01C565.782 597.338 565.512 597.596 565.168 597.784C564.824 597.968 564.438 598.06 564.01 598.06ZM564.01 597.376C564.29 597.376 564.542 597.314 564.766 597.19C564.99 597.062 565.166 596.886 565.294 596.662C565.422 596.434 565.486 596.18 565.486 595.9C565.486 595.62 565.422 595.368 565.294 595.144C565.166 594.916 564.99 594.74 564.766 594.616C564.542 594.488 564.29 594.424 564.01 594.424C563.73 594.424 563.478 594.488 563.254 594.616C563.03 594.74 562.854 594.916 562.726 595.144C562.598 595.368 562.534 595.62 562.534 595.9C562.534 596.18 562.598 596.434 562.726 596.662C562.854 596.886 563.03 597.062 563.254 597.19C563.478 597.314 563.73 597.376 564.01 597.376ZM567.999 593.8H569.835C570.283 593.8 570.681 593.888 571.029 594.064C571.377 594.236 571.647 594.482 571.839 594.802C572.031 595.118 572.127 595.484 572.127 595.9C572.127 596.316 572.031 596.684 571.839 597.004C571.647 597.32 571.377 597.566 571.029 597.742C570.681 597.914 570.283 598 569.835 598H567.999V593.8ZM569.799 597.34C570.107 597.34 570.377 597.282 570.609 597.166C570.845 597.046 571.025 596.878 571.149 596.662C571.277 596.442 571.341 596.188 571.341 595.9C571.341 595.612 571.277 595.36 571.149 595.144C571.025 594.924 570.845 594.756 570.609 594.64C570.377 594.52 570.107 594.46 569.799 594.46H568.779V597.34H569.799ZM575.662 598.06C575.082 598.06 574.63 597.898 574.306 597.574C573.982 597.246 573.82 596.778 573.82 596.17V593.8H574.6V596.14C574.6 596.964 574.956 597.376 575.668 597.376C576.376 597.376 576.73 596.964 576.73 596.14V593.8H577.498V596.17C577.498 596.778 577.336 597.246 577.012 597.574C576.692 597.898 576.242 598.06 575.662 598.06ZM581.434 598.06C581.01 598.06 580.626 597.968 580.282 597.784C579.942 597.596 579.674 597.338 579.478 597.01C579.286 596.682 579.19 596.312 579.19 595.9C579.19 595.488 579.288 595.118 579.484 594.79C579.68 594.462 579.948 594.206 580.288 594.022C580.632 593.834 581.016 593.74 581.44 593.74C581.784 593.74 582.098 593.8 582.382 593.92C582.666 594.04 582.906 594.214 583.102 594.442L582.598 594.916C582.294 594.588 581.92 594.424 581.476 594.424C581.188 594.424 580.93 594.488 580.702 594.616C580.474 594.74 580.296 594.914 580.168 595.138C580.04 595.362 579.976 595.616 579.976 595.9C579.976 596.184 580.04 596.438 580.168 596.662C580.296 596.886 580.474 597.062 580.702 597.19C580.93 597.314 581.188 597.376 581.476 597.376C581.92 597.376 582.294 597.21 582.598 596.878L583.102 597.358C582.906 597.586 582.664 597.76 582.376 597.88C582.092 598 581.778 598.06 581.434 598.06ZM585.555 594.46H584.163V593.8H587.727V594.46H586.335V598H585.555V594.46Z" fill="#152539"/>
<path d="M375.447 244.863C375.572 244.669 375.516 244.412 375.322 244.287C375.128 244.163 374.871 244.219 374.746 244.412L375.097 244.638L375.447 244.863ZM321.356 327.726C321.405 327.951 321.627 328.094 321.852 328.045L325.516 327.247C325.741 327.199 325.884 326.977 325.835 326.752C325.786 326.527 325.564 326.384 325.339 326.433L322.082 327.142L321.373 323.885C321.324 323.66 321.102 323.517 320.877 323.566C320.653 323.615 320.51 323.837 320.559 324.062L321.356 327.726ZM375.097 244.638L374.746 244.412L321.413 327.412L321.763 327.638L322.114 327.863L375.447 244.863L375.097 244.638Z" fill="#152539"/>
<path d="M388.064 231.468H388.844V235.008H391.04V235.668H388.064V231.468ZM394.442 235.728C394.014 235.728 393.628 235.636 393.284 235.452C392.94 235.264 392.67 235.006 392.474 234.678C392.278 234.346 392.18 233.976 392.18 233.568C392.18 233.16 392.278 232.792 392.474 232.464C392.67 232.132 392.94 231.874 393.284 231.69C393.628 231.502 394.014 231.408 394.442 231.408C394.87 231.408 395.256 231.502 395.6 231.69C395.944 231.874 396.214 232.13 396.41 232.458C396.606 232.786 396.704 233.156 396.704 233.568C396.704 233.98 396.606 234.35 396.41 234.678C396.214 235.006 395.944 235.264 395.6 235.452C395.256 235.636 394.87 235.728 394.442 235.728ZM394.442 235.044C394.722 235.044 394.974 234.982 395.198 234.858C395.422 234.73 395.598 234.554 395.726 234.33C395.854 234.102 395.918 233.848 395.918 233.568C395.918 233.288 395.854 233.036 395.726 232.812C395.598 232.584 395.422 232.408 395.198 232.284C394.974 232.156 394.722 232.092 394.442 232.092C394.162 232.092 393.91 232.156 393.686 232.284C393.462 232.408 393.286 232.584 393.158 232.812C393.03 233.036 392.966 233.288 392.966 233.568C392.966 233.848 393.03 234.102 393.158 234.33C393.286 234.554 393.462 234.73 393.686 234.858C393.91 234.982 394.162 235.044 394.442 235.044ZM401.299 233.52H402.037V235.194C401.821 235.366 401.569 235.498 401.281 235.59C400.993 235.682 400.697 235.728 400.393 235.728C399.965 235.728 399.579 235.636 399.235 235.452C398.891 235.264 398.621 235.006 398.425 234.678C398.229 234.35 398.131 233.98 398.131 233.568C398.131 233.156 398.229 232.786 398.425 232.458C398.621 232.13 398.891 231.874 399.235 231.69C399.583 231.502 399.973 231.408 400.405 231.408C400.757 231.408 401.077 231.466 401.365 231.582C401.653 231.698 401.895 231.868 402.091 232.092L401.599 232.572C401.279 232.252 400.893 232.092 400.441 232.092C400.145 232.092 399.881 232.154 399.649 232.278C399.421 232.402 399.241 232.576 399.109 232.8C398.981 233.024 398.917 233.28 398.917 233.568C398.917 233.848 398.981 234.1 399.109 234.324C399.241 234.548 399.421 234.724 399.649 234.852C399.881 234.98 400.143 235.044 400.435 235.044C400.763 235.044 401.051 234.972 401.299 234.828V233.52ZM405.927 235.728C405.499 235.728 405.113 235.636 404.769 235.452C404.425 235.264 404.155 235.006 403.959 234.678C403.763 234.346 403.665 233.976 403.665 233.568C403.665 233.16 403.763 232.792 403.959 232.464C404.155 232.132 404.425 231.874 404.769 231.69C405.113 231.502 405.499 231.408 405.927 231.408C406.355 231.408 406.741 231.502 407.085 231.69C407.429 231.874 407.699 232.13 407.895 232.458C408.091 232.786 408.189 233.156 408.189 233.568C408.189 233.98 408.091 234.35 407.895 234.678C407.699 235.006 407.429 235.264 407.085 235.452C406.741 235.636 406.355 235.728 405.927 235.728ZM405.927 235.044C406.207 235.044 406.459 234.982 406.683 234.858C406.907 234.73 407.083 234.554 407.211 234.33C407.339 234.102 407.403 233.848 407.403 233.568C407.403 233.288 407.339 233.036 407.211 232.812C407.083 232.584 406.907 232.408 406.683 232.284C406.459 232.156 406.207 232.092 405.927 232.092C405.647 232.092 405.395 232.156 405.171 232.284C404.947 232.408 404.771 232.584 404.643 232.812C404.515 233.036 404.451 233.288 404.451 233.568C404.451 233.848 404.515 234.102 404.643 234.33C404.771 234.554 404.947 234.73 405.171 234.858C405.395 234.982 405.647 235.044 405.927 235.044ZM413.774 235.668L413.768 232.884L412.388 235.188H412.04L410.66 232.92V235.668H409.916V231.468H410.558L412.226 234.252L413.864 231.468H414.506L414.512 235.668H413.774ZM419.271 234.696H417.171L416.757 235.668H415.953L417.843 231.468H418.611L420.507 235.668H419.691L419.271 234.696ZM419.013 234.084L418.221 232.248L417.435 234.084H419.013ZM424.689 235.668L423.831 234.438C423.795 234.442 423.741 234.444 423.669 234.444H422.721V235.668H421.941V231.468H423.669C424.033 231.468 424.349 231.528 424.617 231.648C424.889 231.768 425.097 231.94 425.241 232.164C425.385 232.388 425.457 232.654 425.457 232.962C425.457 233.278 425.379 233.55 425.223 233.778C425.071 234.006 424.851 234.176 424.563 234.288L425.529 235.668H424.689ZM424.671 232.962C424.671 232.694 424.583 232.488 424.407 232.344C424.231 232.2 423.973 232.128 423.633 232.128H422.721V233.802H423.633C423.973 233.802 424.231 233.73 424.407 233.586C424.583 233.438 424.671 233.23 424.671 232.962ZM428.675 233.91L428.009 234.594V235.668H427.229V231.468H428.009V233.622L430.085 231.468H430.961L429.197 233.346L431.069 235.668H430.157L428.675 233.91Z" fill="#152539"/>
<path d="M554.981 244.886C555.101 244.69 555.04 244.434 554.844 244.313C554.648 244.192 554.392 244.254 554.271 244.45L554.626 244.668L554.981 244.886ZM504.221 326.098C504.274 326.322 504.499 326.46 504.723 326.407L508.37 325.536C508.594 325.483 508.732 325.258 508.679 325.034C508.625 324.811 508.401 324.672 508.177 324.726L504.935 325.499L504.161 322.257C504.108 322.033 503.883 321.895 503.659 321.948C503.435 322.002 503.297 322.227 503.35 322.45L504.221 326.098ZM554.626 244.668L554.271 244.45L504.271 325.783L504.626 326.001L504.981 326.22L554.981 244.886L554.626 244.668Z" fill="#152539"/>
<path d="M575.036 231.468L573.644 235.668H572.816L571.778 232.56L570.722 235.668H569.888L568.496 231.468H569.306L570.35 234.66L571.436 231.468H572.156L573.218 234.678L574.292 231.468H575.036ZM578.486 235.728C578.058 235.728 577.672 235.636 577.328 235.452C576.984 235.264 576.714 235.006 576.518 234.678C576.322 234.346 576.224 233.976 576.224 233.568C576.224 233.16 576.322 232.792 576.518 232.464C576.714 232.132 576.984 231.874 577.328 231.69C577.672 231.502 578.058 231.408 578.486 231.408C578.914 231.408 579.3 231.502 579.644 231.69C579.988 231.874 580.258 232.13 580.454 232.458C580.65 232.786 580.748 233.156 580.748 233.568C580.748 233.98 580.65 234.35 580.454 234.678C580.258 235.006 579.988 235.264 579.644 235.452C579.3 235.636 578.914 235.728 578.486 235.728ZM578.486 235.044C578.766 235.044 579.018 234.982 579.242 234.858C579.466 234.73 579.642 234.554 579.77 234.33C579.898 234.102 579.962 233.848 579.962 233.568C579.962 233.288 579.898 233.036 579.77 232.812C579.642 232.584 579.466 232.408 579.242 232.284C579.018 232.156 578.766 232.092 578.486 232.092C578.206 232.092 577.954 232.156 577.73 232.284C577.506 232.408 577.33 232.584 577.202 232.812C577.074 233.036 577.01 233.288 577.01 233.568C577.01 233.848 577.074 234.102 577.202 234.33C577.33 234.554 577.506 234.73 577.73 234.858C577.954 234.982 578.206 235.044 578.486 235.044ZM585.223 235.668L584.365 234.438C584.329 234.442 584.275 234.444 584.203 234.444H583.255V235.668H582.475V231.468H584.203C584.567 231.468 584.883 231.528 585.151 231.648C585.423 231.768 585.631 231.94 585.775 232.164C585.919 232.388 585.991 232.654 585.991 232.962C585.991 233.278 585.913 233.55 585.757 233.778C585.605 234.006 585.385 234.176 585.097 234.288L586.063 235.668H585.223ZM585.205 232.962C585.205 232.694 585.117 232.488 584.941 232.344C584.765 232.2 584.507 232.128 584.167 232.128H583.255V233.802H584.167C584.507 233.802 584.765 233.73 584.941 233.586C585.117 233.438 585.205 233.23 585.205 232.962ZM587.764 231.468H589.6C590.048 231.468 590.446 231.556 590.794 231.732C591.142 231.904 591.412 232.15 591.604 232.47C591.796 232.786 591.892 233.152 591.892 233.568C591.892 233.984 591.796 234.352 591.604 234.672C591.412 234.988 591.142 235.234 590.794 235.41C590.446 235.582 590.048 235.668 589.6 235.668H587.764V231.468ZM589.564 235.008C589.872 235.008 590.142 234.95 590.374 234.834C590.61 234.714 590.79 234.546 590.914 234.33C591.042 234.11 591.106 233.856 591.106 233.568C591.106 233.28 591.042 233.028 590.914 232.812C590.79 232.592 590.61 232.424 590.374 232.308C590.142 232.188 589.872 232.128 589.564 232.128H588.544V235.008H589.564ZM597.479 235.668L597.473 232.884L596.093 235.188H595.745L594.365 232.92V235.668H593.621V231.468H594.263L595.931 234.252L597.569 231.468H598.211L598.217 235.668H597.479ZM602.975 234.696H600.875L600.461 235.668H599.657L601.547 231.468H602.315L604.211 235.668H603.395L602.975 234.696ZM602.717 234.084L601.925 232.248L601.139 234.084H602.717ZM608.393 235.668L607.535 234.438C607.499 234.442 607.445 234.444 607.373 234.444H606.425V235.668H605.645V231.468H607.373C607.737 231.468 608.053 231.528 608.321 231.648C608.593 231.768 608.801 231.94 608.945 232.164C609.089 232.388 609.161 232.654 609.161 232.962C609.161 233.278 609.083 233.55 608.927 233.778C608.775 234.006 608.555 234.176 608.267 234.288L609.233 235.668H608.393ZM608.375 232.962C608.375 232.694 608.287 232.488 608.111 232.344C607.935 232.2 607.677 232.128 607.337 232.128H606.425V233.802H607.337C607.677 233.802 607.935 233.73 608.111 233.586C608.287 233.438 608.375 233.23 608.375 232.962ZM612.38 233.91L611.714 234.594V235.668H610.934V231.468H611.714V233.622L613.79 231.468H614.666L612.902 233.346L614.774 235.668H613.862L612.38 233.91Z" fill="#152539"/>
<path d="M808.564 593.468H809.344V597.008H811.54V597.668H808.564V593.468ZM815.809 596.696H813.709L813.295 597.668H812.491L814.381 593.468H815.149L817.045 597.668H816.229L815.809 596.696ZM815.551 596.084L814.759 594.248L813.973 596.084H815.551ZM821.455 595.484C821.687 595.56 821.871 595.688 822.007 595.868C822.143 596.044 822.211 596.264 822.211 596.528C822.211 596.892 822.071 597.174 821.791 597.374C821.511 597.57 821.103 597.668 820.567 597.668H818.479V593.468H820.447C820.943 593.468 821.325 593.566 821.593 593.762C821.861 593.954 821.995 594.22 821.995 594.56C821.995 594.768 821.947 594.952 821.851 595.112C821.755 595.272 821.623 595.396 821.455 595.484ZM819.259 594.08V595.238H820.363C820.635 595.238 820.843 595.19 820.987 595.094C821.135 594.994 821.209 594.85 821.209 594.662C821.209 594.47 821.135 594.326 820.987 594.23C820.843 594.13 820.635 594.08 820.363 594.08H819.259ZM820.519 597.056C821.123 597.056 821.425 596.854 821.425 596.45C821.425 596.046 821.123 595.844 820.519 595.844H819.259V597.056H820.519ZM827.094 597.014V597.668H823.944V593.468H827.01V594.122H824.724V595.214H826.752V595.856H824.724V597.014H827.094ZM828.863 593.468H829.643V597.008H831.839V597.668H828.863V593.468ZM837.875 597.728C837.447 597.728 837.061 597.636 836.717 597.452C836.373 597.264 836.103 597.006 835.907 596.678C835.711 596.346 835.613 595.976 835.613 595.568C835.613 595.16 835.711 594.792 835.907 594.464C836.103 594.132 836.373 593.874 836.717 593.69C837.061 593.502 837.447 593.408 837.875 593.408C838.303 593.408 838.689 593.502 839.033 593.69C839.377 593.874 839.647 594.13 839.843 594.458C840.039 594.786 840.137 595.156 840.137 595.568C840.137 595.98 840.039 596.35 839.843 596.678C839.647 597.006 839.377 597.264 839.033 597.452C838.689 597.636 838.303 597.728 837.875 597.728ZM837.875 597.044C838.155 597.044 838.407 596.982 838.631 596.858C838.855 596.73 839.031 596.554 839.159 596.33C839.287 596.102 839.351 595.848 839.351 595.568C839.351 595.288 839.287 595.036 839.159 594.812C839.031 594.584 838.855 594.408 838.631 594.284C838.407 594.156 838.155 594.092 837.875 594.092C837.595 594.092 837.343 594.156 837.119 594.284C836.895 594.408 836.719 594.584 836.591 594.812C836.463 595.036 836.399 595.288 836.399 595.568C836.399 595.848 836.463 596.102 836.591 596.33C836.719 596.554 836.895 596.73 837.119 596.858C837.343 596.982 837.595 597.044 837.875 597.044ZM843.592 593.468C843.956 593.468 844.272 593.528 844.54 593.648C844.812 593.768 845.02 593.94 845.164 594.164C845.308 594.388 845.38 594.654 845.38 594.962C845.38 595.266 845.308 595.532 845.164 595.76C845.02 595.984 844.812 596.156 844.54 596.276C844.272 596.396 843.956 596.456 843.592 596.456H842.644V597.668H841.864V593.468H843.592ZM843.556 595.796C843.896 595.796 844.154 595.724 844.33 595.58C844.506 595.436 844.594 595.23 844.594 594.962C844.594 594.694 844.506 594.488 844.33 594.344C844.154 594.2 843.896 594.128 843.556 594.128H842.644V595.796H843.556ZM847.788 594.128H846.396V593.468H849.96V594.128H848.568V597.668H847.788V594.128ZM851.445 593.468H852.225V597.668H851.445V593.468ZM856.224 597.728C855.796 597.728 855.41 597.636 855.066 597.452C854.722 597.264 854.452 597.006 854.256 596.678C854.06 596.346 853.962 595.976 853.962 595.568C853.962 595.16 854.06 594.792 854.256 594.464C854.452 594.132 854.722 593.874 855.066 593.69C855.41 593.502 855.796 593.408 856.224 593.408C856.652 593.408 857.038 593.502 857.382 593.69C857.726 593.874 857.996 594.13 858.192 594.458C858.388 594.786 858.486 595.156 858.486 595.568C858.486 595.98 858.388 596.35 858.192 596.678C857.996 597.006 857.726 597.264 857.382 597.452C857.038 597.636 856.652 597.728 856.224 597.728ZM856.224 597.044C856.504 597.044 856.756 596.982 856.98 596.858C857.204 596.73 857.38 596.554 857.508 596.33C857.636 596.102 857.7 595.848 857.7 595.568C857.7 595.288 857.636 595.036 857.508 594.812C857.38 594.584 857.204 594.408 856.98 594.284C856.756 594.156 856.504 594.092 856.224 594.092C855.944 594.092 855.692 594.156 855.468 594.284C855.244 594.408 855.068 594.584 854.94 594.812C854.812 595.036 854.748 595.288 854.748 595.568C854.748 595.848 854.812 596.102 854.94 596.33C855.068 596.554 855.244 596.73 855.468 596.858C855.692 596.982 855.944 597.044 856.224 597.044ZM863.944 593.468V597.668H863.302L860.986 594.824V597.668H860.212V593.468H860.854L863.17 596.312V593.468H863.944ZM867.272 597.728C866.948 597.728 866.634 597.682 866.33 597.59C866.03 597.498 865.792 597.376 865.616 597.224L865.886 596.618C866.058 596.754 866.268 596.866 866.516 596.954C866.768 597.038 867.02 597.08 867.272 597.08C867.584 597.08 867.816 597.03 867.968 596.93C868.124 596.83 868.202 596.698 868.202 596.534C868.202 596.414 868.158 596.316 868.07 596.24C867.986 596.16 867.878 596.098 867.746 596.054C867.614 596.01 867.434 595.96 867.206 595.904C866.886 595.828 866.626 595.752 866.426 595.676C866.23 595.6 866.06 595.482 865.916 595.322C865.776 595.158 865.706 594.938 865.706 594.662C865.706 594.43 865.768 594.22 865.892 594.032C866.02 593.84 866.21 593.688 866.462 593.576C866.718 593.464 867.03 593.408 867.398 593.408C867.654 593.408 867.906 593.44 868.154 593.504C868.402 593.568 868.616 593.66 868.796 593.78L868.55 594.386C868.366 594.278 868.174 594.196 867.974 594.14C867.774 594.084 867.58 594.056 867.392 594.056C867.084 594.056 866.854 594.108 866.702 594.212C866.554 594.316 866.48 594.454 866.48 594.626C866.48 594.746 866.522 594.844 866.606 594.92C866.694 594.996 866.804 595.056 866.936 595.1C867.068 595.144 867.248 595.194 867.476 595.25C867.788 595.322 868.044 595.398 868.244 595.478C868.444 595.554 868.614 595.672 868.754 595.832C868.898 595.992 868.97 596.208 868.97 596.48C868.97 596.712 868.906 596.922 868.778 597.11C868.654 597.298 868.464 597.448 868.208 597.56C867.952 597.672 867.64 597.728 867.272 597.728Z" fill="#152539"/>
<path d="M796.171 590.386C796.383 590.475 796.628 590.376 796.717 590.164C796.807 589.952 796.707 589.708 796.495 589.618L796.333 590.002L796.171 590.386ZM674.51 538.283C674.296 538.369 674.194 538.612 674.281 538.826L675.693 542.299C675.78 542.513 676.023 542.615 676.236 542.528C676.449 542.442 676.552 542.199 676.465 541.986L675.209 538.898L678.297 537.642C678.511 537.556 678.613 537.313 678.526 537.099C678.44 536.886 678.197 536.784 677.984 536.87L674.51 538.283ZM796.333 590.002L796.495 589.618L674.829 538.285L674.667 538.669L674.505 539.053L796.171 590.386L796.333 590.002Z" fill="#152539"/>
<path d="M795.982 590.226C796.105 590.42 796.363 590.477 796.557 590.353C796.751 590.23 796.808 589.972 796.685 589.778L796.333 590.002L795.982 590.226ZM741.423 503.262C741.199 503.212 740.976 503.354 740.926 503.578L740.115 507.24C740.065 507.464 740.207 507.687 740.431 507.737C740.656 507.786 740.879 507.645 740.928 507.42L741.65 504.166L744.904 504.887C745.129 504.937 745.351 504.795 745.401 504.57C745.451 504.346 745.309 504.123 745.085 504.073L741.423 503.262ZM796.333 590.002L796.685 589.778L741.685 503.445L741.333 503.669L740.982 503.893L795.982 590.226L796.333 590.002Z" fill="#152539"/>
</g>
</g>
<defs>
<clipPath id="clip0_4007_167917">
<rect width="1200" height="800" fill="white"/>
</clipPath>
<clipPath id="clip1_4007_167917">
<rect width="1200" height="800" fill="white"/>
</clipPath>
</defs>
</svg>
