<svg width="346" height="346" viewBox="0 0 346 346" fill="none" xmlns="http://www.w3.org/2000/svg">
<g filter="url(#filter0_d_4017_28103)">
<rect x="44.9521" y="37.4602" width="256" height="256" rx="4" fill="#121215"/>
<path d="M68.9553 104.517C90.7271 106.841 126.496 106.841 148.268 104.517L276.952 90.7749C255.816 88.4776 234.353 86.1757 212.82 83.8761L276.952 77.0278C255.18 74.6615 219.8 74.6613 197.639 76.9861L172.976 79.6276C164.722 78.7479 156.48 77.8695 148.265 76.9923C148.249 76.9906 148.233 76.9892 148.217 76.9875C148.233 76.9858 148.249 76.9844 148.265 76.9827L276.952 63.2404C255.18 60.874 219.8 60.8738 197.639 63.1987C154.753 67.7924 68.9998 76.9882 68.9998 76.9882C68.9854 76.9897 68.9697 76.9908 68.9553 76.9923L133.266 83.8816L68.9521 90.7695C90.7236 93.0943 126.493 93.0942 148.265 90.7695L172.957 88.1328L197.443 90.7551L68.9553 104.517Z" fill="#FAFAFA"/>
<path d="M276.949 145.317C255.177 147.642 219.408 147.642 197.636 145.317L68.9521 131.575C90.0884 129.278 111.551 126.976 133.085 124.676L68.9521 117.828C90.7239 115.462 126.104 115.461 148.265 117.786L172.928 120.428C181.183 119.548 189.425 118.67 197.639 117.792C197.655 117.791 197.671 117.789 197.687 117.788C197.671 117.786 197.655 117.784 197.639 117.783L68.9521 104.04C90.7239 101.674 126.104 101.674 148.265 103.999C191.151 108.592 276.905 117.788 276.905 117.788C276.919 117.79 276.935 117.791 276.949 117.792L212.639 124.682L276.952 131.57C255.181 133.894 219.411 133.894 197.639 131.57L172.947 128.933L148.462 131.555L276.949 145.317Z" fill="#FAFAFA"/>
<path d="M68.9553 186.116C90.7271 188.441 126.496 188.441 148.268 186.116L276.952 172.375C255.816 170.078 234.353 167.776 212.82 165.476L276.952 158.628C255.18 156.261 219.8 156.261 197.639 158.586L172.976 161.227C164.722 160.348 156.48 159.469 148.265 158.592C148.249 158.59 148.233 158.589 148.217 158.587C148.233 158.586 148.249 158.584 148.265 158.583L276.952 144.84C255.18 142.474 219.8 142.474 197.639 144.799C154.753 149.392 68.9998 158.588 68.9998 158.588C68.9854 158.59 68.9697 158.591 68.9553 158.592L133.266 165.481L68.9521 172.369C90.7236 174.694 126.493 174.694 148.265 172.369L172.957 169.733L197.443 172.355L68.9553 186.116Z" fill="#FAFAFA"/>
<path d="M276.949 226.916C255.177 229.241 219.408 229.241 197.636 226.916L68.9521 213.175C90.0884 210.878 111.551 208.576 133.085 206.276L68.9521 199.428C90.7239 197.061 126.104 197.061 148.265 199.386L172.928 202.027C181.183 201.148 189.425 200.269 197.639 199.392C197.655 199.391 197.671 199.389 197.687 199.387C197.671 199.386 197.655 199.384 197.639 199.383L68.9521 185.64C90.7239 183.274 126.104 183.274 148.265 185.599C191.151 190.192 276.905 199.388 276.905 199.388C276.919 199.39 276.935 199.391 276.949 199.392L212.639 206.281L276.952 213.169C255.181 215.494 219.411 215.494 197.639 213.169L172.947 210.533L148.462 213.155L276.949 226.916Z" fill="#FAFAFA"/>
<path d="M68.9553 267.717C90.7271 270.041 126.496 270.041 148.268 267.717L276.952 253.975C255.816 251.678 234.353 249.376 212.82 247.076L276.952 240.228C255.18 237.861 219.8 237.861 197.639 240.186L172.976 242.828C164.722 241.948 156.48 241.069 148.265 240.192C148.249 240.191 148.233 240.189 148.217 240.187C148.233 240.186 148.249 240.184 148.265 240.183L276.952 226.44C255.18 224.074 219.8 224.074 197.639 226.399C154.753 230.992 68.9998 240.188 68.9998 240.188C68.9854 240.19 68.9697 240.191 68.9553 240.192L133.266 247.082L68.9521 253.969C90.7236 256.294 126.493 256.294 148.265 253.969L172.957 251.333L197.443 253.955L68.9553 267.717Z" fill="#FAFAFA"/>
</g>
<defs>
<filter id="filter0_d_4017_28103" x="-0.000228882" y="-0.000109196" width="345.905" height="345.905" filterUnits="userSpaceOnUse" color-interpolation-filters="sRGB">
<feFlood flood-opacity="0" result="BackgroundImageFix"/>
<feColorMatrix in="SourceAlpha" type="matrix" values="0 0 0 0 0 0 0 0 0 0 0 0 0 0 0 0 0 0 127 0" result="hardAlpha"/>
<feOffset dy="7.49206"/>
<feGaussianBlur stdDeviation="22.4762"/>
<feColorMatrix type="matrix" values="0 0 0 0 0.12549 0 0 0 0 0.164706 0 0 0 0 0.258824 0 0 0 0.06 0"/>
<feBlend mode="normal" in2="BackgroundImageFix" result="effect1_dropShadow_4017_28103"/>
<feBlend mode="normal" in="SourceGraphic" in2="effect1_dropShadow_4017_28103" result="shape"/>
</filter>
</defs>
</svg>
