<svg width="346" height="346" viewBox="0 0 346 346" fill="none" xmlns="http://www.w3.org/2000/svg">
<g filter="url(#filter0_d_4017_28230)">
<rect x="44.9521" y="37.4602" width="256" height="256" rx="4" fill="#121215"/>
<path d="M87.9134 225.315C87.9443 225.277 87.9439 225.223 87.9125 225.186C85.9159 222.864 82.6847 222.885 80.7109 225.25L68.9904 239.297C68.9597 239.334 68.9593 239.388 68.9904 239.424C69.0887 239.54 69.1905 239.65 69.2941 239.755C69.3036 239.764 69.311 239.776 69.3163 239.788C69.3537 239.876 69.4037 239.961 69.4677 240.038L74.756 246.375C74.787 246.412 74.787 246.466 74.756 246.503L68.9904 253.413C68.9597 253.449 68.9598 253.503 68.9907 253.54C70.9866 255.906 74.1838 255.884 76.1933 253.518L78.3753 250.896C78.4152 250.847 78.4889 250.847 78.529 250.895L80.7109 253.512C80.7134 253.515 80.7134 253.519 80.7109 253.522L68.9904 267.569C68.9597 267.606 68.9598 267.66 68.9907 267.696C70.9865 270.062 74.1838 270.041 76.1933 267.675L87.9134 253.586C87.9443 253.549 87.9443 253.495 87.9129 253.458C87.806 253.334 87.6954 253.217 87.5819 253.106C87.58 253.104 87.5783 253.102 87.5768 253.1C87.5757 253.098 87.5747 253.096 87.5738 253.094C87.5379 253.016 87.4916 252.941 87.4345 252.873L82.1361 246.503C82.1053 246.466 82.1053 246.412 82.1361 246.375L87.9134 239.431C87.9443 239.394 87.9439 239.339 87.9125 239.303C85.9159 236.98 82.6847 237.001 80.7109 239.367L78.529 241.982C78.4889 242.03 78.4153 242.029 78.3753 241.981L76.265 239.445C76.2342 239.408 76.2342 239.354 76.265 239.317L87.9134 225.315Z" fill="#FAFAFA"/>
<path d="M87.9134 213.606C87.9443 213.643 87.9439 213.697 87.9125 213.734C85.9159 216.057 82.6847 216.035 80.7109 213.67L68.9904 199.623C68.9597 199.586 68.9593 199.533 68.9904 199.496C69.0887 199.38 69.1905 199.27 69.2941 199.166C69.3036 199.156 69.311 199.145 69.3163 199.133C69.3537 199.044 69.4037 198.96 69.4677 198.883L74.756 192.546C74.787 192.508 74.787 192.454 74.756 192.417L68.9904 185.508C68.9597 185.471 68.9598 185.417 68.9907 185.38C70.9866 183.015 74.1838 183.036 76.1933 185.402L78.3753 188.025C78.4152 188.073 78.4889 188.073 78.529 188.025L80.7109 185.408C80.7134 185.405 80.7134 185.402 80.7109 185.398L68.9904 171.352C68.9597 171.315 68.9598 171.261 68.9907 171.224C70.9865 168.859 74.1838 168.879 76.1933 171.245L87.9134 185.334C87.9443 185.371 87.9443 185.425 87.9129 185.462C87.806 185.586 87.6954 185.704 87.5819 185.815C87.58 185.816 87.5783 185.818 87.5768 185.821C87.5757 185.822 87.5747 185.824 87.5738 185.826C87.5379 185.904 87.4916 185.979 87.4345 186.048L82.1361 192.417C82.1053 192.455 82.1053 192.508 82.1361 192.545L87.9134 199.49C87.9443 199.527 87.9439 199.581 87.9125 199.618C85.9159 201.941 82.6847 201.919 80.7109 199.554L78.529 196.939C78.4889 196.891 78.4153 196.891 78.3753 196.939L76.265 199.475C76.2342 199.512 76.2342 199.566 76.265 199.603L87.9134 213.606Z" fill="#FAFAFA"/>
<path d="M87.9134 117.315C87.9443 117.277 87.9439 117.223 87.9125 117.186C85.9159 114.864 82.6847 114.885 80.7109 117.25L68.9904 131.297C68.9597 131.334 68.9593 131.388 68.9904 131.424C69.0887 131.54 69.1905 131.65 69.2941 131.755C69.3036 131.764 69.311 131.776 69.3163 131.788C69.3537 131.876 69.4037 131.961 69.4677 132.038L74.756 138.375C74.787 138.412 74.787 138.466 74.756 138.503L68.9904 145.413C68.9597 145.449 68.9598 145.503 68.9907 145.54C70.9866 147.906 74.1838 147.884 76.1933 145.518L78.3753 142.896C78.4152 142.847 78.4889 142.847 78.529 142.895L80.7109 145.512C80.7134 145.515 80.7134 145.519 80.7109 145.522L68.9904 159.569C68.9597 159.606 68.9598 159.66 68.9907 159.696C70.9865 162.062 74.1838 162.041 76.1933 159.675L87.9134 145.586C87.9443 145.549 87.9443 145.495 87.9129 145.458C87.806 145.334 87.6954 145.217 87.5819 145.106C87.58 145.104 87.5783 145.102 87.5768 145.1C87.5757 145.098 87.5747 145.096 87.5738 145.094C87.5379 145.016 87.4916 144.941 87.4345 144.873L82.1361 138.503C82.1053 138.466 82.1053 138.412 82.1361 138.375L87.9134 131.431C87.9443 131.394 87.9439 131.339 87.9125 131.303C85.9159 128.98 82.6847 129.001 80.7109 131.367L78.529 133.982C78.4889 134.03 78.4153 134.029 78.3753 133.981L76.265 131.445C76.2342 131.408 76.2342 131.354 76.265 131.317L87.9134 117.315Z" fill="#FAFAFA"/>
<path d="M87.9134 105.606C87.9443 105.643 87.9439 105.697 87.9125 105.734C85.9159 108.057 82.6847 108.035 80.7109 105.67L68.9904 91.6231C68.9597 91.5862 68.9593 91.5327 68.9904 91.496C69.0887 91.3801 69.1905 91.2705 69.2941 91.1658C69.3036 91.1563 69.311 91.1449 69.3163 91.1325C69.3537 91.0441 69.4037 90.9595 69.4677 90.8828L74.756 84.5455C74.787 84.5084 74.787 84.4545 74.756 84.4174L68.9904 77.5078C68.9597 77.471 68.9598 77.4169 68.9907 77.3803C70.9866 75.0148 74.1838 75.0364 76.1933 77.4023L78.3753 80.0249C78.4152 80.0729 78.4889 80.073 78.529 80.025L80.7109 77.4082C80.7134 77.4051 80.7134 77.4015 80.7109 77.3984L68.9904 63.3516C68.9597 63.3147 68.9598 63.2607 68.9907 63.224C70.9865 60.8585 74.1838 60.8794 76.1933 63.2451L87.9134 77.3344C87.9443 77.3715 87.9443 77.4254 87.9129 77.462C87.806 77.5863 87.6954 77.7037 87.5819 77.8146C87.58 77.8165 87.5783 77.8185 87.5768 77.8207C87.5757 77.8224 87.5747 77.8242 87.5738 77.826C87.5379 77.9042 87.4916 77.9792 87.4345 78.0479L82.1361 84.4175C82.1053 84.4546 82.1053 84.5083 82.1361 84.5454L87.9134 91.4897C87.9443 91.5268 87.9439 91.5811 87.9125 91.6178C85.9159 93.9406 82.6847 93.9193 80.7109 91.5537L78.529 88.9388C78.4889 88.8909 78.4153 88.8909 78.3753 88.9389L76.265 91.4751C76.2342 91.5122 76.2342 91.566 76.265 91.603L87.9134 105.606Z" fill="#FAFAFA"/>
<path d="M114.913 63.3145C114.944 63.2774 114.944 63.2231 114.912 63.1865C112.916 60.8637 109.685 60.8849 107.711 63.2505L95.9904 77.2973C95.9597 77.3342 95.9593 77.3878 95.9904 77.4244C96.0887 77.5403 96.1905 77.6499 96.2941 77.7546C96.3036 77.7641 96.311 77.7755 96.3163 77.7879C96.3537 77.8763 96.4037 77.9609 96.4677 78.0376L101.756 84.3749C101.787 84.412 101.787 84.4659 101.756 84.503L95.9904 91.4126C95.9597 91.4494 95.9598 91.5035 95.9907 91.5402C97.9866 93.9056 101.184 93.884 103.193 91.5181L105.375 88.8955C105.415 88.8475 105.489 88.8475 105.529 88.8954L107.711 91.5122C107.713 91.5153 107.713 91.5189 107.711 91.522L95.9904 105.569C95.9597 105.606 95.9598 105.66 95.9907 105.696C97.9865 108.062 101.184 108.041 103.193 105.675L114.913 91.586C114.944 91.5489 114.944 91.495 114.913 91.4584C114.806 91.3341 114.695 91.2167 114.582 91.1058C114.58 91.104 114.578 91.1019 114.577 91.0997C114.576 91.098 114.575 91.0962 114.574 91.0944C114.538 91.0162 114.492 90.9413 114.434 90.8726L109.136 84.5029C109.105 84.4659 109.105 84.4121 109.136 84.375L114.913 77.4307C114.944 77.3936 114.944 77.3393 114.912 77.3027C112.916 74.9798 109.685 75.0011 107.711 77.3667L105.529 79.9816C105.489 80.0295 105.415 80.0295 105.375 79.9815L103.265 77.4453C103.234 77.4082 103.234 77.3545 103.265 77.3174L114.913 63.3145Z" fill="#FAFAFA"/>
<path d="M114.913 159.606C114.944 159.643 114.944 159.697 114.912 159.734C112.916 162.057 109.685 162.035 107.711 159.67L95.9904 145.623C95.9597 145.586 95.9593 145.533 95.9904 145.496C96.0887 145.38 96.1905 145.27 96.2941 145.166C96.3036 145.156 96.311 145.145 96.3163 145.133C96.3537 145.044 96.4037 144.96 96.4677 144.883L101.756 138.546C101.787 138.508 101.787 138.454 101.756 138.417L95.9904 131.508C95.9597 131.471 95.9598 131.417 95.9907 131.38C97.9866 129.015 101.184 129.036 103.193 131.402L105.375 134.025C105.415 134.073 105.489 134.073 105.529 134.025L107.711 131.408C107.713 131.405 107.713 131.402 107.711 131.398L95.9904 117.352C95.9597 117.315 95.9598 117.261 95.9907 117.224C97.9865 114.859 101.184 114.879 103.193 117.245L114.913 131.334C114.944 131.371 114.944 131.425 114.913 131.462C114.806 131.586 114.695 131.704 114.582 131.815C114.58 131.816 114.578 131.818 114.577 131.821C114.576 131.822 114.575 131.824 114.574 131.826C114.538 131.904 114.492 131.979 114.434 132.048L109.136 138.417C109.105 138.455 109.105 138.508 109.136 138.545L114.913 145.49C114.944 145.527 114.944 145.581 114.912 145.618C112.916 147.941 109.685 147.919 107.711 145.554L105.529 142.939C105.489 142.891 105.415 142.891 105.375 142.939L103.265 145.475C103.234 145.512 103.234 145.566 103.265 145.603L114.913 159.606Z" fill="#FAFAFA"/>
<path d="M114.913 171.315C114.944 171.277 114.944 171.223 114.912 171.186C112.916 168.864 109.685 168.885 107.711 171.25L95.9904 185.297C95.9597 185.334 95.9593 185.388 95.9904 185.424C96.0887 185.54 96.1905 185.65 96.2941 185.755C96.3036 185.764 96.311 185.776 96.3163 185.788C96.3537 185.876 96.4037 185.961 96.4677 186.038L101.756 192.375C101.787 192.412 101.787 192.466 101.756 192.503L95.9904 199.413C95.9597 199.449 95.9598 199.503 95.9907 199.54C97.9866 201.906 101.184 201.884 103.193 199.518L105.375 196.896C105.415 196.847 105.489 196.847 105.529 196.895L107.711 199.512C107.713 199.515 107.713 199.519 107.711 199.522L95.9904 213.569C95.9597 213.606 95.9598 213.66 95.9907 213.696C97.9865 216.062 101.184 216.041 103.193 213.675L114.913 199.586C114.944 199.549 114.944 199.495 114.913 199.458C114.806 199.334 114.695 199.217 114.582 199.106C114.58 199.104 114.578 199.102 114.577 199.1C114.576 199.098 114.575 199.096 114.574 199.094C114.538 199.016 114.492 198.941 114.434 198.873L109.136 192.503C109.105 192.466 109.105 192.412 109.136 192.375L114.913 185.431C114.944 185.394 114.944 185.339 114.912 185.303C112.916 182.98 109.685 183.001 107.711 185.367L105.529 187.982C105.489 188.03 105.415 188.029 105.375 187.981L103.265 185.445C103.234 185.408 103.234 185.354 103.265 185.317L114.913 171.315Z" fill="#FAFAFA"/>
<path d="M114.913 267.606C114.944 267.643 114.944 267.698 114.912 267.734C112.916 270.057 109.685 270.035 107.711 267.67L95.9904 253.623C95.9597 253.586 95.9594 253.533 95.9903 253.496C96.0887 253.38 96.1903 253.269 96.2942 253.164C96.3036 253.154 96.311 253.143 96.3163 253.131C96.3537 253.043 96.4041 252.959 96.4677 252.883L101.756 246.546C101.787 246.509 101.787 246.455 101.756 246.418L95.9904 239.508C95.9597 239.471 95.9598 239.417 95.9907 239.38C97.9865 237.015 101.184 237.036 103.193 239.402L105.375 242.024C105.415 242.072 105.489 242.072 105.529 242.024L107.711 239.408C107.713 239.405 107.713 239.402 107.711 239.399L95.9904 225.352C95.9597 225.315 95.9598 225.261 95.9907 225.224C97.9865 222.859 101.184 222.88 103.193 225.245L114.913 239.335C114.944 239.372 114.944 239.426 114.913 239.462C114.809 239.583 114.702 239.698 114.592 239.806C114.583 239.815 114.575 239.825 114.57 239.837C114.535 239.912 114.489 239.983 114.434 240.049L109.137 246.418C109.106 246.455 109.106 246.508 109.137 246.546L114.913 253.49C114.944 253.527 114.944 253.581 114.912 253.618C112.916 255.941 109.685 255.919 107.711 253.554L105.529 250.939C105.489 250.891 105.415 250.891 105.375 250.939L103.265 253.475C103.234 253.512 103.234 253.566 103.265 253.603L114.913 267.606Z" fill="#FAFAFA"/>
<path d="M141.913 225.315C141.944 225.277 141.944 225.223 141.912 225.186C139.916 222.864 136.685 222.885 134.711 225.25L122.99 239.297C122.96 239.334 122.959 239.388 122.99 239.424C123.089 239.54 123.191 239.65 123.294 239.755C123.304 239.764 123.311 239.776 123.316 239.788C123.354 239.876 123.404 239.961 123.468 240.038L128.756 246.375C128.787 246.412 128.787 246.466 128.756 246.503L122.99 253.413C122.96 253.449 122.96 253.503 122.991 253.54C124.987 255.906 128.184 255.884 130.193 253.518L132.375 250.896C132.415 250.847 132.489 250.847 132.529 250.895L134.711 253.512C134.713 253.515 134.713 253.519 134.711 253.522L122.99 267.569C122.96 267.606 122.96 267.66 122.991 267.696C124.987 270.062 128.184 270.041 130.193 267.675L141.913 253.586C141.944 253.549 141.944 253.495 141.913 253.458C141.806 253.334 141.695 253.217 141.582 253.106C141.58 253.104 141.578 253.102 141.577 253.1C141.576 253.098 141.575 253.096 141.574 253.094C141.538 253.016 141.492 252.941 141.434 252.873L136.136 246.503C136.105 246.466 136.105 246.412 136.136 246.375L141.913 239.431C141.944 239.394 141.944 239.339 141.912 239.303C139.916 236.98 136.685 237.001 134.711 239.367L132.529 241.982C132.489 242.03 132.415 242.029 132.375 241.981L130.265 239.445C130.234 239.408 130.234 239.354 130.265 239.317L141.913 225.315Z" fill="#FAFAFA"/>
<path d="M141.913 213.606C141.944 213.643 141.944 213.697 141.912 213.734C139.916 216.057 136.685 216.035 134.711 213.67L122.99 199.623C122.96 199.586 122.959 199.533 122.99 199.496C123.089 199.38 123.191 199.27 123.294 199.166C123.304 199.156 123.311 199.145 123.316 199.133C123.354 199.044 123.404 198.96 123.468 198.883L128.756 192.546C128.787 192.508 128.787 192.454 128.756 192.417L122.99 185.508C122.96 185.471 122.96 185.417 122.991 185.38C124.987 183.015 128.184 183.036 130.193 185.402L132.375 188.025C132.415 188.073 132.489 188.073 132.529 188.025L134.711 185.408C134.713 185.405 134.713 185.402 134.711 185.398L122.99 171.352C122.96 171.315 122.96 171.261 122.991 171.224C124.987 168.859 128.184 168.879 130.193 171.245L141.913 185.334C141.944 185.371 141.944 185.425 141.913 185.462C141.806 185.586 141.695 185.704 141.582 185.815C141.58 185.816 141.578 185.818 141.577 185.821C141.576 185.822 141.575 185.824 141.574 185.826C141.538 185.904 141.492 185.979 141.434 186.048L136.136 192.417C136.105 192.455 136.105 192.508 136.136 192.545L141.913 199.49C141.944 199.527 141.944 199.581 141.912 199.618C139.916 201.941 136.685 201.919 134.711 199.554L132.529 196.939C132.489 196.891 132.415 196.891 132.375 196.939L130.265 199.475C130.234 199.512 130.234 199.566 130.265 199.603L141.913 213.606Z" fill="#FAFAFA"/>
<path d="M141.913 117.315C141.944 117.277 141.944 117.223 141.912 117.186C139.916 114.864 136.685 114.885 134.711 117.25L122.99 131.297C122.96 131.334 122.959 131.388 122.99 131.424C123.089 131.54 123.191 131.65 123.294 131.755C123.304 131.764 123.311 131.776 123.316 131.788C123.354 131.876 123.404 131.961 123.468 132.038L128.756 138.375C128.787 138.412 128.787 138.466 128.756 138.503L122.99 145.413C122.96 145.449 122.96 145.503 122.991 145.54C124.987 147.906 128.184 147.884 130.193 145.518L132.375 142.896C132.415 142.847 132.489 142.847 132.529 142.895L134.711 145.512C134.713 145.515 134.713 145.519 134.711 145.522L122.99 159.569C122.96 159.606 122.96 159.66 122.991 159.696C124.987 162.062 128.184 162.041 130.193 159.675L141.913 145.586C141.944 145.549 141.944 145.495 141.913 145.458C141.806 145.334 141.695 145.217 141.582 145.106C141.58 145.104 141.578 145.102 141.577 145.1C141.576 145.098 141.575 145.096 141.574 145.094C141.538 145.016 141.492 144.941 141.434 144.873L136.136 138.503C136.105 138.466 136.105 138.412 136.136 138.375L141.913 131.431C141.944 131.394 141.944 131.339 141.912 131.303C139.916 128.98 136.685 129.001 134.711 131.367L132.529 133.982C132.489 134.03 132.415 134.029 132.375 133.981L130.265 131.445C130.234 131.408 130.234 131.354 130.265 131.317L141.913 117.315Z" fill="#FAFAFA"/>
<path d="M141.913 105.606C141.944 105.643 141.944 105.697 141.912 105.734C139.916 108.057 136.685 108.035 134.711 105.67L122.99 91.6231C122.96 91.5862 122.959 91.5327 122.99 91.496C123.089 91.3801 123.191 91.2705 123.294 91.1658C123.304 91.1563 123.311 91.1449 123.316 91.1325C123.354 91.0441 123.404 90.9595 123.468 90.8828L128.756 84.5455C128.787 84.5084 128.787 84.4545 128.756 84.4174L122.99 77.5078C122.96 77.471 122.96 77.4169 122.991 77.3803C124.987 75.0148 128.184 75.0364 130.193 77.4023L132.375 80.0249C132.415 80.0729 132.489 80.073 132.529 80.025L134.711 77.4082C134.713 77.4051 134.713 77.4015 134.711 77.3984L122.99 63.3516C122.96 63.3147 122.96 63.2607 122.991 63.224C124.987 60.8585 128.184 60.8794 130.193 63.2451L141.913 77.3344C141.944 77.3715 141.944 77.4254 141.913 77.462C141.806 77.5863 141.695 77.7037 141.582 77.8146C141.58 77.8165 141.578 77.8185 141.577 77.8207C141.576 77.8224 141.575 77.8242 141.574 77.826C141.538 77.9042 141.492 77.9792 141.434 78.0479L136.136 84.4175C136.105 84.4546 136.105 84.5083 136.136 84.5454L141.913 91.4897C141.944 91.5268 141.944 91.5811 141.912 91.6178C139.916 93.9406 136.685 93.9193 134.711 91.5537L132.529 88.9388C132.489 88.8909 132.415 88.8909 132.375 88.9389L130.265 91.4751C130.234 91.5122 130.234 91.566 130.265 91.603L141.913 105.606Z" fill="#FAFAFA"/>
<path d="M168.913 63.3145C168.944 63.2774 168.944 63.2231 168.912 63.1865C166.916 60.8637 163.685 60.8849 161.711 63.2505L149.99 77.2973C149.96 77.3342 149.959 77.3878 149.99 77.4244C150.089 77.5403 150.191 77.6499 150.294 77.7546C150.304 77.7641 150.311 77.7755 150.316 77.7879C150.354 77.8763 150.404 77.9609 150.468 78.0376L155.756 84.3749C155.787 84.412 155.787 84.4659 155.756 84.503L149.99 91.4126C149.96 91.4494 149.96 91.5035 149.991 91.5402C151.987 93.9056 155.184 93.884 157.193 91.5181L159.375 88.8955C159.415 88.8475 159.489 88.8475 159.529 88.8954L161.711 91.5122C161.713 91.5153 161.713 91.5189 161.711 91.522L149.99 105.569C149.96 105.606 149.96 105.66 149.991 105.696C151.987 108.062 155.184 108.041 157.193 105.675L168.913 91.586C168.944 91.5489 168.944 91.495 168.913 91.4584C168.806 91.3341 168.695 91.2167 168.582 91.1058C168.58 91.104 168.578 91.1019 168.577 91.0997C168.576 91.098 168.575 91.0962 168.574 91.0944C168.538 91.0162 168.492 90.9413 168.434 90.8726L163.136 84.5029C163.105 84.4659 163.105 84.4121 163.136 84.375L168.913 77.4307C168.944 77.3936 168.944 77.3393 168.912 77.3027C166.916 74.9798 163.685 75.0011 161.711 77.3667L159.529 79.9816C159.489 80.0295 159.415 80.0295 159.375 79.9815L157.265 77.4453C157.234 77.4082 157.234 77.3545 157.265 77.3174L168.913 63.3145Z" fill="#FAFAFA"/>
<path d="M168.913 159.606C168.944 159.643 168.944 159.697 168.912 159.734C166.916 162.057 163.685 162.035 161.711 159.67L149.99 145.623C149.96 145.586 149.959 145.533 149.99 145.496C150.089 145.38 150.191 145.27 150.294 145.166C150.304 145.156 150.311 145.145 150.316 145.133C150.354 145.044 150.404 144.96 150.468 144.883L155.756 138.546C155.787 138.508 155.787 138.454 155.756 138.417L149.99 131.508C149.96 131.471 149.96 131.417 149.991 131.38C151.987 129.015 155.184 129.036 157.193 131.402L159.375 134.025C159.415 134.073 159.489 134.073 159.529 134.025L161.711 131.408C161.713 131.405 161.713 131.402 161.711 131.398L149.99 117.352C149.96 117.315 149.96 117.261 149.991 117.224C151.987 114.859 155.184 114.879 157.193 117.245L168.913 131.334C168.944 131.371 168.944 131.425 168.913 131.462C168.806 131.586 168.695 131.704 168.582 131.815C168.58 131.816 168.578 131.818 168.577 131.821C168.576 131.822 168.575 131.824 168.574 131.826C168.538 131.904 168.492 131.979 168.434 132.048L163.136 138.417C163.105 138.455 163.105 138.508 163.136 138.545L168.913 145.49C168.944 145.527 168.944 145.581 168.912 145.618C166.916 147.941 163.685 147.919 161.711 145.554L159.529 142.939C159.489 142.891 159.415 142.891 159.375 142.939L157.265 145.475C157.234 145.512 157.234 145.566 157.265 145.603L168.913 159.606Z" fill="#FAFAFA"/>
<path d="M168.913 171.315C168.944 171.277 168.944 171.223 168.912 171.186C166.916 168.864 163.685 168.885 161.711 171.25L149.99 185.297C149.96 185.334 149.959 185.388 149.99 185.424C150.089 185.54 150.191 185.65 150.294 185.755C150.304 185.764 150.311 185.776 150.316 185.788C150.354 185.876 150.404 185.961 150.468 186.038L155.756 192.375C155.787 192.412 155.787 192.466 155.756 192.503L149.99 199.413C149.96 199.449 149.96 199.503 149.991 199.54C151.987 201.906 155.184 201.884 157.193 199.518L159.375 196.896C159.415 196.847 159.489 196.847 159.529 196.895L161.711 199.512C161.713 199.515 161.713 199.519 161.711 199.522L149.99 213.569C149.96 213.606 149.96 213.66 149.991 213.696C151.987 216.062 155.184 216.041 157.193 213.675L168.913 199.586C168.944 199.549 168.944 199.495 168.913 199.458C168.806 199.334 168.695 199.217 168.582 199.106C168.58 199.104 168.578 199.102 168.577 199.1C168.576 199.098 168.575 199.096 168.574 199.094C168.538 199.016 168.492 198.941 168.434 198.873L163.136 192.503C163.105 192.466 163.105 192.412 163.136 192.375L168.913 185.431C168.944 185.394 168.944 185.339 168.912 185.303C166.916 182.98 163.685 183.001 161.711 185.367L159.529 187.982C159.489 188.03 159.415 188.029 159.375 187.981L157.265 185.445C157.234 185.408 157.234 185.354 157.265 185.317L168.913 171.315Z" fill="#FAFAFA"/>
<path d="M168.913 267.606C168.944 267.643 168.944 267.698 168.912 267.734C166.916 270.057 163.685 270.035 161.711 267.67L149.99 253.623C149.96 253.586 149.959 253.533 149.99 253.496C150.089 253.38 150.19 253.269 150.294 253.164C150.304 253.154 150.311 253.143 150.316 253.131C150.354 253.043 150.404 252.959 150.468 252.883L155.756 246.546C155.787 246.509 155.787 246.455 155.756 246.418L149.99 239.508C149.96 239.471 149.96 239.417 149.991 239.38C151.987 237.015 155.184 237.036 157.193 239.402L159.375 242.024C159.415 242.072 159.489 242.072 159.529 242.024L161.711 239.408C161.713 239.405 161.713 239.402 161.711 239.399L149.99 225.352C149.96 225.315 149.96 225.261 149.991 225.224C151.987 222.859 155.184 222.88 157.193 225.245L168.913 239.335C168.944 239.372 168.944 239.426 168.913 239.462C168.809 239.583 168.702 239.698 168.592 239.806C168.583 239.815 168.575 239.825 168.57 239.837C168.535 239.912 168.489 239.983 168.434 240.049L163.137 246.418C163.106 246.455 163.106 246.508 163.137 246.546L168.913 253.49C168.944 253.527 168.944 253.581 168.912 253.618C166.916 255.941 163.685 255.919 161.711 253.554L159.529 250.939C159.489 250.891 159.415 250.891 159.375 250.939L157.265 253.475C157.234 253.512 157.234 253.566 157.265 253.603L168.913 267.606Z" fill="#FAFAFA"/>
<path d="M195.913 225.315C195.944 225.277 195.944 225.223 195.912 225.186C193.916 222.864 190.685 222.885 188.711 225.25L176.99 239.297C176.96 239.334 176.959 239.388 176.99 239.424C177.089 239.54 177.191 239.65 177.294 239.755C177.304 239.764 177.311 239.776 177.316 239.788C177.354 239.876 177.404 239.961 177.468 240.038L182.756 246.375C182.787 246.412 182.787 246.466 182.756 246.503L176.99 253.413C176.96 253.449 176.96 253.503 176.991 253.54C178.987 255.906 182.184 255.884 184.193 253.518L186.375 250.896C186.415 250.847 186.489 250.847 186.529 250.895L188.711 253.512C188.713 253.515 188.713 253.519 188.711 253.522L176.99 267.569C176.96 267.606 176.96 267.66 176.991 267.696C178.987 270.062 182.184 270.041 184.193 267.675L195.913 253.586C195.944 253.549 195.944 253.495 195.913 253.458C195.806 253.334 195.695 253.217 195.582 253.106C195.58 253.104 195.578 253.102 195.577 253.1C195.576 253.098 195.575 253.096 195.574 253.094C195.538 253.016 195.492 252.941 195.434 252.873L190.136 246.503C190.105 246.466 190.105 246.412 190.136 246.375L195.913 239.431C195.944 239.394 195.944 239.339 195.912 239.303C193.916 236.98 190.685 237.001 188.711 239.367L186.529 241.982C186.489 242.03 186.415 242.029 186.375 241.981L184.265 239.445C184.234 239.408 184.234 239.354 184.265 239.317L195.913 225.315Z" fill="#FAFAFA"/>
<path d="M195.913 213.606C195.944 213.643 195.944 213.697 195.912 213.734C193.916 216.057 190.685 216.035 188.711 213.67L176.99 199.623C176.96 199.586 176.959 199.533 176.99 199.496C177.089 199.38 177.191 199.27 177.294 199.166C177.304 199.156 177.311 199.145 177.316 199.133C177.354 199.044 177.404 198.96 177.468 198.883L182.756 192.546C182.787 192.508 182.787 192.454 182.756 192.417L176.99 185.508C176.96 185.471 176.96 185.417 176.991 185.38C178.987 183.015 182.184 183.036 184.193 185.402L186.375 188.025C186.415 188.073 186.489 188.073 186.529 188.025L188.711 185.408C188.713 185.405 188.713 185.402 188.711 185.398L176.99 171.352C176.96 171.315 176.96 171.261 176.991 171.224C178.987 168.859 182.184 168.879 184.193 171.245L195.913 185.334C195.944 185.371 195.944 185.425 195.913 185.462C195.806 185.586 195.695 185.704 195.582 185.815C195.58 185.816 195.578 185.818 195.577 185.821C195.576 185.822 195.575 185.824 195.574 185.826C195.538 185.904 195.492 185.979 195.434 186.048L190.136 192.417C190.105 192.455 190.105 192.508 190.136 192.545L195.913 199.49C195.944 199.527 195.944 199.581 195.912 199.618C193.916 201.941 190.685 201.919 188.711 199.554L186.529 196.939C186.489 196.891 186.415 196.891 186.375 196.939L184.265 199.475C184.234 199.512 184.234 199.566 184.265 199.603L195.913 213.606Z" fill="#FAFAFA"/>
<path d="M195.913 117.315C195.944 117.277 195.944 117.223 195.912 117.186C193.916 114.864 190.685 114.885 188.711 117.25L176.99 131.297C176.96 131.334 176.959 131.388 176.99 131.424C177.089 131.54 177.191 131.65 177.294 131.755C177.304 131.764 177.311 131.776 177.316 131.788C177.354 131.876 177.404 131.961 177.468 132.038L182.756 138.375C182.787 138.412 182.787 138.466 182.756 138.503L176.99 145.413C176.96 145.449 176.96 145.503 176.991 145.54C178.987 147.906 182.184 147.884 184.193 145.518L186.375 142.896C186.415 142.847 186.489 142.847 186.529 142.895L188.711 145.512C188.713 145.515 188.713 145.519 188.711 145.522L176.99 159.569C176.96 159.606 176.96 159.66 176.991 159.696C178.987 162.062 182.184 162.041 184.193 159.675L195.913 145.586C195.944 145.549 195.944 145.495 195.913 145.458C195.806 145.334 195.695 145.217 195.582 145.106C195.58 145.104 195.578 145.102 195.577 145.1C195.576 145.098 195.575 145.096 195.574 145.094C195.538 145.016 195.492 144.941 195.434 144.873L190.136 138.503C190.105 138.466 190.105 138.412 190.136 138.375L195.913 131.431C195.944 131.394 195.944 131.339 195.912 131.303C193.916 128.98 190.685 129.001 188.711 131.367L186.529 133.982C186.489 134.03 186.415 134.029 186.375 133.981L184.265 131.445C184.234 131.408 184.234 131.354 184.265 131.317L195.913 117.315Z" fill="#FAFAFA"/>
<path d="M195.913 105.606C195.944 105.643 195.944 105.697 195.912 105.734C193.916 108.057 190.685 108.035 188.711 105.67L176.99 91.6231C176.96 91.5862 176.959 91.5327 176.99 91.496C177.089 91.3801 177.191 91.2705 177.294 91.1658C177.304 91.1563 177.311 91.1449 177.316 91.1325C177.354 91.0441 177.404 90.9595 177.468 90.8828L182.756 84.5455C182.787 84.5084 182.787 84.4545 182.756 84.4174L176.99 77.5078C176.96 77.471 176.96 77.4169 176.991 77.3803C178.987 75.0148 182.184 75.0364 184.193 77.4023L186.375 80.0249C186.415 80.0729 186.489 80.073 186.529 80.025L188.711 77.4082C188.713 77.4051 188.713 77.4015 188.711 77.3984L176.99 63.3516C176.96 63.3147 176.96 63.2607 176.991 63.224C178.987 60.8585 182.184 60.8794 184.193 63.2451L195.913 77.3344C195.944 77.3715 195.944 77.4254 195.913 77.462C195.806 77.5863 195.695 77.7037 195.582 77.8146C195.58 77.8165 195.578 77.8185 195.577 77.8207C195.576 77.8224 195.575 77.8242 195.574 77.826C195.538 77.9042 195.492 77.9792 195.434 78.0479L190.136 84.4175C190.105 84.4546 190.105 84.5083 190.136 84.5454L195.913 91.4897C195.944 91.5268 195.944 91.5811 195.912 91.6178C193.916 93.9406 190.685 93.9193 188.711 91.5537L186.529 88.9388C186.489 88.8909 186.415 88.8909 186.375 88.9389L184.265 91.4751C184.234 91.5122 184.234 91.566 184.265 91.603L195.913 105.606Z" fill="#FAFAFA"/>
<path d="M222.913 63.3145C222.944 63.2774 222.944 63.2231 222.912 63.1865C220.916 60.8637 217.685 60.8849 215.711 63.2505L203.99 77.2973C203.96 77.3342 203.959 77.3878 203.99 77.4244C204.089 77.5403 204.191 77.6499 204.294 77.7546C204.304 77.7641 204.311 77.7755 204.316 77.7879C204.354 77.8763 204.404 77.9609 204.468 78.0376L209.756 84.3749C209.787 84.412 209.787 84.4659 209.756 84.503L203.99 91.4126C203.96 91.4494 203.96 91.5035 203.991 91.5402C205.987 93.9056 209.184 93.884 211.193 91.5181L213.375 88.8955C213.415 88.8475 213.489 88.8475 213.529 88.8954L215.711 91.5122C215.713 91.5153 215.713 91.5189 215.711 91.522L203.99 105.569C203.96 105.606 203.96 105.66 203.991 105.696C205.987 108.062 209.184 108.041 211.193 105.675L222.913 91.586C222.944 91.5489 222.944 91.495 222.913 91.4584C222.806 91.3341 222.695 91.2167 222.582 91.1058C222.58 91.104 222.578 91.1019 222.577 91.0997C222.576 91.098 222.575 91.0962 222.574 91.0944C222.538 91.0162 222.492 90.9413 222.434 90.8726L217.136 84.5029C217.105 84.4659 217.105 84.4121 217.136 84.375L222.913 77.4307C222.944 77.3936 222.944 77.3393 222.912 77.3027C220.916 74.9798 217.685 75.0011 215.711 77.3667L213.529 79.9816C213.489 80.0295 213.415 80.0295 213.375 79.9815L211.265 77.4453C211.234 77.4082 211.234 77.3545 211.265 77.3174L222.913 63.3145Z" fill="#FAFAFA"/>
<path d="M222.913 159.606C222.944 159.643 222.944 159.697 222.912 159.734C220.916 162.057 217.685 162.035 215.711 159.67L203.99 145.623C203.96 145.586 203.959 145.533 203.99 145.496C204.089 145.38 204.191 145.27 204.294 145.166C204.304 145.156 204.311 145.145 204.316 145.133C204.354 145.044 204.404 144.96 204.468 144.883L209.756 138.546C209.787 138.508 209.787 138.454 209.756 138.417L203.99 131.508C203.96 131.471 203.96 131.417 203.991 131.38C205.987 129.015 209.184 129.036 211.193 131.402L213.375 134.025C213.415 134.073 213.489 134.073 213.529 134.025L215.711 131.408C215.713 131.405 215.713 131.402 215.711 131.398L203.99 117.352C203.96 117.315 203.96 117.261 203.991 117.224C205.987 114.859 209.184 114.879 211.193 117.245L222.913 131.334C222.944 131.371 222.944 131.425 222.913 131.462C222.806 131.586 222.695 131.704 222.582 131.815C222.58 131.816 222.578 131.818 222.577 131.821C222.576 131.822 222.575 131.824 222.574 131.826C222.538 131.904 222.492 131.979 222.434 132.048L217.136 138.417C217.105 138.455 217.105 138.508 217.136 138.545L222.913 145.49C222.944 145.527 222.944 145.581 222.912 145.618C220.916 147.941 217.685 147.919 215.711 145.554L213.529 142.939C213.489 142.891 213.415 142.891 213.375 142.939L211.265 145.475C211.234 145.512 211.234 145.566 211.265 145.603L222.913 159.606Z" fill="#FAFAFA"/>
<path d="M222.913 171.315C222.944 171.277 222.944 171.223 222.912 171.186C220.916 168.864 217.685 168.885 215.711 171.25L203.99 185.297C203.96 185.334 203.959 185.388 203.99 185.424C204.089 185.54 204.191 185.65 204.294 185.755C204.304 185.764 204.311 185.776 204.316 185.788C204.354 185.876 204.404 185.961 204.468 186.038L209.756 192.375C209.787 192.412 209.787 192.466 209.756 192.503L203.99 199.413C203.96 199.449 203.96 199.503 203.991 199.54C205.987 201.906 209.184 201.884 211.193 199.518L213.375 196.896C213.415 196.847 213.489 196.847 213.529 196.895L215.711 199.512C215.713 199.515 215.713 199.519 215.711 199.522L203.99 213.569C203.96 213.606 203.96 213.66 203.991 213.696C205.987 216.062 209.184 216.041 211.193 213.675L222.913 199.586C222.944 199.549 222.944 199.495 222.913 199.458C222.806 199.334 222.695 199.217 222.582 199.106C222.58 199.104 222.578 199.102 222.577 199.1C222.576 199.098 222.575 199.096 222.574 199.094C222.538 199.016 222.492 198.941 222.434 198.873L217.136 192.503C217.105 192.466 217.105 192.412 217.136 192.375L222.913 185.431C222.944 185.394 222.944 185.339 222.912 185.303C220.916 182.98 217.685 183.001 215.711 185.367L213.529 187.982C213.489 188.03 213.415 188.029 213.375 187.981L211.265 185.445C211.234 185.408 211.234 185.354 211.265 185.317L222.913 171.315Z" fill="#FAFAFA"/>
<path d="M222.913 267.606C222.944 267.643 222.944 267.698 222.912 267.734C220.916 270.057 217.685 270.035 215.711 267.67L203.99 253.623C203.96 253.586 203.959 253.533 203.99 253.496C204.089 253.38 204.19 253.269 204.294 253.164C204.304 253.154 204.311 253.143 204.316 253.131C204.354 253.043 204.404 252.959 204.468 252.883L209.756 246.546C209.787 246.509 209.787 246.455 209.756 246.418L203.99 239.508C203.96 239.471 203.96 239.417 203.991 239.38C205.987 237.015 209.184 237.036 211.193 239.402L213.375 242.024C213.415 242.072 213.489 242.072 213.529 242.024L215.711 239.408C215.713 239.405 215.713 239.402 215.711 239.399L203.99 225.352C203.96 225.315 203.96 225.261 203.991 225.224C205.987 222.859 209.184 222.88 211.193 225.245L222.913 239.335C222.944 239.372 222.944 239.426 222.913 239.462C222.809 239.583 222.702 239.698 222.592 239.806C222.583 239.815 222.575 239.825 222.57 239.837C222.535 239.912 222.489 239.983 222.434 240.049L217.137 246.418C217.106 246.455 217.106 246.508 217.137 246.546L222.913 253.49C222.944 253.527 222.944 253.581 222.912 253.618C220.916 255.941 217.685 255.919 215.711 253.554L213.529 250.939C213.489 250.891 213.415 250.891 213.375 250.939L211.265 253.475C211.234 253.512 211.234 253.566 211.265 253.603L222.913 267.606Z" fill="#FAFAFA"/>
<path d="M249.913 225.315C249.944 225.277 249.944 225.223 249.912 225.186C247.916 222.864 244.685 222.885 242.711 225.25L230.99 239.297C230.96 239.334 230.959 239.388 230.99 239.424C231.089 239.54 231.191 239.65 231.294 239.755C231.304 239.764 231.311 239.776 231.316 239.788C231.354 239.876 231.404 239.961 231.468 240.038L236.756 246.375C236.787 246.412 236.787 246.466 236.756 246.503L230.99 253.413C230.96 253.449 230.96 253.503 230.991 253.54C232.987 255.906 236.184 255.884 238.193 253.518L240.375 250.896C240.415 250.847 240.489 250.847 240.529 250.895L242.711 253.512C242.713 253.515 242.713 253.519 242.711 253.522L230.99 267.569C230.96 267.606 230.96 267.66 230.991 267.696C232.987 270.062 236.184 270.041 238.193 267.675L249.913 253.586C249.944 253.549 249.944 253.495 249.913 253.458C249.806 253.334 249.695 253.217 249.582 253.106C249.58 253.104 249.578 253.102 249.577 253.1C249.576 253.098 249.575 253.096 249.574 253.094C249.538 253.016 249.492 252.941 249.434 252.873L244.136 246.503C244.105 246.466 244.105 246.412 244.136 246.375L249.913 239.431C249.944 239.394 249.944 239.339 249.912 239.303C247.916 236.98 244.685 237.001 242.711 239.367L240.529 241.982C240.489 242.03 240.415 242.029 240.375 241.981L238.265 239.445C238.234 239.408 238.234 239.354 238.265 239.317L249.913 225.315Z" fill="#FAFAFA"/>
<path d="M249.913 213.606C249.944 213.643 249.944 213.697 249.912 213.734C247.916 216.057 244.685 216.035 242.711 213.67L230.99 199.623C230.96 199.586 230.959 199.533 230.99 199.496C231.089 199.38 231.191 199.27 231.294 199.166C231.304 199.156 231.311 199.145 231.316 199.133C231.354 199.044 231.404 198.96 231.468 198.883L236.756 192.546C236.787 192.508 236.787 192.454 236.756 192.417L230.99 185.508C230.96 185.471 230.96 185.417 230.991 185.38C232.987 183.015 236.184 183.036 238.193 185.402L240.375 188.025C240.415 188.073 240.489 188.073 240.529 188.025L242.711 185.408C242.713 185.405 242.713 185.402 242.711 185.398L230.99 171.352C230.96 171.315 230.96 171.261 230.991 171.224C232.987 168.859 236.184 168.879 238.193 171.245L249.913 185.334C249.944 185.371 249.944 185.425 249.913 185.462C249.806 185.586 249.695 185.704 249.582 185.815C249.58 185.816 249.578 185.818 249.577 185.821C249.576 185.822 249.575 185.824 249.574 185.826C249.538 185.904 249.492 185.979 249.434 186.048L244.136 192.417C244.105 192.455 244.105 192.508 244.136 192.545L249.913 199.49C249.944 199.527 249.944 199.581 249.912 199.618C247.916 201.941 244.685 201.919 242.711 199.554L240.529 196.939C240.489 196.891 240.415 196.891 240.375 196.939L238.265 199.475C238.234 199.512 238.234 199.566 238.265 199.603L249.913 213.606Z" fill="#FAFAFA"/>
<path d="M249.913 117.315C249.944 117.277 249.944 117.223 249.912 117.186C247.916 114.864 244.685 114.885 242.711 117.25L230.99 131.297C230.96 131.334 230.959 131.388 230.99 131.424C231.089 131.54 231.191 131.65 231.294 131.755C231.304 131.764 231.311 131.776 231.316 131.788C231.354 131.876 231.404 131.961 231.468 132.038L236.756 138.375C236.787 138.412 236.787 138.466 236.756 138.503L230.99 145.413C230.96 145.449 230.96 145.503 230.991 145.54C232.987 147.906 236.184 147.884 238.193 145.518L240.375 142.896C240.415 142.847 240.489 142.847 240.529 142.895L242.711 145.512C242.713 145.515 242.713 145.519 242.711 145.522L230.99 159.569C230.96 159.606 230.96 159.66 230.991 159.696C232.987 162.062 236.184 162.041 238.193 159.675L249.913 145.586C249.944 145.549 249.944 145.495 249.913 145.458C249.806 145.334 249.695 145.217 249.582 145.106C249.58 145.104 249.578 145.102 249.577 145.1C249.576 145.098 249.575 145.096 249.574 145.094C249.538 145.016 249.492 144.941 249.434 144.873L244.136 138.503C244.105 138.466 244.105 138.412 244.136 138.375L249.913 131.431C249.944 131.394 249.944 131.339 249.912 131.303C247.916 128.98 244.685 129.001 242.711 131.367L240.529 133.982C240.489 134.03 240.415 134.029 240.375 133.981L238.265 131.445C238.234 131.408 238.234 131.354 238.265 131.317L249.913 117.315Z" fill="#FAFAFA"/>
<path d="M249.913 105.606C249.944 105.643 249.944 105.697 249.912 105.734C247.916 108.057 244.685 108.035 242.711 105.67L230.99 91.6231C230.96 91.5862 230.959 91.5327 230.99 91.496C231.089 91.3801 231.191 91.2705 231.294 91.1658C231.304 91.1563 231.311 91.1449 231.316 91.1325C231.354 91.0441 231.404 90.9595 231.468 90.8828L236.756 84.5455C236.787 84.5084 236.787 84.4545 236.756 84.4174L230.99 77.5078C230.96 77.471 230.96 77.4169 230.991 77.3803C232.987 75.0148 236.184 75.0364 238.193 77.4023L240.375 80.0249C240.415 80.0729 240.489 80.073 240.529 80.025L242.711 77.4082C242.713 77.4051 242.713 77.4015 242.711 77.3984L230.99 63.3516C230.96 63.3147 230.96 63.2607 230.991 63.224C232.987 60.8585 236.184 60.8794 238.193 63.2451L249.913 77.3344C249.944 77.3715 249.944 77.4254 249.913 77.462C249.806 77.5863 249.695 77.7037 249.582 77.8146C249.58 77.8165 249.578 77.8185 249.577 77.8207C249.576 77.8224 249.575 77.8242 249.574 77.826C249.538 77.9042 249.492 77.9792 249.434 78.0479L244.136 84.4175C244.105 84.4546 244.105 84.5083 244.136 84.5454L249.913 91.4897C249.944 91.5268 249.944 91.5811 249.912 91.6178C247.916 93.9406 244.685 93.9193 242.711 91.5537L240.529 88.9388C240.489 88.8909 240.415 88.8909 240.375 88.9389L238.265 91.4751C238.234 91.5122 238.234 91.566 238.265 91.603L249.913 105.606Z" fill="#FAFAFA"/>
<path d="M276.913 63.3145C276.944 63.2774 276.944 63.2231 276.912 63.1865C274.916 60.8637 271.685 60.8849 269.711 63.2505L257.99 77.2973C257.96 77.3342 257.959 77.3878 257.99 77.4244C258.089 77.5403 258.191 77.6499 258.294 77.7546C258.304 77.7641 258.311 77.7755 258.316 77.7879C258.354 77.8763 258.404 77.9609 258.468 78.0376L263.756 84.3749C263.787 84.412 263.787 84.4659 263.756 84.503L257.99 91.4126C257.96 91.4494 257.96 91.5035 257.991 91.5402C259.987 93.9056 263.184 93.884 265.193 91.5181L267.375 88.8955C267.415 88.8475 267.489 88.8475 267.529 88.8954L269.711 91.5122C269.713 91.5153 269.713 91.5189 269.711 91.522L257.99 105.569C257.96 105.606 257.96 105.66 257.991 105.696C259.987 108.062 263.184 108.041 265.193 105.675L276.913 91.586C276.944 91.5489 276.944 91.495 276.913 91.4584C276.806 91.3341 276.695 91.2167 276.582 91.1058C276.58 91.104 276.578 91.1019 276.577 91.0997C276.576 91.098 276.575 91.0962 276.574 91.0944C276.538 91.0162 276.492 90.9413 276.434 90.8726L271.136 84.5029C271.105 84.4659 271.105 84.4121 271.136 84.375L276.913 77.4307C276.944 77.3936 276.944 77.3393 276.912 77.3027C274.916 74.9798 271.685 75.0011 269.711 77.3667L267.529 79.9816C267.489 80.0295 267.415 80.0295 267.375 79.9815L265.265 77.4453C265.234 77.4082 265.234 77.3545 265.265 77.3174L276.913 63.3145Z" fill="#FAFAFA"/>
<path d="M276.913 159.606C276.944 159.643 276.944 159.697 276.912 159.734C274.916 162.057 271.685 162.035 269.711 159.67L257.99 145.623C257.96 145.586 257.959 145.533 257.99 145.496C258.089 145.38 258.191 145.27 258.294 145.166C258.304 145.156 258.311 145.145 258.316 145.133C258.354 145.044 258.404 144.96 258.468 144.883L263.756 138.546C263.787 138.508 263.787 138.454 263.756 138.417L257.99 131.508C257.96 131.471 257.96 131.417 257.991 131.38C259.987 129.015 263.184 129.036 265.193 131.402L267.375 134.025C267.415 134.073 267.489 134.073 267.529 134.025L269.711 131.408C269.713 131.405 269.713 131.402 269.711 131.398L257.99 117.352C257.96 117.315 257.96 117.261 257.991 117.224C259.987 114.859 263.184 114.879 265.193 117.245L276.913 131.334C276.944 131.371 276.944 131.425 276.913 131.462C276.806 131.586 276.695 131.704 276.582 131.815C276.58 131.816 276.578 131.818 276.577 131.821C276.576 131.822 276.575 131.824 276.574 131.826C276.538 131.904 276.492 131.979 276.434 132.048L271.136 138.417C271.105 138.455 271.105 138.508 271.136 138.545L276.913 145.49C276.944 145.527 276.944 145.581 276.912 145.618C274.916 147.941 271.685 147.919 269.711 145.554L267.529 142.939C267.489 142.891 267.415 142.891 267.375 142.939L265.265 145.475C265.234 145.512 265.234 145.566 265.265 145.603L276.913 159.606Z" fill="#FAFAFA"/>
<path d="M276.913 171.315C276.944 171.277 276.944 171.223 276.912 171.186C274.916 168.864 271.685 168.885 269.711 171.25L257.99 185.297C257.96 185.334 257.959 185.388 257.99 185.424C258.089 185.54 258.191 185.65 258.294 185.755C258.304 185.764 258.311 185.776 258.316 185.788C258.354 185.876 258.404 185.961 258.468 186.038L263.756 192.375C263.787 192.412 263.787 192.466 263.756 192.503L257.99 199.413C257.96 199.449 257.96 199.503 257.991 199.54C259.987 201.906 263.184 201.884 265.193 199.518L267.375 196.896C267.415 196.847 267.489 196.847 267.529 196.895L269.711 199.512C269.713 199.515 269.713 199.519 269.711 199.522L257.99 213.569C257.96 213.606 257.96 213.66 257.991 213.696C259.987 216.062 263.184 216.041 265.193 213.675L276.913 199.586C276.944 199.549 276.944 199.495 276.913 199.458C276.806 199.334 276.695 199.217 276.582 199.106C276.58 199.104 276.578 199.102 276.577 199.1C276.576 199.098 276.575 199.096 276.574 199.094C276.538 199.016 276.492 198.941 276.434 198.873L271.136 192.503C271.105 192.466 271.105 192.412 271.136 192.375L276.913 185.431C276.944 185.394 276.944 185.339 276.912 185.303C274.916 182.98 271.685 183.001 269.711 185.367L267.529 187.982C267.489 188.03 267.415 188.029 267.375 187.981L265.265 185.445C265.234 185.408 265.234 185.354 265.265 185.317L276.913 171.315Z" fill="#FAFAFA"/>
<path d="M276.913 267.606C276.944 267.643 276.944 267.698 276.912 267.734C274.916 270.057 271.685 270.035 269.711 267.67L257.99 253.623C257.96 253.586 257.959 253.533 257.99 253.496C258.089 253.38 258.19 253.269 258.294 253.164C258.304 253.154 258.311 253.143 258.316 253.131C258.354 253.043 258.404 252.959 258.468 252.883L263.756 246.546C263.787 246.509 263.787 246.455 263.756 246.418L257.99 239.508C257.96 239.471 257.96 239.417 257.991 239.38C259.987 237.015 263.184 237.036 265.193 239.402L267.375 242.024C267.415 242.072 267.489 242.072 267.529 242.024L269.711 239.408C269.713 239.405 269.713 239.402 269.711 239.399L257.99 225.352C257.96 225.315 257.96 225.261 257.991 225.224C259.987 222.859 263.184 222.88 265.193 225.245L276.913 239.335C276.944 239.372 276.944 239.426 276.913 239.462C276.809 239.583 276.702 239.698 276.592 239.806C276.583 239.815 276.575 239.825 276.57 239.837C276.535 239.912 276.489 239.983 276.434 240.049L271.137 246.418C271.106 246.455 271.106 246.508 271.137 246.546L276.913 253.49C276.944 253.527 276.944 253.581 276.912 253.618C274.916 255.941 271.685 255.919 269.711 253.554L267.529 250.939C267.489 250.891 267.415 250.891 267.375 250.939L265.265 253.475C265.234 253.512 265.234 253.566 265.265 253.603L276.913 267.606Z" fill="#FAFAFA"/>
</g>
<defs>
<filter id="filter0_d_4017_28230" x="-0.000228882" y="-0.000109196" width="345.905" height="345.905" filterUnits="userSpaceOnUse" color-interpolation-filters="sRGB">
<feFlood flood-opacity="0" result="BackgroundImageFix"/>
<feColorMatrix in="SourceAlpha" type="matrix" values="0 0 0 0 0 0 0 0 0 0 0 0 0 0 0 0 0 0 127 0" result="hardAlpha"/>
<feOffset dy="7.49206"/>
<feGaussianBlur stdDeviation="22.4762"/>
<feColorMatrix type="matrix" values="0 0 0 0 0.12549 0 0 0 0 0.164706 0 0 0 0 0.258824 0 0 0 0.06 0"/>
<feBlend mode="normal" in2="BackgroundImageFix" result="effect1_dropShadow_4017_28230"/>
<feBlend mode="normal" in="SourceGraphic" in2="effect1_dropShadow_4017_28230" result="shape"/>
</filter>
</defs>
</svg>
