<svg width="346" height="346" viewBox="0 0 346 346" fill="none" xmlns="http://www.w3.org/2000/svg">
<g filter="url(#filter0_d_4017_28292)">
<rect x="44.9521" y="37.4602" width="256" height="256" rx="4" fill="#121215"/>
<path d="M276.817 91.4861C276.885 91.5242 276.886 91.6224 276.816 91.6588C273.868 93.1992 269.164 93.1708 266.281 91.5737L249.087 82.05C249.018 82.0121 249.018 81.9141 249.087 81.8774C249.406 81.7077 249.745 81.5569 250.1 81.4246C250.121 81.4167 250.139 81.4021 250.151 81.3834C250.233 81.2599 250.347 81.1492 250.496 81.0668L257.426 77.2285C257.494 77.1905 257.494 77.0916 257.426 77.0536L249.087 72.4348C249.018 72.3969 249.018 72.2991 249.087 72.2624C252.033 70.6935 256.688 70.7214 259.624 72.3188L262.903 74.1414C262.933 74.1582 262.97 74.1582 263 74.1415L266.281 72.3237C266.284 72.3221 266.284 72.3186 266.281 72.317C266.281 72.317 266.281 72.3169 266.281 72.3168L249.087 62.7922C249.018 62.7543 249.018 62.6565 249.087 62.6198C252.033 61.0509 256.688 61.0787 259.624 62.6762L276.817 72.2293C276.885 72.2674 276.885 72.3659 276.815 72.4022C276.492 72.5707 276.148 72.72 275.788 72.851C275.767 72.8586 275.749 72.8731 275.737 72.8915C275.655 73.0112 275.543 73.1182 275.398 73.1987L268.461 77.0536C268.392 77.0917 268.392 77.1903 268.461 77.2284L276.817 81.8709C276.885 81.909 276.886 82.0072 276.816 82.0435C273.868 83.5839 269.164 83.5556 266.281 81.9584L263 80.1415C262.97 80.1248 262.933 80.1249 262.903 80.1416L259.807 81.8612C259.739 81.8993 259.739 81.998 259.807 82.0361L276.817 91.4861Z" fill="#FAFAFA"/>
<path d="M240.817 62.7675C240.885 62.7294 240.886 62.6312 240.816 62.5949C237.868 61.0544 233.164 61.0828 230.281 62.68L213.087 72.2037C213.018 72.2416 213.018 72.3396 213.087 72.3763C213.406 72.546 213.745 72.6967 214.1 72.8291C214.121 72.8369 214.139 72.8516 214.151 72.8703C214.233 72.9938 214.347 73.1045 214.496 73.1868L221.426 77.0251C221.494 77.0632 221.494 77.162 221.426 77.2001L213.087 81.8189C213.018 81.8568 213.018 81.9545 213.087 81.9913C216.033 83.5601 220.688 83.5323 223.624 81.9349L226.903 80.1122C226.933 80.0955 226.97 80.0954 227 80.1122L230.281 81.93C230.284 81.9316 230.284 81.9351 230.281 81.9366C230.281 81.9367 230.281 81.9368 230.281 81.9368L213.087 91.4615C213.018 91.4994 213.018 91.5971 213.087 91.6339C216.033 93.2028 220.688 93.175 223.624 91.5775L240.817 82.0244C240.885 81.9863 240.885 81.8878 240.815 81.8515C240.492 81.683 240.148 81.5337 239.788 81.4027C239.767 81.395 239.749 81.3806 239.737 81.3622C239.655 81.2425 239.543 81.1355 239.398 81.055L232.461 77.2C232.392 77.1619 232.392 77.0633 232.461 77.0252L240.817 72.3828C240.885 72.3447 240.886 72.2465 240.816 72.2101C237.868 70.6697 233.164 70.6981 230.281 72.2952L227 74.1121C226.97 74.1288 226.933 74.1288 226.903 74.1121L223.807 72.3924C223.739 72.3543 223.739 72.2557 223.807 72.2176L240.817 62.7675Z" fill="#FAFAFA"/>
<path d="M204.817 91.4861C204.885 91.5242 204.886 91.6224 204.816 91.6588C201.868 93.1992 197.164 93.1708 194.281 91.5737L177.087 82.05C177.018 82.0121 177.018 81.9141 177.087 81.8774C177.406 81.7077 177.745 81.5569 178.1 81.4246C178.121 81.4167 178.139 81.4021 178.151 81.3834C178.233 81.2599 178.347 81.1492 178.496 81.0668L185.426 77.2285C185.494 77.1905 185.494 77.0916 185.426 77.0536L177.087 72.4348C177.018 72.3969 177.018 72.2991 177.087 72.2624C180.033 70.6935 184.688 70.7214 187.624 72.3188L190.903 74.1414C190.933 74.1582 190.97 74.1582 191 74.1415L194.281 72.3237C194.284 72.3221 194.284 72.3186 194.281 72.317C194.281 72.317 194.281 72.3169 194.281 72.3168L177.087 62.7922C177.018 62.7543 177.018 62.6565 177.087 62.6198C180.033 61.0509 184.688 61.0787 187.624 62.6762L204.817 72.2293C204.885 72.2674 204.885 72.3659 204.815 72.4022C204.492 72.5707 204.148 72.72 203.788 72.851C203.767 72.8586 203.749 72.8731 203.737 72.8915C203.655 73.0112 203.543 73.1182 203.398 73.1987L196.461 77.0536C196.392 77.0917 196.392 77.1903 196.461 77.2284L204.817 81.8709C204.885 81.909 204.886 82.0072 204.816 82.0435C201.868 83.5839 197.164 83.5556 194.281 81.9584L191 80.1415C190.97 80.1248 190.933 80.1249 190.903 80.1416L187.807 81.8612C187.739 81.8993 187.739 81.998 187.807 82.0361L204.817 91.4861Z" fill="#FAFAFA"/>
<path d="M168.817 62.7675C168.885 62.7294 168.886 62.6312 168.816 62.5949C165.868 61.0544 161.164 61.0828 158.281 62.68L141.087 72.2037C141.018 72.2416 141.018 72.3396 141.087 72.3763C141.406 72.546 141.745 72.6967 142.1 72.8291C142.121 72.8369 142.139 72.8516 142.151 72.8703C142.233 72.9938 142.347 73.1045 142.496 73.1868L149.426 77.0251C149.494 77.0632 149.494 77.162 149.426 77.2001L141.087 81.8189C141.018 81.8568 141.018 81.9545 141.087 81.9913C144.033 83.5601 148.688 83.5323 151.624 81.9349L154.903 80.1122C154.933 80.0955 154.97 80.0954 155 80.1122L158.281 81.93C158.284 81.9316 158.284 81.9351 158.281 81.9366C158.281 81.9367 158.281 81.9368 158.281 81.9368L141.087 91.4615C141.018 91.4994 141.018 91.5971 141.087 91.6339C144.033 93.2028 148.688 93.175 151.624 91.5775L168.817 82.0244C168.885 81.9863 168.885 81.8878 168.815 81.8515C168.492 81.683 168.148 81.5337 167.788 81.4027C167.767 81.395 167.749 81.3806 167.737 81.3622C167.655 81.2425 167.543 81.1355 167.398 81.055L160.461 77.2C160.392 77.1619 160.392 77.0633 160.461 77.0252L168.817 72.3828C168.885 72.3447 168.886 72.2465 168.816 72.2101C165.868 70.6697 161.164 70.6981 158.281 72.2952L155 74.1121C154.97 74.1288 154.933 74.1288 154.903 74.1121L151.807 72.3924C151.739 72.3543 151.739 72.2557 151.807 72.2176L168.817 62.7675Z" fill="#FAFAFA"/>
<path d="M132.817 62.7675C132.885 62.7294 132.886 62.6312 132.816 62.5949C129.868 61.0544 125.164 61.0828 122.281 62.68L105.087 72.2037C105.018 72.2416 105.018 72.3396 105.087 72.3763C105.406 72.546 105.745 72.6967 106.1 72.8291C106.121 72.8369 106.139 72.8516 106.151 72.8703C106.233 72.9938 106.347 73.1045 106.496 73.1868L113.426 77.0251C113.494 77.0632 113.494 77.162 113.426 77.2001L105.087 81.8189C105.018 81.8568 105.018 81.9545 105.087 81.9913C108.033 83.5601 112.688 83.5323 115.624 81.9349L118.903 80.1122C118.933 80.0955 118.97 80.0954 119 80.1122L122.281 81.93C122.284 81.9316 122.284 81.9351 122.281 81.9366C122.281 81.9367 122.281 81.9368 122.281 81.9368L105.087 91.4615C105.018 91.4994 105.018 91.5971 105.087 91.6339C108.033 93.2028 112.688 93.175 115.624 91.5775L132.817 82.0244C132.885 81.9863 132.885 81.8878 132.815 81.8515C132.492 81.683 132.148 81.5337 131.788 81.4027C131.767 81.395 131.749 81.3806 131.737 81.3622C131.655 81.2425 131.543 81.1355 131.398 81.055L124.461 77.2C124.392 77.1619 124.392 77.0633 124.461 77.0252L132.817 72.3828C132.885 72.3447 132.886 72.2465 132.816 72.2101C129.868 70.6697 125.164 70.6981 122.281 72.2952L119 74.1121C118.97 74.1288 118.933 74.1288 118.903 74.1121L115.807 72.3924C115.739 72.3543 115.739 72.2557 115.807 72.2176L132.817 62.7675Z" fill="#FAFAFA"/>
<path d="M96.8167 91.4861C96.8853 91.5242 96.8856 91.6224 96.816 91.6588C93.8681 93.1992 89.1641 93.1708 86.2809 91.5737L69.0868 82.05C69.0184 82.0121 69.0181 81.9141 69.0872 81.8774C69.4062 81.7077 69.7454 81.5569 70.1 81.4246C70.121 81.4167 70.1386 81.4021 70.151 81.3834C70.2331 81.2599 70.3471 81.1492 70.4957 81.0668L77.4257 77.2285C77.4944 77.1905 77.4944 77.0916 77.4257 77.0536L69.0868 72.4348C69.0184 72.3969 69.0177 72.2991 69.0867 72.2624C72.0328 70.6935 76.6883 70.7214 79.6236 72.3188L82.9033 74.1414C82.9334 74.1582 82.9701 74.1582 83.0003 74.1415L86.2809 72.3237C86.2837 72.3221 86.2841 72.3186 86.2812 72.317C86.2811 72.317 86.281 72.3169 86.2809 72.3168L69.0868 62.7922C69.0184 62.7543 69.0177 62.6565 69.0867 62.6198C72.0328 61.0509 76.6883 61.0787 79.6236 62.6762L96.8167 72.2293C96.8853 72.2674 96.8851 72.3659 96.8155 72.4022C96.4925 72.5707 96.1482 72.72 95.7879 72.851C95.7669 72.8586 95.7492 72.8731 95.7366 72.8915C95.6551 73.0112 95.5429 73.1182 95.398 73.1987L88.4606 77.0536C88.3921 77.0917 88.3921 77.1903 88.4606 77.2284L96.8166 81.8709C96.8853 81.909 96.8856 82.0072 96.816 82.0435C93.8681 83.5839 89.1641 83.5556 86.2809 81.9584L83.0003 80.1415C82.9701 80.1248 82.9334 80.1249 82.9033 80.1416L79.8074 81.8612C79.7388 81.8993 79.7388 81.998 79.8074 82.0361L96.8167 91.4861Z" fill="#FAFAFA"/>
<path d="M276.817 126.819C276.885 126.857 276.886 126.956 276.816 126.992C273.868 128.532 269.164 128.504 266.281 126.907L249.087 117.383C249.018 117.345 249.018 117.247 249.087 117.211C249.406 117.041 249.745 116.89 250.1 116.758C250.121 116.75 250.139 116.735 250.151 116.717C250.233 116.593 250.347 116.482 250.496 116.4L257.426 112.562C257.494 112.524 257.494 112.425 257.426 112.387L249.087 107.768C249.018 107.73 249.018 107.632 249.087 107.596C252.033 106.027 256.688 106.055 259.624 107.652L262.903 109.475C262.933 109.491 262.97 109.491 263 109.475L266.281 107.657C266.284 107.655 266.284 107.652 266.281 107.65C266.281 107.65 266.281 107.65 266.281 107.65L249.087 98.1254C249.018 98.0875 249.018 97.9898 249.087 97.953C252.033 96.3841 256.688 96.4119 259.624 98.0095L276.817 107.563C276.885 107.601 276.885 107.699 276.815 107.735C276.492 107.904 276.148 108.053 275.788 108.184C275.767 108.192 275.749 108.206 275.737 108.225C275.655 108.344 275.543 108.451 275.398 108.532L268.461 112.387C268.392 112.425 268.392 112.524 268.461 112.562L276.817 117.204C276.885 117.242 276.886 117.34 276.816 117.377C273.868 118.917 269.164 118.889 266.281 117.292L263 115.475C262.97 115.458 262.933 115.458 262.903 115.475L259.807 117.195C259.739 117.233 259.739 117.331 259.807 117.369L276.817 126.819Z" fill="#FAFAFA"/>
<path d="M240.817 98.1008C240.885 98.0627 240.886 97.9645 240.816 97.9281C237.868 96.3877 233.164 96.4161 230.281 98.0133L213.087 107.537C213.018 107.575 213.018 107.673 213.087 107.71C213.406 107.879 213.745 108.03 214.1 108.162C214.121 108.17 214.139 108.185 214.151 108.204C214.233 108.327 214.347 108.438 214.496 108.52L221.426 112.358C221.494 112.396 221.494 112.495 221.426 112.533L213.087 117.152C213.018 117.19 213.018 117.288 213.087 117.325C216.033 118.893 220.688 118.866 223.624 117.268L226.903 115.445C226.933 115.429 226.97 115.429 227 115.445L230.281 117.263C230.284 117.265 230.284 117.268 230.281 117.27C230.281 117.27 230.281 117.27 230.281 117.27L213.087 126.795C213.018 126.833 213.018 126.93 213.087 126.967C216.033 128.536 220.688 128.508 223.624 126.911L240.817 117.358C240.885 117.32 240.885 117.221 240.815 117.185C240.492 117.016 240.148 116.867 239.788 116.736C239.767 116.728 239.749 116.714 239.737 116.695C239.655 116.576 239.543 116.469 239.398 116.388L232.461 112.533C232.392 112.495 232.392 112.397 232.461 112.358L240.817 107.716C240.885 107.678 240.886 107.58 240.816 107.543C237.868 106.003 233.164 106.031 230.281 107.628L227 109.445C226.97 109.462 226.933 109.462 226.903 109.445L223.807 107.726C223.739 107.688 223.739 107.589 223.807 107.551L240.817 98.1008Z" fill="#FAFAFA"/>
<path d="M204.817 126.819C204.885 126.857 204.886 126.956 204.816 126.992C201.868 128.532 197.164 128.504 194.281 126.907L177.087 117.383C177.018 117.345 177.018 117.247 177.087 117.211C177.406 117.041 177.745 116.89 178.1 116.758C178.121 116.75 178.139 116.735 178.151 116.717C178.233 116.593 178.347 116.482 178.496 116.4L185.426 112.562C185.494 112.524 185.494 112.425 185.426 112.387L177.087 107.768C177.018 107.73 177.018 107.632 177.087 107.596C180.033 106.027 184.688 106.055 187.624 107.652L190.903 109.475C190.933 109.491 190.97 109.491 191 109.475L194.281 107.657C194.284 107.655 194.284 107.652 194.281 107.65C194.281 107.65 194.281 107.65 194.281 107.65L177.087 98.1254C177.018 98.0875 177.018 97.9898 177.087 97.953C180.033 96.3841 184.688 96.4119 187.624 98.0095L204.817 107.563C204.885 107.601 204.885 107.699 204.815 107.735C204.492 107.904 204.148 108.053 203.788 108.184C203.767 108.192 203.749 108.206 203.737 108.225C203.655 108.344 203.543 108.451 203.398 108.532L196.461 112.387C196.392 112.425 196.392 112.524 196.461 112.562L204.817 117.204C204.885 117.242 204.886 117.34 204.816 117.377C201.868 118.917 197.164 118.889 194.281 117.292L191 115.475C190.97 115.458 190.933 115.458 190.903 115.475L187.807 117.195C187.739 117.233 187.739 117.331 187.807 117.369L204.817 126.819Z" fill="#FAFAFA"/>
<path d="M168.817 98.1008C168.885 98.0627 168.886 97.9645 168.816 97.9281C165.868 96.3877 161.164 96.4161 158.281 98.0133L141.087 107.537C141.018 107.575 141.018 107.673 141.087 107.71C141.406 107.879 141.745 108.03 142.1 108.162C142.121 108.17 142.139 108.185 142.151 108.204C142.233 108.327 142.347 108.438 142.496 108.52L149.426 112.358C149.494 112.396 149.494 112.495 149.426 112.533L141.087 117.152C141.018 117.19 141.018 117.288 141.087 117.325C144.033 118.893 148.688 118.866 151.624 117.268L154.903 115.445C154.933 115.429 154.97 115.429 155 115.445L158.281 117.263C158.284 117.265 158.284 117.268 158.281 117.27C158.281 117.27 158.281 117.27 158.281 117.27L141.087 126.795C141.018 126.833 141.018 126.93 141.087 126.967C144.033 128.536 148.688 128.508 151.624 126.911L168.817 117.358C168.885 117.32 168.885 117.221 168.815 117.185C168.492 117.016 168.148 116.867 167.788 116.736C167.767 116.728 167.749 116.714 167.737 116.695C167.655 116.576 167.543 116.469 167.398 116.388L160.461 112.533C160.392 112.495 160.392 112.397 160.461 112.358L168.817 107.716C168.885 107.678 168.886 107.58 168.816 107.543C165.868 106.003 161.164 106.031 158.281 107.628L155 109.445C154.97 109.462 154.933 109.462 154.903 109.445L151.807 107.726C151.739 107.688 151.739 107.589 151.807 107.551L168.817 98.1008Z" fill="#FAFAFA"/>
<path d="M132.817 98.1008C132.885 98.0627 132.886 97.9645 132.816 97.9281C129.868 96.3877 125.164 96.4161 122.281 98.0133L105.087 107.537C105.018 107.575 105.018 107.673 105.087 107.71C105.406 107.879 105.745 108.03 106.1 108.162C106.121 108.17 106.139 108.185 106.151 108.204C106.233 108.327 106.347 108.438 106.496 108.52L113.426 112.358C113.494 112.396 113.494 112.495 113.426 112.533L105.087 117.152C105.018 117.19 105.018 117.288 105.087 117.325C108.033 118.893 112.688 118.866 115.624 117.268L118.903 115.445C118.933 115.429 118.97 115.429 119 115.445L122.281 117.263C122.284 117.265 122.284 117.268 122.281 117.27C122.281 117.27 122.281 117.27 122.281 117.27L105.087 126.795C105.018 126.833 105.018 126.93 105.087 126.967C108.033 128.536 112.688 128.508 115.624 126.911L132.817 117.358C132.885 117.32 132.885 117.221 132.815 117.185C132.492 117.016 132.148 116.867 131.788 116.736C131.767 116.728 131.749 116.714 131.737 116.695C131.655 116.576 131.543 116.469 131.398 116.388L124.461 112.533C124.392 112.495 124.392 112.397 124.461 112.358L132.817 107.716C132.885 107.678 132.886 107.58 132.816 107.543C129.868 106.003 125.164 106.031 122.281 107.628L119 109.445C118.97 109.462 118.933 109.462 118.903 109.445L115.807 107.726C115.739 107.688 115.739 107.589 115.807 107.551L132.817 98.1008Z" fill="#FAFAFA"/>
<path d="M96.8167 126.819C96.8853 126.857 96.8856 126.956 96.816 126.992C93.8681 128.532 89.1641 128.504 86.2809 126.907L69.0868 117.383C69.0184 117.345 69.0181 117.247 69.0872 117.211C69.4062 117.041 69.7454 116.89 70.1 116.758C70.121 116.75 70.1386 116.735 70.151 116.717C70.2331 116.593 70.3471 116.482 70.4957 116.4L77.4257 112.562C77.4944 112.524 77.4944 112.425 77.4257 112.387L69.0868 107.768C69.0184 107.73 69.0177 107.632 69.0867 107.596C72.0328 106.027 76.6883 106.055 79.6236 107.652L82.9033 109.475C82.9334 109.491 82.9701 109.491 83.0003 109.475L86.2809 107.657C86.2837 107.655 86.2841 107.652 86.2812 107.65C86.2811 107.65 86.281 107.65 86.2809 107.65L69.0868 98.1254C69.0184 98.0875 69.0177 97.9898 69.0867 97.953C72.0328 96.3841 76.6883 96.4119 79.6236 98.0095L96.8167 107.563C96.8853 107.601 96.8851 107.699 96.8155 107.735C96.4925 107.904 96.1482 108.053 95.7879 108.184C95.7669 108.192 95.7492 108.206 95.7366 108.225C95.6551 108.344 95.5429 108.451 95.398 108.532L88.4606 112.387C88.3921 112.425 88.3921 112.524 88.4606 112.562L96.8166 117.204C96.8853 117.242 96.8856 117.34 96.816 117.377C93.8681 118.917 89.1641 118.889 86.2809 117.292L83.0003 115.475C82.9701 115.458 82.9334 115.458 82.9033 115.475L79.8074 117.195C79.7388 117.233 79.7388 117.331 79.8074 117.369L96.8167 126.819Z" fill="#FAFAFA"/>
<path d="M276.817 162.153C276.885 162.191 276.886 162.289 276.816 162.326C273.868 163.866 269.164 163.838 266.281 162.24L249.087 152.717C249.018 152.679 249.018 152.581 249.087 152.544C249.406 152.374 249.745 152.224 250.1 152.091C250.121 152.083 250.139 152.069 250.151 152.05C250.233 151.927 250.347 151.816 250.496 151.734L257.426 147.895C257.494 147.857 257.494 147.758 257.426 147.72L249.087 143.102C249.018 143.064 249.018 142.966 249.087 142.929C252.033 141.36 256.688 141.388 259.624 142.986L262.903 144.808C262.933 144.825 262.97 144.825 263 144.808L266.281 142.99C266.284 142.989 266.284 142.985 266.281 142.984C266.281 142.984 266.281 142.984 266.281 142.984L249.087 133.459C249.018 133.421 249.018 133.323 249.087 133.287C252.033 131.718 256.688 131.745 259.624 133.343L276.817 142.896C276.885 142.934 276.885 143.033 276.815 143.069C276.492 143.237 276.148 143.387 275.788 143.518C275.767 143.525 275.749 143.54 275.737 143.558C275.655 143.678 275.543 143.785 275.398 143.865L268.461 147.72C268.392 147.758 268.392 147.857 268.461 147.895L276.817 152.538C276.885 152.576 276.886 152.674 276.816 152.71C273.868 154.251 269.164 154.222 266.281 152.625L263 150.808C262.97 150.792 262.933 150.792 262.903 150.808L259.807 152.528C259.739 152.566 259.739 152.665 259.807 152.703L276.817 162.153Z" fill="#FAFAFA"/>
<path d="M240.817 133.434C240.885 133.396 240.886 133.298 240.816 133.262C237.868 131.721 233.164 131.75 230.281 133.347L213.087 142.87C213.018 142.908 213.018 143.006 213.087 143.043C213.406 143.213 213.745 143.363 214.1 143.496C214.121 143.504 214.139 143.518 214.151 143.537C214.233 143.661 214.347 143.771 214.496 143.854L221.426 147.692C221.494 147.73 221.494 147.829 221.426 147.867L213.087 152.486C213.018 152.524 213.018 152.621 213.087 152.658C216.033 154.227 220.688 154.199 223.624 152.602L226.903 150.779C226.933 150.762 226.97 150.762 227 150.779L230.281 152.597C230.284 152.598 230.284 152.602 230.281 152.603C230.281 152.603 230.281 152.604 230.281 152.604L213.087 162.128C213.018 162.166 213.018 162.264 213.087 162.301C216.033 163.87 220.688 163.842 223.624 162.244L240.817 152.691C240.885 152.653 240.885 152.555 240.815 152.518C240.492 152.35 240.148 152.2 239.788 152.069C239.767 152.062 239.749 152.047 239.737 152.029C239.655 151.909 239.543 151.802 239.398 151.722L232.461 147.867C232.392 147.829 232.392 147.73 232.461 147.692L240.817 143.05C240.885 143.011 240.886 142.913 240.816 142.877C237.868 141.336 233.164 141.365 230.281 142.962L227 144.779C226.97 144.796 226.933 144.796 226.903 144.779L223.807 143.059C223.739 143.021 223.739 142.922 223.807 142.884L240.817 133.434Z" fill="#FAFAFA"/>
<path d="M204.817 162.153C204.885 162.191 204.886 162.289 204.816 162.326C201.868 163.866 197.164 163.838 194.281 162.24L177.087 152.717C177.018 152.679 177.018 152.581 177.087 152.544C177.406 152.374 177.745 152.224 178.1 152.091C178.121 152.083 178.139 152.069 178.151 152.05C178.233 151.927 178.347 151.816 178.496 151.734L185.426 147.895C185.494 147.857 185.494 147.758 185.426 147.72L177.087 143.102C177.018 143.064 177.018 142.966 177.087 142.929C180.033 141.36 184.688 141.388 187.624 142.986L190.903 144.808C190.933 144.825 190.97 144.825 191 144.808L194.281 142.99C194.284 142.989 194.284 142.985 194.281 142.984C194.281 142.984 194.281 142.984 194.281 142.984L177.087 133.459C177.018 133.421 177.018 133.323 177.087 133.287C180.033 131.718 184.688 131.745 187.624 133.343L204.817 142.896C204.885 142.934 204.885 143.033 204.815 143.069C204.492 143.237 204.148 143.387 203.788 143.518C203.767 143.525 203.749 143.54 203.737 143.558C203.655 143.678 203.543 143.785 203.398 143.865L196.461 147.72C196.392 147.758 196.392 147.857 196.461 147.895L204.817 152.538C204.885 152.576 204.886 152.674 204.816 152.71C201.868 154.251 197.164 154.222 194.281 152.625L191 150.808C190.97 150.792 190.933 150.792 190.903 150.808L187.807 152.528C187.739 152.566 187.739 152.665 187.807 152.703L204.817 162.153Z" fill="#FAFAFA"/>
<path d="M168.817 133.434C168.885 133.396 168.886 133.298 168.816 133.262C165.868 131.721 161.164 131.75 158.281 133.347L141.087 142.87C141.018 142.908 141.018 143.006 141.087 143.043C141.406 143.213 141.745 143.363 142.1 143.496C142.121 143.504 142.139 143.518 142.151 143.537C142.233 143.661 142.347 143.771 142.496 143.854L149.426 147.692C149.494 147.73 149.494 147.829 149.426 147.867L141.087 152.486C141.018 152.524 141.018 152.621 141.087 152.658C144.033 154.227 148.688 154.199 151.624 152.602L154.903 150.779C154.933 150.762 154.97 150.762 155 150.779L158.281 152.597C158.284 152.598 158.284 152.602 158.281 152.603C158.281 152.603 158.281 152.604 158.281 152.604L141.087 162.128C141.018 162.166 141.018 162.264 141.087 162.301C144.033 163.87 148.688 163.842 151.624 162.244L168.817 152.691C168.885 152.653 168.885 152.555 168.815 152.518C168.492 152.35 168.148 152.2 167.788 152.069C167.767 152.062 167.749 152.047 167.737 152.029C167.655 151.909 167.543 151.802 167.398 151.722L160.461 147.867C160.392 147.829 160.392 147.73 160.461 147.692L168.817 143.05C168.885 143.011 168.886 142.913 168.816 142.877C165.868 141.336 161.164 141.365 158.281 142.962L155 144.779C154.97 144.796 154.933 144.796 154.903 144.779L151.807 143.059C151.739 143.021 151.739 142.922 151.807 142.884L168.817 133.434Z" fill="#FAFAFA"/>
<path d="M132.817 133.434C132.885 133.396 132.886 133.298 132.816 133.262C129.868 131.721 125.164 131.75 122.281 133.347L105.087 142.87C105.018 142.908 105.018 143.006 105.087 143.043C105.406 143.213 105.745 143.363 106.1 143.496C106.121 143.504 106.139 143.518 106.151 143.537C106.233 143.661 106.347 143.771 106.496 143.854L113.426 147.692C113.494 147.73 113.494 147.829 113.426 147.867L105.087 152.486C105.018 152.524 105.018 152.621 105.087 152.658C108.033 154.227 112.688 154.199 115.624 152.602L118.903 150.779C118.933 150.762 118.97 150.762 119 150.779L122.281 152.597C122.284 152.598 122.284 152.602 122.281 152.603C122.281 152.603 122.281 152.604 122.281 152.604L105.087 162.128C105.018 162.166 105.018 162.264 105.087 162.301C108.033 163.87 112.688 163.842 115.624 162.244L132.817 152.691C132.885 152.653 132.885 152.555 132.815 152.518C132.492 152.35 132.148 152.2 131.788 152.069C131.767 152.062 131.749 152.047 131.737 152.029C131.655 151.909 131.543 151.802 131.398 151.722L124.461 147.867C124.392 147.829 124.392 147.73 124.461 147.692L132.817 143.05C132.885 143.011 132.886 142.913 132.816 142.877C129.868 141.336 125.164 141.365 122.281 142.962L119 144.779C118.97 144.796 118.933 144.796 118.903 144.779L115.807 143.059C115.739 143.021 115.739 142.922 115.807 142.884L132.817 133.434Z" fill="#FAFAFA"/>
<path d="M96.8167 162.153C96.8853 162.191 96.8856 162.289 96.816 162.326C93.8681 163.866 89.1641 163.838 86.2809 162.24L69.0868 152.717C69.0184 152.679 69.0181 152.581 69.0872 152.544C69.4062 152.374 69.7454 152.224 70.1 152.091C70.121 152.083 70.1386 152.069 70.151 152.05C70.2331 151.927 70.3471 151.816 70.4957 151.734L77.4257 147.895C77.4944 147.857 77.4944 147.758 77.4257 147.72L69.0868 143.102C69.0184 143.064 69.0177 142.966 69.0867 142.929C72.0328 141.36 76.6883 141.388 79.6236 142.986L82.9033 144.808C82.9334 144.825 82.9701 144.825 83.0003 144.808L86.2809 142.99C86.2837 142.989 86.2841 142.985 86.2812 142.984C86.2811 142.984 86.281 142.984 86.2809 142.984L69.0868 133.459C69.0184 133.421 69.0177 133.323 69.0867 133.287C72.0328 131.718 76.6883 131.745 79.6236 133.343L96.8167 142.896C96.8853 142.934 96.8851 143.033 96.8155 143.069C96.4925 143.237 96.1482 143.387 95.7879 143.518C95.7669 143.525 95.7492 143.54 95.7366 143.558C95.6551 143.678 95.5429 143.785 95.398 143.865L88.4606 147.72C88.3921 147.758 88.3921 147.857 88.4606 147.895L96.8166 152.538C96.8853 152.576 96.8856 152.674 96.816 152.71C93.8681 154.251 89.1641 154.222 86.2809 152.625L83.0003 150.808C82.9701 150.792 82.9334 150.792 82.9033 150.808L79.8074 152.528C79.7388 152.566 79.7388 152.665 79.8074 152.703L96.8167 162.153Z" fill="#FAFAFA"/>
<path d="M276.817 197.486C276.885 197.524 276.886 197.622 276.816 197.659C273.868 199.199 269.164 199.171 266.281 197.574L249.087 188.05C249.018 188.012 249.018 187.914 249.087 187.877C249.406 187.708 249.745 187.557 250.1 187.425C250.121 187.417 250.139 187.402 250.151 187.383C250.233 187.26 250.347 187.149 250.496 187.067L257.426 183.229C257.494 183.19 257.494 183.092 257.426 183.054L249.087 178.435C249.018 178.397 249.018 178.299 249.087 178.262C252.033 176.694 256.688 176.721 259.624 178.319L262.903 180.141C262.933 180.158 262.97 180.158 263 180.141L266.281 178.324C266.284 178.322 266.284 178.319 266.281 178.317C266.281 178.317 266.281 178.317 266.281 178.317L249.087 168.792C249.018 168.754 249.018 168.657 249.087 168.62C252.033 167.051 256.688 167.079 259.624 168.676L276.817 178.229C276.885 178.267 276.885 178.366 276.815 178.402C276.492 178.571 276.148 178.72 275.788 178.851C275.767 178.859 275.749 178.873 275.737 178.892C275.655 179.011 275.543 179.118 275.398 179.199L268.461 183.054C268.392 183.092 268.392 183.19 268.461 183.228L276.817 187.871C276.885 187.909 276.886 188.007 276.816 188.044C273.868 189.584 269.164 189.556 266.281 187.958L263 186.142C262.97 186.125 262.933 186.125 262.903 186.142L259.807 187.861C259.739 187.899 259.739 187.998 259.807 188.036L276.817 197.486Z" fill="#FAFAFA"/>
<path d="M240.817 168.768C240.885 168.729 240.886 168.631 240.816 168.595C237.868 167.054 233.164 167.083 230.281 168.68L213.087 178.204C213.018 178.242 213.018 178.34 213.087 178.376C213.406 178.546 213.745 178.697 214.1 178.829C214.121 178.837 214.139 178.852 214.151 178.87C214.233 178.994 214.347 179.105 214.496 179.187L221.426 183.025C221.494 183.063 221.494 183.162 221.426 183.2L213.087 187.819C213.018 187.857 213.018 187.955 213.087 187.991C216.033 189.56 220.688 189.532 223.624 187.935L226.903 186.112C226.933 186.095 226.97 186.095 227 186.112L230.281 187.93C230.284 187.932 230.284 187.935 230.281 187.937C230.281 187.937 230.281 187.937 230.281 187.937L213.087 197.461C213.018 197.499 213.018 197.597 213.087 197.634C216.033 199.203 220.688 199.175 223.624 197.577L240.817 188.024C240.885 187.986 240.885 187.888 240.815 187.851C240.492 187.683 240.148 187.534 239.788 187.403C239.767 187.395 239.749 187.381 239.737 187.362C239.655 187.242 239.543 187.135 239.398 187.055L232.461 183.2C232.392 183.162 232.392 183.063 232.461 183.025L240.817 178.383C240.885 178.345 240.886 178.246 240.816 178.21C237.868 176.67 233.164 176.698 230.281 178.295L227 180.112C226.97 180.129 226.933 180.129 226.903 180.112L223.807 178.392C223.739 178.354 223.739 178.256 223.807 178.218L240.817 168.768Z" fill="#FAFAFA"/>
<path d="M204.817 197.486C204.885 197.524 204.886 197.622 204.816 197.659C201.868 199.199 197.164 199.171 194.281 197.574L177.087 188.05C177.018 188.012 177.018 187.914 177.087 187.877C177.406 187.708 177.745 187.557 178.1 187.425C178.121 187.417 178.139 187.402 178.151 187.383C178.233 187.26 178.347 187.149 178.496 187.067L185.426 183.229C185.494 183.19 185.494 183.092 185.426 183.054L177.087 178.435C177.018 178.397 177.018 178.299 177.087 178.262C180.033 176.694 184.688 176.721 187.624 178.319L190.903 180.141C190.933 180.158 190.97 180.158 191 180.141L194.281 178.324C194.284 178.322 194.284 178.319 194.281 178.317C194.281 178.317 194.281 178.317 194.281 178.317L177.087 168.792C177.018 168.754 177.018 168.657 177.087 168.62C180.033 167.051 184.688 167.079 187.624 168.676L204.817 178.229C204.885 178.267 204.885 178.366 204.815 178.402C204.492 178.571 204.148 178.72 203.788 178.851C203.767 178.859 203.749 178.873 203.737 178.892C203.655 179.011 203.543 179.118 203.398 179.199L196.461 183.054C196.392 183.092 196.392 183.19 196.461 183.228L204.817 187.871C204.885 187.909 204.886 188.007 204.816 188.044C201.868 189.584 197.164 189.556 194.281 187.958L191 186.142C190.97 186.125 190.933 186.125 190.903 186.142L187.807 187.861C187.739 187.899 187.739 187.998 187.807 188.036L204.817 197.486Z" fill="#FAFAFA"/>
<path d="M168.817 168.768C168.885 168.729 168.886 168.631 168.816 168.595C165.868 167.054 161.164 167.083 158.281 168.68L141.087 178.204C141.018 178.242 141.018 178.34 141.087 178.376C141.406 178.546 141.745 178.697 142.1 178.829C142.121 178.837 142.139 178.852 142.151 178.87C142.233 178.994 142.347 179.105 142.496 179.187L149.426 183.025C149.494 183.063 149.494 183.162 149.426 183.2L141.087 187.819C141.018 187.857 141.018 187.955 141.087 187.991C144.033 189.56 148.688 189.532 151.624 187.935L154.903 186.112C154.933 186.095 154.97 186.095 155 186.112L158.281 187.93C158.284 187.932 158.284 187.935 158.281 187.937C158.281 187.937 158.281 187.937 158.281 187.937L141.087 197.461C141.018 197.499 141.018 197.597 141.087 197.634C144.033 199.203 148.688 199.175 151.624 197.577L168.817 188.024C168.885 187.986 168.885 187.888 168.815 187.851C168.492 187.683 168.148 187.534 167.788 187.403C167.767 187.395 167.749 187.381 167.737 187.362C167.655 187.242 167.543 187.135 167.398 187.055L160.461 183.2C160.392 183.162 160.392 183.063 160.461 183.025L168.817 178.383C168.885 178.345 168.886 178.246 168.816 178.21C165.868 176.67 161.164 176.698 158.281 178.295L155 180.112C154.97 180.129 154.933 180.129 154.903 180.112L151.807 178.392C151.739 178.354 151.739 178.256 151.807 178.218L168.817 168.768Z" fill="#FAFAFA"/>
<path d="M132.817 168.768C132.885 168.729 132.886 168.631 132.816 168.595C129.868 167.054 125.164 167.083 122.281 168.68L105.087 178.204C105.018 178.242 105.018 178.34 105.087 178.376C105.406 178.546 105.745 178.697 106.1 178.829C106.121 178.837 106.139 178.852 106.151 178.87C106.233 178.994 106.347 179.105 106.496 179.187L113.426 183.025C113.494 183.063 113.494 183.162 113.426 183.2L105.087 187.819C105.018 187.857 105.018 187.955 105.087 187.991C108.033 189.56 112.688 189.532 115.624 187.935L118.903 186.112C118.933 186.095 118.97 186.095 119 186.112L122.281 187.93C122.284 187.932 122.284 187.935 122.281 187.937C122.281 187.937 122.281 187.937 122.281 187.937L105.087 197.461C105.018 197.499 105.018 197.597 105.087 197.634C108.033 199.203 112.688 199.175 115.624 197.577L132.817 188.024C132.885 187.986 132.885 187.888 132.815 187.851C132.492 187.683 132.148 187.534 131.788 187.403C131.767 187.395 131.749 187.381 131.737 187.362C131.655 187.242 131.543 187.135 131.398 187.055L124.461 183.2C124.392 183.162 124.392 183.063 124.461 183.025L132.817 178.383C132.885 178.345 132.886 178.246 132.816 178.21C129.868 176.67 125.164 176.698 122.281 178.295L119 180.112C118.97 180.129 118.933 180.129 118.903 180.112L115.807 178.392C115.739 178.354 115.739 178.256 115.807 178.218L132.817 168.768Z" fill="#FAFAFA"/>
<path d="M96.8167 197.486C96.8853 197.524 96.8856 197.622 96.816 197.659C93.8681 199.199 89.1641 199.171 86.2809 197.574L69.0868 188.05C69.0184 188.012 69.0181 187.914 69.0872 187.877C69.4062 187.708 69.7454 187.557 70.1 187.425C70.121 187.417 70.1386 187.402 70.151 187.383C70.2331 187.26 70.3471 187.149 70.4957 187.067L77.4257 183.229C77.4944 183.19 77.4944 183.092 77.4257 183.054L69.0868 178.435C69.0184 178.397 69.0177 178.299 69.0867 178.262C72.0328 176.694 76.6883 176.721 79.6236 178.319L82.9033 180.141C82.9334 180.158 82.9701 180.158 83.0003 180.141L86.2809 178.324C86.2837 178.322 86.2841 178.319 86.2812 178.317C86.2811 178.317 86.281 178.317 86.2809 178.317L69.0868 168.792C69.0184 168.754 69.0177 168.657 69.0867 168.62C72.0328 167.051 76.6883 167.079 79.6236 168.676L96.8167 178.229C96.8853 178.267 96.8851 178.366 96.8155 178.402C96.4925 178.571 96.1482 178.72 95.7879 178.851C95.7669 178.859 95.7492 178.873 95.7366 178.892C95.6551 179.011 95.5429 179.118 95.398 179.199L88.4606 183.054C88.3921 183.092 88.3921 183.19 88.4606 183.228L96.8166 187.871C96.8853 187.909 96.8856 188.007 96.816 188.044C93.8681 189.584 89.1641 189.556 86.2809 187.958L83.0003 186.142C82.9701 186.125 82.9334 186.125 82.9033 186.142L79.8074 187.861C79.7388 187.899 79.7388 187.998 79.8074 188.036L96.8167 197.486Z" fill="#FAFAFA"/>
<path d="M276.817 232.82C276.885 232.858 276.886 232.956 276.816 232.992C273.868 234.533 269.164 234.504 266.281 232.907L249.087 223.383C249.018 223.345 249.018 223.247 249.087 223.21C249.406 223.04 249.745 222.89 250.1 222.758C250.121 222.75 250.139 222.736 250.151 222.717C250.233 222.593 250.347 222.483 250.496 222.4L257.426 218.563C257.494 218.525 257.494 218.426 257.426 218.388L249.087 213.768C249.018 213.73 249.018 213.633 249.087 213.596C252.033 212.027 256.688 212.055 259.624 213.652L262.903 215.475C262.933 215.492 262.97 215.492 263 215.475L266.281 213.657C266.284 213.656 266.284 213.652 266.281 213.651C266.281 213.65 266.281 213.65 266.281 213.65L249.087 204.126C249.018 204.088 249.018 203.99 249.087 203.953C252.033 202.384 256.688 202.412 259.624 204.01L276.817 213.563C276.885 213.601 276.885 213.699 276.815 213.736C276.492 213.904 276.148 214.054 275.788 214.185C275.767 214.192 275.749 214.207 275.737 214.225C275.655 214.345 275.543 214.452 275.398 214.532L268.461 218.388C268.392 218.426 268.392 218.525 268.461 218.563L276.817 223.205C276.885 223.244 276.886 223.342 276.816 223.378C273.868 224.918 269.164 224.89 266.281 223.293L262.999 221.476C262.969 221.459 262.932 221.459 262.902 221.476L259.807 223.195C259.739 223.233 259.739 223.332 259.807 223.37L276.817 232.82Z" fill="#FAFAFA"/>
<path d="M240.817 204.101C240.885 204.063 240.886 203.965 240.816 203.928C237.868 202.388 233.164 202.416 230.281 204.013L213.087 213.537C213.018 213.575 213.018 213.673 213.087 213.71C213.406 213.879 213.745 214.03 214.1 214.163C214.121 214.17 214.139 214.185 214.151 214.204C214.233 214.327 214.347 214.438 214.496 214.52L221.426 218.359C221.494 218.397 221.494 218.496 221.426 218.534L213.087 223.152C213.018 223.19 213.018 223.288 213.087 223.325C216.033 224.894 220.688 224.866 223.624 223.268L226.903 221.446C226.933 221.429 226.97 221.429 227 221.446L230.281 223.263C230.284 223.265 230.284 223.269 230.281 223.27C230.281 223.27 230.281 223.27 230.281 223.27L213.087 232.795C213.018 232.833 213.018 232.931 213.087 232.967C216.033 234.536 220.688 234.508 223.624 232.911L240.817 223.358C240.885 223.32 240.885 223.221 240.815 223.185C240.492 223.016 240.148 222.867 239.788 222.736C239.767 222.729 239.749 222.714 239.737 222.696C239.655 222.576 239.543 222.469 239.398 222.388L232.461 218.534C232.392 218.495 232.392 218.397 232.461 218.359L240.817 213.716C240.885 213.678 240.886 213.58 240.816 213.544C237.868 212.003 233.164 212.032 230.281 213.629L227 215.446C226.97 215.462 226.933 215.462 226.903 215.446L223.807 213.726C223.739 213.688 223.739 213.589 223.807 213.551L240.817 204.101Z" fill="#FAFAFA"/>
<path d="M204.817 232.82C204.885 232.858 204.886 232.956 204.816 232.992C201.868 234.533 197.164 234.504 194.281 232.907L177.087 223.383C177.018 223.345 177.018 223.247 177.087 223.21C177.406 223.04 177.745 222.89 178.1 222.758C178.121 222.75 178.139 222.736 178.151 222.717C178.233 222.593 178.347 222.483 178.496 222.4L185.426 218.563C185.494 218.525 185.494 218.426 185.426 218.388L177.087 213.768C177.018 213.73 177.018 213.633 177.087 213.596C180.033 212.027 184.688 212.055 187.624 213.652L190.903 215.475C190.933 215.492 190.97 215.492 191 215.475L194.281 213.657C194.284 213.656 194.284 213.652 194.281 213.651C194.281 213.65 194.281 213.65 194.281 213.65L177.087 204.126C177.018 204.088 177.018 203.99 177.087 203.953C180.033 202.384 184.688 202.412 187.624 204.01L204.817 213.563C204.885 213.601 204.885 213.699 204.815 213.736C204.492 213.904 204.148 214.054 203.788 214.185C203.767 214.192 203.749 214.207 203.737 214.225C203.655 214.345 203.543 214.452 203.398 214.532L196.461 218.388C196.392 218.426 196.392 218.525 196.461 218.563L204.817 223.205C204.885 223.244 204.886 223.342 204.816 223.378C201.868 224.918 197.164 224.89 194.281 223.293L190.999 221.476C190.969 221.459 190.932 221.459 190.902 221.476L187.807 223.195C187.739 223.233 187.739 223.332 187.807 223.37L204.817 232.82Z" fill="#FAFAFA"/>
<path d="M168.817 204.101C168.885 204.063 168.886 203.965 168.816 203.928C165.868 202.388 161.164 202.416 158.281 204.013L141.087 213.537C141.018 213.575 141.018 213.673 141.087 213.71C141.406 213.879 141.745 214.03 142.1 214.163C142.121 214.17 142.139 214.185 142.151 214.204C142.233 214.327 142.347 214.438 142.496 214.52L149.426 218.359C149.494 218.397 149.494 218.496 149.426 218.534L141.087 223.152C141.018 223.19 141.018 223.288 141.087 223.325C144.033 224.894 148.688 224.866 151.624 223.268L154.903 221.446C154.933 221.429 154.97 221.429 155 221.446L158.281 223.263C158.284 223.265 158.284 223.269 158.281 223.27C158.281 223.27 158.281 223.27 158.281 223.27L141.087 232.795C141.018 232.833 141.018 232.931 141.087 232.967C144.033 234.536 148.688 234.508 151.624 232.911L168.817 223.358C168.885 223.32 168.885 223.221 168.815 223.185C168.492 223.016 168.148 222.867 167.788 222.736C167.767 222.729 167.749 222.714 167.737 222.696C167.655 222.576 167.543 222.469 167.398 222.388L160.461 218.534C160.392 218.495 160.392 218.397 160.461 218.359L168.817 213.716C168.885 213.678 168.886 213.58 168.816 213.544C165.868 212.003 161.164 212.032 158.281 213.629L155 215.446C154.97 215.462 154.933 215.462 154.903 215.446L151.807 213.726C151.739 213.688 151.739 213.589 151.807 213.551L168.817 204.101Z" fill="#FAFAFA"/>
<path d="M132.817 204.101C132.885 204.063 132.886 203.965 132.816 203.928C129.868 202.388 125.164 202.416 122.281 204.013L105.087 213.537C105.018 213.575 105.018 213.673 105.087 213.71C105.406 213.879 105.745 214.03 106.1 214.163C106.121 214.17 106.139 214.185 106.151 214.204C106.233 214.327 106.347 214.438 106.496 214.52L113.426 218.359C113.494 218.397 113.494 218.496 113.426 218.534L105.087 223.152C105.018 223.19 105.018 223.288 105.087 223.325C108.033 224.894 112.688 224.866 115.624 223.268L118.903 221.446C118.933 221.429 118.97 221.429 119 221.446L122.281 223.263C122.284 223.265 122.284 223.269 122.281 223.27C122.281 223.27 122.281 223.27 122.281 223.27L105.087 232.795C105.018 232.833 105.018 232.931 105.087 232.967C108.033 234.536 112.688 234.508 115.624 232.911L132.817 223.358C132.885 223.32 132.885 223.221 132.815 223.185C132.492 223.016 132.148 222.867 131.788 222.736C131.767 222.729 131.749 222.714 131.737 222.696C131.655 222.576 131.543 222.469 131.398 222.388L124.461 218.534C124.392 218.495 124.392 218.397 124.461 218.359L132.817 213.716C132.885 213.678 132.886 213.58 132.816 213.544C129.868 212.003 125.164 212.032 122.281 213.629L119 215.446C118.97 215.462 118.933 215.462 118.903 215.446L115.807 213.726C115.739 213.688 115.739 213.589 115.807 213.551L132.817 204.101Z" fill="#FAFAFA"/>
<path d="M96.8167 232.82C96.8853 232.858 96.8856 232.956 96.816 232.992C93.8681 234.533 89.1641 234.504 86.2809 232.907L69.0868 223.383C69.0184 223.345 69.0181 223.247 69.0872 223.21C69.4062 223.04 69.7455 222.89 70.1 222.758C70.121 222.75 70.1386 222.736 70.151 222.717C70.2331 222.593 70.3471 222.483 70.4957 222.4L77.4256 218.563C77.4944 218.525 77.4944 218.426 77.4257 218.388L69.0868 213.768C69.0184 213.73 69.0177 213.633 69.0867 213.596C72.0327 212.027 76.6883 212.055 79.6236 213.652L82.9033 215.475C82.9334 215.492 82.9701 215.492 83.0003 215.475L86.2809 213.657C86.2837 213.656 86.2841 213.652 86.2812 213.651C86.2811 213.65 86.281 213.65 86.2809 213.65L69.0868 204.126C69.0184 204.088 69.0177 203.99 69.0867 203.953C72.0328 202.384 76.6883 202.412 79.6236 204.01L96.8167 213.563C96.8853 213.601 96.8851 213.699 96.8155 213.736C96.4925 213.904 96.1482 214.054 95.7879 214.185C95.7669 214.192 95.7492 214.207 95.7366 214.225C95.6551 214.345 95.5429 214.452 95.398 214.532L88.4606 218.388C88.392 218.426 88.3921 218.525 88.4606 218.563L96.8166 223.205C96.8853 223.244 96.8856 223.342 96.816 223.378C93.8682 224.918 89.1641 224.89 86.2809 223.293L82.9993 221.476C82.9691 221.459 82.9325 221.459 82.9023 221.476L79.8074 223.195C79.7388 223.233 79.7388 223.332 79.8074 223.37L96.8167 232.82Z" fill="#FAFAFA"/>
<path d="M276.817 268.153C276.885 268.191 276.886 268.289 276.816 268.325C273.868 269.866 269.164 269.837 266.281 268.24L249.087 258.716C249.018 258.678 249.018 258.58 249.087 258.543C249.406 258.373 249.745 258.223 250.1 258.091C250.121 258.083 250.139 258.069 250.151 258.05C250.233 257.926 250.347 257.816 250.496 257.733L257.426 253.895C257.494 253.857 257.494 253.758 257.426 253.72L249.087 249.101C249.018 249.063 249.018 248.966 249.087 248.929C252.033 247.36 256.688 247.388 259.624 248.985L262.902 250.808C262.932 250.825 262.969 250.825 262.999 250.808L266.281 248.989C266.283 248.988 266.283 248.985 266.281 248.983L249.087 239.459C249.018 239.421 249.018 239.323 249.087 239.286C252.033 237.717 256.688 237.745 259.624 239.343L276.817 248.896C276.885 248.934 276.885 249.032 276.815 249.069C276.492 249.237 276.148 249.387 275.788 249.518C275.767 249.525 275.749 249.54 275.737 249.558C275.655 249.678 275.543 249.785 275.398 249.865L268.461 253.721C268.392 253.759 268.392 253.858 268.461 253.896L276.817 258.538C276.885 258.577 276.886 258.675 276.816 258.711C273.868 260.251 269.164 260.223 266.281 258.626L262.999 256.809C262.969 256.792 262.932 256.792 262.902 256.809L259.807 258.528C259.739 258.566 259.739 258.665 259.807 258.703L276.817 268.153Z" fill="#FAFAFA"/>
<path d="M240.817 239.434C240.885 239.396 240.886 239.298 240.816 239.262C237.868 237.721 233.164 237.75 230.281 239.347L213.087 248.87C213.018 248.908 213.018 249.006 213.087 249.043C213.406 249.213 213.745 249.363 214.1 249.496C214.121 249.504 214.139 249.518 214.151 249.537C214.233 249.661 214.347 249.771 214.496 249.854L221.426 253.692C221.494 253.73 221.494 253.829 221.426 253.867L213.087 258.486C213.018 258.524 213.018 258.621 213.087 258.658C216.033 260.227 220.688 260.199 223.624 258.602L226.903 256.779C226.933 256.762 226.97 256.762 227 256.779L230.281 258.597C230.284 258.598 230.284 258.602 230.281 258.603C230.281 258.603 230.281 258.604 230.281 258.604L213.087 268.128C213.018 268.166 213.018 268.264 213.087 268.301C216.033 269.87 220.688 269.842 223.624 268.244L240.817 258.691C240.885 258.653 240.885 258.555 240.815 258.518C240.492 258.35 240.148 258.2 239.788 258.069C239.767 258.062 239.749 258.047 239.737 258.029C239.655 257.909 239.543 257.802 239.398 257.722L232.461 253.867C232.392 253.829 232.392 253.73 232.461 253.692L240.817 249.05C240.885 249.011 240.886 248.913 240.816 248.877C237.868 247.336 233.164 247.365 230.281 248.962L227 250.779C226.97 250.796 226.933 250.796 226.903 250.779L223.807 249.059C223.739 249.021 223.739 248.922 223.807 248.884L240.817 239.434Z" fill="#FAFAFA"/>
<path d="M204.817 268.153C204.885 268.191 204.886 268.289 204.816 268.325C201.868 269.866 197.164 269.837 194.281 268.24L177.087 258.716C177.018 258.678 177.018 258.58 177.087 258.543C177.406 258.373 177.745 258.223 178.1 258.091C178.121 258.083 178.139 258.069 178.151 258.05C178.233 257.926 178.347 257.816 178.496 257.733L185.426 253.895C185.494 253.857 185.494 253.758 185.426 253.72L177.087 249.101C177.018 249.063 177.018 248.966 177.087 248.929C180.033 247.36 184.688 247.388 187.624 248.985L190.902 250.808C190.932 250.825 190.969 250.825 190.999 250.808L194.281 248.989C194.283 248.988 194.283 248.985 194.281 248.983L177.087 239.459C177.018 239.421 177.018 239.323 177.087 239.286C180.033 237.717 184.688 237.745 187.624 239.343L204.817 248.896C204.885 248.934 204.885 249.032 204.815 249.069C204.492 249.237 204.148 249.387 203.788 249.518C203.767 249.525 203.749 249.54 203.737 249.558C203.655 249.678 203.543 249.785 203.398 249.865L196.461 253.721C196.392 253.759 196.392 253.858 196.461 253.896L204.817 258.538C204.885 258.577 204.886 258.675 204.816 258.711C201.868 260.251 197.164 260.223 194.281 258.626L190.999 256.809C190.969 256.792 190.932 256.792 190.902 256.809L187.807 258.528C187.739 258.566 187.739 258.665 187.807 258.703L204.817 268.153Z" fill="#FAFAFA"/>
<path d="M168.817 239.434C168.885 239.396 168.886 239.298 168.816 239.262C165.868 237.721 161.164 237.75 158.281 239.347L141.087 248.87C141.018 248.908 141.018 249.006 141.087 249.043C141.406 249.213 141.745 249.363 142.1 249.496C142.121 249.504 142.139 249.518 142.151 249.537C142.233 249.661 142.347 249.771 142.496 249.854L149.426 253.692C149.494 253.73 149.494 253.829 149.426 253.867L141.087 258.486C141.018 258.524 141.018 258.621 141.087 258.658C144.033 260.227 148.688 260.199 151.624 258.602L154.903 256.779C154.933 256.762 154.97 256.762 155 256.779L158.281 258.597C158.284 258.598 158.284 258.602 158.281 258.603C158.281 258.603 158.281 258.604 158.281 258.604L141.087 268.128C141.018 268.166 141.018 268.264 141.087 268.301C144.033 269.87 148.688 269.842 151.624 268.244L168.817 258.691C168.885 258.653 168.885 258.555 168.815 258.518C168.492 258.35 168.148 258.2 167.788 258.069C167.767 258.062 167.749 258.047 167.737 258.029C167.655 257.909 167.543 257.802 167.398 257.722L160.461 253.867C160.392 253.829 160.392 253.73 160.461 253.692L168.817 249.05C168.885 249.011 168.886 248.913 168.816 248.877C165.868 247.336 161.164 247.365 158.281 248.962L155 250.779C154.97 250.796 154.933 250.796 154.903 250.779L151.807 249.059C151.739 249.021 151.739 248.922 151.807 248.884L168.817 239.434Z" fill="#FAFAFA"/>
<path d="M132.817 239.434C132.885 239.396 132.886 239.298 132.816 239.262C129.868 237.721 125.164 237.75 122.281 239.347L105.087 248.87C105.018 248.908 105.018 249.006 105.087 249.043C105.406 249.213 105.745 249.363 106.1 249.496C106.121 249.504 106.139 249.518 106.151 249.537C106.233 249.661 106.347 249.771 106.496 249.854L113.426 253.692C113.494 253.73 113.494 253.829 113.426 253.867L105.087 258.486C105.018 258.524 105.018 258.621 105.087 258.658C108.033 260.227 112.688 260.199 115.624 258.602L118.903 256.779C118.933 256.762 118.97 256.762 119 256.779L122.281 258.597C122.284 258.598 122.284 258.602 122.281 258.603C122.281 258.603 122.281 258.604 122.281 258.604L105.087 268.128C105.018 268.166 105.018 268.264 105.087 268.301C108.033 269.87 112.688 269.842 115.624 268.244L132.817 258.691C132.885 258.653 132.885 258.555 132.815 258.518C132.492 258.35 132.148 258.2 131.788 258.069C131.767 258.062 131.749 258.047 131.737 258.029C131.655 257.909 131.543 257.802 131.398 257.722L124.461 253.867C124.392 253.829 124.392 253.73 124.461 253.692L132.817 249.05C132.885 249.011 132.886 248.913 132.816 248.877C129.868 247.336 125.164 247.365 122.281 248.962L119 250.779C118.97 250.796 118.933 250.796 118.903 250.779L115.807 249.059C115.739 249.021 115.739 248.922 115.807 248.884L132.817 239.434Z" fill="#FAFAFA"/>
<path d="M96.8167 268.153C96.8853 268.191 96.8856 268.289 96.816 268.325C93.8681 269.866 89.1641 269.837 86.2809 268.24L69.0868 258.716C69.0184 258.678 69.0181 258.58 69.0872 258.543C69.4062 258.373 69.7454 258.223 70.1 258.091C70.121 258.083 70.1386 258.069 70.151 258.05C70.2331 257.926 70.347 257.816 70.4957 257.733L77.4257 253.895C77.4944 253.857 77.4944 253.758 77.4257 253.72L69.0868 249.101C69.0184 249.063 69.0177 248.966 69.0867 248.929C72.0327 247.36 76.6883 247.388 79.6236 248.985L82.9023 250.808C82.9324 250.825 82.9691 250.825 82.9993 250.808L86.2809 248.989C86.2834 248.988 86.2834 248.985 86.2809 248.983L69.0868 239.459C69.0184 239.421 69.0177 239.323 69.0867 239.286C72.0328 237.717 76.6883 237.745 79.6236 239.343L96.8167 248.896C96.8853 248.934 96.8851 249.032 96.8155 249.069C96.4925 249.237 96.1481 249.387 95.7878 249.518C95.7669 249.525 95.7492 249.54 95.7366 249.558C95.6551 249.678 95.5429 249.785 95.398 249.865L88.4606 253.721C88.392 253.759 88.3921 253.858 88.4606 253.896L96.8166 258.538C96.8853 258.577 96.8856 258.675 96.816 258.711C93.8682 260.251 89.1641 260.223 86.2809 258.626L82.9993 256.809C82.9691 256.792 82.9325 256.792 82.9023 256.809L79.8074 258.528C79.7388 258.566 79.7388 258.665 79.8074 258.703L96.8167 268.153Z" fill="#FAFAFA"/>
</g>
<defs>
<filter id="filter0_d_4017_28292" x="-0.000228882" y="-0.000109196" width="345.905" height="345.905" filterUnits="userSpaceOnUse" color-interpolation-filters="sRGB">
<feFlood flood-opacity="0" result="BackgroundImageFix"/>
<feColorMatrix in="SourceAlpha" type="matrix" values="0 0 0 0 0 0 0 0 0 0 0 0 0 0 0 0 0 0 127 0" result="hardAlpha"/>
<feOffset dy="7.49206"/>
<feGaussianBlur stdDeviation="22.4762"/>
<feColorMatrix type="matrix" values="0 0 0 0 0.12549 0 0 0 0 0.164706 0 0 0 0 0.258824 0 0 0 0.06 0"/>
<feBlend mode="normal" in2="BackgroundImageFix" result="effect1_dropShadow_4017_28292"/>
<feBlend mode="normal" in="SourceGraphic" in2="effect1_dropShadow_4017_28292" result="shape"/>
</filter>
</defs>
</svg>
