<svg width="346" height="346" viewBox="0 0 346 346" fill="none" xmlns="http://www.w3.org/2000/svg">
<g filter="url(#filter0_d_4017_28335)">
<rect x="44.9521" y="37.4602" width="256" height="256" rx="4" fill="#121215"/>
<path d="M99.2958 81.6946L117.952 63.7325C114.796 60.7028 109.61 60.7028 106.454 63.7325L87.7977 81.6405C90.954 84.7244 96.0831 84.7244 99.2958 81.6946Z" fill="#FAFAFA"/>
<path d="M80.4501 63.7258L99.1064 81.6879C95.9501 84.7176 90.7646 84.7176 87.6083 81.6879L68.952 63.7799C72.1083 60.696 77.2374 60.696 80.4501 63.7258Z" fill="white" fill-opacity="0.6"/>
<path d="M152.296 63.7258L170.952 81.6879C167.796 84.7176 162.61 84.7176 159.454 81.6879L140.798 63.7799C143.954 60.696 149.083 60.696 152.296 63.7258Z" fill="#FAFAFA"/>
<path d="M133.45 81.6946L152.106 63.7325C148.95 60.7028 143.765 60.7028 140.608 63.7325L121.952 81.6405C125.108 84.7244 130.237 84.7244 133.45 81.6946Z" fill="white" fill-opacity="0.6"/>
<path d="M205.296 81.6946L223.952 63.7325C220.796 60.7028 215.61 60.7028 212.454 63.7325L193.798 81.6405C196.954 84.7244 202.083 84.7244 205.296 81.6946Z" fill="#FAFAFA"/>
<path d="M186.45 63.7258L205.106 81.6879C201.95 84.7176 196.765 84.7176 193.608 81.6879L174.952 63.7799C178.108 60.696 183.237 60.696 186.45 63.7258Z" fill="white" fill-opacity="0.6"/>
<path d="M258.296 63.7258L276.952 81.6879C273.796 84.7176 268.61 84.7176 265.454 81.6879L246.798 63.7799C249.954 60.696 255.083 60.696 258.296 63.7258Z" fill="#FAFAFA"/>
<path d="M239.45 81.6946L258.106 63.7325C254.95 60.7028 249.765 60.7028 246.608 63.7325L227.952 81.6405C231.108 84.7244 236.237 84.7244 239.45 81.6946Z" fill="white" fill-opacity="0.6"/>
<path d="M87.6085 108.195L68.9521 90.2325C72.1085 87.2028 77.2939 87.2028 80.4503 90.2325L99.1066 108.141C95.9503 111.224 90.8212 111.224 87.6085 108.195Z" fill="#FAFAFA"/>
<path d="M106.454 90.2258L87.7979 108.188C90.9542 111.218 96.1397 111.218 99.296 108.188L117.952 90.2799C114.796 87.196 109.667 87.196 106.454 90.2258Z" fill="white" fill-opacity="0.6"/>
<path d="M140.608 90.2258L121.952 108.188C125.109 111.218 130.294 111.218 133.45 108.188L152.107 90.2799C148.95 87.196 143.821 87.196 140.608 90.2258Z" fill="#FAFAFA"/>
<path d="M159.454 108.195L140.798 90.2325C143.954 87.2028 149.14 87.2028 152.296 90.2325L170.952 108.141C167.796 111.224 162.667 111.224 159.454 108.195Z" fill="white" fill-opacity="0.6"/>
<path d="M193.608 108.195L174.952 90.2325C178.109 87.2028 183.294 87.2028 186.45 90.2325L205.107 108.141C201.95 111.224 196.821 111.224 193.608 108.195Z" fill="#FAFAFA"/>
<path d="M212.454 90.2258L193.798 108.188C196.954 111.218 202.14 111.218 205.296 108.188L223.952 90.2799C220.796 87.196 215.667 87.196 212.454 90.2258Z" fill="white" fill-opacity="0.6"/>
<path d="M246.608 90.2258L227.952 108.188C231.109 111.218 236.294 111.218 239.45 108.188L258.107 90.2799C254.95 87.196 249.821 87.196 246.608 90.2258Z" fill="#FAFAFA"/>
<path d="M265.454 108.195L246.798 90.2325C249.954 87.2028 255.14 87.2028 258.296 90.2325L276.952 108.141C273.796 111.224 268.667 111.224 265.454 108.195Z" fill="white" fill-opacity="0.6"/>
<path d="M99.2958 116.726L117.952 134.688C114.796 137.718 109.61 137.718 106.454 134.688L87.7977 116.78C90.954 113.696 96.0831 113.696 99.2958 116.726Z" fill="#FAFAFA"/>
<path d="M80.4501 134.695L99.1064 116.733C95.9501 113.703 90.7646 113.703 87.6083 116.733L68.952 134.641C72.1083 137.724 77.2374 137.724 80.4501 134.695Z" fill="white" fill-opacity="0.6"/>
<path d="M152.296 134.695L170.952 116.733C167.796 113.703 162.61 113.703 159.454 116.733L140.798 134.641C143.954 137.724 149.083 137.724 152.296 134.695Z" fill="#FAFAFA"/>
<path d="M133.45 116.726L152.106 134.688C148.95 137.718 143.765 137.718 140.608 134.688L121.952 116.78C125.108 113.696 130.237 113.696 133.45 116.726Z" fill="white" fill-opacity="0.6"/>
<path d="M205.296 116.726L223.952 134.688C220.796 137.718 215.61 137.718 212.454 134.688L193.798 116.78C196.954 113.696 202.083 113.696 205.296 116.726Z" fill="#FAFAFA"/>
<path d="M186.45 134.695L205.106 116.733C201.95 113.703 196.765 113.703 193.608 116.733L174.952 134.641C178.108 137.724 183.237 137.724 186.45 134.695Z" fill="white" fill-opacity="0.6"/>
<path d="M258.296 134.695L276.952 116.733C273.796 113.703 268.61 113.703 265.454 116.733L246.798 134.641C249.954 137.724 255.083 137.724 258.296 134.695Z" fill="#FAFAFA"/>
<path d="M239.45 116.726L258.106 134.688C254.95 137.718 249.765 137.718 246.608 134.688L227.952 116.78C231.108 113.696 236.237 113.696 239.45 116.726Z" fill="white" fill-opacity="0.6"/>
<path d="M87.6085 143.226L68.9521 161.188C72.1085 164.218 77.2939 164.218 80.4503 161.188L99.1066 143.28C95.9503 140.196 90.8212 140.196 87.6085 143.226Z" fill="#FAFAFA"/>
<path d="M106.454 161.195L87.7979 143.233C90.9542 140.203 96.1397 140.203 99.296 143.233L117.952 161.141C114.796 164.224 109.667 164.224 106.454 161.195Z" fill="white" fill-opacity="0.6"/>
<path d="M140.608 161.195L121.952 143.233C125.109 140.203 130.294 140.203 133.45 143.233L152.107 161.141C148.95 164.224 143.821 164.224 140.608 161.195Z" fill="#FAFAFA"/>
<path d="M159.454 143.226L140.798 161.188C143.954 164.218 149.14 164.218 152.296 161.188L170.952 143.28C167.796 140.196 162.667 140.196 159.454 143.226Z" fill="white" fill-opacity="0.6"/>
<path d="M193.608 143.226L174.952 161.188C178.109 164.218 183.294 164.218 186.45 161.188L205.107 143.28C201.95 140.196 196.821 140.196 193.608 143.226Z" fill="#FAFAFA"/>
<path d="M212.454 161.195L193.798 143.233C196.954 140.203 202.14 140.203 205.296 143.233L223.952 161.141C220.796 164.224 215.667 164.224 212.454 161.195Z" fill="white" fill-opacity="0.6"/>
<path d="M246.608 161.195L227.952 143.233C231.109 140.203 236.294 140.203 239.45 143.233L258.107 161.141C254.95 164.224 249.821 164.224 246.608 161.195Z" fill="#FAFAFA"/>
<path d="M265.454 143.226L246.798 161.188C249.954 164.218 255.14 164.218 258.296 161.188L276.952 143.28C273.796 140.196 268.667 140.196 265.454 143.226Z" fill="white" fill-opacity="0.6"/>
<path d="M99.2958 187.695L117.952 169.733C114.796 166.703 109.61 166.703 106.454 169.733L87.7977 187.641C90.954 190.724 96.0831 190.724 99.2958 187.695Z" fill="#FAFAFA"/>
<path d="M80.4501 169.726L99.1064 187.688C95.9501 190.718 90.7646 190.718 87.6083 187.688L68.952 169.78C72.1083 166.696 77.2374 166.696 80.4501 169.726Z" fill="white" fill-opacity="0.6"/>
<path d="M152.296 169.726L170.952 187.688C167.796 190.718 162.61 190.718 159.454 187.688L140.798 169.78C143.954 166.696 149.083 166.696 152.296 169.726Z" fill="#FAFAFA"/>
<path d="M133.45 187.695L152.106 169.733C148.95 166.703 143.765 166.703 140.608 169.733L121.952 187.641C125.108 190.724 130.237 190.724 133.45 187.695Z" fill="white" fill-opacity="0.6"/>
<path d="M205.296 187.695L223.952 169.733C220.796 166.703 215.61 166.703 212.454 169.733L193.798 187.641C196.954 190.724 202.083 190.724 205.296 187.695Z" fill="#FAFAFA"/>
<path d="M186.45 169.726L205.106 187.688C201.95 190.718 196.765 190.718 193.608 187.688L174.952 169.78C178.108 166.696 183.237 166.696 186.45 169.726Z" fill="white" fill-opacity="0.6"/>
<path d="M258.296 169.726L276.952 187.688C273.796 190.718 268.61 190.718 265.454 187.688L246.798 169.78C249.954 166.696 255.083 166.696 258.296 169.726Z" fill="#FAFAFA"/>
<path d="M239.45 187.695L258.106 169.733C254.95 166.703 249.765 166.703 246.608 169.733L227.952 187.641C231.108 190.724 236.237 190.724 239.45 187.695Z" fill="white" fill-opacity="0.6"/>
<path d="M87.6085 214.195L68.9521 196.233C72.1085 193.203 77.2939 193.203 80.4503 196.233L99.1066 214.141C95.9503 217.224 90.8212 217.224 87.6085 214.195Z" fill="#FAFAFA"/>
<path d="M106.454 196.226L87.7979 214.188C90.9542 217.218 96.1397 217.218 99.296 214.188L117.952 196.28C114.796 193.196 109.667 193.196 106.454 196.226Z" fill="white" fill-opacity="0.6"/>
<path d="M140.608 196.226L121.952 214.188C125.109 217.218 130.294 217.218 133.45 214.188L152.107 196.28C148.95 193.196 143.821 193.196 140.608 196.226Z" fill="#FAFAFA"/>
<path d="M159.454 214.195L140.798 196.233C143.954 193.203 149.14 193.203 152.296 196.233L170.952 214.141C167.796 217.224 162.667 217.224 159.454 214.195Z" fill="white" fill-opacity="0.6"/>
<path d="M193.608 214.195L174.952 196.233C178.109 193.203 183.294 193.203 186.45 196.233L205.107 214.141C201.95 217.224 196.821 217.224 193.608 214.195Z" fill="#FAFAFA"/>
<path d="M212.454 196.226L193.798 214.188C196.954 217.218 202.14 217.218 205.296 214.188L223.952 196.28C220.796 193.196 215.667 193.196 212.454 196.226Z" fill="white" fill-opacity="0.6"/>
<path d="M246.608 196.226L227.952 214.188C231.109 217.218 236.294 217.218 239.45 214.188L258.107 196.28C254.95 193.196 249.821 193.196 246.608 196.226Z" fill="#FAFAFA"/>
<path d="M265.454 214.195L246.798 196.233C249.954 193.203 255.14 193.203 258.296 196.233L276.952 214.141C273.796 217.224 268.667 217.224 265.454 214.195Z" fill="white" fill-opacity="0.6"/>
<path d="M99.2958 222.726L117.952 240.688C114.796 243.718 109.61 243.718 106.454 240.688L87.7977 222.78C90.954 219.696 96.0831 219.696 99.2958 222.726Z" fill="#FAFAFA"/>
<path d="M80.4501 240.695L99.1064 222.733C95.9501 219.703 90.7646 219.703 87.6083 222.733L68.952 240.641C72.1083 243.724 77.2374 243.724 80.4501 240.695Z" fill="white" fill-opacity="0.6"/>
<path d="M152.296 240.695L170.952 222.733C167.796 219.703 162.61 219.703 159.454 222.733L140.798 240.641C143.954 243.724 149.083 243.724 152.296 240.695Z" fill="#FAFAFA"/>
<path d="M133.45 222.726L152.106 240.688C148.95 243.718 143.765 243.718 140.608 240.688L121.952 222.78C125.108 219.696 130.237 219.696 133.45 222.726Z" fill="white" fill-opacity="0.6"/>
<path d="M205.296 222.726L223.952 240.688C220.796 243.718 215.61 243.718 212.454 240.688L193.798 222.78C196.954 219.696 202.083 219.696 205.296 222.726Z" fill="#FAFAFA"/>
<path d="M186.45 240.695L205.106 222.733C201.95 219.703 196.765 219.703 193.608 222.733L174.952 240.641C178.108 243.724 183.237 243.724 186.45 240.695Z" fill="white" fill-opacity="0.6"/>
<path d="M258.296 240.695L276.952 222.733C273.796 219.703 268.61 219.703 265.454 222.733L246.798 240.641C249.954 243.724 255.083 243.724 258.296 240.695Z" fill="#FAFAFA"/>
<path d="M239.45 222.726L258.106 240.688C254.95 243.718 249.765 243.718 246.608 240.688L227.952 222.78C231.108 219.696 236.237 219.696 239.45 222.726Z" fill="white" fill-opacity="0.6"/>
<path d="M87.6085 249.226L68.9521 267.188C72.1085 270.218 77.2939 270.218 80.4503 267.188L99.1066 249.28C95.9503 246.196 90.8212 246.196 87.6085 249.226Z" fill="#FAFAFA"/>
<path d="M106.454 267.195L87.7979 249.233C90.9542 246.203 96.1397 246.203 99.296 249.233L117.952 267.141C114.796 270.224 109.667 270.224 106.454 267.195Z" fill="white" fill-opacity="0.6"/>
<path d="M140.608 267.195L121.952 249.233C125.109 246.203 130.294 246.203 133.45 249.233L152.107 267.141C148.95 270.224 143.821 270.224 140.608 267.195Z" fill="#FAFAFA"/>
<path d="M159.454 249.226L140.798 267.188C143.954 270.218 149.14 270.218 152.296 267.188L170.952 249.28C167.796 246.196 162.667 246.196 159.454 249.226Z" fill="white" fill-opacity="0.6"/>
<path d="M193.608 249.226L174.952 267.188C178.109 270.218 183.294 270.218 186.45 267.188L205.107 249.28C201.95 246.196 196.821 246.196 193.608 249.226Z" fill="#FAFAFA"/>
<path d="M212.454 267.195L193.798 249.233C196.954 246.203 202.14 246.203 205.296 249.233L223.952 267.141C220.796 270.224 215.667 270.224 212.454 267.195Z" fill="white" fill-opacity="0.6"/>
<path d="M246.608 267.195L227.952 249.233C231.109 246.203 236.294 246.203 239.45 249.233L258.107 267.141C254.95 270.224 249.821 270.224 246.608 267.195Z" fill="#FAFAFA"/>
<path d="M265.454 249.226L246.798 267.188C249.954 270.218 255.14 270.218 258.296 267.188L276.952 249.28C273.796 246.196 268.667 246.196 265.454 249.226Z" fill="white" fill-opacity="0.6"/>
</g>
<defs>
<filter id="filter0_d_4017_28335" x="-0.000228882" y="-0.000109196" width="345.905" height="345.905" filterUnits="userSpaceOnUse" color-interpolation-filters="sRGB">
<feFlood flood-opacity="0" result="BackgroundImageFix"/>
<feColorMatrix in="SourceAlpha" type="matrix" values="0 0 0 0 0 0 0 0 0 0 0 0 0 0 0 0 0 0 127 0" result="hardAlpha"/>
<feOffset dy="7.49206"/>
<feGaussianBlur stdDeviation="22.4762"/>
<feColorMatrix type="matrix" values="0 0 0 0 0.12549 0 0 0 0 0.164706 0 0 0 0 0.258824 0 0 0 0.06 0"/>
<feBlend mode="normal" in2="BackgroundImageFix" result="effect1_dropShadow_4017_28335"/>
<feBlend mode="normal" in="SourceGraphic" in2="effect1_dropShadow_4017_28335" result="shape"/>
</filter>
</defs>
</svg>
