<svg width="346" height="346" viewBox="0 0 346 346" fill="none" xmlns="http://www.w3.org/2000/svg">
<g filter="url(#filter0_d_4017_28110)">
<rect x="44.9521" y="37.4602" width="256" height="256" rx="4" fill="#121215"/>
<path d="M85.1549 61.4602C86.2227 62.9836 85.8987 64.9197 84.1752 66.2218L80.7823 68.7322L90.2196 75.7157C91.925 76.9816 92.2581 78.9282 91.2195 80.4602L78.0768 70.7341L69.5417 77.0505C68.5032 75.5185 68.8366 73.5721 70.542 72.3063L75.5125 68.6168L75.2485 67.9984C74.8071 66.9652 74.927 65.8373 75.5763 64.8795L78.0652 66.7216L85.1549 61.4602Z" fill="#FAFAFA"/>
<path d="M106.463 80.4602C105.396 78.9368 105.719 77.0008 107.443 75.6986L110.836 73.1882L101.399 66.2047C99.6931 64.9388 99.36 62.9922 100.399 61.4602L113.541 71.1863L122.076 64.8699C123.115 66.4019 122.782 68.3483 121.076 69.6141L116.106 73.3036L116.37 73.922C116.811 74.9552 116.691 76.0831 116.042 77.0409L113.553 75.1988L106.463 80.4602Z" fill="#FAFAFA"/>
<path d="M146.869 61.4602C147.937 62.9836 147.613 64.9197 145.889 66.2218L142.496 68.7322L151.933 75.7157C153.639 76.9816 153.972 78.9282 152.933 80.4602L139.791 70.7341L131.256 77.0505C130.217 75.5185 130.551 73.5721 132.256 72.3063L137.226 68.6168L136.962 67.9984C136.521 66.9652 136.641 65.8373 137.29 64.8795L139.779 66.7216L146.869 61.4602Z" fill="#FAFAFA"/>
<path d="M168.178 80.4602C167.11 78.9368 167.434 77.0008 169.158 75.6986L172.551 73.1882L163.113 66.2047C161.408 64.9388 161.075 62.9922 162.113 61.4602L175.256 71.1863L183.791 64.8699C184.83 66.4019 184.496 68.3483 182.791 69.6141L177.82 73.3036L178.085 73.922C178.526 74.9552 178.406 76.0831 177.757 77.0409L175.268 75.1988L168.178 80.4602Z" fill="#FAFAFA"/>
<path d="M208.584 61.4602C209.651 62.9836 209.327 64.9197 207.604 66.2218L204.211 68.7322L213.648 75.7157C215.354 76.9816 215.687 78.9282 214.648 80.4602L201.505 70.7341L192.97 77.0505C191.932 75.5185 192.265 73.5721 193.971 72.3063L198.941 68.6168L198.677 67.9984C198.236 66.9652 198.356 65.8373 199.005 64.8795L201.494 66.7216L208.584 61.4602Z" fill="#FAFAFA"/>
<path d="M229.892 80.4602C228.824 78.9368 229.148 77.0008 230.872 75.6986L234.265 73.1882L224.827 66.2047C223.122 64.9388 222.789 62.9922 223.827 61.4602L236.97 71.1863L245.505 64.8699C246.544 66.4019 246.21 68.3483 244.505 69.6141L239.534 73.3036L239.798 73.922C240.24 74.9552 240.12 76.0831 239.471 77.0409L236.982 75.1988L229.892 80.4602Z" fill="#FAFAFA"/>
<path d="M270.298 61.4602C271.365 62.9836 271.041 64.9197 269.318 66.2218L265.925 68.7322L275.362 75.7157C277.068 76.9816 277.401 78.9282 276.362 80.4602L263.219 70.7341L254.684 77.0505C253.646 75.5185 253.979 73.5721 255.685 72.3063L260.655 68.6168L260.391 67.9984C259.95 66.9652 260.07 65.8373 260.719 64.8795L263.208 66.7216L270.298 61.4602Z" fill="#FAFAFA"/>
<path d="M260.749 107.46C259.682 105.937 260.006 104.001 261.729 102.699L265.122 100.188L255.685 93.2047C253.979 91.9388 253.646 89.9922 254.685 88.4602L267.828 98.1863L276.363 91.8699C277.401 93.4019 277.068 95.3483 275.362 96.6141L270.392 100.304L270.656 100.922C271.097 101.955 270.977 103.083 270.328 104.041L267.839 102.199L260.749 107.46Z" fill="#FAFAFA"/>
<path d="M239.441 88.4602C240.509 89.9836 240.185 91.9197 238.461 93.2218L235.068 95.7322L244.506 102.716C246.211 103.982 246.544 105.928 245.506 107.46L232.363 97.7341L223.828 104.05C222.789 102.518 223.123 100.572 224.828 99.3063L229.799 95.6168L229.535 94.9984C229.093 93.9652 229.213 92.8373 229.862 91.8795L232.351 93.7216L239.441 88.4602Z" fill="#FAFAFA"/>
<path d="M199.036 107.46C197.968 105.937 198.292 104.001 200.015 102.699L203.408 100.188L193.971 93.2047C192.265 91.9388 191.932 89.9922 192.971 88.4602L206.114 98.1863L214.649 91.8699C215.687 93.4019 215.354 95.3483 213.648 96.6141L208.678 100.304L208.942 100.922C209.383 101.955 209.263 103.083 208.614 104.041L206.125 102.199L199.036 107.46Z" fill="#FAFAFA"/>
<path d="M177.726 88.4602C178.794 89.9836 178.47 91.9197 176.746 93.2218L173.354 95.7322L182.791 102.716C184.496 103.982 184.829 105.928 183.791 107.46L170.648 97.7341L162.113 104.05C161.075 102.518 161.408 100.572 163.113 99.3063L168.084 95.6168L167.82 94.9984C167.378 93.9652 167.498 92.8373 168.148 91.8795L170.637 93.7216L177.726 88.4602Z" fill="#FAFAFA"/>
<path d="M137.321 107.46C136.253 105.937 136.577 104.001 138.3 102.699L141.693 100.188L132.256 93.2047C130.551 91.9388 130.217 89.9922 131.256 88.4602L144.399 98.1863L152.934 91.8699C153.972 93.4019 153.639 95.3483 151.934 96.6141L146.963 100.304L147.227 100.922C147.668 101.955 147.549 103.083 146.899 104.041L144.41 102.199L137.321 107.46Z" fill="#FAFAFA"/>
<path d="M116.012 88.4602C117.08 89.9836 116.756 91.9197 115.033 93.2218L111.64 95.7322L121.077 102.716C122.782 103.982 123.116 105.928 122.077 107.46L108.934 97.7341L100.399 104.05C99.3607 102.518 99.6941 100.572 101.399 99.3063L106.37 95.6168L106.106 94.9984C105.665 93.9652 105.784 92.8373 106.434 91.8795L108.923 93.7216L116.012 88.4602Z" fill="#FAFAFA"/>
<path d="M75.6068 107.46C74.5391 105.937 74.863 104.001 76.5865 102.699L79.9795 100.188L70.5421 93.2047C68.8367 91.9388 68.5036 89.9922 69.5422 88.4602L82.685 98.1863L91.22 91.8699C92.2585 93.4019 91.9251 95.3483 90.2197 96.6141L85.2492 100.304L85.5132 100.922C85.9546 101.955 85.8348 103.083 85.1854 104.041L82.6965 102.199L75.6068 107.46Z" fill="#FAFAFA"/>
<path d="M85.1549 115.46C86.2227 116.984 85.8987 118.92 84.1752 120.222L80.7823 122.732L90.2196 129.716C91.925 130.982 92.2581 132.928 91.2195 134.46L78.0768 124.734L69.5417 131.05C68.5032 129.518 68.8366 127.572 70.542 126.306L75.5125 122.617L75.2485 121.998C74.8071 120.965 74.927 119.837 75.5763 118.879L78.0652 120.722L85.1549 115.46Z" fill="#FAFAFA"/>
<path d="M106.463 134.46C105.396 132.937 105.719 131.001 107.443 129.699L110.836 127.188L101.399 120.205C99.6931 118.939 99.36 116.992 100.399 115.46L113.541 125.186L122.076 118.87C123.115 120.402 122.782 122.348 121.076 123.614L116.106 127.304L116.37 127.922C116.811 128.955 116.691 130.083 116.042 131.041L113.553 129.199L106.463 134.46Z" fill="#FAFAFA"/>
<path d="M146.869 115.46C147.937 116.984 147.613 118.92 145.889 120.222L142.496 122.732L151.933 129.716C153.639 130.982 153.972 132.928 152.933 134.46L139.791 124.734L131.256 131.05C130.217 129.518 130.551 127.572 132.256 126.306L137.226 122.617L136.962 121.998C136.521 120.965 136.641 119.837 137.29 118.879L139.779 120.722L146.869 115.46Z" fill="#FAFAFA"/>
<path d="M168.178 134.46C167.11 132.937 167.434 131.001 169.158 129.699L172.551 127.188L163.113 120.205C161.408 118.939 161.075 116.992 162.113 115.46L175.256 125.186L183.791 118.87C184.83 120.402 184.496 122.348 182.791 123.614L177.82 127.304L178.085 127.922C178.526 128.955 178.406 130.083 177.757 131.041L175.268 129.199L168.178 134.46Z" fill="#FAFAFA"/>
<path d="M208.584 115.46C209.651 116.984 209.327 118.92 207.604 120.222L204.211 122.732L213.648 129.716C215.354 130.982 215.687 132.928 214.648 134.46L201.505 124.734L192.97 131.05C191.932 129.518 192.265 127.572 193.971 126.306L198.941 122.617L198.677 121.998C198.236 120.965 198.356 119.837 199.005 118.879L201.494 120.722L208.584 115.46Z" fill="#FAFAFA"/>
<path d="M229.892 134.46C228.824 132.937 229.148 131.001 230.872 129.699L234.265 127.188L224.827 120.205C223.122 118.939 222.789 116.992 223.827 115.46L236.97 125.186L245.505 118.87C246.544 120.402 246.21 122.348 244.505 123.614L239.534 127.304L239.798 127.922C240.24 128.955 240.12 130.083 239.471 131.041L236.982 129.199L229.892 134.46Z" fill="#FAFAFA"/>
<path d="M270.298 115.46C271.365 116.984 271.041 118.92 269.318 120.222L265.925 122.732L275.362 129.716C277.068 130.982 277.401 132.928 276.362 134.46L263.219 124.734L254.684 131.05C253.646 129.518 253.979 127.572 255.685 126.306L260.655 122.617L260.391 121.998C259.95 120.965 260.07 119.837 260.719 118.879L263.208 120.722L270.298 115.46Z" fill="#FAFAFA"/>
<path d="M260.749 161.46C259.682 159.937 260.006 158.001 261.729 156.699L265.122 154.188L255.685 147.205C253.979 145.939 253.646 143.992 254.685 142.46L267.828 152.186L276.363 145.87C277.401 147.402 277.068 149.348 275.362 150.614L270.392 154.304L270.656 154.922C271.097 155.955 270.977 157.083 270.328 158.041L267.839 156.199L260.749 161.46Z" fill="#FAFAFA"/>
<path d="M239.441 142.46C240.509 143.984 240.185 145.92 238.461 147.222L235.068 149.732L244.506 156.716C246.211 157.982 246.544 159.928 245.506 161.46L232.363 151.734L223.828 158.05C222.789 156.518 223.123 154.572 224.828 153.306L229.799 149.617L229.535 148.998C229.093 147.965 229.213 146.837 229.862 145.879L232.351 147.722L239.441 142.46Z" fill="#FAFAFA"/>
<path d="M199.036 161.46C197.968 159.937 198.292 158.001 200.015 156.699L203.408 154.188L193.971 147.205C192.265 145.939 191.932 143.992 192.971 142.46L206.114 152.186L214.649 145.87C215.687 147.402 215.354 149.348 213.648 150.614L208.678 154.304L208.942 154.922C209.383 155.955 209.263 157.083 208.614 158.041L206.125 156.199L199.036 161.46Z" fill="#FAFAFA"/>
<path d="M177.726 142.46C178.794 143.984 178.47 145.92 176.746 147.222L173.354 149.732L182.791 156.716C184.496 157.982 184.829 159.928 183.791 161.46L170.648 151.734L162.113 158.05C161.075 156.518 161.408 154.572 163.113 153.306L168.084 149.617L167.82 148.998C167.378 147.965 167.498 146.837 168.148 145.879L170.637 147.722L177.726 142.46Z" fill="#FAFAFA"/>
<path d="M137.321 161.46C136.253 159.937 136.577 158.001 138.3 156.699L141.693 154.188L132.256 147.205C130.551 145.939 130.217 143.992 131.256 142.46L144.399 152.186L152.934 145.87C153.972 147.402 153.639 149.348 151.934 150.614L146.963 154.304L147.227 154.922C147.668 155.955 147.549 157.083 146.899 158.041L144.41 156.199L137.321 161.46Z" fill="#FAFAFA"/>
<path d="M116.012 142.46C117.08 143.984 116.756 145.92 115.033 147.222L111.64 149.732L121.077 156.716C122.782 157.982 123.116 159.928 122.077 161.46L108.934 151.734L100.399 158.05C99.3607 156.518 99.6941 154.572 101.399 153.306L106.37 149.617L106.106 148.998C105.665 147.965 105.784 146.837 106.434 145.879L108.923 147.722L116.012 142.46Z" fill="#FAFAFA"/>
<path d="M75.6068 161.46C74.5391 159.937 74.863 158.001 76.5865 156.699L79.9795 154.188L70.5421 147.205C68.8367 145.939 68.5036 143.992 69.5422 142.46L82.685 152.186L91.22 145.87C92.2585 147.402 91.9251 149.348 90.2197 150.614L85.2492 154.304L85.5132 154.922C85.9546 155.955 85.8348 157.083 85.1854 158.041L82.6965 156.199L75.6068 161.46Z" fill="#FAFAFA"/>
<path d="M85.1549 169.46C86.2227 170.984 85.8987 172.92 84.1752 174.222L80.7823 176.732L90.2196 183.716C91.925 184.982 92.2581 186.928 91.2195 188.46L78.0768 178.734L69.5417 185.05C68.5032 183.518 68.8366 181.572 70.542 180.306L75.5125 176.617L75.2485 175.998C74.8071 174.965 74.927 173.837 75.5763 172.879L78.0652 174.722L85.1549 169.46Z" fill="#FAFAFA"/>
<path d="M106.463 188.46C105.396 186.937 105.719 185.001 107.443 183.699L110.836 181.188L101.399 174.205C99.6931 172.939 99.36 170.992 100.399 169.46L113.541 179.186L122.076 172.87C123.115 174.402 122.782 176.348 121.076 177.614L116.106 181.304L116.37 181.922C116.811 182.955 116.691 184.083 116.042 185.041L113.553 183.199L106.463 188.46Z" fill="#FAFAFA"/>
<path d="M146.869 169.46C147.937 170.984 147.613 172.92 145.889 174.222L142.496 176.732L151.933 183.716C153.639 184.982 153.972 186.928 152.933 188.46L139.791 178.734L131.256 185.05C130.217 183.518 130.551 181.572 132.256 180.306L137.226 176.617L136.962 175.998C136.521 174.965 136.641 173.837 137.29 172.879L139.779 174.722L146.869 169.46Z" fill="#FAFAFA"/>
<path d="M168.178 188.46C167.11 186.937 167.434 185.001 169.158 183.699L172.551 181.188L163.113 174.205C161.408 172.939 161.075 170.992 162.113 169.46L175.256 179.186L183.791 172.87C184.83 174.402 184.496 176.348 182.791 177.614L177.82 181.304L178.085 181.922C178.526 182.955 178.406 184.083 177.757 185.041L175.268 183.199L168.178 188.46Z" fill="#FAFAFA"/>
<path d="M208.584 169.46C209.651 170.984 209.327 172.92 207.604 174.222L204.211 176.732L213.648 183.716C215.354 184.982 215.687 186.928 214.648 188.46L201.505 178.734L192.97 185.05C191.932 183.518 192.265 181.572 193.971 180.306L198.941 176.617L198.677 175.998C198.236 174.965 198.356 173.837 199.005 172.879L201.494 174.722L208.584 169.46Z" fill="#FAFAFA"/>
<path d="M229.892 188.46C228.824 186.937 229.148 185.001 230.872 183.699L234.265 181.188L224.827 174.205C223.122 172.939 222.789 170.992 223.827 169.46L236.97 179.186L245.505 172.87C246.544 174.402 246.21 176.348 244.505 177.614L239.534 181.304L239.798 181.922C240.24 182.955 240.12 184.083 239.471 185.041L236.982 183.199L229.892 188.46Z" fill="#FAFAFA"/>
<path d="M270.298 169.46C271.365 170.984 271.041 172.92 269.318 174.222L265.925 176.732L275.362 183.716C277.068 184.982 277.401 186.928 276.362 188.46L263.219 178.734L254.684 185.05C253.646 183.518 253.979 181.572 255.685 180.306L260.655 176.617L260.391 175.998C259.95 174.965 260.07 173.837 260.719 172.879L263.208 174.722L270.298 169.46Z" fill="#FAFAFA"/>
<path d="M260.749 215.46C259.682 213.937 260.006 212.001 261.729 210.699L265.122 208.188L255.685 201.205C253.979 199.939 253.646 197.992 254.685 196.46L267.828 206.186L276.363 199.87C277.401 201.402 277.068 203.348 275.362 204.614L270.392 208.304L270.656 208.922C271.097 209.955 270.977 211.083 270.328 212.041L267.839 210.199L260.749 215.46Z" fill="#FAFAFA"/>
<path d="M239.441 196.46C240.509 197.984 240.185 199.92 238.461 201.222L235.068 203.732L244.506 210.716C246.211 211.982 246.544 213.928 245.506 215.46L232.363 205.734L223.828 212.05C222.789 210.518 223.123 208.572 224.828 207.306L229.799 203.617L229.535 202.998C229.093 201.965 229.213 200.837 229.862 199.879L232.351 201.722L239.441 196.46Z" fill="#FAFAFA"/>
<path d="M199.036 215.46C197.968 213.937 198.292 212.001 200.015 210.699L203.408 208.188L193.971 201.205C192.265 199.939 191.932 197.992 192.971 196.46L206.114 206.186L214.649 199.87C215.687 201.402 215.354 203.348 213.648 204.614L208.678 208.304L208.942 208.922C209.383 209.955 209.263 211.083 208.614 212.041L206.125 210.199L199.036 215.46Z" fill="#FAFAFA"/>
<path d="M177.726 196.46C178.794 197.984 178.47 199.92 176.746 201.222L173.354 203.732L182.791 210.716C184.496 211.982 184.829 213.928 183.791 215.46L170.648 205.734L162.113 212.05C161.075 210.518 161.408 208.572 163.113 207.306L168.084 203.617L167.82 202.998C167.378 201.965 167.498 200.837 168.148 199.879L170.637 201.722L177.726 196.46Z" fill="#FAFAFA"/>
<path d="M137.321 215.46C136.253 213.937 136.577 212.001 138.3 210.699L141.693 208.188L132.256 201.205C130.551 199.939 130.217 197.992 131.256 196.46L144.399 206.186L152.934 199.87C153.972 201.402 153.639 203.348 151.934 204.614L146.963 208.304L147.227 208.922C147.668 209.955 147.549 211.083 146.899 212.041L144.41 210.199L137.321 215.46Z" fill="#FAFAFA"/>
<path d="M116.012 196.46C117.08 197.984 116.756 199.92 115.033 201.222L111.64 203.732L121.077 210.716C122.782 211.982 123.116 213.928 122.077 215.46L108.934 205.734L100.399 212.05C99.3607 210.518 99.6941 208.572 101.399 207.306L106.37 203.617L106.106 202.998C105.665 201.965 105.784 200.837 106.434 199.879L108.923 201.722L116.012 196.46Z" fill="#FAFAFA"/>
<path d="M75.6068 215.46C74.5391 213.937 74.863 212.001 76.5865 210.699L79.9795 208.188L70.5421 201.205C68.8367 199.939 68.5036 197.992 69.5422 196.46L82.685 206.186L91.22 199.87C92.2585 201.402 91.9251 203.348 90.2197 204.614L85.2492 208.304L85.5132 208.922C85.9546 209.955 85.8348 211.083 85.1854 212.041L82.6965 210.199L75.6068 215.46Z" fill="#FAFAFA"/>
<path d="M85.1549 223.46C86.2227 224.984 85.8987 226.92 84.1752 228.222L80.7823 230.732L90.2196 237.716C91.925 238.982 92.2581 240.928 91.2195 242.46L78.0768 232.734L69.5417 239.05C68.5032 237.518 68.8366 235.572 70.542 234.306L75.5125 230.617L75.2485 229.998C74.8071 228.965 74.927 227.837 75.5763 226.879L78.0652 228.722L85.1549 223.46Z" fill="#FAFAFA"/>
<path d="M106.463 242.46C105.396 240.937 105.719 239.001 107.443 237.699L110.836 235.188L101.399 228.205C99.6931 226.939 99.36 224.992 100.399 223.46L113.541 233.186L122.076 226.87C123.115 228.402 122.782 230.348 121.076 231.614L116.106 235.304L116.37 235.922C116.811 236.955 116.691 238.083 116.042 239.041L113.553 237.199L106.463 242.46Z" fill="#FAFAFA"/>
<path d="M146.869 223.46C147.937 224.984 147.613 226.92 145.889 228.222L142.496 230.732L151.933 237.716C153.639 238.982 153.972 240.928 152.933 242.46L139.791 232.734L131.256 239.05C130.217 237.518 130.551 235.572 132.256 234.306L137.226 230.617L136.962 229.998C136.521 228.965 136.641 227.837 137.29 226.879L139.779 228.722L146.869 223.46Z" fill="#FAFAFA"/>
<path d="M168.178 242.46C167.11 240.937 167.434 239.001 169.158 237.699L172.551 235.188L163.113 228.205C161.408 226.939 161.075 224.992 162.113 223.46L175.256 233.186L183.791 226.87C184.83 228.402 184.496 230.348 182.791 231.614L177.82 235.304L178.085 235.922C178.526 236.955 178.406 238.083 177.757 239.041L175.268 237.199L168.178 242.46Z" fill="#FAFAFA"/>
<path d="M208.584 223.46C209.651 224.984 209.327 226.92 207.604 228.222L204.211 230.732L213.648 237.716C215.354 238.982 215.687 240.928 214.648 242.46L201.505 232.734L192.97 239.05C191.932 237.518 192.265 235.572 193.971 234.306L198.941 230.617L198.677 229.998C198.236 228.965 198.356 227.837 199.005 226.879L201.494 228.722L208.584 223.46Z" fill="#FAFAFA"/>
<path d="M229.892 242.46C228.824 240.937 229.148 239.001 230.872 237.699L234.265 235.188L224.827 228.205C223.122 226.939 222.789 224.992 223.827 223.46L236.97 233.186L245.505 226.87C246.544 228.402 246.21 230.348 244.505 231.614L239.534 235.304L239.798 235.922C240.24 236.955 240.12 238.083 239.471 239.041L236.982 237.199L229.892 242.46Z" fill="#FAFAFA"/>
<path d="M270.298 223.46C271.365 224.984 271.041 226.92 269.318 228.222L265.925 230.732L275.362 237.716C277.068 238.982 277.401 240.928 276.362 242.46L263.219 232.734L254.684 239.05C253.646 237.518 253.979 235.572 255.685 234.306L260.655 230.617L260.391 229.998C259.95 228.965 260.07 227.837 260.719 226.879L263.208 228.722L270.298 223.46Z" fill="#FAFAFA"/>
<path d="M260.749 269.46C259.682 267.937 260.006 266.001 261.729 264.699L265.122 262.188L255.685 255.205C253.979 253.939 253.646 251.992 254.685 250.46L267.828 260.186L276.363 253.87C277.401 255.402 277.068 257.348 275.362 258.614L270.392 262.304L270.656 262.922C271.097 263.955 270.977 265.083 270.328 266.041L267.839 264.199L260.749 269.46Z" fill="#FAFAFA"/>
<path d="M239.441 250.46C240.509 251.984 240.185 253.92 238.461 255.222L235.068 257.732L244.506 264.716C246.211 265.982 246.544 267.928 245.506 269.46L232.363 259.734L223.828 266.05C222.789 264.518 223.123 262.572 224.828 261.306L229.799 257.617L229.535 256.998C229.093 255.965 229.213 254.837 229.862 253.879L232.351 255.722L239.441 250.46Z" fill="#FAFAFA"/>
<path d="M199.036 269.46C197.968 267.937 198.292 266.001 200.015 264.699L203.408 262.188L193.971 255.205C192.265 253.939 191.932 251.992 192.971 250.46L206.114 260.186L214.649 253.87C215.687 255.402 215.354 257.348 213.648 258.614L208.678 262.304L208.942 262.922C209.383 263.955 209.263 265.083 208.614 266.041L206.125 264.199L199.036 269.46Z" fill="#FAFAFA"/>
<path d="M177.726 250.46C178.794 251.984 178.47 253.92 176.746 255.222L173.354 257.732L182.791 264.716C184.496 265.982 184.829 267.928 183.791 269.46L170.648 259.734L162.113 266.05C161.075 264.518 161.408 262.572 163.113 261.306L168.084 257.617L167.82 256.998C167.378 255.965 167.498 254.837 168.148 253.879L170.637 255.722L177.726 250.46Z" fill="#FAFAFA"/>
<path d="M137.321 269.46C136.253 267.937 136.577 266.001 138.3 264.699L141.693 262.188L132.256 255.205C130.551 253.939 130.217 251.992 131.256 250.46L144.399 260.186L152.934 253.87C153.972 255.402 153.639 257.348 151.934 258.614L146.963 262.304L147.227 262.922C147.668 263.955 147.549 265.083 146.899 266.041L144.41 264.199L137.321 269.46Z" fill="#FAFAFA"/>
<path d="M116.012 250.46C117.08 251.984 116.756 253.92 115.033 255.222L111.64 257.732L121.077 264.716C122.782 265.982 123.116 267.928 122.077 269.46L108.934 259.734L100.399 266.05C99.3607 264.518 99.6941 262.572 101.399 261.306L106.37 257.617L106.106 256.998C105.665 255.965 105.784 254.837 106.434 253.879L108.923 255.722L116.012 250.46Z" fill="#FAFAFA"/>
<path d="M75.6068 269.46C74.5391 267.937 74.863 266.001 76.5865 264.699L79.9795 262.188L70.5421 255.205C68.8367 253.939 68.5036 251.992 69.5422 250.46L82.685 260.186L91.22 253.87C92.2585 255.402 91.9251 257.348 90.2197 258.614L85.2492 262.304L85.5132 262.922C85.9546 263.955 85.8348 265.083 85.1854 266.041L82.6965 264.199L75.6068 269.46Z" fill="#FAFAFA"/>
</g>
<defs>
<filter id="filter0_d_4017_28110" x="-0.000228882" y="-0.000109196" width="345.905" height="345.905" filterUnits="userSpaceOnUse" color-interpolation-filters="sRGB">
<feFlood flood-opacity="0" result="BackgroundImageFix"/>
<feColorMatrix in="SourceAlpha" type="matrix" values="0 0 0 0 0 0 0 0 0 0 0 0 0 0 0 0 0 0 127 0" result="hardAlpha"/>
<feOffset dy="7.49206"/>
<feGaussianBlur stdDeviation="22.4762"/>
<feColorMatrix type="matrix" values="0 0 0 0 0.12549 0 0 0 0 0.164706 0 0 0 0 0.258824 0 0 0 0.06 0"/>
<feBlend mode="normal" in2="BackgroundImageFix" result="effect1_dropShadow_4017_28110"/>
<feBlend mode="normal" in="SourceGraphic" in2="effect1_dropShadow_4017_28110" result="shape"/>
</filter>
</defs>
</svg>
