<svg width="346" height="346" viewBox="0 0 346 346" fill="none" xmlns="http://www.w3.org/2000/svg">
<g filter="url(#filter0_d_4017_28054)">
<rect x="44.9521" y="37.4604" width="256" height="256" rx="4" fill="#121215"/>
<path d="M276.885 85.0675C277.003 85.0816 277.005 85.2487 276.888 85.2617C266.203 86.4462 249.359 86.4145 239.003 85.1669L177.018 77.6989C176.901 77.6848 176.901 77.5176 177.018 77.5044C179.035 77.2768 181.267 77.0943 183.63 76.9547C183.659 76.953 183.685 76.939 183.704 76.9176C183.848 76.7537 184.07 76.6307 184.369 76.5946L206.698 73.9048C206.816 73.8907 206.816 73.7204 206.698 73.7063L177.018 70.1305C176.901 70.1164 176.898 69.9495 177.016 69.9363C187.691 68.73 204.364 68.7608 214.906 70.0087L226.941 71.4633C226.949 71.4643 226.957 71.4643 226.965 71.4633L239.003 70.0126C239.007 70.0121 239.007 70.0072 239.003 70.0067L177.018 62.5387C176.901 62.5246 176.898 62.3577 177.015 62.3445C187.691 61.1381 204.364 61.169 214.906 62.4169L276.885 69.9073C277.003 69.9215 277.003 70.0888 276.885 70.1019C274.857 70.3266 272.607 70.5076 270.222 70.6448C270.193 70.6464 270.167 70.6605 270.148 70.6821C270.004 70.8468 269.781 70.9703 269.481 71.0067L247.146 73.7063C247.029 73.7204 247.029 73.8906 247.146 73.9048L276.885 77.4981C277.003 77.5123 277.005 77.6794 276.888 77.6924C266.203 78.8768 249.359 78.8451 239.003 77.5975L226.965 76.1478C226.957 76.1469 226.949 76.1469 226.941 76.1478L215.826 77.4905C215.708 77.5047 215.708 77.6749 215.826 77.689L276.885 85.0675Z" fill="#FAFAFA"/>
<path d="M69.0189 85.0675C68.9016 85.0816 68.8991 85.2487 69.0166 85.2617C79.7011 86.4462 96.5453 86.4145 106.901 85.1669L168.886 77.6989C169.003 77.6848 169.003 77.5176 168.886 77.5044C166.869 77.2768 164.638 77.0943 162.274 76.9547C162.246 76.953 162.219 76.939 162.201 76.9176C162.056 76.7537 161.835 76.6307 161.535 76.5946L139.206 73.9048C139.088 73.8907 139.088 73.7204 139.206 73.7063L168.886 70.1305C169.003 70.1164 169.006 69.9495 168.889 69.9363C158.213 68.73 141.541 68.7608 130.998 70.0087L118.963 71.4633C118.955 71.4643 118.947 71.4643 118.939 71.4633L106.901 70.0126C106.898 70.0121 106.898 70.0072 106.901 70.0067L168.886 62.5387C169.003 62.5246 169.006 62.3577 168.889 62.3445C158.213 61.1381 141.541 61.169 130.998 62.4169L69.0189 69.9073C68.9015 69.9215 68.9018 70.0888 69.0193 70.1019C71.0473 70.3266 73.2971 70.5076 75.6823 70.6448C75.7109 70.6464 75.7373 70.6605 75.7562 70.6821C75.9006 70.8468 76.1232 70.9703 76.4237 71.0067L98.7584 73.7063C98.8758 73.7204 98.8758 73.8906 98.7584 73.9048L69.019 77.4981C68.9016 77.5123 68.8992 77.6794 69.0167 77.6924C79.7011 78.8768 96.5454 78.8451 106.901 77.5975L118.939 76.1478C118.947 76.1469 118.955 76.1469 118.963 76.1478L130.079 77.4905C130.196 77.5047 130.196 77.6749 130.079 77.689L69.0189 85.0675Z" fill="#FAFAFA"/>
<path d="M168.885 121.734C169.003 121.748 169.005 121.915 168.888 121.928C158.203 123.113 141.359 123.081 131.003 121.833L69.0181 114.365C68.9008 114.351 68.9009 114.184 69.0182 114.171C71.0354 113.943 73.2667 113.761 75.6301 113.621C75.6586 113.62 75.6848 113.606 75.7037 113.584C75.8481 113.42 76.0697 113.297 76.3693 113.261L98.6985 110.571C98.8158 110.557 98.8158 110.387 98.6985 110.373L69.0181 106.797C68.9008 106.783 68.8982 106.616 69.0155 106.603C79.6908 105.396 96.3637 105.427 106.906 106.675L118.941 108.13C118.949 108.131 118.957 108.131 118.965 108.13L131.003 106.679C131.007 106.679 131.007 106.674 131.003 106.673L69.0181 99.2052C68.9008 99.1911 68.8981 99.0242 69.0155 99.011C79.6908 97.8047 96.3637 97.8355 106.906 99.0834L168.885 106.574C169.003 106.588 169.003 106.755 168.885 106.768C166.857 106.993 164.607 107.174 162.222 107.311C162.193 107.313 162.167 107.327 162.148 107.349C162.004 107.513 161.781 107.637 161.481 107.673L139.146 110.373C139.029 110.387 139.029 110.557 139.146 110.571L168.885 114.165C169.003 114.179 169.005 114.346 168.888 114.359C158.203 115.543 141.359 115.512 131.003 114.264L118.965 112.814C118.957 112.813 118.949 112.813 118.941 112.814L107.826 114.157C107.708 114.171 107.708 114.341 107.826 114.356L168.885 121.734Z" fill="#FAFAFA"/>
<path d="M177.019 121.734C176.902 121.748 176.899 121.915 177.017 121.928C187.701 123.113 204.545 123.081 214.901 121.833L276.886 114.365C277.003 114.351 277.003 114.184 276.886 114.171C274.869 113.943 272.638 113.761 270.274 113.621C270.246 113.62 270.219 113.606 270.201 113.584C270.056 113.42 269.835 113.297 269.535 113.261L247.206 110.571C247.088 110.557 247.088 110.387 247.206 110.373L276.886 106.797C277.003 106.783 277.006 106.616 276.889 106.603C266.213 105.396 249.541 105.427 238.998 106.675L226.963 108.13C226.955 108.131 226.947 108.131 226.939 108.13L214.901 106.679C214.898 106.679 214.898 106.674 214.901 106.673L276.886 99.2052C277.003 99.1911 277.006 99.0242 276.889 99.011C266.213 97.8047 249.541 97.8355 238.998 99.0834L177.019 106.574C176.902 106.588 176.902 106.755 177.019 106.768C179.047 106.993 181.297 107.174 183.682 107.311C183.711 107.313 183.737 107.327 183.756 107.349C183.901 107.513 184.123 107.637 184.424 107.673L206.758 110.373C206.876 110.387 206.876 110.557 206.758 110.571L177.019 114.165C176.902 114.179 176.899 114.346 177.017 114.359C187.701 115.543 204.545 115.512 214.901 114.264L226.939 112.814C226.947 112.813 226.955 112.813 226.963 112.814L238.079 114.157C238.196 114.171 238.196 114.341 238.079 114.356L177.019 121.734Z" fill="#FAFAFA"/>
<path d="M276.885 158.402C276.993 158.422 276.995 158.575 276.886 158.594C270.054 159.78 259.28 159.748 252.657 158.5L213.02 151.031C212.912 151.011 212.912 150.858 213.02 150.839C214.238 150.624 215.579 150.449 216.997 150.312C217.025 150.31 217.051 150.295 217.069 150.273C217.201 150.115 217.401 149.989 217.672 149.938L232.008 147.237C232.116 147.217 232.116 147.061 232.008 147.041L213.02 143.463C212.912 143.443 212.91 143.29 213.019 143.271C219.844 142.063 230.509 142.094 237.251 143.342L244.935 144.795C244.947 144.797 244.96 144.797 244.972 144.795L252.657 143.346C252.661 143.345 252.661 143.341 252.658 143.34C252.658 143.34 252.657 143.34 252.657 143.34L213.02 135.871C212.912 135.851 212.91 135.698 213.019 135.679C219.844 134.472 230.509 134.502 237.251 135.75L276.885 143.242C276.993 143.262 276.993 143.416 276.884 143.434C275.659 143.647 274.308 143.82 272.876 143.954C272.848 143.957 272.823 143.971 272.805 143.993C272.672 144.153 272.471 144.278 272.198 144.329L257.858 147.041C257.749 147.061 257.749 147.217 257.858 147.237L276.885 150.833C276.993 150.853 276.995 151.006 276.886 151.025C270.054 152.21 259.28 152.179 252.657 150.931L244.972 149.483C244.96 149.481 244.947 149.481 244.935 149.483L237.834 150.825C237.725 150.845 237.725 151.001 237.834 151.021L276.885 158.402Z" fill="#FAFAFA"/>
<path d="M180.585 137.278L204.952 156.969C200.83 160.291 194.057 160.291 189.934 156.969L165.567 137.337C169.689 133.956 176.388 133.956 180.585 137.278Z" fill="#FAFAFA"/>
<path d="M155.97 156.977L180.338 137.285C176.215 133.964 169.442 133.964 165.32 137.285L140.952 156.917C145.075 160.298 151.774 160.298 155.97 156.977Z" fill="white" fill-opacity="0.6"/>
<path d="M69.0196 158.402C68.911 158.422 68.9097 158.575 69.0186 158.594C75.8499 159.78 86.624 159.748 93.2469 158.5L132.884 151.031C132.993 151.011 132.993 150.858 132.884 150.839C131.666 150.624 130.325 150.449 128.907 150.312C128.879 150.31 128.854 150.295 128.836 150.273C128.703 150.115 128.504 149.989 128.232 149.938L113.896 147.237C113.788 147.217 113.788 147.061 113.896 147.041L132.884 143.463C132.993 143.443 132.994 143.29 132.886 143.271C126.06 142.063 115.396 142.094 108.653 143.342L100.97 144.795C100.957 144.797 100.945 144.797 100.932 144.795L93.2469 143.346C93.2435 143.345 93.2432 143.341 93.2466 143.34C93.2467 143.34 93.2468 143.34 93.2469 143.34L132.884 135.871C132.993 135.851 132.994 135.698 132.886 135.679C126.06 134.472 115.396 134.502 108.653 135.75L69.0195 143.242C68.9109 143.262 68.9114 143.416 69.0203 143.434C70.245 143.647 71.5964 143.82 73.0279 143.954C73.056 143.957 73.0816 143.971 73.0996 143.993C73.2322 144.153 73.4333 144.278 73.7059 144.329L88.0464 147.041C88.155 147.061 88.155 147.217 88.0464 147.237L69.0196 150.833C68.911 150.853 68.9097 151.006 69.0186 151.025C75.85 152.21 86.624 152.179 93.2469 150.931L100.932 149.483C100.945 149.481 100.957 149.481 100.97 149.483L108.071 150.825C108.179 150.845 108.179 151.001 108.071 151.021L69.0196 158.402Z" fill="#FAFAFA"/>
<path d="M132.885 195.068C132.993 195.089 132.995 195.242 132.886 195.261C126.054 196.446 115.28 196.415 108.657 195.167L69.02 187.698C68.9115 187.677 68.9117 187.524 69.0204 187.505C70.2384 187.29 71.5789 187.115 72.9972 186.979C73.0252 186.976 73.0505 186.962 73.0685 186.94C73.201 186.781 73.4005 186.656 73.672 186.604L88.0078 183.904C88.1165 183.883 88.1165 183.728 88.0078 183.707L69.02 180.129C68.9115 180.109 68.9099 179.956 69.0186 179.937C75.8441 178.73 86.5086 178.76 93.2511 180.009L100.935 181.461C100.947 181.464 100.96 181.464 100.972 181.461L108.657 180.013C108.661 180.012 108.661 180.007 108.658 180.007C108.658 180.007 108.657 180.007 108.657 180.007L69.02 172.538C68.9115 172.517 68.9099 172.365 69.0186 172.345C75.8441 171.138 86.5086 171.169 93.2511 172.417L132.885 179.908C132.993 179.929 132.993 180.082 132.884 180.101C131.659 180.313 130.308 180.486 128.876 180.621C128.848 180.623 128.823 180.638 128.805 180.66C128.672 180.819 128.471 180.944 128.198 180.996L113.858 183.707C113.749 183.728 113.749 183.883 113.858 183.904L132.885 187.499C132.993 187.52 132.995 187.673 132.886 187.692C126.054 188.877 115.28 188.845 108.657 187.598L100.972 186.15C100.96 186.148 100.947 186.148 100.935 186.15L93.8336 187.491C93.725 187.512 93.725 187.667 93.8336 187.688L132.885 195.068Z" fill="#FAFAFA"/>
<path d="M165.32 193.643L140.952 173.952C145.075 170.63 151.848 170.63 155.97 173.952L180.338 193.584C176.215 196.965 169.516 196.965 165.32 193.643Z" fill="#FAFAFA"/>
<path d="M189.934 173.944L165.566 193.636C169.689 196.957 176.462 196.957 180.584 193.636L204.952 174.004C200.829 170.623 194.13 170.623 189.934 173.944Z" fill="white" fill-opacity="0.6"/>
<path d="M213.02 195.068C212.911 195.089 212.91 195.242 213.019 195.261C219.85 196.446 230.624 196.415 237.247 195.167L276.884 187.698C276.993 187.677 276.993 187.524 276.884 187.505C275.666 187.29 274.325 187.115 272.907 186.979C272.879 186.976 272.854 186.962 272.836 186.94C272.703 186.781 272.504 186.656 272.232 186.604L257.896 183.904C257.788 183.883 257.788 183.728 257.896 183.707L276.884 180.129C276.993 180.109 276.994 179.956 276.886 179.937C270.06 178.73 259.396 178.76 252.653 180.009L244.97 181.461C244.957 181.464 244.945 181.464 244.932 181.461L237.247 180.013C237.244 180.012 237.243 180.007 237.247 180.007C237.247 180.007 237.247 180.007 237.247 180.007L276.884 172.538C276.993 172.517 276.994 172.365 276.886 172.345C270.06 171.138 259.396 171.169 252.653 172.417L213.02 179.908C212.911 179.929 212.911 180.082 213.02 180.101C214.245 180.313 215.596 180.486 217.028 180.621C217.056 180.623 217.082 180.638 217.1 180.66C217.232 180.819 217.433 180.944 217.706 180.996L232.046 183.707C232.155 183.728 232.155 183.883 232.046 183.904L213.02 187.499C212.911 187.52 212.91 187.673 213.019 187.692C219.85 188.877 230.624 188.845 237.247 187.598L244.932 186.15C244.945 186.148 244.957 186.148 244.97 186.15L252.071 187.491C252.179 187.512 252.179 187.667 252.071 187.688L213.02 195.068Z" fill="#FAFAFA"/>
<path d="M276.885 231.734C277.003 231.749 277.005 231.916 276.888 231.929C266.203 233.113 249.359 233.082 239.003 231.834L177.018 224.366C176.901 224.352 176.901 224.185 177.018 224.171C179.035 223.944 181.267 223.761 183.63 223.622C183.659 223.62 183.685 223.606 183.704 223.585C183.848 223.421 184.07 223.298 184.369 223.262L206.698 220.572C206.816 220.558 206.816 220.387 206.698 220.373L177.018 216.798C176.901 216.783 176.898 216.617 177.016 216.603C187.691 215.397 204.364 215.428 214.906 216.676L226.941 218.13C226.949 218.131 226.957 218.131 226.965 218.13L239.003 216.68C239.007 216.679 239.007 216.674 239.003 216.674L177.018 209.206C176.901 209.192 176.898 209.025 177.015 209.011C187.691 207.805 204.364 207.836 214.906 209.084L276.885 216.574C277.003 216.588 277.003 216.756 276.885 216.769C274.857 216.994 272.607 217.175 270.222 217.312C270.193 217.313 270.167 217.327 270.148 217.349C270.004 217.514 269.781 217.637 269.481 217.674L247.146 220.373C247.029 220.387 247.029 220.558 247.146 220.572L276.885 224.165C277.003 224.179 277.005 224.346 276.888 224.359C266.203 225.544 249.359 225.512 239.003 224.265L226.965 222.815C226.957 222.814 226.949 222.814 226.941 222.815L215.826 224.157C215.708 224.172 215.708 224.342 215.826 224.356L276.885 231.734Z" fill="#FAFAFA"/>
<path d="M69.0189 231.734C68.9016 231.749 68.8991 231.916 69.0166 231.929C79.7011 233.113 96.5453 233.082 106.901 231.834L168.886 224.366C169.003 224.352 169.003 224.185 168.886 224.171C166.869 223.944 164.638 223.761 162.274 223.622C162.246 223.62 162.219 223.606 162.201 223.585C162.056 223.421 161.835 223.298 161.535 223.262L139.206 220.572C139.088 220.558 139.088 220.387 139.206 220.373L168.886 216.798C169.003 216.783 169.006 216.617 168.889 216.603C158.213 215.397 141.541 215.428 130.998 216.676L118.963 218.13C118.955 218.131 118.947 218.131 118.939 218.13L106.901 216.68C106.898 216.679 106.898 216.674 106.901 216.674L168.886 209.206C169.003 209.192 169.006 209.025 168.889 209.011C158.213 207.805 141.541 207.836 130.998 209.084L69.0189 216.574C68.9015 216.588 68.9018 216.756 69.0193 216.769C71.0473 216.994 73.2971 217.175 75.6823 217.312C75.7109 217.313 75.7373 217.327 75.7562 217.349C75.9006 217.514 76.1232 217.637 76.4237 217.674L98.7584 220.373C98.8758 220.387 98.8758 220.558 98.7584 220.572L69.019 224.165C68.9016 224.179 68.8992 224.346 69.0167 224.359C79.7011 225.544 96.5454 225.512 106.901 224.265L118.939 222.815C118.947 222.814 118.955 222.814 118.963 222.815L130.079 224.157C130.196 224.172 130.196 224.342 130.079 224.356L69.0189 231.734Z" fill="#FAFAFA"/>
<path d="M168.319 271.605C168.434 271.621 168.438 271.784 168.323 271.799C157.785 273.156 141.092 273.125 130.842 271.704L69.5859 263.213C69.471 263.198 69.471 263.034 69.586 263.019C71.3327 262.79 73.2442 262.6 75.2653 262.448C75.2921 262.446 75.3168 262.434 75.3351 262.414C75.4765 262.262 75.684 262.147 75.9606 262.108L99.0653 258.907C99.1803 258.891 99.1803 258.725 99.0653 258.709L69.5858 254.622C69.4709 254.606 69.4674 254.443 69.5824 254.428C80.1111 253.045 96.6322 253.076 107.067 254.497L118.938 256.148C118.947 256.149 118.956 256.149 118.966 256.148L130.842 254.501C130.846 254.501 130.846 254.496 130.842 254.495L69.5859 246.004C69.471 245.989 69.4675 245.825 69.5825 245.81C80.1112 244.428 96.6323 244.46 107.067 245.881L168.319 254.396C168.434 254.412 168.434 254.576 168.319 254.591C166.562 254.817 164.634 255.005 162.593 255.154C162.567 255.156 162.542 255.169 162.523 255.189C162.382 255.341 162.174 255.455 161.897 255.493L138.778 258.709C138.663 258.725 138.663 258.891 138.778 258.907L168.319 263.013C168.434 263.029 168.438 263.192 168.322 263.207C157.785 264.565 141.092 264.533 130.842 263.112L118.967 261.467C118.957 261.466 118.948 261.466 118.939 261.467L107.875 263.005C107.76 263.02 107.76 263.187 107.875 263.203L168.319 271.605Z" fill="#FAFAFA"/>
<path d="M177.585 271.605C177.47 271.621 177.467 271.784 177.582 271.799C188.119 273.156 204.812 273.125 215.062 271.704L276.318 263.213C276.433 263.198 276.433 263.034 276.318 263.019C274.572 262.79 272.66 262.6 270.639 262.448C270.612 262.446 270.587 262.434 270.569 262.414C270.428 262.262 270.22 262.147 269.944 262.108L246.839 258.907C246.724 258.891 246.724 258.725 246.839 258.709L276.318 254.622C276.433 254.606 276.437 254.443 276.322 254.428C265.793 253.045 249.272 253.076 238.837 254.497L226.966 256.148C226.957 256.149 226.948 256.149 226.939 256.148L215.062 254.501C215.058 254.501 215.058 254.496 215.062 254.495L276.318 246.004C276.433 245.989 276.437 245.825 276.322 245.81C265.793 244.428 249.272 244.46 238.837 245.881L177.585 254.396C177.47 254.412 177.47 254.576 177.585 254.591C179.342 254.817 181.27 255.005 183.311 255.154C183.338 255.156 183.362 255.169 183.381 255.189C183.522 255.341 183.731 255.455 184.007 255.493L207.126 258.709C207.241 258.725 207.241 258.891 207.126 258.907L177.585 263.013C177.47 263.029 177.467 263.192 177.582 263.207C188.119 264.565 204.812 264.533 215.062 263.112L226.938 261.467C226.947 261.466 226.956 261.466 226.965 261.467L238.029 263.005C238.144 263.02 238.144 263.187 238.029 263.203L177.585 271.605Z" fill="#FAFAFA"/>
</g>
<defs>
<filter id="filter0_d_4017_28054" x="-0.000228882" y="0.000134945" width="345.905" height="345.905" filterUnits="userSpaceOnUse" color-interpolation-filters="sRGB">
<feFlood flood-opacity="0" result="BackgroundImageFix"/>
<feColorMatrix in="SourceAlpha" type="matrix" values="0 0 0 0 0 0 0 0 0 0 0 0 0 0 0 0 0 0 127 0" result="hardAlpha"/>
<feOffset dy="7.49206"/>
<feGaussianBlur stdDeviation="22.4762"/>
<feColorMatrix type="matrix" values="0 0 0 0 0.12549 0 0 0 0 0.164706 0 0 0 0 0.258824 0 0 0 0.06 0"/>
<feBlend mode="normal" in2="BackgroundImageFix" result="effect1_dropShadow_4017_28054"/>
<feBlend mode="normal" in="SourceGraphic" in2="effect1_dropShadow_4017_28054" result="shape"/>
</filter>
</defs>
</svg>
