<svg width="346" height="346" viewBox="0 0 346 346" fill="none" xmlns="http://www.w3.org/2000/svg">
<g filter="url(#filter0_d_4017_28376)">
<rect x="44.9521" y="37.4604" width="256" height="256" rx="4" fill="#121215"/>
<path d="M88.8006 89.4604C90.1085 87.2154 89.7117 84.3623 87.6004 82.4434L83.444 78.7438L95.0048 68.4523C97.0939 66.5869 97.502 63.7182 96.2297 61.4604L80.1298 75.7937L69.6744 66.4853C68.4022 68.743 68.8107 71.6113 70.8998 73.4767L76.9886 78.9139L76.6652 79.8252C76.1245 81.3478 76.2713 83.01 77.0668 84.4215L80.1157 81.7068L88.8006 89.4604Z" fill="#FAFAFA"/>
<path d="M124.801 89.4604C126.109 87.2154 125.712 84.3623 123.6 82.4434L119.444 78.7438L131.005 68.4523C133.094 66.5869 133.502 63.7182 132.23 61.4604L116.13 75.7937L105.674 66.4853C104.402 68.743 104.811 71.6113 106.9 73.4767L112.989 78.9139L112.665 79.8252C112.124 81.3478 112.271 83.01 113.067 84.4215L116.116 81.7068L124.801 89.4604Z" fill="#FAFAFA"/>
<path d="M160.801 89.4604C162.109 87.2154 161.712 84.3623 159.6 82.4434L155.444 78.7438L167.005 68.4523C169.094 66.5869 169.502 63.7182 168.23 61.4604L152.13 75.7937L141.674 66.4853C140.402 68.743 140.811 71.6113 142.9 73.4767L148.989 78.9139L148.665 79.8252C148.124 81.3478 148.271 83.01 149.067 84.4215L152.116 81.7068L160.801 89.4604Z" fill="#FAFAFA"/>
<path d="M196.801 89.4604C198.109 87.2154 197.712 84.3623 195.6 82.4434L191.444 78.7438L203.005 68.4523C205.094 66.5869 205.502 63.7182 204.23 61.4604L188.13 75.7937L177.674 66.4853C176.402 68.743 176.811 71.6113 178.9 73.4767L184.989 78.9139L184.665 79.8252C184.124 81.3478 184.271 83.01 185.067 84.4215L188.116 81.7068L196.801 89.4604Z" fill="#FAFAFA"/>
<path d="M232.801 89.4604C234.109 87.2154 233.712 84.3623 231.6 82.4434L227.444 78.7438L239.005 68.4523C241.094 66.5869 241.502 63.7182 240.23 61.4604L224.13 75.7937L213.674 66.4853C212.402 68.743 212.811 71.6113 214.9 73.4767L220.989 78.9139L220.665 79.8252C220.124 81.3478 220.271 83.01 221.067 84.4215L224.116 81.7068L232.801 89.4604Z" fill="#FAFAFA"/>
<path d="M268.801 89.4604C270.109 87.2154 269.712 84.3623 267.6 82.4434L263.444 78.7438L275.005 68.4523C277.094 66.5869 277.502 63.7182 276.23 61.4604L260.13 75.7937L249.674 66.4853C248.402 68.743 248.811 71.6113 250.9 73.4767L256.989 78.9139L256.665 79.8252C256.124 81.3478 256.271 83.01 257.067 84.4215L260.116 81.7068L268.801 89.4604Z" fill="#FAFAFA"/>
<path d="M88.8006 97.4604C90.1085 99.7055 89.7117 102.559 87.6004 104.478L83.444 108.177L95.0048 118.469C97.0939 120.334 97.502 123.203 96.2297 125.46L80.1298 111.127L69.6744 120.436C68.4022 118.178 68.8107 115.31 70.8998 113.444L76.9886 108.007L76.6652 107.096C76.1245 105.573 76.2713 103.911 77.0668 102.499L80.1157 105.214L88.8006 97.4604Z" fill="#FAFAFA"/>
<path d="M124.801 97.4604C126.109 99.7055 125.712 102.559 123.6 104.478L119.444 108.177L131.005 118.469C133.094 120.334 133.502 123.203 132.23 125.46L116.13 111.127L105.674 120.436C104.402 118.178 104.811 115.31 106.9 113.444L112.989 108.007L112.665 107.096C112.124 105.573 112.271 103.911 113.067 102.499L116.116 105.214L124.801 97.4604Z" fill="#FAFAFA"/>
<path d="M160.801 97.4604C162.109 99.7055 161.712 102.559 159.6 104.478L155.444 108.177L167.005 118.469C169.094 120.334 169.502 123.203 168.23 125.46L152.13 111.127L141.674 120.436C140.402 118.178 140.811 115.31 142.9 113.444L148.989 108.007L148.665 107.096C148.124 105.573 148.271 103.911 149.067 102.499L152.116 105.214L160.801 97.4604Z" fill="#FAFAFA"/>
<path d="M196.801 97.4604C198.109 99.7055 197.712 102.559 195.6 104.478L191.444 108.177L203.005 118.469C205.094 120.334 205.502 123.203 204.23 125.46L188.13 111.127L177.674 120.436C176.402 118.178 176.811 115.31 178.9 113.444L184.989 108.007L184.665 107.096C184.124 105.573 184.271 103.911 185.067 102.499L188.116 105.214L196.801 97.4604Z" fill="#FAFAFA"/>
<path d="M232.801 97.4604C234.109 99.7055 233.712 102.559 231.6 104.478L227.444 108.177L239.005 118.469C241.094 120.334 241.502 123.203 240.23 125.46L224.13 111.127L213.674 120.436C212.402 118.178 212.811 115.31 214.9 113.444L220.989 108.007L220.665 107.096C220.124 105.573 220.271 103.911 221.067 102.499L224.116 105.214L232.801 97.4604Z" fill="#FAFAFA"/>
<path d="M268.801 97.4604C270.109 99.7055 269.712 102.559 267.6 104.478L263.444 108.177L275.005 118.469C277.094 120.334 277.502 123.203 276.23 125.46L260.13 111.127L249.674 120.436C248.402 118.178 248.811 115.31 250.9 113.444L256.989 108.007L256.665 107.096C256.124 105.573 256.271 103.911 257.067 102.499L260.116 105.214L268.801 97.4604Z" fill="#FAFAFA"/>
<path d="M88.8006 161.46C90.1085 159.215 89.7117 156.362 87.6004 154.443L83.444 150.744L95.0048 140.452C97.0939 138.587 97.502 135.718 96.2297 133.46L80.1298 147.794L69.6744 138.485C68.4022 140.743 68.8107 143.611 70.8998 145.477L76.9886 150.914L76.6652 151.825C76.1245 153.348 76.2713 155.01 77.0668 156.422L80.1157 153.707L88.8006 161.46Z" fill="#FAFAFA"/>
<path d="M124.801 161.46C126.109 159.215 125.712 156.362 123.6 154.443L119.444 150.744L131.005 140.452C133.094 138.587 133.502 135.718 132.23 133.46L116.13 147.794L105.674 138.485C104.402 140.743 104.811 143.611 106.9 145.477L112.989 150.914L112.665 151.825C112.124 153.348 112.271 155.01 113.067 156.422L116.116 153.707L124.801 161.46Z" fill="#FAFAFA"/>
<path d="M160.801 161.46C162.109 159.215 161.712 156.362 159.6 154.443L155.444 150.744L167.005 140.452C169.094 138.587 169.502 135.718 168.23 133.46L152.13 147.794L141.674 138.485C140.402 140.743 140.811 143.611 142.9 145.477L148.989 150.914L148.665 151.825C148.124 153.348 148.271 155.01 149.067 156.422L152.116 153.707L160.801 161.46Z" fill="#FAFAFA"/>
<path d="M196.801 161.46C198.109 159.215 197.712 156.362 195.6 154.443L191.444 150.744L203.005 140.452C205.094 138.587 205.502 135.718 204.23 133.46L188.13 147.794L177.674 138.485C176.402 140.743 176.811 143.611 178.9 145.477L184.989 150.914L184.665 151.825C184.124 153.348 184.271 155.01 185.067 156.422L188.116 153.707L196.801 161.46Z" fill="#FAFAFA"/>
<path d="M232.801 161.46C234.109 159.215 233.712 156.362 231.6 154.443L227.444 150.744L239.005 140.452C241.094 138.587 241.502 135.718 240.23 133.46L224.13 147.794L213.674 138.485C212.402 140.743 212.811 143.611 214.9 145.477L220.989 150.914L220.665 151.825C220.124 153.348 220.271 155.01 221.067 156.422L224.116 153.707L232.801 161.46Z" fill="#FAFAFA"/>
<path d="M268.801 161.46C270.109 159.215 269.712 156.362 267.6 154.443L263.444 150.744L275.005 140.452C277.094 138.587 277.502 135.718 276.23 133.46L260.13 147.794L249.674 138.485C248.402 140.743 248.811 143.611 250.9 145.477L256.989 150.914L256.665 151.825C256.124 153.348 256.271 155.01 257.067 156.422L260.116 153.707L268.801 161.46Z" fill="#FAFAFA"/>
<path d="M88.8006 169.46C90.1085 171.705 89.7117 174.559 87.6004 176.478L83.444 180.177L95.0048 190.469C97.0939 192.334 97.502 195.203 96.2297 197.46L80.1298 183.127L69.6744 192.436C68.4022 190.178 68.8107 187.31 70.8998 185.444L76.9886 180.007L76.6652 179.096C76.1245 177.573 76.2713 175.911 77.0668 174.499L80.1157 177.214L88.8006 169.46Z" fill="#FAFAFA"/>
<path d="M124.801 169.46C126.109 171.705 125.712 174.559 123.6 176.478L119.444 180.177L131.005 190.469C133.094 192.334 133.502 195.203 132.23 197.46L116.13 183.127L105.674 192.436C104.402 190.178 104.811 187.31 106.9 185.444L112.989 180.007L112.665 179.096C112.124 177.573 112.271 175.911 113.067 174.499L116.116 177.214L124.801 169.46Z" fill="#FAFAFA"/>
<path d="M160.801 169.46C162.109 171.705 161.712 174.559 159.6 176.478L155.444 180.177L167.005 190.469C169.094 192.334 169.502 195.203 168.23 197.46L152.13 183.127L141.674 192.436C140.402 190.178 140.811 187.31 142.9 185.444L148.989 180.007L148.665 179.096C148.124 177.573 148.271 175.911 149.067 174.499L152.116 177.214L160.801 169.46Z" fill="#FAFAFA"/>
<path d="M196.801 169.46C198.109 171.705 197.712 174.559 195.6 176.478L191.444 180.177L203.005 190.469C205.094 192.334 205.502 195.203 204.23 197.46L188.13 183.127L177.674 192.436C176.402 190.178 176.811 187.31 178.9 185.444L184.989 180.007L184.665 179.096C184.124 177.573 184.271 175.911 185.067 174.499L188.116 177.214L196.801 169.46Z" fill="#FAFAFA"/>
<path d="M232.801 169.46C234.109 171.705 233.712 174.559 231.6 176.478L227.444 180.177L239.005 190.469C241.094 192.334 241.502 195.203 240.23 197.46L224.13 183.127L213.674 192.436C212.402 190.178 212.811 187.31 214.9 185.444L220.989 180.007L220.665 179.096C220.124 177.573 220.271 175.911 221.067 174.499L224.116 177.214L232.801 169.46Z" fill="#FAFAFA"/>
<path d="M268.801 169.46C270.109 171.705 269.712 174.559 267.6 176.478L263.444 180.177L275.005 190.469C277.094 192.334 277.502 195.203 276.23 197.46L260.13 183.127L249.674 192.436C248.402 190.178 248.811 187.31 250.9 185.444L256.989 180.007L256.665 179.096C256.124 177.573 256.271 175.911 257.067 174.499L260.116 177.214L268.801 169.46Z" fill="#FAFAFA"/>
<path d="M88.8006 233.46C90.1085 231.215 89.7117 228.362 87.6004 226.443L83.444 222.744L95.0048 212.452C97.0939 210.587 97.502 207.718 96.2297 205.46L80.1298 219.794L69.6744 210.485C68.4022 212.743 68.8107 215.611 70.8998 217.477L76.9886 222.914L76.6652 223.825C76.1245 225.348 76.2713 227.01 77.0668 228.422L80.1157 225.707L88.8006 233.46Z" fill="#FAFAFA"/>
<path d="M124.801 233.46C126.109 231.215 125.712 228.362 123.6 226.443L119.444 222.744L131.005 212.452C133.094 210.587 133.502 207.718 132.23 205.46L116.13 219.794L105.674 210.485C104.402 212.743 104.811 215.611 106.9 217.477L112.989 222.914L112.665 223.825C112.124 225.348 112.271 227.01 113.067 228.422L116.116 225.707L124.801 233.46Z" fill="#FAFAFA"/>
<path d="M160.801 233.46C162.109 231.215 161.712 228.362 159.6 226.443L155.444 222.744L167.005 212.452C169.094 210.587 169.502 207.718 168.23 205.46L152.13 219.794L141.674 210.485C140.402 212.743 140.811 215.611 142.9 217.477L148.989 222.914L148.665 223.825C148.124 225.348 148.271 227.01 149.067 228.422L152.116 225.707L160.801 233.46Z" fill="#FAFAFA"/>
<path d="M196.801 233.46C198.109 231.215 197.712 228.362 195.6 226.443L191.444 222.744L203.005 212.452C205.094 210.587 205.502 207.718 204.23 205.46L188.13 219.794L177.674 210.485C176.402 212.743 176.811 215.611 178.9 217.477L184.989 222.914L184.665 223.825C184.124 225.348 184.271 227.01 185.067 228.422L188.116 225.707L196.801 233.46Z" fill="#FAFAFA"/>
<path d="M232.801 233.46C234.109 231.215 233.712 228.362 231.6 226.443L227.444 222.744L239.005 212.452C241.094 210.587 241.502 207.718 240.23 205.46L224.13 219.794L213.674 210.485C212.402 212.743 212.811 215.611 214.9 217.477L220.989 222.914L220.665 223.825C220.124 225.348 220.271 227.01 221.067 228.422L224.116 225.707L232.801 233.46Z" fill="#FAFAFA"/>
<path d="M268.801 233.46C270.109 231.215 269.712 228.362 267.6 226.443L263.444 222.744L275.005 212.452C277.094 210.587 277.502 207.718 276.23 205.46L260.13 219.794L249.674 210.485C248.402 212.743 248.811 215.611 250.9 217.477L256.989 222.914L256.665 223.825C256.124 225.348 256.271 227.01 257.067 228.422L260.116 225.707L268.801 233.46Z" fill="#FAFAFA"/>
<path d="M88.8006 241.46C90.1085 243.705 89.7117 246.559 87.6004 248.478L83.444 252.177L95.0048 262.469C97.0939 264.334 97.502 267.203 96.2297 269.46L80.1298 255.127L69.6744 264.436C68.4022 262.178 68.8107 259.31 70.8998 257.444L76.9886 252.007L76.6652 251.096C76.1245 249.573 76.2713 247.911 77.0668 246.499L80.1157 249.214L88.8006 241.46Z" fill="#FAFAFA"/>
<path d="M124.801 241.46C126.109 243.705 125.712 246.559 123.6 248.478L119.444 252.177L131.005 262.469C133.094 264.334 133.502 267.203 132.23 269.46L116.13 255.127L105.674 264.436C104.402 262.178 104.811 259.31 106.9 257.444L112.989 252.007L112.665 251.096C112.124 249.573 112.271 247.911 113.067 246.499L116.116 249.214L124.801 241.46Z" fill="#FAFAFA"/>
<path d="M160.801 241.46C162.109 243.705 161.712 246.559 159.6 248.478L155.444 252.177L167.005 262.469C169.094 264.334 169.502 267.203 168.23 269.46L152.13 255.127L141.674 264.436C140.402 262.178 140.811 259.31 142.9 257.444L148.989 252.007L148.665 251.096C148.124 249.573 148.271 247.911 149.067 246.499L152.116 249.214L160.801 241.46Z" fill="#FAFAFA"/>
<path d="M196.801 241.46C198.109 243.705 197.712 246.559 195.6 248.478L191.444 252.177L203.005 262.469C205.094 264.334 205.502 267.203 204.23 269.46L188.13 255.127L177.674 264.436C176.402 262.178 176.811 259.31 178.9 257.444L184.989 252.007L184.665 251.096C184.124 249.573 184.271 247.911 185.067 246.499L188.116 249.214L196.801 241.46Z" fill="#FAFAFA"/>
<path d="M232.801 241.46C234.109 243.705 233.712 246.559 231.6 248.478L227.444 252.177L239.005 262.469C241.094 264.334 241.502 267.203 240.23 269.46L224.13 255.127L213.674 264.436C212.402 262.178 212.811 259.31 214.9 257.444L220.989 252.007L220.665 251.096C220.124 249.573 220.271 247.911 221.067 246.499L224.116 249.214L232.801 241.46Z" fill="#FAFAFA"/>
<path d="M268.801 241.46C270.109 243.705 269.712 246.559 267.6 248.478L263.444 252.177L275.005 262.469C277.094 264.334 277.502 267.203 276.23 269.46L260.13 255.127L249.674 264.436C248.402 262.178 248.811 259.31 250.9 257.444L256.989 252.007L256.665 251.096C256.124 249.573 256.271 247.911 257.067 246.499L260.116 249.214L268.801 241.46Z" fill="#FAFAFA"/>
</g>
<defs>
<filter id="filter0_d_4017_28376" x="-0.000228882" y="0.000134945" width="345.905" height="345.905" filterUnits="userSpaceOnUse" color-interpolation-filters="sRGB">
<feFlood flood-opacity="0" result="BackgroundImageFix"/>
<feColorMatrix in="SourceAlpha" type="matrix" values="0 0 0 0 0 0 0 0 0 0 0 0 0 0 0 0 0 0 127 0" result="hardAlpha"/>
<feOffset dy="7.49206"/>
<feGaussianBlur stdDeviation="22.4762"/>
<feColorMatrix type="matrix" values="0 0 0 0 0.12549 0 0 0 0 0.164706 0 0 0 0 0.258824 0 0 0 0.06 0"/>
<feBlend mode="normal" in2="BackgroundImageFix" result="effect1_dropShadow_4017_28376"/>
<feBlend mode="normal" in="SourceGraphic" in2="effect1_dropShadow_4017_28376" result="shape"/>
</filter>
</defs>
</svg>
