<svg width="346" height="346" viewBox="0 0 346 346" fill="none" xmlns="http://www.w3.org/2000/svg">
<g filter="url(#filter0_d_4017_28520)">
<rect x="44.9521" y="37.4604" width="256" height="256" rx="4" fill="#121215"/>
<path d="M178.432 182.733C179.792 183.498 179.775 185.43 178.338 186.037C166.426 191.073 149.239 190.553 138.415 184.478L69.4662 145.784C69.0208 145.534 69.0192 144.897 69.4722 144.661C69.5778 144.606 69.6642 144.52 69.7444 144.432C69.8135 144.356 69.8965 144.289 69.9942 144.234L100.237 127.264C101.598 126.499 101.598 124.539 100.237 123.775L71.5346 107.667C70.1789 106.906 70.1864 104.983 71.6132 104.365C83.4981 99.2254 100.545 99.7408 111.571 105.82L124.009 112.822C124.617 113.164 125.36 113.164 125.969 112.823L138.415 105.837C138.426 105.831 138.427 105.815 138.416 105.809C138.415 105.809 138.415 105.809 138.415 105.809L71.5345 68.2746C70.1789 67.5138 70.1863 65.59 71.6132 64.9729C83.498 59.8325 100.545 60.348 111.571 66.4277L180.402 105.172C180.898 105.451 180.896 106.161 180.388 106.418C180.301 106.462 180.225 106.526 180.151 106.59C180.101 106.635 180.045 106.675 179.982 106.71L149.665 123.777C148.306 124.541 148.306 126.498 149.665 127.262L178.432 143.455C179.792 144.22 179.775 146.152 178.338 146.759C166.426 151.794 149.239 151.274 138.415 145.2L125.97 138.216C125.361 137.874 124.618 137.875 124.01 138.217L114.775 143.414C113.417 144.179 113.417 146.135 114.775 146.9L178.432 182.733Z" fill="#FAFAFA"/>
<path d="M167.472 182.733C166.112 183.498 166.129 185.43 167.566 186.037C179.478 191.073 196.665 190.553 207.489 184.478L276.438 145.784C276.883 145.534 276.885 144.897 276.432 144.661C276.326 144.606 276.24 144.52 276.16 144.432C276.091 144.356 276.008 144.289 275.91 144.234L245.667 127.264C244.306 126.499 244.306 124.539 245.667 123.775L274.37 107.667C275.725 106.906 275.718 104.983 274.291 104.365C262.406 99.2254 245.36 99.7408 234.333 105.82L221.896 112.822C221.287 113.164 220.544 113.164 219.936 112.823L207.489 105.837C207.478 105.831 207.477 105.815 207.489 105.809C207.489 105.809 207.489 105.809 207.489 105.809L274.37 68.2746C275.725 67.5138 275.718 65.59 274.291 64.9729C262.406 59.8325 245.36 60.348 234.333 66.4277L165.503 105.172C165.007 105.451 165.008 106.161 165.516 106.418C165.603 106.462 165.68 106.526 165.753 106.59C165.804 106.635 165.86 106.675 165.922 106.71L196.24 123.777C197.598 124.541 197.598 126.498 196.24 127.262L167.472 143.455C166.112 144.22 166.129 146.152 167.566 146.759C179.479 151.794 196.665 151.274 207.489 145.2L219.935 138.216C220.543 137.874 221.286 137.875 221.894 138.217L231.129 143.414C232.488 144.179 232.488 146.135 231.129 146.9L167.472 182.733Z" fill="#FAFAFA"/>
<path d="M71.4719 262.733C70.1123 263.498 70.1289 265.43 71.566 266.037C83.4784 271.073 100.665 270.553 111.489 264.478L180.438 225.784C180.883 225.534 180.885 224.897 180.432 224.661C180.326 224.606 180.24 224.52 180.16 224.432C180.091 224.356 180.008 224.289 179.91 224.234L149.667 207.264C148.306 206.499 148.306 204.539 149.667 203.775L178.37 187.667C179.725 186.906 179.718 184.983 178.291 184.365C166.406 179.225 149.36 179.741 138.333 185.82L125.896 192.822C125.287 193.164 124.544 193.164 123.936 192.823L111.489 185.837C111.478 185.831 111.477 185.815 111.489 185.809C111.489 185.809 111.489 185.809 111.489 185.809L178.37 148.275C179.725 147.514 179.718 145.59 178.291 144.973C166.406 139.833 149.36 140.348 138.333 146.428L69.5027 185.172C69.0065 185.451 69.0081 186.161 69.5162 186.418C69.6033 186.462 69.6797 186.526 69.7531 186.59C69.8036 186.635 69.8597 186.675 69.9218 186.71L100.24 203.777C101.598 204.541 101.598 206.498 100.24 207.262L71.4721 223.455C70.1124 224.22 70.129 226.152 71.5661 226.759C83.4785 231.794 100.665 231.274 111.489 225.2L123.935 218.216C124.543 217.874 125.286 217.875 125.894 218.217L135.129 223.414C136.488 224.179 136.488 226.135 135.129 226.9L71.4719 262.733Z" fill="#FAFAFA"/>
<path d="M274.432 262.733C275.792 263.498 275.775 265.43 274.338 266.037C262.426 271.073 245.239 270.553 234.415 264.478L165.466 225.784C165.021 225.534 165.019 224.897 165.472 224.661C165.578 224.606 165.664 224.52 165.744 224.432C165.813 224.356 165.897 224.289 165.994 224.234L196.237 207.264C197.598 206.499 197.598 204.539 196.237 203.775L167.535 187.667C166.179 186.906 166.186 184.983 167.613 184.365C179.498 179.225 196.545 179.741 207.571 185.82L220.009 192.822C220.617 193.164 221.36 193.164 221.969 192.823L234.415 185.837C234.426 185.831 234.427 185.815 234.416 185.809C234.415 185.809 234.415 185.809 234.415 185.809L167.535 148.275C166.179 147.514 166.186 145.59 167.613 144.973C179.498 139.833 196.545 140.348 207.571 146.428L276.402 185.172C276.898 185.451 276.896 186.161 276.388 186.418C276.301 186.462 276.225 186.526 276.151 186.59C276.101 186.635 276.045 186.675 275.982 186.71L245.665 203.777C244.306 204.541 244.306 206.498 245.665 207.262L274.432 223.455C275.792 224.22 275.775 226.152 274.338 226.759C262.426 231.794 245.239 231.274 234.415 225.2L221.97 218.216C221.361 217.874 220.618 217.875 220.01 218.217L210.775 223.414C209.417 224.179 209.417 226.135 210.775 226.9L274.432 262.733Z" fill="#FAFAFA"/>
</g>
<defs>
<filter id="filter0_d_4017_28520" x="-0.000228882" y="0.000134945" width="345.905" height="345.905" filterUnits="userSpaceOnUse" color-interpolation-filters="sRGB">
<feFlood flood-opacity="0" result="BackgroundImageFix"/>
<feColorMatrix in="SourceAlpha" type="matrix" values="0 0 0 0 0 0 0 0 0 0 0 0 0 0 0 0 0 0 127 0" result="hardAlpha"/>
<feOffset dy="7.49206"/>
<feGaussianBlur stdDeviation="22.4762"/>
<feColorMatrix type="matrix" values="0 0 0 0 0.12549 0 0 0 0 0.164706 0 0 0 0 0.258824 0 0 0 0.06 0"/>
<feBlend mode="normal" in2="BackgroundImageFix" result="effect1_dropShadow_4017_28520"/>
<feBlend mode="normal" in="SourceGraphic" in2="effect1_dropShadow_4017_28520" result="shape"/>
</filter>
</defs>
</svg>
