<svg width="346" height="346" viewBox="0 0 346 346" fill="none" xmlns="http://www.w3.org/2000/svg">
<g filter="url(#filter0_d_4017_27990)">
<rect x="44.9521" y="37.4604" width="256" height="256" rx="4" fill="#121215"/>
<path d="M276.864 77.7487C276.917 77.7735 276.971 77.7182 276.946 77.6638C275.561 74.612 272.109 71.0296 269.209 69.6556L251.926 61.4665C251.873 61.4417 251.82 61.4975 251.844 61.5519C251.998 61.8939 252.177 62.2414 252.377 62.5918C252.385 62.6048 252.388 62.62 252.386 62.6351C252.375 62.7423 252.389 62.8588 252.44 62.9767L255.632 70.345C255.656 70.3999 255.602 70.4563 255.55 70.4314L247.156 66.4546C247.104 66.4298 247.05 66.4847 247.074 66.5391C248.444 69.6042 251.86 73.1493 254.798 74.5629L258.123 76.134C258.136 76.1405 258.148 76.1521 258.154 76.1665L259.66 79.6434C259.66 79.6432 259.66 79.6436 259.66 79.6434C259.661 79.6458 259.659 79.6485 259.657 79.6475L242.373 71.4575C242.321 71.4327 242.267 71.4876 242.291 71.542C243.661 74.6073 247.077 78.1527 250.015 79.5663L267.311 87.7401C267.364 87.7649 267.417 87.7087 267.393 87.6543C267.236 87.3098 267.053 86.9586 266.848 86.6045C266.84 86.5917 266.837 86.5767 266.839 86.5618C266.848 86.457 266.833 86.3437 266.783 86.2289L263.594 78.8449C263.57 78.7901 263.624 78.7337 263.677 78.7585L272.094 82.7367C272.147 82.7615 272.201 82.7063 272.176 82.6519C270.791 79.6002 267.339 76.0182 264.44 74.6441L261.116 73.069C261.102 73.0624 261.091 73.0509 261.085 73.0364L259.662 69.7447C259.639 69.6898 259.692 69.6335 259.745 69.6583L276.864 77.7487Z" fill="#FAFAFA"/>
<path d="M207.707 77.7487C207.654 77.7735 207.601 77.7182 207.625 77.6638C209.011 74.612 212.462 71.0296 215.362 69.6556L232.645 61.4665C232.698 61.4417 232.751 61.4975 232.727 61.5519C232.574 61.8939 232.394 62.2414 232.194 62.5918C232.187 62.6048 232.184 62.62 232.185 62.6351C232.197 62.7423 232.182 62.8588 232.131 62.9767L228.939 70.345C228.915 70.3999 228.969 70.4563 229.022 70.4314L237.415 66.4546C237.468 66.4298 237.522 66.4847 237.497 66.5391C236.127 69.6042 232.711 73.1493 229.773 74.5629L226.449 76.134C226.435 76.1405 226.424 76.1521 226.418 76.1665L224.912 79.6434C224.912 79.6432 224.911 79.6436 224.912 79.6434C224.91 79.6458 224.912 79.6485 224.915 79.6475L242.198 71.4575C242.25 71.4327 242.304 71.4876 242.28 71.542C240.91 74.6073 237.494 78.1527 234.556 79.5663L217.26 87.7401C217.207 87.7649 217.154 87.7087 217.179 87.6543C217.335 87.3098 217.518 86.9586 217.724 86.6045C217.731 86.5917 217.734 86.5767 217.733 86.5618C217.723 86.457 217.738 86.3437 217.788 86.2289L220.977 78.8449C221.001 78.7901 220.947 78.7337 220.895 78.7585L212.477 82.7367C212.424 82.7615 212.371 82.7063 212.395 82.6519C213.781 79.6002 217.232 76.0182 220.132 74.6441L223.455 73.069C223.469 73.0624 223.48 73.0509 223.486 73.0364L224.909 69.7447C224.933 69.6898 224.879 69.6335 224.826 69.6583L207.707 77.7487Z" fill="#FAFAFA"/>
<path d="M207.531 77.7487C207.584 77.7735 207.638 77.7182 207.613 77.6638C206.228 74.612 202.776 71.0296 199.876 69.6556L182.593 61.4665C182.54 61.4417 182.487 61.4975 182.511 61.5519C182.665 61.8939 182.844 62.2414 183.044 62.5918C183.052 62.6048 183.054 62.62 183.053 62.6351C183.042 62.7423 183.056 62.8588 183.107 62.9767L186.299 70.345C186.323 70.3999 186.269 70.4563 186.217 70.4314L177.823 66.4546C177.771 66.4298 177.717 66.4847 177.741 66.5391C179.111 69.6042 182.527 73.1493 185.465 74.5629L188.79 76.134C188.803 76.1405 188.815 76.1521 188.821 76.1665L190.327 79.6434C190.327 79.6432 190.327 79.6436 190.327 79.6434C190.328 79.6458 190.326 79.6485 190.324 79.6475L173.04 71.4575C172.988 71.4327 172.934 71.4876 172.958 71.542C174.328 74.6073 177.744 78.1527 180.682 79.5663L197.978 87.7401C198.031 87.7649 198.084 87.7087 198.06 87.6543C197.903 87.3098 197.72 86.9586 197.515 86.6045C197.507 86.5917 197.504 86.5767 197.506 86.5618C197.515 86.457 197.5 86.3437 197.45 86.2289L194.261 78.8449C194.237 78.7901 194.291 78.7337 194.344 78.7585L202.761 82.7367C202.814 82.7615 202.868 82.7063 202.843 82.6519C201.458 79.6002 198.006 76.0182 195.107 74.6441L191.783 73.069C191.769 73.0624 191.758 73.0509 191.752 73.0364L190.329 69.7447C190.306 69.6898 190.359 69.6335 190.412 69.6583L207.531 77.7487Z" fill="#FAFAFA"/>
<path d="M138.373 77.7487C138.321 77.7735 138.267 77.7182 138.291 77.6638C139.677 74.612 143.128 71.0296 146.028 69.6556L163.311 61.4665C163.364 61.4417 163.417 61.4975 163.393 61.5519C163.24 61.8939 163.06 62.2414 162.86 62.5918C162.853 62.6048 162.85 62.62 162.851 62.6351C162.863 62.7423 162.848 62.8588 162.797 62.9767L159.605 70.345C159.581 70.3999 159.635 70.4563 159.688 70.4314L168.081 66.4546C168.134 66.4298 168.188 66.4847 168.163 66.5391C166.793 69.6042 163.377 73.1493 160.439 74.5629L157.115 76.134C157.101 76.1405 157.09 76.1521 157.084 76.1665L155.578 79.6434C155.578 79.6432 155.577 79.6436 155.578 79.6434C155.577 79.6458 155.578 79.6485 155.581 79.6475L172.864 71.4575C172.916 71.4327 172.97 71.4876 172.946 71.542C171.576 74.6073 168.16 78.1527 165.222 79.5663L147.926 87.7401C147.873 87.7649 147.82 87.7087 147.845 87.6543C148.001 87.3098 148.184 86.9586 148.39 86.6045C148.397 86.5917 148.4 86.5767 148.399 86.5618C148.389 86.457 148.404 86.3437 148.454 86.2289L151.643 78.8449C151.667 78.7901 151.613 78.7337 151.561 78.7585L143.143 82.7367C143.09 82.7615 143.037 82.7063 143.061 82.6519C144.447 79.6002 147.898 76.0182 150.798 74.6441L154.121 73.069C154.135 73.0624 154.146 73.0509 154.152 73.0364L155.575 69.7447C155.599 69.6898 155.545 69.6335 155.492 69.6583L138.373 77.7487Z" fill="#FAFAFA"/>
<path d="M138.197 77.7487C138.25 77.7735 138.304 77.7182 138.279 77.6638C136.894 74.612 133.442 71.0296 130.542 69.6556L113.259 61.4665C113.206 61.4417 113.153 61.4975 113.177 61.5519C113.331 61.8939 113.51 62.2414 113.71 62.5918C113.718 62.6048 113.721 62.62 113.719 62.6351C113.708 62.7423 113.722 62.8588 113.773 62.9767L116.965 70.345C116.989 70.3999 116.935 70.4563 116.883 70.4314L108.489 66.4546C108.437 66.4298 108.383 66.4847 108.407 66.5391C109.777 69.6042 113.193 73.1493 116.131 74.5629L119.456 76.134C119.469 76.1405 119.481 76.1521 119.487 76.1665L120.993 79.6434C120.993 79.6432 120.993 79.6436 120.993 79.6434C120.994 79.6458 120.992 79.6485 120.99 79.6475L103.706 71.4575C103.654 71.4327 103.6 71.4876 103.625 71.542C104.994 74.6073 108.41 78.1527 111.348 79.5663L128.644 87.7401C128.697 87.7649 128.75 87.7087 128.726 87.6543C128.569 87.3098 128.386 86.9586 128.181 86.6045C128.173 86.5917 128.17 86.5767 128.172 86.5618C128.181 86.457 128.166 86.3437 128.116 86.2289L124.927 78.8449C124.903 78.7901 124.957 78.7337 125.01 78.7585L133.427 82.7367C133.48 82.7615 133.534 82.7063 133.509 82.6519C132.124 79.6002 128.672 76.0182 125.773 74.6441L122.449 73.069C122.435 73.0624 122.424 73.0509 122.418 73.0364L120.995 69.7447C120.972 69.6898 121.026 69.6335 121.078 69.6583L138.197 77.7487Z" fill="#FAFAFA"/>
<path d="M69.04 77.7487C68.9875 77.7735 68.9336 77.7182 68.9583 77.6638C70.3435 74.612 73.7953 71.0296 76.6951 69.6556L93.9785 61.4665C94.0308 61.4417 94.0842 61.4975 94.0599 61.5519C93.9067 61.8939 93.7274 62.2414 93.527 62.5918C93.5196 62.6048 93.5168 62.62 93.5184 62.6351C93.5297 62.7423 93.5153 62.8588 93.4642 62.9767L90.2719 70.345C90.2481 70.3999 90.3021 70.4563 90.3546 70.4314L98.7485 66.4546C98.8008 66.4298 98.8546 66.4847 98.8303 66.5391C97.4604 69.6042 94.0442 73.1493 91.1064 74.5629L87.7817 76.134C87.7679 76.1405 87.7568 76.1521 87.7505 76.1665L86.2446 79.6434C86.2446 79.6432 86.2445 79.6436 86.2446 79.6434C86.2435 79.6458 86.2453 79.6485 86.2476 79.6475L103.531 71.4575C103.583 71.4327 103.637 71.4876 103.613 71.542C102.243 74.6073 98.8271 78.1527 95.8893 79.5663L78.5929 87.7401C78.5404 87.7649 78.4869 87.7087 78.5117 87.6543C78.6682 87.3098 78.8512 86.9586 79.0566 86.6045C79.064 86.5917 79.0669 86.5767 79.0655 86.5618C79.056 86.457 79.0715 86.3437 79.1211 86.2289L82.3103 78.8449C82.334 78.7901 82.2801 78.7337 82.2277 78.7585L73.81 82.7367C73.7575 82.7615 73.7036 82.7063 73.7283 82.6519C75.1136 79.6002 78.5651 76.0182 81.4647 74.6441L84.7881 73.069C84.8019 73.0624 84.813 73.0509 84.8192 73.0364L86.242 69.7447C86.2657 69.6898 86.2118 69.6335 86.1593 69.6583L69.04 77.7487Z" fill="#FAFAFA"/>
<path d="M276.864 101.743C276.917 101.719 276.971 101.774 276.946 101.828C275.561 104.88 272.109 108.463 269.209 109.837L251.926 118.026C251.873 118.05 251.82 117.995 251.844 117.94C251.998 117.598 252.177 117.251 252.377 116.9C252.385 116.887 252.388 116.872 252.386 116.857C252.375 116.75 252.389 116.633 252.44 116.515L255.632 109.147C255.656 109.092 255.602 109.036 255.55 109.061L247.156 113.038C247.104 113.062 247.05 113.008 247.074 112.953C248.444 109.888 251.86 106.343 254.798 104.929L258.123 103.358C258.136 103.352 258.148 103.34 258.154 103.326L259.66 99.8488C259.66 99.849 259.66 99.8486 259.66 99.8488C259.661 99.8464 259.659 99.8436 259.657 99.8447L242.373 108.035C242.321 108.059 242.267 108.005 242.291 107.95C243.661 104.885 247.077 101.339 250.015 99.9259L267.311 91.7521C267.364 91.7273 267.417 91.7834 267.393 91.8379C267.236 92.1824 267.053 92.5336 266.848 92.8877C266.84 92.9005 266.837 92.9155 266.839 92.9304C266.848 93.0351 266.833 93.1485 266.783 93.2633L263.594 100.647C263.57 100.702 263.624 100.758 263.677 100.734L272.094 96.7555C272.147 96.7306 272.201 96.7859 272.176 96.8403C270.791 99.892 267.339 103.474 264.44 104.848L261.116 106.423C261.102 106.43 261.091 106.441 261.085 106.456L259.662 109.747C259.639 109.802 259.692 109.859 259.745 109.834L276.864 101.743Z" fill="#FAFAFA"/>
<path d="M207.707 101.743C207.654 101.719 207.601 101.774 207.625 101.828C209.011 104.88 212.462 108.463 215.362 109.837L232.645 118.026C232.698 118.05 232.751 117.995 232.727 117.94C232.574 117.598 232.394 117.251 232.194 116.9C232.187 116.887 232.184 116.872 232.185 116.857C232.197 116.75 232.182 116.633 232.131 116.515L228.939 109.147C228.915 109.092 228.969 109.036 229.022 109.061L237.415 113.038C237.468 113.062 237.522 113.008 237.497 112.953C236.127 109.888 232.711 106.343 229.773 104.929L226.449 103.358C226.435 103.352 226.424 103.34 226.418 103.326L224.912 99.8488C224.912 99.849 224.911 99.8486 224.912 99.8488C224.91 99.8464 224.912 99.8436 224.915 99.8447L242.198 108.035C242.25 108.059 242.304 108.005 242.28 107.95C240.91 104.885 237.494 101.339 234.556 99.9259L217.26 91.7521C217.207 91.7273 217.154 91.7834 217.179 91.8379C217.335 92.1824 217.518 92.5336 217.724 92.8877C217.731 92.9005 217.734 92.9155 217.733 92.9304C217.723 93.0351 217.738 93.1485 217.788 93.2633L220.977 100.647C221.001 100.702 220.947 100.758 220.895 100.734L212.477 96.7555C212.424 96.7306 212.371 96.7859 212.395 96.8403C213.781 99.892 217.232 103.474 220.132 104.848L223.455 106.423C223.469 106.43 223.48 106.441 223.486 106.456L224.909 109.747C224.933 109.802 224.879 109.859 224.826 109.834L207.707 101.743Z" fill="#FAFAFA"/>
<path d="M207.531 101.743C207.584 101.719 207.638 101.774 207.613 101.828C206.228 104.88 202.776 108.463 199.876 109.837L182.593 118.026C182.54 118.05 182.487 117.995 182.511 117.94C182.665 117.598 182.844 117.251 183.044 116.9C183.052 116.887 183.054 116.872 183.053 116.857C183.042 116.75 183.056 116.633 183.107 116.515L186.299 109.147C186.323 109.092 186.269 109.036 186.217 109.061L177.823 113.038C177.771 113.062 177.717 113.008 177.741 112.953C179.111 109.888 182.527 106.343 185.465 104.929L188.79 103.358C188.803 103.352 188.815 103.34 188.821 103.326L190.327 99.8488C190.327 99.849 190.327 99.8486 190.327 99.8488C190.328 99.8464 190.326 99.8436 190.324 99.8447L173.04 108.035C172.988 108.059 172.934 108.005 172.958 107.95C174.328 104.885 177.744 101.339 180.682 99.9259L197.978 91.7521C198.031 91.7273 198.084 91.7834 198.06 91.8379C197.903 92.1824 197.72 92.5336 197.515 92.8877C197.507 92.9005 197.504 92.9155 197.506 92.9304C197.515 93.0351 197.5 93.1485 197.45 93.2633L194.261 100.647C194.237 100.702 194.291 100.758 194.344 100.734L202.761 96.7555C202.814 96.7306 202.868 96.7859 202.843 96.8403C201.458 99.892 198.006 103.474 195.107 104.848L191.783 106.423C191.769 106.43 191.758 106.441 191.752 106.456L190.329 109.747C190.306 109.802 190.359 109.859 190.412 109.834L207.531 101.743Z" fill="#FAFAFA"/>
<path d="M138.373 101.743C138.321 101.719 138.267 101.774 138.291 101.828C139.677 104.88 143.128 108.463 146.028 109.837L163.311 118.026C163.364 118.05 163.417 117.995 163.393 117.94C163.24 117.598 163.06 117.251 162.86 116.9C162.853 116.887 162.85 116.872 162.851 116.857C162.863 116.75 162.848 116.633 162.797 116.515L159.605 109.147C159.581 109.092 159.635 109.036 159.688 109.061L168.081 113.038C168.134 113.062 168.188 113.008 168.163 112.953C166.793 109.888 163.377 106.343 160.439 104.929L157.115 103.358C157.101 103.352 157.09 103.34 157.084 103.326L155.578 99.8488C155.578 99.849 155.577 99.8486 155.578 99.8488C155.577 99.8464 155.578 99.8436 155.581 99.8447L172.864 108.035C172.916 108.059 172.97 108.005 172.946 107.95C171.576 104.885 168.16 101.339 165.222 99.9259L147.926 91.7521C147.873 91.7273 147.82 91.7834 147.845 91.8379C148.001 92.1824 148.184 92.5336 148.39 92.8877C148.397 92.9005 148.4 92.9155 148.399 92.9304C148.389 93.0351 148.404 93.1485 148.454 93.2633L151.643 100.647C151.667 100.702 151.613 100.758 151.561 100.734L143.143 96.7555C143.09 96.7306 143.037 96.7859 143.061 96.8403C144.447 99.892 147.898 103.474 150.798 104.848L154.121 106.423C154.135 106.43 154.146 106.441 154.152 106.456L155.575 109.747C155.599 109.802 155.545 109.859 155.492 109.834L138.373 101.743Z" fill="#FAFAFA"/>
<path d="M138.197 101.743C138.25 101.719 138.304 101.774 138.279 101.828C136.894 104.88 133.442 108.463 130.542 109.837L113.259 118.026C113.206 118.05 113.153 117.995 113.177 117.94C113.331 117.598 113.51 117.251 113.71 116.9C113.718 116.887 113.721 116.872 113.719 116.857C113.708 116.75 113.722 116.633 113.773 116.515L116.965 109.147C116.989 109.092 116.935 109.036 116.883 109.061L108.489 113.038C108.437 113.062 108.383 113.008 108.407 112.953C109.777 109.888 113.193 106.343 116.131 104.929L119.456 103.358C119.469 103.352 119.481 103.34 119.487 103.326L120.993 99.8488C120.993 99.849 120.993 99.8486 120.993 99.8488C120.994 99.8464 120.992 99.8436 120.99 99.8447L103.706 108.035C103.654 108.059 103.6 108.005 103.625 107.95C104.994 104.885 108.41 101.339 111.348 99.9259L128.644 91.7521C128.697 91.7273 128.75 91.7834 128.726 91.8379C128.569 92.1824 128.386 92.5336 128.181 92.8877C128.173 92.9005 128.17 92.9155 128.172 92.9304C128.181 93.0351 128.166 93.1485 128.116 93.2633L124.927 100.647C124.903 100.702 124.957 100.758 125.01 100.734L133.427 96.7555C133.48 96.7306 133.534 96.7859 133.509 96.8403C132.124 99.892 128.672 103.474 125.773 104.848L122.449 106.423C122.435 106.43 122.424 106.441 122.418 106.456L120.995 109.747C120.972 109.802 121.026 109.859 121.078 109.834L138.197 101.743Z" fill="#FAFAFA"/>
<path d="M69.04 101.743C68.9875 101.719 68.9336 101.774 68.9583 101.828C70.3435 104.88 73.7953 108.463 76.6951 109.837L93.9785 118.026C94.0308 118.05 94.0842 117.995 94.0599 117.94C93.9067 117.598 93.7274 117.251 93.527 116.9C93.5196 116.887 93.5168 116.872 93.5184 116.857C93.5297 116.75 93.5153 116.633 93.4642 116.515L90.2719 109.147C90.2481 109.092 90.3021 109.036 90.3546 109.061L98.7485 113.038C98.8008 113.062 98.8546 113.008 98.8303 112.953C97.4604 109.888 94.0442 106.343 91.1064 104.929L87.7817 103.358C87.7679 103.352 87.7568 103.34 87.7505 103.326L86.2446 99.8488C86.2446 99.849 86.2445 99.8486 86.2446 99.8488C86.2435 99.8464 86.2453 99.8436 86.2476 99.8447L103.531 108.035C103.583 108.059 103.637 108.005 103.613 107.95C102.243 104.885 98.8271 101.339 95.8893 99.9259L78.5929 91.7521C78.5404 91.7273 78.4869 91.7834 78.5117 91.8379C78.6682 92.1824 78.8512 92.5336 79.0566 92.8877C79.064 92.9005 79.0669 92.9155 79.0655 92.9304C79.056 93.0351 79.0715 93.1485 79.1211 93.2633L82.3103 100.647C82.334 100.702 82.2801 100.758 82.2277 100.734L73.81 96.7555C73.7575 96.7306 73.7036 96.7859 73.7283 96.8403C75.1136 99.892 78.5651 103.474 81.4647 104.848L84.7881 106.423C84.8019 106.43 84.813 106.441 84.8192 106.456L86.242 109.747C86.2657 109.802 86.2118 109.859 86.1593 109.834L69.04 101.743Z" fill="#FAFAFA"/>
<path d="M276.864 138.32C276.917 138.345 276.971 138.29 276.946 138.235C275.561 135.183 272.109 131.601 269.209 130.227L251.926 122.038C251.873 122.013 251.82 122.069 251.844 122.123C251.998 122.465 252.177 122.813 252.377 123.163C252.385 123.176 252.388 123.191 252.386 123.206C252.375 123.314 252.389 123.43 252.44 123.548L255.632 130.916C255.656 130.971 255.602 131.028 255.55 131.003L247.156 127.026C247.104 127.001 247.05 127.056 247.074 127.11C248.444 130.176 251.86 133.721 254.798 135.134L258.123 136.705C258.136 136.712 258.148 136.723 258.154 136.738L259.66 140.215C259.66 140.215 259.66 140.215 259.66 140.215C259.661 140.217 259.659 140.22 259.657 140.219L242.373 132.029C242.321 132.004 242.267 132.059 242.291 132.113C243.661 135.179 247.077 138.724 250.015 140.138L267.311 148.311C267.364 148.336 267.417 148.28 267.393 148.226C267.236 147.881 267.053 147.53 266.848 147.176C266.84 147.163 266.837 147.148 266.839 147.133C266.848 147.028 266.833 146.915 266.783 146.8L263.594 139.416C263.57 139.361 263.624 139.305 263.677 139.33L272.094 143.308C272.147 143.333 272.201 143.278 272.176 143.223C270.791 140.171 267.339 136.589 264.44 135.215L261.116 133.64C261.102 133.634 261.091 133.622 261.085 133.608L259.662 130.316C259.639 130.261 259.692 130.205 259.745 130.23L276.864 138.32Z" fill="#FAFAFA"/>
<path d="M207.707 138.32C207.654 138.345 207.601 138.29 207.625 138.235C209.011 135.183 212.462 131.601 215.362 130.227L232.645 122.038C232.698 122.013 232.751 122.069 232.727 122.123C232.574 122.465 232.394 122.813 232.194 123.163C232.187 123.176 232.184 123.191 232.185 123.206C232.197 123.314 232.182 123.43 232.131 123.548L228.939 130.916C228.915 130.971 228.969 131.028 229.022 131.003L237.415 127.026C237.468 127.001 237.522 127.056 237.497 127.11C236.127 130.176 232.711 133.721 229.773 135.134L226.449 136.705C226.435 136.712 226.424 136.723 226.418 136.738L224.912 140.215C224.912 140.215 224.911 140.215 224.912 140.215C224.91 140.217 224.912 140.22 224.915 140.219L242.198 132.029C242.25 132.004 242.304 132.059 242.28 132.113C240.91 135.179 237.494 138.724 234.556 140.138L217.26 148.311C217.207 148.336 217.154 148.28 217.179 148.226C217.335 147.881 217.518 147.53 217.724 147.176C217.731 147.163 217.734 147.148 217.733 147.133C217.723 147.028 217.738 146.915 217.788 146.8L220.977 139.416C221.001 139.361 220.947 139.305 220.895 139.33L212.477 143.308C212.424 143.333 212.371 143.278 212.395 143.223C213.781 140.171 217.232 136.589 220.132 135.215L223.455 133.64C223.469 133.634 223.48 133.622 223.486 133.608L224.909 130.316C224.933 130.261 224.879 130.205 224.826 130.23L207.707 138.32Z" fill="#FAFAFA"/>
<path d="M207.531 138.32C207.584 138.345 207.638 138.29 207.613 138.235C206.228 135.183 202.776 131.601 199.876 130.227L182.593 122.038C182.54 122.013 182.487 122.069 182.511 122.123C182.665 122.465 182.844 122.813 183.044 123.163C183.052 123.176 183.054 123.191 183.053 123.206C183.042 123.314 183.056 123.43 183.107 123.548L186.299 130.916C186.323 130.971 186.269 131.028 186.217 131.003L177.823 127.026C177.771 127.001 177.717 127.056 177.741 127.11C179.111 130.176 182.527 133.721 185.465 135.134L188.79 136.705C188.803 136.712 188.815 136.723 188.821 136.738L190.327 140.215C190.327 140.215 190.327 140.215 190.327 140.215C190.328 140.217 190.326 140.22 190.324 140.219L173.04 132.029C172.988 132.004 172.934 132.059 172.958 132.113C174.328 135.179 177.744 138.724 180.682 140.138L197.978 148.311C198.031 148.336 198.084 148.28 198.06 148.226C197.903 147.881 197.72 147.53 197.515 147.176C197.507 147.163 197.504 147.148 197.506 147.133C197.515 147.028 197.5 146.915 197.45 146.8L194.261 139.416C194.237 139.361 194.291 139.305 194.344 139.33L202.761 143.308C202.814 143.333 202.868 143.278 202.843 143.223C201.458 140.171 198.006 136.589 195.107 135.215L191.783 133.64C191.769 133.634 191.758 133.622 191.752 133.608L190.329 130.316C190.306 130.261 190.359 130.205 190.412 130.23L207.531 138.32Z" fill="#FAFAFA"/>
<path d="M138.373 138.32C138.321 138.345 138.267 138.29 138.291 138.235C139.677 135.183 143.128 131.601 146.028 130.227L163.311 122.038C163.364 122.013 163.417 122.069 163.393 122.123C163.24 122.465 163.06 122.813 162.86 123.163C162.853 123.176 162.85 123.191 162.851 123.206C162.863 123.314 162.848 123.43 162.797 123.548L159.605 130.916C159.581 130.971 159.635 131.028 159.688 131.003L168.081 127.026C168.134 127.001 168.188 127.056 168.163 127.11C166.793 130.176 163.377 133.721 160.439 135.134L157.115 136.705C157.101 136.712 157.09 136.723 157.084 136.738L155.578 140.215C155.578 140.215 155.577 140.215 155.578 140.215C155.577 140.217 155.578 140.22 155.581 140.219L172.864 132.029C172.916 132.004 172.97 132.059 172.946 132.113C171.576 135.179 168.16 138.724 165.222 140.138L147.926 148.311C147.873 148.336 147.82 148.28 147.845 148.226C148.001 147.881 148.184 147.53 148.39 147.176C148.397 147.163 148.4 147.148 148.399 147.133C148.389 147.028 148.404 146.915 148.454 146.8L151.643 139.416C151.667 139.361 151.613 139.305 151.561 139.33L143.143 143.308C143.09 143.333 143.037 143.278 143.061 143.223C144.447 140.171 147.898 136.589 150.798 135.215L154.121 133.64C154.135 133.634 154.146 133.622 154.152 133.608L155.575 130.316C155.599 130.261 155.545 130.205 155.492 130.23L138.373 138.32Z" fill="#FAFAFA"/>
<path d="M138.197 138.32C138.25 138.345 138.304 138.29 138.279 138.235C136.894 135.183 133.442 131.601 130.542 130.227L113.259 122.038C113.206 122.013 113.153 122.069 113.177 122.123C113.331 122.465 113.51 122.813 113.71 123.163C113.718 123.176 113.721 123.191 113.719 123.206C113.708 123.314 113.722 123.43 113.773 123.548L116.965 130.916C116.989 130.971 116.935 131.028 116.883 131.003L108.489 127.026C108.437 127.001 108.383 127.056 108.407 127.11C109.777 130.176 113.193 133.721 116.131 135.134L119.456 136.705C119.469 136.712 119.481 136.723 119.487 136.738L120.993 140.215C120.993 140.215 120.993 140.215 120.993 140.215C120.994 140.217 120.992 140.22 120.99 140.219L103.706 132.029C103.654 132.004 103.6 132.059 103.625 132.113C104.994 135.179 108.41 138.724 111.348 140.138L128.644 148.311C128.697 148.336 128.75 148.28 128.726 148.226C128.569 147.881 128.386 147.53 128.181 147.176C128.173 147.163 128.17 147.148 128.172 147.133C128.181 147.028 128.166 146.915 128.116 146.8L124.927 139.416C124.903 139.361 124.957 139.305 125.01 139.33L133.427 143.308C133.48 143.333 133.534 143.278 133.509 143.223C132.124 140.171 128.672 136.589 125.773 135.215L122.449 133.64C122.435 133.634 122.424 133.622 122.418 133.608L120.995 130.316C120.972 130.261 121.026 130.205 121.078 130.23L138.197 138.32Z" fill="#FAFAFA"/>
<path d="M69.04 138.32C68.9875 138.345 68.9336 138.29 68.9583 138.235C70.3435 135.183 73.7953 131.601 76.6951 130.227L93.9785 122.038C94.0308 122.013 94.0842 122.069 94.0599 122.123C93.9067 122.465 93.7274 122.813 93.527 123.163C93.5196 123.176 93.5168 123.191 93.5184 123.206C93.5297 123.314 93.5153 123.43 93.4642 123.548L90.2719 130.916C90.2481 130.971 90.3021 131.028 90.3546 131.003L98.7485 127.026C98.8008 127.001 98.8546 127.056 98.8303 127.11C97.4604 130.176 94.0442 133.721 91.1064 135.134L87.7817 136.705C87.7679 136.712 87.7568 136.723 87.7505 136.738L86.2446 140.215C86.2446 140.215 86.2445 140.215 86.2446 140.215C86.2435 140.217 86.2453 140.22 86.2476 140.219L103.531 132.029C103.583 132.004 103.637 132.059 103.613 132.113C102.243 135.179 98.8271 138.724 95.8893 140.138L78.5929 148.311C78.5404 148.336 78.4869 148.28 78.5117 148.226C78.6682 147.881 78.8512 147.53 79.0566 147.176C79.064 147.163 79.0669 147.148 79.0655 147.133C79.056 147.028 79.0715 146.915 79.1211 146.8L82.3103 139.416C82.334 139.361 82.2801 139.305 82.2277 139.33L73.81 143.308C73.7575 143.333 73.7036 143.278 73.7283 143.223C75.1136 140.171 78.5651 136.589 81.4647 135.215L84.7881 133.64C84.8019 133.634 84.813 133.622 84.8192 133.608L86.242 130.316C86.2657 130.261 86.2118 130.205 86.1593 130.23L69.04 138.32Z" fill="#FAFAFA"/>
<path d="M276.864 162.315C276.917 162.29 276.971 162.346 276.946 162.4C275.561 165.452 272.109 169.034 269.209 170.408L251.926 178.597C251.873 178.622 251.82 178.566 251.844 178.512C251.998 178.17 252.177 177.823 252.377 177.472C252.385 177.459 252.388 177.444 252.386 177.429C252.375 177.322 252.389 177.205 252.44 177.087L255.632 169.719C255.656 169.664 255.602 169.608 255.55 169.633L247.156 173.609C247.104 173.634 247.05 173.579 247.074 173.525C248.444 170.46 251.86 166.915 254.798 165.501L258.123 163.93C258.136 163.923 258.148 163.912 258.154 163.897L259.66 160.421C259.66 160.421 259.66 160.42 259.66 160.421C259.661 160.418 259.659 160.415 259.657 160.416L242.373 168.606C242.321 168.631 242.267 168.576 242.291 168.522C243.661 165.457 247.077 161.911 250.015 160.498L267.311 152.324C267.364 152.299 267.417 152.355 267.393 152.41C267.236 152.754 267.053 153.105 266.848 153.46C266.84 153.472 266.837 153.487 266.839 153.502C266.848 153.607 266.833 153.72 266.783 153.835L263.594 161.219C263.57 161.274 263.624 161.33 263.677 161.305L272.094 157.327C272.147 157.302 272.201 157.358 272.176 157.412C270.791 160.464 267.339 164.046 264.44 165.42L261.116 166.995C261.102 167.002 261.091 167.013 261.085 167.028L259.662 170.319C259.639 170.374 259.692 170.43 259.745 170.406L276.864 162.315Z" fill="#FAFAFA"/>
<path d="M207.707 162.315C207.654 162.29 207.601 162.346 207.625 162.4C209.011 165.452 212.462 169.034 215.362 170.408L232.645 178.597C232.698 178.622 232.751 178.566 232.727 178.512C232.574 178.17 232.394 177.823 232.194 177.472C232.187 177.459 232.184 177.444 232.185 177.429C232.197 177.322 232.182 177.205 232.131 177.087L228.939 169.719C228.915 169.664 228.969 169.608 229.022 169.633L237.415 173.609C237.468 173.634 237.522 173.579 237.497 173.525C236.127 170.46 232.711 166.915 229.773 165.501L226.449 163.93C226.435 163.923 226.424 163.912 226.418 163.897L224.912 160.421C224.912 160.421 224.911 160.42 224.912 160.421C224.91 160.418 224.912 160.415 224.915 160.416L242.198 168.606C242.25 168.631 242.304 168.576 242.28 168.522C240.91 165.457 237.494 161.911 234.556 160.498L217.26 152.324C217.207 152.299 217.154 152.355 217.179 152.41C217.335 152.754 217.518 153.105 217.724 153.46C217.731 153.472 217.734 153.487 217.733 153.502C217.723 153.607 217.738 153.72 217.788 153.835L220.977 161.219C221.001 161.274 220.947 161.33 220.895 161.305L212.477 157.327C212.424 157.302 212.371 157.358 212.395 157.412C213.781 160.464 217.232 164.046 220.132 165.42L223.455 166.995C223.469 167.002 223.48 167.013 223.486 167.028L224.909 170.319C224.933 170.374 224.879 170.43 224.826 170.406L207.707 162.315Z" fill="#FAFAFA"/>
<path d="M207.531 162.315C207.584 162.29 207.638 162.346 207.613 162.4C206.228 165.452 202.776 169.034 199.876 170.408L182.593 178.597C182.54 178.622 182.487 178.566 182.511 178.512C182.665 178.17 182.844 177.823 183.044 177.472C183.052 177.459 183.054 177.444 183.053 177.429C183.042 177.322 183.056 177.205 183.107 177.087L186.299 169.719C186.323 169.664 186.269 169.608 186.217 169.633L177.823 173.609C177.771 173.634 177.717 173.579 177.741 173.525C179.111 170.46 182.527 166.915 185.465 165.501L188.79 163.93C188.803 163.923 188.815 163.912 188.821 163.897L190.327 160.421C190.327 160.421 190.327 160.42 190.327 160.421C190.328 160.418 190.326 160.415 190.324 160.416L173.04 168.606C172.988 168.631 172.934 168.576 172.958 168.522C174.328 165.457 177.744 161.911 180.682 160.498L197.978 152.324C198.031 152.299 198.084 152.355 198.06 152.41C197.903 152.754 197.72 153.105 197.515 153.46C197.507 153.472 197.504 153.487 197.506 153.502C197.515 153.607 197.5 153.72 197.45 153.835L194.261 161.219C194.237 161.274 194.291 161.33 194.344 161.305L202.761 157.327C202.814 157.302 202.868 157.358 202.843 157.412C201.458 160.464 198.006 164.046 195.107 165.42L191.783 166.995C191.769 167.002 191.758 167.013 191.752 167.028L190.329 170.319C190.306 170.374 190.359 170.43 190.412 170.406L207.531 162.315Z" fill="#FAFAFA"/>
<path d="M138.373 162.315C138.321 162.29 138.267 162.346 138.291 162.4C139.677 165.452 143.128 169.034 146.028 170.408L163.311 178.597C163.364 178.622 163.417 178.566 163.393 178.512C163.24 178.17 163.06 177.823 162.86 177.472C162.853 177.459 162.85 177.444 162.851 177.429C162.863 177.322 162.848 177.205 162.797 177.087L159.605 169.719C159.581 169.664 159.635 169.608 159.688 169.633L168.081 173.609C168.134 173.634 168.188 173.579 168.163 173.525C166.793 170.46 163.377 166.915 160.439 165.501L157.115 163.93C157.101 163.923 157.09 163.912 157.084 163.897L155.578 160.421C155.578 160.421 155.577 160.42 155.578 160.421C155.577 160.418 155.578 160.415 155.581 160.416L172.864 168.606C172.916 168.631 172.97 168.576 172.946 168.522C171.576 165.457 168.16 161.911 165.222 160.498L147.926 152.324C147.873 152.299 147.82 152.355 147.845 152.41C148.001 152.754 148.184 153.105 148.39 153.46C148.397 153.472 148.4 153.487 148.399 153.502C148.389 153.607 148.404 153.72 148.454 153.835L151.643 161.219C151.667 161.274 151.613 161.33 151.561 161.305L143.143 157.327C143.09 157.302 143.037 157.358 143.061 157.412C144.447 160.464 147.898 164.046 150.798 165.42L154.121 166.995C154.135 167.002 154.146 167.013 154.152 167.028L155.575 170.319C155.599 170.374 155.545 170.43 155.492 170.406L138.373 162.315Z" fill="#FAFAFA"/>
<path d="M138.197 162.315C138.25 162.29 138.304 162.346 138.279 162.4C136.894 165.452 133.442 169.034 130.542 170.408L113.259 178.597C113.206 178.622 113.153 178.566 113.177 178.512C113.331 178.17 113.51 177.823 113.71 177.472C113.718 177.459 113.721 177.444 113.719 177.429C113.708 177.322 113.722 177.205 113.773 177.087L116.965 169.719C116.989 169.664 116.935 169.608 116.883 169.633L108.489 173.609C108.437 173.634 108.383 173.579 108.407 173.525C109.777 170.46 113.193 166.915 116.131 165.501L119.456 163.93C119.469 163.923 119.481 163.912 119.487 163.897L120.993 160.421C120.993 160.421 120.993 160.42 120.993 160.421C120.994 160.418 120.992 160.415 120.99 160.416L103.706 168.606C103.654 168.631 103.6 168.576 103.625 168.522C104.994 165.457 108.41 161.911 111.348 160.498L128.644 152.324C128.697 152.299 128.75 152.355 128.726 152.41C128.569 152.754 128.386 153.105 128.181 153.46C128.173 153.472 128.17 153.487 128.172 153.502C128.181 153.607 128.166 153.72 128.116 153.835L124.927 161.219C124.903 161.274 124.957 161.33 125.01 161.305L133.427 157.327C133.48 157.302 133.534 157.358 133.509 157.412C132.124 160.464 128.672 164.046 125.773 165.42L122.449 166.995C122.435 167.002 122.424 167.013 122.418 167.028L120.995 170.319C120.972 170.374 121.026 170.43 121.078 170.406L138.197 162.315Z" fill="#FAFAFA"/>
<path d="M69.04 162.315C68.9875 162.29 68.9336 162.346 68.9583 162.4C70.3435 165.452 73.7953 169.034 76.6951 170.408L93.9785 178.597C94.0308 178.622 94.0842 178.566 94.0599 178.512C93.9067 178.17 93.7274 177.823 93.527 177.472C93.5196 177.459 93.5168 177.444 93.5184 177.429C93.5297 177.322 93.5153 177.205 93.4642 177.087L90.2719 169.719C90.2481 169.664 90.3021 169.608 90.3546 169.633L98.7485 173.609C98.8008 173.634 98.8546 173.579 98.8303 173.525C97.4604 170.46 94.0442 166.915 91.1064 165.501L87.7817 163.93C87.7679 163.923 87.7568 163.912 87.7505 163.897L86.2446 160.421C86.2446 160.421 86.2445 160.42 86.2446 160.421C86.2435 160.418 86.2453 160.415 86.2476 160.416L103.531 168.606C103.583 168.631 103.637 168.576 103.613 168.522C102.243 165.457 98.8271 161.911 95.8893 160.498L78.5929 152.324C78.5404 152.299 78.4869 152.355 78.5117 152.41C78.6682 152.754 78.8512 153.105 79.0566 153.46C79.064 153.472 79.0669 153.487 79.0655 153.502C79.056 153.607 79.0715 153.72 79.1211 153.835L82.3103 161.219C82.334 161.274 82.2801 161.33 82.2277 161.305L73.81 157.327C73.7575 157.302 73.7036 157.358 73.7283 157.412C75.1136 160.464 78.5651 164.046 81.4647 165.42L84.7881 166.995C84.8019 167.002 84.813 167.013 84.8192 167.028L86.242 170.319C86.2657 170.374 86.2118 170.43 86.1593 170.406L69.04 162.315Z" fill="#FAFAFA"/>
<path d="M276.864 198.892C276.917 198.917 276.971 198.861 276.946 198.807C275.561 195.755 272.109 192.173 269.209 190.799L251.926 182.61C251.873 182.585 251.82 182.641 251.844 182.695C251.998 183.037 252.177 183.384 252.377 183.735C252.385 183.748 252.388 183.763 252.386 183.778C252.375 183.885 252.389 184.002 252.44 184.12L255.632 191.488C255.656 191.543 255.602 191.599 255.55 191.574L247.156 187.598C247.104 187.573 247.05 187.628 247.074 187.682C248.444 190.747 251.86 194.292 254.798 195.706L258.123 197.277C258.136 197.284 258.148 197.295 258.154 197.31L259.66 200.786C259.66 200.786 259.66 200.787 259.66 200.786C259.661 200.789 259.659 200.792 259.657 200.791L242.373 192.601C242.321 192.576 242.267 192.631 242.291 192.685C243.661 195.75 247.077 199.296 250.015 200.709L267.311 208.883C267.364 208.908 267.417 208.852 267.393 208.797C267.236 208.453 267.053 208.102 266.848 207.748C266.84 207.735 266.837 207.72 266.839 207.705C266.848 207.6 266.833 207.487 266.783 207.372L263.594 199.988C263.57 199.933 263.624 199.877 263.677 199.902L272.094 203.88C272.147 203.905 272.201 203.849 272.176 203.795C270.791 200.743 267.339 197.161 264.44 195.787L261.116 194.212C261.102 194.206 261.091 194.194 261.085 194.179L259.662 190.888C259.639 190.833 259.692 190.777 259.745 190.801L276.864 198.892Z" fill="#FAFAFA"/>
<path d="M207.707 198.892C207.654 198.917 207.601 198.861 207.625 198.807C209.011 195.755 212.462 192.173 215.362 190.799L232.645 182.61C232.698 182.585 232.751 182.641 232.727 182.695C232.574 183.037 232.394 183.384 232.194 183.735C232.187 183.748 232.184 183.763 232.185 183.778C232.197 183.885 232.182 184.002 232.131 184.12L228.939 191.488C228.915 191.543 228.969 191.599 229.022 191.574L237.415 187.598C237.468 187.573 237.522 187.628 237.497 187.682C236.127 190.747 232.711 194.292 229.773 195.706L226.449 197.277C226.435 197.284 226.424 197.295 226.418 197.31L224.912 200.786C224.912 200.786 224.911 200.787 224.912 200.786C224.91 200.789 224.912 200.792 224.915 200.791L242.198 192.601C242.25 192.576 242.304 192.631 242.28 192.685C240.91 195.75 237.494 199.296 234.556 200.709L217.26 208.883C217.207 208.908 217.154 208.852 217.179 208.797C217.335 208.453 217.518 208.102 217.724 207.748C217.731 207.735 217.734 207.72 217.733 207.705C217.723 207.6 217.738 207.487 217.788 207.372L220.977 199.988C221.001 199.933 220.947 199.877 220.895 199.902L212.477 203.88C212.424 203.905 212.371 203.849 212.395 203.795C213.781 200.743 217.232 197.161 220.132 195.787L223.455 194.212C223.469 194.206 223.48 194.194 223.486 194.179L224.909 190.888C224.933 190.833 224.879 190.777 224.826 190.801L207.707 198.892Z" fill="#FAFAFA"/>
<path d="M207.531 198.892C207.584 198.917 207.638 198.861 207.613 198.807C206.228 195.755 202.776 192.173 199.876 190.799L182.593 182.61C182.54 182.585 182.487 182.641 182.511 182.695C182.665 183.037 182.844 183.384 183.044 183.735C183.052 183.748 183.054 183.763 183.053 183.778C183.042 183.885 183.056 184.002 183.107 184.12L186.299 191.488C186.323 191.543 186.269 191.599 186.217 191.574L177.823 187.598C177.771 187.573 177.717 187.628 177.741 187.682C179.111 190.747 182.527 194.292 185.465 195.706L188.79 197.277C188.803 197.284 188.815 197.295 188.821 197.31L190.327 200.786C190.327 200.786 190.327 200.787 190.327 200.786C190.328 200.789 190.326 200.792 190.324 200.791L173.04 192.601C172.988 192.576 172.934 192.631 172.958 192.685C174.328 195.75 177.744 199.296 180.682 200.709L197.978 208.883C198.031 208.908 198.084 208.852 198.06 208.797C197.903 208.453 197.72 208.102 197.515 207.748C197.507 207.735 197.504 207.72 197.506 207.705C197.515 207.6 197.5 207.487 197.45 207.372L194.261 199.988C194.237 199.933 194.291 199.877 194.344 199.902L202.761 203.88C202.814 203.905 202.868 203.849 202.843 203.795C201.458 200.743 198.006 197.161 195.107 195.787L191.783 194.212C191.769 194.206 191.758 194.194 191.752 194.179L190.329 190.888C190.306 190.833 190.359 190.777 190.412 190.801L207.531 198.892Z" fill="#FAFAFA"/>
<path d="M138.373 198.892C138.321 198.917 138.267 198.861 138.291 198.807C139.677 195.755 143.128 192.173 146.028 190.799L163.311 182.61C163.364 182.585 163.417 182.641 163.393 182.695C163.24 183.037 163.06 183.384 162.86 183.735C162.853 183.748 162.85 183.763 162.851 183.778C162.863 183.885 162.848 184.002 162.797 184.12L159.605 191.488C159.581 191.543 159.635 191.599 159.688 191.574L168.081 187.598C168.134 187.573 168.188 187.628 168.163 187.682C166.793 190.747 163.377 194.292 160.439 195.706L157.115 197.277C157.101 197.284 157.09 197.295 157.084 197.31L155.578 200.786C155.578 200.786 155.577 200.787 155.578 200.786C155.577 200.789 155.578 200.792 155.581 200.791L172.864 192.601C172.916 192.576 172.97 192.631 172.946 192.685C171.576 195.75 168.16 199.296 165.222 200.709L147.926 208.883C147.873 208.908 147.82 208.852 147.845 208.797C148.001 208.453 148.184 208.102 148.39 207.748C148.397 207.735 148.4 207.72 148.399 207.705C148.389 207.6 148.404 207.487 148.454 207.372L151.643 199.988C151.667 199.933 151.613 199.877 151.561 199.902L143.143 203.88C143.09 203.905 143.037 203.849 143.061 203.795C144.447 200.743 147.898 197.161 150.798 195.787L154.121 194.212C154.135 194.206 154.146 194.194 154.152 194.179L155.575 190.888C155.599 190.833 155.545 190.777 155.492 190.801L138.373 198.892Z" fill="#FAFAFA"/>
<path d="M138.197 198.892C138.25 198.917 138.304 198.861 138.279 198.807C136.894 195.755 133.442 192.173 130.542 190.799L113.259 182.61C113.206 182.585 113.153 182.641 113.177 182.695C113.331 183.037 113.51 183.384 113.71 183.735C113.718 183.748 113.721 183.763 113.719 183.778C113.708 183.885 113.722 184.002 113.773 184.12L116.965 191.488C116.989 191.543 116.935 191.599 116.883 191.574L108.489 187.598C108.437 187.573 108.383 187.628 108.407 187.682C109.777 190.747 113.193 194.292 116.131 195.706L119.456 197.277C119.469 197.284 119.481 197.295 119.487 197.31L120.993 200.786C120.993 200.786 120.993 200.787 120.993 200.786C120.994 200.789 120.992 200.792 120.99 200.791L103.706 192.601C103.654 192.576 103.6 192.631 103.625 192.685C104.994 195.75 108.41 199.296 111.348 200.709L128.644 208.883C128.697 208.908 128.75 208.852 128.726 208.797C128.569 208.453 128.386 208.102 128.181 207.748C128.173 207.735 128.17 207.72 128.172 207.705C128.181 207.6 128.166 207.487 128.116 207.372L124.927 199.988C124.903 199.933 124.957 199.877 125.01 199.902L133.427 203.88C133.48 203.905 133.534 203.849 133.509 203.795C132.124 200.743 128.672 197.161 125.773 195.787L122.449 194.212C122.435 194.206 122.424 194.194 122.418 194.179L120.995 190.888C120.972 190.833 121.026 190.777 121.078 190.801L138.197 198.892Z" fill="#FAFAFA"/>
<path d="M69.04 198.892C68.9875 198.917 68.9336 198.861 68.9583 198.807C70.3435 195.755 73.7953 192.173 76.6951 190.799L93.9785 182.61C94.0308 182.585 94.0842 182.641 94.0599 182.695C93.9067 183.037 93.7274 183.384 93.527 183.735C93.5196 183.748 93.5168 183.763 93.5184 183.778C93.5297 183.885 93.5153 184.002 93.4642 184.12L90.2719 191.488C90.2481 191.543 90.3021 191.599 90.3546 191.574L98.7485 187.598C98.8008 187.573 98.8546 187.628 98.8303 187.682C97.4604 190.747 94.0442 194.292 91.1064 195.706L87.7817 197.277C87.7679 197.284 87.7568 197.295 87.7505 197.31L86.2446 200.786C86.2446 200.786 86.2445 200.787 86.2446 200.786C86.2435 200.789 86.2453 200.792 86.2476 200.791L103.531 192.601C103.583 192.576 103.637 192.631 103.613 192.685C102.243 195.75 98.8271 199.296 95.8893 200.709L78.5929 208.883C78.5404 208.908 78.4869 208.852 78.5117 208.797C78.6682 208.453 78.8512 208.102 79.0566 207.748C79.064 207.735 79.0669 207.72 79.0655 207.705C79.056 207.6 79.0715 207.487 79.1211 207.372L82.3103 199.988C82.334 199.933 82.2801 199.877 82.2277 199.902L73.81 203.88C73.7575 203.905 73.7036 203.849 73.7283 203.795C75.1136 200.743 78.5651 197.161 81.4647 195.787L84.7881 194.212C84.8019 194.206 84.813 194.194 84.8192 194.179L86.242 190.888C86.2657 190.833 86.2118 190.777 86.1593 190.801L69.04 198.892Z" fill="#FAFAFA"/>
<path d="M276.864 222.887C276.917 222.862 276.971 222.917 276.946 222.971C275.561 226.023 272.109 229.606 269.209 230.98L251.926 239.169C251.873 239.194 251.82 239.138 251.844 239.083C251.998 238.741 252.177 238.394 252.377 238.043C252.385 238.03 252.388 238.015 252.386 238C252.375 237.893 252.389 237.776 252.44 237.659L255.632 230.29C255.656 230.235 255.602 230.179 255.55 230.204L247.156 234.181C247.104 234.205 247.05 234.151 247.074 234.096C248.444 231.031 251.86 227.486 254.798 226.072L258.123 224.501C258.136 224.495 258.148 224.483 258.154 224.469L259.66 220.992C259.66 220.992 259.66 220.992 259.66 220.992C259.661 220.989 259.659 220.987 259.657 220.988L242.373 229.178C242.321 229.203 242.267 229.148 242.291 229.093C243.661 226.028 247.077 222.483 250.015 221.069L267.311 212.895C267.364 212.87 267.417 212.927 267.393 212.981C267.236 213.325 267.053 213.677 266.848 214.031C266.84 214.044 266.837 214.059 266.839 214.073C266.848 214.178 266.833 214.292 266.783 214.406L263.594 221.79C263.57 221.845 263.624 221.902 263.677 221.877L272.094 217.899C272.147 217.874 272.201 217.929 272.176 217.983C270.791 221.035 267.339 224.617 264.44 225.991L261.116 227.566C261.102 227.573 261.091 227.584 261.085 227.599L259.662 230.891C259.639 230.945 259.692 231.002 259.745 230.977L276.864 222.887Z" fill="#FAFAFA"/>
<path d="M207.707 222.887C207.654 222.862 207.601 222.917 207.625 222.971C209.011 226.023 212.462 229.606 215.362 230.98L232.645 239.169C232.698 239.194 232.751 239.138 232.727 239.083C232.574 238.741 232.394 238.394 232.194 238.043C232.187 238.03 232.184 238.015 232.185 238C232.197 237.893 232.182 237.776 232.131 237.659L228.939 230.29C228.915 230.235 228.969 230.179 229.022 230.204L237.415 234.181C237.468 234.205 237.522 234.151 237.497 234.096C236.127 231.031 232.711 227.486 229.773 226.072L226.449 224.501C226.435 224.495 226.424 224.483 226.418 224.469L224.912 220.992C224.912 220.992 224.911 220.992 224.912 220.992C224.91 220.989 224.912 220.987 224.915 220.988L242.198 229.178C242.25 229.203 242.304 229.148 242.28 229.093C240.91 226.028 237.494 222.483 234.556 221.069L217.26 212.895C217.207 212.87 217.154 212.927 217.179 212.981C217.335 213.325 217.518 213.677 217.724 214.031C217.731 214.044 217.734 214.059 217.733 214.073C217.723 214.178 217.738 214.292 217.788 214.406L220.977 221.79C221.001 221.845 220.947 221.902 220.895 221.877L212.477 217.899C212.424 217.874 212.371 217.929 212.395 217.983C213.781 221.035 217.232 224.617 220.132 225.991L223.455 227.566C223.469 227.573 223.48 227.584 223.486 227.599L224.909 230.891C224.933 230.945 224.879 231.002 224.826 230.977L207.707 222.887Z" fill="#FAFAFA"/>
<path d="M207.531 222.887C207.584 222.862 207.638 222.917 207.613 222.971C206.228 226.023 202.776 229.606 199.876 230.98L182.593 239.169C182.54 239.194 182.487 239.138 182.511 239.083C182.665 238.741 182.844 238.394 183.044 238.043C183.052 238.03 183.054 238.015 183.053 238C183.042 237.893 183.056 237.776 183.107 237.659L186.299 230.29C186.323 230.235 186.269 230.179 186.217 230.204L177.823 234.181C177.771 234.205 177.717 234.151 177.741 234.096C179.111 231.031 182.527 227.486 185.465 226.072L188.79 224.501C188.803 224.495 188.815 224.483 188.821 224.469L190.327 220.992C190.327 220.992 190.327 220.992 190.327 220.992C190.328 220.989 190.326 220.987 190.324 220.988L173.04 229.178C172.988 229.203 172.934 229.148 172.958 229.093C174.328 226.028 177.744 222.483 180.682 221.069L197.978 212.895C198.031 212.87 198.084 212.927 198.06 212.981C197.903 213.325 197.72 213.677 197.515 214.031C197.507 214.044 197.504 214.059 197.506 214.073C197.515 214.178 197.5 214.292 197.45 214.406L194.261 221.79C194.237 221.845 194.291 221.902 194.344 221.877L202.761 217.899C202.814 217.874 202.868 217.929 202.843 217.983C201.458 221.035 198.006 224.617 195.107 225.991L191.783 227.566C191.769 227.573 191.758 227.584 191.752 227.599L190.329 230.891C190.306 230.945 190.359 231.002 190.412 230.977L207.531 222.887Z" fill="#FAFAFA"/>
<path d="M138.373 222.887C138.321 222.862 138.267 222.917 138.291 222.971C139.677 226.023 143.128 229.606 146.028 230.98L163.311 239.169C163.364 239.194 163.417 239.138 163.393 239.083C163.24 238.741 163.06 238.394 162.86 238.043C162.853 238.03 162.85 238.015 162.851 238C162.863 237.893 162.848 237.776 162.797 237.659L159.605 230.29C159.581 230.235 159.635 230.179 159.688 230.204L168.081 234.181C168.134 234.205 168.188 234.151 168.163 234.096C166.793 231.031 163.377 227.486 160.439 226.072L157.115 224.501C157.101 224.495 157.09 224.483 157.084 224.469L155.578 220.992C155.578 220.992 155.577 220.992 155.578 220.992C155.577 220.989 155.578 220.987 155.581 220.988L172.864 229.178C172.916 229.203 172.97 229.148 172.946 229.093C171.576 226.028 168.16 222.483 165.222 221.069L147.926 212.895C147.873 212.87 147.82 212.927 147.845 212.981C148.001 213.325 148.184 213.677 148.39 214.031C148.397 214.044 148.4 214.059 148.399 214.073C148.389 214.178 148.404 214.292 148.454 214.406L151.643 221.79C151.667 221.845 151.613 221.902 151.561 221.877L143.143 217.899C143.09 217.874 143.037 217.929 143.061 217.983C144.447 221.035 147.898 224.617 150.798 225.991L154.121 227.566C154.135 227.573 154.146 227.584 154.152 227.599L155.575 230.891C155.599 230.945 155.545 231.002 155.492 230.977L138.373 222.887Z" fill="#FAFAFA"/>
<path d="M138.197 222.887C138.25 222.862 138.304 222.917 138.279 222.971C136.894 226.023 133.442 229.606 130.542 230.98L113.259 239.169C113.206 239.194 113.153 239.138 113.177 239.083C113.331 238.741 113.51 238.394 113.71 238.043C113.718 238.03 113.721 238.015 113.719 238C113.708 237.893 113.722 237.776 113.773 237.659L116.965 230.29C116.989 230.235 116.935 230.179 116.883 230.204L108.489 234.181C108.437 234.205 108.383 234.151 108.407 234.096C109.777 231.031 113.193 227.486 116.131 226.072L119.456 224.501C119.469 224.495 119.481 224.483 119.487 224.469L120.993 220.992C120.993 220.992 120.993 220.992 120.993 220.992C120.994 220.989 120.992 220.987 120.99 220.988L103.706 229.178C103.654 229.203 103.6 229.148 103.625 229.093C104.994 226.028 108.41 222.483 111.348 221.069L128.644 212.895C128.697 212.87 128.75 212.927 128.726 212.981C128.569 213.325 128.386 213.677 128.181 214.031C128.173 214.044 128.17 214.059 128.172 214.073C128.181 214.178 128.166 214.292 128.116 214.406L124.927 221.79C124.903 221.845 124.957 221.902 125.01 221.877L133.427 217.899C133.48 217.874 133.534 217.929 133.509 217.983C132.124 221.035 128.672 224.617 125.773 225.991L122.449 227.566C122.435 227.573 122.424 227.584 122.418 227.599L120.995 230.891C120.972 230.945 121.026 231.002 121.078 230.977L138.197 222.887Z" fill="#FAFAFA"/>
<path d="M69.04 222.887C68.9875 222.862 68.9336 222.917 68.9583 222.971C70.3435 226.023 73.7953 229.606 76.6951 230.98L93.9785 239.169C94.0308 239.194 94.0842 239.138 94.0599 239.083C93.9067 238.741 93.7274 238.394 93.527 238.043C93.5196 238.03 93.5168 238.015 93.5184 238C93.5297 237.893 93.5153 237.776 93.4642 237.659L90.2719 230.29C90.2481 230.235 90.3021 230.179 90.3546 230.204L98.7485 234.181C98.8008 234.205 98.8546 234.151 98.8303 234.096C97.4604 231.031 94.0442 227.486 91.1064 226.072L87.7817 224.501C87.7679 224.495 87.7568 224.483 87.7505 224.469L86.2446 220.992C86.2446 220.992 86.2445 220.992 86.2446 220.992C86.2435 220.989 86.2453 220.987 86.2476 220.988L103.531 229.178C103.583 229.203 103.637 229.148 103.613 229.093C102.243 226.028 98.8271 222.483 95.8893 221.069L78.5929 212.895C78.5404 212.87 78.4869 212.927 78.5117 212.981C78.6682 213.325 78.8512 213.677 79.0566 214.031C79.064 214.044 79.0669 214.059 79.0655 214.073C79.056 214.178 79.0715 214.292 79.1211 214.406L82.3103 221.79C82.334 221.845 82.2801 221.902 82.2277 221.877L73.81 217.899C73.7575 217.874 73.7036 217.929 73.7283 217.983C75.1136 221.035 78.5651 224.617 81.4647 225.991L84.7881 227.566C84.8019 227.573 84.813 227.584 84.8192 227.599L86.242 230.891C86.2657 230.945 86.2118 231.002 86.1593 230.977L69.04 222.887Z" fill="#FAFAFA"/>
<path d="M276.864 259.463C276.917 259.488 276.971 259.433 276.946 259.378C275.561 256.326 272.109 252.744 269.209 251.37L251.926 243.181C251.873 243.156 251.82 243.212 251.844 243.266C251.998 243.608 252.177 243.956 252.377 244.306C252.385 244.319 252.388 244.334 252.386 244.349C252.375 244.457 252.389 244.573 252.44 244.691L255.632 252.059C255.656 252.114 255.602 252.171 255.55 252.146L247.156 248.169C247.104 248.144 247.05 248.199 247.074 248.253C248.444 251.319 251.86 254.864 254.798 256.277L258.123 257.848C258.136 257.855 258.148 257.866 258.154 257.881L259.66 261.358C259.66 261.358 259.66 261.358 259.66 261.358C259.661 261.36 259.659 261.363 259.657 261.362L242.373 253.172C242.321 253.147 242.267 253.202 242.291 253.256C243.661 256.322 247.077 259.867 250.015 261.281L267.311 269.454C267.364 269.479 267.417 269.423 267.393 269.369C267.236 269.024 267.053 268.673 266.848 268.319C266.84 268.306 266.837 268.291 266.839 268.276C266.848 268.171 266.833 268.058 266.783 267.943L263.594 260.559C263.57 260.504 263.624 260.448 263.677 260.473L272.094 264.451C272.147 264.476 272.201 264.421 272.176 264.366C270.791 261.315 267.339 257.733 264.44 256.358L261.116 254.783C261.102 254.777 261.091 254.765 261.085 254.751L259.662 251.459C259.639 251.404 259.692 251.348 259.745 251.373L276.864 259.463Z" fill="#FAFAFA"/>
<path d="M207.707 259.463C207.654 259.488 207.601 259.433 207.625 259.378C209.011 256.326 212.462 252.744 215.362 251.37L232.645 243.181C232.698 243.156 232.751 243.212 232.727 243.266C232.574 243.608 232.394 243.956 232.194 244.306C232.187 244.319 232.184 244.334 232.185 244.349C232.197 244.457 232.182 244.573 232.131 244.691L228.939 252.059C228.915 252.114 228.969 252.171 229.022 252.146L237.415 248.169C237.468 248.144 237.522 248.199 237.497 248.253C236.127 251.319 232.711 254.864 229.773 256.277L226.449 257.848C226.435 257.855 226.424 257.866 226.418 257.881L224.912 261.358C224.912 261.358 224.911 261.358 224.912 261.358C224.91 261.36 224.912 261.363 224.915 261.362L242.198 253.172C242.25 253.147 242.304 253.202 242.28 253.256C240.91 256.322 237.494 259.867 234.556 261.281L217.26 269.454C217.207 269.479 217.154 269.423 217.179 269.369C217.335 269.024 217.518 268.673 217.724 268.319C217.731 268.306 217.734 268.291 217.733 268.276C217.723 268.171 217.738 268.058 217.788 267.943L220.977 260.559C221.001 260.504 220.947 260.448 220.895 260.473L212.477 264.451C212.424 264.476 212.371 264.421 212.395 264.366C213.781 261.315 217.232 257.733 220.132 256.358L223.455 254.783C223.469 254.777 223.48 254.765 223.486 254.751L224.909 251.459C224.933 251.404 224.879 251.348 224.826 251.373L207.707 259.463Z" fill="#FAFAFA"/>
<path d="M207.531 259.463C207.584 259.488 207.638 259.433 207.613 259.378C206.228 256.326 202.776 252.744 199.876 251.37L182.593 243.181C182.54 243.156 182.487 243.212 182.511 243.266C182.665 243.608 182.844 243.956 183.044 244.306C183.052 244.319 183.054 244.334 183.053 244.349C183.042 244.457 183.056 244.573 183.107 244.691L186.299 252.059C186.323 252.114 186.269 252.171 186.217 252.146L177.823 248.169C177.771 248.144 177.717 248.199 177.741 248.253C179.111 251.319 182.527 254.864 185.465 256.277L188.79 257.848C188.803 257.855 188.815 257.866 188.821 257.881L190.327 261.358C190.327 261.358 190.327 261.358 190.327 261.358C190.328 261.36 190.326 261.363 190.324 261.362L173.04 253.172C172.988 253.147 172.934 253.202 172.958 253.256C174.328 256.322 177.744 259.867 180.682 261.281L197.978 269.454C198.031 269.479 198.084 269.423 198.06 269.369C197.903 269.024 197.72 268.673 197.515 268.319C197.507 268.306 197.504 268.291 197.506 268.276C197.515 268.171 197.5 268.058 197.45 267.943L194.261 260.559C194.237 260.504 194.291 260.448 194.344 260.473L202.761 264.451C202.814 264.476 202.868 264.421 202.843 264.366C201.458 261.315 198.006 257.733 195.107 256.358L191.783 254.783C191.769 254.777 191.758 254.765 191.752 254.751L190.329 251.459C190.306 251.404 190.359 251.348 190.412 251.373L207.531 259.463Z" fill="#FAFAFA"/>
<path d="M138.373 259.463C138.321 259.488 138.267 259.433 138.291 259.378C139.677 256.326 143.128 252.744 146.028 251.37L163.311 243.181C163.364 243.156 163.417 243.212 163.393 243.266C163.24 243.608 163.06 243.956 162.86 244.306C162.853 244.319 162.85 244.334 162.851 244.349C162.863 244.457 162.848 244.573 162.797 244.691L159.605 252.059C159.581 252.114 159.635 252.171 159.688 252.146L168.081 248.169C168.134 248.144 168.188 248.199 168.163 248.253C166.793 251.319 163.377 254.864 160.439 256.277L157.115 257.848C157.101 257.855 157.09 257.866 157.084 257.881L155.578 261.358C155.578 261.358 155.577 261.358 155.578 261.358C155.577 261.36 155.578 261.363 155.581 261.362L172.864 253.172C172.916 253.147 172.97 253.202 172.946 253.256C171.576 256.322 168.16 259.867 165.222 261.281L147.926 269.454C147.873 269.479 147.82 269.423 147.845 269.369C148.001 269.024 148.184 268.673 148.39 268.319C148.397 268.306 148.4 268.291 148.399 268.276C148.389 268.171 148.404 268.058 148.454 267.943L151.643 260.559C151.667 260.504 151.613 260.448 151.561 260.473L143.143 264.451C143.09 264.476 143.037 264.421 143.061 264.366C144.447 261.315 147.898 257.733 150.798 256.358L154.121 254.783C154.135 254.777 154.146 254.765 154.152 254.751L155.575 251.459C155.599 251.404 155.545 251.348 155.492 251.373L138.373 259.463Z" fill="#FAFAFA"/>
<path d="M138.197 259.463C138.25 259.488 138.304 259.433 138.279 259.378C136.894 256.326 133.442 252.744 130.542 251.37L113.259 243.181C113.206 243.156 113.153 243.212 113.177 243.266C113.331 243.608 113.51 243.956 113.71 244.306C113.718 244.319 113.721 244.334 113.719 244.349C113.708 244.457 113.722 244.573 113.773 244.691L116.965 252.059C116.989 252.114 116.935 252.171 116.883 252.146L108.489 248.169C108.437 248.144 108.383 248.199 108.407 248.253C109.777 251.319 113.193 254.864 116.131 256.277L119.456 257.848C119.469 257.855 119.481 257.866 119.487 257.881L120.993 261.358C120.993 261.358 120.993 261.358 120.993 261.358C120.994 261.36 120.992 261.363 120.99 261.362L103.706 253.172C103.654 253.147 103.6 253.202 103.625 253.256C104.994 256.322 108.41 259.867 111.348 261.281L128.644 269.454C128.697 269.479 128.75 269.423 128.726 269.369C128.569 269.024 128.386 268.673 128.181 268.319C128.173 268.306 128.17 268.291 128.172 268.276C128.181 268.171 128.166 268.058 128.116 267.943L124.927 260.559C124.903 260.504 124.957 260.448 125.01 260.473L133.427 264.451C133.48 264.476 133.534 264.421 133.509 264.366C132.124 261.315 128.672 257.733 125.773 256.358L122.449 254.783C122.435 254.777 122.424 254.765 122.418 254.751L120.995 251.459C120.972 251.404 121.026 251.348 121.078 251.373L138.197 259.463Z" fill="#FAFAFA"/>
<path d="M69.04 259.463C68.9875 259.488 68.9336 259.433 68.9583 259.378C70.3435 256.326 73.7953 252.744 76.6951 251.37L93.9785 243.181C94.0308 243.156 94.0842 243.212 94.0599 243.266C93.9067 243.608 93.7274 243.956 93.527 244.306C93.5196 244.319 93.5168 244.334 93.5184 244.349C93.5297 244.457 93.5153 244.573 93.4642 244.691L90.2719 252.059C90.2481 252.114 90.3021 252.171 90.3546 252.146L98.7485 248.169C98.8008 248.144 98.8546 248.199 98.8303 248.253C97.4604 251.319 94.0442 254.864 91.1064 256.277L87.7817 257.848C87.7679 257.855 87.7568 257.866 87.7505 257.881L86.2446 261.358C86.2446 261.358 86.2445 261.358 86.2446 261.358C86.2435 261.36 86.2453 261.363 86.2476 261.362L103.531 253.172C103.583 253.147 103.637 253.202 103.613 253.256C102.243 256.322 98.8271 259.867 95.8893 261.281L78.5929 269.454C78.5404 269.479 78.4869 269.423 78.5117 269.369C78.6682 269.024 78.8512 268.673 79.0566 268.319C79.064 268.306 79.0669 268.291 79.0655 268.276C79.056 268.171 79.0715 268.058 79.1211 267.943L82.3103 260.559C82.334 260.504 82.2801 260.448 82.2277 260.473L73.81 264.451C73.7575 264.476 73.7036 264.421 73.7283 264.366C75.1136 261.315 78.5651 257.733 81.4647 256.358L84.7881 254.783C84.8019 254.777 84.813 254.765 84.8192 254.751L86.242 251.459C86.2657 251.404 86.2118 251.348 86.1593 251.373L69.04 259.463Z" fill="#FAFAFA"/>
</g>
<defs>
<filter id="filter0_d_4017_27990" x="-0.000228882" y="0.000134945" width="345.905" height="345.905" filterUnits="userSpaceOnUse" color-interpolation-filters="sRGB">
<feFlood flood-opacity="0" result="BackgroundImageFix"/>
<feColorMatrix in="SourceAlpha" type="matrix" values="0 0 0 0 0 0 0 0 0 0 0 0 0 0 0 0 0 0 127 0" result="hardAlpha"/>
<feOffset dy="7.49206"/>
<feGaussianBlur stdDeviation="22.4762"/>
<feColorMatrix type="matrix" values="0 0 0 0 0.12549 0 0 0 0 0.164706 0 0 0 0 0.258824 0 0 0 0.06 0"/>
<feBlend mode="normal" in2="BackgroundImageFix" result="effect1_dropShadow_4017_27990"/>
<feBlend mode="normal" in="SourceGraphic" in2="effect1_dropShadow_4017_27990" result="shape"/>
</filter>
</defs>
</svg>
