<svg width="346" height="346" viewBox="0 0 346 346" fill="none" xmlns="http://www.w3.org/2000/svg">
<g filter="url(#filter0_d_4017_28477)">
<rect x="44.9521" y="37.4604" width="256" height="256" rx="4" fill="#121215"/>
<path d="M113.983 64.777C114.564 64.3794 114.559 63.5268 113.936 63.2018C109.041 60.6519 101.943 60.9016 97.48 63.9508L69.4982 83.0685C69.1349 83.3167 69.1339 83.8493 69.5133 84.072C69.6053 84.126 69.6807 84.2045 69.75 84.2856C69.8048 84.3498 69.8693 84.4086 69.9439 84.4596L81.868 92.6047C82.4492 93.0017 82.4492 93.859 81.868 94.2561L69.9436 102.403C69.3653 102.798 69.3653 103.647 69.9833 103.976C74.867 106.58 81.9072 106.333 86.4546 103.281L91.4019 99.8913C91.7422 99.6581 92.1907 99.6578 92.5313 99.8906L97.48 103.272C97.4851 103.276 97.4851 103.282 97.48 103.286L69.9435 122.099C69.3653 122.494 69.3652 123.343 69.9832 123.672C74.8669 126.276 81.9071 126.029 86.4546 122.977L114.393 103.831C114.776 103.569 114.776 103.005 114.373 102.774C114.286 102.724 114.212 102.653 114.142 102.581C114.096 102.532 114.043 102.486 113.984 102.446L102.032 94.2553C101.453 93.858 101.453 93.0026 102.032 92.6055L113.983 84.4166C114.563 84.0191 114.559 83.1664 113.935 82.8415C109.041 80.2917 101.943 80.5413 97.48 83.5905L92.5302 86.9713C92.1897 87.2039 91.7413 87.2036 91.4011 86.9705L87.7026 84.4368C87.1229 84.0397 87.1228 83.1842 87.7025 82.7869L113.983 64.777Z" fill="#FAFAFA"/>
<path d="M113.983 194.144C114.564 194.541 114.559 195.394 113.936 195.719C109.041 198.269 101.943 198.019 97.48 194.97L69.4982 175.852C69.1349 175.604 69.1339 175.072 69.5133 174.849C69.6053 174.795 69.6807 174.716 69.75 174.635C69.8048 174.571 69.8693 174.512 69.9439 174.461L81.868 166.316C82.4492 165.919 82.4492 165.062 81.868 164.665L69.9436 156.518C69.3653 156.123 69.3653 155.274 69.9833 154.945C74.867 152.341 81.9072 152.588 86.4546 155.64L91.4019 159.03C91.7422 159.263 92.1907 159.263 92.5313 159.03L97.48 155.649C97.4851 155.645 97.4851 155.639 97.48 155.635L69.9435 136.822C69.3653 136.427 69.3652 135.578 69.9832 135.248C74.8669 132.644 81.9071 132.892 86.4546 135.944L114.393 155.09C114.776 155.352 114.776 155.916 114.373 156.147C114.286 156.196 114.212 156.267 114.142 156.34C114.096 156.389 114.043 156.435 113.984 156.475L102.032 164.666C101.453 165.063 101.453 165.918 102.032 166.315L113.983 174.504C114.563 174.902 114.559 175.755 113.935 176.079C109.041 178.629 101.943 178.38 97.48 175.33L92.5302 171.95C92.1897 171.717 91.7413 171.717 91.4011 171.95L87.7026 174.484C87.1229 174.881 87.1228 175.737 87.7025 176.134L113.983 194.144Z" fill="#FAFAFA"/>
<path d="M113.983 208.777C114.564 208.379 114.559 207.527 113.936 207.202C109.041 204.652 101.943 204.902 97.48 207.951L69.4982 227.068C69.1349 227.317 69.1339 227.849 69.5133 228.072C69.6053 228.126 69.6807 228.205 69.75 228.286C69.8048 228.35 69.8693 228.409 69.9439 228.46L81.868 236.605C82.4492 237.002 82.4492 237.859 81.868 238.256L69.9436 246.403C69.3653 246.798 69.3653 247.647 69.9833 247.976C74.867 250.58 81.9072 250.333 86.4546 247.281L91.4019 243.891C91.7422 243.658 92.1907 243.658 92.5313 243.891L97.48 247.272C97.4851 247.276 97.4851 247.282 97.48 247.286L69.9435 266.099C69.3653 266.494 69.3652 267.343 69.9832 267.672C74.8669 270.276 81.9071 270.029 86.4546 266.977L114.393 247.831C114.776 247.569 114.776 247.005 114.373 246.774C114.286 246.724 114.212 246.653 114.142 246.581C114.096 246.532 114.043 246.486 113.984 246.446L102.032 238.255C101.453 237.858 101.453 237.003 102.032 236.605L113.983 228.417C114.563 228.019 114.559 227.166 113.935 226.841C109.041 224.292 101.943 224.541 97.48 227.59L92.5302 230.971C92.1897 231.204 91.7413 231.204 91.4011 230.97L87.7026 228.437C87.1229 228.04 87.1228 227.184 87.7025 226.787L113.983 208.777Z" fill="#FAFAFA"/>
<path d="M123.921 64.777C123.341 64.3794 123.345 63.5268 123.969 63.2018C128.863 60.6519 135.961 60.9016 140.424 63.9508L168.406 83.0685C168.769 83.3167 168.77 83.8493 168.391 84.072C168.299 84.126 168.224 84.2045 168.154 84.2856C168.099 84.3498 168.035 84.4086 167.96 84.4596L156.036 92.6047C155.455 93.0017 155.455 93.859 156.036 94.2561L167.961 102.403C168.539 102.798 168.539 103.647 167.921 103.976C163.037 106.58 155.997 106.333 151.45 103.281L146.502 99.8913C146.162 99.6581 145.714 99.6578 145.373 99.8906L140.424 103.272C140.419 103.276 140.419 103.282 140.424 103.286L167.961 122.099C168.539 122.494 168.539 123.343 167.921 123.672C163.037 126.276 155.997 126.029 151.45 122.977L123.511 103.831C123.128 103.569 123.129 103.005 123.532 102.774C123.619 102.724 123.693 102.653 123.762 102.581C123.809 102.532 123.861 102.486 123.92 102.446L135.872 94.2553C136.452 93.858 136.451 93.0026 135.872 92.6055L123.921 84.4166C123.341 84.0191 123.345 83.1664 123.969 82.8415C128.864 80.2917 135.961 80.5413 140.424 83.5905L145.374 86.9713C145.715 87.2039 146.163 87.2036 146.503 86.9705L150.202 84.4368C150.781 84.0397 150.781 83.1842 150.202 82.7869L123.921 64.777Z" fill="#FAFAFA"/>
<path d="M123.921 194.144C123.341 194.541 123.345 195.394 123.969 195.719C128.863 198.269 135.961 198.019 140.424 194.97L168.406 175.852C168.769 175.604 168.77 175.072 168.391 174.849C168.299 174.795 168.224 174.716 168.154 174.635C168.099 174.571 168.035 174.512 167.96 174.461L156.036 166.316C155.455 165.919 155.455 165.062 156.036 164.665L167.961 156.518C168.539 156.123 168.539 155.274 167.921 154.945C163.037 152.341 155.997 152.588 151.45 155.64L146.502 159.03C146.162 159.263 145.714 159.263 145.373 159.03L140.424 155.649C140.419 155.645 140.419 155.639 140.424 155.635L167.961 136.822C168.539 136.427 168.539 135.578 167.921 135.248C163.037 132.644 155.997 132.892 151.45 135.944L123.511 155.09C123.128 155.352 123.129 155.916 123.532 156.147C123.619 156.196 123.693 156.267 123.762 156.34C123.809 156.389 123.861 156.435 123.92 156.475L135.872 164.666C136.452 165.063 136.451 165.918 135.872 166.315L123.921 174.504C123.341 174.902 123.345 175.755 123.969 176.079C128.864 178.629 135.961 178.38 140.424 175.33L145.374 171.95C145.715 171.717 146.163 171.717 146.503 171.95L150.202 174.484C150.781 174.881 150.781 175.737 150.202 176.134L123.921 194.144Z" fill="#FAFAFA"/>
<path d="M123.921 208.777C123.341 208.379 123.345 207.527 123.969 207.202C128.863 204.652 135.961 204.902 140.424 207.951L168.406 227.068C168.769 227.317 168.77 227.849 168.391 228.072C168.299 228.126 168.224 228.205 168.154 228.286C168.099 228.35 168.035 228.409 167.96 228.46L156.036 236.605C155.455 237.002 155.455 237.859 156.036 238.256L167.961 246.403C168.539 246.798 168.539 247.647 167.921 247.976C163.037 250.58 155.997 250.333 151.45 247.281L146.502 243.891C146.162 243.658 145.714 243.658 145.373 243.891L140.424 247.272C140.419 247.276 140.419 247.282 140.424 247.286L167.961 266.099C168.539 266.494 168.539 267.343 167.921 267.672C163.037 270.276 155.997 270.029 151.45 266.977L123.511 247.831C123.128 247.569 123.129 247.005 123.532 246.774C123.619 246.724 123.693 246.653 123.762 246.581C123.809 246.532 123.861 246.486 123.92 246.446L135.872 238.255C136.452 237.858 136.451 237.003 135.872 236.605L123.921 228.417C123.341 228.019 123.345 227.166 123.969 226.841C128.864 224.292 135.961 224.541 140.424 227.59L145.374 230.971C145.715 231.204 146.163 231.204 146.503 230.97L150.202 228.437C150.781 228.04 150.781 227.184 150.202 226.787L123.921 208.777Z" fill="#FAFAFA"/>
<path d="M221.983 64.777C222.564 64.3794 222.559 63.5268 221.936 63.2018C217.041 60.6519 209.943 60.9016 205.48 63.9508L177.498 83.0685C177.135 83.3167 177.134 83.8493 177.513 84.072C177.605 84.126 177.681 84.2045 177.75 84.2856C177.805 84.3498 177.869 84.4086 177.944 84.4596L189.868 92.6047C190.449 93.0017 190.449 93.859 189.868 94.2561L177.944 102.403C177.365 102.798 177.365 103.647 177.983 103.976C182.867 106.58 189.907 106.333 194.455 103.281L199.402 99.8913C199.742 99.6581 200.191 99.6578 200.531 99.8906L205.48 103.272C205.485 103.276 205.485 103.282 205.48 103.286L177.944 122.099C177.365 122.494 177.365 123.343 177.983 123.672C182.867 126.276 189.907 126.029 194.455 122.977L222.393 103.831C222.776 103.569 222.776 103.005 222.373 102.774C222.286 102.724 222.212 102.653 222.142 102.581C222.096 102.532 222.043 102.486 221.984 102.446L210.032 94.2553C209.453 93.858 209.453 93.0026 210.032 92.6055L221.983 84.4166C222.563 84.0191 222.559 83.1664 221.935 82.8415C217.041 80.2917 209.943 80.5413 205.48 83.5905L200.53 86.9713C200.19 87.2039 199.741 87.2036 199.401 86.9705L195.703 84.4368C195.123 84.0397 195.123 83.1842 195.702 82.7869L221.983 64.777Z" fill="#FAFAFA"/>
<path d="M221.983 194.144C222.564 194.541 222.559 195.394 221.936 195.719C217.041 198.269 209.943 198.019 205.48 194.97L177.498 175.852C177.135 175.604 177.134 175.072 177.513 174.849C177.605 174.795 177.681 174.716 177.75 174.635C177.805 174.571 177.869 174.512 177.944 174.461L189.868 166.316C190.449 165.919 190.449 165.062 189.868 164.665L177.944 156.518C177.365 156.123 177.365 155.274 177.983 154.945C182.867 152.341 189.907 152.588 194.455 155.64L199.402 159.03C199.742 159.263 200.191 159.263 200.531 159.03L205.48 155.649C205.485 155.645 205.485 155.639 205.48 155.635L177.944 136.822C177.365 136.427 177.365 135.578 177.983 135.248C182.867 132.644 189.907 132.892 194.455 135.944L222.393 155.09C222.776 155.352 222.776 155.916 222.373 156.147C222.286 156.196 222.212 156.267 222.142 156.34C222.096 156.389 222.043 156.435 221.984 156.475L210.032 164.666C209.453 165.063 209.453 165.918 210.032 166.315L221.983 174.504C222.563 174.902 222.559 175.755 221.935 176.079C217.041 178.629 209.943 178.38 205.48 175.33L200.53 171.95C200.19 171.717 199.741 171.717 199.401 171.95L195.703 174.484C195.123 174.881 195.123 175.737 195.702 176.134L221.983 194.144Z" fill="#FAFAFA"/>
<path d="M221.983 208.777C222.564 208.379 222.559 207.527 221.936 207.202C217.041 204.652 209.943 204.902 205.48 207.951L177.498 227.068C177.135 227.317 177.134 227.849 177.513 228.072C177.605 228.126 177.681 228.205 177.75 228.286C177.805 228.35 177.869 228.409 177.944 228.46L189.868 236.605C190.449 237.002 190.449 237.859 189.868 238.256L177.944 246.403C177.365 246.798 177.365 247.647 177.983 247.976C182.867 250.58 189.907 250.333 194.455 247.281L199.402 243.891C199.742 243.658 200.191 243.658 200.531 243.891L205.48 247.272C205.485 247.276 205.485 247.282 205.48 247.286L177.944 266.099C177.365 266.494 177.365 267.343 177.983 267.672C182.867 270.276 189.907 270.029 194.455 266.977L222.393 247.831C222.776 247.569 222.776 247.005 222.373 246.774C222.286 246.724 222.212 246.653 222.142 246.581C222.096 246.532 222.043 246.486 221.984 246.446L210.032 238.255C209.453 237.858 209.453 237.003 210.032 236.605L221.983 228.417C222.563 228.019 222.559 227.166 221.935 226.841C217.041 224.292 209.943 224.541 205.48 227.59L200.53 230.971C200.19 231.204 199.741 231.204 199.401 230.97L195.703 228.437C195.123 228.04 195.123 227.184 195.702 226.787L221.983 208.777Z" fill="#FAFAFA"/>
<path d="M231.921 64.777C231.341 64.3794 231.345 63.5268 231.969 63.2018C236.863 60.6519 243.961 60.9016 248.424 63.9508L276.406 83.0685C276.769 83.3167 276.77 83.8493 276.391 84.072C276.299 84.126 276.224 84.2045 276.154 84.2856C276.099 84.3498 276.035 84.4086 275.96 84.4596L264.036 92.6047C263.455 93.0017 263.455 93.859 264.036 94.2561L275.961 102.403C276.539 102.798 276.539 103.647 275.921 103.976C271.037 106.58 263.997 106.333 259.45 103.281L254.502 99.8913C254.162 99.6581 253.714 99.6578 253.373 99.8906L248.424 103.272C248.419 103.276 248.419 103.282 248.424 103.286L275.961 122.099C276.539 122.494 276.539 123.343 275.921 123.672C271.037 126.276 263.997 126.029 259.45 122.977L231.511 103.831C231.128 103.569 231.129 103.005 231.532 102.774C231.619 102.724 231.693 102.653 231.762 102.581C231.809 102.532 231.861 102.486 231.92 102.446L243.872 94.2553C244.452 93.858 244.451 93.0026 243.872 92.6055L231.921 84.4166C231.341 84.0191 231.345 83.1664 231.969 82.8415C236.864 80.2917 243.961 80.5413 248.424 83.5905L253.374 86.9713C253.715 87.2039 254.163 87.2036 254.503 86.9705L258.202 84.4368C258.781 84.0397 258.781 83.1842 258.202 82.7869L231.921 64.777Z" fill="#FAFAFA"/>
<path d="M231.921 194.144C231.341 194.541 231.345 195.394 231.969 195.719C236.863 198.269 243.961 198.019 248.424 194.97L276.406 175.852C276.769 175.604 276.77 175.072 276.391 174.849C276.299 174.795 276.224 174.716 276.154 174.635C276.099 174.571 276.035 174.512 275.96 174.461L264.036 166.316C263.455 165.919 263.455 165.062 264.036 164.665L275.961 156.518C276.539 156.123 276.539 155.274 275.921 154.945C271.037 152.341 263.997 152.588 259.45 155.64L254.502 159.03C254.162 159.263 253.714 159.263 253.373 159.03L248.424 155.649C248.419 155.645 248.419 155.639 248.424 155.635L275.961 136.822C276.539 136.427 276.539 135.578 275.921 135.248C271.037 132.644 263.997 132.892 259.45 135.944L231.511 155.09C231.128 155.352 231.129 155.916 231.532 156.147C231.619 156.196 231.693 156.267 231.762 156.34C231.809 156.389 231.861 156.435 231.92 156.475L243.872 164.666C244.452 165.063 244.451 165.918 243.872 166.315L231.921 174.504C231.341 174.902 231.345 175.755 231.969 176.079C236.864 178.629 243.961 178.38 248.424 175.33L253.374 171.95C253.715 171.717 254.163 171.717 254.503 171.95L258.202 174.484C258.781 174.881 258.781 175.737 258.202 176.134L231.921 194.144Z" fill="#FAFAFA"/>
<path d="M231.921 208.777C231.341 208.379 231.345 207.527 231.969 207.202C236.863 204.652 243.961 204.902 248.424 207.951L276.406 227.068C276.769 227.317 276.77 227.849 276.391 228.072C276.299 228.126 276.224 228.205 276.154 228.286C276.099 228.35 276.035 228.409 275.96 228.46L264.036 236.605C263.455 237.002 263.455 237.859 264.036 238.256L275.961 246.403C276.539 246.798 276.539 247.647 275.921 247.976C271.037 250.58 263.997 250.333 259.45 247.281L254.502 243.891C254.162 243.658 253.714 243.658 253.373 243.891L248.424 247.272C248.419 247.276 248.419 247.282 248.424 247.286L275.961 266.099C276.539 266.494 276.539 267.343 275.921 267.672C271.037 270.276 263.997 270.029 259.45 266.977L231.511 247.831C231.128 247.569 231.129 247.005 231.532 246.774C231.619 246.724 231.693 246.653 231.762 246.581C231.809 246.532 231.861 246.486 231.92 246.446L243.872 238.255C244.452 237.858 244.451 237.003 243.872 236.605L231.921 228.417C231.341 228.019 231.345 227.166 231.969 226.841C236.864 224.292 243.961 224.541 248.424 227.59L253.374 230.971C253.715 231.204 254.163 231.204 254.503 230.97L258.202 228.437C258.781 228.04 258.781 227.184 258.202 226.787L231.921 208.777Z" fill="#FAFAFA"/>
</g>
<defs>
<filter id="filter0_d_4017_28477" x="-0.000228882" y="0.000134945" width="345.905" height="345.905" filterUnits="userSpaceOnUse" color-interpolation-filters="sRGB">
<feFlood flood-opacity="0" result="BackgroundImageFix"/>
<feColorMatrix in="SourceAlpha" type="matrix" values="0 0 0 0 0 0 0 0 0 0 0 0 0 0 0 0 0 0 127 0" result="hardAlpha"/>
<feOffset dy="7.49206"/>
<feGaussianBlur stdDeviation="22.4762"/>
<feColorMatrix type="matrix" values="0 0 0 0 0.12549 0 0 0 0 0.164706 0 0 0 0 0.258824 0 0 0 0.06 0"/>
<feBlend mode="normal" in2="BackgroundImageFix" result="effect1_dropShadow_4017_28477"/>
<feBlend mode="normal" in="SourceGraphic" in2="effect1_dropShadow_4017_28477" result="shape"/>
</filter>
</defs>
</svg>
