<svg width="346" height="346" viewBox="0 0 346 346" fill="none" xmlns="http://www.w3.org/2000/svg">
<g filter="url(#filter0_d_4017_28494)">
<rect x="44.9521" y="37.4604" width="256" height="256" rx="4" fill="#121215"/>
<path d="M114.979 67.0055C115.666 66.2436 115.675 65.0699 114.891 64.4078C109.786 60.0963 102.377 60.5151 97.7192 65.664L68.0729 98.4377C67.8905 98.6393 67.8891 98.9468 68.0768 99.1435C68.1289 99.1981 68.167 99.2632 68.2005 99.3308C68.2402 99.4111 68.2913 99.4874 68.3539 99.5566L81.4839 114.07C82.173 114.832 82.173 115.992 81.4839 116.754L68.9555 130.603C68.2709 131.359 68.2564 132.526 69.0281 133.193C74.122 137.601 81.4738 137.188 86.2211 132.032L90.4851 127.304C91.2787 126.425 92.6588 126.424 93.4536 127.302L97.7192 132.019C97.7252 132.025 97.7262 132.034 97.7201 132.041C97.7198 132.041 97.7195 132.042 97.7192 132.042L68.9554 163.84C68.2708 164.597 68.2563 165.763 69.0279 166.431C74.1219 170.839 81.4738 170.425 86.2211 165.27L115.805 132.467C116.023 132.226 116.024 131.856 115.796 131.624C115.751 131.578 115.714 131.526 115.679 131.472C115.651 131.428 115.62 131.387 115.584 131.348L102.42 116.751C101.734 115.99 101.734 114.833 102.42 114.072L114.979 100.147C115.666 99.3852 115.675 98.2114 114.891 97.5494C109.786 93.2381 102.377 93.6569 97.7192 98.8056L93.4544 103.52C92.6597 104.399 91.2797 104.398 90.4862 103.518L87.4753 100.18C86.7888 99.4192 86.7887 98.2623 87.4752 97.5012L114.979 67.0055Z" fill="#FAFAFA"/>
<path d="M114.979 263.915C115.666 264.677 115.675 265.851 114.891 266.513C109.786 270.825 102.377 270.406 97.7192 265.257L68.0729 232.483C67.8905 232.282 67.8891 231.974 68.0768 231.777C68.1289 231.723 68.167 231.658 68.2005 231.59C68.2402 231.51 68.2913 231.434 68.3539 231.364L81.4839 216.851C82.173 216.089 82.173 214.929 81.4839 214.167L68.9555 200.318C68.2709 199.561 68.2564 198.395 69.0281 197.728C74.122 193.32 81.4738 193.733 86.2211 198.889L90.4851 203.616C91.2787 204.496 92.6588 204.497 93.4536 203.618L97.7192 198.902C97.7252 198.896 97.7262 198.887 97.7201 198.88C97.7198 198.88 97.7195 198.879 97.7192 198.879L68.9554 167.081C68.2708 166.324 68.2563 165.158 69.0279 164.49C74.1219 160.082 81.4738 160.495 86.2211 165.651L115.805 198.453C116.023 198.695 116.024 199.064 115.796 199.297C115.751 199.343 115.714 199.395 115.679 199.449C115.651 199.492 115.62 199.534 115.584 199.573L102.42 214.17C101.734 214.931 101.734 216.088 102.42 216.849L114.979 230.774C115.666 231.536 115.675 232.709 114.891 233.371C109.786 237.683 102.377 237.264 97.7192 232.115L93.4544 227.401C92.6597 226.522 91.2797 226.523 90.4862 227.403L87.4753 230.741C86.7888 231.502 86.7887 232.659 87.4752 233.42L114.979 263.915Z" fill="#FAFAFA"/>
<path d="M122.925 67.0055C122.238 66.2436 122.23 65.0699 123.014 64.4078C128.119 60.0963 135.527 60.5151 140.185 65.664L169.831 98.4377C170.014 98.6393 170.015 98.9468 169.827 99.1435C169.775 99.1981 169.737 99.2632 169.704 99.3308C169.664 99.4111 169.613 99.4874 169.55 99.5566L156.42 114.07C155.731 114.832 155.731 115.992 156.42 116.754L168.949 130.603C169.633 131.359 169.648 132.526 168.876 133.193C163.782 137.601 156.43 137.188 151.683 132.032L147.419 127.304C146.626 126.425 145.245 126.424 144.451 127.302L140.185 132.019C140.179 132.025 140.178 132.034 140.184 132.041C140.185 132.041 140.185 132.042 140.185 132.042L168.949 163.84C169.633 164.597 169.648 165.763 168.876 166.431C163.782 170.839 156.43 170.425 151.683 165.27L122.099 132.467C121.881 132.226 121.88 131.856 122.108 131.624C122.154 131.578 122.19 131.526 122.225 131.472C122.253 131.428 122.285 131.387 122.32 131.348L135.484 116.751C136.17 115.99 136.17 114.833 135.484 114.072L122.925 100.147C122.238 99.3852 122.23 98.2114 123.014 97.5494C128.119 93.2381 135.527 93.6569 140.185 98.8056L144.45 103.52C145.245 104.399 146.625 104.398 147.418 103.518L150.429 100.18C151.116 99.4192 151.116 98.2623 150.429 97.5012L122.925 67.0055Z" fill="#FAFAFA"/>
<path d="M122.925 263.915C122.238 264.677 122.23 265.851 123.014 266.513C128.119 270.825 135.527 270.406 140.185 265.257L169.831 232.483C170.014 232.282 170.015 231.974 169.827 231.777C169.775 231.723 169.737 231.658 169.704 231.59C169.664 231.51 169.613 231.434 169.55 231.364L156.42 216.851C155.731 216.089 155.731 214.929 156.42 214.167L168.949 200.318C169.633 199.561 169.648 198.395 168.876 197.728C163.782 193.32 156.43 193.733 151.683 198.889L147.419 203.616C146.626 204.496 145.245 204.497 144.451 203.618L140.185 198.902C140.179 198.896 140.178 198.887 140.184 198.88C140.185 198.88 140.185 198.879 140.185 198.879L168.949 167.081C169.633 166.324 169.648 165.158 168.876 164.49C163.782 160.082 156.43 160.495 151.683 165.651L122.099 198.453C121.881 198.695 121.88 199.064 122.108 199.297C122.154 199.343 122.19 199.395 122.225 199.449C122.253 199.492 122.285 199.534 122.32 199.573L135.484 214.17C136.17 214.931 136.17 216.088 135.484 216.849L122.925 230.774C122.238 231.536 122.23 232.709 123.014 233.371C128.119 237.683 135.527 237.264 140.185 232.115L144.45 227.401C145.245 226.522 146.625 226.523 147.418 227.403L150.429 230.741C151.116 231.502 151.116 232.659 150.429 233.42L122.925 263.915Z" fill="#FAFAFA"/>
<path d="M222.979 67.0055C223.666 66.2436 223.675 65.0699 222.891 64.4078C217.786 60.0963 210.377 60.5151 205.719 65.664L176.073 98.4377C175.89 98.6393 175.889 98.9468 176.077 99.1435C176.129 99.1981 176.167 99.2632 176.2 99.3308C176.24 99.4111 176.291 99.4874 176.354 99.5566L189.484 114.07C190.173 114.832 190.173 115.992 189.484 116.754L176.955 130.603C176.271 131.359 176.256 132.526 177.028 133.193C182.122 137.601 189.474 137.188 194.221 132.032L198.485 127.304C199.279 126.425 200.659 126.424 201.454 127.302L205.719 132.019C205.725 132.025 205.726 132.034 205.72 132.041C205.72 132.041 205.719 132.042 205.719 132.042L176.955 163.84C176.271 164.597 176.256 165.763 177.028 166.431C182.122 170.839 189.474 170.425 194.221 165.27L223.805 132.467C224.023 132.226 224.024 131.856 223.796 131.624C223.751 131.578 223.714 131.526 223.679 131.472C223.651 131.428 223.62 131.387 223.584 131.348L210.42 116.751C209.734 115.99 209.734 114.833 210.42 114.072L222.979 100.147C223.666 99.3852 223.675 98.2114 222.891 97.5494C217.786 93.2381 210.377 93.6569 205.719 98.8056L201.454 103.52C200.66 104.399 199.28 104.398 198.486 103.518L195.475 100.18C194.789 99.4192 194.789 98.2623 195.475 97.5012L222.979 67.0055Z" fill="#FAFAFA"/>
<path d="M222.979 263.915C223.666 264.677 223.675 265.851 222.891 266.513C217.786 270.825 210.377 270.406 205.719 265.257L176.073 232.483C175.89 232.282 175.889 231.974 176.077 231.777C176.129 231.723 176.167 231.658 176.2 231.59C176.24 231.51 176.291 231.434 176.354 231.364L189.484 216.851C190.173 216.089 190.173 214.929 189.484 214.167L176.955 200.318C176.271 199.561 176.256 198.395 177.028 197.728C182.122 193.32 189.474 193.733 194.221 198.889L198.485 203.616C199.279 204.496 200.659 204.497 201.454 203.618L205.719 198.902C205.725 198.896 205.726 198.887 205.72 198.88C205.72 198.88 205.719 198.879 205.719 198.879L176.955 167.081C176.271 166.324 176.256 165.158 177.028 164.49C182.122 160.082 189.474 160.495 194.221 165.651L223.805 198.453C224.023 198.695 224.024 199.064 223.796 199.297C223.751 199.343 223.714 199.395 223.679 199.449C223.651 199.492 223.62 199.534 223.584 199.573L210.42 214.17C209.734 214.931 209.734 216.088 210.42 216.849L222.979 230.774C223.666 231.536 223.675 232.709 222.891 233.371C217.786 237.683 210.377 237.264 205.719 232.115L201.454 227.401C200.66 226.522 199.28 226.523 198.486 227.403L195.475 230.741C194.789 231.502 194.789 232.659 195.475 233.42L222.979 263.915Z" fill="#FAFAFA"/>
<path d="M230.925 67.0055C230.238 66.2436 230.23 65.0699 231.014 64.4078C236.119 60.0963 243.527 60.5151 248.185 65.664L277.831 98.4377C278.014 98.6393 278.015 98.9468 277.827 99.1435C277.775 99.1981 277.737 99.2632 277.704 99.3308C277.664 99.4111 277.613 99.4874 277.55 99.5566L264.42 114.07C263.731 114.832 263.731 115.992 264.42 116.754L276.949 130.603C277.633 131.359 277.648 132.526 276.876 133.193C271.782 137.601 264.43 137.188 259.683 132.032L255.419 127.304C254.626 126.425 253.245 126.424 252.451 127.302L248.185 132.019C248.179 132.025 248.178 132.034 248.184 132.041C248.185 132.041 248.185 132.042 248.185 132.042L276.949 163.84C277.633 164.597 277.648 165.763 276.876 166.431C271.782 170.839 264.43 170.425 259.683 165.27L230.099 132.467C229.881 132.226 229.88 131.856 230.108 131.624C230.154 131.578 230.19 131.526 230.225 131.472C230.253 131.428 230.285 131.387 230.32 131.348L243.484 116.751C244.17 115.99 244.17 114.833 243.484 114.072L230.925 100.147C230.238 99.3852 230.23 98.2114 231.014 97.5494C236.119 93.2381 243.527 93.6569 248.185 98.8056L252.45 103.52C253.245 104.399 254.625 104.398 255.418 103.518L258.429 100.18C259.116 99.4192 259.116 98.2623 258.429 97.5012L230.925 67.0055Z" fill="#FAFAFA"/>
<path d="M230.925 263.915C230.238 264.677 230.23 265.851 231.014 266.513C236.119 270.825 243.527 270.406 248.185 265.257L277.831 232.483C278.014 232.282 278.015 231.974 277.827 231.777C277.775 231.723 277.737 231.658 277.704 231.59C277.664 231.51 277.613 231.434 277.55 231.364L264.42 216.851C263.731 216.089 263.731 214.929 264.42 214.167L276.949 200.318C277.633 199.561 277.648 198.395 276.876 197.728C271.782 193.32 264.43 193.733 259.683 198.889L255.419 203.616C254.626 204.496 253.245 204.497 252.451 203.618L248.185 198.902C248.179 198.896 248.178 198.887 248.184 198.88C248.185 198.88 248.185 198.879 248.185 198.879L276.949 167.081C277.633 166.324 277.648 165.158 276.876 164.49C271.782 160.082 264.43 160.495 259.683 165.651L230.099 198.453C229.881 198.695 229.88 199.064 230.108 199.297C230.154 199.343 230.19 199.395 230.225 199.449C230.253 199.492 230.285 199.534 230.32 199.573L243.484 214.17C244.17 214.931 244.17 216.088 243.484 216.849L230.925 230.774C230.238 231.536 230.23 232.709 231.014 233.371C236.119 237.683 243.527 237.264 248.185 232.115L252.45 227.401C253.245 226.522 254.625 226.523 255.418 227.403L258.429 230.741C259.116 231.502 259.116 232.659 258.429 233.42L230.925 263.915Z" fill="#FAFAFA"/>
</g>
<defs>
<filter id="filter0_d_4017_28494" x="-0.000228882" y="0.000134945" width="345.905" height="345.905" filterUnits="userSpaceOnUse" color-interpolation-filters="sRGB">
<feFlood flood-opacity="0" result="BackgroundImageFix"/>
<feColorMatrix in="SourceAlpha" type="matrix" values="0 0 0 0 0 0 0 0 0 0 0 0 0 0 0 0 0 0 127 0" result="hardAlpha"/>
<feOffset dy="7.49206"/>
<feGaussianBlur stdDeviation="22.4762"/>
<feColorMatrix type="matrix" values="0 0 0 0 0.12549 0 0 0 0 0.164706 0 0 0 0 0.258824 0 0 0 0.06 0"/>
<feBlend mode="normal" in2="BackgroundImageFix" result="effect1_dropShadow_4017_28494"/>
<feBlend mode="normal" in="SourceGraphic" in2="effect1_dropShadow_4017_28494" result="shape"/>
</filter>
</defs>
</svg>
