<svg width="346" height="346" viewBox="0 0 346 346" fill="none" xmlns="http://www.w3.org/2000/svg">
<g filter="url(#filter0_d_4017_28507)">
<rect x="44.9521" y="37.4604" width="256" height="256" rx="4" fill="#121215"/>
<path d="M86.0331 61.4604C88.5916 83.2324 88.5916 119.001 86.0331 140.773L83.1298 165.473L86.039 190.149C88.5974 212.31 88.5972 247.689 85.9931 269.46L78.4521 205.287L70.9111 269.46C68.307 247.689 68.3068 212.31 70.8652 190.149L73.7734 165.473L70.871 140.773C68.3126 119.001 68.3126 83.2324 70.871 61.4604L78.4521 125.78L86.0331 61.4604Z" fill="#FAFAFA"/>
<path d="M113.033 61.4604C115.592 83.2324 115.592 119.001 113.033 140.773L110.13 165.473L113.039 190.149C115.597 212.31 115.597 247.689 112.993 269.46L105.452 205.287L97.9111 269.46C95.307 247.689 95.3068 212.31 97.8652 190.149L100.773 165.473L97.871 140.773C95.3126 119.001 95.3126 83.2324 97.871 61.4604L105.452 125.78L113.033 61.4604Z" fill="#FAFAFA"/>
<path d="M140.033 61.4604C142.592 83.2324 142.592 119.001 140.033 140.773L137.13 165.473L140.039 190.149C142.597 212.31 142.597 247.689 139.993 269.46L132.452 205.287L124.911 269.46C122.307 247.689 122.307 212.31 124.865 190.149L127.773 165.473L124.871 140.773C122.313 119.001 122.313 83.2324 124.871 61.4604L132.452 125.78L140.033 61.4604Z" fill="#FAFAFA"/>
<path d="M167.033 61.4604C169.592 83.2324 169.592 119.001 167.033 140.773L164.13 165.473L167.039 190.149C169.597 212.31 169.597 247.689 166.993 269.46L159.452 205.287L151.911 269.46C149.307 247.689 149.307 212.31 151.865 190.149L154.773 165.473L151.871 140.773C149.313 119.001 149.313 83.2324 151.871 61.4604L159.452 125.78L167.033 61.4604Z" fill="#FAFAFA"/>
<path d="M194.033 61.4604C196.592 83.2324 196.592 119.001 194.033 140.773L191.13 165.473L194.039 190.149C196.597 212.31 196.597 247.689 193.993 269.46L186.452 205.287L178.911 269.46C176.307 247.689 176.307 212.31 178.865 190.149L181.773 165.473L178.871 140.773C176.313 119.001 176.313 83.2324 178.871 61.4604L186.452 125.78L194.033 61.4604Z" fill="#FAFAFA"/>
<path d="M221.033 61.4604C223.592 83.2324 223.592 119.001 221.033 140.773L218.13 165.473L221.039 190.149C223.597 212.31 223.597 247.689 220.993 269.46L213.452 205.287L205.911 269.46C203.307 247.689 203.307 212.31 205.865 190.149L208.773 165.473L205.871 140.773C203.313 119.001 203.313 83.2324 205.871 61.4604L213.452 125.78L221.033 61.4604Z" fill="#FAFAFA"/>
<path d="M248.033 61.4604C250.592 83.2324 250.592 119.001 248.033 140.773L245.13 165.473L248.039 190.149C250.597 212.31 250.597 247.689 247.993 269.46L240.452 205.287L232.911 269.46C230.307 247.689 230.307 212.31 232.865 190.149L235.773 165.473L232.871 140.773C230.313 119.001 230.313 83.2324 232.871 61.4604L240.452 125.78L248.033 61.4604Z" fill="#FAFAFA"/>
<path d="M275.033 61.4604C277.592 83.2324 277.592 119.001 275.033 140.773L272.13 165.473L275.039 190.149C277.597 212.31 277.597 247.689 274.993 269.46L267.452 205.287L259.911 269.46C257.307 247.689 257.307 212.31 259.865 190.149L262.773 165.473L259.871 140.773C257.313 119.001 257.313 83.2324 259.871 61.4604L267.452 125.78L275.033 61.4604Z" fill="#FAFAFA"/>
</g>
<defs>
<filter id="filter0_d_4017_28507" x="-0.000228882" y="0.000134945" width="345.905" height="345.905" filterUnits="userSpaceOnUse" color-interpolation-filters="sRGB">
<feFlood flood-opacity="0" result="BackgroundImageFix"/>
<feColorMatrix in="SourceAlpha" type="matrix" values="0 0 0 0 0 0 0 0 0 0 0 0 0 0 0 0 0 0 127 0" result="hardAlpha"/>
<feOffset dy="7.49206"/>
<feGaussianBlur stdDeviation="22.4762"/>
<feColorMatrix type="matrix" values="0 0 0 0 0.12549 0 0 0 0 0.164706 0 0 0 0 0.258824 0 0 0 0.06 0"/>
<feBlend mode="normal" in2="BackgroundImageFix" result="effect1_dropShadow_4017_28507"/>
<feBlend mode="normal" in="SourceGraphic" in2="effect1_dropShadow_4017_28507" result="shape"/>
</filter>
</defs>
</svg>
