<svg width="256" height="256" viewBox="0 0 256 256" fill="none" xmlns="http://www.w3.org/2000/svg">
<g clip-path="url(#clip0_4017_20226)">
<rect width="256" height="256" rx="4" fill="#121215"/>
<path d="M32.5168 54.7656C31.1502 52.2989 31.5648 49.1639 33.7709 47.0554L38.1137 42.9905L26.0343 31.6825C23.8513 29.6328 23.425 26.4807 24.7543 24L41.5767 39.749L52.5012 29.5212C53.8305 32.0018 53.4037 35.1535 51.2209 37.2032L44.8588 43.1773L45.1968 44.1787C45.7617 45.8516 45.6083 47.6781 44.7771 49.229L41.5914 46.2461L32.5168 54.7656Z" fill="#FAFAFA"/>
<path d="M77.6521 24C79.0188 26.4667 78.6041 29.6017 76.3981 31.7102L72.0552 35.7751L84.1347 47.0831C86.3176 49.1329 86.744 52.2849 85.4146 54.7656L68.5923 39.0166L57.6677 49.2445C56.3385 46.7638 56.7652 43.6121 58.9481 41.5625L65.3101 35.5883L64.9722 34.587C64.4072 32.914 64.5606 31.0875 65.3918 29.5366L68.5775 32.5195L77.6521 24Z" fill="#FAFAFA"/>
<path d="M98.344 54.7656C96.9773 52.2989 97.392 49.1639 99.598 47.0554L103.941 42.9905L91.8614 31.6825C89.6785 29.6328 89.2521 26.4807 90.5815 24L107.404 39.749L118.328 29.5212C119.658 32.0018 119.231 35.1535 117.048 37.2032L110.686 43.1773L111.024 44.1787C111.589 45.8516 111.435 47.6781 110.604 49.229L107.419 46.2461L98.344 54.7656Z" fill="#FAFAFA"/>
<path d="M143.479 24C144.846 26.4667 144.431 29.6017 142.225 31.7102L137.882 35.7751L149.962 47.0831C152.145 49.1329 152.571 52.2849 151.242 54.7656L134.419 39.0166L123.495 49.2445C122.166 46.7638 122.592 43.6121 124.775 41.5625L131.137 35.5883L130.799 34.587C130.234 32.914 130.388 31.0875 131.219 29.5366L134.405 32.5195L143.479 24Z" fill="#FAFAFA"/>
<path d="M164.17 54.7656C162.804 52.2989 163.218 49.1639 165.424 47.0554L169.767 42.9905L157.688 31.6825C155.505 29.6328 155.078 26.4807 156.408 24L173.23 39.749L184.155 29.5212C185.484 32.0018 185.057 35.1535 182.874 37.2032L176.512 43.1773L176.85 44.1787C177.415 45.8516 177.262 47.6781 176.43 49.229L173.245 46.2461L164.17 54.7656Z" fill="#FAFAFA"/>
<path d="M209.305 24C210.672 26.4667 210.257 29.6017 208.051 31.7102L203.709 35.7751L215.788 47.0831C217.971 49.1329 218.397 52.2849 217.068 54.7656L200.246 39.0166L189.321 49.2445C187.992 46.7638 188.419 43.6121 190.601 41.5625L196.963 35.5883L196.626 34.587C196.061 32.914 196.214 31.0875 197.045 29.5366L200.231 32.5195L209.305 24Z" fill="#FAFAFA"/>
<path d="M229.997 54.7656C228.631 52.2989 229.045 49.1639 231.251 47.0554L235.594 42.9905L223.515 31.6825C221.332 29.6328 220.905 26.4807 222.235 24L239.057 39.749L249.982 29.5212C251.311 32.0018 250.884 35.1535 248.701 37.2032L242.339 43.1773L242.677 44.1787C243.242 45.8516 243.089 47.6781 242.258 49.229L239.072 46.2461L229.997 54.7656Z" fill="#FAFAFA"/>
<path d="M223.483 57.6914C224.85 60.1582 224.435 63.2931 222.229 65.4016L217.886 69.4665L229.966 80.7745C232.149 82.8243 232.575 85.9763 231.246 88.457L214.423 72.7081L203.499 82.9359C202.17 80.4552 202.596 77.3035 204.779 75.2539L211.141 69.2797L210.803 68.2784C210.238 66.6054 210.392 64.7789 211.223 63.2281L214.409 66.2109L223.483 57.6914Z" fill="#FAFAFA"/>
<path d="M178.348 88.457C176.981 85.9903 177.396 82.8553 179.602 80.7468L183.945 76.6819L171.865 65.3739C169.682 63.3242 169.256 60.1721 170.585 57.6914L187.408 73.4404L198.332 63.2126C199.662 65.6932 199.235 68.8449 197.052 70.8946L190.69 76.8688L191.028 77.8701C191.593 79.543 191.439 81.3695 190.608 82.9204L187.422 79.9375L178.348 88.457Z" fill="#FAFAFA"/>
<path d="M157.656 57.6914C159.023 60.1582 158.608 63.2931 156.402 65.4016L152.059 69.4665L164.139 80.7745C166.322 82.8243 166.748 85.9763 165.419 88.457L148.596 72.7081L137.672 82.9359C136.342 80.4552 136.769 77.3035 138.952 75.2539L145.314 69.2797L144.976 68.2784C144.411 66.6054 144.565 64.7789 145.396 63.2281L148.581 66.2109L157.656 57.6914Z" fill="#FAFAFA"/>
<path d="M112.521 88.457C111.154 85.9903 111.569 82.8553 113.775 80.7468L118.118 76.6819L106.038 65.3739C103.855 63.3242 103.429 60.1721 104.758 57.6914L121.581 73.4404L132.505 63.2126C133.834 65.6932 133.408 68.8449 131.225 70.8946L124.863 76.8688L125.201 77.8701C125.766 79.543 125.612 81.3695 124.781 82.9204L121.595 79.9375L112.521 88.457Z" fill="#FAFAFA"/>
<path d="M91.8298 57.6914C93.1965 60.1582 92.7818 63.2931 90.5758 65.4016L86.233 69.4665L98.3124 80.7745C100.495 82.8243 100.922 85.9763 99.5923 88.457L82.77 72.7081L71.8455 82.9359C70.5162 80.4552 70.943 77.3035 73.1258 75.2539L79.4879 69.2797L79.1499 68.2784C78.585 66.6054 78.7384 64.7789 79.5696 63.2281L82.7553 66.2109L91.8298 57.6914Z" fill="#FAFAFA"/>
<path d="M46.6946 88.457C45.3279 85.9903 45.7426 82.8553 47.9486 80.7468L52.2915 76.6819L40.212 65.3739C38.0291 63.3242 37.6027 60.1721 38.9321 57.6914L55.7544 73.4404L66.679 63.2126C68.0082 65.6932 67.5814 68.8449 65.3986 70.8946L59.0365 76.8688L59.3745 77.8701C59.9394 79.543 59.786 81.3695 58.9548 82.9204L55.7691 79.9375L46.6946 88.457Z" fill="#FAFAFA"/>
<path d="M26.0027 57.6914C27.3693 60.1582 26.9547 63.2931 24.7487 65.4016L20.4058 69.4665L32.4853 80.7745C34.6682 82.8243 35.0946 85.9763 33.7652 88.457L16.9429 72.7081L6.01831 82.9359C4.68908 80.4552 5.11583 77.3035 7.29867 75.2539L13.6607 69.2797L13.3228 68.2784C12.7578 66.6054 12.9112 64.7789 13.7424 63.2281L16.9281 66.2109L26.0027 57.6914Z" fill="#FAFAFA"/>
<path d="M32.5168 126.537C31.1502 124.07 31.5648 120.935 33.7709 118.827L38.1137 114.762L26.0343 103.454C23.8513 101.404 23.425 98.2522 24.7543 95.7715L41.5767 111.52L52.5012 101.293C53.8305 103.773 53.4037 106.925 51.2209 108.975L44.8588 114.949L45.1968 115.95C45.7617 117.623 45.6083 119.45 44.7771 121L41.5914 118.018L32.5168 126.537Z" fill="#FAFAFA"/>
<path d="M77.6521 95.7715C79.0188 98.2382 78.6041 101.373 76.3981 103.482L72.0552 107.547L84.1347 118.855C86.3176 120.904 86.744 124.056 85.4146 126.537L68.5923 110.788L57.6677 121.016C56.3385 118.535 56.7652 115.384 58.9481 113.334L65.3101 107.36L64.9722 106.358C64.4072 104.685 64.5606 102.859 65.3918 101.308L68.5775 104.291L77.6521 95.7715Z" fill="#FAFAFA"/>
<path d="M98.344 126.537C96.9773 124.07 97.392 120.935 99.598 118.827L103.941 114.762L91.8614 103.454C89.6785 101.404 89.2521 98.2522 90.5815 95.7715L107.404 111.52L118.328 101.293C119.658 103.773 119.231 106.925 117.048 108.975L110.686 114.949L111.024 115.95C111.589 117.623 111.435 119.45 110.604 121L107.419 118.018L98.344 126.537Z" fill="#FAFAFA"/>
<path d="M144.777 95.7715C146.229 98.2383 145.788 101.373 143.444 103.482L138.83 107.547L151.665 118.855C153.984 120.905 154.437 124.057 153.025 126.538L135.15 110.788L123.542 121.016C122.13 118.536 122.583 115.384 124.903 113.334L131.663 107.36L131.303 106.359C130.703 104.686 130.866 102.859 131.749 101.308L135.134 104.291L144.777 95.7715Z" fill="#FAFAFA"/>
<path d="M166.534 126.538C165.082 124.071 165.522 120.936 167.866 118.827L172.481 114.762L159.646 103.454C157.326 101.404 156.873 98.2523 158.286 95.7715L176.161 111.521L187.768 101.293C189.181 103.773 188.727 106.925 186.408 108.975L179.648 114.949L180.007 115.95C180.607 117.623 180.444 119.45 179.561 121.001L176.176 118.018L166.534 126.538Z" fill="#FAFAFA"/>
<path d="M214.264 95.7715C215.716 98.2383 215.275 101.373 212.931 103.482L208.317 107.547L221.152 118.855C223.471 120.905 223.924 124.057 222.512 126.538L204.637 110.788L193.029 121.016C191.617 118.536 192.07 115.384 194.39 113.334L201.15 107.36L200.791 106.359C200.19 104.686 200.353 102.859 201.237 101.308L204.622 104.291L214.264 95.7715Z" fill="#FAFAFA"/>
<path d="M236.021 126.538C234.569 124.071 235.01 120.936 237.354 118.827L241.968 114.762L229.133 103.454C226.814 101.404 226.361 98.2523 227.773 95.7715L245.648 111.521L257.256 101.293C258.668 103.773 258.215 106.925 255.895 108.975L249.135 114.949L249.494 115.95C250.095 117.623 249.932 119.45 249.049 121.001L245.664 118.018L236.021 126.538Z" fill="#FAFAFA"/>
<path d="M32.8215 162.423C31.406 159.957 31.8355 156.822 34.1203 154.713L38.6184 150.648L26.1072 139.34C23.8463 137.29 23.4047 134.138 24.7816 131.657L42.2051 147.406L53.5201 137.179C54.8969 139.659 54.4549 142.811 52.194 144.861L45.6046 150.835L45.9546 151.836C46.5398 153.509 46.3809 155.336 45.52 156.887L42.2204 153.904L32.8215 162.423Z" fill="#FAFAFA"/>
<path d="M79.4392 131.657C80.8547 134.124 80.4253 137.259 78.1404 139.368L73.6423 143.433L86.1535 154.741C88.4145 156.79 88.8561 159.943 87.4792 162.423L70.0556 146.674L58.7406 156.902C57.3639 154.421 57.8059 151.27 60.0667 149.22L66.6562 143.246L66.3061 142.244C65.721 140.571 65.8799 138.745 66.7408 137.194L70.0403 140.177L79.4392 131.657Z" fill="#FAFAFA"/>
<path d="M100.74 162.423C99.3249 159.957 99.7544 156.822 102.039 154.713L106.537 150.648L94.0262 139.34C91.7652 137.29 91.3236 134.138 92.7005 131.657L110.124 147.406L121.439 137.179C122.816 139.659 122.374 142.811 120.113 144.861L113.524 150.835L113.874 151.836C114.459 153.509 114.3 155.336 113.439 156.887L110.139 153.904L100.74 162.423Z" fill="#FAFAFA"/>
<path d="M147.358 131.657C148.774 134.124 148.344 137.259 146.059 139.368L141.561 143.433L154.072 154.741C156.333 156.79 156.775 159.943 155.398 162.423L137.975 146.674L126.66 156.902C125.283 154.421 125.725 151.27 127.986 149.22L134.575 143.246L134.225 142.244C133.64 140.571 133.799 138.745 134.66 137.194L137.959 140.177L147.358 131.657Z" fill="#FAFAFA"/>
<path d="M168.658 162.423C167.243 159.957 167.672 156.822 169.957 154.713L174.455 150.648L161.944 139.34C159.683 137.29 159.242 134.138 160.618 131.657L178.042 147.406L189.357 137.179C190.734 139.659 190.292 142.811 188.031 144.861L181.442 150.835L181.792 151.836C182.377 153.509 182.218 155.336 181.357 156.887L178.057 153.904L168.658 162.423Z" fill="#FAFAFA"/>
<path d="M215.276 131.657C216.692 134.124 216.262 137.259 213.977 139.368L209.479 143.433L221.99 154.741C224.251 156.79 224.693 159.943 223.316 162.423L205.893 146.674L194.578 156.902C193.201 154.421 193.643 151.27 195.904 149.22L202.493 143.246L202.143 142.244C201.558 140.571 201.717 138.745 202.578 137.194L205.877 140.177L215.276 131.657Z" fill="#FAFAFA"/>
<path d="M236.577 162.423C235.162 159.957 235.591 156.822 237.876 154.713L242.374 150.648L229.863 139.34C227.602 137.29 227.161 134.138 228.537 131.657L245.961 147.406L257.276 137.179C258.653 139.659 258.211 142.811 255.95 144.861L249.36 150.835L249.71 151.836C250.296 153.509 250.137 155.336 249.276 156.887L245.976 153.904L236.577 162.423Z" fill="#FAFAFA"/>
<path d="M223.178 165.348C224.594 167.815 224.165 170.95 221.88 173.058L217.382 177.123L229.893 188.432C232.154 190.481 232.595 193.633 231.218 196.114L213.795 180.365L202.48 190.593C201.103 188.112 201.545 184.961 203.806 182.911L210.395 176.937L210.045 175.935C209.46 174.262 209.619 172.436 210.48 170.885L213.78 173.868L223.178 165.348Z" fill="#FAFAFA"/>
<path d="M176.561 196.114C175.145 193.647 175.575 190.512 177.86 188.404L182.358 184.339L169.846 173.031C167.586 170.981 167.144 167.829 168.521 165.348L185.944 181.097L197.259 170.869C198.636 173.35 198.194 176.502 195.933 178.552L189.344 184.526L189.694 185.527C190.279 187.2 190.12 189.027 189.259 190.578L185.96 187.595L176.561 196.114Z" fill="#FAFAFA"/>
<path d="M155.26 165.348C156.675 167.815 156.246 170.95 153.961 173.058L149.463 177.123L161.974 188.432C164.235 190.481 164.676 193.633 163.299 196.114L145.876 180.365L134.561 190.593C133.184 188.112 133.626 184.961 135.887 182.911L142.476 176.937L142.126 175.935C141.541 174.262 141.7 172.436 142.561 170.885L145.861 173.868L155.26 165.348Z" fill="#FAFAFA"/>
<path d="M108.642 196.114C107.226 193.647 107.656 190.512 109.941 188.404L114.439 184.339L101.928 173.031C99.6666 170.981 99.225 167.829 100.602 165.348L118.025 181.097L129.34 170.869C130.717 173.35 130.275 176.502 128.014 178.552L121.425 184.526L121.775 185.527C122.36 187.2 122.201 189.027 121.34 190.578L118.041 187.595L108.642 196.114Z" fill="#FAFAFA"/>
<path d="M87.3416 165.348C88.7571 167.815 88.3276 170.95 86.0427 173.058L81.5447 177.123L94.0559 188.432C96.3168 190.481 96.7584 193.633 95.3815 196.114L77.958 180.365L66.6429 190.593C65.2662 188.112 65.7082 184.961 67.9691 182.911L74.5585 176.937L74.2085 175.935C73.6233 174.262 73.7822 172.436 74.6431 170.885L77.9427 173.868L87.3416 165.348Z" fill="#FAFAFA"/>
<path d="M40.7238 196.114C39.3083 193.647 39.7378 190.512 42.0227 188.404L46.5208 184.339L34.0096 173.031C31.7486 170.981 31.307 167.829 32.6839 165.348L50.1075 181.097L61.4225 170.869C62.7992 173.35 62.3572 176.502 60.0964 178.552L53.5069 184.526L53.857 185.527C54.4421 187.2 54.2832 189.027 53.4223 190.578L50.1227 187.595L40.7238 196.114Z" fill="#FAFAFA"/>
<path d="M19.4226 165.348C20.8381 167.815 20.4087 170.95 18.1238 173.058L13.6257 177.123L26.1369 188.432C28.3979 190.481 28.8395 193.633 27.4626 196.114L10.039 180.365L-1.27601 190.593C-2.65275 188.112 -2.21074 184.961 0.0501111 182.911L6.63955 176.937L6.28953 175.935C5.70438 174.262 5.86327 172.436 6.72417 170.885L10.0237 173.868L19.4226 165.348Z" fill="#FAFAFA"/>
<path d="M223.178 201.234C224.594 203.701 224.165 206.836 221.88 208.944L217.382 213.009L229.893 224.317C232.154 226.367 232.595 229.519 231.218 232L213.795 216.251L202.48 226.479C201.103 223.998 201.545 220.846 203.806 218.797L210.395 212.822L210.045 211.821C209.46 210.148 209.619 208.322 210.48 206.771L213.78 209.754L223.178 201.234Z" fill="#FAFAFA"/>
<path d="M176.561 232C175.145 229.533 175.575 226.398 177.86 224.29L182.358 220.225L169.846 208.917C167.586 206.867 167.144 203.715 168.521 201.234L185.944 216.983L197.259 206.755C198.636 209.236 198.194 212.388 195.933 214.437L189.344 220.412L189.694 221.413C190.279 223.086 190.12 224.912 189.259 226.463L185.96 223.48L176.561 232Z" fill="#FAFAFA"/>
<path d="M155.26 201.234C156.675 203.701 156.246 206.836 153.961 208.944L149.463 213.009L161.974 224.317C164.235 226.367 164.676 229.519 163.299 232L145.876 216.251L134.561 226.479C133.184 223.998 133.626 220.846 135.887 218.797L142.476 212.822L142.126 211.821C141.541 210.148 141.7 208.322 142.561 206.771L145.861 209.754L155.26 201.234Z" fill="#FAFAFA"/>
<path d="M108.642 232C107.226 229.533 107.656 226.398 109.941 224.29L114.439 220.225L101.928 208.917C99.6666 206.867 99.225 203.715 100.602 201.234L118.025 216.983L129.34 206.755C130.717 209.236 130.275 212.388 128.014 214.437L121.425 220.412L121.775 221.413C122.36 223.086 122.201 224.912 121.34 226.463L118.041 223.48L108.642 232Z" fill="#FAFAFA"/>
<path d="M87.3416 201.234C88.7571 203.701 88.3276 206.836 86.0427 208.944L81.5447 213.009L94.0559 224.317C96.3168 226.367 96.7584 229.519 95.3815 232L77.958 216.251L66.6429 226.479C65.2662 223.998 65.7082 220.846 67.9691 218.797L74.5585 212.822L74.2085 211.821C73.6233 210.148 73.7822 208.322 74.6431 206.771L77.9427 209.754L87.3416 201.234Z" fill="#FAFAFA"/>
<path d="M40.7238 232C39.3083 229.533 39.7378 226.398 42.0227 224.29L46.5208 220.225L34.0096 208.917C31.7486 206.867 31.307 203.715 32.6839 201.234L50.1075 216.983L61.4225 206.755C62.7992 209.236 62.3572 212.388 60.0964 214.437L53.5069 220.412L53.857 221.413C54.4421 223.086 54.2832 224.912 53.4223 226.463L50.1227 223.48L40.7238 232Z" fill="#FAFAFA"/>
<path d="M19.4226 199.086C20.8381 201.725 20.4087 205.079 18.1238 207.335L13.6257 211.683L26.1369 223.781C28.3979 225.974 28.8395 229.346 27.4626 232L10.039 215.151L-1.27601 226.093C-2.65275 223.44 -2.21074 220.068 0.0501111 217.875L6.63955 211.484L6.28953 210.412C5.70438 208.622 5.86327 206.668 6.72417 205.009L10.0237 208.2L19.4226 199.086Z" fill="#FAFAFA"/>
</g>
<defs>
<clipPath id="clip0_4017_20226">
<rect width="256" height="256" rx="4" fill="white"/>
</clipPath>
</defs>
</svg>
