<svg width="298" height="298" viewBox="0 0 298 298" fill="none" xmlns="http://www.w3.org/2000/svg">
<g filter="url(#filter0_d_4017_18052)">
<rect x="20.5498" y="17.1245" width="256" height="256" rx="4" fill="#121215"/>
<path d="M70.2443 58.8607L47.4353 87.6387C43.588 82.7699 43.588 74.7712 47.4353 69.9024L70.1756 41.1244C74.0916 45.9932 74.0916 53.9049 70.2443 58.8607Z" fill="#FAFAFA"/>
<path d="M106.13 69.9025L83.321 41.1245C79.4737 45.9933 79.4737 53.992 83.321 58.8608L106.061 87.6388C109.977 82.77 109.977 74.8582 106.13 69.9025Z" fill="#FAFAFA"/>
<path d="M142.016 58.8607L119.207 87.6387C115.359 82.7699 115.359 74.7712 119.207 69.9024L141.947 41.1244C145.863 45.9932 145.863 53.9049 142.016 58.8607Z" fill="#FAFAFA"/>
<path d="M177.902 69.9025L155.093 41.1245C151.245 45.9933 151.245 53.992 155.093 58.8608L177.833 87.6388C181.749 82.77 181.749 74.8582 177.902 69.9025Z" fill="#FAFAFA"/>
<path d="M213.787 58.8607L190.978 87.6387C187.131 82.7699 187.131 74.7712 190.978 69.9024L213.719 41.1244C217.635 45.9932 217.635 53.9049 213.787 58.8607Z" fill="#FAFAFA"/>
<path d="M249.673 69.9025L226.864 41.1245C223.017 45.9933 223.017 53.992 226.864 58.8608L249.604 87.6388C253.52 82.77 253.52 74.8582 249.673 69.9025Z" fill="#FAFAFA"/>
<path d="M70.2443 123.731L47.4353 94.9531C43.588 99.8219 43.588 107.821 47.4353 112.689L70.1756 141.467C74.0916 136.599 74.0916 128.687 70.2443 123.731Z" fill="#FAFAFA"/>
<path d="M106.13 112.689L83.321 141.467C79.4737 136.598 79.4737 128.6 83.321 123.731L106.061 94.953C109.977 99.8218 109.977 107.734 106.13 112.689Z" fill="#FAFAFA"/>
<path d="M142.016 123.731L119.207 94.9531C115.359 99.8219 115.359 107.821 119.207 112.689L141.947 141.467C145.863 136.599 145.863 128.687 142.016 123.731Z" fill="#FAFAFA"/>
<path d="M177.902 112.689L155.093 141.467C151.245 136.598 151.245 128.6 155.093 123.731L177.833 94.953C181.749 99.8218 181.749 107.734 177.902 112.689Z" fill="#FAFAFA"/>
<path d="M213.787 123.731L190.978 94.9531C187.131 99.8219 187.131 107.821 190.978 112.689L213.719 141.467C217.635 136.599 217.635 128.687 213.787 123.731Z" fill="#FAFAFA"/>
<path d="M249.673 112.689L226.864 141.467C223.017 136.598 223.017 128.6 226.864 123.731L249.604 94.953C253.52 99.8218 253.52 107.734 249.673 112.689Z" fill="#FAFAFA"/>
<path d="M70.2443 166.518L47.4353 195.296C43.588 190.427 43.588 182.428 47.4353 177.56L70.1756 148.782C74.0916 153.65 74.0916 161.562 70.2443 166.518Z" fill="#FAFAFA"/>
<path d="M106.13 177.56L83.321 148.782C79.4737 153.651 79.4737 161.649 83.321 166.518L106.061 195.296C109.977 190.427 109.977 182.515 106.13 177.56Z" fill="#FAFAFA"/>
<path d="M142.016 166.518L119.207 195.296C115.359 190.427 115.359 182.428 119.207 177.56L141.947 148.782C145.863 153.65 145.863 161.562 142.016 166.518Z" fill="#FAFAFA"/>
<path d="M177.902 177.56L155.093 148.782C151.245 153.651 151.245 161.649 155.093 166.518L177.833 195.296C181.749 190.427 181.749 182.515 177.902 177.56Z" fill="#FAFAFA"/>
<path d="M213.787 166.518L190.978 195.296C187.131 190.427 187.131 182.428 190.978 177.56L213.719 148.782C217.635 153.65 217.635 161.562 213.787 166.518Z" fill="#FAFAFA"/>
<path d="M249.673 177.56L226.864 148.782C223.017 153.651 223.017 161.649 226.864 166.518L249.604 195.296C253.52 190.427 253.52 182.515 249.673 177.56Z" fill="#FAFAFA"/>
<path d="M70.2443 231.388L47.4353 202.61C43.588 207.479 43.588 215.478 47.4353 220.347L70.1756 249.125C74.0916 244.256 74.0916 236.344 70.2443 231.388Z" fill="#FAFAFA"/>
<path d="M106.13 220.347L83.321 249.125C79.4737 244.256 79.4737 236.257 83.321 231.388L106.061 202.61C109.977 207.479 109.977 215.391 106.13 220.347Z" fill="#FAFAFA"/>
<path d="M142.016 231.388L119.207 202.61C115.359 207.479 115.359 215.478 119.207 220.347L141.947 249.125C145.863 244.256 145.863 236.344 142.016 231.388Z" fill="#FAFAFA"/>
<path d="M177.902 220.347L155.093 249.125C151.245 244.256 151.245 236.257 155.093 231.388L177.833 202.61C181.749 207.479 181.749 215.391 177.902 220.347Z" fill="#FAFAFA"/>
<path d="M213.787 231.388L190.978 202.61C187.131 207.479 187.131 215.478 190.978 220.347L213.719 249.125C217.635 244.256 217.635 236.344 213.787 231.388Z" fill="#FAFAFA"/>
<path d="M249.673 220.347L226.864 249.125C223.017 244.256 223.017 236.257 226.864 231.388L249.604 202.61C253.52 207.479 253.52 215.391 249.673 220.347Z" fill="#FAFAFA"/>
</g>
<defs>
<filter id="filter0_d_4017_18052" x="0.000146866" y="-0.000202894" width="297.099" height="297.099" filterUnits="userSpaceOnUse" color-interpolation-filters="sRGB">
<feFlood flood-opacity="0" result="BackgroundImageFix"/>
<feColorMatrix in="SourceAlpha" type="matrix" values="0 0 0 0 0 0 0 0 0 0 0 0 0 0 0 0 0 0 127 0" result="hardAlpha"/>
<feOffset dy="3.42494"/>
<feGaussianBlur stdDeviation="10.2748"/>
<feColorMatrix type="matrix" values="0 0 0 0 0.12549 0 0 0 0 0.164706 0 0 0 0 0.258824 0 0 0 0.06 0"/>
<feBlend mode="normal" in2="BackgroundImageFix" result="effect1_dropShadow_4017_18052"/>
<feBlend mode="normal" in="SourceGraphic" in2="effect1_dropShadow_4017_18052" result="shape"/>
</filter>
</defs>
</svg>
