<svg width="346" height="346" viewBox="0 0 346 346" fill="none" xmlns="http://www.w3.org/2000/svg">
<g filter="url(#filter0_d_4017_28440)">
<rect x="44.9521" y="37.4604" width="256" height="256" rx="4" fill="#121215"/>
<path d="M69.257 64.1761C69.015 63.8311 69.0095 63.3647 69.2887 63.049C71.3124 60.7606 74.2993 60.9446 76.1681 63.6011L87.8276 80.1755C87.953 80.3537 87.9539 80.5932 87.8197 80.7648C87.7823 80.8125 87.7552 80.8653 87.731 80.9208C87.705 80.9803 87.6732 81.0379 87.6349 81.0923L82.5213 88.3596C82.2784 88.7048 82.2784 89.1653 82.5212 89.5105L87.635 96.7787C87.8761 97.1214 87.8838 97.5843 87.61 97.9015C85.5902 100.241 82.6266 100.06 80.7218 97.3999L79.2631 95.3197C78.8652 94.7523 78.0249 94.7518 77.6263 95.3186L76.1681 97.3921C76.1655 97.3958 76.1655 97.4 76.1681 97.4038L87.6351 113.705C87.8761 114.047 87.8838 114.51 87.61 114.827C85.5902 117.167 82.6266 116.986 80.7218 114.326L69.0855 97.7343C68.9464 97.536 68.9458 97.2691 69.0976 97.0804C69.1337 97.0355 69.1616 96.9865 69.1874 96.935C69.2076 96.8947 69.2306 96.8555 69.257 96.8178L74.3817 89.5092C74.6234 89.1646 74.6234 88.7055 74.3817 88.3609L69.257 81.0541C69.015 80.709 69.0094 80.2427 69.2887 79.9269C71.3124 77.6385 74.2993 77.8225 76.1681 80.479L77.6256 82.5511C78.0242 83.1177 78.8642 83.1173 79.2621 82.5502L80.3003 81.0708C80.5422 80.7262 80.5422 80.2669 80.3004 79.9222L69.257 64.1761Z" fill="#FAFAFA"/>
<path d="M96.257 113.745C96.015 114.09 96.0095 114.556 96.2887 114.872C98.3124 117.16 101.299 116.976 103.168 114.32L114.828 97.7454C114.953 97.5672 114.954 97.3277 114.82 97.1561C114.782 97.1084 114.755 97.0556 114.731 97.0001C114.705 96.9406 114.673 96.883 114.635 96.8286L109.521 89.5613C109.278 89.2161 109.278 88.7556 109.521 88.4104L114.635 81.1422C114.876 80.7995 114.884 80.3366 114.61 80.0194C112.59 77.6803 109.627 77.8612 107.722 80.521L106.263 82.6012C105.865 83.1686 105.025 83.1691 104.626 82.6023L103.168 80.5288C103.165 80.5251 103.165 80.5209 103.168 80.5171L114.635 64.2164C114.876 63.8737 114.884 63.4108 114.61 63.0937C112.59 60.7542 109.627 60.9351 107.722 63.5952L96.0855 80.1866C95.9464 80.3849 95.9458 80.6518 96.0976 80.8405C96.1337 80.8854 96.1616 80.9344 96.1874 80.9859C96.2076 81.0262 96.2306 81.0654 96.257 81.1031L101.382 88.4117C101.623 88.7563 101.623 89.2154 101.382 89.56L96.257 96.8668C96.015 97.2119 96.0094 97.6782 96.2887 97.994C98.3124 100.282 101.299 100.098 103.168 97.4419L104.626 95.3698C105.024 94.8032 105.864 94.8036 106.262 95.3707L107.3 96.8501C107.542 97.1947 107.542 97.654 107.3 97.9987L96.257 113.745Z" fill="#FAFAFA"/>
<path d="M141.647 64.1761C141.889 63.8311 141.895 63.3647 141.616 63.049C139.592 60.7606 136.605 60.9446 134.736 63.6011L123.077 80.1755C122.951 80.3537 122.95 80.5932 123.085 80.7648C123.122 80.8125 123.149 80.8653 123.173 80.9208C123.199 80.9803 123.231 81.0379 123.269 81.0923L128.383 88.3596C128.626 88.7048 128.626 89.1653 128.383 89.5105L123.269 96.7787C123.028 97.1214 123.02 97.5843 123.294 97.9015C125.314 100.241 128.278 100.06 130.182 97.3999L131.641 95.3197C132.039 94.7523 132.879 94.7518 133.278 95.3186L134.736 97.3921C134.739 97.3958 134.739 97.4 134.736 97.4038L123.269 113.705C123.028 114.047 123.02 114.51 123.294 114.827C125.314 117.167 128.278 116.986 130.182 114.326L141.819 97.7343C141.958 97.536 141.958 97.2691 141.807 97.0804C141.771 97.0355 141.743 96.9865 141.717 96.935C141.697 96.8947 141.674 96.8555 141.647 96.8178L136.523 89.5092C136.281 89.1646 136.281 88.7055 136.523 88.3609L141.647 81.0541C141.889 80.709 141.895 80.2427 141.616 79.9269C139.592 77.6385 136.605 77.8225 134.736 80.479L133.279 82.5511C132.88 83.1177 132.04 83.1173 131.642 82.5502L130.604 81.0708C130.362 80.7262 130.362 80.2669 130.604 79.9222L141.647 64.1761Z" fill="#FAFAFA"/>
<path d="M150.257 64.1761C150.015 63.8311 150.009 63.3647 150.289 63.049C152.312 60.7606 155.299 60.9446 157.168 63.6011L168.828 80.1755C168.953 80.3537 168.954 80.5932 168.82 80.7648C168.782 80.8125 168.755 80.8653 168.731 80.9208C168.705 80.9803 168.673 81.0379 168.635 81.0923L163.521 88.3596C163.278 88.7048 163.278 89.1653 163.521 89.5105L168.635 96.7787C168.876 97.1214 168.884 97.5843 168.61 97.9015C166.59 100.241 163.627 100.06 161.722 97.3999L160.263 95.3197C159.865 94.7523 159.025 94.7518 158.626 95.3186L157.168 97.3921C157.165 97.3958 157.165 97.4 157.168 97.4038L168.635 113.705C168.876 114.047 168.884 114.51 168.61 114.827C166.59 117.167 163.627 116.986 161.722 114.326L150.085 97.7343C149.946 97.536 149.946 97.2691 150.098 97.0804C150.134 97.0355 150.162 96.9865 150.187 96.935C150.208 96.8947 150.231 96.8555 150.257 96.8178L155.382 89.5092C155.623 89.1646 155.623 88.7055 155.382 88.3609L150.257 81.0541C150.015 80.709 150.009 80.2427 150.289 79.9269C152.312 77.6385 155.299 77.8225 157.168 80.479L158.626 82.5511C159.024 83.1177 159.864 83.1173 160.262 82.5502L161.3 81.0708C161.542 80.7262 161.542 80.2669 161.3 79.9222L150.257 64.1761Z" fill="#FAFAFA"/>
<path d="M195.647 113.745C195.889 114.09 195.895 114.556 195.616 114.872C193.592 117.16 190.605 116.976 188.736 114.32L177.077 97.7454C176.951 97.5672 176.95 97.3277 177.085 97.1561C177.122 97.1084 177.149 97.0556 177.173 97.0001C177.199 96.9406 177.231 96.883 177.269 96.8286L182.383 89.5613C182.626 89.2161 182.626 88.7556 182.383 88.4104L177.269 81.1422C177.028 80.7995 177.02 80.3366 177.294 80.0194C179.314 77.6803 182.278 77.8612 184.182 80.521L185.641 82.6012C186.039 83.1686 186.879 83.1691 187.278 82.6023L188.736 80.5288C188.739 80.5251 188.739 80.5209 188.736 80.5171L177.269 64.2164C177.028 63.8737 177.02 63.4108 177.294 63.0937C179.314 60.7542 182.278 60.9351 184.182 63.5952L195.819 80.1866C195.958 80.3849 195.958 80.6518 195.807 80.8405C195.771 80.8854 195.743 80.9344 195.717 80.9859C195.697 81.0262 195.674 81.0654 195.647 81.1031L190.523 88.4117C190.281 88.7563 190.281 89.2154 190.523 89.56L195.647 96.8668C195.889 97.2119 195.895 97.6782 195.616 97.994C193.592 100.282 190.605 100.098 188.736 97.4419L187.279 95.3698C186.88 94.8032 186.04 94.8036 185.642 95.3707L184.604 96.8501C184.362 97.1947 184.362 97.654 184.604 97.9987L195.647 113.745Z" fill="#FAFAFA"/>
<path d="M222.647 64.1761C222.889 63.8311 222.895 63.3647 222.616 63.049C220.592 60.7606 217.605 60.9446 215.736 63.6011L204.077 80.1755C203.951 80.3537 203.95 80.5932 204.085 80.7648C204.122 80.8125 204.149 80.8653 204.173 80.9208C204.199 80.9803 204.231 81.0379 204.269 81.0923L209.383 88.3596C209.626 88.7048 209.626 89.1653 209.383 89.5105L204.269 96.7787C204.028 97.1214 204.02 97.5843 204.294 97.9015C206.314 100.241 209.278 100.06 211.182 97.3999L212.641 95.3197C213.039 94.7523 213.879 94.7518 214.278 95.3186L215.736 97.3921C215.739 97.3958 215.739 97.4 215.736 97.4038L204.269 113.705C204.028 114.047 204.02 114.51 204.294 114.827C206.314 117.167 209.278 116.986 211.182 114.326L222.819 97.7343C222.958 97.536 222.958 97.2691 222.807 97.0804C222.771 97.0355 222.743 96.9865 222.717 96.935C222.697 96.8947 222.674 96.8555 222.647 96.8178L217.523 89.5092C217.281 89.1646 217.281 88.7055 217.523 88.3609L222.647 81.0541C222.889 80.709 222.895 80.2427 222.616 79.9269C220.592 77.6385 217.605 77.8225 215.736 80.479L214.279 82.5511C213.88 83.1177 213.04 83.1173 212.642 82.5502L211.604 81.0708C211.362 80.7262 211.362 80.2669 211.604 79.9222L222.647 64.1761Z" fill="#FAFAFA"/>
<path d="M231.257 113.745C231.015 114.09 231.009 114.556 231.289 114.872C233.312 117.16 236.299 116.976 238.168 114.32L249.828 97.7454C249.953 97.5672 249.954 97.3277 249.82 97.1561C249.782 97.1084 249.755 97.0556 249.731 97.0001C249.705 96.9406 249.673 96.883 249.635 96.8286L244.521 89.5613C244.278 89.2161 244.278 88.7556 244.521 88.4104L249.635 81.1422C249.876 80.7995 249.884 80.3366 249.61 80.0194C247.59 77.6803 244.627 77.8612 242.722 80.521L241.263 82.6012C240.865 83.1686 240.025 83.1691 239.626 82.6023L238.168 80.5288C238.165 80.5251 238.165 80.5209 238.168 80.5171L249.635 64.2164C249.876 63.8737 249.884 63.4108 249.61 63.0937C247.59 60.7542 244.627 60.9351 242.722 63.5952L231.085 80.1866C230.946 80.3849 230.946 80.6518 231.098 80.8405C231.134 80.8854 231.162 80.9344 231.187 80.9859C231.208 81.0262 231.231 81.0654 231.257 81.1031L236.382 88.4117C236.623 88.7563 236.623 89.2154 236.382 89.56L231.257 96.8668C231.015 97.2119 231.009 97.6782 231.289 97.994C233.312 100.282 236.299 100.098 238.168 97.4419L239.626 95.3698C240.024 94.8032 240.864 94.8036 241.262 95.3707L242.3 96.8501C242.542 97.1947 242.542 97.654 242.3 97.9987L231.257 113.745Z" fill="#FAFAFA"/>
<path d="M276.647 113.745C276.889 114.09 276.895 114.556 276.616 114.872C274.592 117.16 271.605 116.976 269.736 114.32L258.077 97.7454C257.951 97.5672 257.95 97.3277 258.085 97.1561C258.122 97.1084 258.149 97.0556 258.173 97.0001C258.199 96.9406 258.231 96.883 258.269 96.8286L263.383 89.5613C263.626 89.2161 263.626 88.7556 263.383 88.4104L258.269 81.1422C258.028 80.7995 258.02 80.3366 258.294 80.0194C260.314 77.6803 263.278 77.8612 265.182 80.521L266.641 82.6012C267.039 83.1686 267.879 83.1691 268.278 82.6023L269.736 80.5288C269.739 80.5251 269.739 80.5209 269.736 80.5171L258.269 64.2164C258.028 63.8737 258.02 63.4108 258.294 63.0937C260.314 60.7542 263.278 60.9351 265.182 63.5952L276.819 80.1866C276.958 80.3849 276.958 80.6518 276.807 80.8405C276.771 80.8854 276.743 80.9344 276.717 80.9859C276.697 81.0262 276.674 81.0654 276.647 81.1031L271.523 88.4117C271.281 88.7563 271.281 89.2154 271.523 89.56L276.647 96.8668C276.889 97.2119 276.895 97.6782 276.616 97.994C274.592 100.282 271.605 100.098 269.736 97.4419L268.279 95.3698C267.88 94.8032 267.04 94.8036 266.642 95.3707L265.604 96.8501C265.362 97.1947 265.362 97.654 265.604 97.9987L276.647 113.745Z" fill="#FAFAFA"/>
<path d="M69.257 164.745C69.015 165.09 69.0095 165.556 69.2887 165.872C71.3124 168.16 74.2993 167.976 76.1681 165.32L87.8276 148.745C87.953 148.567 87.9539 148.328 87.8197 148.156C87.7823 148.108 87.7552 148.056 87.731 148C87.705 147.941 87.6732 147.883 87.6349 147.829L82.5213 140.561C82.2784 140.216 82.2784 139.756 82.5212 139.41L87.635 132.142C87.8761 131.799 87.8838 131.337 87.61 131.019C85.5902 128.68 82.6266 128.861 80.7218 131.521L79.2631 133.601C78.8652 134.169 78.0249 134.169 77.6263 133.602L76.1681 131.529C76.1655 131.525 76.1655 131.521 76.1681 131.517L87.6351 115.216C87.8761 114.874 87.8838 114.411 87.61 114.094C85.5902 111.754 82.6266 111.935 80.7218 114.595L69.0855 131.187C68.9464 131.385 68.9458 131.652 69.0976 131.841C69.1337 131.885 69.1616 131.934 69.1874 131.986C69.2076 132.026 69.2306 132.065 69.257 132.103L74.3817 139.412C74.6234 139.756 74.6234 140.215 74.3817 140.56L69.257 147.867C69.015 148.212 69.0094 148.678 69.2887 148.994C71.3124 151.282 74.2993 151.098 76.1681 148.442L77.6256 146.37C78.0242 145.803 78.8642 145.804 79.2621 146.371L80.3003 147.85C80.5422 148.195 80.5422 148.654 80.3004 148.999L69.257 164.745Z" fill="#FAFAFA"/>
<path d="M96.257 115.176C96.015 114.831 96.0095 114.365 96.2887 114.049C98.3124 111.761 101.299 111.945 103.168 114.601L114.828 131.176C114.953 131.354 114.954 131.593 114.82 131.765C114.782 131.812 114.755 131.865 114.731 131.921C114.705 131.98 114.673 132.038 114.635 132.092L109.521 139.36C109.278 139.705 109.278 140.165 109.521 140.51L114.635 147.779C114.876 148.121 114.884 148.584 114.61 148.901C112.59 151.241 109.627 151.06 107.722 148.4L106.263 146.32C105.865 145.752 105.025 145.752 104.626 146.319L103.168 148.392C103.165 148.396 103.165 148.4 103.168 148.404L114.635 164.705C114.876 165.047 114.884 165.51 114.61 165.827C112.59 168.167 109.627 167.986 107.722 165.326L96.0855 148.734C95.9464 148.536 95.9458 148.269 96.0976 148.08C96.1337 148.035 96.1616 147.987 96.1874 147.935C96.2076 147.895 96.2306 147.855 96.257 147.818L101.382 140.509C101.623 140.165 101.623 139.706 101.382 139.361L96.257 132.054C96.015 131.709 96.0094 131.243 96.2887 130.927C98.3124 128.638 101.299 128.823 103.168 131.479L104.626 133.551C105.024 134.118 105.864 134.117 106.262 133.55L107.3 132.071C107.542 131.726 107.542 131.267 107.3 130.922L96.257 115.176Z" fill="#FAFAFA"/>
<path d="M141.647 164.745C141.889 165.09 141.895 165.556 141.616 165.872C139.592 168.16 136.605 167.976 134.736 165.32L123.077 148.745C122.951 148.567 122.95 148.328 123.085 148.156C123.122 148.108 123.149 148.056 123.173 148C123.199 147.941 123.231 147.883 123.269 147.829L128.383 140.561C128.626 140.216 128.626 139.756 128.383 139.41L123.269 132.142C123.028 131.799 123.02 131.337 123.294 131.019C125.314 128.68 128.278 128.861 130.182 131.521L131.641 133.601C132.039 134.169 132.879 134.169 133.278 133.602L134.736 131.529C134.739 131.525 134.739 131.521 134.736 131.517L123.269 115.216C123.028 114.874 123.02 114.411 123.294 114.094C125.314 111.754 128.278 111.935 130.182 114.595L141.819 131.187C141.958 131.385 141.958 131.652 141.807 131.841C141.771 131.885 141.743 131.934 141.717 131.986C141.697 132.026 141.674 132.065 141.647 132.103L136.523 139.412C136.281 139.756 136.281 140.215 136.523 140.56L141.647 147.867C141.889 148.212 141.895 148.678 141.616 148.994C139.592 151.282 136.605 151.098 134.736 148.442L133.279 146.37C132.88 145.803 132.04 145.804 131.642 146.371L130.604 147.85C130.362 148.195 130.362 148.654 130.604 148.999L141.647 164.745Z" fill="#FAFAFA"/>
<path d="M150.257 164.745C150.015 165.09 150.009 165.556 150.289 165.872C152.312 168.16 155.299 167.976 157.168 165.32L168.828 148.745C168.953 148.567 168.954 148.328 168.82 148.156C168.782 148.108 168.755 148.056 168.731 148C168.705 147.941 168.673 147.883 168.635 147.829L163.521 140.561C163.278 140.216 163.278 139.756 163.521 139.41L168.635 132.142C168.876 131.799 168.884 131.337 168.61 131.019C166.59 128.68 163.627 128.861 161.722 131.521L160.263 133.601C159.865 134.169 159.025 134.169 158.626 133.602L157.168 131.529C157.165 131.525 157.165 131.521 157.168 131.517L168.635 115.216C168.876 114.874 168.884 114.411 168.61 114.094C166.59 111.754 163.627 111.935 161.722 114.595L150.085 131.187C149.946 131.385 149.946 131.652 150.098 131.841C150.134 131.885 150.162 131.934 150.187 131.986C150.208 132.026 150.231 132.065 150.257 132.103L155.382 139.412C155.623 139.756 155.623 140.215 155.382 140.56L150.257 147.867C150.015 148.212 150.009 148.678 150.289 148.994C152.312 151.282 155.299 151.098 157.168 148.442L158.626 146.37C159.024 145.803 159.864 145.804 160.262 146.371L161.3 147.85C161.542 148.195 161.542 148.654 161.3 148.999L150.257 164.745Z" fill="#FAFAFA"/>
<path d="M195.647 115.176C195.889 114.831 195.895 114.365 195.616 114.049C193.592 111.761 190.605 111.945 188.736 114.601L177.077 131.176C176.951 131.354 176.95 131.593 177.085 131.765C177.122 131.812 177.149 131.865 177.173 131.921C177.199 131.98 177.231 132.038 177.269 132.092L182.383 139.36C182.626 139.705 182.626 140.165 182.383 140.51L177.269 147.779C177.028 148.121 177.02 148.584 177.294 148.901C179.314 151.241 182.278 151.06 184.182 148.4L185.641 146.32C186.039 145.752 186.879 145.752 187.278 146.319L188.736 148.392C188.739 148.396 188.739 148.4 188.736 148.404L177.269 164.705C177.028 165.047 177.02 165.51 177.294 165.827C179.314 168.167 182.278 167.986 184.182 165.326L195.819 148.734C195.958 148.536 195.958 148.269 195.807 148.08C195.771 148.035 195.743 147.987 195.717 147.935C195.697 147.895 195.674 147.855 195.647 147.818L190.523 140.509C190.281 140.165 190.281 139.706 190.523 139.361L195.647 132.054C195.889 131.709 195.895 131.243 195.616 130.927C193.592 128.638 190.605 128.823 188.736 131.479L187.279 133.551C186.88 134.118 186.04 134.117 185.642 133.55L184.604 132.071C184.362 131.726 184.362 131.267 184.604 130.922L195.647 115.176Z" fill="#FAFAFA"/>
<path d="M222.647 164.745C222.889 165.09 222.895 165.556 222.616 165.872C220.592 168.16 217.605 167.976 215.736 165.32L204.077 148.745C203.951 148.567 203.95 148.328 204.085 148.156C204.122 148.108 204.149 148.056 204.173 148C204.199 147.941 204.231 147.883 204.269 147.829L209.383 140.561C209.626 140.216 209.626 139.756 209.383 139.41L204.269 132.142C204.028 131.799 204.02 131.337 204.294 131.019C206.314 128.68 209.278 128.861 211.182 131.521L212.641 133.601C213.039 134.169 213.879 134.169 214.278 133.602L215.736 131.529C215.739 131.525 215.739 131.521 215.736 131.517L204.269 115.216C204.028 114.874 204.02 114.411 204.294 114.094C206.314 111.754 209.278 111.935 211.182 114.595L222.819 131.187C222.958 131.385 222.958 131.652 222.807 131.841C222.771 131.885 222.743 131.934 222.717 131.986C222.697 132.026 222.674 132.065 222.647 132.103L217.523 139.412C217.281 139.756 217.281 140.215 217.523 140.56L222.647 147.867C222.889 148.212 222.895 148.678 222.616 148.994C220.592 151.282 217.605 151.098 215.736 148.442L214.279 146.37C213.88 145.803 213.04 145.804 212.642 146.371L211.604 147.85C211.362 148.195 211.362 148.654 211.604 148.999L222.647 164.745Z" fill="#FAFAFA"/>
<path d="M231.257 115.176C231.015 114.831 231.009 114.365 231.289 114.049C233.312 111.761 236.299 111.945 238.168 114.601L249.828 131.176C249.953 131.354 249.954 131.593 249.82 131.765C249.782 131.812 249.755 131.865 249.731 131.921C249.705 131.98 249.673 132.038 249.635 132.092L244.521 139.36C244.278 139.705 244.278 140.165 244.521 140.51L249.635 147.779C249.876 148.121 249.884 148.584 249.61 148.901C247.59 151.241 244.627 151.06 242.722 148.4L241.263 146.32C240.865 145.752 240.025 145.752 239.626 146.319L238.168 148.392C238.165 148.396 238.165 148.4 238.168 148.404L249.635 164.705C249.876 165.047 249.884 165.51 249.61 165.827C247.59 168.167 244.627 167.986 242.722 165.326L231.085 148.734C230.946 148.536 230.946 148.269 231.098 148.08C231.134 148.035 231.162 147.987 231.187 147.935C231.208 147.895 231.231 147.855 231.257 147.818L236.382 140.509C236.623 140.165 236.623 139.706 236.382 139.361L231.257 132.054C231.015 131.709 231.009 131.243 231.289 130.927C233.312 128.638 236.299 128.823 238.168 131.479L239.626 133.551C240.024 134.118 240.864 134.117 241.262 133.55L242.3 132.071C242.542 131.726 242.542 131.267 242.3 130.922L231.257 115.176Z" fill="#FAFAFA"/>
<path d="M276.647 115.176C276.889 114.831 276.895 114.365 276.616 114.049C274.592 111.761 271.605 111.945 269.736 114.601L258.077 131.176C257.951 131.354 257.95 131.593 258.085 131.765C258.122 131.812 258.149 131.865 258.173 131.921C258.199 131.98 258.231 132.038 258.269 132.092L263.383 139.36C263.626 139.705 263.626 140.165 263.383 140.51L258.269 147.779C258.028 148.121 258.02 148.584 258.294 148.901C260.314 151.241 263.278 151.06 265.182 148.4L266.641 146.32C267.039 145.752 267.879 145.752 268.278 146.319L269.736 148.392C269.739 148.396 269.739 148.4 269.736 148.404L258.269 164.705C258.028 165.047 258.02 165.51 258.294 165.827C260.314 168.167 263.278 167.986 265.182 165.326L276.819 148.734C276.958 148.536 276.958 148.269 276.807 148.08C276.771 148.035 276.743 147.987 276.717 147.935C276.697 147.895 276.674 147.855 276.647 147.818L271.523 140.509C271.281 140.165 271.281 139.706 271.523 139.361L276.647 132.054C276.889 131.709 276.895 131.243 276.616 130.927C274.592 128.638 271.605 128.823 269.736 131.479L268.279 133.551C267.88 134.118 267.04 134.117 266.642 133.55L265.604 132.071C265.362 131.726 265.362 131.267 265.604 130.922L276.647 115.176Z" fill="#FAFAFA"/>
<path d="M69.257 166.176C69.015 165.831 69.0095 165.365 69.2887 165.049C71.3124 162.761 74.2993 162.945 76.1681 165.601L87.8276 182.176C87.953 182.354 87.9539 182.593 87.8197 182.765C87.7823 182.812 87.7552 182.865 87.731 182.921C87.705 182.98 87.6732 183.038 87.6349 183.092L82.5213 190.36C82.2784 190.705 82.2784 191.165 82.5212 191.51L87.635 198.779C87.8761 199.121 87.8838 199.584 87.61 199.901C85.5902 202.241 82.6266 202.06 80.7218 199.4L79.2631 197.32C78.8652 196.752 78.0249 196.752 77.6263 197.319L76.1681 199.392C76.1655 199.396 76.1655 199.4 76.1681 199.404L87.6351 215.705C87.8761 216.047 87.8838 216.51 87.61 216.827C85.5902 219.167 82.6266 218.986 80.7218 216.326L69.0855 199.734C68.9464 199.536 68.9458 199.269 69.0976 199.08C69.1337 199.035 69.1616 198.987 69.1874 198.935C69.2076 198.895 69.2306 198.855 69.257 198.818L74.3817 191.509C74.6234 191.165 74.6234 190.706 74.3817 190.361L69.257 183.054C69.015 182.709 69.0094 182.243 69.2887 181.927C71.3124 179.638 74.2993 179.823 76.1681 182.479L77.6256 184.551C78.0242 185.118 78.8642 185.117 79.2621 184.55L80.3003 183.071C80.5422 182.726 80.5422 182.267 80.3004 181.922L69.257 166.176Z" fill="#FAFAFA"/>
<path d="M96.257 215.745C96.015 216.09 96.0095 216.556 96.2887 216.872C98.3124 219.16 101.299 218.976 103.168 216.32L114.828 199.745C114.953 199.567 114.954 199.328 114.82 199.156C114.782 199.108 114.755 199.056 114.731 199C114.705 198.941 114.673 198.883 114.635 198.829L109.521 191.561C109.278 191.216 109.278 190.756 109.521 190.41L114.635 183.142C114.876 182.799 114.884 182.337 114.61 182.019C112.59 179.68 109.627 179.861 107.722 182.521L106.263 184.601C105.865 185.169 105.025 185.169 104.626 184.602L103.168 182.529C103.165 182.525 103.165 182.521 103.168 182.517L114.635 166.216C114.876 165.874 114.884 165.411 114.61 165.094C112.59 162.754 109.627 162.935 107.722 165.595L96.0855 182.187C95.9464 182.385 95.9458 182.652 96.0976 182.841C96.1337 182.885 96.1616 182.934 96.1874 182.986C96.2076 183.026 96.2306 183.065 96.257 183.103L101.382 190.412C101.623 190.756 101.623 191.215 101.382 191.56L96.257 198.867C96.015 199.212 96.0094 199.678 96.2887 199.994C98.3124 202.282 101.299 202.098 103.168 199.442L104.626 197.37C105.024 196.803 105.864 196.804 106.262 197.371L107.3 198.85C107.542 199.195 107.542 199.654 107.3 199.999L96.257 215.745Z" fill="#FAFAFA"/>
<path d="M141.647 166.176C141.889 165.831 141.895 165.365 141.616 165.049C139.592 162.761 136.605 162.945 134.736 165.601L123.077 182.176C122.951 182.354 122.95 182.593 123.085 182.765C123.122 182.812 123.149 182.865 123.173 182.921C123.199 182.98 123.231 183.038 123.269 183.092L128.383 190.36C128.626 190.705 128.626 191.165 128.383 191.51L123.269 198.779C123.028 199.121 123.02 199.584 123.294 199.901C125.314 202.241 128.278 202.06 130.182 199.4L131.641 197.32C132.039 196.752 132.879 196.752 133.278 197.319L134.736 199.392C134.739 199.396 134.739 199.4 134.736 199.404L123.269 215.705C123.028 216.047 123.02 216.51 123.294 216.827C125.314 219.167 128.278 218.986 130.182 216.326L141.819 199.734C141.958 199.536 141.958 199.269 141.807 199.08C141.771 199.035 141.743 198.987 141.717 198.935C141.697 198.895 141.674 198.855 141.647 198.818L136.523 191.509C136.281 191.165 136.281 190.706 136.523 190.361L141.647 183.054C141.889 182.709 141.895 182.243 141.616 181.927C139.592 179.638 136.605 179.823 134.736 182.479L133.279 184.551C132.88 185.118 132.04 185.117 131.642 184.55L130.604 183.071C130.362 182.726 130.362 182.267 130.604 181.922L141.647 166.176Z" fill="#FAFAFA"/>
<path d="M150.257 166.176C150.015 165.831 150.009 165.365 150.289 165.049C152.312 162.761 155.299 162.945 157.168 165.601L168.828 182.176C168.953 182.354 168.954 182.593 168.82 182.765C168.782 182.812 168.755 182.865 168.731 182.921C168.705 182.98 168.673 183.038 168.635 183.092L163.521 190.36C163.278 190.705 163.278 191.165 163.521 191.51L168.635 198.779C168.876 199.121 168.884 199.584 168.61 199.901C166.59 202.241 163.627 202.06 161.722 199.4L160.263 197.32C159.865 196.752 159.025 196.752 158.626 197.319L157.168 199.392C157.165 199.396 157.165 199.4 157.168 199.404L168.635 215.705C168.876 216.047 168.884 216.51 168.61 216.827C166.59 219.167 163.627 218.986 161.722 216.326L150.085 199.734C149.946 199.536 149.946 199.269 150.098 199.08C150.134 199.035 150.162 198.987 150.187 198.935C150.208 198.895 150.231 198.855 150.257 198.818L155.382 191.509C155.623 191.165 155.623 190.706 155.382 190.361L150.257 183.054C150.015 182.709 150.009 182.243 150.289 181.927C152.312 179.638 155.299 179.823 157.168 182.479L158.626 184.551C159.024 185.118 159.864 185.117 160.262 184.55L161.3 183.071C161.542 182.726 161.542 182.267 161.3 181.922L150.257 166.176Z" fill="#FAFAFA"/>
<path d="M195.647 215.745C195.889 216.09 195.895 216.556 195.616 216.872C193.592 219.16 190.605 218.976 188.736 216.32L177.077 199.745C176.951 199.567 176.95 199.328 177.085 199.156C177.122 199.108 177.149 199.056 177.173 199C177.199 198.941 177.231 198.883 177.269 198.829L182.383 191.561C182.626 191.216 182.626 190.756 182.383 190.41L177.269 183.142C177.028 182.799 177.02 182.337 177.294 182.019C179.314 179.68 182.278 179.861 184.182 182.521L185.641 184.601C186.039 185.169 186.879 185.169 187.278 184.602L188.736 182.529C188.739 182.525 188.739 182.521 188.736 182.517L177.269 166.216C177.028 165.874 177.02 165.411 177.294 165.094C179.314 162.754 182.278 162.935 184.182 165.595L195.819 182.187C195.958 182.385 195.958 182.652 195.807 182.841C195.771 182.885 195.743 182.934 195.717 182.986C195.697 183.026 195.674 183.065 195.647 183.103L190.523 190.412C190.281 190.756 190.281 191.215 190.523 191.56L195.647 198.867C195.889 199.212 195.895 199.678 195.616 199.994C193.592 202.282 190.605 202.098 188.736 199.442L187.279 197.37C186.88 196.803 186.04 196.804 185.642 197.371L184.604 198.85C184.362 199.195 184.362 199.654 184.604 199.999L195.647 215.745Z" fill="#FAFAFA"/>
<path d="M222.647 166.176C222.889 165.831 222.895 165.365 222.616 165.049C220.592 162.761 217.605 162.945 215.736 165.601L204.077 182.176C203.951 182.354 203.95 182.593 204.085 182.765C204.122 182.812 204.149 182.865 204.173 182.921C204.199 182.98 204.231 183.038 204.269 183.092L209.383 190.36C209.626 190.705 209.626 191.165 209.383 191.51L204.269 198.779C204.028 199.121 204.02 199.584 204.294 199.901C206.314 202.241 209.278 202.06 211.182 199.4L212.641 197.32C213.039 196.752 213.879 196.752 214.278 197.319L215.736 199.392C215.739 199.396 215.739 199.4 215.736 199.404L204.269 215.705C204.028 216.047 204.02 216.51 204.294 216.827C206.314 219.167 209.278 218.986 211.182 216.326L222.819 199.734C222.958 199.536 222.958 199.269 222.807 199.08C222.771 199.035 222.743 198.987 222.717 198.935C222.697 198.895 222.674 198.855 222.647 198.818L217.523 191.509C217.281 191.165 217.281 190.706 217.523 190.361L222.647 183.054C222.889 182.709 222.895 182.243 222.616 181.927C220.592 179.638 217.605 179.823 215.736 182.479L214.279 184.551C213.88 185.118 213.04 185.117 212.642 184.55L211.604 183.071C211.362 182.726 211.362 182.267 211.604 181.922L222.647 166.176Z" fill="#FAFAFA"/>
<path d="M231.257 215.745C231.015 216.09 231.009 216.556 231.289 216.872C233.312 219.16 236.299 218.976 238.168 216.32L249.828 199.745C249.953 199.567 249.954 199.328 249.82 199.156C249.782 199.108 249.755 199.056 249.731 199C249.705 198.941 249.673 198.883 249.635 198.829L244.521 191.561C244.278 191.216 244.278 190.756 244.521 190.41L249.635 183.142C249.876 182.799 249.884 182.337 249.61 182.019C247.59 179.68 244.627 179.861 242.722 182.521L241.263 184.601C240.865 185.169 240.025 185.169 239.626 184.602L238.168 182.529C238.165 182.525 238.165 182.521 238.168 182.517L249.635 166.216C249.876 165.874 249.884 165.411 249.61 165.094C247.59 162.754 244.627 162.935 242.722 165.595L231.085 182.187C230.946 182.385 230.946 182.652 231.098 182.841C231.134 182.885 231.162 182.934 231.187 182.986C231.208 183.026 231.231 183.065 231.257 183.103L236.382 190.412C236.623 190.756 236.623 191.215 236.382 191.56L231.257 198.867C231.015 199.212 231.009 199.678 231.289 199.994C233.312 202.282 236.299 202.098 238.168 199.442L239.626 197.37C240.024 196.803 240.864 196.804 241.262 197.371L242.3 198.85C242.542 199.195 242.542 199.654 242.3 199.999L231.257 215.745Z" fill="#FAFAFA"/>
<path d="M276.647 215.745C276.889 216.09 276.895 216.556 276.616 216.872C274.592 219.16 271.605 218.976 269.736 216.32L258.077 199.745C257.951 199.567 257.95 199.328 258.085 199.156C258.122 199.108 258.149 199.056 258.173 199C258.199 198.941 258.231 198.883 258.269 198.829L263.383 191.561C263.626 191.216 263.626 190.756 263.383 190.41L258.269 183.142C258.028 182.799 258.02 182.337 258.294 182.019C260.314 179.68 263.278 179.861 265.182 182.521L266.641 184.601C267.039 185.169 267.879 185.169 268.278 184.602L269.736 182.529C269.739 182.525 269.739 182.521 269.736 182.517L258.269 166.216C258.028 165.874 258.02 165.411 258.294 165.094C260.314 162.754 263.278 162.935 265.182 165.595L276.819 182.187C276.958 182.385 276.958 182.652 276.807 182.841C276.771 182.885 276.743 182.934 276.717 182.986C276.697 183.026 276.674 183.065 276.647 183.103L271.523 190.412C271.281 190.756 271.281 191.215 271.523 191.56L276.647 198.867C276.889 199.212 276.895 199.678 276.616 199.994C274.592 202.282 271.605 202.098 269.736 199.442L268.279 197.37C267.88 196.803 267.04 196.804 266.642 197.371L265.604 198.85C265.362 199.195 265.362 199.654 265.604 199.999L276.647 215.745Z" fill="#FAFAFA"/>
<path d="M69.257 266.745C69.015 267.09 69.0095 267.556 69.2887 267.872C71.3124 270.16 74.2993 269.976 76.1681 267.32L87.8276 250.745C87.953 250.567 87.9539 250.328 87.8197 250.156C87.7823 250.108 87.7552 250.056 87.731 250C87.705 249.941 87.6732 249.883 87.6349 249.829L82.5213 242.561C82.2784 242.216 82.2784 241.756 82.5212 241.41L87.635 234.142C87.8761 233.799 87.8838 233.337 87.61 233.019C85.5902 230.68 82.6266 230.861 80.7218 233.521L79.2631 235.601C78.8652 236.169 78.0249 236.169 77.6263 235.602L76.1681 233.529C76.1655 233.525 76.1655 233.521 76.1681 233.517L87.6351 217.216C87.8761 216.874 87.8838 216.411 87.61 216.094C85.5902 213.754 82.6266 213.935 80.7218 216.595L69.0855 233.187C68.9464 233.385 68.9458 233.652 69.0976 233.841C69.1337 233.885 69.1616 233.934 69.1874 233.986C69.2076 234.026 69.2306 234.065 69.257 234.103L74.3817 241.412C74.6234 241.756 74.6234 242.215 74.3817 242.56L69.257 249.867C69.015 250.212 69.0094 250.678 69.2887 250.994C71.3124 253.282 74.2993 253.098 76.1681 250.442L77.6256 248.37C78.0242 247.803 78.8642 247.804 79.2621 248.371L80.3003 249.85C80.5422 250.195 80.5422 250.654 80.3004 250.999L69.257 266.745Z" fill="#FAFAFA"/>
<path d="M96.257 217.176C96.015 216.831 96.0095 216.365 96.2887 216.049C98.3124 213.761 101.299 213.945 103.168 216.601L114.828 233.176C114.953 233.354 114.954 233.593 114.82 233.765C114.782 233.812 114.755 233.865 114.731 233.921C114.705 233.98 114.673 234.038 114.635 234.092L109.521 241.36C109.278 241.705 109.278 242.165 109.521 242.51L114.635 249.779C114.876 250.121 114.884 250.584 114.61 250.901C112.59 253.241 109.627 253.06 107.722 250.4L106.263 248.32C105.865 247.752 105.025 247.752 104.626 248.319L103.168 250.392C103.165 250.396 103.165 250.4 103.168 250.404L114.635 266.705C114.876 267.047 114.884 267.51 114.61 267.827C112.59 270.167 109.627 269.986 107.722 267.326L96.0855 250.734C95.9464 250.536 95.9458 250.269 96.0976 250.08C96.1337 250.035 96.1616 249.987 96.1874 249.935C96.2076 249.895 96.2306 249.855 96.257 249.818L101.382 242.509C101.623 242.165 101.623 241.706 101.382 241.361L96.257 234.054C96.015 233.709 96.0094 233.243 96.2887 232.927C98.3124 230.638 101.299 230.823 103.168 233.479L104.626 235.551C105.024 236.118 105.864 236.117 106.262 235.55L107.3 234.071C107.542 233.726 107.542 233.267 107.3 232.922L96.257 217.176Z" fill="#FAFAFA"/>
<path d="M141.647 266.745C141.889 267.09 141.895 267.556 141.616 267.872C139.592 270.16 136.605 269.976 134.736 267.32L123.077 250.745C122.951 250.567 122.95 250.328 123.085 250.156C123.122 250.108 123.149 250.056 123.173 250C123.199 249.941 123.231 249.883 123.269 249.829L128.383 242.561C128.626 242.216 128.626 241.756 128.383 241.41L123.269 234.142C123.028 233.799 123.02 233.337 123.294 233.019C125.314 230.68 128.278 230.861 130.182 233.521L131.641 235.601C132.039 236.169 132.879 236.169 133.278 235.602L134.736 233.529C134.739 233.525 134.739 233.521 134.736 233.517L123.269 217.216C123.028 216.874 123.02 216.411 123.294 216.094C125.314 213.754 128.278 213.935 130.182 216.595L141.819 233.187C141.958 233.385 141.958 233.652 141.807 233.841C141.771 233.885 141.743 233.934 141.717 233.986C141.697 234.026 141.674 234.065 141.647 234.103L136.523 241.412C136.281 241.756 136.281 242.215 136.523 242.56L141.647 249.867C141.889 250.212 141.895 250.678 141.616 250.994C139.592 253.282 136.605 253.098 134.736 250.442L133.279 248.37C132.88 247.803 132.04 247.804 131.642 248.371L130.604 249.85C130.362 250.195 130.362 250.654 130.604 250.999L141.647 266.745Z" fill="#FAFAFA"/>
<path d="M150.257 266.745C150.015 267.09 150.009 267.556 150.289 267.872C152.312 270.16 155.299 269.976 157.168 267.32L168.828 250.745C168.953 250.567 168.954 250.328 168.82 250.156C168.782 250.108 168.755 250.056 168.731 250C168.705 249.941 168.673 249.883 168.635 249.829L163.521 242.561C163.278 242.216 163.278 241.756 163.521 241.41L168.635 234.142C168.876 233.799 168.884 233.337 168.61 233.019C166.59 230.68 163.627 230.861 161.722 233.521L160.263 235.601C159.865 236.169 159.025 236.169 158.626 235.602L157.168 233.529C157.165 233.525 157.165 233.521 157.168 233.517L168.635 217.216C168.876 216.874 168.884 216.411 168.61 216.094C166.59 213.754 163.627 213.935 161.722 216.595L150.085 233.187C149.946 233.385 149.946 233.652 150.098 233.841C150.134 233.885 150.162 233.934 150.187 233.986C150.208 234.026 150.231 234.065 150.257 234.103L155.382 241.412C155.623 241.756 155.623 242.215 155.382 242.56L150.257 249.867C150.015 250.212 150.009 250.678 150.289 250.994C152.312 253.282 155.299 253.098 157.168 250.442L158.626 248.37C159.024 247.803 159.864 247.804 160.262 248.371L161.3 249.85C161.542 250.195 161.542 250.654 161.3 250.999L150.257 266.745Z" fill="#FAFAFA"/>
<path d="M195.647 217.176C195.889 216.831 195.895 216.365 195.616 216.049C193.592 213.761 190.605 213.945 188.736 216.601L177.077 233.176C176.951 233.354 176.95 233.593 177.085 233.765C177.122 233.812 177.149 233.865 177.173 233.921C177.199 233.98 177.231 234.038 177.269 234.092L182.383 241.36C182.626 241.705 182.626 242.165 182.383 242.51L177.269 249.779C177.028 250.121 177.02 250.584 177.294 250.901C179.314 253.241 182.278 253.06 184.182 250.4L185.641 248.32C186.039 247.752 186.879 247.752 187.278 248.319L188.736 250.392C188.739 250.396 188.739 250.4 188.736 250.404L177.269 266.705C177.028 267.047 177.02 267.51 177.294 267.827C179.314 270.167 182.278 269.986 184.182 267.326L195.819 250.734C195.958 250.536 195.958 250.269 195.807 250.08C195.771 250.035 195.743 249.987 195.717 249.935C195.697 249.895 195.674 249.855 195.647 249.818L190.523 242.509C190.281 242.165 190.281 241.706 190.523 241.361L195.647 234.054C195.889 233.709 195.895 233.243 195.616 232.927C193.592 230.638 190.605 230.823 188.736 233.479L187.279 235.551C186.88 236.118 186.04 236.117 185.642 235.55L184.604 234.071C184.362 233.726 184.362 233.267 184.604 232.922L195.647 217.176Z" fill="#FAFAFA"/>
<path d="M222.647 266.745C222.889 267.09 222.895 267.556 222.616 267.872C220.592 270.16 217.605 269.976 215.736 267.32L204.077 250.745C203.951 250.567 203.95 250.328 204.085 250.156C204.122 250.108 204.149 250.056 204.173 250C204.199 249.941 204.231 249.883 204.269 249.829L209.383 242.561C209.626 242.216 209.626 241.756 209.383 241.41L204.269 234.142C204.028 233.799 204.02 233.337 204.294 233.019C206.314 230.68 209.278 230.861 211.182 233.521L212.641 235.601C213.039 236.169 213.879 236.169 214.278 235.602L215.736 233.529C215.739 233.525 215.739 233.521 215.736 233.517L204.269 217.216C204.028 216.874 204.02 216.411 204.294 216.094C206.314 213.754 209.278 213.935 211.182 216.595L222.819 233.187C222.958 233.385 222.958 233.652 222.807 233.841C222.771 233.885 222.743 233.934 222.717 233.986C222.697 234.026 222.674 234.065 222.647 234.103L217.523 241.412C217.281 241.756 217.281 242.215 217.523 242.56L222.647 249.867C222.889 250.212 222.895 250.678 222.616 250.994C220.592 253.282 217.605 253.098 215.736 250.442L214.279 248.37C213.88 247.803 213.04 247.804 212.642 248.371L211.604 249.85C211.362 250.195 211.362 250.654 211.604 250.999L222.647 266.745Z" fill="#FAFAFA"/>
<path d="M231.257 217.176C231.015 216.831 231.009 216.365 231.289 216.049C233.312 213.761 236.299 213.945 238.168 216.601L249.828 233.176C249.953 233.354 249.954 233.593 249.82 233.765C249.782 233.812 249.755 233.865 249.731 233.921C249.705 233.98 249.673 234.038 249.635 234.092L244.521 241.36C244.278 241.705 244.278 242.165 244.521 242.51L249.635 249.779C249.876 250.121 249.884 250.584 249.61 250.901C247.59 253.241 244.627 253.06 242.722 250.4L241.263 248.32C240.865 247.752 240.025 247.752 239.626 248.319L238.168 250.392C238.165 250.396 238.165 250.4 238.168 250.404L249.635 266.705C249.876 267.047 249.884 267.51 249.61 267.827C247.59 270.167 244.627 269.986 242.722 267.326L231.085 250.734C230.946 250.536 230.946 250.269 231.098 250.08C231.134 250.035 231.162 249.987 231.187 249.935C231.208 249.895 231.231 249.855 231.257 249.818L236.382 242.509C236.623 242.165 236.623 241.706 236.382 241.361L231.257 234.054C231.015 233.709 231.009 233.243 231.289 232.927C233.312 230.638 236.299 230.823 238.168 233.479L239.626 235.551C240.024 236.118 240.864 236.117 241.262 235.55L242.3 234.071C242.542 233.726 242.542 233.267 242.3 232.922L231.257 217.176Z" fill="#FAFAFA"/>
<path d="M276.647 217.176C276.889 216.831 276.895 216.365 276.616 216.049C274.592 213.761 271.605 213.945 269.736 216.601L258.077 233.176C257.951 233.354 257.95 233.593 258.085 233.765C258.122 233.812 258.149 233.865 258.173 233.921C258.199 233.98 258.231 234.038 258.269 234.092L263.383 241.36C263.626 241.705 263.626 242.165 263.383 242.51L258.269 249.779C258.028 250.121 258.02 250.584 258.294 250.901C260.314 253.241 263.278 253.06 265.182 250.4L266.641 248.32C267.039 247.752 267.879 247.752 268.278 248.319L269.736 250.392C269.739 250.396 269.739 250.4 269.736 250.404L258.269 266.705C258.028 267.047 258.02 267.51 258.294 267.827C260.314 270.167 263.278 269.986 265.182 267.326L276.819 250.734C276.958 250.536 276.958 250.269 276.807 250.08C276.771 250.035 276.743 249.987 276.717 249.935C276.697 249.895 276.674 249.855 276.647 249.818L271.523 242.509C271.281 242.165 271.281 241.706 271.523 241.361L276.647 234.054C276.889 233.709 276.895 233.243 276.616 232.927C274.592 230.638 271.605 230.823 269.736 233.479L268.279 235.551C267.88 236.118 267.04 236.117 266.642 235.55L265.604 234.071C265.362 233.726 265.362 233.267 265.604 232.922L276.647 217.176Z" fill="#FAFAFA"/>
</g>
<defs>
<filter id="filter0_d_4017_28440" x="-0.000228882" y="0.000134945" width="345.905" height="345.905" filterUnits="userSpaceOnUse" color-interpolation-filters="sRGB">
<feFlood flood-opacity="0" result="BackgroundImageFix"/>
<feColorMatrix in="SourceAlpha" type="matrix" values="0 0 0 0 0 0 0 0 0 0 0 0 0 0 0 0 0 0 127 0" result="hardAlpha"/>
<feOffset dy="7.49206"/>
<feGaussianBlur stdDeviation="22.4762"/>
<feColorMatrix type="matrix" values="0 0 0 0 0.12549 0 0 0 0 0.164706 0 0 0 0 0.258824 0 0 0 0.06 0"/>
<feBlend mode="normal" in2="BackgroundImageFix" result="effect1_dropShadow_4017_28440"/>
<feBlend mode="normal" in="SourceGraphic" in2="effect1_dropShadow_4017_28440" result="shape"/>
</filter>
</defs>
</svg>
