<svg width="346" height="346" viewBox="0 0 346 346" fill="none" xmlns="http://www.w3.org/2000/svg">
<g filter="url(#filter0_d_4017_28271)">
<rect x="44.9521" y="37.4604" width="256" height="256" rx="4" fill="#121215"/>
<path d="M110.74 104L84.4144 83.5342C79.974 80.0716 79.974 74.3832 84.4144 70.9206L110.661 91.3867C115.18 94.9111 115.18 100.538 110.74 104ZM98.608 100.847L72.2825 80.3808C67.842 83.8433 67.842 89.5318 72.2825 92.9943L98.5287 113.46C103.048 109.998 103.048 104.371 98.608 100.847ZM96.5463 74.074L122.872 94.5401C127.312 91.0776 127.312 85.3891 122.872 81.9266L96.5463 61.4604C92.1059 64.923 92.1059 70.6115 96.5463 74.074Z" fill="#FAFAFA"/>
<path d="M160.99 70.9206L134.664 91.3867C130.224 94.8493 130.224 100.538 134.664 104L160.911 83.5342C165.43 80.0098 165.43 74.3832 160.99 70.9206ZM148.858 74.074L122.532 94.5401C118.092 91.0776 118.092 85.3891 122.532 81.9266L148.779 61.4604C153.298 64.923 153.298 70.5496 148.858 74.074ZM146.796 100.847L173.122 80.3808C177.562 83.8433 177.562 89.5318 173.122 92.9943L146.796 113.46C142.356 109.998 142.356 104.309 146.796 100.847Z" fill="#FAFAFA"/>
<path d="M211.24 104L184.914 83.5342C180.474 80.0716 180.474 74.3832 184.914 70.9206L211.161 91.3867C215.68 94.9111 215.68 100.538 211.24 104ZM199.108 100.847L172.782 80.3808C168.342 83.8433 168.342 89.5318 172.782 92.9943L199.029 113.46C203.548 109.998 203.548 104.371 199.108 100.847ZM197.046 74.074L223.372 94.5401C227.812 91.0776 227.812 85.3891 223.372 81.9266L197.046 61.4604C192.606 64.923 192.606 70.6115 197.046 74.074Z" fill="#FAFAFA"/>
<path d="M261.49 70.9206L235.164 91.3867C230.724 94.8493 230.724 100.538 235.164 104L261.411 83.5342C265.93 80.0098 265.93 74.3832 261.49 70.9206ZM249.358 74.074L223.032 94.5401C218.592 91.0776 218.592 85.3891 223.032 81.9266L249.279 61.4604C253.798 64.923 253.798 70.5496 249.358 74.074ZM247.296 100.847L273.622 80.3808C278.062 83.8433 278.062 89.5318 273.622 92.9943L247.296 113.46C242.856 109.998 242.856 104.309 247.296 100.847Z" fill="#FAFAFA"/>
<path d="M110.74 122.921L84.4144 143.387C79.974 146.849 79.974 152.538 84.4144 156L110.661 135.534C115.18 132.01 115.18 126.383 110.74 122.921ZM98.608 126.074L72.2825 146.54C67.842 143.078 67.842 137.389 72.2825 133.927L98.5287 113.46C103.048 116.923 103.048 122.55 98.608 126.074ZM96.5463 152.847L122.872 132.381C127.312 135.843 127.312 141.532 122.872 144.994L96.5463 165.46C92.1059 161.998 92.1059 156.309 96.5463 152.847Z" fill="#FAFAFA"/>
<path d="M160.99 156L134.664 135.534C130.224 132.072 130.224 126.383 134.664 122.921L160.911 143.387C165.43 146.911 165.43 152.538 160.99 156ZM148.858 152.847L122.532 132.381C118.092 135.843 118.092 141.532 122.532 144.994L148.779 165.46C153.298 161.998 153.298 156.371 148.858 152.847ZM146.796 126.074L173.122 146.54C177.562 143.078 177.562 137.389 173.122 133.927L146.796 113.46C142.356 116.923 142.356 122.611 146.796 126.074Z" fill="#FAFAFA"/>
<path d="M211.24 122.921L184.914 143.387C180.474 146.849 180.474 152.538 184.914 156L211.161 135.534C215.68 132.01 215.68 126.383 211.24 122.921ZM199.108 126.074L172.782 146.54C168.342 143.078 168.342 137.389 172.782 133.927L199.029 113.46C203.548 116.923 203.548 122.55 199.108 126.074ZM197.046 152.847L223.372 132.381C227.812 135.843 227.812 141.532 223.372 144.994L197.046 165.46C192.606 161.998 192.606 156.309 197.046 152.847Z" fill="#FAFAFA"/>
<path d="M261.49 156L235.164 135.534C230.724 132.072 230.724 126.383 235.164 122.921L261.411 143.387C265.93 146.911 265.93 152.538 261.49 156ZM249.358 152.847L223.032 132.381C218.592 135.843 218.592 141.532 223.032 144.994L249.279 165.46C253.798 161.998 253.798 156.371 249.358 152.847ZM247.296 126.074L273.622 146.54C278.062 143.078 278.062 137.389 273.622 133.927L247.296 113.46C242.856 116.923 242.856 122.611 247.296 126.074Z" fill="#FAFAFA"/>
<path d="M110.74 208L84.4144 187.534C79.974 184.072 79.974 178.383 84.4144 174.921L110.661 195.387C115.18 198.911 115.18 204.538 110.74 208ZM98.608 204.847L72.2825 184.381C67.842 187.843 67.842 193.532 72.2825 196.994L98.5287 217.46C103.048 213.998 103.048 208.371 98.608 204.847ZM96.5463 178.074L122.872 198.54C127.312 195.078 127.312 189.389 122.872 185.927L96.5463 165.46C92.1059 168.923 92.1059 174.611 96.5463 178.074Z" fill="#FAFAFA"/>
<path d="M160.99 174.921L134.664 195.387C130.224 198.849 130.224 204.538 134.664 208L160.911 187.534C165.43 184.01 165.43 178.383 160.99 174.921ZM148.858 178.074L122.532 198.54C118.092 195.078 118.092 189.389 122.532 185.927L148.779 165.46C153.298 168.923 153.298 174.55 148.858 178.074ZM146.796 204.847L173.122 184.381C177.562 187.843 177.562 193.532 173.122 196.994L146.796 217.46C142.356 213.998 142.356 208.309 146.796 204.847Z" fill="#FAFAFA"/>
<path d="M211.24 208L184.914 187.534C180.474 184.072 180.474 178.383 184.914 174.921L211.161 195.387C215.68 198.911 215.68 204.538 211.24 208ZM199.108 204.847L172.782 184.381C168.342 187.843 168.342 193.532 172.782 196.994L199.029 217.46C203.548 213.998 203.548 208.371 199.108 204.847ZM197.046 178.074L223.372 198.54C227.812 195.078 227.812 189.389 223.372 185.927L197.046 165.46C192.606 168.923 192.606 174.611 197.046 178.074Z" fill="#FAFAFA"/>
<path d="M261.49 174.921L235.164 195.387C230.724 198.849 230.724 204.538 235.164 208L261.411 187.534C265.93 184.01 265.93 178.383 261.49 174.921ZM249.358 178.074L223.032 198.54C218.592 195.078 218.592 189.389 223.032 185.927L249.279 165.46C253.798 168.923 253.798 174.55 249.358 178.074ZM247.296 204.847L273.622 184.381C278.062 187.843 278.062 193.532 273.622 196.994L247.296 217.46C242.856 213.998 242.856 208.309 247.296 204.847Z" fill="#FAFAFA"/>
<path d="M110.74 226.921L84.4144 247.387C79.974 250.849 79.974 256.538 84.4144 260L110.661 239.534C115.18 236.01 115.18 230.383 110.74 226.921ZM98.608 230.074L72.2825 250.54C67.842 247.078 67.842 241.389 72.2825 237.927L98.5287 217.46C103.048 220.923 103.048 226.55 98.608 230.074ZM96.5463 256.847L122.872 236.381C127.312 239.843 127.312 245.532 122.872 248.994L96.5463 269.46C92.1059 265.998 92.1059 260.309 96.5463 256.847Z" fill="#FAFAFA"/>
<path d="M160.99 260L134.664 239.534C130.224 236.072 130.224 230.383 134.664 226.921L160.911 247.387C165.43 250.911 165.43 256.538 160.99 260ZM148.858 256.847L122.532 236.381C118.092 239.843 118.092 245.532 122.532 248.994L148.779 269.46C153.298 265.998 153.298 260.371 148.858 256.847ZM146.796 230.074L173.122 250.54C177.562 247.078 177.562 241.389 173.122 237.927L146.796 217.46C142.356 220.923 142.356 226.611 146.796 230.074Z" fill="#FAFAFA"/>
<path d="M211.24 226.921L184.914 247.387C180.474 250.849 180.474 256.538 184.914 260L211.161 239.534C215.68 236.01 215.68 230.383 211.24 226.921ZM199.108 230.074L172.782 250.54C168.342 247.078 168.342 241.389 172.782 237.927L199.029 217.46C203.548 220.923 203.548 226.55 199.108 230.074ZM197.046 256.847L223.372 236.381C227.812 239.843 227.812 245.532 223.372 248.994L197.046 269.46C192.606 265.998 192.606 260.309 197.046 256.847Z" fill="#FAFAFA"/>
<path d="M261.49 260L235.164 239.534C230.724 236.072 230.724 230.383 235.164 226.921L261.411 247.387C265.93 250.911 265.93 256.538 261.49 260ZM249.358 256.847L223.032 236.381C218.592 239.843 218.592 245.532 223.032 248.994L249.279 269.46C253.798 265.998 253.798 260.371 249.358 256.847ZM247.296 230.074L273.622 250.54C278.062 247.078 278.062 241.389 273.622 237.927L247.296 217.46C242.856 220.923 242.856 226.611 247.296 230.074Z" fill="#FAFAFA"/>
</g>
<defs>
<filter id="filter0_d_4017_28271" x="-0.000228882" y="0.000134945" width="345.905" height="345.905" filterUnits="userSpaceOnUse" color-interpolation-filters="sRGB">
<feFlood flood-opacity="0" result="BackgroundImageFix"/>
<feColorMatrix in="SourceAlpha" type="matrix" values="0 0 0 0 0 0 0 0 0 0 0 0 0 0 0 0 0 0 127 0" result="hardAlpha"/>
<feOffset dy="7.49206"/>
<feGaussianBlur stdDeviation="22.4762"/>
<feColorMatrix type="matrix" values="0 0 0 0 0.12549 0 0 0 0 0.164706 0 0 0 0 0.258824 0 0 0 0.06 0"/>
<feBlend mode="normal" in2="BackgroundImageFix" result="effect1_dropShadow_4017_28271"/>
<feBlend mode="normal" in="SourceGraphic" in2="effect1_dropShadow_4017_28271" result="shape"/>
</filter>
</defs>
</svg>
