<svg width="298" height="298" viewBox="0 0 298 298" fill="none" xmlns="http://www.w3.org/2000/svg">
<g filter="url(#filter0_d_4017_21523)">
<rect x="20.5498" y="17.1245" width="256" height="256" rx="4" fill="#121215"/>
<path d="M76.6987 69.9025L48.1601 41.1245C43.3464 45.9933 43.3464 53.992 48.1601 58.8608L76.6128 87.6388C81.5125 82.77 81.5125 74.8582 76.6987 69.9025Z" fill="#FAFAFA"/>
<path d="M119.761 69.9025L91.2226 41.1245C86.4089 45.9933 86.4089 53.992 91.2226 58.8608L119.675 87.6388C124.575 82.77 124.575 74.8582 119.761 69.9025Z" fill="#FAFAFA"/>
<path d="M162.825 69.9025L134.286 41.1245C129.472 45.9933 129.472 53.992 134.286 58.8608L162.739 87.6388C167.638 82.77 167.638 74.8582 162.825 69.9025Z" fill="#FAFAFA"/>
<path d="M205.887 69.9025L177.349 41.1245C172.535 45.9933 172.535 53.992 177.349 58.8608L205.801 87.6388C210.701 82.77 210.701 74.8582 205.887 69.9025Z" fill="#FAFAFA"/>
<path d="M248.95 69.9025L220.411 41.1245C215.597 45.9933 215.597 53.992 220.411 58.8608L248.864 87.6388C253.763 82.77 253.763 74.8582 248.95 69.9025Z" fill="#FAFAFA"/>
<path d="M76.6987 123.731L48.1601 94.9531C43.3464 99.8219 43.3464 107.821 48.1601 112.689L76.6128 141.467C81.5125 136.599 81.5125 128.687 76.6987 123.731Z" fill="#FAFAFA"/>
<path d="M119.761 123.731L91.2226 94.9531C86.4089 99.8219 86.4089 107.821 91.2226 112.689L119.675 141.467C124.575 136.599 124.575 128.687 119.761 123.731Z" fill="#FAFAFA"/>
<path d="M162.825 123.731L134.286 94.9531C129.472 99.8219 129.472 107.821 134.286 112.689L162.739 141.467C167.638 136.599 167.638 128.687 162.825 123.731Z" fill="#FAFAFA"/>
<path d="M205.887 123.731L177.349 94.9531C172.535 99.8219 172.535 107.821 177.349 112.689L205.801 141.467C210.701 136.599 210.701 128.687 205.887 123.731Z" fill="#FAFAFA"/>
<path d="M248.95 123.731L220.411 94.9531C215.597 99.8219 215.597 107.821 220.411 112.689L248.864 141.467C253.763 136.599 253.763 128.687 248.95 123.731Z" fill="#FAFAFA"/>
<path d="M76.6987 177.56L48.1601 148.782C43.3464 153.651 43.3464 161.649 48.1601 166.518L76.6128 195.296C81.5125 190.427 81.5125 182.515 76.6987 177.56Z" fill="#FAFAFA"/>
<path d="M119.761 177.56L91.2226 148.782C86.4089 153.651 86.4089 161.649 91.2226 166.518L119.675 195.296C124.575 190.427 124.575 182.515 119.761 177.56Z" fill="#FAFAFA"/>
<path d="M162.825 177.56L134.286 148.782C129.472 153.651 129.472 161.649 134.286 166.518L162.739 195.296C167.638 190.427 167.638 182.515 162.825 177.56Z" fill="#FAFAFA"/>
<path d="M205.887 177.56L177.349 148.782C172.535 153.651 172.535 161.649 177.349 166.518L205.801 195.296C210.701 190.427 210.701 182.515 205.887 177.56Z" fill="#FAFAFA"/>
<path d="M248.95 177.56L220.411 148.782C215.597 153.651 215.597 161.649 220.411 166.518L248.864 195.296C253.763 190.427 253.763 182.515 248.95 177.56Z" fill="#FAFAFA"/>
<path d="M76.6987 231.388L48.1601 202.61C43.3464 207.479 43.3464 215.478 48.1601 220.347L76.6128 249.125C81.5125 244.256 81.5125 236.344 76.6987 231.388Z" fill="#FAFAFA"/>
<path d="M119.761 231.388L91.2226 202.61C86.4089 207.479 86.4089 215.478 91.2226 220.347L119.675 249.125C124.575 244.256 124.575 236.344 119.761 231.388Z" fill="#FAFAFA"/>
<path d="M162.825 231.388L134.286 202.61C129.472 207.479 129.472 215.478 134.286 220.347L162.739 249.125C167.638 244.256 167.638 236.344 162.825 231.388Z" fill="#FAFAFA"/>
<path d="M205.887 231.388L177.349 202.61C172.535 207.479 172.535 215.478 177.349 220.347L205.801 249.125C210.701 244.256 210.701 236.344 205.887 231.388Z" fill="#FAFAFA"/>
<path d="M248.95 231.388L220.411 202.61C215.597 207.479 215.597 215.478 220.411 220.347L248.864 249.125C253.763 244.256 253.763 236.344 248.95 231.388Z" fill="#FAFAFA"/>
</g>
<defs>
<filter id="filter0_d_4017_21523" x="0.000146866" y="-0.000202894" width="297.099" height="297.099" filterUnits="userSpaceOnUse" color-interpolation-filters="sRGB">
<feFlood flood-opacity="0" result="BackgroundImageFix"/>
<feColorMatrix in="SourceAlpha" type="matrix" values="0 0 0 0 0 0 0 0 0 0 0 0 0 0 0 0 0 0 127 0" result="hardAlpha"/>
<feOffset dy="3.42494"/>
<feGaussianBlur stdDeviation="10.2748"/>
<feColorMatrix type="matrix" values="0 0 0 0 0.12549 0 0 0 0 0.164706 0 0 0 0 0.258824 0 0 0 0.06 0"/>
<feBlend mode="normal" in2="BackgroundImageFix" result="effect1_dropShadow_4017_21523"/>
<feBlend mode="normal" in="SourceGraphic" in2="effect1_dropShadow_4017_21523" result="shape"/>
</filter>
</defs>
</svg>
