<svg width="256" height="256" viewBox="0 0 256 256" fill="none" xmlns="http://www.w3.org/2000/svg">
<rect width="256" height="256" rx="4" transform="matrix(1 0 0 -1 0 256)" fill="#121215"/>
<path d="M49.6945 217.894L26.8855 232C23.0382 229.613 23.0382 225.693 26.8855 223.306L49.6258 209.2C53.5418 211.587 53.5418 215.465 49.6945 217.894Z" fill="#FAFAFA"/>
<path opacity="0.1" d="M26.8768 191.437L49.6858 205.543C53.5331 203.156 53.5331 199.236 49.6858 196.849L26.9455 182.743C23.0295 185.13 23.0295 189.008 26.8768 191.437Z" fill="#FAFAFA"/>
<path d="M49.6945 164.98L26.8855 179.086C23.0382 176.699 23.0382 172.779 26.8855 170.392L49.6258 156.286C53.5418 158.672 53.5418 162.551 49.6945 164.98Z" fill="#FAFAFA"/>
<path opacity="0.1" d="M26.8768 138.522L49.6858 152.628C53.5331 150.242 53.5331 146.321 49.6858 143.935L26.9455 129.828C23.0295 132.215 23.0295 136.093 26.8768 138.522Z" fill="#FAFAFA"/>
<path d="M49.6945 112.065L26.8855 126.171C23.0382 123.785 23.0382 119.864 26.8855 117.478L49.6258 103.371C53.5418 105.758 53.5418 109.636 49.6945 112.065Z" fill="#FAFAFA"/>
<path opacity="0.1" d="M26.8768 85.6082L49.6858 99.7144C53.5331 97.3278 53.5331 93.4071 49.6858 91.0205L26.9455 76.9144C23.0295 79.3009 23.0295 83.179 26.8768 85.6082Z" fill="#FAFAFA"/>
<path d="M49.6945 59.1512L26.8855 73.2573C23.0382 70.8708 23.0382 66.95 26.8855 64.5635L49.6258 50.4573C53.5418 52.8439 53.5418 56.722 49.6945 59.1512Z" fill="#FAFAFA"/>
<path opacity="0.1" d="M26.8768 32.6936L49.6858 46.7998C53.5331 44.4133 53.5331 40.4925 49.6858 38.106L26.9455 23.9998C23.0295 26.3863 23.0295 30.2645 26.8768 32.6936Z" fill="#FAFAFA"/>
<path opacity="0.1" d="M62.7625 217.894L85.5716 232C89.4189 229.613 89.4189 225.693 85.5716 223.306L62.8312 209.2C58.9152 211.587 58.9152 215.465 62.7625 217.894Z" fill="#FAFAFA"/>
<path d="M85.5802 191.437L62.7712 205.543C58.9239 203.156 58.9239 199.236 62.7712 196.849L85.5115 182.743C89.4275 185.13 89.4275 189.008 85.5802 191.437Z" fill="#FAFAFA"/>
<path opacity="0.1" d="M62.7625 164.98L85.5716 179.086C89.4189 176.699 89.4189 172.779 85.5716 170.392L62.8312 156.286C58.9152 158.672 58.9152 162.551 62.7625 164.98Z" fill="#FAFAFA"/>
<path d="M85.5802 138.522L62.7712 152.628C58.9239 150.242 58.9239 146.321 62.7712 143.935L85.5115 129.828C89.4275 132.215 89.4275 136.093 85.5802 138.522Z" fill="#FAFAFA"/>
<path opacity="0.1" d="M62.7625 112.065L85.5716 126.171C89.4189 123.785 89.4189 119.864 85.5716 117.478L62.8312 103.371C58.9152 105.758 58.9152 109.636 62.7625 112.065Z" fill="#FAFAFA"/>
<path d="M85.5802 85.6082L62.7712 99.7144C58.9239 97.3278 58.9239 93.4071 62.7712 91.0205L85.5115 76.9144C89.4275 79.3009 89.4275 83.179 85.5802 85.6082Z" fill="#FAFAFA"/>
<path opacity="0.1" d="M62.7625 59.1512L85.5716 73.2573C89.4189 70.8708 89.4189 66.95 85.5716 64.5635L62.8312 50.4573C58.9152 52.8439 58.9152 56.722 62.7625 59.1512Z" fill="#FAFAFA"/>
<path d="M85.5802 32.6936L62.7712 46.7998C58.9239 44.4133 58.9239 40.4925 62.7712 38.106L85.5115 23.9998C89.4275 26.3863 89.4275 30.2645 85.5802 32.6936Z" fill="#FAFAFA"/>
<path d="M121.466 217.894L98.657 232C94.8097 229.613 94.8097 225.693 98.657 223.306L121.397 209.2C125.313 211.587 125.313 215.465 121.466 217.894Z" fill="#FAFAFA"/>
<path opacity="0.1" d="M98.6483 191.437L121.457 205.543C125.305 203.156 125.305 199.236 121.457 196.849L98.717 182.743C94.801 185.13 94.801 189.008 98.6483 191.437Z" fill="#FAFAFA"/>
<path d="M121.466 164.98L98.657 179.086C94.8097 176.699 94.8097 172.779 98.657 170.392L121.397 156.286C125.313 158.672 125.313 162.551 121.466 164.98Z" fill="#FAFAFA"/>
<path opacity="0.1" d="M98.6483 138.522L121.457 152.628C125.305 150.242 125.305 146.321 121.457 143.935L98.717 129.828C94.801 132.215 94.801 136.093 98.6483 138.522Z" fill="#FAFAFA"/>
<path d="M121.466 112.065L98.657 126.171C94.8097 123.785 94.8097 119.864 98.657 117.478L121.397 103.371C125.313 105.758 125.313 109.636 121.466 112.065Z" fill="#FAFAFA"/>
<path opacity="0.1" d="M98.6483 85.6082L121.457 99.7144C125.305 97.3278 125.305 93.4071 121.457 91.0205L98.717 76.9144C94.801 79.3009 94.801 83.179 98.6483 85.6082Z" fill="#FAFAFA"/>
<path d="M121.466 59.1512L98.657 73.2573C94.8097 70.8708 94.8097 66.95 98.657 64.5635L121.397 50.4573C125.313 52.8439 125.313 56.722 121.466 59.1512Z" fill="#FAFAFA"/>
<path opacity="0.1" d="M98.6483 32.6936L121.457 46.7998C125.305 44.4133 125.305 40.4925 121.457 38.106L98.717 23.9998C94.801 26.3863 94.801 30.2645 98.6483 32.6936Z" fill="#FAFAFA"/>
<path opacity="0.1" d="M134.534 217.894L157.343 232C161.19 229.613 161.19 225.693 157.343 223.306L134.603 209.2C130.687 211.587 130.687 215.465 134.534 217.894Z" fill="#FAFAFA"/>
<path d="M157.352 191.437L134.543 205.543C130.695 203.156 130.695 199.236 134.543 196.849L157.283 182.743C161.199 185.13 161.199 189.008 157.352 191.437Z" fill="#FAFAFA"/>
<path opacity="0.1" d="M134.534 164.98L157.343 179.086C161.19 176.699 161.19 172.779 157.343 170.392L134.603 156.286C130.687 158.672 130.687 162.551 134.534 164.98Z" fill="#FAFAFA"/>
<path d="M157.352 138.522L134.543 152.628C130.695 150.242 130.695 146.321 134.543 143.935L157.283 129.828C161.199 132.215 161.199 136.093 157.352 138.522Z" fill="#FAFAFA"/>
<path opacity="0.1" d="M134.534 112.065L157.343 126.171C161.19 123.785 161.19 119.864 157.343 117.478L134.603 103.371C130.687 105.758 130.687 109.636 134.534 112.065Z" fill="#FAFAFA"/>
<path d="M157.352 85.6082L134.543 99.7144C130.695 97.3278 130.695 93.4071 134.543 91.0205L157.283 76.9144C161.199 79.3009 161.199 83.179 157.352 85.6082Z" fill="#FAFAFA"/>
<path opacity="0.1" d="M134.534 59.1512L157.343 73.2573C161.19 70.8708 161.19 66.95 157.343 64.5635L134.603 50.4573C130.687 52.8439 130.687 56.722 134.534 59.1512Z" fill="#FAFAFA"/>
<path d="M157.352 32.6936L134.543 46.7998C130.695 44.4133 130.695 40.4925 134.543 38.106L157.283 23.9998C161.199 26.3863 161.199 30.2645 157.352 32.6936Z" fill="#FAFAFA"/>
<path d="M193.237 217.894L170.428 232C166.581 229.613 166.581 225.693 170.428 223.306L193.169 209.2C197.085 211.587 197.085 215.465 193.237 217.894Z" fill="#FAFAFA"/>
<path opacity="0.1" d="M170.42 191.437L193.229 205.543C197.076 203.156 197.076 199.236 193.229 196.849L170.488 182.743C166.572 185.13 166.572 189.008 170.42 191.437Z" fill="#FAFAFA"/>
<path d="M193.237 164.98L170.428 179.086C166.581 176.699 166.581 172.779 170.428 170.392L193.169 156.286C197.085 158.672 197.085 162.551 193.237 164.98Z" fill="#FAFAFA"/>
<path opacity="0.1" d="M170.42 138.522L193.229 152.628C197.076 150.242 197.076 146.321 193.229 143.935L170.488 129.828C166.572 132.215 166.572 136.093 170.42 138.522Z" fill="#FAFAFA"/>
<path d="M193.237 112.065L170.428 126.171C166.581 123.785 166.581 119.864 170.428 117.478L193.169 103.371C197.085 105.758 197.085 109.636 193.237 112.065Z" fill="#FAFAFA"/>
<path opacity="0.1" d="M170.42 85.6082L193.229 99.7144C197.076 97.3278 197.076 93.4071 193.229 91.0205L170.488 76.9144C166.572 79.3009 166.572 83.179 170.42 85.6082Z" fill="#FAFAFA"/>
<path d="M193.237 59.1512L170.428 73.2573C166.581 70.8708 166.581 66.95 170.428 64.5635L193.169 50.4573C197.085 52.8439 197.085 56.722 193.237 59.1512Z" fill="#FAFAFA"/>
<path opacity="0.1" d="M170.42 32.6936L193.229 46.7998C197.076 44.4133 197.076 40.4925 193.229 38.106L170.488 23.9998C166.572 26.3863 166.572 30.2645 170.42 32.6936Z" fill="#FAFAFA"/>
<path opacity="0.1" d="M206.306 217.894L229.115 232C232.962 229.613 232.962 225.693 229.115 223.306L206.374 209.2C202.458 211.587 202.458 215.465 206.306 217.894Z" fill="#FAFAFA"/>
<path d="M229.123 191.437L206.314 205.543C202.467 203.156 202.467 199.236 206.314 196.849L229.054 182.743C232.97 185.13 232.971 189.008 229.123 191.437Z" fill="#FAFAFA"/>
<path opacity="0.1" d="M206.306 164.98L229.115 179.086C232.962 176.699 232.962 172.779 229.115 170.392L206.374 156.286C202.458 158.672 202.458 162.551 206.306 164.98Z" fill="#FAFAFA"/>
<path d="M229.123 138.522L206.314 152.628C202.467 150.242 202.467 146.321 206.314 143.935L229.054 129.828C232.97 132.215 232.971 136.093 229.123 138.522Z" fill="#FAFAFA"/>
<path opacity="0.1" d="M206.306 112.065L229.115 126.171C232.962 123.785 232.962 119.864 229.115 117.478L206.374 103.371C202.458 105.758 202.458 109.636 206.306 112.065Z" fill="#FAFAFA"/>
<path d="M229.123 85.6082L206.314 99.7144C202.467 97.3278 202.467 93.4071 206.314 91.0205L229.054 76.9144C232.97 79.3009 232.971 83.179 229.123 85.6082Z" fill="#FAFAFA"/>
<path opacity="0.1" d="M206.306 59.1512L229.115 73.2573C232.962 70.8708 232.962 66.95 229.115 64.5635L206.374 50.4573C202.458 52.8439 202.458 56.722 206.306 59.1512Z" fill="#FAFAFA"/>
<path d="M229.123 32.6936L206.314 46.7998C202.467 44.4133 202.467 40.4925 206.314 38.106L229.054 23.9998C232.97 26.3863 232.971 30.2645 229.123 32.6936Z" fill="#FAFAFA"/>
</svg>
