<svg width="256" height="256" viewBox="0 0 256 256" fill="none" xmlns="http://www.w3.org/2000/svg">
<rect width="256" height="256" rx="4" transform="matrix(1 0 0 -1 0 256)" fill="#121215"/>
<path opacity="0.2" d="M24 26.413C26.454 23.1954 30.4854 23.1955 32.9395 26.413L47.4453 45.4325C44.9913 48.7075 41.0038 48.7075 38.5059 45.4901L24 26.413Z" fill="#FAFAFA"/>
<path d="M24 44.825C26.454 41.6074 30.4854 41.6075 32.9395 44.825L35.7227 48.4754L38.5049 44.8162C41.0028 41.5986 44.9912 41.5987 47.4453 44.8738L40.2109 54.3591L47.4453 63.8435C44.9913 67.1186 41.0028 67.1187 38.5049 63.9011L35.7227 60.2429L32.9395 63.8923C30.4854 67.1094 26.454 67.1096 24 63.8923L31.249 54.3591L24 44.825Z" fill="#FAFAFA"/>
<path opacity="0.2" d="M24 63.2337C26.454 60.0162 30.4854 60.0163 32.9395 63.2337L47.4453 82.2533C44.9913 85.5283 41.0038 85.5283 38.5059 82.3109L24 63.2337Z" fill="#FAFAFA"/>
<path d="M24 81.6453C26.454 78.428 30.4854 78.4281 32.9395 81.6453L35.7227 85.2957L38.5049 81.6375C41.0028 78.4199 44.9912 78.42 47.4453 81.6951L40.2109 91.1795L47.4453 100.664C44.9912 103.939 41.0028 103.939 38.5049 100.721L35.7227 97.0633L32.9395 100.713C30.4854 103.93 26.4541 103.93 24 100.713L31.249 91.1795L24 81.6453Z" fill="#FAFAFA"/>
<path opacity="0.2" d="M24 100.055C26.454 96.837 30.4854 96.8372 32.9395 100.055L47.4453 119.074C44.9913 122.349 41.0038 122.349 38.5059 119.132L24 100.055Z" fill="#FAFAFA"/>
<path d="M24 118.467C26.4541 115.25 30.4854 115.25 32.9395 118.467L35.7227 122.117L38.5049 118.457C41.0028 115.24 44.9912 115.24 47.4453 118.515L40.21 128L47.4453 137.485C44.9912 140.76 41.0028 140.76 38.5049 137.542L35.7227 133.884L32.9395 137.533C30.4854 140.75 26.454 140.75 24 137.533L31.248 128L24 118.467Z" fill="#FAFAFA"/>
<path opacity="0.2" d="M24 136.875C26.454 133.658 30.4854 133.658 32.9395 136.875L47.4453 155.895C44.9913 159.17 41.0038 159.17 38.5059 155.952L24 136.875Z" fill="#FAFAFA"/>
<path d="M24 155.289C26.4541 152.072 30.4854 152.072 32.9395 155.289L35.7227 158.939L38.5059 155.279C41.0038 152.061 44.9913 152.061 47.4453 155.336L40.21 164.822L47.4453 174.306C44.9913 177.58 41.0038 177.58 38.5059 174.364L35.7227 170.704L32.9395 174.353C30.4854 177.57 26.454 177.57 24 174.353L31.248 164.822L24 155.289Z" fill="#FAFAFA"/>
<path opacity="0.2" d="M24 173.696C26.454 170.478 30.4854 170.479 32.9395 173.696L47.4453 192.715C44.9912 195.991 41.0028 195.991 38.5049 192.773L24 173.696Z" fill="#FAFAFA"/>
<path d="M24 192.107C26.4541 188.889 30.4854 188.889 32.9395 192.107L35.7236 195.759L38.5059 192.099C41.0038 188.882 44.9913 188.882 47.4453 192.157L40.2109 201.642L47.4453 211.127C44.9912 214.402 41.0037 214.401 38.5059 211.183L35.7236 207.526L32.9395 211.177C30.4854 214.394 26.454 214.394 24 211.177L31.25 201.642L24 192.107Z" fill="#FAFAFA"/>
<path opacity="0.2" d="M24 210.517C26.454 207.299 30.4854 207.3 32.9395 210.517L47.4453 229.536C44.9913 232.812 41.0038 232.811 38.5059 229.594L24 210.517Z" fill="#FAFAFA"/>
<path d="M54.7588 26.1282C57.2128 23.2921 61.2442 23.2922 63.6982 26.1282L66.4814 29.346L69.2637 26.1214C71.7616 23.2852 75.75 23.2854 78.2041 26.1722L70.9697 34.5325L78.2041 42.8919C75.75 45.7787 71.7616 45.7789 69.2637 42.9427L66.4814 39.7191L63.6982 42.9359C61.2442 45.7716 57.2128 45.7717 54.7588 42.9359L62.0078 34.5325L54.7588 26.1282Z" fill="#FAFAFA"/>
<path opacity="0.2" d="M54.7588 41.7053C57.2129 38.8689 61.2442 38.8689 63.6982 41.7053L78.2041 58.4699C75.75 61.3569 71.7616 61.357 69.2637 58.5207L54.7588 41.7053Z" fill="#FAFAFA"/>
<path d="M54.7588 57.2836C57.2128 54.4476 61.2442 54.4477 63.6982 57.2836L66.4814 60.5013L69.2637 57.2767C71.7616 54.4405 75.75 54.4406 78.2041 57.3275L70.9697 65.6879L78.2041 74.0482C75.75 76.935 71.7615 76.9351 69.2637 74.099L66.4814 70.8744L63.6982 74.0912C61.2442 76.9273 57.2128 76.9274 54.7588 74.0912L62.0078 65.6879L54.7588 57.2836Z" fill="#FAFAFA"/>
<path opacity="0.2" d="M54.7588 72.8615C57.2129 70.0251 61.2442 70.0251 63.6982 72.8615L78.2041 89.6262C75.75 92.5132 71.7616 92.5133 69.2637 89.6769L54.7588 72.8615Z" fill="#FAFAFA"/>
<path d="M54.7588 88.4398C57.2128 85.6038 61.2442 85.604 63.6982 88.4398L66.4814 91.6576L69.2637 88.433C71.7616 85.5968 75.75 85.5969 78.2041 88.4838L70.9697 96.8441L78.2041 105.204C75.75 108.091 71.7615 108.091 69.2637 105.255L66.4814 102.031L63.6982 105.247C61.2442 108.083 57.2128 108.084 54.7588 105.247L62.0078 96.8441L54.7588 88.4398Z" fill="#FAFAFA"/>
<path opacity="0.2" d="M54.7588 104.017C57.2129 101.181 61.2442 101.181 63.6982 104.017L78.2041 120.782C75.75 123.669 71.7616 123.669 69.2637 120.833L54.7588 104.017Z" fill="#FAFAFA"/>
<path d="M54.7588 119.597C57.2128 116.761 61.2442 116.761 63.6982 119.597L66.4814 122.814L69.2637 119.588C71.7616 116.752 75.75 116.752 78.2041 119.639L70.9688 128L78.2041 136.361C75.75 139.248 71.7616 139.248 69.2637 136.411L66.4814 133.187L63.6982 136.403C61.2442 139.239 57.2128 139.239 54.7588 136.403L62.0068 128L54.7588 119.597Z" fill="#FAFAFA"/>
<path opacity="0.2" d="M54.7588 135.174C57.2128 132.337 61.2442 132.337 63.6982 135.174L78.2041 151.938C75.75 154.825 71.7616 154.825 69.2637 151.989L54.7588 135.174Z" fill="#FAFAFA"/>
<path d="M54.7588 150.753C57.2128 147.917 61.2442 147.917 63.6982 150.753L66.4814 153.971L69.2637 150.745C71.7615 147.909 75.7501 147.909 78.2041 150.796L70.9697 159.156L78.2041 167.516C75.75 170.403 71.7616 170.403 69.2637 167.567L66.4814 164.343L63.6982 167.559C61.2442 170.396 57.2128 170.396 54.7588 167.559L62.0078 159.156L54.7588 150.753Z" fill="#FAFAFA"/>
<path opacity="0.2" d="M54.7588 166.33C57.2129 163.493 61.2442 163.493 63.6982 166.33L78.2041 183.094C75.75 185.981 71.7616 185.982 69.2637 183.145L54.7588 166.33Z" fill="#FAFAFA"/>
<path d="M54.7588 181.908C57.2128 179.072 61.2442 179.072 63.6982 181.908L66.4814 185.126L69.2637 181.901C71.7616 179.065 75.75 179.065 78.2041 181.952L70.9697 190.312L78.2041 198.673C75.75 201.56 71.7616 201.56 69.2637 198.723L66.4814 195.499L63.6982 198.716C61.2442 201.552 57.2128 201.552 54.7588 198.716L62.0078 190.312L54.7588 181.908Z" fill="#FAFAFA"/>
<path opacity="0.2" d="M54.7588 197.486C57.2128 194.649 61.2442 194.649 63.6982 197.486L78.2041 214.25C75.75 217.137 71.7616 217.137 69.2637 214.301L54.7588 197.486Z" fill="#FAFAFA"/>
<path d="M54.7588 213.064C57.2129 210.227 61.2442 210.228 63.6982 213.064L66.4834 216.283L69.2646 213.059C71.7626 210.223 75.75 210.223 78.2041 213.11L70.9707 221.469L78.2041 229.827C75.7501 232.714 71.7625 232.714 69.2646 229.878L66.4834 226.654L63.6982 229.873C61.2442 232.709 57.2128 232.709 54.7588 229.873L62.0088 221.469L54.7588 213.064Z" fill="#FAFAFA"/>
<path opacity="0.2" d="M85.5186 26.4129C87.9726 23.1954 92.0039 23.1955 94.458 26.4129L108.964 45.4324C106.51 48.7075 102.522 48.7075 100.024 45.4901L85.5186 26.4129Z" fill="#FAFAFA"/>
<path d="M85.5186 44.825C87.9726 41.6074 92.0039 41.6075 94.458 44.825L97.2412 48.4754L100.023 44.8162C102.521 41.5986 106.51 41.5987 108.964 44.8738L101.729 54.3592L108.964 63.8435C106.51 67.1186 102.521 67.1187 100.023 63.9012L97.2412 60.243L94.458 63.8924C92.004 67.1095 87.9725 67.1096 85.5186 63.8924L92.7676 54.3592L85.5186 44.825Z" fill="#FAFAFA"/>
<path opacity="0.2" d="M85.5186 63.2337C87.9726 60.0162 92.0039 60.0163 94.458 63.2337L108.964 82.2532C106.51 85.5283 102.522 85.5283 100.024 82.3109L85.5186 63.2337Z" fill="#FAFAFA"/>
<path d="M85.5186 81.6448C87.9725 78.4275 92.004 78.4276 94.458 81.6448L97.2412 85.2952L100.023 81.637C102.521 78.4193 106.51 78.4195 108.964 81.6946L101.729 91.18L108.964 100.664C106.51 103.939 102.521 103.939 100.023 100.721L97.2412 97.0637L94.458 100.713C92.0039 103.931 87.9726 103.931 85.5186 100.713L92.7676 91.179L85.5186 81.6448Z" fill="#FAFAFA"/>
<path opacity="0.2" d="M85.5186 100.055C87.9726 96.837 92.0039 96.8371 94.458 100.055L108.964 119.074C106.51 122.349 102.522 122.349 100.024 119.132L85.5186 100.055Z" fill="#FAFAFA"/>
<path d="M85.5186 118.466C87.9726 115.249 92.0039 115.249 94.458 118.466L97.2412 122.117L100.023 118.457C102.521 115.24 106.51 115.24 108.964 118.515L101.729 128L108.964 137.485C106.51 140.76 102.521 140.76 100.023 137.542L97.2412 133.884L94.458 137.534C92.004 140.751 87.9725 140.751 85.5186 137.534L92.7676 128L85.5186 118.466Z" fill="#FAFAFA"/>
<path opacity="0.2" d="M85.5186 136.875C87.9726 133.658 92.0039 133.658 94.458 136.875L108.964 155.895C106.51 159.17 102.522 159.17 100.024 155.952L85.5186 136.875Z" fill="#FAFAFA"/>
<path d="M85.5186 155.289C87.9726 152.071 92.0039 152.071 94.458 155.289L97.2412 158.938L100.024 155.279C102.522 152.061 106.51 152.062 108.964 155.336L101.729 164.822L108.964 174.306C106.51 177.581 102.522 177.58 100.024 174.363L97.2412 170.705L94.458 174.353C92.0039 177.571 87.9726 177.571 85.5186 174.353L92.7676 164.821L85.5186 155.289Z" fill="#FAFAFA"/>
<path opacity="0.2" d="M85.5186 173.697C87.9726 170.479 92.0039 170.479 94.458 173.697L108.964 192.715C106.51 195.991 102.521 195.991 100.023 192.773L85.5186 173.697Z" fill="#FAFAFA"/>
<path d="M85.5186 192.107C87.9726 188.889 92.0039 188.889 94.458 192.107L97.2422 195.759L100.024 192.099C102.522 188.882 106.51 188.882 108.964 192.157L101.729 201.642L108.964 211.127C106.51 214.402 102.522 214.401 100.024 211.183L97.2422 207.526L94.458 211.177C92.0039 214.394 87.9726 214.394 85.5186 211.177L92.7686 201.642L85.5186 192.107Z" fill="#FAFAFA"/>
<path opacity="0.2" d="M85.5186 210.517C87.9726 207.299 92.0039 207.3 94.458 210.517L108.964 229.536C106.51 232.812 102.522 232.811 100.024 229.594L85.5186 210.517Z" fill="#FAFAFA"/>
<path d="M116.277 26.1292C118.731 23.293 122.763 23.293 125.217 26.1292L128 29.346L130.782 26.1204C133.28 23.2843 137.269 23.2844 139.723 26.1712L132.487 34.5325L139.723 42.8929C137.269 45.7797 133.28 45.7799 130.782 42.9437L128 39.7191L125.217 42.9349C122.763 45.7709 118.731 45.771 116.277 42.9349L123.525 34.5325L116.277 26.1292Z" fill="#FAFAFA"/>
<path opacity="0.2" d="M116.277 41.7053C118.731 38.8689 122.763 38.8689 125.217 41.7053L139.723 58.4699C137.269 61.3569 133.28 61.357 130.782 58.5207L116.277 41.7053Z" fill="#FAFAFA"/>
<path d="M116.277 57.2839C118.731 54.448 122.763 54.4481 125.217 57.2839L128 60.5017L130.782 57.2761C133.28 54.4399 137.269 54.4401 139.723 57.3269L132.488 65.6882L139.723 74.0486C137.269 76.9355 133.28 76.9356 130.782 74.0994L128 70.8748L125.217 74.0916C122.763 76.9277 118.731 76.9278 116.277 74.0916L123.526 65.6882L116.277 57.2839Z" fill="#FAFAFA"/>
<path opacity="0.2" d="M116.277 72.8615C118.731 70.0251 122.763 70.0252 125.217 72.8615L139.723 89.6261C137.269 92.5132 133.28 92.5133 130.782 89.6769L116.277 72.8615Z" fill="#FAFAFA"/>
<path d="M116.277 88.4408C118.731 85.6046 122.763 85.6046 125.217 88.4408L128 91.6586L130.782 88.433C133.28 85.5968 137.269 85.5969 139.723 88.4837L132.488 96.8441L139.723 105.204C137.269 108.091 133.28 108.091 130.782 105.255L128 102.031L125.217 105.247C122.763 108.083 118.731 108.083 116.277 105.247L123.526 96.8441L116.277 88.4408Z" fill="#FAFAFA"/>
<path opacity="0.2" d="M116.277 104.017C118.731 101.181 122.763 101.181 125.217 104.017L139.723 120.782C137.269 123.669 133.28 123.669 130.782 120.833L116.277 104.017Z" fill="#FAFAFA"/>
<path d="M116.277 119.597C118.731 116.76 122.763 116.76 125.217 119.597L128 122.814L130.782 119.589C133.28 116.753 137.269 116.753 139.723 119.64L132.488 128L139.723 136.36C137.269 139.247 133.28 139.247 130.782 136.411L128 133.186L125.217 136.403C122.763 139.239 118.731 139.239 116.277 136.403L123.526 128L116.277 119.597Z" fill="#FAFAFA"/>
<path opacity="0.2" d="M116.277 135.173C118.731 132.337 122.763 132.337 125.217 135.173L139.723 151.938C137.269 154.825 133.28 154.825 130.782 151.989L116.277 135.173Z" fill="#FAFAFA"/>
<path d="M116.277 150.752C118.731 147.916 122.763 147.916 125.217 150.752L128 153.97L130.782 150.744C133.28 147.908 137.269 147.908 139.723 150.795L132.488 159.157L139.723 167.517C137.269 170.404 133.28 170.404 130.782 167.568L128 164.343L125.217 167.56C122.763 170.396 118.731 170.396 116.277 167.56L123.526 159.157L116.277 150.752Z" fill="#FAFAFA"/>
<path opacity="0.2" d="M116.277 166.33C118.731 163.493 122.763 163.493 125.217 166.33L139.723 183.094C137.269 185.981 133.28 185.982 130.782 183.145L116.277 166.33Z" fill="#FAFAFA"/>
<path d="M116.277 181.909C118.731 179.074 122.763 179.074 125.217 181.909L128 185.126L130.782 181.901C133.28 179.065 137.269 179.065 139.723 181.951L132.487 190.313L139.723 198.673C137.269 201.56 133.28 201.56 130.782 198.724L128 195.499L125.217 198.715C122.763 201.551 118.731 201.551 116.277 198.715L123.525 190.313L116.277 181.909Z" fill="#FAFAFA"/>
<path opacity="0.2" d="M116.277 197.486C118.731 194.649 122.763 194.649 125.217 197.486L139.723 214.25C137.269 217.137 133.28 217.137 130.782 214.301L116.277 197.486Z" fill="#FAFAFA"/>
<path d="M116.277 213.064C118.731 210.227 122.763 210.227 125.217 213.064L128.002 216.283L130.783 213.059C133.281 210.223 137.269 210.223 139.723 213.109L132.489 221.469L139.723 229.827C137.269 232.714 133.281 232.714 130.783 229.878L128.002 226.654L125.217 229.873C122.763 232.709 118.731 232.709 116.277 229.873L123.527 221.469L116.277 213.064Z" fill="#FAFAFA"/>
<path opacity="0.2" d="M147.037 26.4129C149.491 23.1954 153.522 23.1955 155.977 26.4129L170.482 45.4324C168.028 48.7075 164.041 48.7075 161.543 45.4901L147.037 26.4129Z" fill="#FAFAFA"/>
<path d="M147.037 44.825C149.491 41.6074 153.522 41.6075 155.977 44.825L158.76 48.4754L161.542 44.8162C164.04 41.5986 168.028 41.5987 170.482 44.8738L163.248 54.3591L170.482 63.8435C168.028 67.1186 164.04 67.1187 161.542 63.9011L158.76 60.2429L155.977 63.8923C153.523 67.1094 149.491 67.1096 147.037 63.8923L154.286 54.3591L147.037 44.825Z" fill="#FAFAFA"/>
<path opacity="0.2" d="M147.037 63.2337C149.491 60.0162 153.522 60.0163 155.977 63.2337L170.482 82.2532C168.028 85.5283 164.041 85.5283 161.543 82.3109L147.037 63.2337Z" fill="#FAFAFA"/>
<path d="M147.037 81.6458C149.491 78.4282 153.522 78.4283 155.977 81.6458L158.76 85.2962L161.542 81.637C164.04 78.4194 168.028 78.4195 170.482 81.6946L163.248 91.1799L170.482 100.664C168.028 103.939 164.04 103.94 161.542 100.722L158.76 97.0637L155.977 100.713C153.523 103.93 149.491 103.93 147.037 100.713L154.286 91.1799L147.037 81.6458Z" fill="#FAFAFA"/>
<path opacity="0.2" d="M147.037 100.055C149.491 96.837 153.522 96.8371 155.977 100.055L170.482 119.074C168.028 122.349 164.041 122.349 161.543 119.132L147.037 100.055Z" fill="#FAFAFA"/>
<path d="M147.037 118.466C149.491 115.249 153.522 115.249 155.977 118.466L158.76 122.116L161.542 118.457C164.04 115.24 168.028 115.24 170.482 118.515L163.248 128L170.482 137.485C168.028 140.76 164.04 140.76 161.542 137.542L158.76 133.884L155.977 137.533C153.523 140.751 149.491 140.751 147.037 137.533L154.286 128L147.037 118.466Z" fill="#FAFAFA"/>
<path opacity="0.2" d="M147.037 136.875C149.491 133.658 153.522 133.658 155.977 136.875L170.482 155.895C168.028 159.17 164.041 159.17 161.543 155.952L147.037 136.875Z" fill="#FAFAFA"/>
<path d="M147.037 155.289C149.491 152.071 153.522 152.071 155.977 155.289L158.76 158.938L161.543 155.279C164.041 152.061 168.028 152.062 170.482 155.336L163.247 164.822L170.482 174.306C168.028 177.581 164.041 177.58 161.543 174.363L158.76 170.705L155.977 174.353C153.522 177.571 149.491 177.571 147.037 174.353L154.286 164.821L147.037 155.289Z" fill="#FAFAFA"/>
<path opacity="0.2" d="M147.037 173.697C149.491 170.479 153.522 170.479 155.977 173.697L170.482 192.716C168.028 195.991 164.04 195.99 161.542 192.773L147.037 173.697Z" fill="#FAFAFA"/>
<path d="M147.037 192.107C149.491 188.889 153.522 188.889 155.977 192.107L158.761 195.759L161.543 192.099C164.041 188.882 168.028 188.882 170.482 192.157L163.248 201.642L170.482 211.127C168.028 214.402 164.041 214.401 161.543 211.183L158.761 207.526L155.977 211.177C153.522 214.394 149.491 214.394 147.037 211.177L154.287 201.642L147.037 192.107Z" fill="#FAFAFA"/>
<path opacity="0.2" d="M147.037 210.517C149.491 207.299 153.522 207.3 155.977 210.517L170.482 229.536C168.028 232.812 164.041 232.811 161.543 229.594L147.037 210.517Z" fill="#FAFAFA"/>
<path d="M177.796 26.1292C180.25 23.293 184.281 23.293 186.735 26.1292L189.519 29.346L192.301 26.1204C194.799 23.2843 198.787 23.2844 201.241 26.1712L194.006 34.5325L201.241 42.8929C198.787 45.7797 194.799 45.7799 192.301 42.9437L189.519 39.7191L186.735 42.9349C184.281 45.7709 180.25 45.771 177.796 42.9349L185.044 34.5325L177.796 26.1292Z" fill="#FAFAFA"/>
<path opacity="0.2" d="M177.796 41.7053C180.25 38.8689 184.281 38.8689 186.735 41.7053L201.241 58.4699C198.787 61.3569 194.799 61.357 192.301 58.5207L177.796 41.7053Z" fill="#FAFAFA"/>
<path d="M177.796 57.2845C180.25 54.4484 184.281 54.4484 186.735 57.2845L189.519 60.5023L192.301 57.2767C194.799 54.4405 198.787 54.4407 201.241 57.3275L194.007 65.6878L201.241 74.0482C198.787 76.935 194.799 76.9351 192.301 74.099L189.519 70.8744L186.735 74.0912C184.281 76.9269 180.25 76.927 177.796 74.0912L185.045 65.6878L177.796 57.2845Z" fill="#FAFAFA"/>
<path opacity="0.2" d="M177.796 72.8615C180.25 70.0251 184.281 70.0252 186.735 72.8615L201.241 89.6261C198.787 92.5132 194.799 92.5133 192.301 89.6769L177.796 72.8615Z" fill="#FAFAFA"/>
<path d="M177.796 88.4408C180.25 85.6046 184.281 85.6046 186.735 88.4408L189.519 91.6586L192.301 88.433C194.799 85.5968 198.787 85.5969 201.241 88.4837L194.007 96.8441L201.241 105.204C198.787 108.091 194.799 108.091 192.301 105.255L189.519 102.031L186.735 105.247C184.281 108.083 180.25 108.083 177.796 105.247L185.045 96.8441L177.796 88.4408Z" fill="#FAFAFA"/>
<path opacity="0.2" d="M177.796 104.017C180.25 101.181 184.281 101.181 186.735 104.017L201.241 120.782C198.787 123.669 194.799 123.669 192.301 120.833L177.796 104.017Z" fill="#FAFAFA"/>
<path d="M177.796 119.597C180.25 116.76 184.281 116.76 186.735 119.597L189.519 122.814L192.301 119.589C194.799 116.753 198.787 116.753 201.241 119.64L194.007 128L201.241 136.36C198.787 139.247 194.799 139.247 192.301 136.411L189.519 133.186L186.735 136.403C184.281 139.239 180.25 139.239 177.796 136.403L185.045 128L177.796 119.597Z" fill="#FAFAFA"/>
<path opacity="0.2" d="M177.796 135.173C180.25 132.337 184.281 132.337 186.735 135.173L201.241 151.938C198.787 154.825 194.799 154.825 192.301 151.989L177.796 135.173Z" fill="#FAFAFA"/>
<path d="M177.796 150.752C180.25 147.916 184.281 147.916 186.735 150.752L189.519 153.97L192.301 150.744C194.799 147.908 198.787 147.908 201.241 150.795L194.007 159.157L201.241 167.517C198.787 170.404 194.799 170.404 192.301 167.568L189.519 164.343L186.735 167.56C184.281 170.396 180.25 170.396 177.796 167.56L185.045 159.157L177.796 150.752Z" fill="#FAFAFA"/>
<path opacity="0.2" d="M177.796 166.33C180.25 163.493 184.281 163.493 186.735 166.33L201.241 183.094C198.787 185.981 194.799 185.982 192.301 183.145L177.796 166.33Z" fill="#FAFAFA"/>
<path d="M177.796 181.909C180.25 179.074 184.281 179.074 186.735 181.909L189.519 185.126L192.301 181.901C194.799 179.065 198.787 179.065 201.241 181.951L194.006 190.313L201.241 198.673C198.787 201.56 194.799 201.56 192.301 198.724L189.519 195.499L186.735 198.715C184.281 201.551 180.25 201.551 177.796 198.715L185.044 190.313L177.796 181.909Z" fill="#FAFAFA"/>
<path opacity="0.2" d="M177.796 197.486C180.25 194.649 184.281 194.649 186.735 197.486L201.241 214.25C198.787 217.137 194.799 217.137 192.301 214.301L177.796 197.486Z" fill="#FAFAFA"/>
<path d="M177.796 213.063C180.25 210.227 184.281 210.228 186.735 213.063L189.521 216.283L192.302 213.058C194.8 210.222 198.787 210.222 201.241 213.108L194.007 221.469L201.241 229.828C198.787 232.715 194.8 232.715 192.302 229.879L189.52 226.655L186.735 229.873C184.281 232.709 180.25 232.709 177.796 229.873L185.046 221.469L177.796 213.063Z" fill="#FAFAFA"/>
<path opacity="0.2" d="M208.555 26.413C211.009 23.1954 215.04 23.1956 217.494 26.413L232 45.4325C229.546 48.7075 225.558 48.7075 223.061 45.4901L208.555 26.413Z" fill="#FAFAFA"/>
<path d="M208.555 44.8251C211.009 41.6075 215.04 41.6075 217.494 44.8251L220.277 48.4755L223.06 44.8163C225.557 41.5987 229.546 41.5989 232 44.8739L224.766 54.3593L232 63.8436C229.546 67.1185 225.557 67.1178 223.06 63.9003L220.277 60.243L217.494 63.8925C215.04 67.1096 211.009 67.1096 208.555 63.8925L215.804 54.3593L208.555 44.8251Z" fill="#FAFAFA"/>
<path opacity="0.2" d="M208.555 63.2337C211.009 60.0162 215.04 60.0163 217.494 63.2337L232 82.2533C229.546 85.5283 225.558 85.5283 223.061 82.3109L208.555 63.2337Z" fill="#FAFAFA"/>
<path d="M208.555 81.6453C211.009 78.428 215.04 78.4281 217.494 81.6453L220.277 85.2957L223.06 81.6375C225.557 78.4199 229.546 78.42 232 81.6951L224.766 91.1795L232 100.664C229.546 103.939 225.557 103.939 223.06 100.721L220.277 97.0633L217.494 100.713C215.04 103.93 211.009 103.93 208.555 100.713L215.804 91.1795L208.555 81.6453Z" fill="#FAFAFA"/>
<path opacity="0.2" d="M208.555 100.055C211.009 96.837 215.04 96.8372 217.494 100.055L232 119.074C229.546 122.349 225.558 122.349 223.061 119.132L208.555 100.055Z" fill="#FAFAFA"/>
<path d="M208.555 118.467C211.009 115.249 215.04 115.249 217.494 118.467L220.277 122.117L223.06 118.458C225.557 115.24 229.546 115.239 232 118.514L224.765 128L232 137.485C229.546 140.76 225.557 140.76 223.06 137.543L220.277 133.885L217.494 137.533C215.04 140.751 211.009 140.751 208.555 137.533L215.803 128.001L208.555 118.467Z" fill="#FAFAFA"/>
<path opacity="0.2" d="M208.555 136.875C211.009 133.658 215.04 133.658 217.494 136.875L232 155.895C229.546 159.17 225.558 159.17 223.061 155.953L208.555 136.875Z" fill="#FAFAFA"/>
<path d="M208.555 155.288C211.009 152.071 215.04 152.071 217.494 155.288L220.277 158.938L223.06 155.278C225.557 152.061 229.546 152.061 232 155.336L224.765 164.821L232 174.306C229.546 177.58 225.558 177.58 223.061 174.363L220.277 170.704L217.494 174.353C215.04 177.57 211.009 177.57 208.555 174.353L215.803 164.82L208.555 155.288Z" fill="#FAFAFA"/>
<path opacity="0.2" d="M208.555 173.696C211.009 170.479 215.04 170.479 217.494 173.696L232 192.715C229.546 195.991 225.557 195.991 223.06 192.773L208.555 173.696Z" fill="#FAFAFA"/>
<path d="M208.555 192.107C211.009 188.889 215.04 188.89 217.494 192.107L220.278 195.758L223.061 192.1C225.558 188.883 229.546 188.882 232 192.157L224.766 201.642L232 211.126C229.546 214.401 225.558 214.401 223.061 211.183L220.278 207.526L217.494 211.176C215.04 214.394 211.009 214.394 208.555 211.176L215.805 201.642L208.555 192.107Z" fill="#FAFAFA"/>
<path opacity="0.2" d="M208.555 210.517C211.009 207.299 215.04 207.3 217.494 210.517L232 229.536C229.546 232.812 225.558 232.811 223.061 229.594L208.555 210.517Z" fill="#FAFAFA"/>
</svg>
