<svg width="256" height="256" viewBox="0 0 256 256" fill="none" xmlns="http://www.w3.org/2000/svg">
<rect width="256" height="256" rx="4" transform="matrix(1 0 0 -1 0 256)" fill="#121215"/>
<path d="M24 26.3297C26.3526 23.2239 30.2176 23.224 32.5703 26.3297L35.2393 29.8541L37.9062 26.3228C40.3009 23.2171 44.1239 23.2164 46.4766 26.3775L39.541 35.5328L46.4766 44.6871C44.124 47.8482 40.3009 47.8482 37.9062 44.7427L35.2393 41.2125L32.5703 44.7349C30.2176 47.8407 26.3527 47.8407 24 44.7349L30.9502 35.5328L24 26.3297Z" fill="#FAFAFA"/>
<path d="M24 44.8232C26.3527 41.7173 30.2176 41.7173 32.5703 44.8232L46.4766 63.1806C44.1239 66.3419 40.3009 66.342 37.9062 63.2363L24 44.8232Z" fill="#FAFAFA"/>
<path d="M24 63.3164C26.3527 60.2108 30.2176 60.2108 32.5703 63.3164L35.2393 66.8409L37.9062 63.3106C40.3009 60.205 44.1239 60.2043 46.4766 63.3653L39.542 72.5196L46.4766 81.6729C44.1239 84.834 40.3009 84.8341 37.9062 81.7286L35.2393 78.1993L32.5703 81.7227C30.2177 84.8281 26.3526 84.8281 24 81.7227L30.9502 72.5196L24 63.3164Z" fill="#FAFAFA"/>
<path d="M24 81.81C26.3527 78.7042 30.2176 78.7042 32.5703 81.81L46.4766 100.167C44.1239 103.329 40.3009 103.329 37.9062 100.223L24 81.81Z" fill="#FAFAFA"/>
<path d="M24 100.303C26.3527 97.1976 30.2176 97.1976 32.5703 100.303L35.2393 103.828L37.9062 100.296C40.3009 97.1911 44.124 97.1911 46.4766 100.352L39.542 109.506L46.4766 118.66C44.1239 121.821 40.3009 121.821 37.9062 118.715L35.2393 115.186L32.5703 118.71C30.2177 121.815 26.3526 121.815 24 118.71L30.9502 109.506L24 100.303Z" fill="#FAFAFA"/>
<path d="M24 118.797C26.3527 115.691 30.2176 115.691 32.5703 118.797L46.4766 137.154C44.1239 140.316 40.3009 140.316 37.9062 137.21L24 118.797Z" fill="#FAFAFA"/>
<path d="M24 137.292C26.3527 134.186 30.2176 134.186 32.5703 137.292L35.2383 140.815L37.9062 137.283C40.3009 134.178 44.124 134.178 46.4766 137.339L39.541 146.494L46.4766 155.648C44.1239 158.81 40.3009 158.81 37.9062 155.704L35.2393 152.174L32.5703 155.696C30.2177 158.802 26.3526 158.802 24 155.696L30.9492 146.494L24 137.292Z" fill="#FAFAFA"/>
<path d="M24 155.784C26.3527 152.678 30.2176 152.678 32.5703 155.784L46.4766 174.142C44.124 177.303 40.301 177.303 37.9062 174.197L24 155.784Z" fill="#FAFAFA"/>
<path d="M24 174.277C26.3526 171.172 30.2177 171.172 32.5703 174.277L35.2393 177.802L37.9062 174.271C40.3009 171.165 44.1239 171.165 46.4766 174.326L39.541 183.48L46.4766 192.635C44.1239 195.796 40.3009 195.796 37.9062 192.69L35.2393 189.16L32.5703 192.684C30.2177 195.789 26.3526 195.789 24 192.684L30.9502 183.48L24 174.277Z" fill="#FAFAFA"/>
<path d="M24 192.771C26.3527 189.665 30.2176 189.665 32.5703 192.771L46.4766 211.128C44.1239 214.29 40.3009 214.29 37.9062 211.184L24 192.771Z" fill="#FAFAFA"/>
<path d="M24 211.265C26.3527 208.159 30.2176 208.159 32.5703 211.265L35.2393 214.789L37.9062 211.257C40.3009 208.151 44.124 208.151 46.4766 211.312L39.541 220.468L46.4766 229.623C44.1239 232.784 40.3009 232.783 37.9062 229.678L35.2393 226.147L32.5703 229.671C30.2177 232.776 26.3526 232.777 24 229.671L30.9502 220.468L24 211.265Z" fill="#FAFAFA"/>
<path d="M83.5811 26.3295C81.2284 23.2237 77.3634 23.2237 75.0107 26.3295L72.3418 29.8539L69.6748 26.3227C67.2801 23.217 63.4571 23.2171 61.1045 26.3784L68.04 35.5327L61.1045 44.687C63.4571 47.8481 67.2801 47.8481 69.6748 44.7426L72.3418 41.2123L75.0107 44.7358C77.3634 47.8413 81.2284 47.8413 83.5811 44.7358L76.6309 35.5327L83.5811 26.3295Z" fill="#FAFAFA"/>
<path d="M83.5811 44.8231C81.2284 41.7173 77.3634 41.7173 75.0107 44.8231L61.1045 63.1806C63.4571 66.3419 67.2801 66.342 69.6748 63.2362L83.5811 44.8231Z" fill="#FAFAFA"/>
<path d="M83.5811 63.3163C81.2284 60.2105 77.3634 60.2105 75.0107 63.3163L72.3418 66.8408L69.6748 63.3095C67.2801 60.2038 63.4571 60.2039 61.1045 63.3652L68.04 72.5195L61.1045 81.6738C63.4571 84.8349 67.2801 84.8349 69.6748 81.7294L72.3418 78.1992L75.0107 81.7226C77.3634 84.8281 81.2284 84.8282 83.5811 81.7226L76.6309 72.5195L83.5811 63.3163Z" fill="#FAFAFA"/>
<path d="M83.5811 81.8096C81.2284 78.7042 77.3634 78.7043 75.0107 81.8096L61.1045 100.168C63.4572 103.329 67.2802 103.328 69.6748 100.223L83.5811 81.8096Z" fill="#FAFAFA"/>
<path d="M83.5811 100.304C81.2284 97.1979 77.3634 97.1979 75.0107 100.304L72.3418 103.828L69.6748 100.297C67.2801 97.1911 63.4572 97.1912 61.1045 100.352L68.04 109.507L61.1045 118.661C63.4571 121.822 67.2801 121.822 69.6748 118.717L72.3418 115.186L75.0107 118.71C77.3634 121.815 81.2284 121.815 83.5811 118.71L76.6309 109.507L83.5811 100.304Z" fill="#FAFAFA"/>
<path d="M83.5811 118.797C81.2284 115.691 77.3634 115.691 75.0107 118.797L61.1045 137.154C63.4571 140.316 67.2801 140.316 69.6748 137.21L83.5811 118.797Z" fill="#FAFAFA"/>
<path d="M83.5811 137.291C81.2284 134.185 77.3634 134.185 75.0107 137.291L72.3418 140.815L69.6748 137.284C67.2802 134.178 63.4572 134.177 61.1045 137.338L68.04 146.494L61.1045 155.648C63.4571 158.809 67.2801 158.809 69.6748 155.704L72.3418 152.173L75.0107 155.696C77.3634 158.802 81.2284 158.802 83.5811 155.696L76.6309 146.494L83.5811 137.291Z" fill="#FAFAFA"/>
<path d="M83.5811 155.784C81.2284 152.678 77.3634 152.678 75.0107 155.784L61.1045 174.142C63.4571 177.303 67.2801 177.303 69.6748 174.197L83.5811 155.784Z" fill="#FAFAFA"/>
<path d="M83.5811 174.278C81.2284 171.172 77.3634 171.172 75.0107 174.278L72.3418 177.802L69.6748 174.271C67.2801 171.165 63.4571 171.165 61.1045 174.326L68.04 183.481L61.1045 192.635C63.4572 195.796 67.2802 195.795 69.6748 192.69L72.3418 189.16L75.0107 192.684C77.3634 195.79 81.2284 195.79 83.5811 192.684L76.6309 183.481L83.5811 174.278Z" fill="#FAFAFA"/>
<path d="M83.5811 192.771C81.2284 189.665 77.3634 189.665 75.0107 192.771L61.1045 211.128C63.4571 214.29 67.2801 214.29 69.6748 211.184L83.5811 192.771Z" fill="#FAFAFA"/>
<path d="M83.5811 211.266C81.2284 208.16 77.3634 208.16 75.0107 211.266L72.3418 214.789L69.6748 211.258C67.2802 208.152 63.4572 208.152 61.1045 211.313L68.04 220.468L61.1045 229.622C63.4571 232.783 67.2801 232.783 69.6748 229.678L72.3418 226.148L75.0107 229.67C77.3634 232.775 81.2284 232.776 83.5811 229.67L76.6318 220.468L83.5811 211.266Z" fill="#FAFAFA"/>
<path d="M98.21 26.3295C100.563 23.2237 104.428 23.2237 106.78 26.3295L109.449 29.8539L112.116 26.3226C114.511 23.2169 118.334 23.2171 120.687 26.3783L113.751 35.5326L120.687 44.6869C118.334 47.8481 114.511 47.8481 112.116 44.7426L109.449 41.2123L106.78 44.7357C104.428 47.8413 100.563 47.8414 98.21 44.7357L105.16 35.5326L98.21 26.3295Z" fill="#FAFAFA"/>
<path d="M98.21 44.8231C100.563 41.7173 104.428 41.7173 106.78 44.8231L120.687 63.1806C118.334 66.3419 114.511 66.342 112.116 63.2362L98.21 44.8231Z" fill="#FAFAFA"/>
<path d="M98.21 63.3163C100.563 60.2105 104.428 60.2105 106.78 63.3163L109.449 66.8407L112.116 63.3095C114.511 60.2037 118.334 60.2039 120.687 63.3651L113.751 72.5194L120.687 81.6737C118.334 84.8349 114.511 84.8349 112.116 81.7294L109.449 78.1991L106.78 81.7226C104.428 84.8281 100.563 84.8282 98.21 81.7226L105.16 72.5194L98.21 63.3163Z" fill="#FAFAFA"/>
<path d="M98.21 81.8099C100.563 78.7041 104.428 78.7041 106.78 81.8099L120.686 100.167C118.333 103.329 114.51 103.329 112.115 100.223L98.21 81.8099Z" fill="#FAFAFA"/>
<path d="M98.21 100.303C100.563 97.1977 104.428 97.1977 106.78 100.303L109.448 103.828L112.115 100.297C114.51 97.1908 118.333 97.191 120.686 100.352L113.751 109.507L120.686 118.661C118.333 121.822 114.51 121.822 112.115 118.717L109.448 115.186L106.78 118.71C104.428 121.816 100.563 121.815 98.21 118.71L105.159 109.507L98.21 100.303Z" fill="#FAFAFA"/>
<path d="M98.21 118.797C100.563 115.691 104.428 115.691 106.78 118.797L120.686 137.154C118.333 140.315 114.51 140.316 112.115 137.21L98.21 118.797Z" fill="#FAFAFA"/>
<path d="M98.21 137.291C100.563 134.185 104.428 134.185 106.78 137.291L109.449 140.815L112.116 137.284C114.511 134.178 118.334 134.177 120.687 137.338L113.751 146.494L120.687 155.648C118.334 158.809 114.511 158.809 112.116 155.704L109.449 152.173L106.78 155.697C104.428 158.802 100.563 158.802 98.21 155.697L105.16 146.494L98.21 137.291Z" fill="#FAFAFA"/>
<path d="M98.21 155.784C100.563 152.678 104.428 152.678 106.78 155.784L120.686 174.141C118.333 177.303 114.51 177.303 112.115 174.197L98.21 155.784Z" fill="#FAFAFA"/>
<path d="M98.21 174.277C100.563 171.171 104.428 171.171 106.78 174.277L109.449 177.802L112.116 174.27C114.511 171.165 118.334 171.165 120.687 174.326L113.751 183.48L120.687 192.635C118.334 195.796 114.511 195.795 112.116 192.689L109.449 189.16L106.78 192.683C104.428 195.789 100.563 195.789 98.21 192.683L105.16 183.48L98.21 174.277Z" fill="#FAFAFA"/>
<path d="M98.21 192.771C100.563 189.665 104.428 189.665 106.78 192.771L120.686 211.128C118.333 214.29 114.51 214.29 112.115 211.184L98.21 192.771Z" fill="#FAFAFA"/>
<path d="M98.21 211.265C100.563 208.159 104.428 208.159 106.78 211.265L109.449 214.789L112.116 211.258C114.511 208.152 118.334 208.152 120.687 211.313L113.751 220.468L120.687 229.622C118.334 232.783 114.511 232.782 112.116 229.677L109.449 226.147L106.78 229.671C104.428 232.776 100.563 232.776 98.21 229.671L105.16 220.468L98.21 211.265Z" fill="#FAFAFA"/>
<path d="M157.79 26.3295C155.437 23.2237 151.572 23.2237 149.22 26.3295L146.551 29.8539L143.884 26.3226C141.489 23.2168 137.666 23.217 135.313 26.3783L142.249 35.5326L135.313 44.6869C137.666 47.8481 141.489 47.8481 143.884 44.7426L146.551 41.2123L149.22 44.7357C151.572 47.8413 155.437 47.8414 157.79 44.7357L150.84 35.5326L157.79 26.3295Z" fill="#FAFAFA"/>
<path d="M157.79 44.8231C155.437 41.7173 151.572 41.7173 149.22 44.8231L135.313 63.1806C137.666 66.3419 141.489 66.342 143.884 63.2362L157.79 44.8231Z" fill="#FAFAFA"/>
<path d="M157.79 63.3163C155.437 60.2105 151.572 60.2105 149.22 63.3163L146.551 66.8407L143.884 63.3095C141.489 60.2036 137.666 60.2038 135.313 63.3651L142.249 72.5194L135.313 81.6737C137.666 84.8349 141.489 84.8349 143.884 81.7294L146.551 78.1991L149.22 81.7225C151.572 84.8281 155.437 84.8282 157.79 81.7225L150.84 72.5194L157.79 63.3163Z" fill="#FAFAFA"/>
<path d="M157.79 81.8099C155.437 78.7041 151.572 78.7041 149.22 81.8099L135.314 100.167C137.667 103.329 141.49 103.329 143.885 100.223L157.79 81.8099Z" fill="#FAFAFA"/>
<path d="M157.79 100.303C155.437 97.1977 151.572 97.1977 149.22 100.303L146.552 103.828L143.885 100.297C141.49 97.1908 137.667 97.191 135.314 100.352L142.249 109.507L135.314 118.661C137.667 121.822 141.49 121.822 143.885 118.717L146.552 115.186L149.22 118.71C151.572 121.816 155.437 121.815 157.79 118.71L150.841 109.507L157.79 100.303Z" fill="#FAFAFA"/>
<path d="M157.79 118.797C155.437 115.691 151.572 115.691 149.22 118.797L135.314 137.154C137.667 140.315 141.49 140.316 143.885 137.21L157.79 118.797Z" fill="#FAFAFA"/>
<path d="M157.79 137.29C155.437 134.185 151.572 134.185 149.22 137.29L146.551 140.815L143.884 137.284C141.489 134.178 137.666 134.178 135.313 137.339L142.249 146.493L135.313 155.648C137.666 158.809 141.489 158.809 143.884 155.703L146.551 152.173L149.22 155.697C151.572 158.802 155.437 158.802 157.79 155.697L150.84 146.493L157.79 137.29Z" fill="#FAFAFA"/>
<path d="M157.79 155.784C155.437 152.678 151.572 152.678 149.22 155.784L135.314 174.141C137.667 177.303 141.49 177.303 143.885 174.197L157.79 155.784Z" fill="#FAFAFA"/>
<path d="M157.79 174.277C155.437 171.171 151.572 171.171 149.22 174.277L146.551 177.802L143.884 174.27C141.489 171.165 137.666 171.165 135.313 174.326L142.249 183.48L135.313 192.635C137.666 195.796 141.489 195.795 143.884 192.689L146.551 189.16L149.22 192.683C151.572 195.789 155.437 195.789 157.79 192.683L150.84 183.48L157.79 174.277Z" fill="#FAFAFA"/>
<path d="M157.79 192.771C155.437 189.665 151.572 189.665 149.22 192.771L135.314 211.128C137.667 214.29 141.49 214.29 143.885 211.184L157.79 192.771Z" fill="#FAFAFA"/>
<path d="M157.79 211.265C155.437 208.159 151.572 208.159 149.22 211.265L146.551 214.789L143.884 211.258C141.489 208.152 137.666 208.152 135.313 211.313L142.249 220.468L135.313 229.622C137.666 232.783 141.489 232.783 143.884 229.678L146.551 226.148L149.22 229.67C151.572 232.776 155.437 232.776 157.79 229.67L150.84 220.468L157.79 211.265Z" fill="#FAFAFA"/>
<path d="M172.419 26.3297C174.772 23.2239 178.637 23.224 180.989 26.3297L183.658 29.8541L186.325 26.3228C188.72 23.2171 192.543 23.2164 194.896 26.3775L187.96 35.5328L194.896 44.6871C192.543 47.8482 188.72 47.8482 186.325 44.7427L183.658 41.2125L180.989 44.7349C178.637 47.8407 174.772 47.8407 172.419 44.7349L179.369 35.5328L172.419 26.3297Z" fill="#FAFAFA"/>
<path d="M172.419 44.8231C174.772 41.7173 178.637 41.7173 180.989 44.8231L194.896 63.1806C192.543 66.3419 188.72 66.342 186.325 63.2362L172.419 44.8231Z" fill="#FAFAFA"/>
<path d="M172.419 63.3165C174.772 60.2108 178.637 60.2108 180.989 63.3165L183.658 66.8409L186.325 63.3096C188.72 60.2039 192.543 60.2032 194.896 63.3643L187.96 72.5196L194.896 81.6739C192.543 84.835 188.72 84.8351 186.325 81.7296L183.658 78.1993L180.989 81.7217C178.637 84.8275 174.772 84.8275 172.419 81.7217L179.369 72.5196L172.419 63.3165Z" fill="#FAFAFA"/>
<path d="M172.419 81.8096C174.772 78.7042 178.637 78.7043 180.989 81.8096L194.896 100.168C192.543 103.329 188.72 103.328 186.325 100.223L172.419 81.8096Z" fill="#FAFAFA"/>
<path d="M172.419 100.304C174.772 97.1979 178.637 97.1979 180.989 100.304L183.658 103.828L186.325 100.297C188.72 97.1911 192.543 97.1912 194.896 100.352L187.96 109.507L194.896 118.661C192.543 121.822 188.72 121.822 186.325 118.717L183.658 115.186L180.989 118.71C178.637 121.815 174.772 121.815 172.419 118.71L179.369 109.507L172.419 100.304Z" fill="#FAFAFA"/>
<path d="M172.419 118.797C174.772 115.691 178.637 115.691 180.989 118.797L194.896 137.154C192.543 140.316 188.72 140.316 186.325 137.21L172.419 118.797Z" fill="#FAFAFA"/>
<path d="M172.419 137.291C174.772 134.185 178.637 134.185 180.989 137.291L183.658 140.815L186.325 137.284C188.72 134.178 192.543 134.178 194.896 137.339L187.96 146.494L194.896 155.648C192.543 158.809 188.72 158.809 186.325 155.704L183.658 152.173L180.989 155.697C178.637 158.802 174.772 158.802 172.419 155.697L179.369 146.494L172.419 137.291Z" fill="#FAFAFA"/>
<path d="M172.419 155.784C174.772 152.678 178.637 152.678 180.989 155.784L194.896 174.142C192.543 177.303 188.72 177.303 186.325 174.197L172.419 155.784Z" fill="#FAFAFA"/>
<path d="M172.419 174.277C174.772 171.172 178.637 171.172 180.989 174.277L183.658 177.802L186.325 174.27C188.72 171.165 192.543 171.165 194.896 174.326L187.96 183.48L194.896 192.635C192.543 195.796 188.72 195.796 186.325 192.69L183.658 189.16L180.989 192.684C178.637 195.789 174.772 195.789 172.419 192.684L179.369 183.48L172.419 174.277Z" fill="#FAFAFA"/>
<path d="M172.419 192.771C174.772 189.665 178.637 189.665 180.989 192.771L194.896 211.128C192.543 214.29 188.72 214.29 186.325 211.184L172.419 192.771Z" fill="#FAFAFA"/>
<path d="M172.419 211.265C174.772 208.159 178.637 208.159 180.989 211.265L183.658 214.789L186.325 211.257C188.72 208.151 192.543 208.151 194.896 211.312L187.96 220.468L194.896 229.623C192.543 232.784 188.72 232.783 186.325 229.678L183.658 226.147L180.989 229.671C178.637 232.776 174.772 232.777 172.419 229.671L179.369 220.468L172.419 211.265Z" fill="#FAFAFA"/>
<path d="M232 26.3294C229.647 23.2235 225.782 23.2235 223.43 26.3294L220.761 29.8538L218.094 26.3225C215.699 23.2168 211.876 23.2169 209.523 26.3782L216.459 35.5325L209.523 44.6868C211.876 47.848 215.699 47.848 218.094 44.7424L220.761 41.2122L223.43 44.7356C225.782 47.8414 229.647 47.8414 232 44.7356L225.05 35.5325L232 26.3294Z" fill="#FAFAFA"/>
<path d="M232 44.8231C229.647 41.7173 225.782 41.7173 223.43 44.8231L209.523 63.1806C211.876 66.3419 215.699 66.342 218.094 63.2362L232 44.8231Z" fill="#FAFAFA"/>
<path d="M232 63.3162C229.647 60.2103 225.782 60.2103 223.43 63.3162L220.761 66.8406L218.094 63.3093C215.699 60.2036 211.876 60.2038 209.523 63.365L216.459 72.5193L209.523 81.6736C211.876 84.8348 215.699 84.8348 218.094 81.7293L220.761 78.199L223.43 81.7224C225.782 84.8282 229.647 84.8282 232 81.7224L225.05 72.5193L232 63.3162Z" fill="#FAFAFA"/>
<path d="M232 81.81C229.647 78.7042 225.782 78.7042 223.43 81.81L209.523 100.167C211.876 103.329 215.699 103.329 218.094 100.223L232 81.81Z" fill="#FAFAFA"/>
<path d="M232 100.303C229.647 97.1976 225.782 97.1976 223.43 100.303L220.761 103.828L218.094 100.296C215.699 97.1911 211.876 97.1911 209.523 100.352L216.458 109.506L209.523 118.66C211.876 121.821 215.699 121.821 218.094 118.715L220.761 115.186L223.43 118.71C225.782 121.815 229.647 121.815 232 118.71L225.05 109.506L232 100.303Z" fill="#FAFAFA"/>
<path d="M232 118.797C229.647 115.691 225.782 115.691 223.43 118.797L209.523 137.154C211.876 140.316 215.699 140.316 218.094 137.21L232 118.797Z" fill="#FAFAFA"/>
<path d="M232 137.292C229.647 134.186 225.782 134.186 223.43 137.292L220.762 140.815L218.094 137.283C215.699 134.177 211.876 134.177 209.523 137.338L216.459 146.494L209.523 155.649C211.876 158.81 215.699 158.809 218.094 155.704L220.761 152.173L223.43 155.696C225.782 158.802 229.647 158.802 232 155.696L225.051 146.494L232 137.292Z" fill="#FAFAFA"/>
<path d="M232 155.784C229.647 152.678 225.782 152.678 223.43 155.784L209.523 174.142C211.876 177.303 215.699 177.303 218.094 174.197L232 155.784Z" fill="#FAFAFA"/>
<path d="M232 174.277C229.647 171.171 225.782 171.171 223.43 174.277L220.761 177.802L218.094 174.27C215.699 171.165 211.876 171.165 209.523 174.326L216.459 183.48L209.523 192.635C211.876 195.796 215.699 195.796 218.094 192.69L220.761 189.16L223.43 192.683C225.782 195.789 229.647 195.789 232 192.683L225.05 183.48L232 174.277Z" fill="#FAFAFA"/>
<path d="M232 192.771C229.647 189.665 225.782 189.665 223.43 192.771L209.523 211.128C211.876 214.29 215.699 214.29 218.094 211.184L232 192.771Z" fill="#FAFAFA"/>
<path d="M232 211.266C229.647 208.16 225.782 208.16 223.43 211.266L220.762 214.789L218.094 211.257C215.699 208.151 211.876 208.151 209.523 211.312L216.459 220.468L209.523 229.623C211.876 232.784 215.699 232.783 218.094 229.678L220.761 226.147L223.43 229.67C225.782 232.776 229.647 232.776 232 229.67L225.051 220.468L232 211.266Z" fill="#FAFAFA"/>
</svg>
